M48
; DRILL file {KiCad (5.1.10)-1} date 01/19/22 13:11:58
; FORMAT={-:-/ absolute / metric / decimal}
; #@! TF.CreationDate,2022-01-19T13:11:58+05:30
; #@! TF.GenerationSoftware,Kicad,Pcbnew,(5.1.10)-1
; #@! TF.FileFunction,Plated,1,2,PTH
FMAT,2
METRIC
T1C0.300
T2C0.400
T3C0.800
T4C1.000
T5C3.200
%
G90
G05
T1
X11.956Y-41.961
T2
X-19.04Y-53.939
X-19.0Y1.0
X-19.0Y-38.0
X-19.0Y-40.0
X-19.0Y-42.0
X-19.0Y-44.0
X-19.0Y-46.0
X-19.0Y-48.0
X-19.0Y-50.0
X-19.0Y-52.0
X-18.0Y4.0
X-16.505Y-53.523
X-16.485Y-34.524
X-16.0Y4.0
X-16.0Y-40.0
X-15.273Y-34.483
X-15.0Y-42.0
X-15.0Y-48.0
X-14.813Y-37.285
X-14.236Y-34.487
X-14.031Y-54.661
X-14.0Y4.0
X-13.0Y-42.0
X-12.258Y-34.585
X-12.16Y-5.16
X-12.16Y-7.16
X-12.03Y-9.16
X-12.0Y4.0
X-11.882Y-57.292
X-11.318Y-11.582
X-11.0Y-42.0
X-11.0Y-45.0
X-11.0Y-52.0
X-11.0Y-59.0
X-10.0Y4.0
X-10.0Y-5.0
X-10.0Y-7.0
X-9.261Y-14.808
X-9.0Y-42.0
X-9.0Y-59.0
X-8.898Y-37.617
X-8.255Y-10.673
X-8.245Y-8.306
X-7.757Y-36.825
X-7.0Y-42.0
X-7.0Y-59.0
X-6.477Y-3.967
X-6.0Y-48.0
X-6.0Y-56.0
X-5.847Y-6.797
X-5.278Y-3.231
X-5.0Y4.0
X-5.0Y-42.0
X-5.0Y-59.0
X-4.973Y-34.508
X-3.785Y-6.06
X-3.0Y4.0
X-3.0Y-42.0
X-3.0Y-59.0
X-2.0Y-45.0
X-2.0Y-52.0
X-1.245Y-3.855
X-1.0Y-7.0
X-1.0Y-42.0
X-1.0Y-59.0
X-0.22Y-10.41
X1.0Y-4.0
X1.0Y-14.0
X1.0Y-18.0
X1.0Y-20.0
X1.0Y-22.0
X1.0Y-24.0
X1.0Y-26.0
X1.0Y-28.0
X1.0Y-30.0
X1.0Y-32.0
X1.0Y-34.0
X1.0Y-42.0
X1.0Y-44.0
X1.0Y-46.0
X1.0Y-48.0
X1.0Y-50.0
X1.0Y-52.0
X1.0Y-54.0
X1.0Y-56.0
X1.0Y-59.0
X1.24Y-6.76
X3.0Y-4.0
X3.0Y-54.0
X3.0Y-59.0
X3.24Y-6.76
X4.77Y-18.43
X5.0Y-4.0
X5.0Y-54.0
X5.0Y-59.0
X5.05Y-6.76
X7.0Y-54.0
X7.0Y-59.0
X7.021Y3.048
X8.0Y-4.0
X8.026Y-11.938
X8.24Y-6.76
X9.0Y-54.0
X9.0Y-56.0
X9.0Y-59.0
X9.795Y-12.945
X10.0Y-4.0
X10.0Y-15.0
X10.0Y-17.0
X10.0Y-19.0
X10.0Y-21.0
X10.0Y-23.0
X10.0Y-25.0
X10.0Y-27.0
X10.0Y-29.0
X10.0Y-31.0
X10.0Y-33.0
X10.0Y-35.0
X10.0Y-37.0
X10.0Y-41.0
X10.24Y-6.76
X10.582Y-49.911
X10.61Y-47.808
X10.72Y-10.41
X11.0Y-54.0
X11.0Y-59.0
X12.0Y-4.0
X12.0Y-38.0
X12.0Y-40.0
X12.24Y-6.76
X12.59Y-17.46
X12.7Y-27.2
X12.7Y-29.1
X12.7Y-31.2
X13.0Y-54.0
X13.538Y-57.81
X13.767Y-55.738
X13.929Y-59.233
X14.0Y-19.0
X14.0Y-21.0
X14.0Y-39.0
X14.138Y-47.635
X15.0Y2.0
X15.0Y0.0
X15.0Y-2.0
X15.0Y-4.0
X15.0Y-6.0
X15.0Y-23.0
X15.0Y-27.0
X15.0Y-29.0
X15.0Y-31.0
X15.0Y-36.0
X15.0Y-38.0
X15.0Y-54.0
X15.011Y-14.989
X15.215Y-7.785
X16.571Y-44.323
X16.71Y-12.96
X17.0Y1.0
X17.0Y-2.0
X17.0Y-5.0
X17.0Y-8.0
X17.648Y-39.614
X18.06Y-10.38
X18.684Y-44.049
X19.0Y-12.0
X19.0Y-14.0
X19.0Y-16.0
X19.0Y-18.0
X19.0Y-20.0
X19.0Y-22.0
X19.0Y-24.0
X19.0Y-26.0
X19.0Y-28.0
X19.0Y-30.0
X19.0Y-32.0
X19.0Y-34.0
X19.0Y-36.0
X19.0Y-38.0
X19.0Y-40.0
T3
X4.74Y-21.798
X4.78Y-30.457
X4.816Y-39.116
X8.24Y-21.798
X8.28Y-30.457
X8.316Y-39.116
X12.703Y-25.319
X12.723Y-33.962
X16.203Y-25.319
X16.223Y-33.962
T4
X-11.405Y1.245
X-11.405Y-1.295
X-8.865Y1.245
X-8.865Y-1.295
X-6.325Y1.245
X-6.325Y-1.295
X-3.785Y1.245
X-3.785Y-1.295
X-1.245Y1.245
X-1.245Y-1.295
X1.295Y1.245
X1.295Y-1.295
X3.835Y1.245
X3.835Y-1.295
X6.375Y1.245
X6.375Y-1.295
X8.915Y1.245
X8.915Y-1.295
X11.455Y1.245
X11.455Y-1.295
T5
X-17.0Y-57.0
X17.0Y-57.0
T0
M30
