%FSLAX45Y45*%
G04 Gerber Fmt 4.5, Leading zero omitted, Abs format (unit mm)*
G04 Created by KiCad (PCBNEW (5.1.10)-1) date 2022-03-11 13:31:08*
%MOMM*%
%LPD*%
G01*
G04 APERTURE LIST*
%TA.AperFunction,Profile*%
%ADD10C,0.150000*%
%TD*%
%ADD11C,0.200000*%
%ADD12C,0.300000*%
G04 APERTURE END LIST*
D10*
X-250000Y-6000000D02*
X1700000Y-6000000D01*
X-1200000Y-6000000D02*
X-250000Y-6000000D01*
X-1700000Y-6000000D02*
G75*
G02*
X-2000000Y-5700000I0J300000D01*
G01*
X2000000Y-5700000D02*
G75*
G02*
X1700000Y-6000000I-300000J0D01*
G01*
X1700000Y500000D02*
G75*
G02*
X2000000Y200000I0J-300000D01*
G01*
X-2000000Y200000D02*
G75*
G02*
X-1700000Y500000I300000J0D01*
G01*
X-2000000Y-5700000D02*
X-2000000Y200000D01*
X-1200000Y-6000000D02*
X-1700000Y-6000000D01*
X2000000Y200000D02*
X2000000Y-5700000D01*
X-1700000Y500000D02*
X1700000Y500000D01*
D11*
X-1923984Y-5373944D02*
X-1883984Y-5413944D01*
X-1883984Y-5373944D02*
X-1923984Y-5413944D01*
X-1920000Y120000D02*
X-1880000Y80000D01*
X-1880000Y120000D02*
X-1920000Y80000D01*
X-1920000Y-3780000D02*
X-1880000Y-3820000D01*
X-1880000Y-3780000D02*
X-1920000Y-3820000D01*
X-1920000Y-3980000D02*
X-1880000Y-4020000D01*
X-1880000Y-3980000D02*
X-1920000Y-4020000D01*
X-1920000Y-4180000D02*
X-1880000Y-4220000D01*
X-1880000Y-4180000D02*
X-1920000Y-4220000D01*
X-1920000Y-4380000D02*
X-1880000Y-4420000D01*
X-1880000Y-4380000D02*
X-1920000Y-4420000D01*
X-1920000Y-4580000D02*
X-1880000Y-4620000D01*
X-1880000Y-4580000D02*
X-1920000Y-4620000D01*
X-1920000Y-4780000D02*
X-1880000Y-4820000D01*
X-1880000Y-4780000D02*
X-1920000Y-4820000D01*
X-1920000Y-4980000D02*
X-1880000Y-5020000D01*
X-1880000Y-4980000D02*
X-1920000Y-5020000D01*
X-1920000Y-5180000D02*
X-1880000Y-5220000D01*
X-1880000Y-5180000D02*
X-1920000Y-5220000D01*
X-1820000Y420000D02*
X-1780000Y380000D01*
X-1780000Y420000D02*
X-1820000Y380000D01*
X-1670492Y-5332288D02*
X-1630492Y-5372288D01*
X-1630492Y-5332288D02*
X-1670492Y-5372288D01*
X-1668460Y-3432368D02*
X-1628460Y-3472368D01*
X-1628460Y-3432368D02*
X-1668460Y-3472368D01*
X-1620000Y420000D02*
X-1580000Y380000D01*
X-1580000Y420000D02*
X-1620000Y380000D01*
X-1620000Y-3980000D02*
X-1580000Y-4020000D01*
X-1580000Y-3980000D02*
X-1620000Y-4020000D01*
X-1547302Y-3428304D02*
X-1507302Y-3468304D01*
X-1507302Y-3428304D02*
X-1547302Y-3468304D01*
X-1520000Y-4180000D02*
X-1480000Y-4220000D01*
X-1480000Y-4180000D02*
X-1520000Y-4220000D01*
X-1520000Y-4780000D02*
X-1480000Y-4820000D01*
X-1480000Y-4780000D02*
X-1520000Y-4820000D01*
X-1501328Y-3708466D02*
X-1461328Y-3748466D01*
X-1461328Y-3708466D02*
X-1501328Y-3748466D01*
X-1443568Y-3428710D02*
X-1403568Y-3468710D01*
X-1403568Y-3428710D02*
X-1443568Y-3468710D01*
X-1423096Y-5446080D02*
X-1383096Y-5486080D01*
X-1383096Y-5446080D02*
X-1423096Y-5486080D01*
X-1420000Y420000D02*
X-1380000Y380000D01*
X-1380000Y420000D02*
X-1420000Y380000D01*
X-1320000Y-4180000D02*
X-1280000Y-4220000D01*
X-1280000Y-4180000D02*
X-1320000Y-4220000D01*
X-1245804Y-3438464D02*
X-1205804Y-3478464D01*
X-1205804Y-3438464D02*
X-1245804Y-3478464D01*
X-1236000Y-496000D02*
X-1196000Y-536000D01*
X-1196000Y-496000D02*
X-1236000Y-536000D01*
X-1236000Y-696000D02*
X-1196000Y-736000D01*
X-1196000Y-696000D02*
X-1236000Y-736000D01*
X-1223000Y-896000D02*
X-1183000Y-936000D01*
X-1183000Y-896000D02*
X-1223000Y-936000D01*
X-1220000Y420000D02*
X-1180000Y380000D01*
X-1180000Y420000D02*
X-1220000Y380000D01*
X-1208212Y-5709224D02*
X-1168212Y-5749224D01*
X-1168212Y-5709224D02*
X-1208212Y-5749224D01*
X-1151824Y-1138240D02*
X-1111824Y-1178240D01*
X-1111824Y-1138240D02*
X-1151824Y-1178240D01*
X-1120000Y-4180000D02*
X-1080000Y-4220000D01*
X-1080000Y-4180000D02*
X-1120000Y-4220000D01*
X-1120000Y-4480000D02*
X-1080000Y-4520000D01*
X-1080000Y-4480000D02*
X-1120000Y-4520000D01*
X-1120000Y-5180000D02*
X-1080000Y-5220000D01*
X-1080000Y-5180000D02*
X-1120000Y-5220000D01*
X-1120000Y-5880000D02*
X-1080000Y-5920000D01*
X-1080000Y-5880000D02*
X-1120000Y-5920000D01*
X-1020000Y420000D02*
X-980000Y380000D01*
X-980000Y420000D02*
X-1020000Y380000D01*
X-1020000Y-480000D02*
X-980000Y-520000D01*
X-980000Y-480000D02*
X-1020000Y-520000D01*
X-1020000Y-680000D02*
X-980000Y-720000D01*
X-980000Y-680000D02*
X-1020000Y-720000D01*
X-946084Y-1460820D02*
X-906084Y-1500820D01*
X-906084Y-1460820D02*
X-946084Y-1500820D01*
X-920000Y-4180000D02*
X-880000Y-4220000D01*
X-880000Y-4180000D02*
X-920000Y-4220000D01*
X-920000Y-5880000D02*
X-880000Y-5920000D01*
X-880000Y-5880000D02*
X-920000Y-5920000D01*
X-909790Y-3741712D02*
X-869790Y-3781712D01*
X-869790Y-3741712D02*
X-909790Y-3781712D01*
X-845500Y-1047308D02*
X-805500Y-1087308D01*
X-805500Y-1047308D02*
X-845500Y-1087308D01*
X-844484Y-810580D02*
X-804484Y-850580D01*
X-804484Y-810580D02*
X-844484Y-850580D01*
X-795716Y-3662492D02*
X-755716Y-3702492D01*
X-755716Y-3662492D02*
X-795716Y-3702492D01*
X-720000Y-4180000D02*
X-680000Y-4220000D01*
X-680000Y-4180000D02*
X-720000Y-4220000D01*
X-720000Y-5880000D02*
X-680000Y-5920000D01*
X-680000Y-5880000D02*
X-720000Y-5920000D01*
X-667700Y-376748D02*
X-627700Y-416748D01*
X-627700Y-376748D02*
X-667700Y-416748D01*
X-620000Y-4780000D02*
X-580000Y-4820000D01*
X-580000Y-4780000D02*
X-620000Y-4820000D01*
X-620000Y-5580000D02*
X-580000Y-5620000D01*
X-580000Y-5580000D02*
X-620000Y-5620000D01*
X-604708Y-659704D02*
X-564708Y-699704D01*
X-564708Y-659704D02*
X-604708Y-699704D01*
X-547812Y-303088D02*
X-507812Y-343088D01*
X-507812Y-303088D02*
X-547812Y-343088D01*
X-520000Y420000D02*
X-480000Y380000D01*
X-480000Y420000D02*
X-520000Y380000D01*
X-520000Y-4180000D02*
X-480000Y-4220000D01*
X-480000Y-4180000D02*
X-520000Y-4220000D01*
X-520000Y-5880000D02*
X-480000Y-5920000D01*
X-480000Y-5880000D02*
X-520000Y-5920000D01*
X-517332Y-3430844D02*
X-477332Y-3470844D01*
X-477332Y-3430844D02*
X-517332Y-3470844D01*
X-398460Y-586044D02*
X-358460Y-626044D01*
X-358460Y-586044D02*
X-398460Y-626044D01*
X-320000Y420000D02*
X-280000Y380000D01*
X-280000Y420000D02*
X-320000Y380000D01*
X-320000Y-4180000D02*
X-280000Y-4220000D01*
X-280000Y-4180000D02*
X-320000Y-4220000D01*
X-320000Y-5880000D02*
X-280000Y-5920000D01*
X-280000Y-5880000D02*
X-320000Y-5920000D01*
X-220000Y-4480000D02*
X-180000Y-4520000D01*
X-180000Y-4480000D02*
X-220000Y-4520000D01*
X-220000Y-5180000D02*
X-180000Y-5220000D01*
X-180000Y-5180000D02*
X-220000Y-5220000D01*
X-144460Y-365460D02*
X-104460Y-405460D01*
X-104460Y-365460D02*
X-144460Y-405460D01*
X-120000Y-680000D02*
X-80000Y-720000D01*
X-80000Y-680000D02*
X-120000Y-720000D01*
X-120000Y-4180000D02*
X-80000Y-4220000D01*
X-80000Y-4180000D02*
X-120000Y-4220000D01*
X-120000Y-5880000D02*
X-80000Y-5920000D01*
X-80000Y-5880000D02*
X-120000Y-5920000D01*
X-42000Y-1021000D02*
X-2000Y-1061000D01*
X-2000Y-1021000D02*
X-42000Y-1061000D01*
X80000Y-380000D02*
X120000Y-420000D01*
X120000Y-380000D02*
X80000Y-420000D01*
X80000Y-1380000D02*
X120000Y-1420000D01*
X120000Y-1380000D02*
X80000Y-1420000D01*
X80000Y-1780000D02*
X120000Y-1820000D01*
X120000Y-1780000D02*
X80000Y-1820000D01*
X80000Y-1980000D02*
X120000Y-2020000D01*
X120000Y-1980000D02*
X80000Y-2020000D01*
X80000Y-2180000D02*
X120000Y-2220000D01*
X120000Y-2180000D02*
X80000Y-2220000D01*
X80000Y-2380000D02*
X120000Y-2420000D01*
X120000Y-2380000D02*
X80000Y-2420000D01*
X80000Y-2580000D02*
X120000Y-2620000D01*
X120000Y-2580000D02*
X80000Y-2620000D01*
X80000Y-2780000D02*
X120000Y-2820000D01*
X120000Y-2780000D02*
X80000Y-2820000D01*
X80000Y-2980000D02*
X120000Y-3020000D01*
X120000Y-2980000D02*
X80000Y-3020000D01*
X80000Y-3180000D02*
X120000Y-3220000D01*
X120000Y-3180000D02*
X80000Y-3220000D01*
X80000Y-3380000D02*
X120000Y-3420000D01*
X120000Y-3380000D02*
X80000Y-3420000D01*
X80000Y-4180000D02*
X120000Y-4220000D01*
X120000Y-4180000D02*
X80000Y-4220000D01*
X80000Y-4380000D02*
X120000Y-4420000D01*
X120000Y-4380000D02*
X80000Y-4420000D01*
X80000Y-4580000D02*
X120000Y-4620000D01*
X120000Y-4580000D02*
X80000Y-4620000D01*
X80000Y-4780000D02*
X120000Y-4820000D01*
X120000Y-4780000D02*
X80000Y-4820000D01*
X80000Y-4980000D02*
X120000Y-5020000D01*
X120000Y-4980000D02*
X80000Y-5020000D01*
X80000Y-5180000D02*
X120000Y-5220000D01*
X120000Y-5180000D02*
X80000Y-5220000D01*
X80000Y-5380000D02*
X120000Y-5420000D01*
X120000Y-5380000D02*
X80000Y-5420000D01*
X80000Y-5580000D02*
X120000Y-5620000D01*
X120000Y-5580000D02*
X80000Y-5620000D01*
X80000Y-5880000D02*
X120000Y-5920000D01*
X120000Y-5880000D02*
X80000Y-5920000D01*
X104000Y-656000D02*
X144000Y-696000D01*
X144000Y-656000D02*
X104000Y-696000D01*
X280000Y-380000D02*
X320000Y-420000D01*
X320000Y-380000D02*
X280000Y-420000D01*
X280000Y-5380000D02*
X320000Y-5420000D01*
X320000Y-5380000D02*
X280000Y-5420000D01*
X280000Y-5880000D02*
X320000Y-5920000D01*
X320000Y-5880000D02*
X280000Y-5920000D01*
X304000Y-656000D02*
X344000Y-696000D01*
X344000Y-656000D02*
X304000Y-696000D01*
X457012Y-1823024D02*
X497012Y-1863024D01*
X497012Y-1823024D02*
X457012Y-1863024D01*
X480000Y-380000D02*
X520000Y-420000D01*
X520000Y-380000D02*
X480000Y-420000D01*
X480000Y-5380000D02*
X520000Y-5420000D01*
X520000Y-5380000D02*
X480000Y-5420000D01*
X480000Y-5880000D02*
X520000Y-5920000D01*
X520000Y-5880000D02*
X480000Y-5920000D01*
X485000Y-656000D02*
X525000Y-696000D01*
X525000Y-656000D02*
X485000Y-696000D01*
X680000Y-5380000D02*
X720000Y-5420000D01*
X720000Y-5380000D02*
X680000Y-5420000D01*
X680000Y-5880000D02*
X720000Y-5920000D01*
X720000Y-5880000D02*
X680000Y-5920000D01*
X682056Y324800D02*
X722056Y284800D01*
X722056Y324800D02*
X682056Y284800D01*
X780000Y-380000D02*
X820000Y-420000D01*
X820000Y-380000D02*
X780000Y-420000D01*
X782640Y-1173800D02*
X822640Y-1213800D01*
X822640Y-1173800D02*
X782640Y-1213800D01*
X804000Y-656000D02*
X844000Y-696000D01*
X844000Y-656000D02*
X804000Y-696000D01*
X880000Y-5380000D02*
X920000Y-5420000D01*
X920000Y-5380000D02*
X880000Y-5420000D01*
X880000Y-5580000D02*
X920000Y-5620000D01*
X920000Y-5580000D02*
X880000Y-5620000D01*
X880000Y-5880000D02*
X920000Y-5920000D01*
X920000Y-5880000D02*
X880000Y-5920000D01*
X959500Y-1274500D02*
X999500Y-1314500D01*
X999500Y-1274500D02*
X959500Y-1314500D01*
X980000Y-380000D02*
X1020000Y-420000D01*
X1020000Y-380000D02*
X980000Y-420000D01*
X980000Y-1480000D02*
X1020000Y-1520000D01*
X1020000Y-1480000D02*
X980000Y-1520000D01*
X980000Y-1680000D02*
X1020000Y-1720000D01*
X1020000Y-1680000D02*
X980000Y-1720000D01*
X980000Y-1880000D02*
X1020000Y-1920000D01*
X1020000Y-1880000D02*
X980000Y-1920000D01*
X980000Y-2080000D02*
X1020000Y-2120000D01*
X1020000Y-2080000D02*
X980000Y-2120000D01*
X980000Y-2280000D02*
X1020000Y-2320000D01*
X1020000Y-2280000D02*
X980000Y-2320000D01*
X980000Y-2480000D02*
X1020000Y-2520000D01*
X1020000Y-2480000D02*
X980000Y-2520000D01*
X980000Y-2680000D02*
X1020000Y-2720000D01*
X1020000Y-2680000D02*
X980000Y-2720000D01*
X980000Y-2880000D02*
X1020000Y-2920000D01*
X1020000Y-2880000D02*
X980000Y-2920000D01*
X980000Y-3080000D02*
X1020000Y-3120000D01*
X1020000Y-3080000D02*
X980000Y-3120000D01*
X980000Y-3280000D02*
X1020000Y-3320000D01*
X1020000Y-3280000D02*
X980000Y-3320000D01*
X980000Y-3480000D02*
X1020000Y-3520000D01*
X1020000Y-3480000D02*
X980000Y-3520000D01*
X980000Y-3680000D02*
X1020000Y-3720000D01*
X1020000Y-3680000D02*
X980000Y-3720000D01*
X980000Y-4080000D02*
X1020000Y-4120000D01*
X1020000Y-4080000D02*
X980000Y-4120000D01*
X1004000Y-656000D02*
X1044000Y-696000D01*
X1044000Y-656000D02*
X1004000Y-696000D01*
X1038000Y-4875000D02*
X1078000Y-4915000D01*
X1078000Y-4875000D02*
X1038000Y-4915000D01*
X1040958Y-4760788D02*
X1080958Y-4800788D01*
X1080958Y-4760788D02*
X1040958Y-4800788D01*
X1052000Y-1021000D02*
X1092000Y-1061000D01*
X1092000Y-1021000D02*
X1052000Y-1061000D01*
X1080000Y-5380000D02*
X1120000Y-5420000D01*
X1120000Y-5380000D02*
X1080000Y-5420000D01*
X1080000Y-5880000D02*
X1120000Y-5920000D01*
X1120000Y-5880000D02*
X1080000Y-5920000D01*
X1180000Y-380000D02*
X1220000Y-420000D01*
X1220000Y-380000D02*
X1180000Y-420000D01*
X1180000Y-3780000D02*
X1220000Y-3820000D01*
X1220000Y-3780000D02*
X1180000Y-3820000D01*
X1204000Y-656000D02*
X1244000Y-696000D01*
X1244000Y-656000D02*
X1204000Y-696000D01*
X1239000Y-1726000D02*
X1279000Y-1766000D01*
X1279000Y-1726000D02*
X1239000Y-1766000D01*
X1250000Y-2700000D02*
X1290000Y-2740000D01*
X1290000Y-2700000D02*
X1250000Y-2740000D01*
X1250000Y-2890000D02*
X1290000Y-2930000D01*
X1290000Y-2890000D02*
X1250000Y-2930000D01*
X1250000Y-3100000D02*
X1290000Y-3140000D01*
X1290000Y-3100000D02*
X1250000Y-3140000D01*
X1280000Y-5380000D02*
X1320000Y-5420000D01*
X1320000Y-5380000D02*
X1280000Y-5420000D01*
X1321000Y-1959000D02*
X1361000Y-1999000D01*
X1361000Y-1959000D02*
X1321000Y-1999000D01*
X1333820Y-5761040D02*
X1373820Y-5801040D01*
X1373820Y-5761040D02*
X1333820Y-5801040D01*
X1351000Y-4840000D02*
X1391000Y-4880000D01*
X1391000Y-4840000D02*
X1351000Y-4880000D01*
X1356680Y-5553776D02*
X1396680Y-5593776D01*
X1396680Y-5553776D02*
X1356680Y-5593776D01*
X1372936Y-5903280D02*
X1412936Y-5943280D01*
X1412936Y-5903280D02*
X1372936Y-5943280D01*
X1375000Y-2133000D02*
X1415000Y-2173000D01*
X1415000Y-2133000D02*
X1375000Y-2173000D01*
X1380000Y-3880000D02*
X1420000Y-3920000D01*
X1420000Y-3880000D02*
X1380000Y-3920000D01*
X1480000Y220000D02*
X1520000Y180000D01*
X1520000Y220000D02*
X1480000Y180000D01*
X1480000Y20000D02*
X1520000Y-20000D01*
X1520000Y20000D02*
X1480000Y-20000D01*
X1480000Y-180000D02*
X1520000Y-220000D01*
X1520000Y-180000D02*
X1480000Y-220000D01*
X1480000Y-380000D02*
X1520000Y-420000D01*
X1520000Y-380000D02*
X1480000Y-420000D01*
X1480000Y-580000D02*
X1520000Y-620000D01*
X1520000Y-580000D02*
X1480000Y-620000D01*
X1480000Y-2280000D02*
X1520000Y-2320000D01*
X1520000Y-2280000D02*
X1480000Y-2320000D01*
X1480000Y-2680000D02*
X1520000Y-2720000D01*
X1520000Y-2680000D02*
X1480000Y-2720000D01*
X1480000Y-2880000D02*
X1520000Y-2920000D01*
X1520000Y-2880000D02*
X1480000Y-2920000D01*
X1480000Y-3080000D02*
X1520000Y-3120000D01*
X1520000Y-3080000D02*
X1480000Y-3120000D01*
X1480000Y-3580000D02*
X1520000Y-3620000D01*
X1520000Y-3580000D02*
X1480000Y-3620000D01*
X1480000Y-3780000D02*
X1520000Y-3820000D01*
X1520000Y-3780000D02*
X1480000Y-3820000D01*
X1480000Y-5380000D02*
X1520000Y-5420000D01*
X1520000Y-5380000D02*
X1480000Y-5420000D01*
X1481146Y-1478854D02*
X1521146Y-1518854D01*
X1521146Y-1478854D02*
X1481146Y-1518854D01*
X1501500Y-758500D02*
X1541500Y-798500D01*
X1541500Y-758500D02*
X1501500Y-798500D01*
X1637096Y-4412300D02*
X1677096Y-4452300D01*
X1677096Y-4412300D02*
X1637096Y-4452300D01*
X1651000Y-1276000D02*
X1691000Y-1316000D01*
X1691000Y-1276000D02*
X1651000Y-1316000D01*
X1680000Y120000D02*
X1720000Y80000D01*
X1720000Y120000D02*
X1680000Y80000D01*
X1680000Y-180000D02*
X1720000Y-220000D01*
X1720000Y-180000D02*
X1680000Y-220000D01*
X1680000Y-480000D02*
X1720000Y-520000D01*
X1720000Y-480000D02*
X1680000Y-520000D01*
X1680000Y-780000D02*
X1720000Y-820000D01*
X1720000Y-780000D02*
X1680000Y-820000D01*
X1744792Y-3941384D02*
X1784792Y-3981384D01*
X1784792Y-3941384D02*
X1744792Y-3981384D01*
X1786000Y-1018000D02*
X1826000Y-1058000D01*
X1826000Y-1018000D02*
X1786000Y-1058000D01*
X1848424Y-4384868D02*
X1888424Y-4424868D01*
X1888424Y-4384868D02*
X1848424Y-4424868D01*
X1880000Y-1180000D02*
X1920000Y-1220000D01*
X1920000Y-1180000D02*
X1880000Y-1220000D01*
X1880000Y-1380000D02*
X1920000Y-1420000D01*
X1920000Y-1380000D02*
X1880000Y-1420000D01*
X1880000Y-1580000D02*
X1920000Y-1620000D01*
X1920000Y-1580000D02*
X1880000Y-1620000D01*
X1880000Y-1780000D02*
X1920000Y-1820000D01*
X1920000Y-1780000D02*
X1880000Y-1820000D01*
X1880000Y-1980000D02*
X1920000Y-2020000D01*
X1920000Y-1980000D02*
X1880000Y-2020000D01*
X1880000Y-2180000D02*
X1920000Y-2220000D01*
X1920000Y-2180000D02*
X1880000Y-2220000D01*
X1880000Y-2380000D02*
X1920000Y-2420000D01*
X1920000Y-2380000D02*
X1880000Y-2420000D01*
X1880000Y-2580000D02*
X1920000Y-2620000D01*
X1920000Y-2580000D02*
X1880000Y-2620000D01*
X1880000Y-2780000D02*
X1920000Y-2820000D01*
X1920000Y-2780000D02*
X1880000Y-2820000D01*
X1880000Y-2980000D02*
X1920000Y-3020000D01*
X1920000Y-2980000D02*
X1880000Y-3020000D01*
X1880000Y-3180000D02*
X1920000Y-3220000D01*
X1920000Y-3180000D02*
X1880000Y-3220000D01*
X1880000Y-3380000D02*
X1920000Y-3420000D01*
X1920000Y-3380000D02*
X1880000Y-3420000D01*
X1880000Y-3580000D02*
X1920000Y-3620000D01*
X1920000Y-3580000D02*
X1880000Y-3620000D01*
X1880000Y-3780000D02*
X1920000Y-3820000D01*
X1920000Y-3780000D02*
X1880000Y-3820000D01*
X1880000Y-3980000D02*
X1920000Y-4020000D01*
X1920000Y-3980000D02*
X1880000Y-4020000D01*
X1484000Y-1747000D02*
G75*
G03*
X1484000Y-1747000I-35000J0D01*
G01*
X473976Y-2139828D02*
X473976Y-2219828D01*
X433976Y-2179828D02*
X513976Y-2179828D01*
X478040Y-3005714D02*
X478040Y-3085714D01*
X438040Y-3045714D02*
X518040Y-3045714D01*
X481584Y-3871600D02*
X481584Y-3951600D01*
X441584Y-3911600D02*
X521584Y-3911600D01*
X823976Y-2139828D02*
X823976Y-2219828D01*
X783976Y-2179828D02*
X863976Y-2179828D01*
X828040Y-3005714D02*
X828040Y-3085714D01*
X788040Y-3045714D02*
X868040Y-3045714D01*
X831584Y-3871600D02*
X831584Y-3951600D01*
X791584Y-3911600D02*
X871584Y-3911600D01*
X1270254Y-2491872D02*
X1270254Y-2571872D01*
X1230254Y-2531872D02*
X1310254Y-2531872D01*
X1272286Y-3356234D02*
X1272286Y-3436234D01*
X1232286Y-3396234D02*
X1312286Y-3396234D01*
X1620254Y-2491872D02*
X1620254Y-2571872D01*
X1580254Y-2531872D02*
X1660254Y-2531872D01*
X1622286Y-3356234D02*
X1622286Y-3436234D01*
X1582286Y-3396234D02*
X1662286Y-3396234D01*
X-1105104Y89104D02*
X-1105104Y159816D01*
X-1175816Y159816D01*
X-1175816Y89104D01*
X-1105104Y89104D01*
X-1105104Y-164896D02*
X-1105104Y-94184D01*
X-1175816Y-94184D01*
X-1175816Y-164896D01*
X-1105104Y-164896D01*
X-851104Y89104D02*
X-851104Y159816D01*
X-921816Y159816D01*
X-921816Y89104D01*
X-851104Y89104D01*
X-851104Y-164896D02*
X-851104Y-94184D01*
X-921816Y-94184D01*
X-921816Y-164896D01*
X-851104Y-164896D01*
X-597104Y89104D02*
X-597104Y159816D01*
X-667816Y159816D01*
X-667816Y89104D01*
X-597104Y89104D01*
X-597104Y-164896D02*
X-597104Y-94184D01*
X-667816Y-94184D01*
X-667816Y-164896D01*
X-597104Y-164896D01*
X-343104Y89104D02*
X-343104Y159816D01*
X-413816Y159816D01*
X-413816Y89104D01*
X-343104Y89104D01*
X-343104Y-164896D02*
X-343104Y-94184D01*
X-413816Y-94184D01*
X-413816Y-164896D01*
X-343104Y-164896D01*
X-89104Y89104D02*
X-89104Y159816D01*
X-159816Y159816D01*
X-159816Y89104D01*
X-89104Y89104D01*
X-89104Y-164896D02*
X-89104Y-94184D01*
X-159816Y-94184D01*
X-159816Y-164896D01*
X-89104Y-164896D01*
X164896Y89104D02*
X164896Y159816D01*
X94184Y159816D01*
X94184Y89104D01*
X164896Y89104D01*
X164896Y-164896D02*
X164896Y-94184D01*
X94184Y-94184D01*
X94184Y-164896D01*
X164896Y-164896D01*
X418896Y89104D02*
X418896Y159816D01*
X348184Y159816D01*
X348184Y89104D01*
X418896Y89104D01*
X418896Y-164896D02*
X418896Y-94184D01*
X348184Y-94184D01*
X348184Y-164896D01*
X418896Y-164896D01*
X672896Y89104D02*
X672896Y159816D01*
X602184Y159816D01*
X602184Y89104D01*
X672896Y89104D01*
X672896Y-164896D02*
X672896Y-94184D01*
X602184Y-94184D01*
X602184Y-164896D01*
X672896Y-164896D01*
X926896Y89104D02*
X926896Y159816D01*
X856184Y159816D01*
X856184Y89104D01*
X926896Y89104D01*
X926896Y-164896D02*
X926896Y-94184D01*
X856184Y-94184D01*
X856184Y-164896D01*
X926896Y-164896D01*
X1180896Y89104D02*
X1180896Y159816D01*
X1110184Y159816D01*
X1110184Y89104D01*
X1180896Y89104D01*
X1180896Y-164896D02*
X1180896Y-94184D01*
X1110184Y-94184D01*
X1110184Y-164896D01*
X1180896Y-164896D01*
X-1700000Y-5860000D02*
X-1540000Y-5700000D01*
X-1700000Y-5540000D01*
X-1860000Y-5700000D01*
X-1700000Y-5860000D01*
X1700000Y-5860000D02*
X1860000Y-5700000D01*
X1700000Y-5540000D01*
X1540000Y-5700000D01*
X1700000Y-5860000D01*
D12*
X-12813571Y6034286D02*
X-12813571Y6334286D01*
X-12742143Y6334286D01*
X-12699286Y6320000D01*
X-12670714Y6291429D01*
X-12656429Y6262857D01*
X-12642143Y6205714D01*
X-12642143Y6162857D01*
X-12656429Y6105714D01*
X-12670714Y6077143D01*
X-12699286Y6048571D01*
X-12742143Y6034286D01*
X-12813571Y6034286D01*
X-12513571Y6034286D02*
X-12513571Y6234286D01*
X-12513571Y6177143D02*
X-12499286Y6205714D01*
X-12485000Y6220000D01*
X-12456429Y6234286D01*
X-12427857Y6234286D01*
X-12327857Y6034286D02*
X-12327857Y6234286D01*
X-12327857Y6334286D02*
X-12342143Y6320000D01*
X-12327857Y6305714D01*
X-12313571Y6320000D01*
X-12327857Y6334286D01*
X-12327857Y6305714D01*
X-12142143Y6034286D02*
X-12170714Y6048571D01*
X-12185000Y6077143D01*
X-12185000Y6334286D01*
X-11985000Y6034286D02*
X-12013571Y6048571D01*
X-12027857Y6077143D01*
X-12027857Y6334286D01*
X-11642143Y6034286D02*
X-11642143Y6334286D01*
X-11542143Y6120000D01*
X-11442143Y6334286D01*
X-11442143Y6034286D01*
X-11170714Y6034286D02*
X-11170714Y6191429D01*
X-11185000Y6220000D01*
X-11213571Y6234286D01*
X-11270714Y6234286D01*
X-11299286Y6220000D01*
X-11170714Y6048571D02*
X-11199286Y6034286D01*
X-11270714Y6034286D01*
X-11299286Y6048571D01*
X-11313571Y6077143D01*
X-11313571Y6105714D01*
X-11299286Y6134286D01*
X-11270714Y6148571D01*
X-11199286Y6148571D01*
X-11170714Y6162857D01*
X-11027857Y6234286D02*
X-11027857Y5934286D01*
X-11027857Y6220000D02*
X-10999286Y6234286D01*
X-10942143Y6234286D01*
X-10913572Y6220000D01*
X-10899286Y6205714D01*
X-10885000Y6177143D01*
X-10885000Y6091429D01*
X-10899286Y6062857D01*
X-10913572Y6048571D01*
X-10942143Y6034286D01*
X-10999286Y6034286D01*
X-11027857Y6048571D01*
X-10756429Y6062857D02*
X-10742143Y6048571D01*
X-10756429Y6034286D01*
X-10770714Y6048571D01*
X-10756429Y6062857D01*
X-10756429Y6034286D01*
X-10756429Y6220000D02*
X-10742143Y6205714D01*
X-10756429Y6191429D01*
X-10770714Y6205714D01*
X-10756429Y6220000D01*
X-10756429Y6191429D01*
X-13140000Y5560000D02*
X-13100000Y5520000D01*
X-13100000Y5560000D02*
X-13140000Y5520000D01*
X-12756429Y5704286D02*
X-12727857Y5704286D01*
X-12699286Y5690000D01*
X-12685000Y5675714D01*
X-12670714Y5647143D01*
X-12656429Y5590000D01*
X-12656429Y5518572D01*
X-12670714Y5461429D01*
X-12685000Y5432857D01*
X-12699286Y5418572D01*
X-12727857Y5404286D01*
X-12756429Y5404286D01*
X-12785000Y5418572D01*
X-12799286Y5432857D01*
X-12813571Y5461429D01*
X-12827857Y5518572D01*
X-12827857Y5590000D01*
X-12813571Y5647143D01*
X-12799286Y5675714D01*
X-12785000Y5690000D01*
X-12756429Y5704286D01*
X-12527857Y5432857D02*
X-12513571Y5418572D01*
X-12527857Y5404286D01*
X-12542143Y5418572D01*
X-12527857Y5432857D01*
X-12527857Y5404286D01*
X-12256429Y5604286D02*
X-12256429Y5404286D01*
X-12327857Y5718571D02*
X-12399286Y5504286D01*
X-12213571Y5504286D01*
X-12042143Y5704286D02*
X-12013571Y5704286D01*
X-11985000Y5690000D01*
X-11970714Y5675714D01*
X-11956429Y5647143D01*
X-11942143Y5590000D01*
X-11942143Y5518572D01*
X-11956429Y5461429D01*
X-11970714Y5432857D01*
X-11985000Y5418572D01*
X-12013571Y5404286D01*
X-12042143Y5404286D01*
X-12070714Y5418572D01*
X-12085000Y5432857D01*
X-12099286Y5461429D01*
X-12113571Y5518572D01*
X-12113571Y5590000D01*
X-12099286Y5647143D01*
X-12085000Y5675714D01*
X-12070714Y5690000D01*
X-12042143Y5704286D01*
X-11756429Y5704286D02*
X-11727857Y5704286D01*
X-11699286Y5690000D01*
X-11685000Y5675714D01*
X-11670714Y5647143D01*
X-11656429Y5590000D01*
X-11656429Y5518572D01*
X-11670714Y5461429D01*
X-11685000Y5432857D01*
X-11699286Y5418572D01*
X-11727857Y5404286D01*
X-11756429Y5404286D01*
X-11785000Y5418572D01*
X-11799286Y5432857D01*
X-11813571Y5461429D01*
X-11827857Y5518572D01*
X-11827857Y5590000D01*
X-11813571Y5647143D01*
X-11799286Y5675714D01*
X-11785000Y5690000D01*
X-11756429Y5704286D01*
X-11527857Y5404286D02*
X-11527857Y5604286D01*
X-11527857Y5575714D02*
X-11513571Y5590000D01*
X-11485000Y5604286D01*
X-11442143Y5604286D01*
X-11413571Y5590000D01*
X-11399286Y5561429D01*
X-11399286Y5404286D01*
X-11399286Y5561429D02*
X-11385000Y5590000D01*
X-11356429Y5604286D01*
X-11313571Y5604286D01*
X-11285000Y5590000D01*
X-11270714Y5561429D01*
X-11270714Y5404286D01*
X-11127857Y5404286D02*
X-11127857Y5604286D01*
X-11127857Y5575714D02*
X-11113572Y5590000D01*
X-11085000Y5604286D01*
X-11042143Y5604286D01*
X-11013572Y5590000D01*
X-10999286Y5561429D01*
X-10999286Y5404286D01*
X-10999286Y5561429D02*
X-10985000Y5590000D01*
X-10956429Y5604286D01*
X-10913572Y5604286D01*
X-10885000Y5590000D01*
X-10870714Y5561429D01*
X-10870714Y5404286D01*
X-10285000Y5718571D02*
X-10542143Y5332857D01*
X-9899286Y5704286D02*
X-9870714Y5704286D01*
X-9842143Y5690000D01*
X-9827857Y5675714D01*
X-9813572Y5647143D01*
X-9799286Y5590000D01*
X-9799286Y5518572D01*
X-9813572Y5461429D01*
X-9827857Y5432857D01*
X-9842143Y5418572D01*
X-9870714Y5404286D01*
X-9899286Y5404286D01*
X-9927857Y5418572D01*
X-9942143Y5432857D01*
X-9956429Y5461429D01*
X-9970714Y5518572D01*
X-9970714Y5590000D01*
X-9956429Y5647143D01*
X-9942143Y5675714D01*
X-9927857Y5690000D01*
X-9899286Y5704286D01*
X-9670714Y5432857D02*
X-9656429Y5418572D01*
X-9670714Y5404286D01*
X-9685000Y5418572D01*
X-9670714Y5432857D01*
X-9670714Y5404286D01*
X-9470714Y5704286D02*
X-9442143Y5704286D01*
X-9413572Y5690000D01*
X-9399286Y5675714D01*
X-9385000Y5647143D01*
X-9370714Y5590000D01*
X-9370714Y5518572D01*
X-9385000Y5461429D01*
X-9399286Y5432857D01*
X-9413572Y5418572D01*
X-9442143Y5404286D01*
X-9470714Y5404286D01*
X-9499286Y5418572D01*
X-9513572Y5432857D01*
X-9527857Y5461429D01*
X-9542143Y5518572D01*
X-9542143Y5590000D01*
X-9527857Y5647143D01*
X-9513572Y5675714D01*
X-9499286Y5690000D01*
X-9470714Y5704286D01*
X-9085000Y5404286D02*
X-9256429Y5404286D01*
X-9170714Y5404286D02*
X-9170714Y5704286D01*
X-9199286Y5661429D01*
X-9227857Y5632857D01*
X-9256429Y5618571D01*
X-8813572Y5704286D02*
X-8956429Y5704286D01*
X-8970714Y5561429D01*
X-8956429Y5575714D01*
X-8927857Y5590000D01*
X-8856429Y5590000D01*
X-8827857Y5575714D01*
X-8813572Y5561429D01*
X-8799286Y5532857D01*
X-8799286Y5461429D01*
X-8813572Y5432857D01*
X-8827857Y5418572D01*
X-8856429Y5404286D01*
X-8927857Y5404286D01*
X-8956429Y5418572D01*
X-8970714Y5432857D01*
X-8699286Y5704286D02*
X-8499286Y5704286D01*
X-8627857Y5404286D01*
X-8399286Y5704286D02*
X-8399286Y5647143D01*
X-8285000Y5704286D02*
X-8285000Y5647143D01*
X-7842143Y5290000D02*
X-7856429Y5304286D01*
X-7885000Y5347143D01*
X-7899286Y5375714D01*
X-7913571Y5418572D01*
X-7927857Y5490000D01*
X-7927857Y5547143D01*
X-7913571Y5618571D01*
X-7899286Y5661429D01*
X-7885000Y5690000D01*
X-7856429Y5732857D01*
X-7842143Y5747143D01*
X-7570714Y5404286D02*
X-7742143Y5404286D01*
X-7656429Y5404286D02*
X-7656429Y5704286D01*
X-7685000Y5661429D01*
X-7713571Y5632857D01*
X-7742143Y5618571D01*
X-7470714Y5704286D02*
X-7270714Y5704286D01*
X-7399286Y5404286D01*
X-7142143Y5404286D02*
X-7085000Y5404286D01*
X-7056429Y5418572D01*
X-7042143Y5432857D01*
X-7013571Y5475714D01*
X-6999286Y5532857D01*
X-6999286Y5647143D01*
X-7013571Y5675714D01*
X-7027857Y5690000D01*
X-7056429Y5704286D01*
X-7113571Y5704286D01*
X-7142143Y5690000D01*
X-7156429Y5675714D01*
X-7170714Y5647143D01*
X-7170714Y5575714D01*
X-7156429Y5547143D01*
X-7142143Y5532857D01*
X-7113571Y5518572D01*
X-7056429Y5518572D01*
X-7027857Y5532857D01*
X-7013571Y5547143D01*
X-6999286Y5575714D01*
X-6642143Y5404286D02*
X-6642143Y5704286D01*
X-6513571Y5404286D02*
X-6513571Y5561429D01*
X-6527857Y5590000D01*
X-6556429Y5604286D01*
X-6599286Y5604286D01*
X-6627857Y5590000D01*
X-6642143Y5575714D01*
X-6327857Y5404286D02*
X-6356429Y5418572D01*
X-6370714Y5432857D01*
X-6385000Y5461429D01*
X-6385000Y5547143D01*
X-6370714Y5575714D01*
X-6356429Y5590000D01*
X-6327857Y5604286D01*
X-6285000Y5604286D01*
X-6256429Y5590000D01*
X-6242143Y5575714D01*
X-6227857Y5547143D01*
X-6227857Y5461429D01*
X-6242143Y5432857D01*
X-6256429Y5418572D01*
X-6285000Y5404286D01*
X-6327857Y5404286D01*
X-6056429Y5404286D02*
X-6085000Y5418572D01*
X-6099286Y5447143D01*
X-6099286Y5704286D01*
X-5827857Y5418572D02*
X-5856429Y5404286D01*
X-5913571Y5404286D01*
X-5942143Y5418572D01*
X-5956429Y5447143D01*
X-5956429Y5561429D01*
X-5942143Y5590000D01*
X-5913571Y5604286D01*
X-5856429Y5604286D01*
X-5827857Y5590000D01*
X-5813571Y5561429D01*
X-5813571Y5532857D01*
X-5956429Y5504286D01*
X-5699286Y5418572D02*
X-5670714Y5404286D01*
X-5613571Y5404286D01*
X-5585000Y5418572D01*
X-5570714Y5447143D01*
X-5570714Y5461429D01*
X-5585000Y5490000D01*
X-5613571Y5504286D01*
X-5656429Y5504286D01*
X-5685000Y5518572D01*
X-5699286Y5547143D01*
X-5699286Y5561429D01*
X-5685000Y5590000D01*
X-5656429Y5604286D01*
X-5613571Y5604286D01*
X-5585000Y5590000D01*
X-5470714Y5290000D02*
X-5456429Y5304286D01*
X-5427857Y5347143D01*
X-5413572Y5375714D01*
X-5399286Y5418572D01*
X-5385000Y5490000D01*
X-5385000Y5547143D01*
X-5399286Y5618571D01*
X-5413572Y5661429D01*
X-5427857Y5690000D01*
X-5456429Y5732857D01*
X-5470714Y5747143D01*
X-13100000Y5144000D02*
G75*
G03*
X-13100000Y5144000I-35000J0D01*
G01*
X-12756429Y5308286D02*
X-12727857Y5308286D01*
X-12699286Y5294000D01*
X-12685000Y5279714D01*
X-12670714Y5251143D01*
X-12656429Y5194000D01*
X-12656429Y5122572D01*
X-12670714Y5065429D01*
X-12685000Y5036857D01*
X-12699286Y5022572D01*
X-12727857Y5008286D01*
X-12756429Y5008286D01*
X-12785000Y5022572D01*
X-12799286Y5036857D01*
X-12813571Y5065429D01*
X-12827857Y5122572D01*
X-12827857Y5194000D01*
X-12813571Y5251143D01*
X-12799286Y5279714D01*
X-12785000Y5294000D01*
X-12756429Y5308286D01*
X-12527857Y5036857D02*
X-12513571Y5022572D01*
X-12527857Y5008286D01*
X-12542143Y5022572D01*
X-12527857Y5036857D01*
X-12527857Y5008286D01*
X-12413571Y5308286D02*
X-12213571Y5308286D01*
X-12342143Y5008286D01*
X-12042143Y5308286D02*
X-12013571Y5308286D01*
X-11985000Y5294000D01*
X-11970714Y5279714D01*
X-11956429Y5251143D01*
X-11942143Y5194000D01*
X-11942143Y5122572D01*
X-11956429Y5065429D01*
X-11970714Y5036857D01*
X-11985000Y5022572D01*
X-12013571Y5008286D01*
X-12042143Y5008286D01*
X-12070714Y5022572D01*
X-12085000Y5036857D01*
X-12099286Y5065429D01*
X-12113571Y5122572D01*
X-12113571Y5194000D01*
X-12099286Y5251143D01*
X-12085000Y5279714D01*
X-12070714Y5294000D01*
X-12042143Y5308286D01*
X-11756429Y5308286D02*
X-11727857Y5308286D01*
X-11699286Y5294000D01*
X-11685000Y5279714D01*
X-11670714Y5251143D01*
X-11656429Y5194000D01*
X-11656429Y5122572D01*
X-11670714Y5065429D01*
X-11685000Y5036857D01*
X-11699286Y5022572D01*
X-11727857Y5008286D01*
X-11756429Y5008286D01*
X-11785000Y5022572D01*
X-11799286Y5036857D01*
X-11813571Y5065429D01*
X-11827857Y5122572D01*
X-11827857Y5194000D01*
X-11813571Y5251143D01*
X-11799286Y5279714D01*
X-11785000Y5294000D01*
X-11756429Y5308286D01*
X-11527857Y5008286D02*
X-11527857Y5208286D01*
X-11527857Y5179714D02*
X-11513571Y5194000D01*
X-11485000Y5208286D01*
X-11442143Y5208286D01*
X-11413571Y5194000D01*
X-11399286Y5165429D01*
X-11399286Y5008286D01*
X-11399286Y5165429D02*
X-11385000Y5194000D01*
X-11356429Y5208286D01*
X-11313571Y5208286D01*
X-11285000Y5194000D01*
X-11270714Y5165429D01*
X-11270714Y5008286D01*
X-11127857Y5008286D02*
X-11127857Y5208286D01*
X-11127857Y5179714D02*
X-11113572Y5194000D01*
X-11085000Y5208286D01*
X-11042143Y5208286D01*
X-11013572Y5194000D01*
X-10999286Y5165429D01*
X-10999286Y5008286D01*
X-10999286Y5165429D02*
X-10985000Y5194000D01*
X-10956429Y5208286D01*
X-10913572Y5208286D01*
X-10885000Y5194000D01*
X-10870714Y5165429D01*
X-10870714Y5008286D01*
X-10285000Y5322572D02*
X-10542143Y4936857D01*
X-9899286Y5308286D02*
X-9870714Y5308286D01*
X-9842143Y5294000D01*
X-9827857Y5279714D01*
X-9813572Y5251143D01*
X-9799286Y5194000D01*
X-9799286Y5122572D01*
X-9813572Y5065429D01*
X-9827857Y5036857D01*
X-9842143Y5022572D01*
X-9870714Y5008286D01*
X-9899286Y5008286D01*
X-9927857Y5022572D01*
X-9942143Y5036857D01*
X-9956429Y5065429D01*
X-9970714Y5122572D01*
X-9970714Y5194000D01*
X-9956429Y5251143D01*
X-9942143Y5279714D01*
X-9927857Y5294000D01*
X-9899286Y5308286D01*
X-9670714Y5036857D02*
X-9656429Y5022572D01*
X-9670714Y5008286D01*
X-9685000Y5022572D01*
X-9670714Y5036857D01*
X-9670714Y5008286D01*
X-9470714Y5308286D02*
X-9442143Y5308286D01*
X-9413572Y5294000D01*
X-9399286Y5279714D01*
X-9385000Y5251143D01*
X-9370714Y5194000D01*
X-9370714Y5122572D01*
X-9385000Y5065429D01*
X-9399286Y5036857D01*
X-9413572Y5022572D01*
X-9442143Y5008286D01*
X-9470714Y5008286D01*
X-9499286Y5022572D01*
X-9513572Y5036857D01*
X-9527857Y5065429D01*
X-9542143Y5122572D01*
X-9542143Y5194000D01*
X-9527857Y5251143D01*
X-9513572Y5279714D01*
X-9499286Y5294000D01*
X-9470714Y5308286D01*
X-9256429Y5279714D02*
X-9242143Y5294000D01*
X-9213572Y5308286D01*
X-9142143Y5308286D01*
X-9113572Y5294000D01*
X-9099286Y5279714D01*
X-9085000Y5251143D01*
X-9085000Y5222572D01*
X-9099286Y5179714D01*
X-9270714Y5008286D01*
X-9085000Y5008286D01*
X-8985000Y5308286D02*
X-8785000Y5308286D01*
X-8913572Y5008286D01*
X-8542143Y5308286D02*
X-8599286Y5308286D01*
X-8627857Y5294000D01*
X-8642143Y5279714D01*
X-8670714Y5236857D01*
X-8685000Y5179714D01*
X-8685000Y5065429D01*
X-8670714Y5036857D01*
X-8656429Y5022572D01*
X-8627857Y5008286D01*
X-8570714Y5008286D01*
X-8542143Y5022572D01*
X-8527857Y5036857D01*
X-8513572Y5065429D01*
X-8513572Y5136857D01*
X-8527857Y5165429D01*
X-8542143Y5179714D01*
X-8570714Y5194000D01*
X-8627857Y5194000D01*
X-8656429Y5179714D01*
X-8670714Y5165429D01*
X-8685000Y5136857D01*
X-8399286Y5308286D02*
X-8399286Y5251143D01*
X-8285000Y5308286D02*
X-8285000Y5251143D01*
X-7842143Y4894000D02*
X-7856429Y4908286D01*
X-7885000Y4951143D01*
X-7899286Y4979714D01*
X-7913571Y5022572D01*
X-7927857Y5094000D01*
X-7927857Y5151143D01*
X-7913571Y5222572D01*
X-7899286Y5265429D01*
X-7885000Y5294000D01*
X-7856429Y5336857D01*
X-7842143Y5351143D01*
X-7570714Y5008286D02*
X-7742143Y5008286D01*
X-7656429Y5008286D02*
X-7656429Y5308286D01*
X-7685000Y5265429D01*
X-7713571Y5236857D01*
X-7742143Y5222572D01*
X-7213571Y5008286D02*
X-7213571Y5308286D01*
X-7085000Y5008286D02*
X-7085000Y5165429D01*
X-7099286Y5194000D01*
X-7127857Y5208286D01*
X-7170714Y5208286D01*
X-7199286Y5194000D01*
X-7213571Y5179714D01*
X-6899286Y5008286D02*
X-6927857Y5022572D01*
X-6942143Y5036857D01*
X-6956429Y5065429D01*
X-6956429Y5151143D01*
X-6942143Y5179714D01*
X-6927857Y5194000D01*
X-6899286Y5208286D01*
X-6856429Y5208286D01*
X-6827857Y5194000D01*
X-6813571Y5179714D01*
X-6799286Y5151143D01*
X-6799286Y5065429D01*
X-6813571Y5036857D01*
X-6827857Y5022572D01*
X-6856429Y5008286D01*
X-6899286Y5008286D01*
X-6627857Y5008286D02*
X-6656429Y5022572D01*
X-6670714Y5051143D01*
X-6670714Y5308286D01*
X-6399286Y5022572D02*
X-6427857Y5008286D01*
X-6485000Y5008286D01*
X-6513571Y5022572D01*
X-6527857Y5051143D01*
X-6527857Y5165429D01*
X-6513571Y5194000D01*
X-6485000Y5208286D01*
X-6427857Y5208286D01*
X-6399286Y5194000D01*
X-6385000Y5165429D01*
X-6385000Y5136857D01*
X-6527857Y5108286D01*
X-6285000Y4894000D02*
X-6270714Y4908286D01*
X-6242143Y4951143D01*
X-6227857Y4979714D01*
X-6213571Y5022572D01*
X-6199286Y5094000D01*
X-6199286Y5151143D01*
X-6213571Y5222572D01*
X-6227857Y5265429D01*
X-6242143Y5294000D01*
X-6270714Y5336857D01*
X-6285000Y5351143D01*
X-13140000Y4788000D02*
X-13140000Y4708000D01*
X-13180000Y4748000D02*
X-13100000Y4748000D01*
X-12756429Y4912286D02*
X-12727857Y4912286D01*
X-12699286Y4898000D01*
X-12685000Y4883714D01*
X-12670714Y4855143D01*
X-12656429Y4798000D01*
X-12656429Y4726572D01*
X-12670714Y4669429D01*
X-12685000Y4640857D01*
X-12699286Y4626572D01*
X-12727857Y4612286D01*
X-12756429Y4612286D01*
X-12785000Y4626572D01*
X-12799286Y4640857D01*
X-12813571Y4669429D01*
X-12827857Y4726572D01*
X-12827857Y4798000D01*
X-12813571Y4855143D01*
X-12799286Y4883714D01*
X-12785000Y4898000D01*
X-12756429Y4912286D01*
X-12527857Y4640857D02*
X-12513571Y4626572D01*
X-12527857Y4612286D01*
X-12542143Y4626572D01*
X-12527857Y4640857D01*
X-12527857Y4612286D01*
X-12342143Y4783714D02*
X-12370714Y4798000D01*
X-12385000Y4812286D01*
X-12399286Y4840857D01*
X-12399286Y4855143D01*
X-12385000Y4883714D01*
X-12370714Y4898000D01*
X-12342143Y4912286D01*
X-12285000Y4912286D01*
X-12256429Y4898000D01*
X-12242143Y4883714D01*
X-12227857Y4855143D01*
X-12227857Y4840857D01*
X-12242143Y4812286D01*
X-12256429Y4798000D01*
X-12285000Y4783714D01*
X-12342143Y4783714D01*
X-12370714Y4769429D01*
X-12385000Y4755143D01*
X-12399286Y4726572D01*
X-12399286Y4669429D01*
X-12385000Y4640857D01*
X-12370714Y4626572D01*
X-12342143Y4612286D01*
X-12285000Y4612286D01*
X-12256429Y4626572D01*
X-12242143Y4640857D01*
X-12227857Y4669429D01*
X-12227857Y4726572D01*
X-12242143Y4755143D01*
X-12256429Y4769429D01*
X-12285000Y4783714D01*
X-12042143Y4912286D02*
X-12013571Y4912286D01*
X-11985000Y4898000D01*
X-11970714Y4883714D01*
X-11956429Y4855143D01*
X-11942143Y4798000D01*
X-11942143Y4726572D01*
X-11956429Y4669429D01*
X-11970714Y4640857D01*
X-11985000Y4626572D01*
X-12013571Y4612286D01*
X-12042143Y4612286D01*
X-12070714Y4626572D01*
X-12085000Y4640857D01*
X-12099286Y4669429D01*
X-12113571Y4726572D01*
X-12113571Y4798000D01*
X-12099286Y4855143D01*
X-12085000Y4883714D01*
X-12070714Y4898000D01*
X-12042143Y4912286D01*
X-11756429Y4912286D02*
X-11727857Y4912286D01*
X-11699286Y4898000D01*
X-11685000Y4883714D01*
X-11670714Y4855143D01*
X-11656429Y4798000D01*
X-11656429Y4726572D01*
X-11670714Y4669429D01*
X-11685000Y4640857D01*
X-11699286Y4626572D01*
X-11727857Y4612286D01*
X-11756429Y4612286D01*
X-11785000Y4626572D01*
X-11799286Y4640857D01*
X-11813571Y4669429D01*
X-11827857Y4726572D01*
X-11827857Y4798000D01*
X-11813571Y4855143D01*
X-11799286Y4883714D01*
X-11785000Y4898000D01*
X-11756429Y4912286D01*
X-11527857Y4612286D02*
X-11527857Y4812286D01*
X-11527857Y4783714D02*
X-11513571Y4798000D01*
X-11485000Y4812286D01*
X-11442143Y4812286D01*
X-11413571Y4798000D01*
X-11399286Y4769429D01*
X-11399286Y4612286D01*
X-11399286Y4769429D02*
X-11385000Y4798000D01*
X-11356429Y4812286D01*
X-11313571Y4812286D01*
X-11285000Y4798000D01*
X-11270714Y4769429D01*
X-11270714Y4612286D01*
X-11127857Y4612286D02*
X-11127857Y4812286D01*
X-11127857Y4783714D02*
X-11113572Y4798000D01*
X-11085000Y4812286D01*
X-11042143Y4812286D01*
X-11013572Y4798000D01*
X-10999286Y4769429D01*
X-10999286Y4612286D01*
X-10999286Y4769429D02*
X-10985000Y4798000D01*
X-10956429Y4812286D01*
X-10913572Y4812286D01*
X-10885000Y4798000D01*
X-10870714Y4769429D01*
X-10870714Y4612286D01*
X-10285000Y4926572D02*
X-10542143Y4540857D01*
X-9899286Y4912286D02*
X-9870714Y4912286D01*
X-9842143Y4898000D01*
X-9827857Y4883714D01*
X-9813572Y4855143D01*
X-9799286Y4798000D01*
X-9799286Y4726572D01*
X-9813572Y4669429D01*
X-9827857Y4640857D01*
X-9842143Y4626572D01*
X-9870714Y4612286D01*
X-9899286Y4612286D01*
X-9927857Y4626572D01*
X-9942143Y4640857D01*
X-9956429Y4669429D01*
X-9970714Y4726572D01*
X-9970714Y4798000D01*
X-9956429Y4855143D01*
X-9942143Y4883714D01*
X-9927857Y4898000D01*
X-9899286Y4912286D01*
X-9670714Y4640857D02*
X-9656429Y4626572D01*
X-9670714Y4612286D01*
X-9685000Y4626572D01*
X-9670714Y4640857D01*
X-9670714Y4612286D01*
X-9470714Y4912286D02*
X-9442143Y4912286D01*
X-9413572Y4898000D01*
X-9399286Y4883714D01*
X-9385000Y4855143D01*
X-9370714Y4798000D01*
X-9370714Y4726572D01*
X-9385000Y4669429D01*
X-9399286Y4640857D01*
X-9413572Y4626572D01*
X-9442143Y4612286D01*
X-9470714Y4612286D01*
X-9499286Y4626572D01*
X-9513572Y4640857D01*
X-9527857Y4669429D01*
X-9542143Y4726572D01*
X-9542143Y4798000D01*
X-9527857Y4855143D01*
X-9513572Y4883714D01*
X-9499286Y4898000D01*
X-9470714Y4912286D01*
X-9270714Y4912286D02*
X-9085000Y4912286D01*
X-9185000Y4798000D01*
X-9142143Y4798000D01*
X-9113572Y4783714D01*
X-9099286Y4769429D01*
X-9085000Y4740857D01*
X-9085000Y4669429D01*
X-9099286Y4640857D01*
X-9113572Y4626572D01*
X-9142143Y4612286D01*
X-9227857Y4612286D01*
X-9256429Y4626572D01*
X-9270714Y4640857D01*
X-8799286Y4612286D02*
X-8970714Y4612286D01*
X-8885000Y4612286D02*
X-8885000Y4912286D01*
X-8913572Y4869429D01*
X-8942143Y4840857D01*
X-8970714Y4826572D01*
X-8527857Y4912286D02*
X-8670714Y4912286D01*
X-8685000Y4769429D01*
X-8670714Y4783714D01*
X-8642143Y4798000D01*
X-8570714Y4798000D01*
X-8542143Y4783714D01*
X-8527857Y4769429D01*
X-8513572Y4740857D01*
X-8513572Y4669429D01*
X-8527857Y4640857D01*
X-8542143Y4626572D01*
X-8570714Y4612286D01*
X-8642143Y4612286D01*
X-8670714Y4626572D01*
X-8685000Y4640857D01*
X-8399286Y4912286D02*
X-8399286Y4855143D01*
X-8285000Y4912286D02*
X-8285000Y4855143D01*
X-7842143Y4498000D02*
X-7856429Y4512286D01*
X-7885000Y4555143D01*
X-7899286Y4583714D01*
X-7913571Y4626572D01*
X-7927857Y4698000D01*
X-7927857Y4755143D01*
X-7913571Y4826572D01*
X-7899286Y4869429D01*
X-7885000Y4898000D01*
X-7856429Y4940857D01*
X-7842143Y4955143D01*
X-7570714Y4612286D02*
X-7742143Y4612286D01*
X-7656429Y4612286D02*
X-7656429Y4912286D01*
X-7685000Y4869429D01*
X-7713571Y4840857D01*
X-7742143Y4826572D01*
X-7385000Y4912286D02*
X-7356429Y4912286D01*
X-7327857Y4898000D01*
X-7313571Y4883714D01*
X-7299286Y4855143D01*
X-7285000Y4798000D01*
X-7285000Y4726572D01*
X-7299286Y4669429D01*
X-7313571Y4640857D01*
X-7327857Y4626572D01*
X-7356429Y4612286D01*
X-7385000Y4612286D01*
X-7413571Y4626572D01*
X-7427857Y4640857D01*
X-7442143Y4669429D01*
X-7456429Y4726572D01*
X-7456429Y4798000D01*
X-7442143Y4855143D01*
X-7427857Y4883714D01*
X-7413571Y4898000D01*
X-7385000Y4912286D01*
X-6927857Y4612286D02*
X-6927857Y4912286D01*
X-6799286Y4612286D02*
X-6799286Y4769429D01*
X-6813571Y4798000D01*
X-6842143Y4812286D01*
X-6885000Y4812286D01*
X-6913571Y4798000D01*
X-6927857Y4783714D01*
X-6613571Y4612286D02*
X-6642143Y4626572D01*
X-6656429Y4640857D01*
X-6670714Y4669429D01*
X-6670714Y4755143D01*
X-6656429Y4783714D01*
X-6642143Y4798000D01*
X-6613571Y4812286D01*
X-6570714Y4812286D01*
X-6542143Y4798000D01*
X-6527857Y4783714D01*
X-6513571Y4755143D01*
X-6513571Y4669429D01*
X-6527857Y4640857D01*
X-6542143Y4626572D01*
X-6570714Y4612286D01*
X-6613571Y4612286D01*
X-6342143Y4612286D02*
X-6370714Y4626572D01*
X-6385000Y4655143D01*
X-6385000Y4912286D01*
X-6113571Y4626572D02*
X-6142143Y4612286D01*
X-6199286Y4612286D01*
X-6227857Y4626572D01*
X-6242143Y4655143D01*
X-6242143Y4769429D01*
X-6227857Y4798000D01*
X-6199286Y4812286D01*
X-6142143Y4812286D01*
X-6113571Y4798000D01*
X-6099286Y4769429D01*
X-6099286Y4740857D01*
X-6242143Y4712286D01*
X-5985000Y4626572D02*
X-5956429Y4612286D01*
X-5899286Y4612286D01*
X-5870714Y4626572D01*
X-5856429Y4655143D01*
X-5856429Y4669429D01*
X-5870714Y4698000D01*
X-5899286Y4712286D01*
X-5942143Y4712286D01*
X-5970714Y4726572D01*
X-5985000Y4755143D01*
X-5985000Y4769429D01*
X-5970714Y4798000D01*
X-5942143Y4812286D01*
X-5899286Y4812286D01*
X-5870714Y4798000D01*
X-5756429Y4498000D02*
X-5742143Y4512286D01*
X-5713571Y4555143D01*
X-5699286Y4583714D01*
X-5685000Y4626572D01*
X-5670714Y4698000D01*
X-5670714Y4755143D01*
X-5685000Y4826572D01*
X-5699286Y4869429D01*
X-5713571Y4898000D01*
X-5742143Y4940857D01*
X-5756429Y4955143D01*
X-13114644Y4316644D02*
X-13114644Y4387356D01*
X-13185356Y4387356D01*
X-13185356Y4316644D01*
X-13114644Y4316644D01*
X-12656429Y4216286D02*
X-12827857Y4216286D01*
X-12742143Y4216286D02*
X-12742143Y4516286D01*
X-12770714Y4473429D01*
X-12799286Y4444857D01*
X-12827857Y4430572D01*
X-12527857Y4244857D02*
X-12513571Y4230572D01*
X-12527857Y4216286D01*
X-12542143Y4230572D01*
X-12527857Y4244857D01*
X-12527857Y4216286D01*
X-12327857Y4516286D02*
X-12299286Y4516286D01*
X-12270714Y4502000D01*
X-12256429Y4487714D01*
X-12242143Y4459143D01*
X-12227857Y4402000D01*
X-12227857Y4330572D01*
X-12242143Y4273429D01*
X-12256429Y4244857D01*
X-12270714Y4230572D01*
X-12299286Y4216286D01*
X-12327857Y4216286D01*
X-12356429Y4230572D01*
X-12370714Y4244857D01*
X-12385000Y4273429D01*
X-12399286Y4330572D01*
X-12399286Y4402000D01*
X-12385000Y4459143D01*
X-12370714Y4487714D01*
X-12356429Y4502000D01*
X-12327857Y4516286D01*
X-12042143Y4516286D02*
X-12013571Y4516286D01*
X-11985000Y4502000D01*
X-11970714Y4487714D01*
X-11956429Y4459143D01*
X-11942143Y4402000D01*
X-11942143Y4330572D01*
X-11956429Y4273429D01*
X-11970714Y4244857D01*
X-11985000Y4230572D01*
X-12013571Y4216286D01*
X-12042143Y4216286D01*
X-12070714Y4230572D01*
X-12085000Y4244857D01*
X-12099286Y4273429D01*
X-12113571Y4330572D01*
X-12113571Y4402000D01*
X-12099286Y4459143D01*
X-12085000Y4487714D01*
X-12070714Y4502000D01*
X-12042143Y4516286D01*
X-11756429Y4516286D02*
X-11727857Y4516286D01*
X-11699286Y4502000D01*
X-11685000Y4487714D01*
X-11670714Y4459143D01*
X-11656429Y4402000D01*
X-11656429Y4330572D01*
X-11670714Y4273429D01*
X-11685000Y4244857D01*
X-11699286Y4230572D01*
X-11727857Y4216286D01*
X-11756429Y4216286D01*
X-11785000Y4230572D01*
X-11799286Y4244857D01*
X-11813571Y4273429D01*
X-11827857Y4330572D01*
X-11827857Y4402000D01*
X-11813571Y4459143D01*
X-11799286Y4487714D01*
X-11785000Y4502000D01*
X-11756429Y4516286D01*
X-11527857Y4216286D02*
X-11527857Y4416286D01*
X-11527857Y4387714D02*
X-11513571Y4402000D01*
X-11485000Y4416286D01*
X-11442143Y4416286D01*
X-11413571Y4402000D01*
X-11399286Y4373429D01*
X-11399286Y4216286D01*
X-11399286Y4373429D02*
X-11385000Y4402000D01*
X-11356429Y4416286D01*
X-11313571Y4416286D01*
X-11285000Y4402000D01*
X-11270714Y4373429D01*
X-11270714Y4216286D01*
X-11127857Y4216286D02*
X-11127857Y4416286D01*
X-11127857Y4387714D02*
X-11113572Y4402000D01*
X-11085000Y4416286D01*
X-11042143Y4416286D01*
X-11013572Y4402000D01*
X-10999286Y4373429D01*
X-10999286Y4216286D01*
X-10999286Y4373429D02*
X-10985000Y4402000D01*
X-10956429Y4416286D01*
X-10913572Y4416286D01*
X-10885000Y4402000D01*
X-10870714Y4373429D01*
X-10870714Y4216286D01*
X-10285000Y4530572D02*
X-10542143Y4144857D01*
X-9899286Y4516286D02*
X-9870714Y4516286D01*
X-9842143Y4502000D01*
X-9827857Y4487714D01*
X-9813572Y4459143D01*
X-9799286Y4402000D01*
X-9799286Y4330572D01*
X-9813572Y4273429D01*
X-9827857Y4244857D01*
X-9842143Y4230572D01*
X-9870714Y4216286D01*
X-9899286Y4216286D01*
X-9927857Y4230572D01*
X-9942143Y4244857D01*
X-9956429Y4273429D01*
X-9970714Y4330572D01*
X-9970714Y4402000D01*
X-9956429Y4459143D01*
X-9942143Y4487714D01*
X-9927857Y4502000D01*
X-9899286Y4516286D01*
X-9670714Y4244857D02*
X-9656429Y4230572D01*
X-9670714Y4216286D01*
X-9685000Y4230572D01*
X-9670714Y4244857D01*
X-9670714Y4216286D01*
X-9470714Y4516286D02*
X-9442143Y4516286D01*
X-9413572Y4502000D01*
X-9399286Y4487714D01*
X-9385000Y4459143D01*
X-9370714Y4402000D01*
X-9370714Y4330572D01*
X-9385000Y4273429D01*
X-9399286Y4244857D01*
X-9413572Y4230572D01*
X-9442143Y4216286D01*
X-9470714Y4216286D01*
X-9499286Y4230572D01*
X-9513572Y4244857D01*
X-9527857Y4273429D01*
X-9542143Y4330572D01*
X-9542143Y4402000D01*
X-9527857Y4459143D01*
X-9513572Y4487714D01*
X-9499286Y4502000D01*
X-9470714Y4516286D01*
X-9270714Y4516286D02*
X-9085000Y4516286D01*
X-9185000Y4402000D01*
X-9142143Y4402000D01*
X-9113572Y4387714D01*
X-9099286Y4373429D01*
X-9085000Y4344857D01*
X-9085000Y4273429D01*
X-9099286Y4244857D01*
X-9113572Y4230572D01*
X-9142143Y4216286D01*
X-9227857Y4216286D01*
X-9256429Y4230572D01*
X-9270714Y4244857D01*
X-8942143Y4216286D02*
X-8885000Y4216286D01*
X-8856429Y4230572D01*
X-8842143Y4244857D01*
X-8813572Y4287714D01*
X-8799286Y4344857D01*
X-8799286Y4459143D01*
X-8813572Y4487714D01*
X-8827857Y4502000D01*
X-8856429Y4516286D01*
X-8913572Y4516286D01*
X-8942143Y4502000D01*
X-8956429Y4487714D01*
X-8970714Y4459143D01*
X-8970714Y4387714D01*
X-8956429Y4359143D01*
X-8942143Y4344857D01*
X-8913572Y4330572D01*
X-8856429Y4330572D01*
X-8827857Y4344857D01*
X-8813572Y4359143D01*
X-8799286Y4387714D01*
X-8542143Y4416286D02*
X-8542143Y4216286D01*
X-8613572Y4530572D02*
X-8685000Y4316286D01*
X-8499286Y4316286D01*
X-8399286Y4516286D02*
X-8399286Y4459143D01*
X-8285000Y4516286D02*
X-8285000Y4459143D01*
X-7842143Y4102000D02*
X-7856429Y4116286D01*
X-7885000Y4159143D01*
X-7899286Y4187714D01*
X-7913571Y4230572D01*
X-7927857Y4302000D01*
X-7927857Y4359143D01*
X-7913571Y4430572D01*
X-7899286Y4473429D01*
X-7885000Y4502000D01*
X-7856429Y4544857D01*
X-7842143Y4559143D01*
X-7742143Y4487714D02*
X-7727857Y4502000D01*
X-7699286Y4516286D01*
X-7627857Y4516286D01*
X-7599286Y4502000D01*
X-7585000Y4487714D01*
X-7570714Y4459143D01*
X-7570714Y4430572D01*
X-7585000Y4387714D01*
X-7756429Y4216286D01*
X-7570714Y4216286D01*
X-7385000Y4516286D02*
X-7356429Y4516286D01*
X-7327857Y4502000D01*
X-7313571Y4487714D01*
X-7299286Y4459143D01*
X-7285000Y4402000D01*
X-7285000Y4330572D01*
X-7299286Y4273429D01*
X-7313571Y4244857D01*
X-7327857Y4230572D01*
X-7356429Y4216286D01*
X-7385000Y4216286D01*
X-7413571Y4230572D01*
X-7427857Y4244857D01*
X-7442143Y4273429D01*
X-7456429Y4330572D01*
X-7456429Y4402000D01*
X-7442143Y4459143D01*
X-7427857Y4487714D01*
X-7413571Y4502000D01*
X-7385000Y4516286D01*
X-6927857Y4216286D02*
X-6927857Y4516286D01*
X-6799286Y4216286D02*
X-6799286Y4373429D01*
X-6813571Y4402000D01*
X-6842143Y4416286D01*
X-6885000Y4416286D01*
X-6913571Y4402000D01*
X-6927857Y4387714D01*
X-6613571Y4216286D02*
X-6642143Y4230572D01*
X-6656429Y4244857D01*
X-6670714Y4273429D01*
X-6670714Y4359143D01*
X-6656429Y4387714D01*
X-6642143Y4402000D01*
X-6613571Y4416286D01*
X-6570714Y4416286D01*
X-6542143Y4402000D01*
X-6527857Y4387714D01*
X-6513571Y4359143D01*
X-6513571Y4273429D01*
X-6527857Y4244857D01*
X-6542143Y4230572D01*
X-6570714Y4216286D01*
X-6613571Y4216286D01*
X-6342143Y4216286D02*
X-6370714Y4230572D01*
X-6385000Y4259143D01*
X-6385000Y4516286D01*
X-6113571Y4230572D02*
X-6142143Y4216286D01*
X-6199286Y4216286D01*
X-6227857Y4230572D01*
X-6242143Y4259143D01*
X-6242143Y4373429D01*
X-6227857Y4402000D01*
X-6199286Y4416286D01*
X-6142143Y4416286D01*
X-6113571Y4402000D01*
X-6099286Y4373429D01*
X-6099286Y4344857D01*
X-6242143Y4316286D01*
X-5985000Y4230572D02*
X-5956429Y4216286D01*
X-5899286Y4216286D01*
X-5870714Y4230572D01*
X-5856429Y4259143D01*
X-5856429Y4273429D01*
X-5870714Y4302000D01*
X-5899286Y4316286D01*
X-5942143Y4316286D01*
X-5970714Y4330572D01*
X-5985000Y4359143D01*
X-5985000Y4373429D01*
X-5970714Y4402000D01*
X-5942143Y4416286D01*
X-5899286Y4416286D01*
X-5870714Y4402000D01*
X-5756429Y4102000D02*
X-5742143Y4116286D01*
X-5713571Y4159143D01*
X-5699286Y4187714D01*
X-5685000Y4230572D01*
X-5670714Y4302000D01*
X-5670714Y4359143D01*
X-5685000Y4430572D01*
X-5699286Y4473429D01*
X-5713571Y4502000D01*
X-5742143Y4544857D01*
X-5756429Y4559143D01*
X-13260000Y3796000D02*
X-13100000Y3956000D01*
X-13260000Y4116000D01*
X-13420000Y3956000D01*
X-13260000Y3796000D01*
X-12842143Y4120286D02*
X-12656429Y4120286D01*
X-12756429Y4006000D01*
X-12713571Y4006000D01*
X-12685000Y3991714D01*
X-12670714Y3977429D01*
X-12656429Y3948857D01*
X-12656429Y3877429D01*
X-12670714Y3848857D01*
X-12685000Y3834571D01*
X-12713571Y3820286D01*
X-12799286Y3820286D01*
X-12827857Y3834571D01*
X-12842143Y3848857D01*
X-12527857Y3848857D02*
X-12513571Y3834571D01*
X-12527857Y3820286D01*
X-12542143Y3834571D01*
X-12527857Y3848857D01*
X-12527857Y3820286D01*
X-12399286Y4091714D02*
X-12385000Y4106000D01*
X-12356429Y4120286D01*
X-12285000Y4120286D01*
X-12256429Y4106000D01*
X-12242143Y4091714D01*
X-12227857Y4063143D01*
X-12227857Y4034571D01*
X-12242143Y3991714D01*
X-12413571Y3820286D01*
X-12227857Y3820286D01*
X-12042143Y4120286D02*
X-12013571Y4120286D01*
X-11985000Y4106000D01*
X-11970714Y4091714D01*
X-11956429Y4063143D01*
X-11942143Y4006000D01*
X-11942143Y3934571D01*
X-11956429Y3877429D01*
X-11970714Y3848857D01*
X-11985000Y3834571D01*
X-12013571Y3820286D01*
X-12042143Y3820286D01*
X-12070714Y3834571D01*
X-12085000Y3848857D01*
X-12099286Y3877429D01*
X-12113571Y3934571D01*
X-12113571Y4006000D01*
X-12099286Y4063143D01*
X-12085000Y4091714D01*
X-12070714Y4106000D01*
X-12042143Y4120286D01*
X-11756429Y4120286D02*
X-11727857Y4120286D01*
X-11699286Y4106000D01*
X-11685000Y4091714D01*
X-11670714Y4063143D01*
X-11656429Y4006000D01*
X-11656429Y3934571D01*
X-11670714Y3877429D01*
X-11685000Y3848857D01*
X-11699286Y3834571D01*
X-11727857Y3820286D01*
X-11756429Y3820286D01*
X-11785000Y3834571D01*
X-11799286Y3848857D01*
X-11813571Y3877429D01*
X-11827857Y3934571D01*
X-11827857Y4006000D01*
X-11813571Y4063143D01*
X-11799286Y4091714D01*
X-11785000Y4106000D01*
X-11756429Y4120286D01*
X-11527857Y3820286D02*
X-11527857Y4020286D01*
X-11527857Y3991714D02*
X-11513571Y4006000D01*
X-11485000Y4020286D01*
X-11442143Y4020286D01*
X-11413571Y4006000D01*
X-11399286Y3977429D01*
X-11399286Y3820286D01*
X-11399286Y3977429D02*
X-11385000Y4006000D01*
X-11356429Y4020286D01*
X-11313571Y4020286D01*
X-11285000Y4006000D01*
X-11270714Y3977429D01*
X-11270714Y3820286D01*
X-11127857Y3820286D02*
X-11127857Y4020286D01*
X-11127857Y3991714D02*
X-11113572Y4006000D01*
X-11085000Y4020286D01*
X-11042143Y4020286D01*
X-11013572Y4006000D01*
X-10999286Y3977429D01*
X-10999286Y3820286D01*
X-10999286Y3977429D02*
X-10985000Y4006000D01*
X-10956429Y4020286D01*
X-10913572Y4020286D01*
X-10885000Y4006000D01*
X-10870714Y3977429D01*
X-10870714Y3820286D01*
X-10285000Y4134571D02*
X-10542143Y3748857D01*
X-9899286Y4120286D02*
X-9870714Y4120286D01*
X-9842143Y4106000D01*
X-9827857Y4091714D01*
X-9813572Y4063143D01*
X-9799286Y4006000D01*
X-9799286Y3934571D01*
X-9813572Y3877429D01*
X-9827857Y3848857D01*
X-9842143Y3834571D01*
X-9870714Y3820286D01*
X-9899286Y3820286D01*
X-9927857Y3834571D01*
X-9942143Y3848857D01*
X-9956429Y3877429D01*
X-9970714Y3934571D01*
X-9970714Y4006000D01*
X-9956429Y4063143D01*
X-9942143Y4091714D01*
X-9927857Y4106000D01*
X-9899286Y4120286D01*
X-9670714Y3848857D02*
X-9656429Y3834571D01*
X-9670714Y3820286D01*
X-9685000Y3834571D01*
X-9670714Y3848857D01*
X-9670714Y3820286D01*
X-9370714Y3820286D02*
X-9542143Y3820286D01*
X-9456429Y3820286D02*
X-9456429Y4120286D01*
X-9485000Y4077429D01*
X-9513572Y4048857D01*
X-9542143Y4034571D01*
X-9256429Y4091714D02*
X-9242143Y4106000D01*
X-9213572Y4120286D01*
X-9142143Y4120286D01*
X-9113572Y4106000D01*
X-9099286Y4091714D01*
X-9085000Y4063143D01*
X-9085000Y4034571D01*
X-9099286Y3991714D01*
X-9270714Y3820286D01*
X-9085000Y3820286D01*
X-8827857Y4120286D02*
X-8885000Y4120286D01*
X-8913572Y4106000D01*
X-8927857Y4091714D01*
X-8956429Y4048857D01*
X-8970714Y3991714D01*
X-8970714Y3877429D01*
X-8956429Y3848857D01*
X-8942143Y3834571D01*
X-8913572Y3820286D01*
X-8856429Y3820286D01*
X-8827857Y3834571D01*
X-8813572Y3848857D01*
X-8799286Y3877429D01*
X-8799286Y3948857D01*
X-8813572Y3977429D01*
X-8827857Y3991714D01*
X-8856429Y4006000D01*
X-8913572Y4006000D01*
X-8942143Y3991714D01*
X-8956429Y3977429D01*
X-8970714Y3948857D01*
X-8613572Y4120286D02*
X-8585000Y4120286D01*
X-8556429Y4106000D01*
X-8542143Y4091714D01*
X-8527857Y4063143D01*
X-8513572Y4006000D01*
X-8513572Y3934571D01*
X-8527857Y3877429D01*
X-8542143Y3848857D01*
X-8556429Y3834571D01*
X-8585000Y3820286D01*
X-8613572Y3820286D01*
X-8642143Y3834571D01*
X-8656429Y3848857D01*
X-8670714Y3877429D01*
X-8685000Y3934571D01*
X-8685000Y4006000D01*
X-8670714Y4063143D01*
X-8656429Y4091714D01*
X-8642143Y4106000D01*
X-8613572Y4120286D01*
X-8399286Y4120286D02*
X-8399286Y4063143D01*
X-8285000Y4120286D02*
X-8285000Y4063143D01*
X-7842143Y3706000D02*
X-7856429Y3720286D01*
X-7885000Y3763143D01*
X-7899286Y3791714D01*
X-7913571Y3834571D01*
X-7927857Y3906000D01*
X-7927857Y3963143D01*
X-7913571Y4034571D01*
X-7899286Y4077429D01*
X-7885000Y4106000D01*
X-7856429Y4148857D01*
X-7842143Y4163143D01*
X-7742143Y4091714D02*
X-7727857Y4106000D01*
X-7699286Y4120286D01*
X-7627857Y4120286D01*
X-7599286Y4106000D01*
X-7585000Y4091714D01*
X-7570714Y4063143D01*
X-7570714Y4034571D01*
X-7585000Y3991714D01*
X-7756429Y3820286D01*
X-7570714Y3820286D01*
X-7213571Y3820286D02*
X-7213571Y4120286D01*
X-7085000Y3820286D02*
X-7085000Y3977429D01*
X-7099286Y4006000D01*
X-7127857Y4020286D01*
X-7170714Y4020286D01*
X-7199286Y4006000D01*
X-7213571Y3991714D01*
X-6899286Y3820286D02*
X-6927857Y3834571D01*
X-6942143Y3848857D01*
X-6956429Y3877429D01*
X-6956429Y3963143D01*
X-6942143Y3991714D01*
X-6927857Y4006000D01*
X-6899286Y4020286D01*
X-6856429Y4020286D01*
X-6827857Y4006000D01*
X-6813571Y3991714D01*
X-6799286Y3963143D01*
X-6799286Y3877429D01*
X-6813571Y3848857D01*
X-6827857Y3834571D01*
X-6856429Y3820286D01*
X-6899286Y3820286D01*
X-6627857Y3820286D02*
X-6656429Y3834571D01*
X-6670714Y3863143D01*
X-6670714Y4120286D01*
X-6399286Y3834571D02*
X-6427857Y3820286D01*
X-6485000Y3820286D01*
X-6513571Y3834571D01*
X-6527857Y3863143D01*
X-6527857Y3977429D01*
X-6513571Y4006000D01*
X-6485000Y4020286D01*
X-6427857Y4020286D01*
X-6399286Y4006000D01*
X-6385000Y3977429D01*
X-6385000Y3948857D01*
X-6527857Y3920286D01*
X-6270714Y3834571D02*
X-6242143Y3820286D01*
X-6185000Y3820286D01*
X-6156429Y3834571D01*
X-6142143Y3863143D01*
X-6142143Y3877429D01*
X-6156429Y3906000D01*
X-6185000Y3920286D01*
X-6227857Y3920286D01*
X-6256429Y3934571D01*
X-6270714Y3963143D01*
X-6270714Y3977429D01*
X-6256429Y4006000D01*
X-6227857Y4020286D01*
X-6185000Y4020286D01*
X-6156429Y4006000D01*
X-6042143Y3706000D02*
X-6027857Y3720286D01*
X-5999286Y3763143D01*
X-5985000Y3791714D01*
X-5970714Y3834571D01*
X-5956429Y3906000D01*
X-5956429Y3963143D01*
X-5970714Y4034571D01*
X-5985000Y4077429D01*
X-5999286Y4106000D01*
X-6027857Y4148857D01*
X-6042143Y4163143D01*
M02*
