G04 #@! TF.GenerationSoftware,KiCad,Pcbnew,(5.1.10)-1*
G04 #@! TF.CreationDate,2022-03-22T13:51:02+05:30*
G04 #@! TF.ProjectId,P-1000072_Cicada Wi-Fi,502d3130-3030-4303-9732-5f4369636164,0.1*
G04 #@! TF.SameCoordinates,PX7cee6c0PY3dfd240*
G04 #@! TF.FileFunction,Legend,Top*
G04 #@! TF.FilePolarity,Positive*
%FSLAX46Y46*%
G04 Gerber Fmt 4.6, Leading zero omitted, Abs format (unit mm)*
G04 Created by KiCad (PCBNEW (5.1.10)-1) date 2022-03-22 13:51:02*
%MOMM*%
%LPD*%
G01*
G04 APERTURE LIST*
%ADD10C,0.350000*%
%ADD11C,0.300000*%
%ADD12C,0.150000*%
%ADD13C,0.120000*%
%ADD14C,0.250000*%
%ADD15C,0.125000*%
%ADD16C,0.062500*%
%ADD17C,0.100000*%
G04 APERTURE END LIST*
D10*
X15778254Y-9669328D02*
X15849682Y-9749685D01*
X15921111Y-9972900D01*
X15921111Y-10115757D01*
X15849682Y-10321114D01*
X15706825Y-10446114D01*
X15563968Y-10499685D01*
X15278254Y-10535400D01*
X15063968Y-10508614D01*
X14778254Y-10401471D01*
X14635397Y-10312185D01*
X14492540Y-10151471D01*
X14421111Y-9928257D01*
X14421111Y-9785400D01*
X14492540Y-9580042D01*
X14563968Y-9517542D01*
X15921111Y-9044328D02*
X14921111Y-8919328D01*
X14421111Y-8856828D02*
X14492540Y-8937185D01*
X14563968Y-8874685D01*
X14492540Y-8794328D01*
X14421111Y-8856828D01*
X14563968Y-8874685D01*
X15849682Y-7678257D02*
X15921111Y-7830042D01*
X15921111Y-8115757D01*
X15849682Y-8249685D01*
X15778254Y-8312185D01*
X15635397Y-8365757D01*
X15206825Y-8312185D01*
X15063968Y-8222900D01*
X14992540Y-8142542D01*
X14921111Y-7990757D01*
X14921111Y-7705042D01*
X14992540Y-7571114D01*
X15921111Y-6401471D02*
X15135397Y-6303257D01*
X14992540Y-6356828D01*
X14921111Y-6490757D01*
X14921111Y-6776471D01*
X14992540Y-6928257D01*
X15849682Y-6392542D02*
X15921111Y-6544328D01*
X15921111Y-6901471D01*
X15849682Y-7035400D01*
X15706825Y-7088971D01*
X15563968Y-7071114D01*
X15421111Y-6981828D01*
X15349682Y-6830042D01*
X15349682Y-6472900D01*
X15278254Y-6321114D01*
X15921111Y-5044328D02*
X14421111Y-4856828D01*
X15849682Y-5035400D02*
X15921111Y-5187185D01*
X15921111Y-5472900D01*
X15849682Y-5606828D01*
X15778254Y-5669328D01*
X15635397Y-5722900D01*
X15206825Y-5669328D01*
X15063968Y-5580042D01*
X14992540Y-5499685D01*
X14921111Y-5347900D01*
X14921111Y-5062185D01*
X14992540Y-4928257D01*
X15921111Y-3687185D02*
X15135397Y-3588971D01*
X14992540Y-3642542D01*
X14921111Y-3776471D01*
X14921111Y-4062185D01*
X14992540Y-4213971D01*
X15849682Y-3678257D02*
X15921111Y-3830042D01*
X15921111Y-4187185D01*
X15849682Y-4321114D01*
X15706825Y-4374685D01*
X15563968Y-4356828D01*
X15421111Y-4267542D01*
X15349682Y-4115757D01*
X15349682Y-3758614D01*
X15278254Y-3606828D01*
X14421111Y-1785400D02*
X15921111Y-1615757D01*
X14849682Y-1196114D01*
X15921111Y-1044328D01*
X14421111Y-499685D01*
X15921111Y-115757D02*
X14921111Y9243D01*
X14421111Y71743D02*
X14492540Y-8614D01*
X14563968Y53886D01*
X14492540Y134243D01*
X14421111Y71743D01*
X14563968Y53886D01*
X15135397Y1196743D02*
X15135397Y696743D01*
X15921111Y598529D02*
X14421111Y786029D01*
X14421111Y1500315D01*
X15921111Y1884243D02*
X14921111Y2009243D01*
X14421111Y2071743D02*
X14492540Y1991386D01*
X14563968Y2053886D01*
X14492540Y2134243D01*
X14421111Y2071743D01*
X14563968Y2053886D01*
D11*
X18282857Y-10572142D02*
X17082857Y-10422142D01*
X17082857Y-9965000D01*
X17140000Y-9857857D01*
X17197142Y-9807857D01*
X17311428Y-9765000D01*
X17482857Y-9786428D01*
X17597142Y-9857857D01*
X17654285Y-9922142D01*
X17711428Y-10043571D01*
X17711428Y-10500714D01*
X17825714Y-9315000D02*
X17825714Y-8400714D01*
X18282857Y-7257857D02*
X18282857Y-7943571D01*
X18282857Y-7600714D02*
X17082857Y-7450714D01*
X17254285Y-7586428D01*
X17368571Y-7715000D01*
X17425714Y-7836428D01*
X17082857Y-6365000D02*
X17082857Y-6250714D01*
X17140000Y-6143571D01*
X17197142Y-6093571D01*
X17311428Y-6050714D01*
X17540000Y-6022142D01*
X17825714Y-6057857D01*
X18054285Y-6143571D01*
X18168571Y-6215000D01*
X18225714Y-6279285D01*
X18282857Y-6400714D01*
X18282857Y-6515000D01*
X18225714Y-6622142D01*
X18168571Y-6672142D01*
X18054285Y-6715000D01*
X17825714Y-6743571D01*
X17540000Y-6707857D01*
X17311428Y-6622142D01*
X17197142Y-6550714D01*
X17140000Y-6486428D01*
X17082857Y-6365000D01*
X17082857Y-5222142D02*
X17082857Y-5107857D01*
X17140000Y-5000714D01*
X17197142Y-4950714D01*
X17311428Y-4907857D01*
X17540000Y-4879285D01*
X17825714Y-4915000D01*
X18054285Y-5000714D01*
X18168571Y-5072142D01*
X18225714Y-5136428D01*
X18282857Y-5257857D01*
X18282857Y-5372142D01*
X18225714Y-5479285D01*
X18168571Y-5529285D01*
X18054285Y-5572142D01*
X17825714Y-5600714D01*
X17540000Y-5565000D01*
X17311428Y-5479285D01*
X17197142Y-5407857D01*
X17140000Y-5343571D01*
X17082857Y-5222142D01*
X17082857Y-4079285D02*
X17082857Y-3965000D01*
X17140000Y-3857857D01*
X17197142Y-3807857D01*
X17311428Y-3765000D01*
X17540000Y-3736428D01*
X17825714Y-3772142D01*
X18054285Y-3857857D01*
X18168571Y-3929285D01*
X18225714Y-3993571D01*
X18282857Y-4115000D01*
X18282857Y-4229285D01*
X18225714Y-4336428D01*
X18168571Y-4386428D01*
X18054285Y-4429285D01*
X17825714Y-4457857D01*
X17540000Y-4422142D01*
X17311428Y-4336428D01*
X17197142Y-4265000D01*
X17140000Y-4200714D01*
X17082857Y-4079285D01*
X17082857Y-2936428D02*
X17082857Y-2822142D01*
X17140000Y-2715000D01*
X17197142Y-2665000D01*
X17311428Y-2622142D01*
X17540000Y-2593571D01*
X17825714Y-2629285D01*
X18054285Y-2715000D01*
X18168571Y-2786428D01*
X18225714Y-2850714D01*
X18282857Y-2972142D01*
X18282857Y-3086428D01*
X18225714Y-3193571D01*
X18168571Y-3243571D01*
X18054285Y-3286428D01*
X17825714Y-3315000D01*
X17540000Y-3279285D01*
X17311428Y-3193571D01*
X17197142Y-3122142D01*
X17140000Y-3057857D01*
X17082857Y-2936428D01*
X17082857Y-2136428D02*
X17082857Y-1336428D01*
X18282857Y-2000714D01*
X17197142Y-950714D02*
X17140000Y-886428D01*
X17082857Y-765000D01*
X17082857Y-479285D01*
X17140000Y-372142D01*
X17197142Y-322142D01*
X17311428Y-279285D01*
X17425714Y-293571D01*
X17597142Y-372142D01*
X18282857Y-1143571D01*
X18282857Y-400714D01*
X17825714Y170715D02*
X17825714Y1085000D01*
X17082857Y1577858D02*
X18282857Y1827858D01*
X17082857Y2377858D01*
X17082857Y3349286D02*
X17082857Y2777858D01*
X17654285Y2649286D01*
X17597142Y2713572D01*
X17540000Y2835000D01*
X17540000Y3120715D01*
X17597142Y3227858D01*
X17654285Y3277858D01*
X17768571Y3320715D01*
X18054285Y3285000D01*
X18168571Y3213572D01*
X18225714Y3149286D01*
X18282857Y3027858D01*
X18282857Y2742143D01*
X18225714Y2635000D01*
X18168571Y2585000D01*
D12*
X10200000Y-2600000D02*
X-10150000Y-2600000D01*
X10150000Y2600000D02*
X10200000Y-2600000D01*
X-10150000Y2600000D02*
X10150000Y2600000D01*
X-10150000Y-2550000D02*
X-10150000Y2600000D01*
D11*
X-8531469Y-3005508D02*
X-8531469Y-3862651D01*
X-8531469Y-3434080D02*
X-10031469Y-3434080D01*
X-9817183Y-3576937D01*
X-9674326Y-3719794D01*
X-9602898Y-3862651D01*
D13*
X14040000Y-45920000D02*
X14040000Y-44160000D01*
X10970000Y-44160000D02*
X10970000Y-46590000D01*
X-15020000Y-32830000D02*
X-15420000Y-32830000D01*
X-3020000Y-16590000D02*
X-3420000Y-16590000D01*
X-9020000Y-32830000D02*
X-9420000Y-32830000D01*
X-15020000Y-16590000D02*
X-15420000Y-16590000D01*
X-7020000Y-16590000D02*
X-7420000Y-16590000D01*
X-7020000Y-32830000D02*
X-7420000Y-32830000D01*
X-3020000Y-32830000D02*
X-3420000Y-32830000D01*
X-1420000Y-16590000D02*
X-600000Y-16590000D01*
X-9020000Y-16590000D02*
X-9420000Y-16590000D01*
X-11020000Y-32830000D02*
X-11420000Y-32830000D01*
X-600000Y-16590000D02*
X-600000Y-32830000D01*
X-600000Y-32830000D02*
X-1420000Y-32830000D01*
X-5020000Y-16590000D02*
X-5420000Y-16590000D01*
X-11020000Y-16590000D02*
X-11420000Y-16590000D01*
X-5020000Y-32830000D02*
X-5420000Y-32830000D01*
X-13020000Y-32830000D02*
X-13420000Y-32830000D01*
X-13020000Y-16590000D02*
X-13420000Y-16590000D01*
D14*
X-17302360Y-34209600D02*
G75*
G03*
X-17302360Y-34209600I-200000J0D01*
G01*
D13*
X-7376120Y-6253480D02*
G75*
G03*
X-7376120Y-6253480I-950000J0D01*
G01*
X-14549080Y-9888220D02*
G75*
G03*
X-14549080Y-9888220I-950000J0D01*
G01*
X-8757880Y-12222480D02*
G75*
G03*
X-8757880Y-12222480I-950000J0D01*
G01*
X-11287720Y-13873480D02*
G75*
G03*
X-11287720Y-13873480I-950000J0D01*
G01*
X-13246060Y-12082780D02*
G75*
G03*
X-13246060Y-12082780I-950000J0D01*
G01*
X-3289260Y-13906500D02*
G75*
G03*
X-3289260Y-13906500I-950000J0D01*
G01*
X-4541480Y-12024360D02*
G75*
G03*
X-4541480Y-12024360I-950000J0D01*
G01*
X-3235920Y-37266880D02*
G75*
G03*
X-3235920Y-37266880I-950000J0D01*
G01*
X-5273000Y-35727640D02*
G75*
G03*
X-5273000Y-35727640I-950000J0D01*
G01*
X-7249120Y-35179000D02*
G75*
G03*
X-7249120Y-35179000I-950000J0D01*
G01*
X-9301440Y-35100260D02*
G75*
G03*
X-9301440Y-35100260I-950000J0D01*
G01*
X-17833300Y-35095180D02*
G75*
G03*
X-17833300Y-35095180I-950000J0D01*
G01*
X5537240Y-15687040D02*
G75*
G03*
X5537240Y-15687040I-950000J0D01*
G01*
X17249180Y-19817080D02*
G75*
G03*
X17249180Y-19817080I-950000J0D01*
G01*
X14440000Y-45950000D02*
X14440000Y-50950000D01*
X19440000Y-45950000D02*
X19440000Y-50950000D01*
X10650400Y-30457140D02*
G75*
G03*
X10650400Y-30457140I-4120000J0D01*
G01*
X6530400Y-26377140D02*
X6530400Y-34537140D01*
X6570400Y-26377140D02*
X6570400Y-34537140D01*
X6610400Y-26377140D02*
X6610400Y-34537140D01*
X6650400Y-26378140D02*
X6650400Y-34536140D01*
X6690400Y-26380140D02*
X6690400Y-34534140D01*
X6730400Y-26381140D02*
X6730400Y-34533140D01*
X6770400Y-26383140D02*
X6770400Y-34531140D01*
X6810400Y-26386140D02*
X6810400Y-34528140D01*
X6850400Y-26389140D02*
X6850400Y-34525140D01*
X6890400Y-26392140D02*
X6890400Y-34522140D01*
X6930400Y-26396140D02*
X6930400Y-34518140D01*
X6970400Y-26400140D02*
X6970400Y-34514140D01*
X7010400Y-26405140D02*
X7010400Y-34509140D01*
X7050400Y-26409140D02*
X7050400Y-34505140D01*
X7090400Y-26415140D02*
X7090400Y-34499140D01*
X7130400Y-26420140D02*
X7130400Y-34494140D01*
X7170400Y-26427140D02*
X7170400Y-34487140D01*
X7210400Y-26433140D02*
X7210400Y-34481140D01*
X7251400Y-26440140D02*
X7251400Y-29417140D01*
X7251400Y-31497140D02*
X7251400Y-34474140D01*
X7291400Y-26447140D02*
X7291400Y-29417140D01*
X7291400Y-31497140D02*
X7291400Y-34467140D01*
X7331400Y-26455140D02*
X7331400Y-29417140D01*
X7331400Y-31497140D02*
X7331400Y-34459140D01*
X7371400Y-26463140D02*
X7371400Y-29417140D01*
X7371400Y-31497140D02*
X7371400Y-34451140D01*
X7411400Y-26472140D02*
X7411400Y-29417140D01*
X7411400Y-31497140D02*
X7411400Y-34442140D01*
X7451400Y-26481140D02*
X7451400Y-29417140D01*
X7451400Y-31497140D02*
X7451400Y-34433140D01*
X7491400Y-26490140D02*
X7491400Y-29417140D01*
X7491400Y-31497140D02*
X7491400Y-34424140D01*
X7531400Y-26500140D02*
X7531400Y-29417140D01*
X7531400Y-31497140D02*
X7531400Y-34414140D01*
X7571400Y-26510140D02*
X7571400Y-29417140D01*
X7571400Y-31497140D02*
X7571400Y-34404140D01*
X7611400Y-26521140D02*
X7611400Y-29417140D01*
X7611400Y-31497140D02*
X7611400Y-34393140D01*
X7651400Y-26532140D02*
X7651400Y-29417140D01*
X7651400Y-31497140D02*
X7651400Y-34382140D01*
X7691400Y-26543140D02*
X7691400Y-29417140D01*
X7691400Y-31497140D02*
X7691400Y-34371140D01*
X7731400Y-26555140D02*
X7731400Y-29417140D01*
X7731400Y-31497140D02*
X7731400Y-34359140D01*
X7771400Y-26568140D02*
X7771400Y-29417140D01*
X7771400Y-31497140D02*
X7771400Y-34346140D01*
X7811400Y-26580140D02*
X7811400Y-29417140D01*
X7811400Y-31497140D02*
X7811400Y-34334140D01*
X7851400Y-26594140D02*
X7851400Y-29417140D01*
X7851400Y-31497140D02*
X7851400Y-34320140D01*
X7891400Y-26607140D02*
X7891400Y-29417140D01*
X7891400Y-31497140D02*
X7891400Y-34307140D01*
X7931400Y-26622140D02*
X7931400Y-29417140D01*
X7931400Y-31497140D02*
X7931400Y-34292140D01*
X7971400Y-26636140D02*
X7971400Y-29417140D01*
X7971400Y-31497140D02*
X7971400Y-34278140D01*
X8011400Y-26652140D02*
X8011400Y-29417140D01*
X8011400Y-31497140D02*
X8011400Y-34262140D01*
X8051400Y-26667140D02*
X8051400Y-29417140D01*
X8051400Y-31497140D02*
X8051400Y-34247140D01*
X8091400Y-26683140D02*
X8091400Y-29417140D01*
X8091400Y-31497140D02*
X8091400Y-34231140D01*
X8131400Y-26700140D02*
X8131400Y-29417140D01*
X8131400Y-31497140D02*
X8131400Y-34214140D01*
X8171400Y-26717140D02*
X8171400Y-29417140D01*
X8171400Y-31497140D02*
X8171400Y-34197140D01*
X8211400Y-26735140D02*
X8211400Y-29417140D01*
X8211400Y-31497140D02*
X8211400Y-34179140D01*
X8251400Y-26753140D02*
X8251400Y-29417140D01*
X8251400Y-31497140D02*
X8251400Y-34161140D01*
X8291400Y-26771140D02*
X8291400Y-29417140D01*
X8291400Y-31497140D02*
X8291400Y-34143140D01*
X8331400Y-26791140D02*
X8331400Y-29417140D01*
X8331400Y-31497140D02*
X8331400Y-34123140D01*
X8371400Y-26810140D02*
X8371400Y-29417140D01*
X8371400Y-31497140D02*
X8371400Y-34104140D01*
X8411400Y-26830140D02*
X8411400Y-29417140D01*
X8411400Y-31497140D02*
X8411400Y-34084140D01*
X8451400Y-26851140D02*
X8451400Y-29417140D01*
X8451400Y-31497140D02*
X8451400Y-34063140D01*
X8491400Y-26873140D02*
X8491400Y-29417140D01*
X8491400Y-31497140D02*
X8491400Y-34041140D01*
X8531400Y-26895140D02*
X8531400Y-29417140D01*
X8531400Y-31497140D02*
X8531400Y-34019140D01*
X8571400Y-26917140D02*
X8571400Y-29417140D01*
X8571400Y-31497140D02*
X8571400Y-33997140D01*
X8611400Y-26940140D02*
X8611400Y-29417140D01*
X8611400Y-31497140D02*
X8611400Y-33974140D01*
X8651400Y-26964140D02*
X8651400Y-29417140D01*
X8651400Y-31497140D02*
X8651400Y-33950140D01*
X8691400Y-26988140D02*
X8691400Y-29417140D01*
X8691400Y-31497140D02*
X8691400Y-33926140D01*
X8731400Y-27013140D02*
X8731400Y-29417140D01*
X8731400Y-31497140D02*
X8731400Y-33901140D01*
X8771400Y-27039140D02*
X8771400Y-29417140D01*
X8771400Y-31497140D02*
X8771400Y-33875140D01*
X8811400Y-27065140D02*
X8811400Y-29417140D01*
X8811400Y-31497140D02*
X8811400Y-33849140D01*
X8851400Y-27092140D02*
X8851400Y-29417140D01*
X8851400Y-31497140D02*
X8851400Y-33822140D01*
X8891400Y-27119140D02*
X8891400Y-29417140D01*
X8891400Y-31497140D02*
X8891400Y-33795140D01*
X8931400Y-27148140D02*
X8931400Y-29417140D01*
X8931400Y-31497140D02*
X8931400Y-33766140D01*
X8971400Y-27177140D02*
X8971400Y-29417140D01*
X8971400Y-31497140D02*
X8971400Y-33737140D01*
X9011400Y-27207140D02*
X9011400Y-29417140D01*
X9011400Y-31497140D02*
X9011400Y-33707140D01*
X9051400Y-27237140D02*
X9051400Y-29417140D01*
X9051400Y-31497140D02*
X9051400Y-33677140D01*
X9091400Y-27268140D02*
X9091400Y-29417140D01*
X9091400Y-31497140D02*
X9091400Y-33646140D01*
X9131400Y-27301140D02*
X9131400Y-29417140D01*
X9131400Y-31497140D02*
X9131400Y-33613140D01*
X9171400Y-27333140D02*
X9171400Y-29417140D01*
X9171400Y-31497140D02*
X9171400Y-33581140D01*
X9211400Y-27367140D02*
X9211400Y-29417140D01*
X9211400Y-31497140D02*
X9211400Y-33547140D01*
X9251400Y-27402140D02*
X9251400Y-29417140D01*
X9251400Y-31497140D02*
X9251400Y-33512140D01*
X9291400Y-27438140D02*
X9291400Y-29417140D01*
X9291400Y-31497140D02*
X9291400Y-33476140D01*
X9331400Y-27474140D02*
X9331400Y-33440140D01*
X9371400Y-27512140D02*
X9371400Y-33402140D01*
X9411400Y-27550140D02*
X9411400Y-33364140D01*
X9451400Y-27590140D02*
X9451400Y-33324140D01*
X9491400Y-27631140D02*
X9491400Y-33283140D01*
X9531400Y-27673140D02*
X9531400Y-33241140D01*
X9571400Y-27716140D02*
X9571400Y-33198140D01*
X9611400Y-27760140D02*
X9611400Y-33154140D01*
X9651400Y-27806140D02*
X9651400Y-33108140D01*
X9691400Y-27853140D02*
X9691400Y-33061140D01*
X9731400Y-27901140D02*
X9731400Y-33013140D01*
X9771400Y-27952140D02*
X9771400Y-32962140D01*
X9811400Y-28003140D02*
X9811400Y-32911140D01*
X9851400Y-28057140D02*
X9851400Y-32857140D01*
X9891400Y-28112140D02*
X9891400Y-32802140D01*
X9931400Y-28170140D02*
X9931400Y-32744140D01*
X9971400Y-28229140D02*
X9971400Y-32685140D01*
X10011400Y-28291140D02*
X10011400Y-32623140D01*
X10051400Y-28355140D02*
X10051400Y-32559140D01*
X10091400Y-28423140D02*
X10091400Y-32491140D01*
X10131400Y-28493140D02*
X10131400Y-32421140D01*
X10171400Y-28567140D02*
X10171400Y-32347140D01*
X10211400Y-28644140D02*
X10211400Y-32270140D01*
X10251400Y-28726140D02*
X10251400Y-32188140D01*
X10291400Y-28812140D02*
X10291400Y-32102140D01*
X10331400Y-28905140D02*
X10331400Y-32009140D01*
X10371400Y-29004140D02*
X10371400Y-31910140D01*
X10411400Y-29111140D02*
X10411400Y-31803140D01*
X10451400Y-29228140D02*
X10451400Y-31686140D01*
X10491400Y-29359140D02*
X10491400Y-31555140D01*
X10531400Y-29509140D02*
X10531400Y-31405140D01*
X10571400Y-29689140D02*
X10571400Y-31225140D01*
X10611400Y-29924140D02*
X10611400Y-30990140D01*
X2120702Y-28142140D02*
X2920702Y-28142140D01*
X2520702Y-27742140D02*
X2520702Y-28542140D01*
X10609760Y-21798280D02*
G75*
G03*
X10609760Y-21798280I-4120000J0D01*
G01*
X6489760Y-17718280D02*
X6489760Y-25878280D01*
X6529760Y-17718280D02*
X6529760Y-25878280D01*
X6569760Y-17718280D02*
X6569760Y-25878280D01*
X6609760Y-17719280D02*
X6609760Y-25877280D01*
X6649760Y-17721280D02*
X6649760Y-25875280D01*
X6689760Y-17722280D02*
X6689760Y-25874280D01*
X6729760Y-17724280D02*
X6729760Y-25872280D01*
X6769760Y-17727280D02*
X6769760Y-25869280D01*
X6809760Y-17730280D02*
X6809760Y-25866280D01*
X6849760Y-17733280D02*
X6849760Y-25863280D01*
X6889760Y-17737280D02*
X6889760Y-25859280D01*
X6929760Y-17741280D02*
X6929760Y-25855280D01*
X6969760Y-17746280D02*
X6969760Y-25850280D01*
X7009760Y-17750280D02*
X7009760Y-25846280D01*
X7049760Y-17756280D02*
X7049760Y-25840280D01*
X7089760Y-17761280D02*
X7089760Y-25835280D01*
X7129760Y-17768280D02*
X7129760Y-25828280D01*
X7169760Y-17774280D02*
X7169760Y-25822280D01*
X7210760Y-17781280D02*
X7210760Y-20758280D01*
X7210760Y-22838280D02*
X7210760Y-25815280D01*
X7250760Y-17788280D02*
X7250760Y-20758280D01*
X7250760Y-22838280D02*
X7250760Y-25808280D01*
X7290760Y-17796280D02*
X7290760Y-20758280D01*
X7290760Y-22838280D02*
X7290760Y-25800280D01*
X7330760Y-17804280D02*
X7330760Y-20758280D01*
X7330760Y-22838280D02*
X7330760Y-25792280D01*
X7370760Y-17813280D02*
X7370760Y-20758280D01*
X7370760Y-22838280D02*
X7370760Y-25783280D01*
X7410760Y-17822280D02*
X7410760Y-20758280D01*
X7410760Y-22838280D02*
X7410760Y-25774280D01*
X7450760Y-17831280D02*
X7450760Y-20758280D01*
X7450760Y-22838280D02*
X7450760Y-25765280D01*
X7490760Y-17841280D02*
X7490760Y-20758280D01*
X7490760Y-22838280D02*
X7490760Y-25755280D01*
X7530760Y-17851280D02*
X7530760Y-20758280D01*
X7530760Y-22838280D02*
X7530760Y-25745280D01*
X7570760Y-17862280D02*
X7570760Y-20758280D01*
X7570760Y-22838280D02*
X7570760Y-25734280D01*
X7610760Y-17873280D02*
X7610760Y-20758280D01*
X7610760Y-22838280D02*
X7610760Y-25723280D01*
X7650760Y-17884280D02*
X7650760Y-20758280D01*
X7650760Y-22838280D02*
X7650760Y-25712280D01*
X7690760Y-17896280D02*
X7690760Y-20758280D01*
X7690760Y-22838280D02*
X7690760Y-25700280D01*
X7730760Y-17909280D02*
X7730760Y-20758280D01*
X7730760Y-22838280D02*
X7730760Y-25687280D01*
X7770760Y-17921280D02*
X7770760Y-20758280D01*
X7770760Y-22838280D02*
X7770760Y-25675280D01*
X7810760Y-17935280D02*
X7810760Y-20758280D01*
X7810760Y-22838280D02*
X7810760Y-25661280D01*
X7850760Y-17948280D02*
X7850760Y-20758280D01*
X7850760Y-22838280D02*
X7850760Y-25648280D01*
X7890760Y-17963280D02*
X7890760Y-20758280D01*
X7890760Y-22838280D02*
X7890760Y-25633280D01*
X7930760Y-17977280D02*
X7930760Y-20758280D01*
X7930760Y-22838280D02*
X7930760Y-25619280D01*
X7970760Y-17993280D02*
X7970760Y-20758280D01*
X7970760Y-22838280D02*
X7970760Y-25603280D01*
X8010760Y-18008280D02*
X8010760Y-20758280D01*
X8010760Y-22838280D02*
X8010760Y-25588280D01*
X8050760Y-18024280D02*
X8050760Y-20758280D01*
X8050760Y-22838280D02*
X8050760Y-25572280D01*
X8090760Y-18041280D02*
X8090760Y-20758280D01*
X8090760Y-22838280D02*
X8090760Y-25555280D01*
X8130760Y-18058280D02*
X8130760Y-20758280D01*
X8130760Y-22838280D02*
X8130760Y-25538280D01*
X8170760Y-18076280D02*
X8170760Y-20758280D01*
X8170760Y-22838280D02*
X8170760Y-25520280D01*
X8210760Y-18094280D02*
X8210760Y-20758280D01*
X8210760Y-22838280D02*
X8210760Y-25502280D01*
X8250760Y-18112280D02*
X8250760Y-20758280D01*
X8250760Y-22838280D02*
X8250760Y-25484280D01*
X8290760Y-18132280D02*
X8290760Y-20758280D01*
X8290760Y-22838280D02*
X8290760Y-25464280D01*
X8330760Y-18151280D02*
X8330760Y-20758280D01*
X8330760Y-22838280D02*
X8330760Y-25445280D01*
X8370760Y-18171280D02*
X8370760Y-20758280D01*
X8370760Y-22838280D02*
X8370760Y-25425280D01*
X8410760Y-18192280D02*
X8410760Y-20758280D01*
X8410760Y-22838280D02*
X8410760Y-25404280D01*
X8450760Y-18214280D02*
X8450760Y-20758280D01*
X8450760Y-22838280D02*
X8450760Y-25382280D01*
X8490760Y-18236280D02*
X8490760Y-20758280D01*
X8490760Y-22838280D02*
X8490760Y-25360280D01*
X8530760Y-18258280D02*
X8530760Y-20758280D01*
X8530760Y-22838280D02*
X8530760Y-25338280D01*
X8570760Y-18281280D02*
X8570760Y-20758280D01*
X8570760Y-22838280D02*
X8570760Y-25315280D01*
X8610760Y-18305280D02*
X8610760Y-20758280D01*
X8610760Y-22838280D02*
X8610760Y-25291280D01*
X8650760Y-18329280D02*
X8650760Y-20758280D01*
X8650760Y-22838280D02*
X8650760Y-25267280D01*
X8690760Y-18354280D02*
X8690760Y-20758280D01*
X8690760Y-22838280D02*
X8690760Y-25242280D01*
X8730760Y-18380280D02*
X8730760Y-20758280D01*
X8730760Y-22838280D02*
X8730760Y-25216280D01*
X8770760Y-18406280D02*
X8770760Y-20758280D01*
X8770760Y-22838280D02*
X8770760Y-25190280D01*
X8810760Y-18433280D02*
X8810760Y-20758280D01*
X8810760Y-22838280D02*
X8810760Y-25163280D01*
X8850760Y-18460280D02*
X8850760Y-20758280D01*
X8850760Y-22838280D02*
X8850760Y-25136280D01*
X8890760Y-18489280D02*
X8890760Y-20758280D01*
X8890760Y-22838280D02*
X8890760Y-25107280D01*
X8930760Y-18518280D02*
X8930760Y-20758280D01*
X8930760Y-22838280D02*
X8930760Y-25078280D01*
X8970760Y-18548280D02*
X8970760Y-20758280D01*
X8970760Y-22838280D02*
X8970760Y-25048280D01*
X9010760Y-18578280D02*
X9010760Y-20758280D01*
X9010760Y-22838280D02*
X9010760Y-25018280D01*
X9050760Y-18609280D02*
X9050760Y-20758280D01*
X9050760Y-22838280D02*
X9050760Y-24987280D01*
X9090760Y-18642280D02*
X9090760Y-20758280D01*
X9090760Y-22838280D02*
X9090760Y-24954280D01*
X9130760Y-18674280D02*
X9130760Y-20758280D01*
X9130760Y-22838280D02*
X9130760Y-24922280D01*
X9170760Y-18708280D02*
X9170760Y-20758280D01*
X9170760Y-22838280D02*
X9170760Y-24888280D01*
X9210760Y-18743280D02*
X9210760Y-20758280D01*
X9210760Y-22838280D02*
X9210760Y-24853280D01*
X9250760Y-18779280D02*
X9250760Y-20758280D01*
X9250760Y-22838280D02*
X9250760Y-24817280D01*
X9290760Y-18815280D02*
X9290760Y-24781280D01*
X9330760Y-18853280D02*
X9330760Y-24743280D01*
X9370760Y-18891280D02*
X9370760Y-24705280D01*
X9410760Y-18931280D02*
X9410760Y-24665280D01*
X9450760Y-18972280D02*
X9450760Y-24624280D01*
X9490760Y-19014280D02*
X9490760Y-24582280D01*
X9530760Y-19057280D02*
X9530760Y-24539280D01*
X9570760Y-19101280D02*
X9570760Y-24495280D01*
X9610760Y-19147280D02*
X9610760Y-24449280D01*
X9650760Y-19194280D02*
X9650760Y-24402280D01*
X9690760Y-19242280D02*
X9690760Y-24354280D01*
X9730760Y-19293280D02*
X9730760Y-24303280D01*
X9770760Y-19344280D02*
X9770760Y-24252280D01*
X9810760Y-19398280D02*
X9810760Y-24198280D01*
X9850760Y-19453280D02*
X9850760Y-24143280D01*
X9890760Y-19511280D02*
X9890760Y-24085280D01*
X9930760Y-19570280D02*
X9930760Y-24026280D01*
X9970760Y-19632280D02*
X9970760Y-23964280D01*
X10010760Y-19696280D02*
X10010760Y-23900280D01*
X10050760Y-19764280D02*
X10050760Y-23832280D01*
X10090760Y-19834280D02*
X10090760Y-23762280D01*
X10130760Y-19908280D02*
X10130760Y-23688280D01*
X10170760Y-19985280D02*
X10170760Y-23611280D01*
X10210760Y-20067280D02*
X10210760Y-23529280D01*
X10250760Y-20153280D02*
X10250760Y-23443280D01*
X10290760Y-20246280D02*
X10290760Y-23350280D01*
X10330760Y-20345280D02*
X10330760Y-23251280D01*
X10370760Y-20452280D02*
X10370760Y-23144280D01*
X10410760Y-20569280D02*
X10410760Y-23027280D01*
X10450760Y-20700280D02*
X10450760Y-22896280D01*
X10490760Y-20850280D02*
X10490760Y-22746280D01*
X10530760Y-21030280D02*
X10530760Y-22566280D01*
X10570760Y-21265280D02*
X10570760Y-22331280D01*
X2080062Y-19483280D02*
X2880062Y-19483280D01*
X2480062Y-19083280D02*
X2480062Y-19883280D01*
X12283480Y-19273520D02*
G75*
G03*
X12283480Y-19273520I-950000J0D01*
G01*
X18462238Y-28033720D02*
X18462238Y-27233720D01*
X18862238Y-27633720D02*
X18062238Y-27633720D01*
X10371540Y-25851720D02*
X10371540Y-24785720D01*
X10411540Y-26086720D02*
X10411540Y-24550720D01*
X10451540Y-26266720D02*
X10451540Y-24370720D01*
X10491540Y-26416720D02*
X10491540Y-24220720D01*
X10531540Y-26547720D02*
X10531540Y-24089720D01*
X10571540Y-26664720D02*
X10571540Y-23972720D01*
X10611540Y-26771720D02*
X10611540Y-23865720D01*
X10651540Y-26870720D02*
X10651540Y-23766720D01*
X10691540Y-26963720D02*
X10691540Y-23673720D01*
X10731540Y-27049720D02*
X10731540Y-23587720D01*
X10771540Y-27131720D02*
X10771540Y-23505720D01*
X10811540Y-27208720D02*
X10811540Y-23428720D01*
X10851540Y-27282720D02*
X10851540Y-23354720D01*
X10891540Y-27352720D02*
X10891540Y-23284720D01*
X10931540Y-27420720D02*
X10931540Y-23216720D01*
X10971540Y-27484720D02*
X10971540Y-23152720D01*
X11011540Y-27546720D02*
X11011540Y-23090720D01*
X11051540Y-27605720D02*
X11051540Y-23031720D01*
X11091540Y-27663720D02*
X11091540Y-22973720D01*
X11131540Y-27718720D02*
X11131540Y-22918720D01*
X11171540Y-27772720D02*
X11171540Y-22864720D01*
X11211540Y-27823720D02*
X11211540Y-22813720D01*
X11251540Y-27874720D02*
X11251540Y-22762720D01*
X11291540Y-27922720D02*
X11291540Y-22714720D01*
X11331540Y-27969720D02*
X11331540Y-22667720D01*
X11371540Y-28015720D02*
X11371540Y-22621720D01*
X11411540Y-28059720D02*
X11411540Y-22577720D01*
X11451540Y-28102720D02*
X11451540Y-22534720D01*
X11491540Y-28144720D02*
X11491540Y-22492720D01*
X11531540Y-28185720D02*
X11531540Y-22451720D01*
X11571540Y-28225720D02*
X11571540Y-22411720D01*
X11611540Y-28263720D02*
X11611540Y-22373720D01*
X11651540Y-28301720D02*
X11651540Y-22335720D01*
X11691540Y-24278720D02*
X11691540Y-22299720D01*
X11691540Y-28337720D02*
X11691540Y-26358720D01*
X11731540Y-24278720D02*
X11731540Y-22263720D01*
X11731540Y-28373720D02*
X11731540Y-26358720D01*
X11771540Y-24278720D02*
X11771540Y-22228720D01*
X11771540Y-28408720D02*
X11771540Y-26358720D01*
X11811540Y-24278720D02*
X11811540Y-22194720D01*
X11811540Y-28442720D02*
X11811540Y-26358720D01*
X11851540Y-24278720D02*
X11851540Y-22162720D01*
X11851540Y-28474720D02*
X11851540Y-26358720D01*
X11891540Y-24278720D02*
X11891540Y-22129720D01*
X11891540Y-28507720D02*
X11891540Y-26358720D01*
X11931540Y-24278720D02*
X11931540Y-22098720D01*
X11931540Y-28538720D02*
X11931540Y-26358720D01*
X11971540Y-24278720D02*
X11971540Y-22068720D01*
X11971540Y-28568720D02*
X11971540Y-26358720D01*
X12011540Y-24278720D02*
X12011540Y-22038720D01*
X12011540Y-28598720D02*
X12011540Y-26358720D01*
X12051540Y-24278720D02*
X12051540Y-22009720D01*
X12051540Y-28627720D02*
X12051540Y-26358720D01*
X12091540Y-24278720D02*
X12091540Y-21980720D01*
X12091540Y-28656720D02*
X12091540Y-26358720D01*
X12131540Y-24278720D02*
X12131540Y-21953720D01*
X12131540Y-28683720D02*
X12131540Y-26358720D01*
X12171540Y-24278720D02*
X12171540Y-21926720D01*
X12171540Y-28710720D02*
X12171540Y-26358720D01*
X12211540Y-24278720D02*
X12211540Y-21900720D01*
X12211540Y-28736720D02*
X12211540Y-26358720D01*
X12251540Y-24278720D02*
X12251540Y-21874720D01*
X12251540Y-28762720D02*
X12251540Y-26358720D01*
X12291540Y-24278720D02*
X12291540Y-21849720D01*
X12291540Y-28787720D02*
X12291540Y-26358720D01*
X12331540Y-24278720D02*
X12331540Y-21825720D01*
X12331540Y-28811720D02*
X12331540Y-26358720D01*
X12371540Y-24278720D02*
X12371540Y-21801720D01*
X12371540Y-28835720D02*
X12371540Y-26358720D01*
X12411540Y-24278720D02*
X12411540Y-21778720D01*
X12411540Y-28858720D02*
X12411540Y-26358720D01*
X12451540Y-24278720D02*
X12451540Y-21756720D01*
X12451540Y-28880720D02*
X12451540Y-26358720D01*
X12491540Y-24278720D02*
X12491540Y-21734720D01*
X12491540Y-28902720D02*
X12491540Y-26358720D01*
X12531540Y-24278720D02*
X12531540Y-21712720D01*
X12531540Y-28924720D02*
X12531540Y-26358720D01*
X12571540Y-24278720D02*
X12571540Y-21691720D01*
X12571540Y-28945720D02*
X12571540Y-26358720D01*
X12611540Y-24278720D02*
X12611540Y-21671720D01*
X12611540Y-28965720D02*
X12611540Y-26358720D01*
X12651540Y-24278720D02*
X12651540Y-21652720D01*
X12651540Y-28984720D02*
X12651540Y-26358720D01*
X12691540Y-24278720D02*
X12691540Y-21632720D01*
X12691540Y-29004720D02*
X12691540Y-26358720D01*
X12731540Y-24278720D02*
X12731540Y-21614720D01*
X12731540Y-29022720D02*
X12731540Y-26358720D01*
X12771540Y-24278720D02*
X12771540Y-21596720D01*
X12771540Y-29040720D02*
X12771540Y-26358720D01*
X12811540Y-24278720D02*
X12811540Y-21578720D01*
X12811540Y-29058720D02*
X12811540Y-26358720D01*
X12851540Y-24278720D02*
X12851540Y-21561720D01*
X12851540Y-29075720D02*
X12851540Y-26358720D01*
X12891540Y-24278720D02*
X12891540Y-21544720D01*
X12891540Y-29092720D02*
X12891540Y-26358720D01*
X12931540Y-24278720D02*
X12931540Y-21528720D01*
X12931540Y-29108720D02*
X12931540Y-26358720D01*
X12971540Y-24278720D02*
X12971540Y-21513720D01*
X12971540Y-29123720D02*
X12971540Y-26358720D01*
X13011540Y-24278720D02*
X13011540Y-21497720D01*
X13011540Y-29139720D02*
X13011540Y-26358720D01*
X13051540Y-24278720D02*
X13051540Y-21483720D01*
X13051540Y-29153720D02*
X13051540Y-26358720D01*
X13091540Y-24278720D02*
X13091540Y-21468720D01*
X13091540Y-29168720D02*
X13091540Y-26358720D01*
X13131540Y-24278720D02*
X13131540Y-21455720D01*
X13131540Y-29181720D02*
X13131540Y-26358720D01*
X13171540Y-24278720D02*
X13171540Y-21441720D01*
X13171540Y-29195720D02*
X13171540Y-26358720D01*
X13211540Y-24278720D02*
X13211540Y-21429720D01*
X13211540Y-29207720D02*
X13211540Y-26358720D01*
X13251540Y-24278720D02*
X13251540Y-21416720D01*
X13251540Y-29220720D02*
X13251540Y-26358720D01*
X13291540Y-24278720D02*
X13291540Y-21404720D01*
X13291540Y-29232720D02*
X13291540Y-26358720D01*
X13331540Y-24278720D02*
X13331540Y-21393720D01*
X13331540Y-29243720D02*
X13331540Y-26358720D01*
X13371540Y-24278720D02*
X13371540Y-21382720D01*
X13371540Y-29254720D02*
X13371540Y-26358720D01*
X13411540Y-24278720D02*
X13411540Y-21371720D01*
X13411540Y-29265720D02*
X13411540Y-26358720D01*
X13451540Y-24278720D02*
X13451540Y-21361720D01*
X13451540Y-29275720D02*
X13451540Y-26358720D01*
X13491540Y-24278720D02*
X13491540Y-21351720D01*
X13491540Y-29285720D02*
X13491540Y-26358720D01*
X13531540Y-24278720D02*
X13531540Y-21342720D01*
X13531540Y-29294720D02*
X13531540Y-26358720D01*
X13571540Y-24278720D02*
X13571540Y-21333720D01*
X13571540Y-29303720D02*
X13571540Y-26358720D01*
X13611540Y-24278720D02*
X13611540Y-21324720D01*
X13611540Y-29312720D02*
X13611540Y-26358720D01*
X13651540Y-24278720D02*
X13651540Y-21316720D01*
X13651540Y-29320720D02*
X13651540Y-26358720D01*
X13691540Y-24278720D02*
X13691540Y-21308720D01*
X13691540Y-29328720D02*
X13691540Y-26358720D01*
X13731540Y-24278720D02*
X13731540Y-21301720D01*
X13731540Y-29335720D02*
X13731540Y-26358720D01*
X13772540Y-29342720D02*
X13772540Y-21294720D01*
X13812540Y-29348720D02*
X13812540Y-21288720D01*
X13852540Y-29355720D02*
X13852540Y-21281720D01*
X13892540Y-29360720D02*
X13892540Y-21276720D01*
X13932540Y-29366720D02*
X13932540Y-21270720D01*
X13972540Y-29370720D02*
X13972540Y-21266720D01*
X14012540Y-29375720D02*
X14012540Y-21261720D01*
X14052540Y-29379720D02*
X14052540Y-21257720D01*
X14092540Y-29383720D02*
X14092540Y-21253720D01*
X14132540Y-29386720D02*
X14132540Y-21250720D01*
X14172540Y-29389720D02*
X14172540Y-21247720D01*
X14212540Y-29392720D02*
X14212540Y-21244720D01*
X14252540Y-29394720D02*
X14252540Y-21242720D01*
X14292540Y-29395720D02*
X14292540Y-21241720D01*
X14332540Y-29397720D02*
X14332540Y-21239720D01*
X14372540Y-29398720D02*
X14372540Y-21238720D01*
X14412540Y-29398720D02*
X14412540Y-21238720D01*
X14452540Y-29398720D02*
X14452540Y-21238720D01*
X18572540Y-25318720D02*
G75*
G03*
X18572540Y-25318720I-4120000J0D01*
G01*
X18592860Y-33962340D02*
G75*
G03*
X18592860Y-33962340I-4120000J0D01*
G01*
X14472860Y-38042340D02*
X14472860Y-29882340D01*
X14432860Y-38042340D02*
X14432860Y-29882340D01*
X14392860Y-38042340D02*
X14392860Y-29882340D01*
X14352860Y-38041340D02*
X14352860Y-29883340D01*
X14312860Y-38039340D02*
X14312860Y-29885340D01*
X14272860Y-38038340D02*
X14272860Y-29886340D01*
X14232860Y-38036340D02*
X14232860Y-29888340D01*
X14192860Y-38033340D02*
X14192860Y-29891340D01*
X14152860Y-38030340D02*
X14152860Y-29894340D01*
X14112860Y-38027340D02*
X14112860Y-29897340D01*
X14072860Y-38023340D02*
X14072860Y-29901340D01*
X14032860Y-38019340D02*
X14032860Y-29905340D01*
X13992860Y-38014340D02*
X13992860Y-29910340D01*
X13952860Y-38010340D02*
X13952860Y-29914340D01*
X13912860Y-38004340D02*
X13912860Y-29920340D01*
X13872860Y-37999340D02*
X13872860Y-29925340D01*
X13832860Y-37992340D02*
X13832860Y-29932340D01*
X13792860Y-37986340D02*
X13792860Y-29938340D01*
X13751860Y-37979340D02*
X13751860Y-35002340D01*
X13751860Y-32922340D02*
X13751860Y-29945340D01*
X13711860Y-37972340D02*
X13711860Y-35002340D01*
X13711860Y-32922340D02*
X13711860Y-29952340D01*
X13671860Y-37964340D02*
X13671860Y-35002340D01*
X13671860Y-32922340D02*
X13671860Y-29960340D01*
X13631860Y-37956340D02*
X13631860Y-35002340D01*
X13631860Y-32922340D02*
X13631860Y-29968340D01*
X13591860Y-37947340D02*
X13591860Y-35002340D01*
X13591860Y-32922340D02*
X13591860Y-29977340D01*
X13551860Y-37938340D02*
X13551860Y-35002340D01*
X13551860Y-32922340D02*
X13551860Y-29986340D01*
X13511860Y-37929340D02*
X13511860Y-35002340D01*
X13511860Y-32922340D02*
X13511860Y-29995340D01*
X13471860Y-37919340D02*
X13471860Y-35002340D01*
X13471860Y-32922340D02*
X13471860Y-30005340D01*
X13431860Y-37909340D02*
X13431860Y-35002340D01*
X13431860Y-32922340D02*
X13431860Y-30015340D01*
X13391860Y-37898340D02*
X13391860Y-35002340D01*
X13391860Y-32922340D02*
X13391860Y-30026340D01*
X13351860Y-37887340D02*
X13351860Y-35002340D01*
X13351860Y-32922340D02*
X13351860Y-30037340D01*
X13311860Y-37876340D02*
X13311860Y-35002340D01*
X13311860Y-32922340D02*
X13311860Y-30048340D01*
X13271860Y-37864340D02*
X13271860Y-35002340D01*
X13271860Y-32922340D02*
X13271860Y-30060340D01*
X13231860Y-37851340D02*
X13231860Y-35002340D01*
X13231860Y-32922340D02*
X13231860Y-30073340D01*
X13191860Y-37839340D02*
X13191860Y-35002340D01*
X13191860Y-32922340D02*
X13191860Y-30085340D01*
X13151860Y-37825340D02*
X13151860Y-35002340D01*
X13151860Y-32922340D02*
X13151860Y-30099340D01*
X13111860Y-37812340D02*
X13111860Y-35002340D01*
X13111860Y-32922340D02*
X13111860Y-30112340D01*
X13071860Y-37797340D02*
X13071860Y-35002340D01*
X13071860Y-32922340D02*
X13071860Y-30127340D01*
X13031860Y-37783340D02*
X13031860Y-35002340D01*
X13031860Y-32922340D02*
X13031860Y-30141340D01*
X12991860Y-37767340D02*
X12991860Y-35002340D01*
X12991860Y-32922340D02*
X12991860Y-30157340D01*
X12951860Y-37752340D02*
X12951860Y-35002340D01*
X12951860Y-32922340D02*
X12951860Y-30172340D01*
X12911860Y-37736340D02*
X12911860Y-35002340D01*
X12911860Y-32922340D02*
X12911860Y-30188340D01*
X12871860Y-37719340D02*
X12871860Y-35002340D01*
X12871860Y-32922340D02*
X12871860Y-30205340D01*
X12831860Y-37702340D02*
X12831860Y-35002340D01*
X12831860Y-32922340D02*
X12831860Y-30222340D01*
X12791860Y-37684340D02*
X12791860Y-35002340D01*
X12791860Y-32922340D02*
X12791860Y-30240340D01*
X12751860Y-37666340D02*
X12751860Y-35002340D01*
X12751860Y-32922340D02*
X12751860Y-30258340D01*
X12711860Y-37648340D02*
X12711860Y-35002340D01*
X12711860Y-32922340D02*
X12711860Y-30276340D01*
X12671860Y-37628340D02*
X12671860Y-35002340D01*
X12671860Y-32922340D02*
X12671860Y-30296340D01*
X12631860Y-37609340D02*
X12631860Y-35002340D01*
X12631860Y-32922340D02*
X12631860Y-30315340D01*
X12591860Y-37589340D02*
X12591860Y-35002340D01*
X12591860Y-32922340D02*
X12591860Y-30335340D01*
X12551860Y-37568340D02*
X12551860Y-35002340D01*
X12551860Y-32922340D02*
X12551860Y-30356340D01*
X12511860Y-37546340D02*
X12511860Y-35002340D01*
X12511860Y-32922340D02*
X12511860Y-30378340D01*
X12471860Y-37524340D02*
X12471860Y-35002340D01*
X12471860Y-32922340D02*
X12471860Y-30400340D01*
X12431860Y-37502340D02*
X12431860Y-35002340D01*
X12431860Y-32922340D02*
X12431860Y-30422340D01*
X12391860Y-37479340D02*
X12391860Y-35002340D01*
X12391860Y-32922340D02*
X12391860Y-30445340D01*
X12351860Y-37455340D02*
X12351860Y-35002340D01*
X12351860Y-32922340D02*
X12351860Y-30469340D01*
X12311860Y-37431340D02*
X12311860Y-35002340D01*
X12311860Y-32922340D02*
X12311860Y-30493340D01*
X12271860Y-37406340D02*
X12271860Y-35002340D01*
X12271860Y-32922340D02*
X12271860Y-30518340D01*
X12231860Y-37380340D02*
X12231860Y-35002340D01*
X12231860Y-32922340D02*
X12231860Y-30544340D01*
X12191860Y-37354340D02*
X12191860Y-35002340D01*
X12191860Y-32922340D02*
X12191860Y-30570340D01*
X12151860Y-37327340D02*
X12151860Y-35002340D01*
X12151860Y-32922340D02*
X12151860Y-30597340D01*
X12111860Y-37300340D02*
X12111860Y-35002340D01*
X12111860Y-32922340D02*
X12111860Y-30624340D01*
X12071860Y-37271340D02*
X12071860Y-35002340D01*
X12071860Y-32922340D02*
X12071860Y-30653340D01*
X12031860Y-37242340D02*
X12031860Y-35002340D01*
X12031860Y-32922340D02*
X12031860Y-30682340D01*
X11991860Y-37212340D02*
X11991860Y-35002340D01*
X11991860Y-32922340D02*
X11991860Y-30712340D01*
X11951860Y-37182340D02*
X11951860Y-35002340D01*
X11951860Y-32922340D02*
X11951860Y-30742340D01*
X11911860Y-37151340D02*
X11911860Y-35002340D01*
X11911860Y-32922340D02*
X11911860Y-30773340D01*
X11871860Y-37118340D02*
X11871860Y-35002340D01*
X11871860Y-32922340D02*
X11871860Y-30806340D01*
X11831860Y-37086340D02*
X11831860Y-35002340D01*
X11831860Y-32922340D02*
X11831860Y-30838340D01*
X11791860Y-37052340D02*
X11791860Y-35002340D01*
X11791860Y-32922340D02*
X11791860Y-30872340D01*
X11751860Y-37017340D02*
X11751860Y-35002340D01*
X11751860Y-32922340D02*
X11751860Y-30907340D01*
X11711860Y-36981340D02*
X11711860Y-35002340D01*
X11711860Y-32922340D02*
X11711860Y-30943340D01*
X11671860Y-36945340D02*
X11671860Y-30979340D01*
X11631860Y-36907340D02*
X11631860Y-31017340D01*
X11591860Y-36869340D02*
X11591860Y-31055340D01*
X11551860Y-36829340D02*
X11551860Y-31095340D01*
X11511860Y-36788340D02*
X11511860Y-31136340D01*
X11471860Y-36746340D02*
X11471860Y-31178340D01*
X11431860Y-36703340D02*
X11431860Y-31221340D01*
X11391860Y-36659340D02*
X11391860Y-31265340D01*
X11351860Y-36613340D02*
X11351860Y-31311340D01*
X11311860Y-36566340D02*
X11311860Y-31358340D01*
X11271860Y-36518340D02*
X11271860Y-31406340D01*
X11231860Y-36467340D02*
X11231860Y-31457340D01*
X11191860Y-36416340D02*
X11191860Y-31508340D01*
X11151860Y-36362340D02*
X11151860Y-31562340D01*
X11111860Y-36307340D02*
X11111860Y-31617340D01*
X11071860Y-36249340D02*
X11071860Y-31675340D01*
X11031860Y-36190340D02*
X11031860Y-31734340D01*
X10991860Y-36128340D02*
X10991860Y-31796340D01*
X10951860Y-36064340D02*
X10951860Y-31860340D01*
X10911860Y-35996340D02*
X10911860Y-31928340D01*
X10871860Y-35926340D02*
X10871860Y-31998340D01*
X10831860Y-35852340D02*
X10831860Y-32072340D01*
X10791860Y-35775340D02*
X10791860Y-32149340D01*
X10751860Y-35693340D02*
X10751860Y-32231340D01*
X10711860Y-35607340D02*
X10711860Y-32317340D01*
X10671860Y-35514340D02*
X10671860Y-32410340D01*
X10631860Y-35415340D02*
X10631860Y-32509340D01*
X10591860Y-35308340D02*
X10591860Y-32616340D01*
X10551860Y-35191340D02*
X10551860Y-32733340D01*
X10511860Y-35060340D02*
X10511860Y-32864340D01*
X10471860Y-34910340D02*
X10471860Y-33014340D01*
X10431860Y-34730340D02*
X10431860Y-33194340D01*
X10391860Y-34495340D02*
X10391860Y-33429340D01*
X18882558Y-36277340D02*
X18082558Y-36277340D01*
X18482558Y-36677340D02*
X18482558Y-35877340D01*
X10685840Y-39116000D02*
G75*
G03*
X10685840Y-39116000I-4120000J0D01*
G01*
X6565840Y-35036000D02*
X6565840Y-43196000D01*
X6605840Y-35036000D02*
X6605840Y-43196000D01*
X6645840Y-35036000D02*
X6645840Y-43196000D01*
X6685840Y-35037000D02*
X6685840Y-43195000D01*
X6725840Y-35039000D02*
X6725840Y-43193000D01*
X6765840Y-35040000D02*
X6765840Y-43192000D01*
X6805840Y-35042000D02*
X6805840Y-43190000D01*
X6845840Y-35045000D02*
X6845840Y-43187000D01*
X6885840Y-35048000D02*
X6885840Y-43184000D01*
X6925840Y-35051000D02*
X6925840Y-43181000D01*
X6965840Y-35055000D02*
X6965840Y-43177000D01*
X7005840Y-35059000D02*
X7005840Y-43173000D01*
X7045840Y-35064000D02*
X7045840Y-43168000D01*
X7085840Y-35068000D02*
X7085840Y-43164000D01*
X7125840Y-35074000D02*
X7125840Y-43158000D01*
X7165840Y-35079000D02*
X7165840Y-43153000D01*
X7205840Y-35086000D02*
X7205840Y-43146000D01*
X7245840Y-35092000D02*
X7245840Y-43140000D01*
X7286840Y-35099000D02*
X7286840Y-38076000D01*
X7286840Y-40156000D02*
X7286840Y-43133000D01*
X7326840Y-35106000D02*
X7326840Y-38076000D01*
X7326840Y-40156000D02*
X7326840Y-43126000D01*
X7366840Y-35114000D02*
X7366840Y-38076000D01*
X7366840Y-40156000D02*
X7366840Y-43118000D01*
X7406840Y-35122000D02*
X7406840Y-38076000D01*
X7406840Y-40156000D02*
X7406840Y-43110000D01*
X7446840Y-35131000D02*
X7446840Y-38076000D01*
X7446840Y-40156000D02*
X7446840Y-43101000D01*
X7486840Y-35140000D02*
X7486840Y-38076000D01*
X7486840Y-40156000D02*
X7486840Y-43092000D01*
X7526840Y-35149000D02*
X7526840Y-38076000D01*
X7526840Y-40156000D02*
X7526840Y-43083000D01*
X7566840Y-35159000D02*
X7566840Y-38076000D01*
X7566840Y-40156000D02*
X7566840Y-43073000D01*
X7606840Y-35169000D02*
X7606840Y-38076000D01*
X7606840Y-40156000D02*
X7606840Y-43063000D01*
X7646840Y-35180000D02*
X7646840Y-38076000D01*
X7646840Y-40156000D02*
X7646840Y-43052000D01*
X7686840Y-35191000D02*
X7686840Y-38076000D01*
X7686840Y-40156000D02*
X7686840Y-43041000D01*
X7726840Y-35202000D02*
X7726840Y-38076000D01*
X7726840Y-40156000D02*
X7726840Y-43030000D01*
X7766840Y-35214000D02*
X7766840Y-38076000D01*
X7766840Y-40156000D02*
X7766840Y-43018000D01*
X7806840Y-35227000D02*
X7806840Y-38076000D01*
X7806840Y-40156000D02*
X7806840Y-43005000D01*
X7846840Y-35239000D02*
X7846840Y-38076000D01*
X7846840Y-40156000D02*
X7846840Y-42993000D01*
X7886840Y-35253000D02*
X7886840Y-38076000D01*
X7886840Y-40156000D02*
X7886840Y-42979000D01*
X7926840Y-35266000D02*
X7926840Y-38076000D01*
X7926840Y-40156000D02*
X7926840Y-42966000D01*
X7966840Y-35281000D02*
X7966840Y-38076000D01*
X7966840Y-40156000D02*
X7966840Y-42951000D01*
X8006840Y-35295000D02*
X8006840Y-38076000D01*
X8006840Y-40156000D02*
X8006840Y-42937000D01*
X8046840Y-35311000D02*
X8046840Y-38076000D01*
X8046840Y-40156000D02*
X8046840Y-42921000D01*
X8086840Y-35326000D02*
X8086840Y-38076000D01*
X8086840Y-40156000D02*
X8086840Y-42906000D01*
X8126840Y-35342000D02*
X8126840Y-38076000D01*
X8126840Y-40156000D02*
X8126840Y-42890000D01*
X8166840Y-35359000D02*
X8166840Y-38076000D01*
X8166840Y-40156000D02*
X8166840Y-42873000D01*
X8206840Y-35376000D02*
X8206840Y-38076000D01*
X8206840Y-40156000D02*
X8206840Y-42856000D01*
X8246840Y-35394000D02*
X8246840Y-38076000D01*
X8246840Y-40156000D02*
X8246840Y-42838000D01*
X8286840Y-35412000D02*
X8286840Y-38076000D01*
X8286840Y-40156000D02*
X8286840Y-42820000D01*
X8326840Y-35430000D02*
X8326840Y-38076000D01*
X8326840Y-40156000D02*
X8326840Y-42802000D01*
X8366840Y-35450000D02*
X8366840Y-38076000D01*
X8366840Y-40156000D02*
X8366840Y-42782000D01*
X8406840Y-35469000D02*
X8406840Y-38076000D01*
X8406840Y-40156000D02*
X8406840Y-42763000D01*
X8446840Y-35489000D02*
X8446840Y-38076000D01*
X8446840Y-40156000D02*
X8446840Y-42743000D01*
X8486840Y-35510000D02*
X8486840Y-38076000D01*
X8486840Y-40156000D02*
X8486840Y-42722000D01*
X8526840Y-35532000D02*
X8526840Y-38076000D01*
X8526840Y-40156000D02*
X8526840Y-42700000D01*
X8566840Y-35554000D02*
X8566840Y-38076000D01*
X8566840Y-40156000D02*
X8566840Y-42678000D01*
X8606840Y-35576000D02*
X8606840Y-38076000D01*
X8606840Y-40156000D02*
X8606840Y-42656000D01*
X8646840Y-35599000D02*
X8646840Y-38076000D01*
X8646840Y-40156000D02*
X8646840Y-42633000D01*
X8686840Y-35623000D02*
X8686840Y-38076000D01*
X8686840Y-40156000D02*
X8686840Y-42609000D01*
X8726840Y-35647000D02*
X8726840Y-38076000D01*
X8726840Y-40156000D02*
X8726840Y-42585000D01*
X8766840Y-35672000D02*
X8766840Y-38076000D01*
X8766840Y-40156000D02*
X8766840Y-42560000D01*
X8806840Y-35698000D02*
X8806840Y-38076000D01*
X8806840Y-40156000D02*
X8806840Y-42534000D01*
X8846840Y-35724000D02*
X8846840Y-38076000D01*
X8846840Y-40156000D02*
X8846840Y-42508000D01*
X8886840Y-35751000D02*
X8886840Y-38076000D01*
X8886840Y-40156000D02*
X8886840Y-42481000D01*
X8926840Y-35778000D02*
X8926840Y-38076000D01*
X8926840Y-40156000D02*
X8926840Y-42454000D01*
X8966840Y-35807000D02*
X8966840Y-38076000D01*
X8966840Y-40156000D02*
X8966840Y-42425000D01*
X9006840Y-35836000D02*
X9006840Y-38076000D01*
X9006840Y-40156000D02*
X9006840Y-42396000D01*
X9046840Y-35866000D02*
X9046840Y-38076000D01*
X9046840Y-40156000D02*
X9046840Y-42366000D01*
X9086840Y-35896000D02*
X9086840Y-38076000D01*
X9086840Y-40156000D02*
X9086840Y-42336000D01*
X9126840Y-35927000D02*
X9126840Y-38076000D01*
X9126840Y-40156000D02*
X9126840Y-42305000D01*
X9166840Y-35960000D02*
X9166840Y-38076000D01*
X9166840Y-40156000D02*
X9166840Y-42272000D01*
X9206840Y-35992000D02*
X9206840Y-38076000D01*
X9206840Y-40156000D02*
X9206840Y-42240000D01*
X9246840Y-36026000D02*
X9246840Y-38076000D01*
X9246840Y-40156000D02*
X9246840Y-42206000D01*
X9286840Y-36061000D02*
X9286840Y-38076000D01*
X9286840Y-40156000D02*
X9286840Y-42171000D01*
X9326840Y-36097000D02*
X9326840Y-38076000D01*
X9326840Y-40156000D02*
X9326840Y-42135000D01*
X9366840Y-36133000D02*
X9366840Y-42099000D01*
X9406840Y-36171000D02*
X9406840Y-42061000D01*
X9446840Y-36209000D02*
X9446840Y-42023000D01*
X9486840Y-36249000D02*
X9486840Y-41983000D01*
X9526840Y-36290000D02*
X9526840Y-41942000D01*
X9566840Y-36332000D02*
X9566840Y-41900000D01*
X9606840Y-36375000D02*
X9606840Y-41857000D01*
X9646840Y-36419000D02*
X9646840Y-41813000D01*
X9686840Y-36465000D02*
X9686840Y-41767000D01*
X9726840Y-36512000D02*
X9726840Y-41720000D01*
X9766840Y-36560000D02*
X9766840Y-41672000D01*
X9806840Y-36611000D02*
X9806840Y-41621000D01*
X9846840Y-36662000D02*
X9846840Y-41570000D01*
X9886840Y-36716000D02*
X9886840Y-41516000D01*
X9926840Y-36771000D02*
X9926840Y-41461000D01*
X9966840Y-36829000D02*
X9966840Y-41403000D01*
X10006840Y-36888000D02*
X10006840Y-41344000D01*
X10046840Y-36950000D02*
X10046840Y-41282000D01*
X10086840Y-37014000D02*
X10086840Y-41218000D01*
X10126840Y-37082000D02*
X10126840Y-41150000D01*
X10166840Y-37152000D02*
X10166840Y-41080000D01*
X10206840Y-37226000D02*
X10206840Y-41006000D01*
X10246840Y-37303000D02*
X10246840Y-40929000D01*
X10286840Y-37385000D02*
X10286840Y-40847000D01*
X10326840Y-37471000D02*
X10326840Y-40761000D01*
X10366840Y-37564000D02*
X10366840Y-40668000D01*
X10406840Y-37663000D02*
X10406840Y-40569000D01*
X10446840Y-37770000D02*
X10446840Y-40462000D01*
X10486840Y-37887000D02*
X10486840Y-40345000D01*
X10526840Y-38018000D02*
X10526840Y-40214000D01*
X10566840Y-38168000D02*
X10566840Y-40064000D01*
X10606840Y-38348000D02*
X10606840Y-39884000D01*
X10646840Y-38583000D02*
X10646840Y-39649000D01*
X2156142Y-36801000D02*
X2956142Y-36801000D01*
X2556142Y-36401000D02*
X2556142Y-37201000D01*
X12480000Y-51066078D02*
X12480000Y-50548922D01*
X13900000Y-51066078D02*
X13900000Y-50548922D01*
X10970000Y-50880279D02*
X10970000Y-50554721D01*
X11990000Y-50880279D02*
X11990000Y-50554721D01*
X16605320Y-41776122D02*
X16605320Y-42293278D01*
X15185320Y-41776122D02*
X15185320Y-42293278D01*
X18330640Y-41676101D02*
X18330640Y-42001659D01*
X17310640Y-41676101D02*
X17310640Y-42001659D01*
D15*
X13168427Y-42069350D02*
X13168427Y-42474112D01*
X13192237Y-42521731D01*
X13216046Y-42545540D01*
X13263665Y-42569350D01*
X13358903Y-42569350D01*
X13406522Y-42545540D01*
X13430332Y-42521731D01*
X13454141Y-42474112D01*
X13454141Y-42069350D01*
X13954141Y-42569350D02*
X13668427Y-42569350D01*
X13811284Y-42569350D02*
X13811284Y-42069350D01*
X13763665Y-42140779D01*
X13716046Y-42188398D01*
X13668427Y-42212207D01*
X-23810Y-25140952D02*
X380952Y-25140952D01*
X428571Y-25117142D01*
X452380Y-25093333D01*
X476190Y-25045714D01*
X476190Y-24950476D01*
X452380Y-24902857D01*
X428571Y-24879047D01*
X380952Y-24855238D01*
X-23810Y-24855238D01*
X-23810Y-24664761D02*
X-23810Y-24355238D01*
X166666Y-24521904D01*
X166666Y-24450476D01*
X190476Y-24402857D01*
X214285Y-24379047D01*
X261904Y-24355238D01*
X380952Y-24355238D01*
X428571Y-24379047D01*
X452380Y-24402857D01*
X476190Y-24450476D01*
X476190Y-24593333D01*
X452380Y-24640952D01*
X428571Y-24664761D01*
X-9643810Y-6664761D02*
X-10143810Y-6664761D01*
X-9786667Y-6498095D01*
X-10143810Y-6331428D01*
X-9643810Y-6331428D01*
X-9667620Y-6117142D02*
X-9643810Y-6045714D01*
X-9643810Y-5926666D01*
X-9667620Y-5879047D01*
X-9691429Y-5855238D01*
X-9739048Y-5831428D01*
X-9786667Y-5831428D01*
X-9834286Y-5855238D01*
X-9858096Y-5879047D01*
X-9881905Y-5926666D01*
X-9905715Y-6021904D01*
X-9929524Y-6069523D01*
X-9953334Y-6093333D01*
X-10000953Y-6117142D01*
X-10048572Y-6117142D01*
X-10096191Y-6093333D01*
X-10120000Y-6069523D01*
X-10143810Y-6021904D01*
X-10143810Y-5902857D01*
X-10120000Y-5831428D01*
X-15755239Y-8196190D02*
X-15469524Y-8196190D01*
X-15612381Y-8696190D02*
X-15612381Y-8196190D01*
X-15350477Y-8696190D02*
X-15088572Y-8362857D01*
X-15350477Y-8362857D02*
X-15088572Y-8696190D01*
X-10049048Y-11146190D02*
X-10049048Y-10646190D01*
X-9858572Y-10646190D01*
X-9810953Y-10670000D01*
X-9787143Y-10693809D01*
X-9763334Y-10741428D01*
X-9763334Y-10812857D01*
X-9787143Y-10860476D01*
X-9810953Y-10884285D01*
X-9858572Y-10908095D01*
X-10049048Y-10908095D01*
X-9334762Y-10812857D02*
X-9334762Y-11146190D01*
X-9453810Y-10622380D02*
X-9572858Y-10979523D01*
X-9263334Y-10979523D01*
X-12076667Y-12603333D02*
X-12076667Y-12365238D01*
X-11933810Y-12650952D02*
X-12433810Y-12484285D01*
X-11933810Y-12317619D01*
X-11933810Y-12150952D02*
X-12433810Y-12150952D01*
X-12076667Y-11984285D01*
X-12433810Y-11817619D01*
X-11933810Y-11817619D01*
X-11933810Y-11579523D02*
X-12433810Y-11579523D01*
X-12433810Y-11389047D01*
X-12410000Y-11341428D01*
X-12386191Y-11317619D01*
X-12338572Y-11293809D01*
X-12267143Y-11293809D01*
X-12219524Y-11317619D01*
X-12195715Y-11341428D01*
X-12171905Y-11389047D01*
X-12171905Y-11579523D01*
X-11886191Y-11198571D02*
X-11886191Y-10817619D01*
X-12195715Y-10698571D02*
X-12195715Y-10531904D01*
X-11933810Y-10460476D02*
X-11933810Y-10698571D01*
X-12433810Y-10698571D01*
X-12433810Y-10460476D01*
X-11933810Y-10246190D02*
X-12433810Y-10246190D01*
X-11933810Y-9960476D01*
X-12433810Y-9960476D01*
X-14107620Y-10906190D02*
X-14274286Y-10668095D01*
X-14393334Y-10906190D02*
X-14393334Y-10406190D01*
X-14202858Y-10406190D01*
X-14155239Y-10430000D01*
X-14131429Y-10453809D01*
X-14107620Y-10501428D01*
X-14107620Y-10572857D01*
X-14131429Y-10620476D01*
X-14155239Y-10644285D01*
X-14202858Y-10668095D01*
X-14393334Y-10668095D01*
X-13940953Y-10906190D02*
X-13679048Y-10572857D01*
X-13940953Y-10572857D02*
X-13679048Y-10906190D01*
X-3783810Y-12667142D02*
X-4283810Y-12667142D01*
X-4283810Y-12476666D01*
X-4260000Y-12429047D01*
X-4236191Y-12405238D01*
X-4188572Y-12381428D01*
X-4117143Y-12381428D01*
X-4069524Y-12405238D01*
X-4045715Y-12429047D01*
X-4021905Y-12476666D01*
X-4021905Y-12667142D01*
X-3783810Y-11905238D02*
X-3783810Y-12190952D01*
X-3783810Y-12048095D02*
X-4283810Y-12048095D01*
X-4212381Y-12095714D01*
X-4164762Y-12143333D01*
X-4140953Y-12190952D01*
X-4283810Y-11452857D02*
X-4283810Y-11690952D01*
X-4045715Y-11714761D01*
X-4069524Y-11690952D01*
X-4093334Y-11643333D01*
X-4093334Y-11524285D01*
X-4069524Y-11476666D01*
X-4045715Y-11452857D01*
X-3998096Y-11429047D01*
X-3879048Y-11429047D01*
X-3831429Y-11452857D01*
X-3807620Y-11476666D01*
X-3783810Y-11524285D01*
X-3783810Y-11643333D01*
X-3807620Y-11690952D01*
X-3831429Y-11714761D01*
X-5093810Y-10717142D02*
X-5593810Y-10717142D01*
X-5593810Y-10526666D01*
X-5570000Y-10479047D01*
X-5546191Y-10455238D01*
X-5498572Y-10431428D01*
X-5427143Y-10431428D01*
X-5379524Y-10455238D01*
X-5355715Y-10479047D01*
X-5331905Y-10526666D01*
X-5331905Y-10717142D01*
X-5593810Y-10121904D02*
X-5593810Y-10074285D01*
X-5570000Y-10026666D01*
X-5546191Y-10002857D01*
X-5498572Y-9979047D01*
X-5403334Y-9955238D01*
X-5284286Y-9955238D01*
X-5189048Y-9979047D01*
X-5141429Y-10002857D01*
X-5117620Y-10026666D01*
X-5093810Y-10074285D01*
X-5093810Y-10121904D01*
X-5117620Y-10169523D01*
X-5141429Y-10193333D01*
X-5189048Y-10217142D01*
X-5284286Y-10240952D01*
X-5403334Y-10240952D01*
X-5498572Y-10217142D01*
X-5546191Y-10193333D01*
X-5570000Y-10169523D01*
X-5593810Y-10121904D01*
X-5546191Y-9764761D02*
X-5570000Y-9740952D01*
X-5593810Y-9693333D01*
X-5593810Y-9574285D01*
X-5570000Y-9526666D01*
X-5546191Y-9502857D01*
X-5498572Y-9479047D01*
X-5450953Y-9479047D01*
X-5379524Y-9502857D01*
X-5093810Y-9788571D01*
X-5093810Y-9479047D01*
X-4793063Y-39243070D02*
X-4793063Y-38743070D01*
X-4602587Y-38743070D01*
X-4554968Y-38766880D01*
X-4531159Y-38790689D01*
X-4507349Y-38838308D01*
X-4507349Y-38909737D01*
X-4531159Y-38957356D01*
X-4554968Y-38981165D01*
X-4602587Y-39004975D01*
X-4793063Y-39004975D01*
X-4031159Y-39243070D02*
X-4316873Y-39243070D01*
X-4174016Y-39243070D02*
X-4174016Y-38743070D01*
X-4221635Y-38814499D01*
X-4269254Y-38862118D01*
X-4316873Y-38885927D01*
X-3864492Y-38743070D02*
X-3554968Y-38743070D01*
X-3721635Y-38933546D01*
X-3650206Y-38933546D01*
X-3602587Y-38957356D01*
X-3578778Y-38981165D01*
X-3554968Y-39028784D01*
X-3554968Y-39147832D01*
X-3578778Y-39195451D01*
X-3602587Y-39219260D01*
X-3650206Y-39243070D01*
X-3793063Y-39243070D01*
X-3840682Y-39219260D01*
X-3864492Y-39195451D01*
X-6830143Y-37703830D02*
X-6830143Y-37203830D01*
X-6639667Y-37203830D01*
X-6592048Y-37227640D01*
X-6568239Y-37251449D01*
X-6544429Y-37299068D01*
X-6544429Y-37370497D01*
X-6568239Y-37418116D01*
X-6592048Y-37441925D01*
X-6639667Y-37465735D01*
X-6830143Y-37465735D01*
X-6068239Y-37703830D02*
X-6353953Y-37703830D01*
X-6211096Y-37703830D02*
X-6211096Y-37203830D01*
X-6258715Y-37275259D01*
X-6306334Y-37322878D01*
X-6353953Y-37346687D01*
X-5877762Y-37251449D02*
X-5853953Y-37227640D01*
X-5806334Y-37203830D01*
X-5687286Y-37203830D01*
X-5639667Y-37227640D01*
X-5615858Y-37251449D01*
X-5592048Y-37299068D01*
X-5592048Y-37346687D01*
X-5615858Y-37418116D01*
X-5901572Y-37703830D01*
X-5592048Y-37703830D01*
X-8797143Y-36896190D02*
X-8797143Y-36396190D01*
X-8606667Y-36396190D01*
X-8559048Y-36420000D01*
X-8535239Y-36443809D01*
X-8511429Y-36491428D01*
X-8511429Y-36562857D01*
X-8535239Y-36610476D01*
X-8559048Y-36634285D01*
X-8606667Y-36658095D01*
X-8797143Y-36658095D01*
X-8035239Y-36896190D02*
X-8320953Y-36896190D01*
X-8178096Y-36896190D02*
X-8178096Y-36396190D01*
X-8225715Y-36467619D01*
X-8273334Y-36515238D01*
X-8320953Y-36539047D01*
X-7606667Y-36562857D02*
X-7606667Y-36896190D01*
X-7725715Y-36372380D02*
X-7844762Y-36729523D01*
X-7535239Y-36729523D01*
X-12877143Y-34896190D02*
X-12877143Y-34396190D01*
X-12686667Y-34396190D01*
X-12639048Y-34420000D01*
X-12615239Y-34443809D01*
X-12591429Y-34491428D01*
X-12591429Y-34562857D01*
X-12615239Y-34610476D01*
X-12639048Y-34634285D01*
X-12686667Y-34658095D01*
X-12877143Y-34658095D01*
X-12115239Y-34896190D02*
X-12400953Y-34896190D01*
X-12258096Y-34896190D02*
X-12258096Y-34396190D01*
X-12305715Y-34467619D01*
X-12353334Y-34515238D01*
X-12400953Y-34539047D01*
X-11686667Y-34396190D02*
X-11781905Y-34396190D01*
X-11829524Y-34420000D01*
X-11853334Y-34443809D01*
X-11900953Y-34515238D01*
X-11924762Y-34610476D01*
X-11924762Y-34800952D01*
X-11900953Y-34848571D01*
X-11877143Y-34872380D01*
X-11829524Y-34896190D01*
X-11734286Y-34896190D01*
X-11686667Y-34872380D01*
X-11662858Y-34848571D01*
X-11639048Y-34800952D01*
X-11639048Y-34681904D01*
X-11662858Y-34634285D01*
X-11686667Y-34610476D01*
X-11734286Y-34586666D01*
X-11829524Y-34586666D01*
X-11877143Y-34610476D01*
X-11900953Y-34634285D01*
X-11924762Y-34681904D01*
X-18993810Y-36826190D02*
X-19160477Y-36588095D01*
X-19279524Y-36826190D02*
X-19279524Y-36326190D01*
X-19089048Y-36326190D01*
X-19041429Y-36350000D01*
X-19017620Y-36373809D01*
X-18993810Y-36421428D01*
X-18993810Y-36492857D01*
X-19017620Y-36540476D01*
X-19041429Y-36564285D01*
X-19089048Y-36588095D01*
X-19279524Y-36588095D01*
X-18803334Y-36802380D02*
X-18731905Y-36826190D01*
X-18612858Y-36826190D01*
X-18565239Y-36802380D01*
X-18541429Y-36778571D01*
X-18517620Y-36730952D01*
X-18517620Y-36683333D01*
X-18541429Y-36635714D01*
X-18565239Y-36611904D01*
X-18612858Y-36588095D01*
X-18708096Y-36564285D01*
X-18755715Y-36540476D01*
X-18779524Y-36516666D01*
X-18803334Y-36469047D01*
X-18803334Y-36421428D01*
X-18779524Y-36373809D01*
X-18755715Y-36350000D01*
X-18708096Y-36326190D01*
X-18589048Y-36326190D01*
X-18517620Y-36350000D01*
X-18374762Y-36326190D02*
X-18089048Y-36326190D01*
X-18231905Y-36826190D02*
X-18231905Y-36326190D01*
X6063430Y-16282278D02*
X6563430Y-16115611D01*
X6063430Y-15948944D01*
X6539620Y-15567992D02*
X6563430Y-15615611D01*
X6563430Y-15710849D01*
X6539620Y-15758468D01*
X6515811Y-15782278D01*
X6468192Y-15806087D01*
X6325335Y-15806087D01*
X6277716Y-15782278D01*
X6253906Y-15758468D01*
X6230097Y-15710849D01*
X6230097Y-15615611D01*
X6253906Y-15567992D01*
X6539620Y-15139420D02*
X6563430Y-15187040D01*
X6563430Y-15282278D01*
X6539620Y-15329897D01*
X6515811Y-15353706D01*
X6468192Y-15377516D01*
X6325335Y-15377516D01*
X6277716Y-15353706D01*
X6253906Y-15329897D01*
X6230097Y-15282278D01*
X6230097Y-15187040D01*
X6253906Y-15139420D01*
D16*
X14488571Y-19086190D02*
X14250476Y-19086190D01*
X14226666Y-19324285D01*
X14250476Y-19300476D01*
X14298095Y-19276666D01*
X14417142Y-19276666D01*
X14464761Y-19300476D01*
X14488571Y-19324285D01*
X14512380Y-19371904D01*
X14512380Y-19490952D01*
X14488571Y-19538571D01*
X14464761Y-19562380D01*
X14417142Y-19586190D01*
X14298095Y-19586190D01*
X14250476Y-19562380D01*
X14226666Y-19538571D01*
X14679047Y-19252857D02*
X14798095Y-19586190D01*
X14917142Y-19252857D01*
D15*
X17306190Y-52473333D02*
X17306190Y-52711428D01*
X16806190Y-52711428D01*
X16853809Y-52330476D02*
X16830000Y-52306666D01*
X16806190Y-52259047D01*
X16806190Y-52140000D01*
X16830000Y-52092380D01*
X16853809Y-52068571D01*
X16901428Y-52044761D01*
X16949047Y-52044761D01*
X17020476Y-52068571D01*
X17306190Y-52354285D01*
X17306190Y-52044761D01*
X2398571Y-34528571D02*
X2374761Y-34552380D01*
X2303333Y-34576190D01*
X2255714Y-34576190D01*
X2184285Y-34552380D01*
X2136666Y-34504761D01*
X2112857Y-34457142D01*
X2089047Y-34361904D01*
X2089047Y-34290476D01*
X2112857Y-34195238D01*
X2136666Y-34147619D01*
X2184285Y-34100000D01*
X2255714Y-34076190D01*
X2303333Y-34076190D01*
X2374761Y-34100000D01*
X2398571Y-34123809D01*
X2589047Y-34123809D02*
X2612857Y-34100000D01*
X2660476Y-34076190D01*
X2779523Y-34076190D01*
X2827142Y-34100000D01*
X2850952Y-34123809D01*
X2874761Y-34171428D01*
X2874761Y-34219047D01*
X2850952Y-34290476D01*
X2565238Y-34576190D01*
X2874761Y-34576190D01*
X3065238Y-34123809D02*
X3089047Y-34100000D01*
X3136666Y-34076190D01*
X3255714Y-34076190D01*
X3303333Y-34100000D01*
X3327142Y-34123809D01*
X3350952Y-34171428D01*
X3350952Y-34219047D01*
X3327142Y-34290476D01*
X3041428Y-34576190D01*
X3350952Y-34576190D01*
X2298571Y-25688571D02*
X2274761Y-25712380D01*
X2203333Y-25736190D01*
X2155714Y-25736190D01*
X2084285Y-25712380D01*
X2036666Y-25664761D01*
X2012857Y-25617142D01*
X1989047Y-25521904D01*
X1989047Y-25450476D01*
X2012857Y-25355238D01*
X2036666Y-25307619D01*
X2084285Y-25260000D01*
X2155714Y-25236190D01*
X2203333Y-25236190D01*
X2274761Y-25260000D01*
X2298571Y-25283809D01*
X2489047Y-25283809D02*
X2512857Y-25260000D01*
X2560476Y-25236190D01*
X2679523Y-25236190D01*
X2727142Y-25260000D01*
X2750952Y-25283809D01*
X2774761Y-25331428D01*
X2774761Y-25379047D01*
X2750952Y-25450476D01*
X2465238Y-25736190D01*
X2774761Y-25736190D01*
X3203333Y-25402857D02*
X3203333Y-25736190D01*
X3084285Y-25212380D02*
X2965238Y-25569523D01*
X3274761Y-25569523D01*
X-15135730Y-14982308D02*
X-15373825Y-15148975D01*
X-15135730Y-15268022D02*
X-15635730Y-15268022D01*
X-15635730Y-15077546D01*
X-15611920Y-15029927D01*
X-15588111Y-15006118D01*
X-15540492Y-14982308D01*
X-15469063Y-14982308D01*
X-15421444Y-15006118D01*
X-15397635Y-15029927D01*
X-15373825Y-15077546D01*
X-15373825Y-15268022D01*
X-15135730Y-14506118D02*
X-15135730Y-14791832D01*
X-15135730Y-14648975D02*
X-15635730Y-14648975D01*
X-15564301Y-14696594D01*
X-15516682Y-14744213D01*
X-15492873Y-14791832D01*
X-15635730Y-14196594D02*
X-15635730Y-14148975D01*
X-15611920Y-14101356D01*
X-15588111Y-14077546D01*
X-15540492Y-14053737D01*
X-15445254Y-14029927D01*
X-15326206Y-14029927D01*
X-15230968Y-14053737D01*
X-15183349Y-14077546D01*
X-15159540Y-14101356D01*
X-15135730Y-14148975D01*
X-15135730Y-14196594D01*
X-15159540Y-14244213D01*
X-15183349Y-14268022D01*
X-15230968Y-14291832D01*
X-15326206Y-14315641D01*
X-15445254Y-14315641D01*
X-15540492Y-14291832D01*
X-15588111Y-14268022D01*
X-15611920Y-14244213D01*
X-15635730Y-14196594D01*
X-13139290Y-14952493D02*
X-13377385Y-15119160D01*
X-13139290Y-15238207D02*
X-13639290Y-15238207D01*
X-13639290Y-15047731D01*
X-13615480Y-15000112D01*
X-13591671Y-14976302D01*
X-13544052Y-14952493D01*
X-13472623Y-14952493D01*
X-13425004Y-14976302D01*
X-13401195Y-15000112D01*
X-13377385Y-15047731D01*
X-13377385Y-15238207D01*
X-13139290Y-14714398D02*
X-13139290Y-14619160D01*
X-13163100Y-14571540D01*
X-13186909Y-14547731D01*
X-13258338Y-14500112D01*
X-13353576Y-14476302D01*
X-13544052Y-14476302D01*
X-13591671Y-14500112D01*
X-13615480Y-14523921D01*
X-13639290Y-14571540D01*
X-13639290Y-14666779D01*
X-13615480Y-14714398D01*
X-13591671Y-14738207D01*
X-13544052Y-14762017D01*
X-13425004Y-14762017D01*
X-13377385Y-14738207D01*
X-13353576Y-14714398D01*
X-13329766Y-14666779D01*
X-13329766Y-14571540D01*
X-13353576Y-14523921D01*
X-13377385Y-14500112D01*
X-13425004Y-14476302D01*
X-10899010Y-37258773D02*
X-11137105Y-37425440D01*
X-10899010Y-37544487D02*
X-11399010Y-37544487D01*
X-11399010Y-37354011D01*
X-11375200Y-37306392D01*
X-11351391Y-37282582D01*
X-11303772Y-37258773D01*
X-11232343Y-37258773D01*
X-11184724Y-37282582D01*
X-11160915Y-37306392D01*
X-11137105Y-37354011D01*
X-11137105Y-37544487D01*
X-11399010Y-36830201D02*
X-11399010Y-36925440D01*
X-11375200Y-36973059D01*
X-11351391Y-36996868D01*
X-11279962Y-37044487D01*
X-11184724Y-37068297D01*
X-10994248Y-37068297D01*
X-10946629Y-37044487D01*
X-10922820Y-37020678D01*
X-10899010Y-36973059D01*
X-10899010Y-36877820D01*
X-10922820Y-36830201D01*
X-10946629Y-36806392D01*
X-10994248Y-36782582D01*
X-11113296Y-36782582D01*
X-11160915Y-36806392D01*
X-11184724Y-36830201D01*
X-11208534Y-36877820D01*
X-11208534Y-36973059D01*
X-11184724Y-37020678D01*
X-11160915Y-37044487D01*
X-11113296Y-37068297D01*
X-8061429Y-11856190D02*
X-8228096Y-11618095D01*
X-8347143Y-11856190D02*
X-8347143Y-11356190D01*
X-8156667Y-11356190D01*
X-8109048Y-11380000D01*
X-8085239Y-11403809D01*
X-8061429Y-11451428D01*
X-8061429Y-11522857D01*
X-8085239Y-11570476D01*
X-8109048Y-11594285D01*
X-8156667Y-11618095D01*
X-8347143Y-11618095D01*
X-7585239Y-11856190D02*
X-7870953Y-11856190D01*
X-7728096Y-11856190D02*
X-7728096Y-11356190D01*
X-7775715Y-11427619D01*
X-7823334Y-11475238D01*
X-7870953Y-11499047D01*
X-7109048Y-11856190D02*
X-7394762Y-11856190D01*
X-7251905Y-11856190D02*
X-7251905Y-11356190D01*
X-7299524Y-11427619D01*
X-7347143Y-11475238D01*
X-7394762Y-11499047D01*
X-15887570Y-38630373D02*
X-16125665Y-38797040D01*
X-15887570Y-38916087D02*
X-16387570Y-38916087D01*
X-16387570Y-38725611D01*
X-16363760Y-38677992D01*
X-16339951Y-38654182D01*
X-16292332Y-38630373D01*
X-16220903Y-38630373D01*
X-16173284Y-38654182D01*
X-16149475Y-38677992D01*
X-16125665Y-38725611D01*
X-16125665Y-38916087D01*
X-16387570Y-38177992D02*
X-16387570Y-38416087D01*
X-16149475Y-38439897D01*
X-16173284Y-38416087D01*
X-16197094Y-38368468D01*
X-16197094Y-38249420D01*
X-16173284Y-38201801D01*
X-16149475Y-38177992D01*
X-16101856Y-38154182D01*
X-15982808Y-38154182D01*
X-15935189Y-38177992D01*
X-15911380Y-38201801D01*
X-15887570Y-38249420D01*
X-15887570Y-38368468D01*
X-15911380Y-38416087D01*
X-15935189Y-38439897D01*
X-12829410Y-37883613D02*
X-13067505Y-38050280D01*
X-12829410Y-38169327D02*
X-13329410Y-38169327D01*
X-13329410Y-37978851D01*
X-13305600Y-37931232D01*
X-13281791Y-37907422D01*
X-13234172Y-37883613D01*
X-13162743Y-37883613D01*
X-13115124Y-37907422D01*
X-13091315Y-37931232D01*
X-13067505Y-37978851D01*
X-13067505Y-38169327D01*
X-13162743Y-37455041D02*
X-12829410Y-37455041D01*
X-13353220Y-37574089D02*
X-12996077Y-37693137D01*
X-12996077Y-37383613D01*
X-7379809Y-13958071D02*
X-7403619Y-13981880D01*
X-7475047Y-14005690D01*
X-7522666Y-14005690D01*
X-7594095Y-13981880D01*
X-7641714Y-13934261D01*
X-7665523Y-13886642D01*
X-7689333Y-13791404D01*
X-7689333Y-13719976D01*
X-7665523Y-13624738D01*
X-7641714Y-13577119D01*
X-7594095Y-13529500D01*
X-7522666Y-13505690D01*
X-7475047Y-13505690D01*
X-7403619Y-13529500D01*
X-7379809Y-13553309D01*
X-7189333Y-13553309D02*
X-7165523Y-13529500D01*
X-7117904Y-13505690D01*
X-6998857Y-13505690D01*
X-6951238Y-13529500D01*
X-6927428Y-13553309D01*
X-6903619Y-13600928D01*
X-6903619Y-13648547D01*
X-6927428Y-13719976D01*
X-7213142Y-14005690D01*
X-6903619Y-14005690D01*
X-6665523Y-14005690D02*
X-6570285Y-14005690D01*
X-6522666Y-13981880D01*
X-6498857Y-13958071D01*
X-6451238Y-13886642D01*
X-6427428Y-13791404D01*
X-6427428Y-13600928D01*
X-6451238Y-13553309D01*
X-6475047Y-13529500D01*
X-6522666Y-13505690D01*
X-6617904Y-13505690D01*
X-6665523Y-13529500D01*
X-6689333Y-13553309D01*
X-6713142Y-13600928D01*
X-6713142Y-13719976D01*
X-6689333Y-13767595D01*
X-6665523Y-13791404D01*
X-6617904Y-13815214D01*
X-6522666Y-13815214D01*
X-6475047Y-13791404D01*
X-6451238Y-13767595D01*
X-6427428Y-13719976D01*
X-3420894Y-36124651D02*
X-3444703Y-36148460D01*
X-3516132Y-36172270D01*
X-3563751Y-36172270D01*
X-3635180Y-36148460D01*
X-3682799Y-36100841D01*
X-3706608Y-36053222D01*
X-3730418Y-35957984D01*
X-3730418Y-35886556D01*
X-3706608Y-35791318D01*
X-3682799Y-35743699D01*
X-3635180Y-35696080D01*
X-3563751Y-35672270D01*
X-3516132Y-35672270D01*
X-3444703Y-35696080D01*
X-3420894Y-35719889D01*
X-3182799Y-36172270D02*
X-3087560Y-36172270D01*
X-3039941Y-36148460D01*
X-3016132Y-36124651D01*
X-2968513Y-36053222D01*
X-2944703Y-35957984D01*
X-2944703Y-35767508D01*
X-2968513Y-35719889D01*
X-2992322Y-35696080D01*
X-3039941Y-35672270D01*
X-3135180Y-35672270D01*
X-3182799Y-35696080D01*
X-3206608Y-35719889D01*
X-3230418Y-35767508D01*
X-3230418Y-35886556D01*
X-3206608Y-35934175D01*
X-3182799Y-35957984D01*
X-3135180Y-35981794D01*
X-3039941Y-35981794D01*
X-2992322Y-35957984D01*
X-2968513Y-35934175D01*
X-2944703Y-35886556D01*
X-3892669Y-35103571D02*
X-3916479Y-35127380D01*
X-3987907Y-35151190D01*
X-4035526Y-35151190D01*
X-4106955Y-35127380D01*
X-4154574Y-35079761D01*
X-4178383Y-35032142D01*
X-4202193Y-34936904D01*
X-4202193Y-34865476D01*
X-4178383Y-34770238D01*
X-4154574Y-34722619D01*
X-4106955Y-34675000D01*
X-4035526Y-34651190D01*
X-3987907Y-34651190D01*
X-3916479Y-34675000D01*
X-3892669Y-34698809D01*
X-3416479Y-35151190D02*
X-3702193Y-35151190D01*
X-3559336Y-35151190D02*
X-3559336Y-34651190D01*
X-3606955Y-34722619D01*
X-3654574Y-34770238D01*
X-3702193Y-34794047D01*
X-2987907Y-34817857D02*
X-2987907Y-35151190D01*
X-3106955Y-34627380D02*
X-3226002Y-34984523D01*
X-2916479Y-34984523D01*
X-16705094Y-34829251D02*
X-16728903Y-34853060D01*
X-16800332Y-34876870D01*
X-16847951Y-34876870D01*
X-16919380Y-34853060D01*
X-16966999Y-34805441D01*
X-16990808Y-34757822D01*
X-17014618Y-34662584D01*
X-17014618Y-34591156D01*
X-16990808Y-34495918D01*
X-16966999Y-34448299D01*
X-16919380Y-34400680D01*
X-16847951Y-34376870D01*
X-16800332Y-34376870D01*
X-16728903Y-34400680D01*
X-16705094Y-34424489D01*
X-16419380Y-34591156D02*
X-16466999Y-34567346D01*
X-16490808Y-34543537D01*
X-16514618Y-34495918D01*
X-16514618Y-34472108D01*
X-16490808Y-34424489D01*
X-16466999Y-34400680D01*
X-16419380Y-34376870D01*
X-16324141Y-34376870D01*
X-16276522Y-34400680D01*
X-16252713Y-34424489D01*
X-16228903Y-34472108D01*
X-16228903Y-34495918D01*
X-16252713Y-34543537D01*
X-16276522Y-34567346D01*
X-16324141Y-34591156D01*
X-16419380Y-34591156D01*
X-16466999Y-34614965D01*
X-16490808Y-34638775D01*
X-16514618Y-34686394D01*
X-16514618Y-34781632D01*
X-16490808Y-34829251D01*
X-16466999Y-34853060D01*
X-16419380Y-34876870D01*
X-16324141Y-34876870D01*
X-16276522Y-34853060D01*
X-16252713Y-34829251D01*
X-16228903Y-34781632D01*
X-16228903Y-34686394D01*
X-16252713Y-34638775D01*
X-16276522Y-34614965D01*
X-16324141Y-34591156D01*
X-14297174Y-35931611D02*
X-14320983Y-35955420D01*
X-14392412Y-35979230D01*
X-14440031Y-35979230D01*
X-14511460Y-35955420D01*
X-14559079Y-35907801D01*
X-14582888Y-35860182D01*
X-14606698Y-35764944D01*
X-14606698Y-35693516D01*
X-14582888Y-35598278D01*
X-14559079Y-35550659D01*
X-14511460Y-35503040D01*
X-14440031Y-35479230D01*
X-14392412Y-35479230D01*
X-14320983Y-35503040D01*
X-14297174Y-35526849D01*
X-13868602Y-35479230D02*
X-13963840Y-35479230D01*
X-14011460Y-35503040D01*
X-14035269Y-35526849D01*
X-14082888Y-35598278D01*
X-14106698Y-35693516D01*
X-14106698Y-35883992D01*
X-14082888Y-35931611D01*
X-14059079Y-35955420D01*
X-14011460Y-35979230D01*
X-13916221Y-35979230D01*
X-13868602Y-35955420D01*
X-13844793Y-35931611D01*
X-13820983Y-35883992D01*
X-13820983Y-35764944D01*
X-13844793Y-35717325D01*
X-13868602Y-35693516D01*
X-13916221Y-35669706D01*
X-14011460Y-35669706D01*
X-14059079Y-35693516D01*
X-14082888Y-35717325D01*
X-14106698Y-35764944D01*
D17*
X11121040Y-17823052D02*
X11097230Y-17870671D01*
X11097230Y-17942100D01*
X11121040Y-18013528D01*
X11168659Y-18061147D01*
X11216278Y-18084957D01*
X11311516Y-18108766D01*
X11382944Y-18108766D01*
X11478182Y-18084957D01*
X11525801Y-18061147D01*
X11573420Y-18013528D01*
X11597230Y-17942100D01*
X11597230Y-17894480D01*
X11573420Y-17823052D01*
X11549611Y-17799242D01*
X11382944Y-17799242D01*
X11382944Y-17894480D01*
X11597230Y-17584957D02*
X11097230Y-17584957D01*
X11597230Y-17299242D01*
X11097230Y-17299242D01*
X11597230Y-17061147D02*
X11097230Y-17061147D01*
X11097230Y-16942100D01*
X11121040Y-16870671D01*
X11168659Y-16823052D01*
X11216278Y-16799242D01*
X11311516Y-16775433D01*
X11382944Y-16775433D01*
X11478182Y-16799242D01*
X11525801Y-16823052D01*
X11573420Y-16870671D01*
X11597230Y-16942100D01*
X11597230Y-17061147D01*
D15*
X17945586Y-21768571D02*
X17921777Y-21792380D01*
X17850348Y-21816190D01*
X17802729Y-21816190D01*
X17731300Y-21792380D01*
X17683681Y-21744761D01*
X17659872Y-21697142D01*
X17636062Y-21601904D01*
X17636062Y-21530476D01*
X17659872Y-21435238D01*
X17683681Y-21387619D01*
X17731300Y-21340000D01*
X17802729Y-21316190D01*
X17850348Y-21316190D01*
X17921777Y-21340000D01*
X17945586Y-21363809D01*
X18421777Y-21816190D02*
X18136062Y-21816190D01*
X18278920Y-21816190D02*
X18278920Y-21316190D01*
X18231300Y-21387619D01*
X18183681Y-21435238D01*
X18136062Y-21459047D01*
X17950666Y-30145491D02*
X17926857Y-30169300D01*
X17855428Y-30193110D01*
X17807809Y-30193110D01*
X17736380Y-30169300D01*
X17688761Y-30121681D01*
X17664952Y-30074062D01*
X17641142Y-29978824D01*
X17641142Y-29907396D01*
X17664952Y-29812158D01*
X17688761Y-29764539D01*
X17736380Y-29716920D01*
X17807809Y-29693110D01*
X17855428Y-29693110D01*
X17926857Y-29716920D01*
X17950666Y-29740729D01*
X18141142Y-29740729D02*
X18164952Y-29716920D01*
X18212571Y-29693110D01*
X18331619Y-29693110D01*
X18379238Y-29716920D01*
X18403047Y-29740729D01*
X18426857Y-29788348D01*
X18426857Y-29835967D01*
X18403047Y-29907396D01*
X18117333Y-30193110D01*
X18426857Y-30193110D01*
X12259850Y-39075913D02*
X12021755Y-39242580D01*
X12259850Y-39361627D02*
X11759850Y-39361627D01*
X11759850Y-39171151D01*
X11783660Y-39123532D01*
X11807469Y-39099722D01*
X11855088Y-39075913D01*
X11926517Y-39075913D01*
X11974136Y-39099722D01*
X11997945Y-39123532D01*
X12021755Y-39171151D01*
X12021755Y-39361627D01*
X11974136Y-38790199D02*
X11950326Y-38837818D01*
X11926517Y-38861627D01*
X11878898Y-38885437D01*
X11855088Y-38885437D01*
X11807469Y-38861627D01*
X11783660Y-38837818D01*
X11759850Y-38790199D01*
X11759850Y-38694960D01*
X11783660Y-38647341D01*
X11807469Y-38623532D01*
X11855088Y-38599722D01*
X11878898Y-38599722D01*
X11926517Y-38623532D01*
X11950326Y-38647341D01*
X11974136Y-38694960D01*
X11974136Y-38790199D01*
X11997945Y-38837818D01*
X12021755Y-38861627D01*
X12069374Y-38885437D01*
X12164612Y-38885437D01*
X12212231Y-38861627D01*
X12236040Y-38837818D01*
X12259850Y-38790199D01*
X12259850Y-38694960D01*
X12236040Y-38647341D01*
X12212231Y-38623532D01*
X12164612Y-38599722D01*
X12069374Y-38599722D01*
X12021755Y-38623532D01*
X11997945Y-38647341D01*
X11974136Y-38694960D01*
X7779406Y-44914290D02*
X7612740Y-44676195D01*
X7493692Y-44914290D02*
X7493692Y-44414290D01*
X7684168Y-44414290D01*
X7731787Y-44438100D01*
X7755597Y-44461909D01*
X7779406Y-44509528D01*
X7779406Y-44580957D01*
X7755597Y-44628576D01*
X7731787Y-44652385D01*
X7684168Y-44676195D01*
X7493692Y-44676195D01*
X7946073Y-44414290D02*
X8279406Y-44414290D01*
X8065120Y-44914290D01*
X10418326Y-48071110D02*
X10251660Y-47833015D01*
X10132612Y-48071110D02*
X10132612Y-47571110D01*
X10323088Y-47571110D01*
X10370707Y-47594920D01*
X10394517Y-47618729D01*
X10418326Y-47666348D01*
X10418326Y-47737777D01*
X10394517Y-47785396D01*
X10370707Y-47809205D01*
X10323088Y-47833015D01*
X10132612Y-47833015D01*
X10894517Y-48071110D02*
X10608802Y-48071110D01*
X10751660Y-48071110D02*
X10751660Y-47571110D01*
X10704040Y-47642539D01*
X10656421Y-47690158D01*
X10608802Y-47713967D01*
X2898571Y-43128571D02*
X2874761Y-43152380D01*
X2803333Y-43176190D01*
X2755714Y-43176190D01*
X2684285Y-43152380D01*
X2636666Y-43104761D01*
X2612857Y-43057142D01*
X2589047Y-42961904D01*
X2589047Y-42890476D01*
X2612857Y-42795238D01*
X2636666Y-42747619D01*
X2684285Y-42700000D01*
X2755714Y-42676190D01*
X2803333Y-42676190D01*
X2874761Y-42700000D01*
X2898571Y-42723809D01*
X3089047Y-42723809D02*
X3112857Y-42700000D01*
X3160476Y-42676190D01*
X3279523Y-42676190D01*
X3327142Y-42700000D01*
X3350952Y-42723809D01*
X3374761Y-42771428D01*
X3374761Y-42819047D01*
X3350952Y-42890476D01*
X3065238Y-43176190D01*
X3374761Y-43176190D01*
X3850952Y-43176190D02*
X3565238Y-43176190D01*
X3708095Y-43176190D02*
X3708095Y-42676190D01*
X3660476Y-42747619D01*
X3612857Y-42795238D01*
X3565238Y-42819047D01*
X13393971Y-53826168D02*
X13417780Y-53849978D01*
X13441590Y-53921406D01*
X13441590Y-53969025D01*
X13417780Y-54040454D01*
X13370161Y-54088073D01*
X13322542Y-54111882D01*
X13227304Y-54135692D01*
X13155876Y-54135692D01*
X13060638Y-54111882D01*
X13013019Y-54088073D01*
X12965400Y-54040454D01*
X12941590Y-53969025D01*
X12941590Y-53921406D01*
X12965400Y-53849978D01*
X12989209Y-53826168D01*
X12989209Y-53635692D02*
X12965400Y-53611882D01*
X12941590Y-53564263D01*
X12941590Y-53445216D01*
X12965400Y-53397597D01*
X12989209Y-53373787D01*
X13036828Y-53349978D01*
X13084447Y-53349978D01*
X13155876Y-53373787D01*
X13441590Y-53659501D01*
X13441590Y-53349978D01*
X12941590Y-53040454D02*
X12941590Y-52992835D01*
X12965400Y-52945216D01*
X12989209Y-52921406D01*
X13036828Y-52897597D01*
X13132066Y-52873787D01*
X13251114Y-52873787D01*
X13346352Y-52897597D01*
X13393971Y-52921406D01*
X13417780Y-52945216D01*
X13441590Y-52992835D01*
X13441590Y-53040454D01*
X13417780Y-53088073D01*
X13393971Y-53111882D01*
X13346352Y-53135692D01*
X13251114Y-53159501D01*
X13132066Y-53159501D01*
X13036828Y-53135692D01*
X12989209Y-53111882D01*
X12965400Y-53088073D01*
X12941590Y-53040454D01*
X11544271Y-53957488D02*
X11568080Y-53981298D01*
X11591890Y-54052726D01*
X11591890Y-54100345D01*
X11568080Y-54171774D01*
X11520461Y-54219393D01*
X11472842Y-54243202D01*
X11377604Y-54267012D01*
X11306176Y-54267012D01*
X11210938Y-54243202D01*
X11163319Y-54219393D01*
X11115700Y-54171774D01*
X11091890Y-54100345D01*
X11091890Y-54052726D01*
X11115700Y-53981298D01*
X11139509Y-53957488D01*
X11591890Y-53481298D02*
X11591890Y-53767012D01*
X11591890Y-53624155D02*
X11091890Y-53624155D01*
X11163319Y-53671774D01*
X11210938Y-53719393D01*
X11234747Y-53767012D01*
X11591890Y-53243202D02*
X11591890Y-53147964D01*
X11568080Y-53100345D01*
X11544271Y-53076536D01*
X11472842Y-53028917D01*
X11377604Y-53005107D01*
X11187128Y-53005107D01*
X11139509Y-53028917D01*
X11115700Y-53052726D01*
X11091890Y-53100345D01*
X11091890Y-53195583D01*
X11115700Y-53243202D01*
X11139509Y-53267012D01*
X11187128Y-53290821D01*
X11306176Y-53290821D01*
X11353795Y-53267012D01*
X11377604Y-53243202D01*
X11401414Y-53195583D01*
X11401414Y-53100345D01*
X11377604Y-53052726D01*
X11353795Y-53028917D01*
X11306176Y-53005107D01*
X7297331Y-45912851D02*
X7273521Y-45936660D01*
X7202093Y-45960470D01*
X7154474Y-45960470D01*
X7083045Y-45936660D01*
X7035426Y-45889041D01*
X7011617Y-45841422D01*
X6987807Y-45746184D01*
X6987807Y-45674756D01*
X7011617Y-45579518D01*
X7035426Y-45531899D01*
X7083045Y-45484280D01*
X7154474Y-45460470D01*
X7202093Y-45460470D01*
X7273521Y-45484280D01*
X7297331Y-45508089D01*
X7773521Y-45960470D02*
X7487807Y-45960470D01*
X7630664Y-45960470D02*
X7630664Y-45460470D01*
X7583045Y-45531899D01*
X7535426Y-45579518D01*
X7487807Y-45603327D01*
X8202093Y-45460470D02*
X8106855Y-45460470D01*
X8059236Y-45484280D01*
X8035426Y-45508089D01*
X7987807Y-45579518D01*
X7963998Y-45674756D01*
X7963998Y-45865232D01*
X7987807Y-45912851D01*
X8011617Y-45936660D01*
X8059236Y-45960470D01*
X8154474Y-45960470D01*
X8202093Y-45936660D01*
X8225902Y-45912851D01*
X8249712Y-45865232D01*
X8249712Y-45746184D01*
X8225902Y-45698565D01*
X8202093Y-45674756D01*
X8154474Y-45650946D01*
X8059236Y-45650946D01*
X8011617Y-45674756D01*
X7987807Y-45698565D01*
X7963998Y-45746184D01*
X16048491Y-39620973D02*
X16072300Y-39644782D01*
X16096110Y-39716211D01*
X16096110Y-39763830D01*
X16072300Y-39835259D01*
X16024681Y-39882878D01*
X15977062Y-39906687D01*
X15881824Y-39930497D01*
X15810396Y-39930497D01*
X15715158Y-39906687D01*
X15667539Y-39882878D01*
X15619920Y-39835259D01*
X15596110Y-39763830D01*
X15596110Y-39716211D01*
X15619920Y-39644782D01*
X15643729Y-39620973D01*
X15762777Y-39192401D02*
X16096110Y-39192401D01*
X15572300Y-39311449D02*
X15929443Y-39430497D01*
X15929443Y-39120973D01*
X17999211Y-39763213D02*
X18023020Y-39787022D01*
X18046830Y-39858451D01*
X18046830Y-39906070D01*
X18023020Y-39977499D01*
X17975401Y-40025118D01*
X17927782Y-40048927D01*
X17832544Y-40072737D01*
X17761116Y-40072737D01*
X17665878Y-40048927D01*
X17618259Y-40025118D01*
X17570640Y-39977499D01*
X17546830Y-39906070D01*
X17546830Y-39858451D01*
X17570640Y-39787022D01*
X17594449Y-39763213D01*
X17546830Y-39596546D02*
X17546830Y-39287022D01*
X17737306Y-39453689D01*
X17737306Y-39382260D01*
X17761116Y-39334641D01*
X17784925Y-39310832D01*
X17832544Y-39287022D01*
X17951592Y-39287022D01*
X17999211Y-39310832D01*
X18023020Y-39334641D01*
X18046830Y-39382260D01*
X18046830Y-39525118D01*
X18023020Y-39572737D01*
X17999211Y-39596546D01*
X-6281290Y-3836788D02*
X-6519385Y-4003455D01*
X-6281290Y-4122502D02*
X-6781290Y-4122502D01*
X-6781290Y-3932026D01*
X-6757480Y-3884407D01*
X-6733671Y-3860598D01*
X-6686052Y-3836788D01*
X-6614623Y-3836788D01*
X-6567004Y-3860598D01*
X-6543195Y-3884407D01*
X-6519385Y-3932026D01*
X-6519385Y-4122502D01*
X-6281290Y-3360598D02*
X-6281290Y-3646312D01*
X-6281290Y-3503455D02*
X-6781290Y-3503455D01*
X-6709861Y-3551074D01*
X-6662242Y-3598693D01*
X-6638433Y-3646312D01*
X-6781290Y-3193931D02*
X-6781290Y-2884407D01*
X-6590814Y-3051074D01*
X-6590814Y-2979645D01*
X-6567004Y-2932026D01*
X-6543195Y-2908217D01*
X-6495576Y-2884407D01*
X-6376528Y-2884407D01*
X-6328909Y-2908217D01*
X-6305100Y-2932026D01*
X-6281290Y-2979645D01*
X-6281290Y-3122502D01*
X-6305100Y-3170121D01*
X-6328909Y-3193931D01*
X-5051930Y-3803908D02*
X-5290025Y-3970575D01*
X-5051930Y-4089622D02*
X-5551930Y-4089622D01*
X-5551930Y-3899146D01*
X-5528120Y-3851527D01*
X-5504311Y-3827718D01*
X-5456692Y-3803908D01*
X-5385263Y-3803908D01*
X-5337644Y-3827718D01*
X-5313835Y-3851527D01*
X-5290025Y-3899146D01*
X-5290025Y-4089622D01*
X-5051930Y-3327718D02*
X-5051930Y-3613432D01*
X-5051930Y-3470575D02*
X-5551930Y-3470575D01*
X-5480501Y-3518194D01*
X-5432882Y-3565813D01*
X-5409073Y-3613432D01*
X-5504311Y-3137241D02*
X-5528120Y-3113432D01*
X-5551930Y-3065813D01*
X-5551930Y-2946765D01*
X-5528120Y-2899146D01*
X-5504311Y-2875337D01*
X-5456692Y-2851527D01*
X-5409073Y-2851527D01*
X-5337644Y-2875337D01*
X-5051930Y-3161051D01*
X-5051930Y-2851527D01*
M02*
