G04 #@! TF.GenerationSoftware,KiCad,Pcbnew,(5.1.10)-1*
G04 #@! TF.CreationDate,2022-01-20T11:02:22+05:30*
G04 #@! TF.ProjectId,P-1000072_Cicada Wi-Fi,502d3130-3030-4303-9732-5f4369636164,0.1*
G04 #@! TF.SameCoordinates,PX7cee6c0PY3dfd240*
G04 #@! TF.FileFunction,Other,Fab,Top*
%FSLAX46Y46*%
G04 Gerber Fmt 4.6, Leading zero omitted, Abs format (unit mm)*
G04 Created by KiCad (PCBNEW (5.1.10)-1) date 2022-01-20 11:02:22*
%MOMM*%
%LPD*%
G01*
G04 APERTURE LIST*
%ADD10C,0.150000*%
%ADD11C,0.100000*%
%ADD12C,0.062500*%
G04 APERTURE END LIST*
D10*
X-15550000Y-57000000D02*
G75*
G03*
X-15550000Y-57000000I-1440694J0D01*
G01*
X18470001Y-57010000D02*
G75*
G03*
X18470001Y-57010000I-1458904J0D01*
G01*
X-7381864Y-6250000D02*
G75*
G03*
X-7381864Y-6250000I-938136J0D01*
G01*
X-14550851Y-9890000D02*
G75*
G03*
X-14550851Y-9890000I-939149J0D01*
G01*
X-13224671Y-12075000D02*
G75*
G03*
X-13224671Y-12075000I-950329J0D01*
G01*
X-11268117Y-13875000D02*
G75*
G03*
X-11268117Y-13875000I-956883J0D01*
G01*
X-8734987Y-12225000D02*
G75*
G03*
X-8734987Y-12225000I-965013J0D01*
G01*
X-4554947Y-12050000D02*
G75*
G03*
X-4554947Y-12050000I-945053J0D01*
G01*
X-3279947Y-13900000D02*
G75*
G03*
X-3279947Y-13900000I-945053J0D01*
G01*
X5538416Y-15675000D02*
G75*
G03*
X5538416Y-15675000I-938416J0D01*
G01*
X12255390Y-19275000D02*
G75*
G03*
X12255390Y-19275000I-930390J0D01*
G01*
X17230054Y-19825000D02*
G75*
G03*
X17230054Y-19825000I-930054J0D01*
G01*
X-3244610Y-37250000D02*
G75*
G03*
X-3244610Y-37250000I-930390J0D01*
G01*
X-5296964Y-35725000D02*
G75*
G03*
X-5296964Y-35725000I-928036J0D01*
G01*
X-7234987Y-35175000D02*
G75*
G03*
X-7234987Y-35175000I-965013J0D01*
G01*
X-9307596Y-35100000D02*
G75*
G03*
X-9307596Y-35100000I-942404J0D01*
G01*
X-17844610Y-35100000D02*
G75*
G03*
X-17844610Y-35100000I-930390J0D01*
G01*
X-8724671Y-39150000D02*
G75*
G03*
X-8724671Y-39150000I-950329J0D01*
G01*
D11*
X-720000Y-16710000D02*
X-720000Y-32710000D01*
X-720000Y-32710000D02*
X-17720000Y-32710000D01*
X-17720000Y-16710000D02*
X-720000Y-16710000D01*
X-17720000Y-32710000D02*
X-17720000Y-16710000D01*
X3503641Y-28309640D02*
X3503641Y-29109640D01*
X3103641Y-28709640D02*
X3903641Y-28709640D01*
X10530400Y-30457140D02*
G75*
G03*
X10530400Y-30457140I-4000000J0D01*
G01*
X3463001Y-19650780D02*
X3463001Y-20450780D01*
X3063001Y-20050780D02*
X3863001Y-20050780D01*
X10489760Y-21798280D02*
G75*
G03*
X10489760Y-21798280I-4000000J0D01*
G01*
X-16490760Y-13891500D02*
X-15990760Y-13891500D01*
X-15990760Y-13891500D02*
X-15990760Y-14891500D01*
X-15990760Y-14891500D02*
X-16490760Y-14891500D01*
X-16490760Y-14891500D02*
X-16490760Y-13891500D01*
X-14501940Y-13856220D02*
X-14001940Y-13856220D01*
X-14001940Y-13856220D02*
X-14001940Y-14856220D01*
X-14001940Y-14856220D02*
X-14501940Y-14856220D01*
X-14501940Y-14856220D02*
X-14501940Y-13856220D01*
X-10468420Y-36632120D02*
X-9968420Y-36632120D01*
X-9968420Y-36632120D02*
X-9968420Y-37632120D01*
X-9968420Y-37632120D02*
X-10468420Y-37632120D01*
X-10468420Y-37632120D02*
X-10468420Y-36632120D01*
X-8254480Y-12297600D02*
X-7254480Y-12297600D01*
X-8254480Y-12797600D02*
X-8254480Y-12297600D01*
X-7254480Y-12797600D02*
X-8254480Y-12797600D01*
X-7254480Y-12297600D02*
X-7254480Y-12797600D01*
X-15871380Y-36589220D02*
X-15871380Y-37589220D01*
X-16371380Y-36589220D02*
X-15871380Y-36589220D01*
X-16371380Y-37589220D02*
X-16371380Y-36589220D01*
X-15871380Y-37589220D02*
X-16371380Y-37589220D01*
X-12475020Y-37853380D02*
X-12475020Y-36853380D01*
X-11975020Y-37853380D02*
X-12475020Y-37853380D01*
X-11975020Y-36853380D02*
X-11975020Y-37853380D01*
X-12475020Y-36853380D02*
X-11975020Y-36853380D01*
X-8224760Y-13960920D02*
X-9224760Y-13960920D01*
X-8224760Y-13460920D02*
X-8224760Y-13960920D01*
X-9224760Y-13460920D02*
X-8224760Y-13460920D01*
X-9224760Y-13960920D02*
X-9224760Y-13460920D01*
X-2245120Y-35718940D02*
X-1245120Y-35718940D01*
X-2245120Y-36218940D02*
X-2245120Y-35718940D01*
X-1245120Y-36218940D02*
X-2245120Y-36218940D01*
X-1245120Y-35718940D02*
X-1245120Y-36218940D01*
X-2245120Y-34647060D02*
X-1245120Y-34647060D01*
X-2245120Y-35147060D02*
X-2245120Y-34647060D01*
X-1245120Y-35147060D02*
X-2245120Y-35147060D01*
X-1245120Y-34647060D02*
X-1245120Y-35147060D01*
X-16101300Y-35756660D02*
X-17101300Y-35756660D01*
X-16101300Y-35256660D02*
X-16101300Y-35756660D01*
X-17101300Y-35256660D02*
X-16101300Y-35256660D01*
X-17101300Y-35756660D02*
X-17101300Y-35256660D01*
X-12169380Y-35997960D02*
X-13169380Y-35997960D01*
X-12169380Y-35497960D02*
X-12169380Y-35997960D01*
X-13169380Y-35497960D02*
X-12169380Y-35497960D01*
X-13169380Y-35997960D02*
X-13169380Y-35497960D01*
X18452540Y-25318720D02*
G75*
G03*
X18452540Y-25318720I-4000000J0D01*
G01*
X17879299Y-27066220D02*
X17079299Y-27066220D01*
X17479299Y-27466220D02*
X17479299Y-26666220D01*
X17499619Y-36109840D02*
X17499619Y-35309840D01*
X17899619Y-35709840D02*
X17099619Y-35709840D01*
X18472860Y-33962340D02*
G75*
G03*
X18472860Y-33962340I-4000000J0D01*
G01*
X15101820Y-47251380D02*
X15101820Y-48501380D01*
X15851820Y-46501380D02*
X15101820Y-47251380D01*
X17101820Y-46501380D02*
X15851820Y-46501380D01*
X15101820Y-49751380D02*
X15101820Y-48501380D01*
X15851820Y-50501380D02*
X15101820Y-49751380D01*
X17101820Y-50501380D02*
X15851820Y-50501380D01*
X19101820Y-49751380D02*
X19101820Y-48501380D01*
X18351820Y-50501380D02*
X19101820Y-49751380D01*
X17101820Y-50501380D02*
X18351820Y-50501380D01*
X19101820Y-47251380D02*
X19101820Y-48501380D01*
X18351820Y-46501380D02*
X19101820Y-47251380D01*
X17101820Y-46501380D02*
X18351820Y-46501380D01*
X11476020Y-44046880D02*
X14376020Y-44046880D01*
X14376020Y-44046880D02*
X14376020Y-45806880D01*
X11926020Y-45806880D02*
X14376020Y-45806880D01*
X11476020Y-44046880D02*
X11476020Y-45356880D01*
X11926020Y-45806880D02*
X11476020Y-45356880D01*
X10905300Y-42613820D02*
X10905300Y-43613820D01*
X10405300Y-42613820D02*
X10905300Y-42613820D01*
X10405300Y-43613820D02*
X10405300Y-42613820D01*
X10905300Y-43613820D02*
X10405300Y-43613820D01*
X10682860Y-44875260D02*
X9682860Y-44875260D01*
X10682860Y-44375260D02*
X10682860Y-44875260D01*
X9682860Y-44375260D02*
X10682860Y-44375260D01*
X9682860Y-44875260D02*
X9682860Y-44375260D01*
X12966460Y-48042640D02*
X11966460Y-48042640D01*
X12966460Y-47542640D02*
X12966460Y-48042640D01*
X11966460Y-47542640D02*
X12966460Y-47542640D01*
X11966460Y-48042640D02*
X11966460Y-47542640D01*
X3539081Y-36968500D02*
X3539081Y-37768500D01*
X3139081Y-37368500D02*
X3939081Y-37368500D01*
X10565840Y-39116000D02*
G75*
G03*
X10565840Y-39116000I-4000000J0D01*
G01*
X14382040Y-49810400D02*
X14382040Y-51810400D01*
X13182040Y-49810400D02*
X14382040Y-49810400D01*
X13182040Y-51810400D02*
X13182040Y-49810400D01*
X14382040Y-51810400D02*
X13182040Y-51810400D01*
X12411660Y-49824640D02*
X12411660Y-51424640D01*
X11611660Y-49824640D02*
X12411660Y-49824640D01*
X11611660Y-51424640D02*
X11611660Y-49824640D01*
X12411660Y-51424640D02*
X11611660Y-51424640D01*
X10693160Y-45929360D02*
X9693160Y-45929360D01*
X10693160Y-45429360D02*
X10693160Y-45929360D01*
X9693160Y-45429360D02*
X10693160Y-45429360D01*
X9693160Y-45929360D02*
X9693160Y-45429360D01*
X15295320Y-43034700D02*
X15295320Y-41034700D01*
X16495320Y-43034700D02*
X15295320Y-43034700D01*
X16495320Y-41034700D02*
X16495320Y-43034700D01*
X15295320Y-41034700D02*
X16495320Y-41034700D01*
X17420640Y-42638880D02*
X17420640Y-41038880D01*
X18220640Y-42638880D02*
X17420640Y-42638880D01*
X18220640Y-41038880D02*
X18220640Y-42638880D01*
X17420640Y-41038880D02*
X18220640Y-41038880D01*
X13040000Y-57390000D02*
G75*
G03*
X13040000Y-57390000I-1000000J0D01*
G01*
X-11948920Y-58592720D02*
G75*
G03*
X-11948920Y-58592720I-1000000J0D01*
G01*
X-16090000Y2220000D02*
G75*
G03*
X-16090000Y2220000I-1000000J0D01*
G01*
X-6227000Y-5773040D02*
X-6727000Y-5773040D01*
X-6727000Y-5773040D02*
X-6727000Y-4773040D01*
X-6727000Y-4773040D02*
X-6227000Y-4773040D01*
X-6227000Y-4773040D02*
X-6227000Y-5773040D01*
X-5028120Y-5760480D02*
X-5528120Y-5760480D01*
X-5528120Y-5760480D02*
X-5528120Y-4760480D01*
X-5528120Y-4760480D02*
X-5028120Y-4760480D01*
X-5028120Y-4760480D02*
X-5028120Y-5760480D01*
D12*
X-10567858Y-25499523D02*
X-10567858Y-25416190D01*
X-10436905Y-25380476D02*
X-10436905Y-25499523D01*
X-10686905Y-25499523D01*
X-10686905Y-25380476D01*
X-10448810Y-25285238D02*
X-10436905Y-25249523D01*
X-10436905Y-25190000D01*
X-10448810Y-25166190D01*
X-10460715Y-25154285D01*
X-10484524Y-25142380D01*
X-10508334Y-25142380D01*
X-10532143Y-25154285D01*
X-10544048Y-25166190D01*
X-10555953Y-25190000D01*
X-10567858Y-25237619D01*
X-10579762Y-25261428D01*
X-10591667Y-25273333D01*
X-10615477Y-25285238D01*
X-10639286Y-25285238D01*
X-10663096Y-25273333D01*
X-10675000Y-25261428D01*
X-10686905Y-25237619D01*
X-10686905Y-25178095D01*
X-10675000Y-25142380D01*
X-10436905Y-25035238D02*
X-10686905Y-25035238D01*
X-10686905Y-24940000D01*
X-10675000Y-24916190D01*
X-10663096Y-24904285D01*
X-10639286Y-24892380D01*
X-10603572Y-24892380D01*
X-10579762Y-24904285D01*
X-10567858Y-24916190D01*
X-10555953Y-24940000D01*
X-10555953Y-25035238D01*
X-10532143Y-24785238D02*
X-10532143Y-24594761D01*
X-10686905Y-24428095D02*
X-10686905Y-24404285D01*
X-10675000Y-24380476D01*
X-10663096Y-24368571D01*
X-10639286Y-24356666D01*
X-10591667Y-24344761D01*
X-10532143Y-24344761D01*
X-10484524Y-24356666D01*
X-10460715Y-24368571D01*
X-10448810Y-24380476D01*
X-10436905Y-24404285D01*
X-10436905Y-24428095D01*
X-10448810Y-24451904D01*
X-10460715Y-24463809D01*
X-10484524Y-24475714D01*
X-10532143Y-24487619D01*
X-10591667Y-24487619D01*
X-10639286Y-24475714D01*
X-10663096Y-24463809D01*
X-10675000Y-24451904D01*
X-10686905Y-24428095D01*
X-10686905Y-24261428D02*
X-10686905Y-24094761D01*
X-10436905Y-24201904D01*
X-10448810Y-24011428D02*
X-10436905Y-23975714D01*
X-10436905Y-23916190D01*
X-10448810Y-23892380D01*
X-10460715Y-23880476D01*
X-10484524Y-23868571D01*
X-10508334Y-23868571D01*
X-10532143Y-23880476D01*
X-10544048Y-23892380D01*
X-10555953Y-23916190D01*
X-10567858Y-23963809D01*
X-10579762Y-23987619D01*
X-10591667Y-23999523D01*
X-10615477Y-24011428D01*
X-10639286Y-24011428D01*
X-10663096Y-23999523D01*
X-10675000Y-23987619D01*
X-10686905Y-23963809D01*
X-10686905Y-23904285D01*
X-10675000Y-23868571D01*
D11*
D12*
X-11106905Y-24850476D02*
X-10904524Y-24850476D01*
X-10880715Y-24838571D01*
X-10868810Y-24826666D01*
X-10856905Y-24802857D01*
X-10856905Y-24755238D01*
X-10868810Y-24731428D01*
X-10880715Y-24719523D01*
X-10904524Y-24707619D01*
X-11106905Y-24707619D01*
X-11106905Y-24612380D02*
X-11106905Y-24457619D01*
X-11011667Y-24540952D01*
X-11011667Y-24505238D01*
X-10999762Y-24481428D01*
X-10987858Y-24469523D01*
X-10964048Y-24457619D01*
X-10904524Y-24457619D01*
X-10880715Y-24469523D01*
X-10868810Y-24481428D01*
X-10856905Y-24505238D01*
X-10856905Y-24576666D01*
X-10868810Y-24600476D01*
X-10880715Y-24612380D01*
D11*
D12*
X5595876Y-31213095D02*
X5453019Y-31213095D01*
X5524447Y-31213095D02*
X5524447Y-30963095D01*
X5500638Y-30998809D01*
X5476828Y-31022619D01*
X5453019Y-31034523D01*
X5750638Y-30963095D02*
X5774447Y-30963095D01*
X5798257Y-30975000D01*
X5810161Y-30986904D01*
X5822066Y-31010714D01*
X5833971Y-31058333D01*
X5833971Y-31117857D01*
X5822066Y-31165476D01*
X5810161Y-31189285D01*
X5798257Y-31201190D01*
X5774447Y-31213095D01*
X5750638Y-31213095D01*
X5726828Y-31201190D01*
X5714923Y-31189285D01*
X5703019Y-31165476D01*
X5691114Y-31117857D01*
X5691114Y-31058333D01*
X5703019Y-31010714D01*
X5714923Y-30986904D01*
X5726828Y-30975000D01*
X5750638Y-30963095D01*
X5988733Y-30963095D02*
X6012542Y-30963095D01*
X6036352Y-30975000D01*
X6048257Y-30986904D01*
X6060161Y-31010714D01*
X6072066Y-31058333D01*
X6072066Y-31117857D01*
X6060161Y-31165476D01*
X6048257Y-31189285D01*
X6036352Y-31201190D01*
X6012542Y-31213095D01*
X5988733Y-31213095D01*
X5964923Y-31201190D01*
X5953019Y-31189285D01*
X5941114Y-31165476D01*
X5929209Y-31117857D01*
X5929209Y-31058333D01*
X5941114Y-31010714D01*
X5953019Y-30986904D01*
X5964923Y-30975000D01*
X5988733Y-30963095D01*
X6226828Y-30963095D02*
X6250638Y-30963095D01*
X6274447Y-30975000D01*
X6286352Y-30986904D01*
X6298257Y-31010714D01*
X6310161Y-31058333D01*
X6310161Y-31117857D01*
X6298257Y-31165476D01*
X6286352Y-31189285D01*
X6274447Y-31201190D01*
X6250638Y-31213095D01*
X6226828Y-31213095D01*
X6203019Y-31201190D01*
X6191114Y-31189285D01*
X6179209Y-31165476D01*
X6167304Y-31117857D01*
X6167304Y-31058333D01*
X6179209Y-31010714D01*
X6191114Y-30986904D01*
X6203019Y-30975000D01*
X6226828Y-30963095D01*
X6524447Y-31046428D02*
X6524447Y-31213095D01*
X6417304Y-31046428D02*
X6417304Y-31177380D01*
X6429209Y-31201190D01*
X6453019Y-31213095D01*
X6488733Y-31213095D01*
X6512542Y-31201190D01*
X6524447Y-31189285D01*
X6726828Y-31082142D02*
X6643495Y-31082142D01*
X6643495Y-31213095D02*
X6643495Y-30963095D01*
X6762542Y-30963095D01*
X7179209Y-31213095D02*
X7036352Y-31213095D01*
X7107780Y-31213095D02*
X7107780Y-30963095D01*
X7083971Y-30998809D01*
X7060161Y-31022619D01*
X7036352Y-31034523D01*
X7333971Y-30963095D02*
X7357780Y-30963095D01*
X7381590Y-30975000D01*
X7393495Y-30986904D01*
X7405400Y-31010714D01*
X7417304Y-31058333D01*
X7417304Y-31117857D01*
X7405400Y-31165476D01*
X7393495Y-31189285D01*
X7381590Y-31201190D01*
X7357780Y-31213095D01*
X7333971Y-31213095D01*
X7310161Y-31201190D01*
X7298257Y-31189285D01*
X7286352Y-31165476D01*
X7274447Y-31117857D01*
X7274447Y-31058333D01*
X7286352Y-31010714D01*
X7298257Y-30986904D01*
X7310161Y-30975000D01*
X7333971Y-30963095D01*
X7500638Y-31046428D02*
X7560161Y-31213095D01*
X7619685Y-31046428D01*
D11*
D12*
X6369685Y-30546425D02*
X6357780Y-30558330D01*
X6322066Y-30570235D01*
X6298257Y-30570235D01*
X6262542Y-30558330D01*
X6238733Y-30534520D01*
X6226828Y-30510711D01*
X6214923Y-30463092D01*
X6214923Y-30427378D01*
X6226828Y-30379759D01*
X6238733Y-30355949D01*
X6262542Y-30332140D01*
X6298257Y-30320235D01*
X6322066Y-30320235D01*
X6357780Y-30332140D01*
X6369685Y-30344044D01*
X6464923Y-30344044D02*
X6476828Y-30332140D01*
X6500638Y-30320235D01*
X6560161Y-30320235D01*
X6583971Y-30332140D01*
X6595876Y-30344044D01*
X6607780Y-30367854D01*
X6607780Y-30391663D01*
X6595876Y-30427378D01*
X6453019Y-30570235D01*
X6607780Y-30570235D01*
X6703019Y-30344044D02*
X6714923Y-30332140D01*
X6738733Y-30320235D01*
X6798257Y-30320235D01*
X6822066Y-30332140D01*
X6833971Y-30344044D01*
X6845876Y-30367854D01*
X6845876Y-30391663D01*
X6833971Y-30427378D01*
X6691114Y-30570235D01*
X6845876Y-30570235D01*
D11*
D12*
X5565476Y-22613095D02*
X5422619Y-22613095D01*
X5494047Y-22613095D02*
X5494047Y-22363095D01*
X5470238Y-22398809D01*
X5446428Y-22422619D01*
X5422619Y-22434523D01*
X5720238Y-22363095D02*
X5744047Y-22363095D01*
X5767857Y-22375000D01*
X5779761Y-22386904D01*
X5791666Y-22410714D01*
X5803571Y-22458333D01*
X5803571Y-22517857D01*
X5791666Y-22565476D01*
X5779761Y-22589285D01*
X5767857Y-22601190D01*
X5744047Y-22613095D01*
X5720238Y-22613095D01*
X5696428Y-22601190D01*
X5684523Y-22589285D01*
X5672619Y-22565476D01*
X5660714Y-22517857D01*
X5660714Y-22458333D01*
X5672619Y-22410714D01*
X5684523Y-22386904D01*
X5696428Y-22375000D01*
X5720238Y-22363095D01*
X5958333Y-22363095D02*
X5982142Y-22363095D01*
X6005952Y-22375000D01*
X6017857Y-22386904D01*
X6029761Y-22410714D01*
X6041666Y-22458333D01*
X6041666Y-22517857D01*
X6029761Y-22565476D01*
X6017857Y-22589285D01*
X6005952Y-22601190D01*
X5982142Y-22613095D01*
X5958333Y-22613095D01*
X5934523Y-22601190D01*
X5922619Y-22589285D01*
X5910714Y-22565476D01*
X5898809Y-22517857D01*
X5898809Y-22458333D01*
X5910714Y-22410714D01*
X5922619Y-22386904D01*
X5934523Y-22375000D01*
X5958333Y-22363095D01*
X6196428Y-22363095D02*
X6220238Y-22363095D01*
X6244047Y-22375000D01*
X6255952Y-22386904D01*
X6267857Y-22410714D01*
X6279761Y-22458333D01*
X6279761Y-22517857D01*
X6267857Y-22565476D01*
X6255952Y-22589285D01*
X6244047Y-22601190D01*
X6220238Y-22613095D01*
X6196428Y-22613095D01*
X6172619Y-22601190D01*
X6160714Y-22589285D01*
X6148809Y-22565476D01*
X6136904Y-22517857D01*
X6136904Y-22458333D01*
X6148809Y-22410714D01*
X6160714Y-22386904D01*
X6172619Y-22375000D01*
X6196428Y-22363095D01*
X6494047Y-22446428D02*
X6494047Y-22613095D01*
X6386904Y-22446428D02*
X6386904Y-22577380D01*
X6398809Y-22601190D01*
X6422619Y-22613095D01*
X6458333Y-22613095D01*
X6482142Y-22601190D01*
X6494047Y-22589285D01*
X6696428Y-22482142D02*
X6613095Y-22482142D01*
X6613095Y-22613095D02*
X6613095Y-22363095D01*
X6732142Y-22363095D01*
X7148809Y-22613095D02*
X7005952Y-22613095D01*
X7077380Y-22613095D02*
X7077380Y-22363095D01*
X7053571Y-22398809D01*
X7029761Y-22422619D01*
X7005952Y-22434523D01*
X7303571Y-22363095D02*
X7327380Y-22363095D01*
X7351190Y-22375000D01*
X7363095Y-22386904D01*
X7375000Y-22410714D01*
X7386904Y-22458333D01*
X7386904Y-22517857D01*
X7375000Y-22565476D01*
X7363095Y-22589285D01*
X7351190Y-22601190D01*
X7327380Y-22613095D01*
X7303571Y-22613095D01*
X7279761Y-22601190D01*
X7267857Y-22589285D01*
X7255952Y-22565476D01*
X7244047Y-22517857D01*
X7244047Y-22458333D01*
X7255952Y-22410714D01*
X7267857Y-22386904D01*
X7279761Y-22375000D01*
X7303571Y-22363095D01*
X7470238Y-22446428D02*
X7529761Y-22613095D01*
X7589285Y-22446428D01*
D11*
D12*
X6329045Y-21887565D02*
X6317140Y-21899470D01*
X6281426Y-21911375D01*
X6257617Y-21911375D01*
X6221902Y-21899470D01*
X6198093Y-21875660D01*
X6186188Y-21851851D01*
X6174283Y-21804232D01*
X6174283Y-21768518D01*
X6186188Y-21720899D01*
X6198093Y-21697089D01*
X6221902Y-21673280D01*
X6257617Y-21661375D01*
X6281426Y-21661375D01*
X6317140Y-21673280D01*
X6329045Y-21685184D01*
X6424283Y-21685184D02*
X6436188Y-21673280D01*
X6459998Y-21661375D01*
X6519521Y-21661375D01*
X6543331Y-21673280D01*
X6555236Y-21685184D01*
X6567140Y-21708994D01*
X6567140Y-21732803D01*
X6555236Y-21768518D01*
X6412379Y-21911375D01*
X6567140Y-21911375D01*
X6781426Y-21744708D02*
X6781426Y-21911375D01*
X6721902Y-21649470D02*
X6662379Y-21828041D01*
X6817140Y-21828041D01*
D11*
D12*
X-16913096Y-14715476D02*
X-16925000Y-14703571D01*
X-16936905Y-14679761D01*
X-16936905Y-14620238D01*
X-16925000Y-14596428D01*
X-16913096Y-14584523D01*
X-16889286Y-14572619D01*
X-16865477Y-14572619D01*
X-16829762Y-14584523D01*
X-16686905Y-14727380D01*
X-16686905Y-14572619D01*
X-16913096Y-14477380D02*
X-16925000Y-14465476D01*
X-16936905Y-14441666D01*
X-16936905Y-14382142D01*
X-16925000Y-14358333D01*
X-16913096Y-14346428D01*
X-16889286Y-14334523D01*
X-16865477Y-14334523D01*
X-16829762Y-14346428D01*
X-16686905Y-14489285D01*
X-16686905Y-14334523D01*
X-16686905Y-14084523D02*
X-16805953Y-14167857D01*
X-16686905Y-14227380D02*
X-16936905Y-14227380D01*
X-16936905Y-14132142D01*
X-16925000Y-14108333D01*
X-16913096Y-14096428D01*
X-16889286Y-14084523D01*
X-16853572Y-14084523D01*
X-16829762Y-14096428D01*
X-16817858Y-14108333D01*
X-16805953Y-14132142D01*
X-16805953Y-14227380D01*
D11*
D12*
X-16127665Y-14552214D02*
X-16246713Y-14635547D01*
X-16127665Y-14695071D02*
X-16377665Y-14695071D01*
X-16377665Y-14599833D01*
X-16365760Y-14576023D01*
X-16353856Y-14564119D01*
X-16330046Y-14552214D01*
X-16294332Y-14552214D01*
X-16270522Y-14564119D01*
X-16258618Y-14576023D01*
X-16246713Y-14599833D01*
X-16246713Y-14695071D01*
X-16127665Y-14314119D02*
X-16127665Y-14456976D01*
X-16127665Y-14385547D02*
X-16377665Y-14385547D01*
X-16341951Y-14409357D01*
X-16318141Y-14433166D01*
X-16306237Y-14456976D01*
X-16377665Y-14159357D02*
X-16377665Y-14135547D01*
X-16365760Y-14111738D01*
X-16353856Y-14099833D01*
X-16330046Y-14087928D01*
X-16282427Y-14076023D01*
X-16222903Y-14076023D01*
X-16175284Y-14087928D01*
X-16151475Y-14099833D01*
X-16139570Y-14111738D01*
X-16127665Y-14135547D01*
X-16127665Y-14159357D01*
X-16139570Y-14183166D01*
X-16151475Y-14195071D01*
X-16175284Y-14206976D01*
X-16222903Y-14218880D01*
X-16282427Y-14218880D01*
X-16330046Y-14206976D01*
X-16353856Y-14195071D01*
X-16365760Y-14183166D01*
X-16377665Y-14159357D01*
D11*
D12*
X-14913096Y-14671696D02*
X-14925000Y-14659791D01*
X-14936905Y-14635981D01*
X-14936905Y-14576458D01*
X-14925000Y-14552648D01*
X-14913096Y-14540743D01*
X-14889286Y-14528839D01*
X-14865477Y-14528839D01*
X-14829762Y-14540743D01*
X-14686905Y-14683600D01*
X-14686905Y-14528839D01*
X-14913096Y-14433600D02*
X-14925000Y-14421696D01*
X-14936905Y-14397886D01*
X-14936905Y-14338362D01*
X-14925000Y-14314553D01*
X-14913096Y-14302648D01*
X-14889286Y-14290743D01*
X-14865477Y-14290743D01*
X-14829762Y-14302648D01*
X-14686905Y-14445505D01*
X-14686905Y-14290743D01*
X-14686905Y-14040743D02*
X-14805953Y-14124077D01*
X-14686905Y-14183600D02*
X-14936905Y-14183600D01*
X-14936905Y-14088362D01*
X-14925000Y-14064553D01*
X-14913096Y-14052648D01*
X-14889286Y-14040743D01*
X-14853572Y-14040743D01*
X-14829762Y-14052648D01*
X-14817858Y-14064553D01*
X-14805953Y-14088362D01*
X-14805953Y-14183600D01*
D11*
D12*
X-14138845Y-14397886D02*
X-14257893Y-14481220D01*
X-14138845Y-14540743D02*
X-14388845Y-14540743D01*
X-14388845Y-14445505D01*
X-14376940Y-14421696D01*
X-14365036Y-14409791D01*
X-14341226Y-14397886D01*
X-14305512Y-14397886D01*
X-14281702Y-14409791D01*
X-14269798Y-14421696D01*
X-14257893Y-14445505D01*
X-14257893Y-14540743D01*
X-14138845Y-14278839D02*
X-14138845Y-14231220D01*
X-14150750Y-14207410D01*
X-14162655Y-14195505D01*
X-14198369Y-14171696D01*
X-14245988Y-14159791D01*
X-14341226Y-14159791D01*
X-14365036Y-14171696D01*
X-14376940Y-14183600D01*
X-14388845Y-14207410D01*
X-14388845Y-14255029D01*
X-14376940Y-14278839D01*
X-14365036Y-14290743D01*
X-14341226Y-14302648D01*
X-14281702Y-14302648D01*
X-14257893Y-14290743D01*
X-14245988Y-14278839D01*
X-14234083Y-14255029D01*
X-14234083Y-14207410D01*
X-14245988Y-14183600D01*
X-14257893Y-14171696D01*
X-14281702Y-14159791D01*
D11*
D12*
X-10836905Y-37236904D02*
X-10836905Y-37213095D01*
X-10825000Y-37189285D01*
X-10813096Y-37177380D01*
X-10789286Y-37165476D01*
X-10741667Y-37153571D01*
X-10682143Y-37153571D01*
X-10634524Y-37165476D01*
X-10610715Y-37177380D01*
X-10598810Y-37189285D01*
X-10586905Y-37213095D01*
X-10586905Y-37236904D01*
X-10598810Y-37260714D01*
X-10610715Y-37272619D01*
X-10634524Y-37284523D01*
X-10682143Y-37296428D01*
X-10741667Y-37296428D01*
X-10789286Y-37284523D01*
X-10813096Y-37272619D01*
X-10825000Y-37260714D01*
X-10836905Y-37236904D01*
X-10586905Y-36903571D02*
X-10705953Y-36986904D01*
X-10586905Y-37046428D02*
X-10836905Y-37046428D01*
X-10836905Y-36951190D01*
X-10825000Y-36927380D01*
X-10813096Y-36915476D01*
X-10789286Y-36903571D01*
X-10753572Y-36903571D01*
X-10729762Y-36915476D01*
X-10717858Y-36927380D01*
X-10705953Y-36951190D01*
X-10705953Y-37046428D01*
D11*
D12*
X-10105325Y-37173786D02*
X-10224373Y-37257120D01*
X-10105325Y-37316643D02*
X-10355325Y-37316643D01*
X-10355325Y-37221405D01*
X-10343420Y-37197596D01*
X-10331516Y-37185691D01*
X-10307706Y-37173786D01*
X-10271992Y-37173786D01*
X-10248182Y-37185691D01*
X-10236278Y-37197596D01*
X-10224373Y-37221405D01*
X-10224373Y-37316643D01*
X-10355325Y-36959500D02*
X-10355325Y-37007120D01*
X-10343420Y-37030929D01*
X-10331516Y-37042834D01*
X-10295801Y-37066643D01*
X-10248182Y-37078548D01*
X-10152944Y-37078548D01*
X-10129135Y-37066643D01*
X-10117230Y-37054739D01*
X-10105325Y-37030929D01*
X-10105325Y-36983310D01*
X-10117230Y-36959500D01*
X-10129135Y-36947596D01*
X-10152944Y-36935691D01*
X-10212468Y-36935691D01*
X-10236278Y-36947596D01*
X-10248182Y-36959500D01*
X-10260087Y-36983310D01*
X-10260087Y-37030929D01*
X-10248182Y-37054739D01*
X-10236278Y-37066643D01*
X-10212468Y-37078548D01*
D11*
D12*
X-7927100Y-12113095D02*
X-8069957Y-12113095D01*
X-7998528Y-12113095D02*
X-7998528Y-11863095D01*
X-8022338Y-11898809D01*
X-8046147Y-11922619D01*
X-8069957Y-11934523D01*
X-7772338Y-11863095D02*
X-7748528Y-11863095D01*
X-7724719Y-11875000D01*
X-7712814Y-11886904D01*
X-7700909Y-11910714D01*
X-7689004Y-11958333D01*
X-7689004Y-12017857D01*
X-7700909Y-12065476D01*
X-7712814Y-12089285D01*
X-7724719Y-12101190D01*
X-7748528Y-12113095D01*
X-7772338Y-12113095D01*
X-7796147Y-12101190D01*
X-7808052Y-12089285D01*
X-7819957Y-12065476D01*
X-7831861Y-12017857D01*
X-7831861Y-11958333D01*
X-7819957Y-11910714D01*
X-7808052Y-11886904D01*
X-7796147Y-11875000D01*
X-7772338Y-11863095D01*
X-7581861Y-12113095D02*
X-7581861Y-11863095D01*
X-7439004Y-12113095D02*
X-7546147Y-11970238D01*
X-7439004Y-11863095D02*
X-7581861Y-12005952D01*
D11*
D12*
X-7915195Y-12660695D02*
X-7998528Y-12541647D01*
X-8058052Y-12660695D02*
X-8058052Y-12410695D01*
X-7962814Y-12410695D01*
X-7939004Y-12422600D01*
X-7927100Y-12434504D01*
X-7915195Y-12458314D01*
X-7915195Y-12494028D01*
X-7927100Y-12517838D01*
X-7939004Y-12529742D01*
X-7962814Y-12541647D01*
X-8058052Y-12541647D01*
X-7677100Y-12660695D02*
X-7819957Y-12660695D01*
X-7748528Y-12660695D02*
X-7748528Y-12410695D01*
X-7772338Y-12446409D01*
X-7796147Y-12470219D01*
X-7819957Y-12482123D01*
X-7439004Y-12660695D02*
X-7581861Y-12660695D01*
X-7510433Y-12660695D02*
X-7510433Y-12410695D01*
X-7534242Y-12446409D01*
X-7558052Y-12470219D01*
X-7581861Y-12482123D01*
D11*
D12*
X-15386905Y-37272619D02*
X-15386905Y-37415476D01*
X-15386905Y-37344047D02*
X-15636905Y-37344047D01*
X-15601191Y-37367857D01*
X-15577381Y-37391666D01*
X-15565477Y-37415476D01*
X-15636905Y-37117857D02*
X-15636905Y-37094047D01*
X-15625000Y-37070238D01*
X-15613096Y-37058333D01*
X-15589286Y-37046428D01*
X-15541667Y-37034523D01*
X-15482143Y-37034523D01*
X-15434524Y-37046428D01*
X-15410715Y-37058333D01*
X-15398810Y-37070238D01*
X-15386905Y-37094047D01*
X-15386905Y-37117857D01*
X-15398810Y-37141666D01*
X-15410715Y-37153571D01*
X-15434524Y-37165476D01*
X-15482143Y-37177380D01*
X-15541667Y-37177380D01*
X-15589286Y-37165476D01*
X-15613096Y-37153571D01*
X-15625000Y-37141666D01*
X-15636905Y-37117857D01*
X-15386905Y-36927380D02*
X-15636905Y-36927380D01*
X-15386905Y-36784523D02*
X-15529762Y-36891666D01*
X-15636905Y-36784523D02*
X-15494048Y-36927380D01*
D11*
D12*
X-16008285Y-37130886D02*
X-16127333Y-37214220D01*
X-16008285Y-37273743D02*
X-16258285Y-37273743D01*
X-16258285Y-37178505D01*
X-16246380Y-37154696D01*
X-16234476Y-37142791D01*
X-16210666Y-37130886D01*
X-16174952Y-37130886D01*
X-16151142Y-37142791D01*
X-16139238Y-37154696D01*
X-16127333Y-37178505D01*
X-16127333Y-37273743D01*
X-16258285Y-36904696D02*
X-16258285Y-37023743D01*
X-16139238Y-37035648D01*
X-16151142Y-37023743D01*
X-16163047Y-36999934D01*
X-16163047Y-36940410D01*
X-16151142Y-36916600D01*
X-16139238Y-36904696D01*
X-16115428Y-36892791D01*
X-16055904Y-36892791D01*
X-16032095Y-36904696D01*
X-16020190Y-36916600D01*
X-16008285Y-36940410D01*
X-16008285Y-36999934D01*
X-16020190Y-37023743D01*
X-16032095Y-37035648D01*
D11*
D12*
X-12686905Y-37525999D02*
X-12686905Y-37668856D01*
X-12686905Y-37597427D02*
X-12936905Y-37597427D01*
X-12901191Y-37621237D01*
X-12877381Y-37645046D01*
X-12865477Y-37668856D01*
X-12936905Y-37371237D02*
X-12936905Y-37347427D01*
X-12925000Y-37323618D01*
X-12913096Y-37311713D01*
X-12889286Y-37299808D01*
X-12841667Y-37287903D01*
X-12782143Y-37287903D01*
X-12734524Y-37299808D01*
X-12710715Y-37311713D01*
X-12698810Y-37323618D01*
X-12686905Y-37347427D01*
X-12686905Y-37371237D01*
X-12698810Y-37395046D01*
X-12710715Y-37406951D01*
X-12734524Y-37418856D01*
X-12782143Y-37430760D01*
X-12841667Y-37430760D01*
X-12889286Y-37418856D01*
X-12913096Y-37406951D01*
X-12925000Y-37395046D01*
X-12936905Y-37371237D01*
X-12686905Y-37180760D02*
X-12936905Y-37180760D01*
X-12686905Y-37037903D02*
X-12829762Y-37145046D01*
X-12936905Y-37037903D02*
X-12794048Y-37180760D01*
D11*
D12*
X-12111925Y-37395046D02*
X-12230973Y-37478380D01*
X-12111925Y-37537903D02*
X-12361925Y-37537903D01*
X-12361925Y-37442665D01*
X-12350020Y-37418856D01*
X-12338116Y-37406951D01*
X-12314306Y-37395046D01*
X-12278592Y-37395046D01*
X-12254782Y-37406951D01*
X-12242878Y-37418856D01*
X-12230973Y-37442665D01*
X-12230973Y-37537903D01*
X-12278592Y-37180760D02*
X-12111925Y-37180760D01*
X-12373830Y-37240284D02*
X-12195259Y-37299808D01*
X-12195259Y-37145046D01*
D11*
D12*
X-9973810Y-14413095D02*
X-10116667Y-14413095D01*
X-10045239Y-14413095D02*
X-10045239Y-14163095D01*
X-10069048Y-14198809D01*
X-10092858Y-14222619D01*
X-10116667Y-14234523D01*
X-9819048Y-14163095D02*
X-9795239Y-14163095D01*
X-9771429Y-14175000D01*
X-9759524Y-14186904D01*
X-9747620Y-14210714D01*
X-9735715Y-14258333D01*
X-9735715Y-14317857D01*
X-9747620Y-14365476D01*
X-9759524Y-14389285D01*
X-9771429Y-14401190D01*
X-9795239Y-14413095D01*
X-9819048Y-14413095D01*
X-9842858Y-14401190D01*
X-9854762Y-14389285D01*
X-9866667Y-14365476D01*
X-9878572Y-14317857D01*
X-9878572Y-14258333D01*
X-9866667Y-14210714D01*
X-9854762Y-14186904D01*
X-9842858Y-14175000D01*
X-9819048Y-14163095D01*
X-9580953Y-14163095D02*
X-9557143Y-14163095D01*
X-9533334Y-14175000D01*
X-9521429Y-14186904D01*
X-9509524Y-14210714D01*
X-9497620Y-14258333D01*
X-9497620Y-14317857D01*
X-9509524Y-14365476D01*
X-9521429Y-14389285D01*
X-9533334Y-14401190D01*
X-9557143Y-14413095D01*
X-9580953Y-14413095D01*
X-9604762Y-14401190D01*
X-9616667Y-14389285D01*
X-9628572Y-14365476D01*
X-9640477Y-14317857D01*
X-9640477Y-14258333D01*
X-9628572Y-14210714D01*
X-9616667Y-14186904D01*
X-9604762Y-14175000D01*
X-9580953Y-14163095D01*
X-9390477Y-14246428D02*
X-9390477Y-14413095D01*
X-9390477Y-14270238D02*
X-9378572Y-14258333D01*
X-9354762Y-14246428D01*
X-9319048Y-14246428D01*
X-9295239Y-14258333D01*
X-9283334Y-14282142D01*
X-9283334Y-14413095D01*
X-9080953Y-14282142D02*
X-9164286Y-14282142D01*
X-9164286Y-14413095D02*
X-9164286Y-14163095D01*
X-9045239Y-14163095D01*
X-8628572Y-14413095D02*
X-8771429Y-14413095D01*
X-8700000Y-14413095D02*
X-8700000Y-14163095D01*
X-8723810Y-14198809D01*
X-8747620Y-14222619D01*
X-8771429Y-14234523D01*
X-8473810Y-14163095D02*
X-8450000Y-14163095D01*
X-8426191Y-14175000D01*
X-8414286Y-14186904D01*
X-8402381Y-14210714D01*
X-8390477Y-14258333D01*
X-8390477Y-14317857D01*
X-8402381Y-14365476D01*
X-8414286Y-14389285D01*
X-8426191Y-14401190D01*
X-8450000Y-14413095D01*
X-8473810Y-14413095D01*
X-8497620Y-14401190D01*
X-8509524Y-14389285D01*
X-8521429Y-14365476D01*
X-8533334Y-14317857D01*
X-8533334Y-14258333D01*
X-8521429Y-14210714D01*
X-8509524Y-14186904D01*
X-8497620Y-14175000D01*
X-8473810Y-14163095D01*
X-8307143Y-14246428D02*
X-8247620Y-14413095D01*
X-8188096Y-14246428D01*
X-7926191Y-14163095D02*
X-7759524Y-14413095D01*
X-7759524Y-14163095D02*
X-7926191Y-14413095D01*
X-7545239Y-14163095D02*
X-7664286Y-14163095D01*
X-7676191Y-14282142D01*
X-7664286Y-14270238D01*
X-7640477Y-14258333D01*
X-7580953Y-14258333D01*
X-7557143Y-14270238D01*
X-7545239Y-14282142D01*
X-7533334Y-14305952D01*
X-7533334Y-14365476D01*
X-7545239Y-14389285D01*
X-7557143Y-14401190D01*
X-7580953Y-14413095D01*
X-7640477Y-14413095D01*
X-7664286Y-14401190D01*
X-7676191Y-14389285D01*
X-7283334Y-14413095D02*
X-7366667Y-14294047D01*
X-7426191Y-14413095D02*
X-7426191Y-14163095D01*
X-7330953Y-14163095D01*
X-7307143Y-14175000D01*
X-7295239Y-14186904D01*
X-7283334Y-14210714D01*
X-7283334Y-14246428D01*
X-7295239Y-14270238D01*
X-7307143Y-14282142D01*
X-7330953Y-14294047D01*
X-7426191Y-14294047D01*
D11*
D12*
X-8885475Y-13800205D02*
X-8897380Y-13812110D01*
X-8933094Y-13824015D01*
X-8956903Y-13824015D01*
X-8992618Y-13812110D01*
X-9016427Y-13788300D01*
X-9028332Y-13764491D01*
X-9040237Y-13716872D01*
X-9040237Y-13681158D01*
X-9028332Y-13633539D01*
X-9016427Y-13609729D01*
X-8992618Y-13585920D01*
X-8956903Y-13574015D01*
X-8933094Y-13574015D01*
X-8897380Y-13585920D01*
X-8885475Y-13597824D01*
X-8790237Y-13597824D02*
X-8778332Y-13585920D01*
X-8754522Y-13574015D01*
X-8694999Y-13574015D01*
X-8671189Y-13585920D01*
X-8659284Y-13597824D01*
X-8647380Y-13621634D01*
X-8647380Y-13645443D01*
X-8659284Y-13681158D01*
X-8802141Y-13824015D01*
X-8647380Y-13824015D01*
X-8528332Y-13824015D02*
X-8480713Y-13824015D01*
X-8456903Y-13812110D01*
X-8444999Y-13800205D01*
X-8421189Y-13764491D01*
X-8409284Y-13716872D01*
X-8409284Y-13621634D01*
X-8421189Y-13597824D01*
X-8433094Y-13585920D01*
X-8456903Y-13574015D01*
X-8504522Y-13574015D01*
X-8528332Y-13585920D01*
X-8540237Y-13597824D01*
X-8552141Y-13621634D01*
X-8552141Y-13681158D01*
X-8540237Y-13704967D01*
X-8528332Y-13716872D01*
X-8504522Y-13728777D01*
X-8456903Y-13728777D01*
X-8433094Y-13716872D01*
X-8421189Y-13704967D01*
X-8409284Y-13681158D01*
D11*
D12*
X-2754762Y-36713095D02*
X-2897620Y-36713095D01*
X-2826191Y-36713095D02*
X-2826191Y-36463095D01*
X-2850000Y-36498809D01*
X-2873810Y-36522619D01*
X-2897620Y-36534523D01*
X-2600000Y-36463095D02*
X-2576191Y-36463095D01*
X-2552381Y-36475000D01*
X-2540477Y-36486904D01*
X-2528572Y-36510714D01*
X-2516667Y-36558333D01*
X-2516667Y-36617857D01*
X-2528572Y-36665476D01*
X-2540477Y-36689285D01*
X-2552381Y-36701190D01*
X-2576191Y-36713095D01*
X-2600000Y-36713095D01*
X-2623810Y-36701190D01*
X-2635715Y-36689285D01*
X-2647620Y-36665476D01*
X-2659524Y-36617857D01*
X-2659524Y-36558333D01*
X-2647620Y-36510714D01*
X-2635715Y-36486904D01*
X-2623810Y-36475000D01*
X-2600000Y-36463095D01*
X-2302381Y-36546428D02*
X-2302381Y-36713095D01*
X-2409524Y-36546428D02*
X-2409524Y-36677380D01*
X-2397620Y-36701190D01*
X-2373810Y-36713095D01*
X-2338096Y-36713095D01*
X-2314286Y-36701190D01*
X-2302381Y-36689285D01*
X-2100000Y-36582142D02*
X-2183334Y-36582142D01*
X-2183334Y-36713095D02*
X-2183334Y-36463095D01*
X-2064286Y-36463095D01*
X-1647620Y-36713095D02*
X-1790477Y-36713095D01*
X-1719048Y-36713095D02*
X-1719048Y-36463095D01*
X-1742858Y-36498809D01*
X-1766667Y-36522619D01*
X-1790477Y-36534523D01*
X-1492858Y-36463095D02*
X-1469048Y-36463095D01*
X-1445239Y-36475000D01*
X-1433334Y-36486904D01*
X-1421429Y-36510714D01*
X-1409524Y-36558333D01*
X-1409524Y-36617857D01*
X-1421429Y-36665476D01*
X-1433334Y-36689285D01*
X-1445239Y-36701190D01*
X-1469048Y-36713095D01*
X-1492858Y-36713095D01*
X-1516667Y-36701190D01*
X-1528572Y-36689285D01*
X-1540477Y-36665476D01*
X-1552381Y-36617857D01*
X-1552381Y-36558333D01*
X-1540477Y-36510714D01*
X-1528572Y-36486904D01*
X-1516667Y-36475000D01*
X-1492858Y-36463095D01*
X-1326191Y-36546428D02*
X-1266667Y-36713095D01*
X-1207143Y-36546428D01*
X-945239Y-36463095D02*
X-778572Y-36713095D01*
X-778572Y-36463095D02*
X-945239Y-36713095D01*
X-564286Y-36463095D02*
X-683334Y-36463095D01*
X-695239Y-36582142D01*
X-683334Y-36570238D01*
X-659524Y-36558333D01*
X-600000Y-36558333D01*
X-576191Y-36570238D01*
X-564286Y-36582142D01*
X-552381Y-36605952D01*
X-552381Y-36665476D01*
X-564286Y-36689285D01*
X-576191Y-36701190D01*
X-600000Y-36713095D01*
X-659524Y-36713095D01*
X-683334Y-36701190D01*
X-695239Y-36689285D01*
X-302381Y-36713095D02*
X-385715Y-36594047D01*
X-445239Y-36713095D02*
X-445239Y-36463095D01*
X-350000Y-36463095D01*
X-326191Y-36475000D01*
X-314286Y-36486904D01*
X-302381Y-36510714D01*
X-302381Y-36546428D01*
X-314286Y-36570238D01*
X-326191Y-36582142D01*
X-350000Y-36594047D01*
X-445239Y-36594047D01*
D11*
D12*
X-1786787Y-36058225D02*
X-1798692Y-36070130D01*
X-1834406Y-36082035D01*
X-1858216Y-36082035D01*
X-1893930Y-36070130D01*
X-1917740Y-36046320D01*
X-1929644Y-36022511D01*
X-1941549Y-35974892D01*
X-1941549Y-35939178D01*
X-1929644Y-35891559D01*
X-1917740Y-35867749D01*
X-1893930Y-35843940D01*
X-1858216Y-35832035D01*
X-1834406Y-35832035D01*
X-1798692Y-35843940D01*
X-1786787Y-35855844D01*
X-1667740Y-36082035D02*
X-1620120Y-36082035D01*
X-1596311Y-36070130D01*
X-1584406Y-36058225D01*
X-1560597Y-36022511D01*
X-1548692Y-35974892D01*
X-1548692Y-35879654D01*
X-1560597Y-35855844D01*
X-1572501Y-35843940D01*
X-1596311Y-35832035D01*
X-1643930Y-35832035D01*
X-1667740Y-35843940D01*
X-1679644Y-35855844D01*
X-1691549Y-35879654D01*
X-1691549Y-35939178D01*
X-1679644Y-35962987D01*
X-1667740Y-35974892D01*
X-1643930Y-35986797D01*
X-1596311Y-35986797D01*
X-1572501Y-35974892D01*
X-1560597Y-35962987D01*
X-1548692Y-35939178D01*
D11*
D12*
X-3018930Y-34413095D02*
X-3161787Y-34413095D01*
X-3090359Y-34413095D02*
X-3090359Y-34163095D01*
X-3114168Y-34198809D01*
X-3137978Y-34222619D01*
X-3161787Y-34234523D01*
X-2864168Y-34163095D02*
X-2840359Y-34163095D01*
X-2816549Y-34175000D01*
X-2804644Y-34186904D01*
X-2792740Y-34210714D01*
X-2780835Y-34258333D01*
X-2780835Y-34317857D01*
X-2792740Y-34365476D01*
X-2804644Y-34389285D01*
X-2816549Y-34401190D01*
X-2840359Y-34413095D01*
X-2864168Y-34413095D01*
X-2887978Y-34401190D01*
X-2899882Y-34389285D01*
X-2911787Y-34365476D01*
X-2923692Y-34317857D01*
X-2923692Y-34258333D01*
X-2911787Y-34210714D01*
X-2899882Y-34186904D01*
X-2887978Y-34175000D01*
X-2864168Y-34163095D01*
X-2626073Y-34163095D02*
X-2602263Y-34163095D01*
X-2578454Y-34175000D01*
X-2566549Y-34186904D01*
X-2554644Y-34210714D01*
X-2542740Y-34258333D01*
X-2542740Y-34317857D01*
X-2554644Y-34365476D01*
X-2566549Y-34389285D01*
X-2578454Y-34401190D01*
X-2602263Y-34413095D01*
X-2626073Y-34413095D01*
X-2649882Y-34401190D01*
X-2661787Y-34389285D01*
X-2673692Y-34365476D01*
X-2685597Y-34317857D01*
X-2685597Y-34258333D01*
X-2673692Y-34210714D01*
X-2661787Y-34186904D01*
X-2649882Y-34175000D01*
X-2626073Y-34163095D01*
X-2435597Y-34246428D02*
X-2435597Y-34413095D01*
X-2435597Y-34270238D02*
X-2423692Y-34258333D01*
X-2399882Y-34246428D01*
X-2364168Y-34246428D01*
X-2340359Y-34258333D01*
X-2328454Y-34282142D01*
X-2328454Y-34413095D01*
X-2126073Y-34282142D02*
X-2209406Y-34282142D01*
X-2209406Y-34413095D02*
X-2209406Y-34163095D01*
X-2090359Y-34163095D01*
X-1673692Y-34413095D02*
X-1816549Y-34413095D01*
X-1745120Y-34413095D02*
X-1745120Y-34163095D01*
X-1768930Y-34198809D01*
X-1792740Y-34222619D01*
X-1816549Y-34234523D01*
X-1518930Y-34163095D02*
X-1495120Y-34163095D01*
X-1471311Y-34175000D01*
X-1459406Y-34186904D01*
X-1447501Y-34210714D01*
X-1435597Y-34258333D01*
X-1435597Y-34317857D01*
X-1447501Y-34365476D01*
X-1459406Y-34389285D01*
X-1471311Y-34401190D01*
X-1495120Y-34413095D01*
X-1518930Y-34413095D01*
X-1542740Y-34401190D01*
X-1554644Y-34389285D01*
X-1566549Y-34365476D01*
X-1578454Y-34317857D01*
X-1578454Y-34258333D01*
X-1566549Y-34210714D01*
X-1554644Y-34186904D01*
X-1542740Y-34175000D01*
X-1518930Y-34163095D01*
X-1352263Y-34246428D02*
X-1292740Y-34413095D01*
X-1233216Y-34246428D01*
X-971311Y-34163095D02*
X-804644Y-34413095D01*
X-804644Y-34163095D02*
X-971311Y-34413095D01*
X-590359Y-34163095D02*
X-709406Y-34163095D01*
X-721311Y-34282142D01*
X-709406Y-34270238D01*
X-685597Y-34258333D01*
X-626073Y-34258333D01*
X-602263Y-34270238D01*
X-590359Y-34282142D01*
X-578454Y-34305952D01*
X-578454Y-34365476D01*
X-590359Y-34389285D01*
X-602263Y-34401190D01*
X-626073Y-34413095D01*
X-685597Y-34413095D01*
X-709406Y-34401190D01*
X-721311Y-34389285D01*
X-328454Y-34413095D02*
X-411787Y-34294047D01*
X-471311Y-34413095D02*
X-471311Y-34163095D01*
X-376073Y-34163095D01*
X-352263Y-34175000D01*
X-340359Y-34186904D01*
X-328454Y-34210714D01*
X-328454Y-34246428D01*
X-340359Y-34270238D01*
X-352263Y-34282142D01*
X-376073Y-34294047D01*
X-471311Y-34294047D01*
D11*
D12*
X-1905835Y-34986345D02*
X-1917740Y-34998250D01*
X-1953454Y-35010155D01*
X-1977263Y-35010155D01*
X-2012978Y-34998250D01*
X-2036787Y-34974440D01*
X-2048692Y-34950631D01*
X-2060597Y-34903012D01*
X-2060597Y-34867298D01*
X-2048692Y-34819679D01*
X-2036787Y-34795869D01*
X-2012978Y-34772060D01*
X-1977263Y-34760155D01*
X-1953454Y-34760155D01*
X-1917740Y-34772060D01*
X-1905835Y-34783964D01*
X-1667740Y-35010155D02*
X-1810597Y-35010155D01*
X-1739168Y-35010155D02*
X-1739168Y-34760155D01*
X-1762978Y-34795869D01*
X-1786787Y-34819679D01*
X-1810597Y-34831583D01*
X-1453454Y-34843488D02*
X-1453454Y-35010155D01*
X-1512978Y-34748250D02*
X-1572501Y-34926821D01*
X-1417740Y-34926821D01*
D11*
D12*
X-17875110Y-36213095D02*
X-18017967Y-36213095D01*
X-17946539Y-36213095D02*
X-17946539Y-35963095D01*
X-17970348Y-35998809D01*
X-17994158Y-36022619D01*
X-18017967Y-36034523D01*
X-17720348Y-35963095D02*
X-17696539Y-35963095D01*
X-17672729Y-35975000D01*
X-17660824Y-35986904D01*
X-17648920Y-36010714D01*
X-17637015Y-36058333D01*
X-17637015Y-36117857D01*
X-17648920Y-36165476D01*
X-17660824Y-36189285D01*
X-17672729Y-36201190D01*
X-17696539Y-36213095D01*
X-17720348Y-36213095D01*
X-17744158Y-36201190D01*
X-17756062Y-36189285D01*
X-17767967Y-36165476D01*
X-17779872Y-36117857D01*
X-17779872Y-36058333D01*
X-17767967Y-36010714D01*
X-17756062Y-35986904D01*
X-17744158Y-35975000D01*
X-17720348Y-35963095D01*
X-17482253Y-35963095D02*
X-17458443Y-35963095D01*
X-17434634Y-35975000D01*
X-17422729Y-35986904D01*
X-17410824Y-36010714D01*
X-17398920Y-36058333D01*
X-17398920Y-36117857D01*
X-17410824Y-36165476D01*
X-17422729Y-36189285D01*
X-17434634Y-36201190D01*
X-17458443Y-36213095D01*
X-17482253Y-36213095D01*
X-17506062Y-36201190D01*
X-17517967Y-36189285D01*
X-17529872Y-36165476D01*
X-17541777Y-36117857D01*
X-17541777Y-36058333D01*
X-17529872Y-36010714D01*
X-17517967Y-35986904D01*
X-17506062Y-35975000D01*
X-17482253Y-35963095D01*
X-17291777Y-36046428D02*
X-17291777Y-36213095D01*
X-17291777Y-36070238D02*
X-17279872Y-36058333D01*
X-17256062Y-36046428D01*
X-17220348Y-36046428D01*
X-17196539Y-36058333D01*
X-17184634Y-36082142D01*
X-17184634Y-36213095D01*
X-16982253Y-36082142D02*
X-17065586Y-36082142D01*
X-17065586Y-36213095D02*
X-17065586Y-35963095D01*
X-16946539Y-35963095D01*
X-16529872Y-36213095D02*
X-16672729Y-36213095D01*
X-16601300Y-36213095D02*
X-16601300Y-35963095D01*
X-16625110Y-35998809D01*
X-16648920Y-36022619D01*
X-16672729Y-36034523D01*
X-16375110Y-35963095D02*
X-16351300Y-35963095D01*
X-16327491Y-35975000D01*
X-16315586Y-35986904D01*
X-16303681Y-36010714D01*
X-16291777Y-36058333D01*
X-16291777Y-36117857D01*
X-16303681Y-36165476D01*
X-16315586Y-36189285D01*
X-16327491Y-36201190D01*
X-16351300Y-36213095D01*
X-16375110Y-36213095D01*
X-16398920Y-36201190D01*
X-16410824Y-36189285D01*
X-16422729Y-36165476D01*
X-16434634Y-36117857D01*
X-16434634Y-36058333D01*
X-16422729Y-36010714D01*
X-16410824Y-35986904D01*
X-16398920Y-35975000D01*
X-16375110Y-35963095D01*
X-16208443Y-36046428D02*
X-16148920Y-36213095D01*
X-16089396Y-36046428D01*
X-15827491Y-35963095D02*
X-15660824Y-36213095D01*
X-15660824Y-35963095D02*
X-15827491Y-36213095D01*
X-15446539Y-35963095D02*
X-15565586Y-35963095D01*
X-15577491Y-36082142D01*
X-15565586Y-36070238D01*
X-15541777Y-36058333D01*
X-15482253Y-36058333D01*
X-15458443Y-36070238D01*
X-15446539Y-36082142D01*
X-15434634Y-36105952D01*
X-15434634Y-36165476D01*
X-15446539Y-36189285D01*
X-15458443Y-36201190D01*
X-15482253Y-36213095D01*
X-15541777Y-36213095D01*
X-15565586Y-36201190D01*
X-15577491Y-36189285D01*
X-15184634Y-36213095D02*
X-15267967Y-36094047D01*
X-15327491Y-36213095D02*
X-15327491Y-35963095D01*
X-15232253Y-35963095D01*
X-15208443Y-35975000D01*
X-15196539Y-35986904D01*
X-15184634Y-36010714D01*
X-15184634Y-36046428D01*
X-15196539Y-36070238D01*
X-15208443Y-36082142D01*
X-15232253Y-36094047D01*
X-15327491Y-36094047D01*
D11*
D12*
X-16642967Y-35595945D02*
X-16654872Y-35607850D01*
X-16690586Y-35619755D01*
X-16714396Y-35619755D01*
X-16750110Y-35607850D01*
X-16773920Y-35584040D01*
X-16785824Y-35560231D01*
X-16797729Y-35512612D01*
X-16797729Y-35476898D01*
X-16785824Y-35429279D01*
X-16773920Y-35405469D01*
X-16750110Y-35381660D01*
X-16714396Y-35369755D01*
X-16690586Y-35369755D01*
X-16654872Y-35381660D01*
X-16642967Y-35393564D01*
X-16500110Y-35476898D02*
X-16523920Y-35464993D01*
X-16535824Y-35453088D01*
X-16547729Y-35429279D01*
X-16547729Y-35417374D01*
X-16535824Y-35393564D01*
X-16523920Y-35381660D01*
X-16500110Y-35369755D01*
X-16452491Y-35369755D01*
X-16428681Y-35381660D01*
X-16416777Y-35393564D01*
X-16404872Y-35417374D01*
X-16404872Y-35429279D01*
X-16416777Y-35453088D01*
X-16428681Y-35464993D01*
X-16452491Y-35476898D01*
X-16500110Y-35476898D01*
X-16523920Y-35488802D01*
X-16535824Y-35500707D01*
X-16547729Y-35524517D01*
X-16547729Y-35572136D01*
X-16535824Y-35595945D01*
X-16523920Y-35607850D01*
X-16500110Y-35619755D01*
X-16452491Y-35619755D01*
X-16428681Y-35607850D01*
X-16416777Y-35595945D01*
X-16404872Y-35572136D01*
X-16404872Y-35524517D01*
X-16416777Y-35500707D01*
X-16428681Y-35488802D01*
X-16452491Y-35476898D01*
D11*
D12*
X-13943190Y-36413095D02*
X-14086047Y-36413095D01*
X-14014619Y-36413095D02*
X-14014619Y-36163095D01*
X-14038428Y-36198809D01*
X-14062238Y-36222619D01*
X-14086047Y-36234523D01*
X-13788428Y-36163095D02*
X-13764619Y-36163095D01*
X-13740809Y-36175000D01*
X-13728904Y-36186904D01*
X-13717000Y-36210714D01*
X-13705095Y-36258333D01*
X-13705095Y-36317857D01*
X-13717000Y-36365476D01*
X-13728904Y-36389285D01*
X-13740809Y-36401190D01*
X-13764619Y-36413095D01*
X-13788428Y-36413095D01*
X-13812238Y-36401190D01*
X-13824142Y-36389285D01*
X-13836047Y-36365476D01*
X-13847952Y-36317857D01*
X-13847952Y-36258333D01*
X-13836047Y-36210714D01*
X-13824142Y-36186904D01*
X-13812238Y-36175000D01*
X-13788428Y-36163095D01*
X-13550333Y-36163095D02*
X-13526523Y-36163095D01*
X-13502714Y-36175000D01*
X-13490809Y-36186904D01*
X-13478904Y-36210714D01*
X-13467000Y-36258333D01*
X-13467000Y-36317857D01*
X-13478904Y-36365476D01*
X-13490809Y-36389285D01*
X-13502714Y-36401190D01*
X-13526523Y-36413095D01*
X-13550333Y-36413095D01*
X-13574142Y-36401190D01*
X-13586047Y-36389285D01*
X-13597952Y-36365476D01*
X-13609857Y-36317857D01*
X-13609857Y-36258333D01*
X-13597952Y-36210714D01*
X-13586047Y-36186904D01*
X-13574142Y-36175000D01*
X-13550333Y-36163095D01*
X-13359857Y-36246428D02*
X-13359857Y-36413095D01*
X-13359857Y-36270238D02*
X-13347952Y-36258333D01*
X-13324142Y-36246428D01*
X-13288428Y-36246428D01*
X-13264619Y-36258333D01*
X-13252714Y-36282142D01*
X-13252714Y-36413095D01*
X-13050333Y-36282142D02*
X-13133666Y-36282142D01*
X-13133666Y-36413095D02*
X-13133666Y-36163095D01*
X-13014619Y-36163095D01*
X-12597952Y-36413095D02*
X-12740809Y-36413095D01*
X-12669380Y-36413095D02*
X-12669380Y-36163095D01*
X-12693190Y-36198809D01*
X-12717000Y-36222619D01*
X-12740809Y-36234523D01*
X-12443190Y-36163095D02*
X-12419380Y-36163095D01*
X-12395571Y-36175000D01*
X-12383666Y-36186904D01*
X-12371761Y-36210714D01*
X-12359857Y-36258333D01*
X-12359857Y-36317857D01*
X-12371761Y-36365476D01*
X-12383666Y-36389285D01*
X-12395571Y-36401190D01*
X-12419380Y-36413095D01*
X-12443190Y-36413095D01*
X-12467000Y-36401190D01*
X-12478904Y-36389285D01*
X-12490809Y-36365476D01*
X-12502714Y-36317857D01*
X-12502714Y-36258333D01*
X-12490809Y-36210714D01*
X-12478904Y-36186904D01*
X-12467000Y-36175000D01*
X-12443190Y-36163095D01*
X-12276523Y-36246428D02*
X-12217000Y-36413095D01*
X-12157476Y-36246428D01*
X-11895571Y-36163095D02*
X-11728904Y-36413095D01*
X-11728904Y-36163095D02*
X-11895571Y-36413095D01*
X-11514619Y-36163095D02*
X-11633666Y-36163095D01*
X-11645571Y-36282142D01*
X-11633666Y-36270238D01*
X-11609857Y-36258333D01*
X-11550333Y-36258333D01*
X-11526523Y-36270238D01*
X-11514619Y-36282142D01*
X-11502714Y-36305952D01*
X-11502714Y-36365476D01*
X-11514619Y-36389285D01*
X-11526523Y-36401190D01*
X-11550333Y-36413095D01*
X-11609857Y-36413095D01*
X-11633666Y-36401190D01*
X-11645571Y-36389285D01*
X-11252714Y-36413095D02*
X-11336047Y-36294047D01*
X-11395571Y-36413095D02*
X-11395571Y-36163095D01*
X-11300333Y-36163095D01*
X-11276523Y-36175000D01*
X-11264619Y-36186904D01*
X-11252714Y-36210714D01*
X-11252714Y-36246428D01*
X-11264619Y-36270238D01*
X-11276523Y-36282142D01*
X-11300333Y-36294047D01*
X-11395571Y-36294047D01*
D11*
D12*
X-12711047Y-35837245D02*
X-12722952Y-35849150D01*
X-12758666Y-35861055D01*
X-12782476Y-35861055D01*
X-12818190Y-35849150D01*
X-12842000Y-35825340D01*
X-12853904Y-35801531D01*
X-12865809Y-35753912D01*
X-12865809Y-35718198D01*
X-12853904Y-35670579D01*
X-12842000Y-35646769D01*
X-12818190Y-35622960D01*
X-12782476Y-35611055D01*
X-12758666Y-35611055D01*
X-12722952Y-35622960D01*
X-12711047Y-35634864D01*
X-12496761Y-35611055D02*
X-12544380Y-35611055D01*
X-12568190Y-35622960D01*
X-12580095Y-35634864D01*
X-12603904Y-35670579D01*
X-12615809Y-35718198D01*
X-12615809Y-35813436D01*
X-12603904Y-35837245D01*
X-12592000Y-35849150D01*
X-12568190Y-35861055D01*
X-12520571Y-35861055D01*
X-12496761Y-35849150D01*
X-12484857Y-35837245D01*
X-12472952Y-35813436D01*
X-12472952Y-35753912D01*
X-12484857Y-35730102D01*
X-12496761Y-35718198D01*
X-12520571Y-35706293D01*
X-12568190Y-35706293D01*
X-12592000Y-35718198D01*
X-12603904Y-35730102D01*
X-12615809Y-35753912D01*
D11*
D12*
X10898956Y-17486615D02*
X11041813Y-17486615D01*
X10970384Y-17736615D02*
X10970384Y-17486615D01*
X11125146Y-17736615D02*
X11125146Y-17486615D01*
X11220384Y-17486615D01*
X11244194Y-17498520D01*
X11256099Y-17510424D01*
X11268003Y-17534234D01*
X11268003Y-17569948D01*
X11256099Y-17593758D01*
X11244194Y-17605662D01*
X11220384Y-17617567D01*
X11125146Y-17617567D01*
X11351337Y-17486615D02*
X11506099Y-17486615D01*
X11422765Y-17581853D01*
X11458480Y-17581853D01*
X11482289Y-17593758D01*
X11494194Y-17605662D01*
X11506099Y-17629472D01*
X11506099Y-17688996D01*
X11494194Y-17712805D01*
X11482289Y-17724710D01*
X11458480Y-17736615D01*
X11387051Y-17736615D01*
X11363241Y-17724710D01*
X11351337Y-17712805D01*
X11625146Y-17736615D02*
X11672765Y-17736615D01*
X11696575Y-17724710D01*
X11708480Y-17712805D01*
X11732289Y-17677091D01*
X11744194Y-17629472D01*
X11744194Y-17534234D01*
X11732289Y-17510424D01*
X11720384Y-17498520D01*
X11696575Y-17486615D01*
X11648956Y-17486615D01*
X11625146Y-17498520D01*
X11613241Y-17510424D01*
X11601337Y-17534234D01*
X11601337Y-17593758D01*
X11613241Y-17617567D01*
X11625146Y-17629472D01*
X11648956Y-17641377D01*
X11696575Y-17641377D01*
X11720384Y-17629472D01*
X11732289Y-17617567D01*
X11744194Y-17593758D01*
D11*
D12*
X13565476Y-26113095D02*
X13422619Y-26113095D01*
X13494047Y-26113095D02*
X13494047Y-25863095D01*
X13470238Y-25898809D01*
X13446428Y-25922619D01*
X13422619Y-25934523D01*
X13720238Y-25863095D02*
X13744047Y-25863095D01*
X13767857Y-25875000D01*
X13779761Y-25886904D01*
X13791666Y-25910714D01*
X13803571Y-25958333D01*
X13803571Y-26017857D01*
X13791666Y-26065476D01*
X13779761Y-26089285D01*
X13767857Y-26101190D01*
X13744047Y-26113095D01*
X13720238Y-26113095D01*
X13696428Y-26101190D01*
X13684523Y-26089285D01*
X13672619Y-26065476D01*
X13660714Y-26017857D01*
X13660714Y-25958333D01*
X13672619Y-25910714D01*
X13684523Y-25886904D01*
X13696428Y-25875000D01*
X13720238Y-25863095D01*
X13958333Y-25863095D02*
X13982142Y-25863095D01*
X14005952Y-25875000D01*
X14017857Y-25886904D01*
X14029761Y-25910714D01*
X14041666Y-25958333D01*
X14041666Y-26017857D01*
X14029761Y-26065476D01*
X14017857Y-26089285D01*
X14005952Y-26101190D01*
X13982142Y-26113095D01*
X13958333Y-26113095D01*
X13934523Y-26101190D01*
X13922619Y-26089285D01*
X13910714Y-26065476D01*
X13898809Y-26017857D01*
X13898809Y-25958333D01*
X13910714Y-25910714D01*
X13922619Y-25886904D01*
X13934523Y-25875000D01*
X13958333Y-25863095D01*
X14196428Y-25863095D02*
X14220238Y-25863095D01*
X14244047Y-25875000D01*
X14255952Y-25886904D01*
X14267857Y-25910714D01*
X14279761Y-25958333D01*
X14279761Y-26017857D01*
X14267857Y-26065476D01*
X14255952Y-26089285D01*
X14244047Y-26101190D01*
X14220238Y-26113095D01*
X14196428Y-26113095D01*
X14172619Y-26101190D01*
X14160714Y-26089285D01*
X14148809Y-26065476D01*
X14136904Y-26017857D01*
X14136904Y-25958333D01*
X14148809Y-25910714D01*
X14160714Y-25886904D01*
X14172619Y-25875000D01*
X14196428Y-25863095D01*
X14494047Y-25946428D02*
X14494047Y-26113095D01*
X14386904Y-25946428D02*
X14386904Y-26077380D01*
X14398809Y-26101190D01*
X14422619Y-26113095D01*
X14458333Y-26113095D01*
X14482142Y-26101190D01*
X14494047Y-26089285D01*
X14696428Y-25982142D02*
X14613095Y-25982142D01*
X14613095Y-26113095D02*
X14613095Y-25863095D01*
X14732142Y-25863095D01*
X15148809Y-26113095D02*
X15005952Y-26113095D01*
X15077380Y-26113095D02*
X15077380Y-25863095D01*
X15053571Y-25898809D01*
X15029761Y-25922619D01*
X15005952Y-25934523D01*
X15303571Y-25863095D02*
X15327380Y-25863095D01*
X15351190Y-25875000D01*
X15363095Y-25886904D01*
X15375000Y-25910714D01*
X15386904Y-25958333D01*
X15386904Y-26017857D01*
X15375000Y-26065476D01*
X15363095Y-26089285D01*
X15351190Y-26101190D01*
X15327380Y-26113095D01*
X15303571Y-26113095D01*
X15279761Y-26101190D01*
X15267857Y-26089285D01*
X15255952Y-26065476D01*
X15244047Y-26017857D01*
X15244047Y-25958333D01*
X15255952Y-25910714D01*
X15267857Y-25886904D01*
X15279761Y-25875000D01*
X15303571Y-25863095D01*
X15470238Y-25946428D02*
X15529761Y-26113095D01*
X15589285Y-25946428D01*
D11*
D12*
X14410873Y-25408005D02*
X14398968Y-25419910D01*
X14363254Y-25431815D01*
X14339444Y-25431815D01*
X14303730Y-25419910D01*
X14279920Y-25396100D01*
X14268016Y-25372291D01*
X14256111Y-25324672D01*
X14256111Y-25288958D01*
X14268016Y-25241339D01*
X14279920Y-25217529D01*
X14303730Y-25193720D01*
X14339444Y-25181815D01*
X14363254Y-25181815D01*
X14398968Y-25193720D01*
X14410873Y-25205624D01*
X14648968Y-25431815D02*
X14506111Y-25431815D01*
X14577540Y-25431815D02*
X14577540Y-25181815D01*
X14553730Y-25217529D01*
X14529920Y-25241339D01*
X14506111Y-25253243D01*
D11*
D12*
X13565476Y-34713095D02*
X13422619Y-34713095D01*
X13494047Y-34713095D02*
X13494047Y-34463095D01*
X13470238Y-34498809D01*
X13446428Y-34522619D01*
X13422619Y-34534523D01*
X13720238Y-34463095D02*
X13744047Y-34463095D01*
X13767857Y-34475000D01*
X13779761Y-34486904D01*
X13791666Y-34510714D01*
X13803571Y-34558333D01*
X13803571Y-34617857D01*
X13791666Y-34665476D01*
X13779761Y-34689285D01*
X13767857Y-34701190D01*
X13744047Y-34713095D01*
X13720238Y-34713095D01*
X13696428Y-34701190D01*
X13684523Y-34689285D01*
X13672619Y-34665476D01*
X13660714Y-34617857D01*
X13660714Y-34558333D01*
X13672619Y-34510714D01*
X13684523Y-34486904D01*
X13696428Y-34475000D01*
X13720238Y-34463095D01*
X13958333Y-34463095D02*
X13982142Y-34463095D01*
X14005952Y-34475000D01*
X14017857Y-34486904D01*
X14029761Y-34510714D01*
X14041666Y-34558333D01*
X14041666Y-34617857D01*
X14029761Y-34665476D01*
X14017857Y-34689285D01*
X14005952Y-34701190D01*
X13982142Y-34713095D01*
X13958333Y-34713095D01*
X13934523Y-34701190D01*
X13922619Y-34689285D01*
X13910714Y-34665476D01*
X13898809Y-34617857D01*
X13898809Y-34558333D01*
X13910714Y-34510714D01*
X13922619Y-34486904D01*
X13934523Y-34475000D01*
X13958333Y-34463095D01*
X14196428Y-34463095D02*
X14220238Y-34463095D01*
X14244047Y-34475000D01*
X14255952Y-34486904D01*
X14267857Y-34510714D01*
X14279761Y-34558333D01*
X14279761Y-34617857D01*
X14267857Y-34665476D01*
X14255952Y-34689285D01*
X14244047Y-34701190D01*
X14220238Y-34713095D01*
X14196428Y-34713095D01*
X14172619Y-34701190D01*
X14160714Y-34689285D01*
X14148809Y-34665476D01*
X14136904Y-34617857D01*
X14136904Y-34558333D01*
X14148809Y-34510714D01*
X14160714Y-34486904D01*
X14172619Y-34475000D01*
X14196428Y-34463095D01*
X14494047Y-34546428D02*
X14494047Y-34713095D01*
X14386904Y-34546428D02*
X14386904Y-34677380D01*
X14398809Y-34701190D01*
X14422619Y-34713095D01*
X14458333Y-34713095D01*
X14482142Y-34701190D01*
X14494047Y-34689285D01*
X14696428Y-34582142D02*
X14613095Y-34582142D01*
X14613095Y-34713095D02*
X14613095Y-34463095D01*
X14732142Y-34463095D01*
X15148809Y-34713095D02*
X15005952Y-34713095D01*
X15077380Y-34713095D02*
X15077380Y-34463095D01*
X15053571Y-34498809D01*
X15029761Y-34522619D01*
X15005952Y-34534523D01*
X15303571Y-34463095D02*
X15327380Y-34463095D01*
X15351190Y-34475000D01*
X15363095Y-34486904D01*
X15375000Y-34510714D01*
X15386904Y-34558333D01*
X15386904Y-34617857D01*
X15375000Y-34665476D01*
X15363095Y-34689285D01*
X15351190Y-34701190D01*
X15327380Y-34713095D01*
X15303571Y-34713095D01*
X15279761Y-34701190D01*
X15267857Y-34689285D01*
X15255952Y-34665476D01*
X15244047Y-34617857D01*
X15244047Y-34558333D01*
X15255952Y-34510714D01*
X15267857Y-34486904D01*
X15279761Y-34475000D01*
X15303571Y-34463095D01*
X15470238Y-34546428D02*
X15529761Y-34713095D01*
X15589285Y-34546428D01*
D11*
D12*
X14431193Y-34051625D02*
X14419288Y-34063530D01*
X14383574Y-34075435D01*
X14359764Y-34075435D01*
X14324050Y-34063530D01*
X14300240Y-34039720D01*
X14288336Y-34015911D01*
X14276431Y-33968292D01*
X14276431Y-33932578D01*
X14288336Y-33884959D01*
X14300240Y-33861149D01*
X14324050Y-33837340D01*
X14359764Y-33825435D01*
X14383574Y-33825435D01*
X14419288Y-33837340D01*
X14431193Y-33849244D01*
X14526431Y-33849244D02*
X14538336Y-33837340D01*
X14562145Y-33825435D01*
X14621669Y-33825435D01*
X14645479Y-33837340D01*
X14657383Y-33849244D01*
X14669288Y-33873054D01*
X14669288Y-33896863D01*
X14657383Y-33932578D01*
X14514526Y-34075435D01*
X14669288Y-34075435D01*
D11*
D12*
X17463095Y-49327380D02*
X17463095Y-49172619D01*
X17558333Y-49255952D01*
X17558333Y-49220238D01*
X17570238Y-49196428D01*
X17582142Y-49184523D01*
X17605952Y-49172619D01*
X17665476Y-49172619D01*
X17689285Y-49184523D01*
X17701190Y-49196428D01*
X17713095Y-49220238D01*
X17713095Y-49291666D01*
X17701190Y-49315476D01*
X17689285Y-49327380D01*
X17689285Y-49065476D02*
X17701190Y-49053571D01*
X17713095Y-49065476D01*
X17701190Y-49077380D01*
X17689285Y-49065476D01*
X17713095Y-49065476D01*
X17463095Y-48970238D02*
X17463095Y-48815476D01*
X17558333Y-48898809D01*
X17558333Y-48863095D01*
X17570238Y-48839285D01*
X17582142Y-48827380D01*
X17605952Y-48815476D01*
X17665476Y-48815476D01*
X17689285Y-48827380D01*
X17701190Y-48839285D01*
X17713095Y-48863095D01*
X17713095Y-48934523D01*
X17701190Y-48958333D01*
X17689285Y-48970238D01*
X17546428Y-48601190D02*
X17713095Y-48601190D01*
X17546428Y-48708333D02*
X17677380Y-48708333D01*
X17701190Y-48696428D01*
X17713095Y-48672619D01*
X17713095Y-48636904D01*
X17701190Y-48613095D01*
X17689285Y-48601190D01*
X17713095Y-48482142D02*
X17463095Y-48482142D01*
X17582142Y-48482142D02*
X17582142Y-48339285D01*
X17713095Y-48339285D02*
X17463095Y-48339285D01*
X17486904Y-48041666D02*
X17475000Y-48029761D01*
X17463095Y-48005952D01*
X17463095Y-47946428D01*
X17475000Y-47922619D01*
X17486904Y-47910714D01*
X17510714Y-47898809D01*
X17534523Y-47898809D01*
X17570238Y-47910714D01*
X17713095Y-48053571D01*
X17713095Y-47898809D01*
X17641666Y-47803571D02*
X17641666Y-47684523D01*
X17713095Y-47827380D02*
X17463095Y-47744047D01*
X17713095Y-47660714D01*
D11*
D12*
X17214915Y-48543046D02*
X17214915Y-48662094D01*
X16964915Y-48662094D01*
X16988724Y-48471618D02*
X16976820Y-48459713D01*
X16964915Y-48435903D01*
X16964915Y-48376380D01*
X16976820Y-48352570D01*
X16988724Y-48340665D01*
X17012534Y-48328760D01*
X17036343Y-48328760D01*
X17072058Y-48340665D01*
X17214915Y-48483522D01*
X17214915Y-48328760D01*
D11*
D12*
X-12672244Y-12086575D02*
X-12529387Y-12086575D01*
X-12600816Y-12336575D02*
X-12600816Y-12086575D01*
X-12446054Y-12336575D02*
X-12446054Y-12086575D01*
X-12350816Y-12086575D01*
X-12327006Y-12098480D01*
X-12315101Y-12110384D01*
X-12303197Y-12134194D01*
X-12303197Y-12169908D01*
X-12315101Y-12193718D01*
X-12327006Y-12205622D01*
X-12350816Y-12217527D01*
X-12446054Y-12217527D01*
X-12207959Y-12110384D02*
X-12196054Y-12098480D01*
X-12172244Y-12086575D01*
X-12112720Y-12086575D01*
X-12088911Y-12098480D01*
X-12077006Y-12110384D01*
X-12065101Y-12134194D01*
X-12065101Y-12158003D01*
X-12077006Y-12193718D01*
X-12219863Y-12336575D01*
X-12065101Y-12336575D01*
X-11981768Y-12086575D02*
X-11815101Y-12086575D01*
X-11922244Y-12336575D01*
D11*
D12*
X-14434524Y-10363095D02*
X-14291667Y-10363095D01*
X-14363096Y-10613095D02*
X-14363096Y-10363095D01*
X-14208334Y-10613095D02*
X-14208334Y-10363095D01*
X-14113096Y-10363095D01*
X-14089286Y-10375000D01*
X-14077381Y-10386904D01*
X-14065477Y-10410714D01*
X-14065477Y-10446428D01*
X-14077381Y-10470238D01*
X-14089286Y-10482142D01*
X-14113096Y-10494047D01*
X-14208334Y-10494047D01*
X-13970239Y-10386904D02*
X-13958334Y-10375000D01*
X-13934524Y-10363095D01*
X-13875000Y-10363095D01*
X-13851191Y-10375000D01*
X-13839286Y-10386904D01*
X-13827381Y-10410714D01*
X-13827381Y-10434523D01*
X-13839286Y-10470238D01*
X-13982143Y-10613095D01*
X-13827381Y-10613095D01*
X-13613096Y-10363095D02*
X-13660715Y-10363095D01*
X-13684524Y-10375000D01*
X-13696429Y-10386904D01*
X-13720239Y-10422619D01*
X-13732143Y-10470238D01*
X-13732143Y-10565476D01*
X-13720239Y-10589285D01*
X-13708334Y-10601190D01*
X-13684524Y-10613095D01*
X-13636905Y-10613095D01*
X-13613096Y-10601190D01*
X-13601191Y-10589285D01*
X-13589286Y-10565476D01*
X-13589286Y-10505952D01*
X-13601191Y-10482142D01*
X-13613096Y-10470238D01*
X-13636905Y-10458333D01*
X-13684524Y-10458333D01*
X-13708334Y-10470238D01*
X-13720239Y-10482142D01*
X-13732143Y-10505952D01*
D11*
D12*
X-3934524Y-12233095D02*
X-3791667Y-12233095D01*
X-3863096Y-12483095D02*
X-3863096Y-12233095D01*
X-3708334Y-12483095D02*
X-3708334Y-12233095D01*
X-3613096Y-12233095D01*
X-3589286Y-12245000D01*
X-3577381Y-12256904D01*
X-3565477Y-12280714D01*
X-3565477Y-12316428D01*
X-3577381Y-12340238D01*
X-3589286Y-12352142D01*
X-3613096Y-12364047D01*
X-3708334Y-12364047D01*
X-3470239Y-12256904D02*
X-3458334Y-12245000D01*
X-3434524Y-12233095D01*
X-3375000Y-12233095D01*
X-3351191Y-12245000D01*
X-3339286Y-12256904D01*
X-3327381Y-12280714D01*
X-3327381Y-12304523D01*
X-3339286Y-12340238D01*
X-3482143Y-12483095D01*
X-3327381Y-12483095D01*
X-3101191Y-12233095D02*
X-3220239Y-12233095D01*
X-3232143Y-12352142D01*
X-3220239Y-12340238D01*
X-3196429Y-12328333D01*
X-3136905Y-12328333D01*
X-3113096Y-12340238D01*
X-3101191Y-12352142D01*
X-3089286Y-12375952D01*
X-3089286Y-12435476D01*
X-3101191Y-12459285D01*
X-3113096Y-12471190D01*
X-3136905Y-12483095D01*
X-3196429Y-12483095D01*
X-3220239Y-12471190D01*
X-3232143Y-12459285D01*
D11*
D12*
X-5926004Y-10237455D02*
X-5783147Y-10237455D01*
X-5854576Y-10487455D02*
X-5854576Y-10237455D01*
X-5699814Y-10487455D02*
X-5699814Y-10237455D01*
X-5604576Y-10237455D01*
X-5580766Y-10249360D01*
X-5568861Y-10261264D01*
X-5556957Y-10285074D01*
X-5556957Y-10320788D01*
X-5568861Y-10344598D01*
X-5580766Y-10356502D01*
X-5604576Y-10368407D01*
X-5699814Y-10368407D01*
X-5461719Y-10261264D02*
X-5449814Y-10249360D01*
X-5426004Y-10237455D01*
X-5366480Y-10237455D01*
X-5342671Y-10249360D01*
X-5330766Y-10261264D01*
X-5318861Y-10285074D01*
X-5318861Y-10308883D01*
X-5330766Y-10344598D01*
X-5473623Y-10487455D01*
X-5318861Y-10487455D01*
X-5104576Y-10320788D02*
X-5104576Y-10487455D01*
X-5164100Y-10225550D02*
X-5223623Y-10404121D01*
X-5068861Y-10404121D01*
D11*
D12*
X-10113025Y-6688003D02*
X-10113025Y-6545146D01*
X-9863025Y-6616575D02*
X-10113025Y-6616575D01*
X-9863025Y-6461813D02*
X-10113025Y-6461813D01*
X-10113025Y-6366575D01*
X-10101120Y-6342765D01*
X-10089216Y-6330860D01*
X-10065406Y-6318956D01*
X-10029692Y-6318956D01*
X-10005882Y-6330860D01*
X-9993978Y-6342765D01*
X-9982073Y-6366575D01*
X-9982073Y-6461813D01*
X-10113025Y-6235622D02*
X-10113025Y-6080860D01*
X-10017787Y-6164194D01*
X-10017787Y-6128480D01*
X-10005882Y-6104670D01*
X-9993978Y-6092765D01*
X-9970168Y-6080860D01*
X-9910644Y-6080860D01*
X-9886835Y-6092765D01*
X-9874930Y-6104670D01*
X-9863025Y-6128480D01*
X-9863025Y-6199908D01*
X-9874930Y-6223718D01*
X-9886835Y-6235622D01*
X-10113025Y-5997527D02*
X-10113025Y-5842765D01*
X-10017787Y-5926099D01*
X-10017787Y-5890384D01*
X-10005882Y-5866575D01*
X-9993978Y-5854670D01*
X-9970168Y-5842765D01*
X-9910644Y-5842765D01*
X-9886835Y-5854670D01*
X-9874930Y-5866575D01*
X-9863025Y-5890384D01*
X-9863025Y-5961813D01*
X-9874930Y-5985622D01*
X-9886835Y-5997527D01*
D11*
D12*
X-10142404Y-10435575D02*
X-9999547Y-10435575D01*
X-10070976Y-10685575D02*
X-10070976Y-10435575D01*
X-9916214Y-10685575D02*
X-9916214Y-10435575D01*
X-9820976Y-10435575D01*
X-9797166Y-10447480D01*
X-9785261Y-10459384D01*
X-9773357Y-10483194D01*
X-9773357Y-10518908D01*
X-9785261Y-10542718D01*
X-9797166Y-10554622D01*
X-9820976Y-10566527D01*
X-9916214Y-10566527D01*
X-9678119Y-10459384D02*
X-9666214Y-10447480D01*
X-9642404Y-10435575D01*
X-9582880Y-10435575D01*
X-9559071Y-10447480D01*
X-9547166Y-10459384D01*
X-9535261Y-10483194D01*
X-9535261Y-10507003D01*
X-9547166Y-10542718D01*
X-9690023Y-10685575D01*
X-9535261Y-10685575D01*
X-9392404Y-10542718D02*
X-9416214Y-10530813D01*
X-9428119Y-10518908D01*
X-9440023Y-10495099D01*
X-9440023Y-10483194D01*
X-9428119Y-10459384D01*
X-9416214Y-10447480D01*
X-9392404Y-10435575D01*
X-9344785Y-10435575D01*
X-9320976Y-10447480D01*
X-9309071Y-10459384D01*
X-9297166Y-10483194D01*
X-9297166Y-10495099D01*
X-9309071Y-10518908D01*
X-9320976Y-10530813D01*
X-9344785Y-10542718D01*
X-9392404Y-10542718D01*
X-9416214Y-10554622D01*
X-9428119Y-10566527D01*
X-9440023Y-10590337D01*
X-9440023Y-10637956D01*
X-9428119Y-10661765D01*
X-9416214Y-10673670D01*
X-9392404Y-10685575D01*
X-9344785Y-10685575D01*
X-9320976Y-10673670D01*
X-9309071Y-10661765D01*
X-9297166Y-10637956D01*
X-9297166Y-10590337D01*
X-9309071Y-10566527D01*
X-9320976Y-10554622D01*
X-9344785Y-10542718D01*
D11*
D12*
X-15933604Y-8101315D02*
X-15790747Y-8101315D01*
X-15862176Y-8351315D02*
X-15862176Y-8101315D01*
X-15707414Y-8351315D02*
X-15707414Y-8101315D01*
X-15612176Y-8101315D01*
X-15588366Y-8113220D01*
X-15576461Y-8125124D01*
X-15564557Y-8148934D01*
X-15564557Y-8184648D01*
X-15576461Y-8208458D01*
X-15588366Y-8220362D01*
X-15612176Y-8232267D01*
X-15707414Y-8232267D01*
X-15469319Y-8125124D02*
X-15457414Y-8113220D01*
X-15433604Y-8101315D01*
X-15374080Y-8101315D01*
X-15350271Y-8113220D01*
X-15338366Y-8125124D01*
X-15326461Y-8148934D01*
X-15326461Y-8172743D01*
X-15338366Y-8208458D01*
X-15481223Y-8351315D01*
X-15326461Y-8351315D01*
X-15207414Y-8351315D02*
X-15159795Y-8351315D01*
X-15135985Y-8339410D01*
X-15124080Y-8327505D01*
X-15100271Y-8291791D01*
X-15088366Y-8244172D01*
X-15088366Y-8148934D01*
X-15100271Y-8125124D01*
X-15112176Y-8113220D01*
X-15135985Y-8101315D01*
X-15183604Y-8101315D01*
X-15207414Y-8113220D01*
X-15219319Y-8125124D01*
X-15231223Y-8148934D01*
X-15231223Y-8208458D01*
X-15219319Y-8232267D01*
X-15207414Y-8244172D01*
X-15183604Y-8256077D01*
X-15135985Y-8256077D01*
X-15112176Y-8244172D01*
X-15100271Y-8232267D01*
X-15088366Y-8208458D01*
D11*
D12*
X-4620444Y-35479975D02*
X-4477587Y-35479975D01*
X-4549016Y-35729975D02*
X-4549016Y-35479975D01*
X-4394254Y-35729975D02*
X-4394254Y-35479975D01*
X-4299016Y-35479975D01*
X-4275206Y-35491880D01*
X-4263301Y-35503784D01*
X-4251397Y-35527594D01*
X-4251397Y-35563308D01*
X-4263301Y-35587118D01*
X-4275206Y-35599022D01*
X-4299016Y-35610927D01*
X-4394254Y-35610927D01*
X-4013301Y-35729975D02*
X-4156159Y-35729975D01*
X-4084730Y-35729975D02*
X-4084730Y-35479975D01*
X-4108540Y-35515689D01*
X-4132349Y-35539499D01*
X-4156159Y-35551403D01*
X-3799016Y-35479975D02*
X-3846635Y-35479975D01*
X-3870444Y-35491880D01*
X-3882349Y-35503784D01*
X-3906159Y-35539499D01*
X-3918063Y-35587118D01*
X-3918063Y-35682356D01*
X-3906159Y-35706165D01*
X-3894254Y-35718070D01*
X-3870444Y-35729975D01*
X-3822825Y-35729975D01*
X-3799016Y-35718070D01*
X-3787111Y-35706165D01*
X-3775206Y-35682356D01*
X-3775206Y-35622832D01*
X-3787111Y-35599022D01*
X-3799016Y-35587118D01*
X-3822825Y-35575213D01*
X-3870444Y-35575213D01*
X-3894254Y-35587118D01*
X-3906159Y-35599022D01*
X-3918063Y-35622832D01*
D11*
D12*
X-11575477Y-39003095D02*
X-11432620Y-39003095D01*
X-11504048Y-39253095D02*
X-11504048Y-39003095D01*
X-11349286Y-39253095D02*
X-11349286Y-39003095D01*
X-11254048Y-39003095D01*
X-11230239Y-39015000D01*
X-11218334Y-39026904D01*
X-11206429Y-39050714D01*
X-11206429Y-39086428D01*
X-11218334Y-39110238D01*
X-11230239Y-39122142D01*
X-11254048Y-39134047D01*
X-11349286Y-39134047D01*
X-10992143Y-39003095D02*
X-11039762Y-39003095D01*
X-11063572Y-39015000D01*
X-11075477Y-39026904D01*
X-11099286Y-39062619D01*
X-11111191Y-39110238D01*
X-11111191Y-39205476D01*
X-11099286Y-39229285D01*
X-11087381Y-39241190D01*
X-11063572Y-39253095D01*
X-11015953Y-39253095D01*
X-10992143Y-39241190D01*
X-10980239Y-39229285D01*
X-10968334Y-39205476D01*
X-10968334Y-39145952D01*
X-10980239Y-39122142D01*
X-10992143Y-39110238D01*
X-11015953Y-39098333D01*
X-11063572Y-39098333D01*
X-11087381Y-39110238D01*
X-11099286Y-39122142D01*
X-11111191Y-39145952D01*
D11*
D12*
X-6657524Y-33940735D02*
X-6514667Y-33940735D01*
X-6586096Y-34190735D02*
X-6586096Y-33940735D01*
X-6431334Y-34190735D02*
X-6431334Y-33940735D01*
X-6336096Y-33940735D01*
X-6312286Y-33952640D01*
X-6300381Y-33964544D01*
X-6288477Y-33988354D01*
X-6288477Y-34024068D01*
X-6300381Y-34047878D01*
X-6312286Y-34059782D01*
X-6336096Y-34071687D01*
X-6431334Y-34071687D01*
X-6050381Y-34190735D02*
X-6193239Y-34190735D01*
X-6121810Y-34190735D02*
X-6121810Y-33940735D01*
X-6145620Y-33976449D01*
X-6169429Y-34000259D01*
X-6193239Y-34012163D01*
X-5824191Y-33940735D02*
X-5943239Y-33940735D01*
X-5955143Y-34059782D01*
X-5943239Y-34047878D01*
X-5919429Y-34035973D01*
X-5859905Y-34035973D01*
X-5836096Y-34047878D01*
X-5824191Y-34059782D01*
X-5812286Y-34083592D01*
X-5812286Y-34143116D01*
X-5824191Y-34166925D01*
X-5836096Y-34178830D01*
X-5859905Y-34190735D01*
X-5919429Y-34190735D01*
X-5943239Y-34178830D01*
X-5955143Y-34166925D01*
D11*
D12*
X-8633644Y-33392095D02*
X-8490787Y-33392095D01*
X-8562216Y-33642095D02*
X-8562216Y-33392095D01*
X-8407454Y-33642095D02*
X-8407454Y-33392095D01*
X-8312216Y-33392095D01*
X-8288406Y-33404000D01*
X-8276501Y-33415904D01*
X-8264597Y-33439714D01*
X-8264597Y-33475428D01*
X-8276501Y-33499238D01*
X-8288406Y-33511142D01*
X-8312216Y-33523047D01*
X-8407454Y-33523047D01*
X-8026501Y-33642095D02*
X-8169359Y-33642095D01*
X-8097930Y-33642095D02*
X-8097930Y-33392095D01*
X-8121740Y-33427809D01*
X-8145549Y-33451619D01*
X-8169359Y-33463523D01*
X-7812216Y-33475428D02*
X-7812216Y-33642095D01*
X-7871740Y-33380190D02*
X-7931263Y-33558761D01*
X-7776501Y-33558761D01*
D11*
D12*
X-10685964Y-33313355D02*
X-10543107Y-33313355D01*
X-10614536Y-33563355D02*
X-10614536Y-33313355D01*
X-10459774Y-33563355D02*
X-10459774Y-33313355D01*
X-10364536Y-33313355D01*
X-10340726Y-33325260D01*
X-10328821Y-33337164D01*
X-10316917Y-33360974D01*
X-10316917Y-33396688D01*
X-10328821Y-33420498D01*
X-10340726Y-33432402D01*
X-10364536Y-33444307D01*
X-10459774Y-33444307D01*
X-10078821Y-33563355D02*
X-10221679Y-33563355D01*
X-10150250Y-33563355D02*
X-10150250Y-33313355D01*
X-10174060Y-33349069D01*
X-10197869Y-33372879D01*
X-10221679Y-33384783D01*
X-9995488Y-33313355D02*
X-9840726Y-33313355D01*
X-9924060Y-33408593D01*
X-9888345Y-33408593D01*
X-9864536Y-33420498D01*
X-9852631Y-33432402D01*
X-9840726Y-33456212D01*
X-9840726Y-33515736D01*
X-9852631Y-33539545D01*
X-9864536Y-33551450D01*
X-9888345Y-33563355D01*
X-9959774Y-33563355D01*
X-9983583Y-33551450D01*
X-9995488Y-33539545D01*
D11*
D12*
X-19135477Y-36343095D02*
X-18992620Y-36343095D01*
X-19064048Y-36593095D02*
X-19064048Y-36343095D01*
X-18909286Y-36593095D02*
X-18909286Y-36343095D01*
X-18814048Y-36343095D01*
X-18790239Y-36355000D01*
X-18778334Y-36366904D01*
X-18766429Y-36390714D01*
X-18766429Y-36426428D01*
X-18778334Y-36450238D01*
X-18790239Y-36462142D01*
X-18814048Y-36474047D01*
X-18909286Y-36474047D01*
X-18647381Y-36593095D02*
X-18599762Y-36593095D01*
X-18575953Y-36581190D01*
X-18564048Y-36569285D01*
X-18540239Y-36533571D01*
X-18528334Y-36485952D01*
X-18528334Y-36390714D01*
X-18540239Y-36366904D01*
X-18552143Y-36355000D01*
X-18575953Y-36343095D01*
X-18623572Y-36343095D01*
X-18647381Y-36355000D01*
X-18659286Y-36366904D01*
X-18671191Y-36390714D01*
X-18671191Y-36450238D01*
X-18659286Y-36474047D01*
X-18647381Y-36485952D01*
X-18623572Y-36497857D01*
X-18575953Y-36497857D01*
X-18552143Y-36485952D01*
X-18540239Y-36474047D01*
X-18528334Y-36450238D01*
D11*
D12*
X2800335Y-16002516D02*
X2800335Y-15859659D01*
X3050335Y-15931087D02*
X2800335Y-15931087D01*
X3050335Y-15776325D02*
X2800335Y-15776325D01*
X2800335Y-15681087D01*
X2812240Y-15657278D01*
X2824144Y-15645373D01*
X2847954Y-15633468D01*
X2883668Y-15633468D01*
X2907478Y-15645373D01*
X2919382Y-15657278D01*
X2931287Y-15681087D01*
X2931287Y-15776325D01*
X2800335Y-15550135D02*
X2800335Y-15383468D01*
X3050335Y-15490611D01*
D11*
D12*
X15983703Y-18030175D02*
X16126560Y-18030175D01*
X16055132Y-18280175D02*
X16055132Y-18030175D01*
X16209894Y-18280175D02*
X16209894Y-18030175D01*
X16305132Y-18030175D01*
X16328941Y-18042080D01*
X16340846Y-18053984D01*
X16352751Y-18077794D01*
X16352751Y-18113508D01*
X16340846Y-18137318D01*
X16328941Y-18149222D01*
X16305132Y-18161127D01*
X16209894Y-18161127D01*
X16436084Y-18030175D02*
X16590846Y-18030175D01*
X16507513Y-18125413D01*
X16543227Y-18125413D01*
X16567037Y-18137318D01*
X16578941Y-18149222D01*
X16590846Y-18173032D01*
X16590846Y-18232556D01*
X16578941Y-18256365D01*
X16567037Y-18268270D01*
X16543227Y-18280175D01*
X16471799Y-18280175D01*
X16447989Y-18268270D01*
X16436084Y-18256365D01*
D11*
D12*
X12233333Y-45513095D02*
X12233333Y-45263095D01*
X12233333Y-45382142D02*
X12376190Y-45382142D01*
X12376190Y-45513095D02*
X12376190Y-45263095D01*
X12471428Y-45263095D02*
X12638095Y-45513095D01*
X12638095Y-45263095D02*
X12471428Y-45513095D01*
X12709523Y-45263095D02*
X12864285Y-45263095D01*
X12780952Y-45358333D01*
X12816666Y-45358333D01*
X12840476Y-45370238D01*
X12852380Y-45382142D01*
X12864285Y-45405952D01*
X12864285Y-45465476D01*
X12852380Y-45489285D01*
X12840476Y-45501190D01*
X12816666Y-45513095D01*
X12745238Y-45513095D01*
X12721428Y-45501190D01*
X12709523Y-45489285D01*
X13078571Y-45346428D02*
X13078571Y-45513095D01*
X13019047Y-45251190D02*
X12959523Y-45429761D01*
X13114285Y-45429761D01*
X13257142Y-45263095D02*
X13280952Y-45263095D01*
X13304761Y-45275000D01*
X13316666Y-45286904D01*
X13328571Y-45310714D01*
X13340476Y-45358333D01*
X13340476Y-45417857D01*
X13328571Y-45465476D01*
X13316666Y-45489285D01*
X13304761Y-45501190D01*
X13280952Y-45513095D01*
X13257142Y-45513095D01*
X13233333Y-45501190D01*
X13221428Y-45489285D01*
X13209523Y-45465476D01*
X13197619Y-45417857D01*
X13197619Y-45358333D01*
X13209523Y-45310714D01*
X13221428Y-45286904D01*
X13233333Y-45275000D01*
X13257142Y-45263095D01*
X13554761Y-45263095D02*
X13507142Y-45263095D01*
X13483333Y-45275000D01*
X13471428Y-45286904D01*
X13447619Y-45322619D01*
X13435714Y-45370238D01*
X13435714Y-45465476D01*
X13447619Y-45489285D01*
X13459523Y-45501190D01*
X13483333Y-45513095D01*
X13530952Y-45513095D01*
X13554761Y-45501190D01*
X13566666Y-45489285D01*
X13578571Y-45465476D01*
X13578571Y-45405952D01*
X13566666Y-45382142D01*
X13554761Y-45370238D01*
X13530952Y-45358333D01*
X13483333Y-45358333D01*
X13459523Y-45370238D01*
X13447619Y-45382142D01*
X13435714Y-45405952D01*
D11*
D12*
X12735543Y-44789975D02*
X12735543Y-44992356D01*
X12747448Y-45016165D01*
X12759353Y-45028070D01*
X12783162Y-45039975D01*
X12830781Y-45039975D01*
X12854591Y-45028070D01*
X12866496Y-45016165D01*
X12878400Y-44992356D01*
X12878400Y-44789975D01*
X13128400Y-45039975D02*
X12985543Y-45039975D01*
X13056972Y-45039975D02*
X13056972Y-44789975D01*
X13033162Y-44825689D01*
X13009353Y-44849499D01*
X12985543Y-44861403D01*
D11*
D12*
X11170238Y-43522619D02*
X11158333Y-43546428D01*
X11146428Y-43558333D01*
X11122619Y-43570238D01*
X11110714Y-43570238D01*
X11086904Y-43558333D01*
X11075000Y-43546428D01*
X11063095Y-43522619D01*
X11063095Y-43475000D01*
X11075000Y-43451190D01*
X11086904Y-43439285D01*
X11110714Y-43427380D01*
X11122619Y-43427380D01*
X11146428Y-43439285D01*
X11158333Y-43451190D01*
X11170238Y-43475000D01*
X11170238Y-43522619D01*
X11182142Y-43546428D01*
X11194047Y-43558333D01*
X11217857Y-43570238D01*
X11265476Y-43570238D01*
X11289285Y-43558333D01*
X11301190Y-43546428D01*
X11313095Y-43522619D01*
X11313095Y-43475000D01*
X11301190Y-43451190D01*
X11289285Y-43439285D01*
X11265476Y-43427380D01*
X11217857Y-43427380D01*
X11194047Y-43439285D01*
X11182142Y-43451190D01*
X11170238Y-43475000D01*
X11289285Y-43320238D02*
X11301190Y-43308333D01*
X11313095Y-43320238D01*
X11301190Y-43332142D01*
X11289285Y-43320238D01*
X11313095Y-43320238D01*
X11170238Y-43165476D02*
X11158333Y-43189285D01*
X11146428Y-43201190D01*
X11122619Y-43213095D01*
X11110714Y-43213095D01*
X11086904Y-43201190D01*
X11075000Y-43189285D01*
X11063095Y-43165476D01*
X11063095Y-43117857D01*
X11075000Y-43094047D01*
X11086904Y-43082142D01*
X11110714Y-43070238D01*
X11122619Y-43070238D01*
X11146428Y-43082142D01*
X11158333Y-43094047D01*
X11170238Y-43117857D01*
X11170238Y-43165476D01*
X11182142Y-43189285D01*
X11194047Y-43201190D01*
X11217857Y-43213095D01*
X11265476Y-43213095D01*
X11289285Y-43201190D01*
X11301190Y-43189285D01*
X11313095Y-43165476D01*
X11313095Y-43117857D01*
X11301190Y-43094047D01*
X11289285Y-43082142D01*
X11265476Y-43070238D01*
X11217857Y-43070238D01*
X11194047Y-43082142D01*
X11182142Y-43094047D01*
X11170238Y-43117857D01*
X11063095Y-42986904D02*
X11063095Y-42820238D01*
X11313095Y-42927380D01*
X11313095Y-42725000D02*
X11063095Y-42725000D01*
X11217857Y-42701190D02*
X11313095Y-42629761D01*
X11146428Y-42629761D02*
X11241666Y-42725000D01*
D11*
D12*
X10768395Y-43155486D02*
X10649347Y-43238820D01*
X10768395Y-43298343D02*
X10518395Y-43298343D01*
X10518395Y-43203105D01*
X10530300Y-43179296D01*
X10542204Y-43167391D01*
X10566014Y-43155486D01*
X10601728Y-43155486D01*
X10625538Y-43167391D01*
X10637442Y-43179296D01*
X10649347Y-43203105D01*
X10649347Y-43298343D01*
X10625538Y-43012629D02*
X10613633Y-43036439D01*
X10601728Y-43048343D01*
X10577919Y-43060248D01*
X10566014Y-43060248D01*
X10542204Y-43048343D01*
X10530300Y-43036439D01*
X10518395Y-43012629D01*
X10518395Y-42965010D01*
X10530300Y-42941200D01*
X10542204Y-42929296D01*
X10566014Y-42917391D01*
X10577919Y-42917391D01*
X10601728Y-42929296D01*
X10613633Y-42941200D01*
X10625538Y-42965010D01*
X10625538Y-43012629D01*
X10637442Y-43036439D01*
X10649347Y-43048343D01*
X10673157Y-43060248D01*
X10720776Y-43060248D01*
X10744585Y-43048343D01*
X10756490Y-43036439D01*
X10768395Y-43012629D01*
X10768395Y-42965010D01*
X10756490Y-42941200D01*
X10744585Y-42929296D01*
X10720776Y-42917391D01*
X10673157Y-42917391D01*
X10649347Y-42929296D01*
X10637442Y-42941200D01*
X10625538Y-42965010D01*
D11*
D12*
X9848809Y-44046428D02*
X9848809Y-44213095D01*
X9789285Y-43951190D02*
X9729761Y-44129761D01*
X9884523Y-44129761D01*
X10027380Y-43963095D02*
X10051190Y-43963095D01*
X10075000Y-43975000D01*
X10086904Y-43986904D01*
X10098809Y-44010714D01*
X10110714Y-44058333D01*
X10110714Y-44117857D01*
X10098809Y-44165476D01*
X10086904Y-44189285D01*
X10075000Y-44201190D01*
X10051190Y-44213095D01*
X10027380Y-44213095D01*
X10003571Y-44201190D01*
X9991666Y-44189285D01*
X9979761Y-44165476D01*
X9967857Y-44117857D01*
X9967857Y-44058333D01*
X9979761Y-44010714D01*
X9991666Y-43986904D01*
X10003571Y-43975000D01*
X10027380Y-43963095D01*
X10217857Y-44189285D02*
X10229761Y-44201190D01*
X10217857Y-44213095D01*
X10205952Y-44201190D01*
X10217857Y-44189285D01*
X10217857Y-44213095D01*
X10325000Y-43986904D02*
X10336904Y-43975000D01*
X10360714Y-43963095D01*
X10420238Y-43963095D01*
X10444047Y-43975000D01*
X10455952Y-43986904D01*
X10467857Y-44010714D01*
X10467857Y-44034523D01*
X10455952Y-44070238D01*
X10313095Y-44213095D01*
X10467857Y-44213095D01*
X10575000Y-44213095D02*
X10575000Y-43963095D01*
X10598809Y-44117857D02*
X10670238Y-44213095D01*
X10670238Y-44046428D02*
X10575000Y-44141666D01*
D11*
D12*
X10141193Y-44738355D02*
X10057860Y-44619307D01*
X9998336Y-44738355D02*
X9998336Y-44488355D01*
X10093574Y-44488355D01*
X10117383Y-44500260D01*
X10129288Y-44512164D01*
X10141193Y-44535974D01*
X10141193Y-44571688D01*
X10129288Y-44595498D01*
X10117383Y-44607402D01*
X10093574Y-44619307D01*
X9998336Y-44619307D01*
X10224526Y-44488355D02*
X10391193Y-44488355D01*
X10284050Y-44738355D01*
D11*
D12*
X12115269Y-48246428D02*
X12115269Y-48413095D01*
X12055745Y-48151190D02*
X11996221Y-48329761D01*
X12150983Y-48329761D01*
X12293840Y-48163095D02*
X12317650Y-48163095D01*
X12341460Y-48175000D01*
X12353364Y-48186904D01*
X12365269Y-48210714D01*
X12377174Y-48258333D01*
X12377174Y-48317857D01*
X12365269Y-48365476D01*
X12353364Y-48389285D01*
X12341460Y-48401190D01*
X12317650Y-48413095D01*
X12293840Y-48413095D01*
X12270031Y-48401190D01*
X12258126Y-48389285D01*
X12246221Y-48365476D01*
X12234317Y-48317857D01*
X12234317Y-48258333D01*
X12246221Y-48210714D01*
X12258126Y-48186904D01*
X12270031Y-48175000D01*
X12293840Y-48163095D01*
X12484317Y-48389285D02*
X12496221Y-48401190D01*
X12484317Y-48413095D01*
X12472412Y-48401190D01*
X12484317Y-48389285D01*
X12484317Y-48413095D01*
X12591460Y-48186904D02*
X12603364Y-48175000D01*
X12627174Y-48163095D01*
X12686698Y-48163095D01*
X12710507Y-48175000D01*
X12722412Y-48186904D01*
X12734317Y-48210714D01*
X12734317Y-48234523D01*
X12722412Y-48270238D01*
X12579555Y-48413095D01*
X12734317Y-48413095D01*
X12841460Y-48413095D02*
X12841460Y-48163095D01*
X12865269Y-48317857D02*
X12936698Y-48413095D01*
X12936698Y-48246428D02*
X12841460Y-48341666D01*
D11*
D12*
X12424793Y-47905735D02*
X12341460Y-47786687D01*
X12281936Y-47905735D02*
X12281936Y-47655735D01*
X12377174Y-47655735D01*
X12400983Y-47667640D01*
X12412888Y-47679544D01*
X12424793Y-47703354D01*
X12424793Y-47739068D01*
X12412888Y-47762878D01*
X12400983Y-47774782D01*
X12377174Y-47786687D01*
X12281936Y-47786687D01*
X12662888Y-47905735D02*
X12520031Y-47905735D01*
X12591460Y-47905735D02*
X12591460Y-47655735D01*
X12567650Y-47691449D01*
X12543840Y-47715259D01*
X12520031Y-47727163D01*
D11*
D12*
X5631316Y-39813095D02*
X5488459Y-39813095D01*
X5559887Y-39813095D02*
X5559887Y-39563095D01*
X5536078Y-39598809D01*
X5512268Y-39622619D01*
X5488459Y-39634523D01*
X5786078Y-39563095D02*
X5809887Y-39563095D01*
X5833697Y-39575000D01*
X5845601Y-39586904D01*
X5857506Y-39610714D01*
X5869411Y-39658333D01*
X5869411Y-39717857D01*
X5857506Y-39765476D01*
X5845601Y-39789285D01*
X5833697Y-39801190D01*
X5809887Y-39813095D01*
X5786078Y-39813095D01*
X5762268Y-39801190D01*
X5750363Y-39789285D01*
X5738459Y-39765476D01*
X5726554Y-39717857D01*
X5726554Y-39658333D01*
X5738459Y-39610714D01*
X5750363Y-39586904D01*
X5762268Y-39575000D01*
X5786078Y-39563095D01*
X6024173Y-39563095D02*
X6047982Y-39563095D01*
X6071792Y-39575000D01*
X6083697Y-39586904D01*
X6095601Y-39610714D01*
X6107506Y-39658333D01*
X6107506Y-39717857D01*
X6095601Y-39765476D01*
X6083697Y-39789285D01*
X6071792Y-39801190D01*
X6047982Y-39813095D01*
X6024173Y-39813095D01*
X6000363Y-39801190D01*
X5988459Y-39789285D01*
X5976554Y-39765476D01*
X5964649Y-39717857D01*
X5964649Y-39658333D01*
X5976554Y-39610714D01*
X5988459Y-39586904D01*
X6000363Y-39575000D01*
X6024173Y-39563095D01*
X6262268Y-39563095D02*
X6286078Y-39563095D01*
X6309887Y-39575000D01*
X6321792Y-39586904D01*
X6333697Y-39610714D01*
X6345601Y-39658333D01*
X6345601Y-39717857D01*
X6333697Y-39765476D01*
X6321792Y-39789285D01*
X6309887Y-39801190D01*
X6286078Y-39813095D01*
X6262268Y-39813095D01*
X6238459Y-39801190D01*
X6226554Y-39789285D01*
X6214649Y-39765476D01*
X6202744Y-39717857D01*
X6202744Y-39658333D01*
X6214649Y-39610714D01*
X6226554Y-39586904D01*
X6238459Y-39575000D01*
X6262268Y-39563095D01*
X6559887Y-39646428D02*
X6559887Y-39813095D01*
X6452744Y-39646428D02*
X6452744Y-39777380D01*
X6464649Y-39801190D01*
X6488459Y-39813095D01*
X6524173Y-39813095D01*
X6547982Y-39801190D01*
X6559887Y-39789285D01*
X6762268Y-39682142D02*
X6678935Y-39682142D01*
X6678935Y-39813095D02*
X6678935Y-39563095D01*
X6797982Y-39563095D01*
X7214649Y-39813095D02*
X7071792Y-39813095D01*
X7143220Y-39813095D02*
X7143220Y-39563095D01*
X7119411Y-39598809D01*
X7095601Y-39622619D01*
X7071792Y-39634523D01*
X7369411Y-39563095D02*
X7393220Y-39563095D01*
X7417030Y-39575000D01*
X7428935Y-39586904D01*
X7440840Y-39610714D01*
X7452744Y-39658333D01*
X7452744Y-39717857D01*
X7440840Y-39765476D01*
X7428935Y-39789285D01*
X7417030Y-39801190D01*
X7393220Y-39813095D01*
X7369411Y-39813095D01*
X7345601Y-39801190D01*
X7333697Y-39789285D01*
X7321792Y-39765476D01*
X7309887Y-39717857D01*
X7309887Y-39658333D01*
X7321792Y-39610714D01*
X7333697Y-39586904D01*
X7345601Y-39575000D01*
X7369411Y-39563095D01*
X7536078Y-39646428D02*
X7595601Y-39813095D01*
X7655125Y-39646428D01*
D11*
D12*
X6339285Y-39089285D02*
X6327380Y-39101190D01*
X6291666Y-39113095D01*
X6267857Y-39113095D01*
X6232142Y-39101190D01*
X6208333Y-39077380D01*
X6196428Y-39053571D01*
X6184523Y-39005952D01*
X6184523Y-38970238D01*
X6196428Y-38922619D01*
X6208333Y-38898809D01*
X6232142Y-38875000D01*
X6267857Y-38863095D01*
X6291666Y-38863095D01*
X6327380Y-38875000D01*
X6339285Y-38886904D01*
X6434523Y-38886904D02*
X6446428Y-38875000D01*
X6470238Y-38863095D01*
X6529761Y-38863095D01*
X6553571Y-38875000D01*
X6565476Y-38886904D01*
X6577380Y-38910714D01*
X6577380Y-38934523D01*
X6565476Y-38970238D01*
X6422619Y-39113095D01*
X6577380Y-39113095D01*
X6815476Y-39113095D02*
X6672619Y-39113095D01*
X6744047Y-39113095D02*
X6744047Y-38863095D01*
X6720238Y-38898809D01*
X6696428Y-38922619D01*
X6672619Y-38934523D01*
D11*
D12*
X14813095Y-51965161D02*
X14813095Y-52108019D01*
X14813095Y-52036590D02*
X14563095Y-52036590D01*
X14598809Y-52060400D01*
X14622619Y-52084209D01*
X14634523Y-52108019D01*
X14563095Y-51810400D02*
X14563095Y-51786590D01*
X14575000Y-51762780D01*
X14586904Y-51750876D01*
X14610714Y-51738971D01*
X14658333Y-51727066D01*
X14717857Y-51727066D01*
X14765476Y-51738971D01*
X14789285Y-51750876D01*
X14801190Y-51762780D01*
X14813095Y-51786590D01*
X14813095Y-51810400D01*
X14801190Y-51834209D01*
X14789285Y-51846114D01*
X14765476Y-51858019D01*
X14717857Y-51869923D01*
X14658333Y-51869923D01*
X14610714Y-51858019D01*
X14586904Y-51846114D01*
X14575000Y-51834209D01*
X14563095Y-51810400D01*
X14646428Y-51512780D02*
X14813095Y-51512780D01*
X14646428Y-51619923D02*
X14777380Y-51619923D01*
X14801190Y-51608019D01*
X14813095Y-51584209D01*
X14813095Y-51548495D01*
X14801190Y-51524685D01*
X14789285Y-51512780D01*
X14682142Y-51310400D02*
X14682142Y-51393733D01*
X14813095Y-51393733D02*
X14563095Y-51393733D01*
X14563095Y-51274685D01*
X14813095Y-50858019D02*
X14813095Y-51000876D01*
X14813095Y-50929447D02*
X14563095Y-50929447D01*
X14598809Y-50953257D01*
X14622619Y-50977066D01*
X14634523Y-51000876D01*
X14563095Y-50643733D02*
X14563095Y-50691352D01*
X14575000Y-50715161D01*
X14586904Y-50727066D01*
X14622619Y-50750876D01*
X14670238Y-50762780D01*
X14765476Y-50762780D01*
X14789285Y-50750876D01*
X14801190Y-50738971D01*
X14813095Y-50715161D01*
X14813095Y-50667542D01*
X14801190Y-50643733D01*
X14789285Y-50631828D01*
X14765476Y-50619923D01*
X14705952Y-50619923D01*
X14682142Y-50631828D01*
X14670238Y-50643733D01*
X14658333Y-50667542D01*
X14658333Y-50715161D01*
X14670238Y-50738971D01*
X14682142Y-50750876D01*
X14705952Y-50762780D01*
X14646428Y-50536590D02*
X14813095Y-50477066D01*
X14646428Y-50417542D01*
X14563095Y-50155638D02*
X14813095Y-49988971D01*
X14563095Y-49988971D02*
X14813095Y-50155638D01*
X14563095Y-49917542D02*
X14563095Y-49750876D01*
X14813095Y-49858019D01*
X14813095Y-49512780D02*
X14694047Y-49596114D01*
X14813095Y-49655638D02*
X14563095Y-49655638D01*
X14563095Y-49560400D01*
X14575000Y-49536590D01*
X14586904Y-49524685D01*
X14610714Y-49512780D01*
X14646428Y-49512780D01*
X14670238Y-49524685D01*
X14682142Y-49536590D01*
X14694047Y-49560400D01*
X14694047Y-49655638D01*
D11*
D12*
X13871325Y-50971114D02*
X13883230Y-50983019D01*
X13895135Y-51018733D01*
X13895135Y-51042542D01*
X13883230Y-51078257D01*
X13859420Y-51102066D01*
X13835611Y-51113971D01*
X13787992Y-51125876D01*
X13752278Y-51125876D01*
X13704659Y-51113971D01*
X13680849Y-51102066D01*
X13657040Y-51078257D01*
X13645135Y-51042542D01*
X13645135Y-51018733D01*
X13657040Y-50983019D01*
X13668944Y-50971114D01*
X13668944Y-50875876D02*
X13657040Y-50863971D01*
X13645135Y-50840161D01*
X13645135Y-50780638D01*
X13657040Y-50756828D01*
X13668944Y-50744923D01*
X13692754Y-50733019D01*
X13716563Y-50733019D01*
X13752278Y-50744923D01*
X13895135Y-50887780D01*
X13895135Y-50733019D01*
X13645135Y-50578257D02*
X13645135Y-50554447D01*
X13657040Y-50530638D01*
X13668944Y-50518733D01*
X13692754Y-50506828D01*
X13740373Y-50494923D01*
X13799897Y-50494923D01*
X13847516Y-50506828D01*
X13871325Y-50518733D01*
X13883230Y-50530638D01*
X13895135Y-50554447D01*
X13895135Y-50578257D01*
X13883230Y-50602066D01*
X13871325Y-50613971D01*
X13847516Y-50625876D01*
X13799897Y-50637780D01*
X13740373Y-50637780D01*
X13692754Y-50625876D01*
X13668944Y-50613971D01*
X13657040Y-50602066D01*
X13645135Y-50578257D01*
D11*
D12*
X11413095Y-51873809D02*
X11413095Y-52016666D01*
X11413095Y-51945238D02*
X11163095Y-51945238D01*
X11198809Y-51969047D01*
X11222619Y-51992857D01*
X11234523Y-52016666D01*
X11163095Y-51719047D02*
X11163095Y-51695238D01*
X11175000Y-51671428D01*
X11186904Y-51659523D01*
X11210714Y-51647619D01*
X11258333Y-51635714D01*
X11317857Y-51635714D01*
X11365476Y-51647619D01*
X11389285Y-51659523D01*
X11401190Y-51671428D01*
X11413095Y-51695238D01*
X11413095Y-51719047D01*
X11401190Y-51742857D01*
X11389285Y-51754761D01*
X11365476Y-51766666D01*
X11317857Y-51778571D01*
X11258333Y-51778571D01*
X11210714Y-51766666D01*
X11186904Y-51754761D01*
X11175000Y-51742857D01*
X11163095Y-51719047D01*
X11163095Y-51480952D02*
X11163095Y-51457142D01*
X11175000Y-51433333D01*
X11186904Y-51421428D01*
X11210714Y-51409523D01*
X11258333Y-51397619D01*
X11317857Y-51397619D01*
X11365476Y-51409523D01*
X11389285Y-51421428D01*
X11401190Y-51433333D01*
X11413095Y-51457142D01*
X11413095Y-51480952D01*
X11401190Y-51504761D01*
X11389285Y-51516666D01*
X11365476Y-51528571D01*
X11317857Y-51540476D01*
X11258333Y-51540476D01*
X11210714Y-51528571D01*
X11186904Y-51516666D01*
X11175000Y-51504761D01*
X11163095Y-51480952D01*
X11246428Y-51290476D02*
X11413095Y-51290476D01*
X11270238Y-51290476D02*
X11258333Y-51278571D01*
X11246428Y-51254761D01*
X11246428Y-51219047D01*
X11258333Y-51195238D01*
X11282142Y-51183333D01*
X11413095Y-51183333D01*
X11282142Y-50980952D02*
X11282142Y-51064285D01*
X11413095Y-51064285D02*
X11163095Y-51064285D01*
X11163095Y-50945238D01*
X11413095Y-50528571D02*
X11413095Y-50671428D01*
X11413095Y-50600000D02*
X11163095Y-50600000D01*
X11198809Y-50623809D01*
X11222619Y-50647619D01*
X11234523Y-50671428D01*
X11163095Y-50314285D02*
X11163095Y-50361904D01*
X11175000Y-50385714D01*
X11186904Y-50397619D01*
X11222619Y-50421428D01*
X11270238Y-50433333D01*
X11365476Y-50433333D01*
X11389285Y-50421428D01*
X11401190Y-50409523D01*
X11413095Y-50385714D01*
X11413095Y-50338095D01*
X11401190Y-50314285D01*
X11389285Y-50302380D01*
X11365476Y-50290476D01*
X11305952Y-50290476D01*
X11282142Y-50302380D01*
X11270238Y-50314285D01*
X11258333Y-50338095D01*
X11258333Y-50385714D01*
X11270238Y-50409523D01*
X11282142Y-50421428D01*
X11305952Y-50433333D01*
X11246428Y-50207142D02*
X11413095Y-50147619D01*
X11246428Y-50088095D01*
X11163095Y-49826190D02*
X11413095Y-49659523D01*
X11163095Y-49659523D02*
X11413095Y-49826190D01*
X11163095Y-49588095D02*
X11163095Y-49421428D01*
X11413095Y-49528571D01*
X11413095Y-49183333D02*
X11294047Y-49266666D01*
X11413095Y-49326190D02*
X11163095Y-49326190D01*
X11163095Y-49230952D01*
X11175000Y-49207142D01*
X11186904Y-49195238D01*
X11210714Y-49183333D01*
X11246428Y-49183333D01*
X11270238Y-49195238D01*
X11282142Y-49207142D01*
X11294047Y-49230952D01*
X11294047Y-49326190D01*
D11*
D12*
X12100945Y-50785354D02*
X12112850Y-50797259D01*
X12124755Y-50832973D01*
X12124755Y-50856782D01*
X12112850Y-50892497D01*
X12089040Y-50916306D01*
X12065231Y-50928211D01*
X12017612Y-50940116D01*
X11981898Y-50940116D01*
X11934279Y-50928211D01*
X11910469Y-50916306D01*
X11886660Y-50892497D01*
X11874755Y-50856782D01*
X11874755Y-50832973D01*
X11886660Y-50797259D01*
X11898564Y-50785354D01*
X12124755Y-50547259D02*
X12124755Y-50690116D01*
X12124755Y-50618687D02*
X11874755Y-50618687D01*
X11910469Y-50642497D01*
X11934279Y-50666306D01*
X11946183Y-50690116D01*
X12124755Y-50428211D02*
X12124755Y-50380592D01*
X12112850Y-50356782D01*
X12100945Y-50344878D01*
X12065231Y-50321068D01*
X12017612Y-50309163D01*
X11922374Y-50309163D01*
X11898564Y-50321068D01*
X11886660Y-50332973D01*
X11874755Y-50356782D01*
X11874755Y-50404401D01*
X11886660Y-50428211D01*
X11898564Y-50440116D01*
X11922374Y-50452020D01*
X11981898Y-50452020D01*
X12005707Y-50440116D01*
X12017612Y-50428211D01*
X12029517Y-50404401D01*
X12029517Y-50356782D01*
X12017612Y-50332973D01*
X12005707Y-50321068D01*
X11981898Y-50309163D01*
D11*
D12*
X9348809Y-46313095D02*
X9205952Y-46313095D01*
X9277380Y-46313095D02*
X9277380Y-46063095D01*
X9253571Y-46098809D01*
X9229761Y-46122619D01*
X9205952Y-46134523D01*
X9503571Y-46063095D02*
X9527380Y-46063095D01*
X9551190Y-46075000D01*
X9563095Y-46086904D01*
X9575000Y-46110714D01*
X9586904Y-46158333D01*
X9586904Y-46217857D01*
X9575000Y-46265476D01*
X9563095Y-46289285D01*
X9551190Y-46301190D01*
X9527380Y-46313095D01*
X9503571Y-46313095D01*
X9479761Y-46301190D01*
X9467857Y-46289285D01*
X9455952Y-46265476D01*
X9444047Y-46217857D01*
X9444047Y-46158333D01*
X9455952Y-46110714D01*
X9467857Y-46086904D01*
X9479761Y-46075000D01*
X9503571Y-46063095D01*
X9741666Y-46063095D02*
X9765476Y-46063095D01*
X9789285Y-46075000D01*
X9801190Y-46086904D01*
X9813095Y-46110714D01*
X9825000Y-46158333D01*
X9825000Y-46217857D01*
X9813095Y-46265476D01*
X9801190Y-46289285D01*
X9789285Y-46301190D01*
X9765476Y-46313095D01*
X9741666Y-46313095D01*
X9717857Y-46301190D01*
X9705952Y-46289285D01*
X9694047Y-46265476D01*
X9682142Y-46217857D01*
X9682142Y-46158333D01*
X9694047Y-46110714D01*
X9705952Y-46086904D01*
X9717857Y-46075000D01*
X9741666Y-46063095D01*
X9932142Y-46146428D02*
X9932142Y-46396428D01*
X9932142Y-46158333D02*
X9955952Y-46146428D01*
X10003571Y-46146428D01*
X10027380Y-46158333D01*
X10039285Y-46170238D01*
X10051190Y-46194047D01*
X10051190Y-46265476D01*
X10039285Y-46289285D01*
X10027380Y-46301190D01*
X10003571Y-46313095D01*
X9955952Y-46313095D01*
X9932142Y-46301190D01*
X10241666Y-46182142D02*
X10158333Y-46182142D01*
X10158333Y-46313095D02*
X10158333Y-46063095D01*
X10277380Y-46063095D01*
X10705952Y-46289285D02*
X10694047Y-46301190D01*
X10658333Y-46313095D01*
X10634523Y-46313095D01*
X10598809Y-46301190D01*
X10575000Y-46277380D01*
X10563095Y-46253571D01*
X10551190Y-46205952D01*
X10551190Y-46170238D01*
X10563095Y-46122619D01*
X10575000Y-46098809D01*
X10598809Y-46075000D01*
X10634523Y-46063095D01*
X10658333Y-46063095D01*
X10694047Y-46075000D01*
X10705952Y-46086904D01*
X10860714Y-46063095D02*
X10884523Y-46063095D01*
X10908333Y-46075000D01*
X10920238Y-46086904D01*
X10932142Y-46110714D01*
X10944047Y-46158333D01*
X10944047Y-46217857D01*
X10932142Y-46265476D01*
X10920238Y-46289285D01*
X10908333Y-46301190D01*
X10884523Y-46313095D01*
X10860714Y-46313095D01*
X10836904Y-46301190D01*
X10825000Y-46289285D01*
X10813095Y-46265476D01*
X10801190Y-46217857D01*
X10801190Y-46158333D01*
X10813095Y-46110714D01*
X10825000Y-46086904D01*
X10836904Y-46075000D01*
X10860714Y-46063095D01*
X11182142Y-46075000D02*
X11158333Y-46063095D01*
X11122619Y-46063095D01*
X11086904Y-46075000D01*
X11063095Y-46098809D01*
X11051190Y-46122619D01*
X11039285Y-46170238D01*
X11039285Y-46205952D01*
X11051190Y-46253571D01*
X11063095Y-46277380D01*
X11086904Y-46301190D01*
X11122619Y-46313095D01*
X11146428Y-46313095D01*
X11182142Y-46301190D01*
X11194047Y-46289285D01*
X11194047Y-46205952D01*
X11146428Y-46205952D01*
D11*
D12*
X10032445Y-45768645D02*
X10020540Y-45780550D01*
X9984826Y-45792455D01*
X9961017Y-45792455D01*
X9925302Y-45780550D01*
X9901493Y-45756740D01*
X9889588Y-45732931D01*
X9877683Y-45685312D01*
X9877683Y-45649598D01*
X9889588Y-45601979D01*
X9901493Y-45578169D01*
X9925302Y-45554360D01*
X9961017Y-45542455D01*
X9984826Y-45542455D01*
X10020540Y-45554360D01*
X10032445Y-45566264D01*
X10270540Y-45792455D02*
X10127683Y-45792455D01*
X10199112Y-45792455D02*
X10199112Y-45542455D01*
X10175302Y-45578169D01*
X10151493Y-45601979D01*
X10127683Y-45613883D01*
X10484826Y-45542455D02*
X10437207Y-45542455D01*
X10413398Y-45554360D01*
X10401493Y-45566264D01*
X10377683Y-45601979D01*
X10365779Y-45649598D01*
X10365779Y-45744836D01*
X10377683Y-45768645D01*
X10389588Y-45780550D01*
X10413398Y-45792455D01*
X10461017Y-45792455D01*
X10484826Y-45780550D01*
X10496731Y-45768645D01*
X10508636Y-45744836D01*
X10508636Y-45685312D01*
X10496731Y-45661502D01*
X10484826Y-45649598D01*
X10461017Y-45637693D01*
X10413398Y-45637693D01*
X10389588Y-45649598D01*
X10377683Y-45661502D01*
X10365779Y-45685312D01*
D11*
D12*
X15013095Y-43254761D02*
X15013095Y-43397619D01*
X15013095Y-43326190D02*
X14763095Y-43326190D01*
X14798809Y-43350000D01*
X14822619Y-43373809D01*
X14834523Y-43397619D01*
X14763095Y-43100000D02*
X14763095Y-43076190D01*
X14775000Y-43052380D01*
X14786904Y-43040476D01*
X14810714Y-43028571D01*
X14858333Y-43016666D01*
X14917857Y-43016666D01*
X14965476Y-43028571D01*
X14989285Y-43040476D01*
X15001190Y-43052380D01*
X15013095Y-43076190D01*
X15013095Y-43100000D01*
X15001190Y-43123809D01*
X14989285Y-43135714D01*
X14965476Y-43147619D01*
X14917857Y-43159523D01*
X14858333Y-43159523D01*
X14810714Y-43147619D01*
X14786904Y-43135714D01*
X14775000Y-43123809D01*
X14763095Y-43100000D01*
X14846428Y-42802380D02*
X15013095Y-42802380D01*
X14846428Y-42909523D02*
X14977380Y-42909523D01*
X15001190Y-42897619D01*
X15013095Y-42873809D01*
X15013095Y-42838095D01*
X15001190Y-42814285D01*
X14989285Y-42802380D01*
X14882142Y-42600000D02*
X14882142Y-42683333D01*
X15013095Y-42683333D02*
X14763095Y-42683333D01*
X14763095Y-42564285D01*
X15013095Y-42147619D02*
X15013095Y-42290476D01*
X15013095Y-42219047D02*
X14763095Y-42219047D01*
X14798809Y-42242857D01*
X14822619Y-42266666D01*
X14834523Y-42290476D01*
X14763095Y-41933333D02*
X14763095Y-41980952D01*
X14775000Y-42004761D01*
X14786904Y-42016666D01*
X14822619Y-42040476D01*
X14870238Y-42052380D01*
X14965476Y-42052380D01*
X14989285Y-42040476D01*
X15001190Y-42028571D01*
X15013095Y-42004761D01*
X15013095Y-41957142D01*
X15001190Y-41933333D01*
X14989285Y-41921428D01*
X14965476Y-41909523D01*
X14905952Y-41909523D01*
X14882142Y-41921428D01*
X14870238Y-41933333D01*
X14858333Y-41957142D01*
X14858333Y-42004761D01*
X14870238Y-42028571D01*
X14882142Y-42040476D01*
X14905952Y-42052380D01*
X14846428Y-41826190D02*
X15013095Y-41766666D01*
X14846428Y-41707142D01*
X14763095Y-41445238D02*
X15013095Y-41278571D01*
X14763095Y-41278571D02*
X15013095Y-41445238D01*
X14763095Y-41207142D02*
X14763095Y-41040476D01*
X15013095Y-41147619D01*
X15013095Y-40802380D02*
X14894047Y-40885714D01*
X15013095Y-40945238D02*
X14763095Y-40945238D01*
X14763095Y-40850000D01*
X14775000Y-40826190D01*
X14786904Y-40814285D01*
X14810714Y-40802380D01*
X14846428Y-40802380D01*
X14870238Y-40814285D01*
X14882142Y-40826190D01*
X14894047Y-40850000D01*
X14894047Y-40945238D01*
D11*
D12*
X15984605Y-42076366D02*
X15996510Y-42088271D01*
X16008415Y-42123985D01*
X16008415Y-42147795D01*
X15996510Y-42183509D01*
X15972700Y-42207319D01*
X15948891Y-42219223D01*
X15901272Y-42231128D01*
X15865558Y-42231128D01*
X15817939Y-42219223D01*
X15794129Y-42207319D01*
X15770320Y-42183509D01*
X15758415Y-42147795D01*
X15758415Y-42123985D01*
X15770320Y-42088271D01*
X15782224Y-42076366D01*
X15841748Y-41862080D02*
X16008415Y-41862080D01*
X15746510Y-41921604D02*
X15925081Y-41981128D01*
X15925081Y-41826366D01*
D11*
D12*
X17213095Y-43373809D02*
X17213095Y-43516666D01*
X17213095Y-43445238D02*
X16963095Y-43445238D01*
X16998809Y-43469047D01*
X17022619Y-43492857D01*
X17034523Y-43516666D01*
X16963095Y-43219047D02*
X16963095Y-43195238D01*
X16975000Y-43171428D01*
X16986904Y-43159523D01*
X17010714Y-43147619D01*
X17058333Y-43135714D01*
X17117857Y-43135714D01*
X17165476Y-43147619D01*
X17189285Y-43159523D01*
X17201190Y-43171428D01*
X17213095Y-43195238D01*
X17213095Y-43219047D01*
X17201190Y-43242857D01*
X17189285Y-43254761D01*
X17165476Y-43266666D01*
X17117857Y-43278571D01*
X17058333Y-43278571D01*
X17010714Y-43266666D01*
X16986904Y-43254761D01*
X16975000Y-43242857D01*
X16963095Y-43219047D01*
X16963095Y-42980952D02*
X16963095Y-42957142D01*
X16975000Y-42933333D01*
X16986904Y-42921428D01*
X17010714Y-42909523D01*
X17058333Y-42897619D01*
X17117857Y-42897619D01*
X17165476Y-42909523D01*
X17189285Y-42921428D01*
X17201190Y-42933333D01*
X17213095Y-42957142D01*
X17213095Y-42980952D01*
X17201190Y-43004761D01*
X17189285Y-43016666D01*
X17165476Y-43028571D01*
X17117857Y-43040476D01*
X17058333Y-43040476D01*
X17010714Y-43028571D01*
X16986904Y-43016666D01*
X16975000Y-43004761D01*
X16963095Y-42980952D01*
X17046428Y-42790476D02*
X17213095Y-42790476D01*
X17070238Y-42790476D02*
X17058333Y-42778571D01*
X17046428Y-42754761D01*
X17046428Y-42719047D01*
X17058333Y-42695238D01*
X17082142Y-42683333D01*
X17213095Y-42683333D01*
X17082142Y-42480952D02*
X17082142Y-42564285D01*
X17213095Y-42564285D02*
X16963095Y-42564285D01*
X16963095Y-42445238D01*
X17213095Y-42028571D02*
X17213095Y-42171428D01*
X17213095Y-42100000D02*
X16963095Y-42100000D01*
X16998809Y-42123809D01*
X17022619Y-42147619D01*
X17034523Y-42171428D01*
X16963095Y-41814285D02*
X16963095Y-41861904D01*
X16975000Y-41885714D01*
X16986904Y-41897619D01*
X17022619Y-41921428D01*
X17070238Y-41933333D01*
X17165476Y-41933333D01*
X17189285Y-41921428D01*
X17201190Y-41909523D01*
X17213095Y-41885714D01*
X17213095Y-41838095D01*
X17201190Y-41814285D01*
X17189285Y-41802380D01*
X17165476Y-41790476D01*
X17105952Y-41790476D01*
X17082142Y-41802380D01*
X17070238Y-41814285D01*
X17058333Y-41838095D01*
X17058333Y-41885714D01*
X17070238Y-41909523D01*
X17082142Y-41921428D01*
X17105952Y-41933333D01*
X17046428Y-41707142D02*
X17213095Y-41647619D01*
X17046428Y-41588095D01*
X16963095Y-41326190D02*
X17213095Y-41159523D01*
X16963095Y-41159523D02*
X17213095Y-41326190D01*
X16963095Y-41088095D02*
X16963095Y-40921428D01*
X17213095Y-41028571D01*
X17213095Y-40683333D02*
X17094047Y-40766666D01*
X17213095Y-40826190D02*
X16963095Y-40826190D01*
X16963095Y-40730952D01*
X16975000Y-40707142D01*
X16986904Y-40695238D01*
X17010714Y-40683333D01*
X17046428Y-40683333D01*
X17070238Y-40695238D01*
X17082142Y-40707142D01*
X17094047Y-40730952D01*
X17094047Y-40826190D01*
D11*
D12*
X17909925Y-41880546D02*
X17921830Y-41892451D01*
X17933735Y-41928165D01*
X17933735Y-41951975D01*
X17921830Y-41987689D01*
X17898020Y-42011499D01*
X17874211Y-42023403D01*
X17826592Y-42035308D01*
X17790878Y-42035308D01*
X17743259Y-42023403D01*
X17719449Y-42011499D01*
X17695640Y-41987689D01*
X17683735Y-41951975D01*
X17683735Y-41928165D01*
X17695640Y-41892451D01*
X17707544Y-41880546D01*
X17683735Y-41797213D02*
X17683735Y-41642451D01*
X17778973Y-41725784D01*
X17778973Y-41690070D01*
X17790878Y-41666260D01*
X17802782Y-41654356D01*
X17826592Y-41642451D01*
X17886116Y-41642451D01*
X17909925Y-41654356D01*
X17921830Y-41666260D01*
X17933735Y-41690070D01*
X17933735Y-41761499D01*
X17921830Y-41785308D01*
X17909925Y-41797213D01*
D11*
D12*
X-18642858Y-60863095D02*
X-18642858Y-60613095D01*
X-18559524Y-60791666D01*
X-18476191Y-60613095D01*
X-18476191Y-60863095D01*
X-18321429Y-60863095D02*
X-18345239Y-60851190D01*
X-18357143Y-60839285D01*
X-18369048Y-60815476D01*
X-18369048Y-60744047D01*
X-18357143Y-60720238D01*
X-18345239Y-60708333D01*
X-18321429Y-60696428D01*
X-18285715Y-60696428D01*
X-18261905Y-60708333D01*
X-18250000Y-60720238D01*
X-18238096Y-60744047D01*
X-18238096Y-60815476D01*
X-18250000Y-60839285D01*
X-18261905Y-60851190D01*
X-18285715Y-60863095D01*
X-18321429Y-60863095D01*
X-18023810Y-60696428D02*
X-18023810Y-60863095D01*
X-18130953Y-60696428D02*
X-18130953Y-60827380D01*
X-18119048Y-60851190D01*
X-18095239Y-60863095D01*
X-18059524Y-60863095D01*
X-18035715Y-60851190D01*
X-18023810Y-60839285D01*
X-17904762Y-60696428D02*
X-17904762Y-60863095D01*
X-17904762Y-60720238D02*
X-17892858Y-60708333D01*
X-17869048Y-60696428D01*
X-17833334Y-60696428D01*
X-17809524Y-60708333D01*
X-17797620Y-60732142D01*
X-17797620Y-60863095D01*
X-17714286Y-60696428D02*
X-17619048Y-60696428D01*
X-17678572Y-60613095D02*
X-17678572Y-60827380D01*
X-17666667Y-60851190D01*
X-17642858Y-60863095D01*
X-17619048Y-60863095D01*
X-17535715Y-60863095D02*
X-17535715Y-60696428D01*
X-17535715Y-60613095D02*
X-17547620Y-60625000D01*
X-17535715Y-60636904D01*
X-17523810Y-60625000D01*
X-17535715Y-60613095D01*
X-17535715Y-60636904D01*
X-17416667Y-60696428D02*
X-17416667Y-60863095D01*
X-17416667Y-60720238D02*
X-17404762Y-60708333D01*
X-17380953Y-60696428D01*
X-17345239Y-60696428D01*
X-17321429Y-60708333D01*
X-17309524Y-60732142D01*
X-17309524Y-60863095D01*
X-17083334Y-60696428D02*
X-17083334Y-60898809D01*
X-17095239Y-60922619D01*
X-17107143Y-60934523D01*
X-17130953Y-60946428D01*
X-17166667Y-60946428D01*
X-17190477Y-60934523D01*
X-17083334Y-60851190D02*
X-17107143Y-60863095D01*
X-17154762Y-60863095D01*
X-17178572Y-60851190D01*
X-17190477Y-60839285D01*
X-17202381Y-60815476D01*
X-17202381Y-60744047D01*
X-17190477Y-60720238D01*
X-17178572Y-60708333D01*
X-17154762Y-60696428D01*
X-17107143Y-60696428D01*
X-17083334Y-60708333D01*
X-16964286Y-60863095D02*
X-16964286Y-60613095D01*
X-16964286Y-60732142D02*
X-16821429Y-60732142D01*
X-16821429Y-60863095D02*
X-16821429Y-60613095D01*
X-16666667Y-60863095D02*
X-16690477Y-60851190D01*
X-16702381Y-60839285D01*
X-16714286Y-60815476D01*
X-16714286Y-60744047D01*
X-16702381Y-60720238D01*
X-16690477Y-60708333D01*
X-16666667Y-60696428D01*
X-16630953Y-60696428D01*
X-16607143Y-60708333D01*
X-16595239Y-60720238D01*
X-16583334Y-60744047D01*
X-16583334Y-60815476D01*
X-16595239Y-60839285D01*
X-16607143Y-60851190D01*
X-16630953Y-60863095D01*
X-16666667Y-60863095D01*
X-16440477Y-60863095D02*
X-16464286Y-60851190D01*
X-16476191Y-60827380D01*
X-16476191Y-60613095D01*
X-16250000Y-60851190D02*
X-16273810Y-60863095D01*
X-16321429Y-60863095D01*
X-16345239Y-60851190D01*
X-16357143Y-60827380D01*
X-16357143Y-60732142D01*
X-16345239Y-60708333D01*
X-16321429Y-60696428D01*
X-16273810Y-60696428D01*
X-16250000Y-60708333D01*
X-16238096Y-60732142D01*
X-16238096Y-60755952D01*
X-16357143Y-60779761D01*
X-16190477Y-60886904D02*
X-16000000Y-60886904D01*
X-15940477Y-60863095D02*
X-15940477Y-60613095D01*
X-15845239Y-60613095D01*
X-15821429Y-60625000D01*
X-15809524Y-60636904D01*
X-15797620Y-60660714D01*
X-15797620Y-60696428D01*
X-15809524Y-60720238D01*
X-15821429Y-60732142D01*
X-15845239Y-60744047D01*
X-15940477Y-60744047D01*
X-15583334Y-60863095D02*
X-15583334Y-60732142D01*
X-15595239Y-60708333D01*
X-15619048Y-60696428D01*
X-15666667Y-60696428D01*
X-15690477Y-60708333D01*
X-15583334Y-60851190D02*
X-15607143Y-60863095D01*
X-15666667Y-60863095D01*
X-15690477Y-60851190D01*
X-15702381Y-60827380D01*
X-15702381Y-60803571D01*
X-15690477Y-60779761D01*
X-15666667Y-60767857D01*
X-15607143Y-60767857D01*
X-15583334Y-60755952D01*
X-15357143Y-60863095D02*
X-15357143Y-60613095D01*
X-15357143Y-60851190D02*
X-15380953Y-60863095D01*
X-15428572Y-60863095D01*
X-15452381Y-60851190D01*
X-15464286Y-60839285D01*
X-15476191Y-60815476D01*
X-15476191Y-60744047D01*
X-15464286Y-60720238D01*
X-15452381Y-60708333D01*
X-15428572Y-60696428D01*
X-15380953Y-60696428D01*
X-15357143Y-60708333D01*
D11*
D12*
X-16890477Y-57113095D02*
X-16890477Y-56863095D01*
X-16890477Y-56982142D02*
X-16747620Y-56982142D01*
X-16747620Y-57113095D02*
X-16747620Y-56863095D01*
X-16497620Y-57113095D02*
X-16640477Y-57113095D01*
X-16569048Y-57113095D02*
X-16569048Y-56863095D01*
X-16592858Y-56898809D01*
X-16616667Y-56922619D01*
X-16640477Y-56934523D01*
D11*
D12*
X11444761Y-59372142D02*
X11361428Y-59372142D01*
X11361428Y-59503095D02*
X11361428Y-59253095D01*
X11480476Y-59253095D01*
X11575714Y-59503095D02*
X11575714Y-59336428D01*
X11575714Y-59253095D02*
X11563809Y-59265000D01*
X11575714Y-59276904D01*
X11587619Y-59265000D01*
X11575714Y-59253095D01*
X11575714Y-59276904D01*
X11801904Y-59503095D02*
X11801904Y-59253095D01*
X11801904Y-59491190D02*
X11778095Y-59503095D01*
X11730476Y-59503095D01*
X11706666Y-59491190D01*
X11694761Y-59479285D01*
X11682857Y-59455476D01*
X11682857Y-59384047D01*
X11694761Y-59360238D01*
X11706666Y-59348333D01*
X11730476Y-59336428D01*
X11778095Y-59336428D01*
X11801904Y-59348333D01*
X12028095Y-59336428D02*
X12028095Y-59503095D01*
X11920952Y-59336428D02*
X11920952Y-59467380D01*
X11932857Y-59491190D01*
X11956666Y-59503095D01*
X11992380Y-59503095D01*
X12016190Y-59491190D01*
X12028095Y-59479285D01*
X12254285Y-59491190D02*
X12230476Y-59503095D01*
X12182857Y-59503095D01*
X12159047Y-59491190D01*
X12147142Y-59479285D01*
X12135238Y-59455476D01*
X12135238Y-59384047D01*
X12147142Y-59360238D01*
X12159047Y-59348333D01*
X12182857Y-59336428D01*
X12230476Y-59336428D01*
X12254285Y-59348333D01*
X12361428Y-59503095D02*
X12361428Y-59336428D01*
X12361428Y-59253095D02*
X12349523Y-59265000D01*
X12361428Y-59276904D01*
X12373333Y-59265000D01*
X12361428Y-59253095D01*
X12361428Y-59276904D01*
X12587619Y-59503095D02*
X12587619Y-59372142D01*
X12575714Y-59348333D01*
X12551904Y-59336428D01*
X12504285Y-59336428D01*
X12480476Y-59348333D01*
X12587619Y-59491190D02*
X12563809Y-59503095D01*
X12504285Y-59503095D01*
X12480476Y-59491190D01*
X12468571Y-59467380D01*
X12468571Y-59443571D01*
X12480476Y-59419761D01*
X12504285Y-59407857D01*
X12563809Y-59407857D01*
X12587619Y-59395952D01*
X12742380Y-59503095D02*
X12718571Y-59491190D01*
X12706666Y-59467380D01*
X12706666Y-59253095D01*
D11*
D12*
X11772142Y-57372142D02*
X11688809Y-57372142D01*
X11688809Y-57503095D02*
X11688809Y-57253095D01*
X11807857Y-57253095D01*
X11903095Y-57503095D02*
X11903095Y-57253095D01*
X12022142Y-57503095D02*
X12022142Y-57253095D01*
X12081666Y-57253095D01*
X12117380Y-57265000D01*
X12141190Y-57288809D01*
X12153095Y-57312619D01*
X12165000Y-57360238D01*
X12165000Y-57395952D01*
X12153095Y-57443571D01*
X12141190Y-57467380D01*
X12117380Y-57491190D01*
X12081666Y-57503095D01*
X12022142Y-57503095D01*
X12391190Y-57253095D02*
X12272142Y-57253095D01*
X12260238Y-57372142D01*
X12272142Y-57360238D01*
X12295952Y-57348333D01*
X12355476Y-57348333D01*
X12379285Y-57360238D01*
X12391190Y-57372142D01*
X12403095Y-57395952D01*
X12403095Y-57455476D01*
X12391190Y-57479285D01*
X12379285Y-57491190D01*
X12355476Y-57503095D01*
X12295952Y-57503095D01*
X12272142Y-57491190D01*
X12260238Y-57479285D01*
D11*
D12*
X-13544159Y-60574862D02*
X-13627492Y-60574862D01*
X-13627492Y-60705815D02*
X-13627492Y-60455815D01*
X-13508444Y-60455815D01*
X-13413206Y-60705815D02*
X-13413206Y-60539148D01*
X-13413206Y-60455815D02*
X-13425111Y-60467720D01*
X-13413206Y-60479624D01*
X-13401301Y-60467720D01*
X-13413206Y-60455815D01*
X-13413206Y-60479624D01*
X-13187016Y-60705815D02*
X-13187016Y-60455815D01*
X-13187016Y-60693910D02*
X-13210825Y-60705815D01*
X-13258444Y-60705815D01*
X-13282254Y-60693910D01*
X-13294159Y-60682005D01*
X-13306063Y-60658196D01*
X-13306063Y-60586767D01*
X-13294159Y-60562958D01*
X-13282254Y-60551053D01*
X-13258444Y-60539148D01*
X-13210825Y-60539148D01*
X-13187016Y-60551053D01*
X-12960825Y-60539148D02*
X-12960825Y-60705815D01*
X-13067968Y-60539148D02*
X-13067968Y-60670100D01*
X-13056063Y-60693910D01*
X-13032254Y-60705815D01*
X-12996540Y-60705815D01*
X-12972730Y-60693910D01*
X-12960825Y-60682005D01*
X-12734635Y-60693910D02*
X-12758444Y-60705815D01*
X-12806063Y-60705815D01*
X-12829873Y-60693910D01*
X-12841778Y-60682005D01*
X-12853682Y-60658196D01*
X-12853682Y-60586767D01*
X-12841778Y-60562958D01*
X-12829873Y-60551053D01*
X-12806063Y-60539148D01*
X-12758444Y-60539148D01*
X-12734635Y-60551053D01*
X-12627492Y-60705815D02*
X-12627492Y-60539148D01*
X-12627492Y-60455815D02*
X-12639397Y-60467720D01*
X-12627492Y-60479624D01*
X-12615587Y-60467720D01*
X-12627492Y-60455815D01*
X-12627492Y-60479624D01*
X-12401301Y-60705815D02*
X-12401301Y-60574862D01*
X-12413206Y-60551053D01*
X-12437016Y-60539148D01*
X-12484635Y-60539148D01*
X-12508444Y-60551053D01*
X-12401301Y-60693910D02*
X-12425111Y-60705815D01*
X-12484635Y-60705815D01*
X-12508444Y-60693910D01*
X-12520349Y-60670100D01*
X-12520349Y-60646291D01*
X-12508444Y-60622481D01*
X-12484635Y-60610577D01*
X-12425111Y-60610577D01*
X-12401301Y-60598672D01*
X-12246540Y-60705815D02*
X-12270349Y-60693910D01*
X-12282254Y-60670100D01*
X-12282254Y-60455815D01*
D11*
D12*
X-13216778Y-58574862D02*
X-13300111Y-58574862D01*
X-13300111Y-58705815D02*
X-13300111Y-58455815D01*
X-13181063Y-58455815D01*
X-13085825Y-58705815D02*
X-13085825Y-58455815D01*
X-12966778Y-58705815D02*
X-12966778Y-58455815D01*
X-12907254Y-58455815D01*
X-12871540Y-58467720D01*
X-12847730Y-58491529D01*
X-12835825Y-58515339D01*
X-12823920Y-58562958D01*
X-12823920Y-58598672D01*
X-12835825Y-58646291D01*
X-12847730Y-58670100D01*
X-12871540Y-58693910D01*
X-12907254Y-58705815D01*
X-12966778Y-58705815D01*
X-12740587Y-58455815D02*
X-12585825Y-58455815D01*
X-12669159Y-58551053D01*
X-12633444Y-58551053D01*
X-12609635Y-58562958D01*
X-12597730Y-58574862D01*
X-12585825Y-58598672D01*
X-12585825Y-58658196D01*
X-12597730Y-58682005D01*
X-12609635Y-58693910D01*
X-12633444Y-58705815D01*
X-12704873Y-58705815D01*
X-12728682Y-58693910D01*
X-12740587Y-58682005D01*
D11*
D12*
X-17685239Y237858D02*
X-17768572Y237858D01*
X-17768572Y106905D02*
X-17768572Y356905D01*
X-17649524Y356905D01*
X-17554286Y106905D02*
X-17554286Y273572D01*
X-17554286Y356905D02*
X-17566191Y345000D01*
X-17554286Y333096D01*
X-17542381Y345000D01*
X-17554286Y356905D01*
X-17554286Y333096D01*
X-17328096Y106905D02*
X-17328096Y356905D01*
X-17328096Y118810D02*
X-17351905Y106905D01*
X-17399524Y106905D01*
X-17423334Y118810D01*
X-17435239Y130715D01*
X-17447143Y154524D01*
X-17447143Y225953D01*
X-17435239Y249762D01*
X-17423334Y261667D01*
X-17399524Y273572D01*
X-17351905Y273572D01*
X-17328096Y261667D01*
X-17101905Y273572D02*
X-17101905Y106905D01*
X-17209048Y273572D02*
X-17209048Y142620D01*
X-17197143Y118810D01*
X-17173334Y106905D01*
X-17137620Y106905D01*
X-17113810Y118810D01*
X-17101905Y130715D01*
X-16875715Y118810D02*
X-16899524Y106905D01*
X-16947143Y106905D01*
X-16970953Y118810D01*
X-16982858Y130715D01*
X-16994762Y154524D01*
X-16994762Y225953D01*
X-16982858Y249762D01*
X-16970953Y261667D01*
X-16947143Y273572D01*
X-16899524Y273572D01*
X-16875715Y261667D01*
X-16768572Y106905D02*
X-16768572Y273572D01*
X-16768572Y356905D02*
X-16780477Y345000D01*
X-16768572Y333096D01*
X-16756667Y345000D01*
X-16768572Y356905D01*
X-16768572Y333096D01*
X-16542381Y106905D02*
X-16542381Y237858D01*
X-16554286Y261667D01*
X-16578096Y273572D01*
X-16625715Y273572D01*
X-16649524Y261667D01*
X-16542381Y118810D02*
X-16566191Y106905D01*
X-16625715Y106905D01*
X-16649524Y118810D01*
X-16661429Y142620D01*
X-16661429Y166429D01*
X-16649524Y190239D01*
X-16625715Y202143D01*
X-16566191Y202143D01*
X-16542381Y214048D01*
X-16387620Y106905D02*
X-16411429Y118810D01*
X-16423334Y142620D01*
X-16423334Y356905D01*
D11*
D12*
X-17357858Y2237858D02*
X-17441191Y2237858D01*
X-17441191Y2106905D02*
X-17441191Y2356905D01*
X-17322143Y2356905D01*
X-17226905Y2106905D02*
X-17226905Y2356905D01*
X-17107858Y2106905D02*
X-17107858Y2356905D01*
X-17048334Y2356905D01*
X-17012620Y2345000D01*
X-16988810Y2321191D01*
X-16976905Y2297381D01*
X-16965000Y2249762D01*
X-16965000Y2214048D01*
X-16976905Y2166429D01*
X-16988810Y2142620D01*
X-17012620Y2118810D01*
X-17048334Y2106905D01*
X-17107858Y2106905D01*
X-16726905Y2106905D02*
X-16869762Y2106905D01*
X-16798334Y2106905D02*
X-16798334Y2356905D01*
X-16822143Y2321191D01*
X-16845953Y2297381D01*
X-16869762Y2285477D01*
D11*
D12*
X15357142Y-60863095D02*
X15357142Y-60613095D01*
X15440476Y-60791666D01*
X15523809Y-60613095D01*
X15523809Y-60863095D01*
X15678571Y-60863095D02*
X15654761Y-60851190D01*
X15642857Y-60839285D01*
X15630952Y-60815476D01*
X15630952Y-60744047D01*
X15642857Y-60720238D01*
X15654761Y-60708333D01*
X15678571Y-60696428D01*
X15714285Y-60696428D01*
X15738095Y-60708333D01*
X15750000Y-60720238D01*
X15761904Y-60744047D01*
X15761904Y-60815476D01*
X15750000Y-60839285D01*
X15738095Y-60851190D01*
X15714285Y-60863095D01*
X15678571Y-60863095D01*
X15976190Y-60696428D02*
X15976190Y-60863095D01*
X15869047Y-60696428D02*
X15869047Y-60827380D01*
X15880952Y-60851190D01*
X15904761Y-60863095D01*
X15940476Y-60863095D01*
X15964285Y-60851190D01*
X15976190Y-60839285D01*
X16095238Y-60696428D02*
X16095238Y-60863095D01*
X16095238Y-60720238D02*
X16107142Y-60708333D01*
X16130952Y-60696428D01*
X16166666Y-60696428D01*
X16190476Y-60708333D01*
X16202380Y-60732142D01*
X16202380Y-60863095D01*
X16285714Y-60696428D02*
X16380952Y-60696428D01*
X16321428Y-60613095D02*
X16321428Y-60827380D01*
X16333333Y-60851190D01*
X16357142Y-60863095D01*
X16380952Y-60863095D01*
X16464285Y-60863095D02*
X16464285Y-60696428D01*
X16464285Y-60613095D02*
X16452380Y-60625000D01*
X16464285Y-60636904D01*
X16476190Y-60625000D01*
X16464285Y-60613095D01*
X16464285Y-60636904D01*
X16583333Y-60696428D02*
X16583333Y-60863095D01*
X16583333Y-60720238D02*
X16595238Y-60708333D01*
X16619047Y-60696428D01*
X16654761Y-60696428D01*
X16678571Y-60708333D01*
X16690476Y-60732142D01*
X16690476Y-60863095D01*
X16916666Y-60696428D02*
X16916666Y-60898809D01*
X16904761Y-60922619D01*
X16892857Y-60934523D01*
X16869047Y-60946428D01*
X16833333Y-60946428D01*
X16809523Y-60934523D01*
X16916666Y-60851190D02*
X16892857Y-60863095D01*
X16845238Y-60863095D01*
X16821428Y-60851190D01*
X16809523Y-60839285D01*
X16797619Y-60815476D01*
X16797619Y-60744047D01*
X16809523Y-60720238D01*
X16821428Y-60708333D01*
X16845238Y-60696428D01*
X16892857Y-60696428D01*
X16916666Y-60708333D01*
X17035714Y-60863095D02*
X17035714Y-60613095D01*
X17035714Y-60732142D02*
X17178571Y-60732142D01*
X17178571Y-60863095D02*
X17178571Y-60613095D01*
X17333333Y-60863095D02*
X17309523Y-60851190D01*
X17297619Y-60839285D01*
X17285714Y-60815476D01*
X17285714Y-60744047D01*
X17297619Y-60720238D01*
X17309523Y-60708333D01*
X17333333Y-60696428D01*
X17369047Y-60696428D01*
X17392857Y-60708333D01*
X17404761Y-60720238D01*
X17416666Y-60744047D01*
X17416666Y-60815476D01*
X17404761Y-60839285D01*
X17392857Y-60851190D01*
X17369047Y-60863095D01*
X17333333Y-60863095D01*
X17559523Y-60863095D02*
X17535714Y-60851190D01*
X17523809Y-60827380D01*
X17523809Y-60613095D01*
X17750000Y-60851190D02*
X17726190Y-60863095D01*
X17678571Y-60863095D01*
X17654761Y-60851190D01*
X17642857Y-60827380D01*
X17642857Y-60732142D01*
X17654761Y-60708333D01*
X17678571Y-60696428D01*
X17726190Y-60696428D01*
X17750000Y-60708333D01*
X17761904Y-60732142D01*
X17761904Y-60755952D01*
X17642857Y-60779761D01*
X17809523Y-60886904D02*
X18000000Y-60886904D01*
X18059523Y-60863095D02*
X18059523Y-60613095D01*
X18154761Y-60613095D01*
X18178571Y-60625000D01*
X18190476Y-60636904D01*
X18202380Y-60660714D01*
X18202380Y-60696428D01*
X18190476Y-60720238D01*
X18178571Y-60732142D01*
X18154761Y-60744047D01*
X18059523Y-60744047D01*
X18416666Y-60863095D02*
X18416666Y-60732142D01*
X18404761Y-60708333D01*
X18380952Y-60696428D01*
X18333333Y-60696428D01*
X18309523Y-60708333D01*
X18416666Y-60851190D02*
X18392857Y-60863095D01*
X18333333Y-60863095D01*
X18309523Y-60851190D01*
X18297619Y-60827380D01*
X18297619Y-60803571D01*
X18309523Y-60779761D01*
X18333333Y-60767857D01*
X18392857Y-60767857D01*
X18416666Y-60755952D01*
X18642857Y-60863095D02*
X18642857Y-60613095D01*
X18642857Y-60851190D02*
X18619047Y-60863095D01*
X18571428Y-60863095D01*
X18547619Y-60851190D01*
X18535714Y-60839285D01*
X18523809Y-60815476D01*
X18523809Y-60744047D01*
X18535714Y-60720238D01*
X18547619Y-60708333D01*
X18571428Y-60696428D01*
X18619047Y-60696428D01*
X18642857Y-60708333D01*
D11*
D12*
X17109523Y-57113095D02*
X17109523Y-56863095D01*
X17109523Y-56982142D02*
X17252380Y-56982142D01*
X17252380Y-57113095D02*
X17252380Y-56863095D01*
X17359523Y-56886904D02*
X17371428Y-56875000D01*
X17395238Y-56863095D01*
X17454761Y-56863095D01*
X17478571Y-56875000D01*
X17490476Y-56886904D01*
X17502380Y-56910714D01*
X17502380Y-56934523D01*
X17490476Y-56970238D01*
X17347619Y-57113095D01*
X17502380Y-57113095D01*
D11*
D12*
X-7029762Y-5695659D02*
X-7041667Y-5719468D01*
X-7053572Y-5731373D01*
X-7077381Y-5743278D01*
X-7089286Y-5743278D01*
X-7113096Y-5731373D01*
X-7125000Y-5719468D01*
X-7136905Y-5695659D01*
X-7136905Y-5648040D01*
X-7125000Y-5624230D01*
X-7113096Y-5612325D01*
X-7089286Y-5600420D01*
X-7077381Y-5600420D01*
X-7053572Y-5612325D01*
X-7041667Y-5624230D01*
X-7029762Y-5648040D01*
X-7029762Y-5695659D01*
X-7017858Y-5719468D01*
X-7005953Y-5731373D01*
X-6982143Y-5743278D01*
X-6934524Y-5743278D01*
X-6910715Y-5731373D01*
X-6898810Y-5719468D01*
X-6886905Y-5695659D01*
X-6886905Y-5648040D01*
X-6898810Y-5624230D01*
X-6910715Y-5612325D01*
X-6934524Y-5600420D01*
X-6982143Y-5600420D01*
X-7005953Y-5612325D01*
X-7017858Y-5624230D01*
X-7029762Y-5648040D01*
X-7136905Y-5386135D02*
X-7136905Y-5433754D01*
X-7125000Y-5457563D01*
X-7113096Y-5469468D01*
X-7077381Y-5493278D01*
X-7029762Y-5505182D01*
X-6934524Y-5505182D01*
X-6910715Y-5493278D01*
X-6898810Y-5481373D01*
X-6886905Y-5457563D01*
X-6886905Y-5409944D01*
X-6898810Y-5386135D01*
X-6910715Y-5374230D01*
X-6934524Y-5362325D01*
X-6994048Y-5362325D01*
X-7017858Y-5374230D01*
X-7029762Y-5386135D01*
X-7041667Y-5409944D01*
X-7041667Y-5457563D01*
X-7029762Y-5481373D01*
X-7017858Y-5493278D01*
X-6994048Y-5505182D01*
X-6910715Y-5255182D02*
X-6898810Y-5243278D01*
X-6886905Y-5255182D01*
X-6898810Y-5267087D01*
X-6910715Y-5255182D01*
X-6886905Y-5255182D01*
X-7136905Y-5028992D02*
X-7136905Y-5076611D01*
X-7125000Y-5100420D01*
X-7113096Y-5112325D01*
X-7077381Y-5136135D01*
X-7029762Y-5148040D01*
X-6934524Y-5148040D01*
X-6910715Y-5136135D01*
X-6898810Y-5124230D01*
X-6886905Y-5100420D01*
X-6886905Y-5052801D01*
X-6898810Y-5028992D01*
X-6910715Y-5017087D01*
X-6934524Y-5005182D01*
X-6994048Y-5005182D01*
X-7017858Y-5017087D01*
X-7029762Y-5028992D01*
X-7041667Y-5052801D01*
X-7041667Y-5100420D01*
X-7029762Y-5124230D01*
X-7017858Y-5136135D01*
X-6994048Y-5148040D01*
X-6886905Y-4898040D02*
X-7136905Y-4898040D01*
X-6982143Y-4874230D02*
X-6886905Y-4802801D01*
X-7053572Y-4802801D02*
X-6958334Y-4898040D01*
D11*
D12*
X-6363905Y-5433754D02*
X-6482953Y-5517087D01*
X-6363905Y-5576611D02*
X-6613905Y-5576611D01*
X-6613905Y-5481373D01*
X-6602000Y-5457563D01*
X-6590096Y-5445659D01*
X-6566286Y-5433754D01*
X-6530572Y-5433754D01*
X-6506762Y-5445659D01*
X-6494858Y-5457563D01*
X-6482953Y-5481373D01*
X-6482953Y-5576611D01*
X-6363905Y-5195659D02*
X-6363905Y-5338516D01*
X-6363905Y-5267087D02*
X-6613905Y-5267087D01*
X-6578191Y-5290897D01*
X-6554381Y-5314706D01*
X-6542477Y-5338516D01*
X-6613905Y-5112325D02*
X-6613905Y-4957563D01*
X-6518667Y-5040897D01*
X-6518667Y-5005182D01*
X-6506762Y-4981373D01*
X-6494858Y-4969468D01*
X-6471048Y-4957563D01*
X-6411524Y-4957563D01*
X-6387715Y-4969468D01*
X-6375810Y-4981373D01*
X-6363905Y-5005182D01*
X-6363905Y-5076611D01*
X-6375810Y-5100420D01*
X-6387715Y-5112325D01*
D11*
D12*
X-4813096Y-5694047D02*
X-4825000Y-5682142D01*
X-4836905Y-5658333D01*
X-4836905Y-5598809D01*
X-4825000Y-5575000D01*
X-4813096Y-5563095D01*
X-4789286Y-5551190D01*
X-4765477Y-5551190D01*
X-4729762Y-5563095D01*
X-4586905Y-5705952D01*
X-4586905Y-5551190D01*
X-4813096Y-5455952D02*
X-4825000Y-5444047D01*
X-4836905Y-5420238D01*
X-4836905Y-5360714D01*
X-4825000Y-5336904D01*
X-4813096Y-5325000D01*
X-4789286Y-5313095D01*
X-4765477Y-5313095D01*
X-4729762Y-5325000D01*
X-4586905Y-5467857D01*
X-4586905Y-5313095D01*
X-4610715Y-5205952D02*
X-4598810Y-5194047D01*
X-4586905Y-5205952D01*
X-4598810Y-5217857D01*
X-4610715Y-5205952D01*
X-4586905Y-5205952D01*
X-4836905Y-4979761D02*
X-4836905Y-5027380D01*
X-4825000Y-5051190D01*
X-4813096Y-5063095D01*
X-4777381Y-5086904D01*
X-4729762Y-5098809D01*
X-4634524Y-5098809D01*
X-4610715Y-5086904D01*
X-4598810Y-5075000D01*
X-4586905Y-5051190D01*
X-4586905Y-5003571D01*
X-4598810Y-4979761D01*
X-4610715Y-4967857D01*
X-4634524Y-4955952D01*
X-4694048Y-4955952D01*
X-4717858Y-4967857D01*
X-4729762Y-4979761D01*
X-4741667Y-5003571D01*
X-4741667Y-5051190D01*
X-4729762Y-5075000D01*
X-4717858Y-5086904D01*
X-4694048Y-5098809D01*
X-4586905Y-4848809D02*
X-4836905Y-4848809D01*
X-4586905Y-4705952D02*
X-4729762Y-4813095D01*
X-4836905Y-4705952D02*
X-4694048Y-4848809D01*
D11*
D12*
X-5165025Y-5421194D02*
X-5284073Y-5504527D01*
X-5165025Y-5564051D02*
X-5415025Y-5564051D01*
X-5415025Y-5468813D01*
X-5403120Y-5445003D01*
X-5391216Y-5433099D01*
X-5367406Y-5421194D01*
X-5331692Y-5421194D01*
X-5307882Y-5433099D01*
X-5295978Y-5445003D01*
X-5284073Y-5468813D01*
X-5284073Y-5564051D01*
X-5165025Y-5183099D02*
X-5165025Y-5325956D01*
X-5165025Y-5254527D02*
X-5415025Y-5254527D01*
X-5379311Y-5278337D01*
X-5355501Y-5302146D01*
X-5343597Y-5325956D01*
X-5391216Y-5087860D02*
X-5403120Y-5075956D01*
X-5415025Y-5052146D01*
X-5415025Y-4992622D01*
X-5403120Y-4968813D01*
X-5391216Y-4956908D01*
X-5367406Y-4945003D01*
X-5343597Y-4945003D01*
X-5307882Y-4956908D01*
X-5165025Y-5099765D01*
X-5165025Y-4945003D01*
D11*
M02*
