G04 #@! TF.GenerationSoftware,KiCad,Pcbnew,(5.1.10)-1*
G04 #@! TF.CreationDate,2022-03-11T13:30:57+05:30*
G04 #@! TF.ProjectId,P-1000072_Cicada Wi-Fi,502d3130-3030-4303-9732-5f4369636164,0.1*
G04 #@! TF.SameCoordinates,PX7cee6c0PY3dfd240*
G04 #@! TF.FileFunction,Copper,L1,Top*
G04 #@! TF.FilePolarity,Positive*
%FSLAX46Y46*%
G04 Gerber Fmt 4.6, Leading zero omitted, Abs format (unit mm)*
G04 Created by KiCad (PCBNEW (5.1.10)-1) date 2022-03-11 13:30:57*
%MOMM*%
%LPD*%
G01*
G04 APERTURE LIST*
G04 #@! TA.AperFunction,SMDPad,CuDef*
%ADD10R,0.650000X1.220000*%
G04 #@! TD*
G04 #@! TA.AperFunction,SMDPad,CuDef*
%ADD11R,1.100000X2.600000*%
G04 #@! TD*
G04 #@! TA.AperFunction,SMDPad,CuDef*
%ADD12C,1.500000*%
G04 #@! TD*
G04 #@! TA.AperFunction,ComponentPad*
%ADD13C,1.500000*%
G04 #@! TD*
G04 #@! TA.AperFunction,SMDPad,CuDef*
%ADD14R,4.800000X2.200000*%
G04 #@! TD*
G04 #@! TA.AperFunction,ComponentPad*
%ADD15O,1.700000X1.700000*%
G04 #@! TD*
G04 #@! TA.AperFunction,ComponentPad*
%ADD16R,1.700000X1.700000*%
G04 #@! TD*
G04 #@! TA.AperFunction,ComponentPad*
%ADD17C,1.600000*%
G04 #@! TD*
G04 #@! TA.AperFunction,ComponentPad*
%ADD18R,1.600000X1.600000*%
G04 #@! TD*
G04 #@! TA.AperFunction,ComponentPad*
%ADD19C,5.500000*%
G04 #@! TD*
G04 #@! TA.AperFunction,SMDPad,CuDef*
%ADD20C,1.000000*%
G04 #@! TD*
G04 #@! TA.AperFunction,ViaPad*
%ADD21C,0.800000*%
G04 #@! TD*
G04 #@! TA.AperFunction,Conductor*
%ADD22C,1.200000*%
G04 #@! TD*
G04 #@! TA.AperFunction,Conductor*
%ADD23C,0.250000*%
G04 #@! TD*
G04 #@! TA.AperFunction,Conductor*
%ADD24C,0.400000*%
G04 #@! TD*
G04 #@! TA.AperFunction,Conductor*
%ADD25C,0.600000*%
G04 #@! TD*
G04 #@! TA.AperFunction,Conductor*
%ADD26C,0.254000*%
G04 #@! TD*
G04 #@! TA.AperFunction,Conductor*
%ADD27C,0.100000*%
G04 #@! TD*
G04 APERTURE END LIST*
D10*
X11530000Y-43730000D03*
X13430000Y-43730000D03*
X13430000Y-46350000D03*
X12480000Y-46350000D03*
X11530000Y-46350000D03*
D11*
X-14220000Y-17110000D03*
X-12220000Y-17110000D03*
X-6220000Y-17110000D03*
X-4220000Y-32310000D03*
X-4220000Y-17110000D03*
X-2220000Y-32310000D03*
X-12220000Y-32310000D03*
X-16220000Y-17110000D03*
X-8220000Y-32310000D03*
X-10220000Y-17110000D03*
X-8220000Y-17110000D03*
X-6220000Y-32310000D03*
X-10220000Y-32310000D03*
X-2220000Y-17110000D03*
X-14220000Y-32310000D03*
X-16220000Y-32310000D03*
D12*
X-8326120Y-6253480D03*
X-15499080Y-9888220D03*
X-9707880Y-12222480D03*
X-12237720Y-13873480D03*
X-14196060Y-12082780D03*
X-4239260Y-13906500D03*
X-5491480Y-12024360D03*
X-4185920Y-37266880D03*
X-6223000Y-35727640D03*
X-8199120Y-35179000D03*
X-10251440Y-35100260D03*
X-18783300Y-35095180D03*
X4587240Y-15687040D03*
X16299180Y-19817080D03*
D13*
X14490000Y-17470000D03*
D14*
X16940000Y-50150000D03*
X16940000Y-46750000D03*
D15*
X11455400Y1244600D03*
X11455400Y-1295400D03*
X8915400Y1244600D03*
X8915400Y-1295400D03*
X6375400Y1244600D03*
X6375400Y-1295400D03*
X3835400Y1244600D03*
X3835400Y-1295400D03*
X1295400Y1244600D03*
X1295400Y-1295400D03*
X-1244600Y1244600D03*
X-1244600Y-1295400D03*
X-3784600Y1244600D03*
X-3784600Y-1295400D03*
X-6324600Y1244600D03*
X-6324600Y-1295400D03*
X-8864600Y1244600D03*
X-8864600Y-1295400D03*
X-11404600Y1244600D03*
D16*
X-11404600Y-1295400D03*
D17*
X8280400Y-30457140D03*
D18*
X4780400Y-30457140D03*
D17*
X8239760Y-21798280D03*
D18*
X4739760Y-21798280D03*
G04 #@! TA.AperFunction,SMDPad,CuDef*
G36*
G01*
X-16413260Y-14581500D02*
X-16068260Y-14581500D01*
G75*
G02*
X-15920760Y-14729000I0J-147500D01*
G01*
X-15920760Y-15024000D01*
G75*
G02*
X-16068260Y-15171500I-147500J0D01*
G01*
X-16413260Y-15171500D01*
G75*
G02*
X-16560760Y-15024000I0J147500D01*
G01*
X-16560760Y-14729000D01*
G75*
G02*
X-16413260Y-14581500I147500J0D01*
G01*
G37*
G04 #@! TD.AperFunction*
G04 #@! TA.AperFunction,SMDPad,CuDef*
G36*
G01*
X-16413260Y-13611500D02*
X-16068260Y-13611500D01*
G75*
G02*
X-15920760Y-13759000I0J-147500D01*
G01*
X-15920760Y-14054000D01*
G75*
G02*
X-16068260Y-14201500I-147500J0D01*
G01*
X-16413260Y-14201500D01*
G75*
G02*
X-16560760Y-14054000I0J147500D01*
G01*
X-16560760Y-13759000D01*
G75*
G02*
X-16413260Y-13611500I147500J0D01*
G01*
G37*
G04 #@! TD.AperFunction*
G04 #@! TA.AperFunction,SMDPad,CuDef*
G36*
G01*
X-14424440Y-14546220D02*
X-14079440Y-14546220D01*
G75*
G02*
X-13931940Y-14693720I0J-147500D01*
G01*
X-13931940Y-14988720D01*
G75*
G02*
X-14079440Y-15136220I-147500J0D01*
G01*
X-14424440Y-15136220D01*
G75*
G02*
X-14571940Y-14988720I0J147500D01*
G01*
X-14571940Y-14693720D01*
G75*
G02*
X-14424440Y-14546220I147500J0D01*
G01*
G37*
G04 #@! TD.AperFunction*
G04 #@! TA.AperFunction,SMDPad,CuDef*
G36*
G01*
X-14424440Y-13576220D02*
X-14079440Y-13576220D01*
G75*
G02*
X-13931940Y-13723720I0J-147500D01*
G01*
X-13931940Y-14018720D01*
G75*
G02*
X-14079440Y-14166220I-147500J0D01*
G01*
X-14424440Y-14166220D01*
G75*
G02*
X-14571940Y-14018720I0J147500D01*
G01*
X-14571940Y-13723720D01*
G75*
G02*
X-14424440Y-13576220I147500J0D01*
G01*
G37*
G04 #@! TD.AperFunction*
G04 #@! TA.AperFunction,SMDPad,CuDef*
G36*
G01*
X-10390920Y-37322120D02*
X-10045920Y-37322120D01*
G75*
G02*
X-9898420Y-37469620I0J-147500D01*
G01*
X-9898420Y-37764620D01*
G75*
G02*
X-10045920Y-37912120I-147500J0D01*
G01*
X-10390920Y-37912120D01*
G75*
G02*
X-10538420Y-37764620I0J147500D01*
G01*
X-10538420Y-37469620D01*
G75*
G02*
X-10390920Y-37322120I147500J0D01*
G01*
G37*
G04 #@! TD.AperFunction*
G04 #@! TA.AperFunction,SMDPad,CuDef*
G36*
G01*
X-10390920Y-36352120D02*
X-10045920Y-36352120D01*
G75*
G02*
X-9898420Y-36499620I0J-147500D01*
G01*
X-9898420Y-36794620D01*
G75*
G02*
X-10045920Y-36942120I-147500J0D01*
G01*
X-10390920Y-36942120D01*
G75*
G02*
X-10538420Y-36794620I0J147500D01*
G01*
X-10538420Y-36499620D01*
G75*
G02*
X-10390920Y-36352120I147500J0D01*
G01*
G37*
G04 #@! TD.AperFunction*
G04 #@! TA.AperFunction,SMDPad,CuDef*
G36*
G01*
X-7944480Y-12375100D02*
X-7944480Y-12720100D01*
G75*
G02*
X-8091980Y-12867600I-147500J0D01*
G01*
X-8386980Y-12867600D01*
G75*
G02*
X-8534480Y-12720100I0J147500D01*
G01*
X-8534480Y-12375100D01*
G75*
G02*
X-8386980Y-12227600I147500J0D01*
G01*
X-8091980Y-12227600D01*
G75*
G02*
X-7944480Y-12375100I0J-147500D01*
G01*
G37*
G04 #@! TD.AperFunction*
G04 #@! TA.AperFunction,SMDPad,CuDef*
G36*
G01*
X-6974480Y-12375100D02*
X-6974480Y-12720100D01*
G75*
G02*
X-7121980Y-12867600I-147500J0D01*
G01*
X-7416980Y-12867600D01*
G75*
G02*
X-7564480Y-12720100I0J147500D01*
G01*
X-7564480Y-12375100D01*
G75*
G02*
X-7416980Y-12227600I147500J0D01*
G01*
X-7121980Y-12227600D01*
G75*
G02*
X-6974480Y-12375100I0J-147500D01*
G01*
G37*
G04 #@! TD.AperFunction*
G04 #@! TA.AperFunction,SMDPad,CuDef*
G36*
G01*
X-15948880Y-36899220D02*
X-16293880Y-36899220D01*
G75*
G02*
X-16441380Y-36751720I0J147500D01*
G01*
X-16441380Y-36456720D01*
G75*
G02*
X-16293880Y-36309220I147500J0D01*
G01*
X-15948880Y-36309220D01*
G75*
G02*
X-15801380Y-36456720I0J-147500D01*
G01*
X-15801380Y-36751720D01*
G75*
G02*
X-15948880Y-36899220I-147500J0D01*
G01*
G37*
G04 #@! TD.AperFunction*
G04 #@! TA.AperFunction,SMDPad,CuDef*
G36*
G01*
X-15948880Y-37869220D02*
X-16293880Y-37869220D01*
G75*
G02*
X-16441380Y-37721720I0J147500D01*
G01*
X-16441380Y-37426720D01*
G75*
G02*
X-16293880Y-37279220I147500J0D01*
G01*
X-15948880Y-37279220D01*
G75*
G02*
X-15801380Y-37426720I0J-147500D01*
G01*
X-15801380Y-37721720D01*
G75*
G02*
X-15948880Y-37869220I-147500J0D01*
G01*
G37*
G04 #@! TD.AperFunction*
G04 #@! TA.AperFunction,SMDPad,CuDef*
G36*
G01*
X-12397520Y-37543380D02*
X-12052520Y-37543380D01*
G75*
G02*
X-11905020Y-37690880I0J-147500D01*
G01*
X-11905020Y-37985880D01*
G75*
G02*
X-12052520Y-38133380I-147500J0D01*
G01*
X-12397520Y-38133380D01*
G75*
G02*
X-12545020Y-37985880I0J147500D01*
G01*
X-12545020Y-37690880D01*
G75*
G02*
X-12397520Y-37543380I147500J0D01*
G01*
G37*
G04 #@! TD.AperFunction*
G04 #@! TA.AperFunction,SMDPad,CuDef*
G36*
G01*
X-12397520Y-36573380D02*
X-12052520Y-36573380D01*
G75*
G02*
X-11905020Y-36720880I0J-147500D01*
G01*
X-11905020Y-37015880D01*
G75*
G02*
X-12052520Y-37163380I-147500J0D01*
G01*
X-12397520Y-37163380D01*
G75*
G02*
X-12545020Y-37015880I0J147500D01*
G01*
X-12545020Y-36720880D01*
G75*
G02*
X-12397520Y-36573380I147500J0D01*
G01*
G37*
G04 #@! TD.AperFunction*
G04 #@! TA.AperFunction,SMDPad,CuDef*
G36*
G01*
X-8534760Y-13883420D02*
X-8534760Y-13538420D01*
G75*
G02*
X-8387260Y-13390920I147500J0D01*
G01*
X-8092260Y-13390920D01*
G75*
G02*
X-7944760Y-13538420I0J-147500D01*
G01*
X-7944760Y-13883420D01*
G75*
G02*
X-8092260Y-14030920I-147500J0D01*
G01*
X-8387260Y-14030920D01*
G75*
G02*
X-8534760Y-13883420I0J147500D01*
G01*
G37*
G04 #@! TD.AperFunction*
G04 #@! TA.AperFunction,SMDPad,CuDef*
G36*
G01*
X-9504760Y-13883420D02*
X-9504760Y-13538420D01*
G75*
G02*
X-9357260Y-13390920I147500J0D01*
G01*
X-9062260Y-13390920D01*
G75*
G02*
X-8914760Y-13538420I0J-147500D01*
G01*
X-8914760Y-13883420D01*
G75*
G02*
X-9062260Y-14030920I-147500J0D01*
G01*
X-9357260Y-14030920D01*
G75*
G02*
X-9504760Y-13883420I0J147500D01*
G01*
G37*
G04 #@! TD.AperFunction*
G04 #@! TA.AperFunction,SMDPad,CuDef*
G36*
G01*
X-1935120Y-35796440D02*
X-1935120Y-36141440D01*
G75*
G02*
X-2082620Y-36288940I-147500J0D01*
G01*
X-2377620Y-36288940D01*
G75*
G02*
X-2525120Y-36141440I0J147500D01*
G01*
X-2525120Y-35796440D01*
G75*
G02*
X-2377620Y-35648940I147500J0D01*
G01*
X-2082620Y-35648940D01*
G75*
G02*
X-1935120Y-35796440I0J-147500D01*
G01*
G37*
G04 #@! TD.AperFunction*
G04 #@! TA.AperFunction,SMDPad,CuDef*
G36*
G01*
X-965120Y-35796440D02*
X-965120Y-36141440D01*
G75*
G02*
X-1112620Y-36288940I-147500J0D01*
G01*
X-1407620Y-36288940D01*
G75*
G02*
X-1555120Y-36141440I0J147500D01*
G01*
X-1555120Y-35796440D01*
G75*
G02*
X-1407620Y-35648940I147500J0D01*
G01*
X-1112620Y-35648940D01*
G75*
G02*
X-965120Y-35796440I0J-147500D01*
G01*
G37*
G04 #@! TD.AperFunction*
G04 #@! TA.AperFunction,SMDPad,CuDef*
G36*
G01*
X-1935120Y-34724560D02*
X-1935120Y-35069560D01*
G75*
G02*
X-2082620Y-35217060I-147500J0D01*
G01*
X-2377620Y-35217060D01*
G75*
G02*
X-2525120Y-35069560I0J147500D01*
G01*
X-2525120Y-34724560D01*
G75*
G02*
X-2377620Y-34577060I147500J0D01*
G01*
X-2082620Y-34577060D01*
G75*
G02*
X-1935120Y-34724560I0J-147500D01*
G01*
G37*
G04 #@! TD.AperFunction*
G04 #@! TA.AperFunction,SMDPad,CuDef*
G36*
G01*
X-965120Y-34724560D02*
X-965120Y-35069560D01*
G75*
G02*
X-1112620Y-35217060I-147500J0D01*
G01*
X-1407620Y-35217060D01*
G75*
G02*
X-1555120Y-35069560I0J147500D01*
G01*
X-1555120Y-34724560D01*
G75*
G02*
X-1407620Y-34577060I147500J0D01*
G01*
X-1112620Y-34577060D01*
G75*
G02*
X-965120Y-34724560I0J-147500D01*
G01*
G37*
G04 #@! TD.AperFunction*
G04 #@! TA.AperFunction,SMDPad,CuDef*
G36*
G01*
X-16411300Y-35679160D02*
X-16411300Y-35334160D01*
G75*
G02*
X-16263800Y-35186660I147500J0D01*
G01*
X-15968800Y-35186660D01*
G75*
G02*
X-15821300Y-35334160I0J-147500D01*
G01*
X-15821300Y-35679160D01*
G75*
G02*
X-15968800Y-35826660I-147500J0D01*
G01*
X-16263800Y-35826660D01*
G75*
G02*
X-16411300Y-35679160I0J147500D01*
G01*
G37*
G04 #@! TD.AperFunction*
G04 #@! TA.AperFunction,SMDPad,CuDef*
G36*
G01*
X-17381300Y-35679160D02*
X-17381300Y-35334160D01*
G75*
G02*
X-17233800Y-35186660I147500J0D01*
G01*
X-16938800Y-35186660D01*
G75*
G02*
X-16791300Y-35334160I0J-147500D01*
G01*
X-16791300Y-35679160D01*
G75*
G02*
X-16938800Y-35826660I-147500J0D01*
G01*
X-17233800Y-35826660D01*
G75*
G02*
X-17381300Y-35679160I0J147500D01*
G01*
G37*
G04 #@! TD.AperFunction*
G04 #@! TA.AperFunction,SMDPad,CuDef*
G36*
G01*
X-12479380Y-35920460D02*
X-12479380Y-35575460D01*
G75*
G02*
X-12331880Y-35427960I147500J0D01*
G01*
X-12036880Y-35427960D01*
G75*
G02*
X-11889380Y-35575460I0J-147500D01*
G01*
X-11889380Y-35920460D01*
G75*
G02*
X-12036880Y-36067960I-147500J0D01*
G01*
X-12331880Y-36067960D01*
G75*
G02*
X-12479380Y-35920460I0J147500D01*
G01*
G37*
G04 #@! TD.AperFunction*
G04 #@! TA.AperFunction,SMDPad,CuDef*
G36*
G01*
X-13449380Y-35920460D02*
X-13449380Y-35575460D01*
G75*
G02*
X-13301880Y-35427960I147500J0D01*
G01*
X-13006880Y-35427960D01*
G75*
G02*
X-12859380Y-35575460I0J-147500D01*
G01*
X-12859380Y-35920460D01*
G75*
G02*
X-13006880Y-36067960I-147500J0D01*
G01*
X-13301880Y-36067960D01*
G75*
G02*
X-13449380Y-35920460I0J147500D01*
G01*
G37*
G04 #@! TD.AperFunction*
D12*
X11333480Y-19273520D03*
D17*
X12702540Y-25318720D03*
D18*
X16202540Y-25318720D03*
D17*
X12722860Y-33962340D03*
D18*
X16222860Y-33962340D03*
G04 #@! TA.AperFunction,SMDPad,CuDef*
G36*
G01*
X12132500Y-40235000D02*
X11787500Y-40235000D01*
G75*
G02*
X11640000Y-40087500I0J147500D01*
G01*
X11640000Y-39792500D01*
G75*
G02*
X11787500Y-39645000I147500J0D01*
G01*
X12132500Y-39645000D01*
G75*
G02*
X12280000Y-39792500I0J-147500D01*
G01*
X12280000Y-40087500D01*
G75*
G02*
X12132500Y-40235000I-147500J0D01*
G01*
G37*
G04 #@! TD.AperFunction*
G04 #@! TA.AperFunction,SMDPad,CuDef*
G36*
G01*
X12132500Y-41205000D02*
X11787500Y-41205000D01*
G75*
G02*
X11640000Y-41057500I0J147500D01*
G01*
X11640000Y-40762500D01*
G75*
G02*
X11787500Y-40615000I147500J0D01*
G01*
X12132500Y-40615000D01*
G75*
G02*
X12280000Y-40762500I0J-147500D01*
G01*
X12280000Y-41057500D01*
G75*
G02*
X12132500Y-41205000I-147500J0D01*
G01*
G37*
G04 #@! TD.AperFunction*
G04 #@! TA.AperFunction,SMDPad,CuDef*
G36*
G01*
X9625000Y-44822500D02*
X9625000Y-44477500D01*
G75*
G02*
X9772500Y-44330000I147500J0D01*
G01*
X10067500Y-44330000D01*
G75*
G02*
X10215000Y-44477500I0J-147500D01*
G01*
X10215000Y-44822500D01*
G75*
G02*
X10067500Y-44970000I-147500J0D01*
G01*
X9772500Y-44970000D01*
G75*
G02*
X9625000Y-44822500I0J147500D01*
G01*
G37*
G04 #@! TD.AperFunction*
G04 #@! TA.AperFunction,SMDPad,CuDef*
G36*
G01*
X8655000Y-44822500D02*
X8655000Y-44477500D01*
G75*
G02*
X8802500Y-44330000I147500J0D01*
G01*
X9097500Y-44330000D01*
G75*
G02*
X9245000Y-44477500I0J-147500D01*
G01*
X9245000Y-44822500D01*
G75*
G02*
X9097500Y-44970000I-147500J0D01*
G01*
X8802500Y-44970000D01*
G75*
G02*
X8655000Y-44822500I0J147500D01*
G01*
G37*
G04 #@! TD.AperFunction*
G04 #@! TA.AperFunction,SMDPad,CuDef*
G36*
G01*
X12165000Y-48022500D02*
X12165000Y-47677500D01*
G75*
G02*
X12312500Y-47530000I147500J0D01*
G01*
X12607500Y-47530000D01*
G75*
G02*
X12755000Y-47677500I0J-147500D01*
G01*
X12755000Y-48022500D01*
G75*
G02*
X12607500Y-48170000I-147500J0D01*
G01*
X12312500Y-48170000D01*
G75*
G02*
X12165000Y-48022500I0J147500D01*
G01*
G37*
G04 #@! TD.AperFunction*
G04 #@! TA.AperFunction,SMDPad,CuDef*
G36*
G01*
X11195000Y-48022500D02*
X11195000Y-47677500D01*
G75*
G02*
X11342500Y-47530000I147500J0D01*
G01*
X11637500Y-47530000D01*
G75*
G02*
X11785000Y-47677500I0J-147500D01*
G01*
X11785000Y-48022500D01*
G75*
G02*
X11637500Y-48170000I-147500J0D01*
G01*
X11342500Y-48170000D01*
G75*
G02*
X11195000Y-48022500I0J147500D01*
G01*
G37*
G04 #@! TD.AperFunction*
D17*
X8315840Y-39116000D03*
D18*
X4815840Y-39116000D03*
G04 #@! TA.AperFunction,SMDPad,CuDef*
G36*
G01*
X13646250Y-50357500D02*
X12733750Y-50357500D01*
G75*
G02*
X12490000Y-50113750I0J243750D01*
G01*
X12490000Y-49626250D01*
G75*
G02*
X12733750Y-49382500I243750J0D01*
G01*
X13646250Y-49382500D01*
G75*
G02*
X13890000Y-49626250I0J-243750D01*
G01*
X13890000Y-50113750D01*
G75*
G02*
X13646250Y-50357500I-243750J0D01*
G01*
G37*
G04 #@! TD.AperFunction*
G04 #@! TA.AperFunction,SMDPad,CuDef*
G36*
G01*
X13646250Y-52232500D02*
X12733750Y-52232500D01*
G75*
G02*
X12490000Y-51988750I0J243750D01*
G01*
X12490000Y-51501250D01*
G75*
G02*
X12733750Y-51257500I243750J0D01*
G01*
X13646250Y-51257500D01*
G75*
G02*
X13890000Y-51501250I0J-243750D01*
G01*
X13890000Y-51988750D01*
G75*
G02*
X13646250Y-52232500I-243750J0D01*
G01*
G37*
G04 #@! TD.AperFunction*
G04 #@! TA.AperFunction,SMDPad,CuDef*
G36*
G01*
X11736250Y-50367500D02*
X11223750Y-50367500D01*
G75*
G02*
X11005000Y-50148750I0J218750D01*
G01*
X11005000Y-49711250D01*
G75*
G02*
X11223750Y-49492500I218750J0D01*
G01*
X11736250Y-49492500D01*
G75*
G02*
X11955000Y-49711250I0J-218750D01*
G01*
X11955000Y-50148750D01*
G75*
G02*
X11736250Y-50367500I-218750J0D01*
G01*
G37*
G04 #@! TD.AperFunction*
G04 #@! TA.AperFunction,SMDPad,CuDef*
G36*
G01*
X11736250Y-51942500D02*
X11223750Y-51942500D01*
G75*
G02*
X11005000Y-51723750I0J218750D01*
G01*
X11005000Y-51286250D01*
G75*
G02*
X11223750Y-51067500I218750J0D01*
G01*
X11736250Y-51067500D01*
G75*
G02*
X11955000Y-51286250I0J-218750D01*
G01*
X11955000Y-51723750D01*
G75*
G02*
X11736250Y-51942500I-218750J0D01*
G01*
G37*
G04 #@! TD.AperFunction*
G04 #@! TA.AperFunction,SMDPad,CuDef*
G36*
G01*
X9625000Y-45952500D02*
X9625000Y-45607500D01*
G75*
G02*
X9772500Y-45460000I147500J0D01*
G01*
X10067500Y-45460000D01*
G75*
G02*
X10215000Y-45607500I0J-147500D01*
G01*
X10215000Y-45952500D01*
G75*
G02*
X10067500Y-46100000I-147500J0D01*
G01*
X9772500Y-46100000D01*
G75*
G02*
X9625000Y-45952500I0J147500D01*
G01*
G37*
G04 #@! TD.AperFunction*
G04 #@! TA.AperFunction,SMDPad,CuDef*
G36*
G01*
X8655000Y-45952500D02*
X8655000Y-45607500D01*
G75*
G02*
X8802500Y-45460000I147500J0D01*
G01*
X9097500Y-45460000D01*
G75*
G02*
X9245000Y-45607500I0J-147500D01*
G01*
X9245000Y-45952500D01*
G75*
G02*
X9097500Y-46100000I-147500J0D01*
G01*
X8802500Y-46100000D01*
G75*
G02*
X8655000Y-45952500I0J147500D01*
G01*
G37*
G04 #@! TD.AperFunction*
G04 #@! TA.AperFunction,SMDPad,CuDef*
G36*
G01*
X15439070Y-42484700D02*
X16351570Y-42484700D01*
G75*
G02*
X16595320Y-42728450I0J-243750D01*
G01*
X16595320Y-43215950D01*
G75*
G02*
X16351570Y-43459700I-243750J0D01*
G01*
X15439070Y-43459700D01*
G75*
G02*
X15195320Y-43215950I0J243750D01*
G01*
X15195320Y-42728450D01*
G75*
G02*
X15439070Y-42484700I243750J0D01*
G01*
G37*
G04 #@! TD.AperFunction*
G04 #@! TA.AperFunction,SMDPad,CuDef*
G36*
G01*
X15439070Y-40609700D02*
X16351570Y-40609700D01*
G75*
G02*
X16595320Y-40853450I0J-243750D01*
G01*
X16595320Y-41340950D01*
G75*
G02*
X16351570Y-41584700I-243750J0D01*
G01*
X15439070Y-41584700D01*
G75*
G02*
X15195320Y-41340950I0J243750D01*
G01*
X15195320Y-40853450D01*
G75*
G02*
X15439070Y-40609700I243750J0D01*
G01*
G37*
G04 #@! TD.AperFunction*
G04 #@! TA.AperFunction,SMDPad,CuDef*
G36*
G01*
X17564390Y-42188880D02*
X18076890Y-42188880D01*
G75*
G02*
X18295640Y-42407630I0J-218750D01*
G01*
X18295640Y-42845130D01*
G75*
G02*
X18076890Y-43063880I-218750J0D01*
G01*
X17564390Y-43063880D01*
G75*
G02*
X17345640Y-42845130I0J218750D01*
G01*
X17345640Y-42407630D01*
G75*
G02*
X17564390Y-42188880I218750J0D01*
G01*
G37*
G04 #@! TD.AperFunction*
G04 #@! TA.AperFunction,SMDPad,CuDef*
G36*
G01*
X17564390Y-40613880D02*
X18076890Y-40613880D01*
G75*
G02*
X18295640Y-40832630I0J-218750D01*
G01*
X18295640Y-41270130D01*
G75*
G02*
X18076890Y-41488880I-218750J0D01*
G01*
X17564390Y-41488880D01*
G75*
G02*
X17345640Y-41270130I0J218750D01*
G01*
X17345640Y-40832630D01*
G75*
G02*
X17564390Y-40613880I218750J0D01*
G01*
G37*
G04 #@! TD.AperFunction*
D19*
X-17000000Y-57000000D03*
D20*
X12040000Y-57390000D03*
X-12948920Y-58592720D03*
X-17090000Y2220000D03*
D19*
X17000000Y-57000000D03*
G04 #@! TA.AperFunction,SMDPad,CuDef*
G36*
G01*
X-6304500Y-5083040D02*
X-6649500Y-5083040D01*
G75*
G02*
X-6797000Y-4935540I0J147500D01*
G01*
X-6797000Y-4640540D01*
G75*
G02*
X-6649500Y-4493040I147500J0D01*
G01*
X-6304500Y-4493040D01*
G75*
G02*
X-6157000Y-4640540I0J-147500D01*
G01*
X-6157000Y-4935540D01*
G75*
G02*
X-6304500Y-5083040I-147500J0D01*
G01*
G37*
G04 #@! TD.AperFunction*
G04 #@! TA.AperFunction,SMDPad,CuDef*
G36*
G01*
X-6304500Y-6053040D02*
X-6649500Y-6053040D01*
G75*
G02*
X-6797000Y-5905540I0J147500D01*
G01*
X-6797000Y-5610540D01*
G75*
G02*
X-6649500Y-5463040I147500J0D01*
G01*
X-6304500Y-5463040D01*
G75*
G02*
X-6157000Y-5610540I0J-147500D01*
G01*
X-6157000Y-5905540D01*
G75*
G02*
X-6304500Y-6053040I-147500J0D01*
G01*
G37*
G04 #@! TD.AperFunction*
G04 #@! TA.AperFunction,SMDPad,CuDef*
G36*
G01*
X-5105620Y-5070480D02*
X-5450620Y-5070480D01*
G75*
G02*
X-5598120Y-4922980I0J147500D01*
G01*
X-5598120Y-4627980D01*
G75*
G02*
X-5450620Y-4480480I147500J0D01*
G01*
X-5105620Y-4480480D01*
G75*
G02*
X-4958120Y-4627980I0J-147500D01*
G01*
X-4958120Y-4922980D01*
G75*
G02*
X-5105620Y-5070480I-147500J0D01*
G01*
G37*
G04 #@! TD.AperFunction*
G04 #@! TA.AperFunction,SMDPad,CuDef*
G36*
G01*
X-5105620Y-6040480D02*
X-5450620Y-6040480D01*
G75*
G02*
X-5598120Y-5892980I0J147500D01*
G01*
X-5598120Y-5597980D01*
G75*
G02*
X-5450620Y-5450480I147500J0D01*
G01*
X-5105620Y-5450480D01*
G75*
G02*
X-4958120Y-5597980I0J-147500D01*
G01*
X-4958120Y-5892980D01*
G75*
G02*
X-5105620Y-6040480I-147500J0D01*
G01*
G37*
G04 #@! TD.AperFunction*
D21*
X-19000000Y-44000000D03*
X-15273020Y-34483040D03*
X-19000000Y-42000000D03*
X-19000000Y-50000000D03*
X-19000000Y-52000000D03*
X-19039840Y-53939440D03*
X16570960Y-44323000D03*
X18684240Y-44048680D03*
X8026400Y-11938000D03*
X17647920Y-39613840D03*
X-7757160Y-36824920D03*
X-4973320Y-34508440D03*
X-19000000Y-40000000D03*
X-19000000Y-38000000D03*
X-16000000Y-40000000D03*
X-11882120Y-57292240D03*
X7020560Y3048000D03*
X13766800Y-55737760D03*
X13538200Y-57810400D03*
X13929360Y-59232800D03*
X-14030960Y-54660800D03*
X-16504920Y-53522880D03*
X-19000000Y-46000000D03*
X-19000000Y-48000000D03*
X10580000Y-48950000D03*
X13710000Y-48600000D03*
X-9260840Y-14808200D03*
X-11318240Y-11582400D03*
X1000000Y-42000000D03*
X1000000Y-44000000D03*
X1000000Y-46000000D03*
X1000000Y-48000000D03*
X1000000Y-50000000D03*
X1000000Y-52000000D03*
X1000000Y-54000000D03*
X1000000Y-56000000D03*
X-1000000Y-42000000D03*
X-3000000Y-42000000D03*
X-5000000Y-42000000D03*
X-7000000Y-42000000D03*
X-9000000Y-42000000D03*
X-11000000Y-42000000D03*
X-13000000Y-42000000D03*
X-15000000Y-42000000D03*
X3000000Y-54000000D03*
X5000000Y-54000000D03*
X7000000Y-54000000D03*
X9000000Y-54000000D03*
X11000000Y-54000000D03*
X13000000Y-54000000D03*
X15000000Y-54000000D03*
X-11000000Y-59000000D03*
X-9000000Y-59000000D03*
X-7000000Y-59000000D03*
X-5000000Y-59000000D03*
X-3000000Y-59000000D03*
X-1000000Y-59000000D03*
X1000000Y-59000000D03*
X3000000Y-59000000D03*
X5000000Y-59000000D03*
X7000000Y-59000000D03*
X9000000Y-59000000D03*
X11000000Y-59000000D03*
X9000000Y-56000000D03*
X-6000000Y-56000000D03*
X-6000000Y-48000000D03*
X-15000000Y-48000000D03*
X-11000000Y-52000000D03*
X-2000000Y-52000000D03*
X-11000000Y-45000000D03*
X-2000000Y-45000000D03*
X19000000Y-40000000D03*
X19000000Y-38000000D03*
X19000000Y-36000000D03*
X19000000Y-34000000D03*
X19000000Y-32000000D03*
X19000000Y-30000000D03*
X19000000Y-28000000D03*
X19000000Y-26000000D03*
X19000000Y-24000000D03*
X19000000Y-22000000D03*
X19000000Y-20000000D03*
X19000000Y-18000000D03*
X19000000Y-16000000D03*
X19000000Y-14000000D03*
X19000000Y-12000000D03*
X15011460Y-14988540D03*
X10000000Y-15000000D03*
X10000000Y-17000000D03*
X10000000Y-19000000D03*
X10000000Y-21000000D03*
X10000000Y-23000000D03*
X10000000Y-25000000D03*
X10000000Y-27000000D03*
X10000000Y-29000000D03*
X10000000Y-31000000D03*
X10000000Y-33000000D03*
X10000000Y-35000000D03*
X10000000Y-37000000D03*
X10000000Y-41000000D03*
X13410000Y-19790000D03*
X13950000Y-21530000D03*
X15000000Y-23000000D03*
X15000000Y-27000000D03*
X15000000Y-29000000D03*
X15000000Y-31000000D03*
X15000000Y-36000000D03*
X15000000Y-38000000D03*
X14000000Y-39000000D03*
X12000000Y-38000000D03*
X-19000000Y1000000D03*
X-18000000Y4000000D03*
X-16000000Y4000000D03*
X-14000000Y4000000D03*
X-12000000Y4000000D03*
X-10000000Y4000000D03*
X-5000000Y4000000D03*
X-3000000Y4000000D03*
X-1244600Y-3854600D03*
X1000000Y-4000000D03*
X3000000Y-4000000D03*
X5000000Y-4000000D03*
X5050000Y-6760000D03*
X3240000Y-6760000D03*
X1240000Y-6760000D03*
X-1000000Y-7000000D03*
X-10000000Y-5000000D03*
X-10000000Y-7000000D03*
X15000000Y2000000D03*
X15000000Y0D03*
X15000000Y-2000000D03*
X15000000Y-4000000D03*
X15000000Y-6000000D03*
X15215000Y-7785000D03*
X17000000Y-5000000D03*
X17000000Y-2000000D03*
X17000000Y1000000D03*
X17000000Y-8000000D03*
X8000000Y-4000000D03*
X10000000Y-4000000D03*
X12000000Y-4000000D03*
X8240000Y-6760000D03*
X10240000Y-6760000D03*
X12240000Y-6760000D03*
X1000000Y-14000000D03*
X1000000Y-18000000D03*
X1000000Y-20000000D03*
X1000000Y-22000000D03*
X1000000Y-24000000D03*
X1000000Y-26000000D03*
X1000000Y-28000000D03*
X1000000Y-30000000D03*
X1000000Y-32000000D03*
X1000000Y-34000000D03*
X12700000Y-27200000D03*
X12700000Y-29100000D03*
X12700000Y-31200000D03*
X18060000Y-10380000D03*
X10720000Y-10410000D03*
X-220000Y-10410000D03*
X-12030000Y-9160000D03*
X-12160000Y-5160000D03*
X-12160000Y-7160000D03*
X-5278120Y-3230880D03*
X-6477000Y-3967480D03*
X-12258040Y-34584640D03*
X10609580Y-47807880D03*
X-8244840Y-8305800D03*
X-8255000Y-10673080D03*
X-3784600Y-6060440D03*
X12590000Y-17460000D03*
X16710000Y-12960000D03*
X9794999Y-12944999D03*
X-8897900Y-37617120D03*
X-14813280Y-37284660D03*
X-16484600Y-34523680D03*
X4770120Y-18430240D03*
X-5847080Y-6797040D03*
X-14235680Y-34487100D03*
D22*
X-1244600Y-1295400D02*
X-1244600Y-3854600D01*
D23*
X-4235680Y-13910080D02*
X-4239260Y-13906500D01*
D24*
X-4235680Y-17139280D02*
X-4235680Y-13910080D01*
D23*
X15895320Y-43459700D02*
X15895320Y-42972200D01*
X17474820Y-42972200D02*
X17820640Y-42626380D01*
D25*
X-1260120Y-34897060D02*
X-1260120Y-35412960D01*
X-1260120Y-35412960D02*
X-1260120Y-35968940D01*
D22*
X15313660Y-14988540D02*
X15011460Y-14988540D01*
X12283440Y-14988540D02*
X11325860Y-15946120D01*
X11325860Y-23942040D02*
X12702540Y-25318720D01*
X11325860Y-15946120D02*
X11325860Y-19692620D01*
X11325860Y-23035260D02*
X11325860Y-23942040D01*
X11325860Y-19692620D02*
X11325860Y-23035260D01*
D23*
X-9209760Y-14757120D02*
X-9260840Y-14808200D01*
X-9209760Y-13710920D02*
X-9209760Y-14757120D01*
D22*
X15011460Y-14988540D02*
X12283440Y-14988540D01*
X-1244600Y-3854600D02*
X-1244600Y-3854600D01*
D24*
X12460000Y-46370000D02*
X12480000Y-46350000D01*
X12460000Y-47850000D02*
X12460000Y-46370000D01*
D23*
X-14235680Y-12122400D02*
X-14196060Y-12082780D01*
D24*
X10720000Y-10410000D02*
X10720000Y-10410000D01*
X18030000Y-10410000D02*
X18060000Y-10380000D01*
X10720000Y-10410000D02*
X18030000Y-10410000D01*
X-320000Y-10410000D02*
X-220000Y-10510000D01*
X-869990Y-9760010D02*
X-220000Y-10410000D01*
D23*
X-14251940Y-12138660D02*
X-14196060Y-12082780D01*
X-14251940Y-13871220D02*
X-14251940Y-12138660D01*
D24*
X-14196060Y-12082780D02*
X-13135400Y-12082780D01*
X-13135400Y-12082780D02*
X-10812630Y-9760010D01*
X-10812630Y-9760010D02*
X-869990Y-9760010D01*
X-14700000Y-9150000D02*
X-16238220Y-10688220D01*
X-12985282Y-9150000D02*
X-14700000Y-9150000D01*
X-12975282Y-9160000D02*
X-12985282Y-9150000D01*
X4310000Y-9160000D02*
X-12030000Y-9160000D01*
X6375400Y-7094600D02*
X4310000Y-9160000D01*
X6375400Y-1295400D02*
X6375400Y-7094600D01*
X-12030000Y-9160000D02*
X-12975282Y-9160000D01*
X-16238220Y-13903960D02*
X-16240760Y-13906500D01*
X-16238220Y-10688220D02*
X-16238220Y-13903960D01*
D23*
X-5278120Y-4775480D02*
X-5278120Y-3230880D01*
X-5278120Y-3230880D02*
X-5278120Y-3230880D01*
X-6461760Y-4659799D02*
X-6477000Y-4675039D01*
X-6461760Y-3860800D02*
X-6461760Y-4659799D01*
X-12110720Y-32339280D02*
X-12235680Y-32339280D01*
X-12235680Y-32339280D02*
X-12235680Y-35415720D01*
X-12212320Y-35219640D02*
X-12197080Y-35204400D01*
X-12212320Y-36383240D02*
X-12212320Y-35219640D01*
X-12225020Y-36395940D02*
X-12212320Y-36383240D01*
X-12225020Y-36868380D02*
X-12225020Y-36395940D01*
D24*
X11447880Y-47807880D02*
X11490000Y-47850000D01*
X10609580Y-47807880D02*
X11447880Y-47807880D01*
X11530000Y-47810000D02*
X11490000Y-47850000D01*
X11530000Y-46350000D02*
X11530000Y-47810000D01*
D23*
X-16235680Y-17139280D02*
X-16235680Y-15951200D01*
D24*
X-16240760Y-17089240D02*
X-16220000Y-17110000D01*
X-16240760Y-14876500D02*
X-16240760Y-17089240D01*
D23*
X-6235680Y-32339280D02*
X-6235680Y-34404320D01*
X-6235680Y-35582880D02*
X-6088380Y-35730180D01*
X-6235680Y-34404320D02*
X-6235680Y-35582880D01*
D24*
X-8260080Y-6187440D02*
X-8326120Y-6253480D01*
X-8260080Y-3284220D02*
X-8260080Y-6187440D01*
X-8294300Y-3250000D02*
X-8260080Y-3284220D01*
X-13980000Y-2240000D02*
X-12970000Y-3250000D01*
X-13970000Y-2230000D02*
X-13980000Y-2240000D01*
X-13970000Y3002280D02*
X-13970000Y-2230000D01*
X-12970000Y-3250000D02*
X-8294300Y-3250000D01*
X5598160Y3002280D02*
X-13970000Y3002280D01*
X6375400Y2225040D02*
X5598160Y3002280D01*
X6375400Y1244600D02*
X6375400Y2225040D01*
D23*
X-8235680Y-13920200D02*
X-8219440Y-13903960D01*
D24*
X-8235680Y-17139280D02*
X-8235680Y-13920200D01*
X-8224520Y-13909040D02*
X-8235680Y-13920200D01*
X-8224520Y-12946380D02*
X-8224520Y-13909040D01*
X-8326120Y-8224520D02*
X-8244840Y-8305800D01*
X-8326120Y-6253480D02*
X-8326120Y-8224520D01*
X-8219440Y-12941300D02*
X-8224520Y-12946380D01*
X-8219440Y-11978640D02*
X-8219440Y-12941300D01*
X-8224520Y-11976380D02*
X-8224520Y-11394440D01*
X-8234680Y-11384280D02*
X-8224520Y-11394440D01*
X-8234680Y-10535920D02*
X-8234680Y-11384280D01*
D22*
X-3784600Y-1295400D02*
X-3784600Y-3914600D01*
X17774820Y-41097200D02*
X17820640Y-41051380D01*
X15895320Y-41097200D02*
X17774820Y-41097200D01*
X15195320Y-41097200D02*
X15170440Y-41122080D01*
X14233120Y-41122080D02*
X13876020Y-41479180D01*
X15170440Y-41122080D02*
X14233120Y-41122080D01*
X15895320Y-41097200D02*
X15195320Y-41097200D01*
X13876020Y-41479180D02*
X13876020Y-43616880D01*
X16202540Y-19913720D02*
X16299180Y-19817080D01*
X16202540Y-25318720D02*
X16202540Y-19913720D01*
X16299180Y-19817080D02*
X16299180Y-18102580D01*
X16299180Y-18102580D02*
X15732760Y-17536160D01*
X12725870Y-17536160D02*
X12725870Y-17460000D01*
X15732760Y-17536160D02*
X12725870Y-17536160D01*
X16202540Y-33942020D02*
X16222860Y-33962340D01*
X16202540Y-25318720D02*
X16202540Y-33942020D01*
X16222860Y-40769660D02*
X15895320Y-41097200D01*
X16222860Y-33962340D02*
X16222860Y-40769660D01*
X-3784600Y-3914600D02*
X-3784600Y-6060440D01*
D24*
X9794999Y-12944999D02*
X9794999Y-12944999D01*
X16694999Y-12944999D02*
X16710000Y-12960000D01*
X9794999Y-12944999D02*
X16694999Y-12944999D01*
X-16116300Y-36599140D02*
X-16121380Y-36604220D01*
X-16116300Y-35506660D02*
X-16116300Y-36599140D01*
X-16116300Y-32413700D02*
X-16220000Y-32310000D01*
X-18166080Y-34477960D02*
X-16116300Y-34477960D01*
X-18783300Y-35095180D02*
X-18166080Y-34477960D01*
X-16116300Y-34477960D02*
X-16116300Y-32413700D01*
X-16116300Y-35506660D02*
X-16116300Y-34477960D01*
X-8897900Y-37617120D02*
X-8897900Y-37617120D01*
X-10218420Y-37617120D02*
X-8897900Y-37617120D01*
X-16121380Y-36604220D02*
X-15493720Y-36604220D01*
X-15493720Y-36604220D02*
X-14813280Y-37284660D01*
D25*
X-2235680Y-37204320D02*
X-1365000Y-38075000D01*
X-2235680Y-32339280D02*
X-2235680Y-37204320D01*
D23*
X-12344400Y-37957760D02*
X-12225020Y-37838380D01*
D25*
X-1490980Y-37906960D02*
X-1694180Y-37703760D01*
X-12230100Y-37843460D02*
X-12225020Y-37838380D01*
D22*
X17396620Y-50401380D02*
X17101820Y-50401380D01*
D24*
X-12893040Y-39702740D02*
X-12893040Y-39268400D01*
X-12225020Y-38600380D02*
X-12225020Y-37838380D01*
X-12893040Y-39268400D02*
X-12225020Y-38600380D01*
X-13992860Y-39702740D02*
X-12893040Y-39702740D01*
X-16121380Y-37574220D02*
X-13992860Y-39702740D01*
D23*
X4693920Y-14198600D02*
X4693920Y-15021560D01*
D24*
X4693920Y-13088282D02*
X4693920Y-14198600D01*
X4394439Y-12788801D02*
X4693920Y-13088282D01*
X974799Y-12788801D02*
X4394439Y-12788801D01*
X-5755640Y-10368280D02*
X-1445722Y-10368280D01*
X-1445722Y-10368280D02*
X974799Y-12788801D01*
X-7264400Y-11877040D02*
X-5755640Y-10368280D01*
X-7264400Y-12542520D02*
X-7264400Y-11877040D01*
X-7269480Y-12547600D02*
X-7264400Y-12542520D01*
X9920000Y-44650000D02*
X9920000Y-44050000D01*
X10240000Y-43730000D02*
X11530000Y-43730000D01*
X9920000Y-44050000D02*
X10240000Y-43730000D01*
X9920000Y-45780000D02*
X9920000Y-44650000D01*
X11530000Y-41340000D02*
X11960000Y-40910000D01*
X11530000Y-43730000D02*
X11530000Y-41340000D01*
D23*
X-6464440Y-5745480D02*
X-6477000Y-5758040D01*
X-5278120Y-5745480D02*
X-6464440Y-5745480D01*
X-5847080Y-6797040D02*
X-5328920Y-6278880D01*
X-5847080Y-6797040D02*
X-6451600Y-6192520D01*
X-6451600Y-5783440D02*
X-6477000Y-5758040D01*
X-6451600Y-6192520D02*
X-6451600Y-5783440D01*
X-5328920Y-5796280D02*
X-5278120Y-5745480D01*
X-5328920Y-6278880D02*
X-5328920Y-5796280D01*
X-8864600Y-2704670D02*
X-8864600Y-1295400D01*
X-8844280Y-2724990D02*
X-8864600Y-2704670D01*
X-8076834Y-2724990D02*
X-8844280Y-2724990D01*
X-7655560Y-3146264D02*
X-8076834Y-2724990D01*
X-7655560Y-4998720D02*
X-7655560Y-3146264D01*
X-6896240Y-5758040D02*
X-7655560Y-4998720D01*
X-6477000Y-5758040D02*
X-6896240Y-5758040D01*
X16737320Y-46236880D02*
X17101820Y-46601380D01*
D25*
X13876020Y-46236880D02*
X16737320Y-46236880D01*
D24*
X13762900Y-46350000D02*
X13876020Y-46236880D01*
X13430000Y-46350000D02*
X13762900Y-46350000D01*
D23*
X-10235680Y-32339280D02*
X-10235680Y-35484320D01*
X-10251440Y-36614100D02*
X-10218420Y-36647120D01*
X-10251440Y-35100260D02*
X-10251440Y-36614100D01*
X-14235680Y-17139280D02*
X-14235680Y-16775680D01*
X-14251940Y-17078060D02*
X-14220000Y-17110000D01*
X-14251940Y-14841220D02*
X-14251940Y-17078060D01*
X-4235680Y-32339280D02*
X-4235680Y-35134320D01*
X-4235680Y-37052020D02*
X-4028440Y-37259260D01*
X-4235680Y-35134320D02*
X-4235680Y-37052020D01*
X-14235680Y-32339280D02*
X-14235680Y-34487100D01*
X-8235680Y-32339280D02*
X-8235680Y-34806620D01*
X-8235680Y-34806620D02*
X-8235680Y-34944320D01*
D25*
X-5491480Y-12024360D02*
X-5491480Y-12252960D01*
X-6220000Y-12981480D02*
X-6220000Y-17110000D01*
X-5491480Y-12252960D02*
X-6220000Y-12981480D01*
D23*
X-10210800Y-17114400D02*
X-10235680Y-17139280D01*
D24*
X-10220000Y-12734600D02*
X-9707880Y-12222480D01*
X-10220000Y-17110000D02*
X-10220000Y-12734600D01*
D23*
X-12235680Y-17139280D02*
X-12235680Y-16193000D01*
X-12235680Y-17139280D02*
X-12235680Y-16045680D01*
X-12235680Y-13875520D02*
X-12237720Y-13873480D01*
D24*
X-12235680Y-17139280D02*
X-12235680Y-13875520D01*
D26*
X14123807Y-50322539D02*
X10056407Y-50307696D01*
X10033000Y-48833032D01*
X10033000Y-48598151D01*
X10153199Y-48596042D01*
X10162199Y-48600853D01*
X10186024Y-48608080D01*
X10208213Y-48610494D01*
X12096773Y-48648974D01*
X12121594Y-48647039D01*
X12145561Y-48640298D01*
X12167752Y-48629012D01*
X12187315Y-48613613D01*
X12203497Y-48594694D01*
X12215678Y-48572981D01*
X12223389Y-48549309D01*
X12226344Y-48519958D01*
X12209645Y-47481627D01*
X14142170Y-47430431D01*
X14123807Y-50322539D01*
G04 #@! TA.AperFunction,Conductor*
D27*
G36*
X14123807Y-50322539D02*
G01*
X10056407Y-50307696D01*
X10033000Y-48833032D01*
X10033000Y-48598151D01*
X10153199Y-48596042D01*
X10162199Y-48600853D01*
X10186024Y-48608080D01*
X10208213Y-48610494D01*
X12096773Y-48648974D01*
X12121594Y-48647039D01*
X12145561Y-48640298D01*
X12167752Y-48629012D01*
X12187315Y-48613613D01*
X12203497Y-48594694D01*
X12215678Y-48572981D01*
X12223389Y-48549309D01*
X12226344Y-48519958D01*
X12209645Y-47481627D01*
X14142170Y-47430431D01*
X14123807Y-50322539D01*
G37*
G04 #@! TD.AperFunction*
D26*
X6373000Y-43800000D02*
X6375440Y-43824776D01*
X6382667Y-43848601D01*
X6394403Y-43870557D01*
X6410197Y-43889803D01*
X6429443Y-43905597D01*
X6451399Y-43917333D01*
X6475224Y-43924560D01*
X6499556Y-43926999D01*
X8159508Y-43932803D01*
X8124463Y-43975506D01*
X8065498Y-44085820D01*
X8029188Y-44205518D01*
X8016928Y-44330000D01*
X8020000Y-44364250D01*
X8178750Y-44523000D01*
X8823000Y-44523000D01*
X8823000Y-44503000D01*
X9077000Y-44503000D01*
X9077000Y-44523000D01*
X9097000Y-44523000D01*
X9097000Y-44777000D01*
X9077000Y-44777000D01*
X9077000Y-45653000D01*
X9097000Y-45653000D01*
X9097000Y-45907000D01*
X9077000Y-45907000D01*
X9077000Y-46576250D01*
X9235750Y-46735000D01*
X9245000Y-46738072D01*
X9253637Y-46737221D01*
X9253009Y-46828301D01*
X9173026Y-50797441D01*
X9174966Y-50822262D01*
X9181712Y-50846227D01*
X9193003Y-50868416D01*
X9208406Y-50887975D01*
X9227329Y-50904154D01*
X9249045Y-50916330D01*
X9272719Y-50924035D01*
X9300000Y-50927000D01*
X14478000Y-50927000D01*
X14502776Y-50924560D01*
X14526601Y-50917333D01*
X14548557Y-50905597D01*
X14567803Y-50889803D01*
X14583597Y-50870557D01*
X14595333Y-50848601D01*
X14602560Y-50824776D01*
X14605000Y-50800000D01*
X14605000Y-49150207D01*
X19423000Y-49195803D01*
X19423000Y-52673000D01*
X2327000Y-52673000D01*
X2327000Y-46100000D01*
X8016928Y-46100000D01*
X8029188Y-46224482D01*
X8065498Y-46344180D01*
X8124463Y-46454494D01*
X8203815Y-46551185D01*
X8300506Y-46630537D01*
X8410820Y-46689502D01*
X8530518Y-46725812D01*
X8655000Y-46738072D01*
X8664250Y-46735000D01*
X8823000Y-46576250D01*
X8823000Y-45907000D01*
X8178750Y-45907000D01*
X8020000Y-46065750D01*
X8016928Y-46100000D01*
X2327000Y-46100000D01*
X2327000Y-44970000D01*
X8016928Y-44970000D01*
X8029188Y-45094482D01*
X8065498Y-45214180D01*
X8065936Y-45215000D01*
X8065498Y-45215820D01*
X8029188Y-45335518D01*
X8016928Y-45460000D01*
X8020000Y-45494250D01*
X8178750Y-45653000D01*
X8823000Y-45653000D01*
X8823000Y-44777000D01*
X8178750Y-44777000D01*
X8020000Y-44935750D01*
X8016928Y-44970000D01*
X2327000Y-44970000D01*
X2327000Y-40900000D01*
X2324560Y-40875224D01*
X2317333Y-40851399D01*
X2305597Y-40829443D01*
X2289803Y-40810197D01*
X2270557Y-40794403D01*
X2248601Y-40782667D01*
X2224776Y-40775440D01*
X2200000Y-40773000D01*
X-14273000Y-40773000D01*
X-14273000Y-39916000D01*
X3377768Y-39916000D01*
X3390028Y-40040482D01*
X3426338Y-40160180D01*
X3485303Y-40270494D01*
X3564655Y-40367185D01*
X3661346Y-40446537D01*
X3771660Y-40505502D01*
X3891358Y-40541812D01*
X4015840Y-40554072D01*
X4530090Y-40551000D01*
X4688840Y-40392250D01*
X4688840Y-39243000D01*
X4942840Y-39243000D01*
X4942840Y-40392250D01*
X5101590Y-40551000D01*
X5615840Y-40554072D01*
X5740322Y-40541812D01*
X5860020Y-40505502D01*
X5970334Y-40446537D01*
X6067025Y-40367185D01*
X6146377Y-40270494D01*
X6205342Y-40160180D01*
X6241652Y-40040482D01*
X6253912Y-39916000D01*
X6250840Y-39401750D01*
X6092090Y-39243000D01*
X4942840Y-39243000D01*
X4688840Y-39243000D01*
X3539590Y-39243000D01*
X3380840Y-39401750D01*
X3377768Y-39916000D01*
X-14273000Y-39916000D01*
X-14273000Y-38133380D01*
X-13183092Y-38133380D01*
X-13170832Y-38257862D01*
X-13134522Y-38377560D01*
X-13075557Y-38487874D01*
X-12996205Y-38584565D01*
X-12899514Y-38663917D01*
X-12789200Y-38722882D01*
X-12669502Y-38759192D01*
X-12545020Y-38771452D01*
X-12510770Y-38768380D01*
X-12352020Y-38609630D01*
X-12352020Y-37965380D01*
X-12098020Y-37965380D01*
X-12098020Y-38609630D01*
X-11939270Y-38768380D01*
X-11905020Y-38771452D01*
X-11780538Y-38759192D01*
X-11660840Y-38722882D01*
X-11550526Y-38663917D01*
X-11453835Y-38584565D01*
X-11374483Y-38487874D01*
X-11315518Y-38377560D01*
X-11279208Y-38257862D01*
X-11266948Y-38133380D01*
X-11270020Y-38124130D01*
X-11428770Y-37965380D01*
X-12098020Y-37965380D01*
X-12352020Y-37965380D01*
X-13021270Y-37965380D01*
X-13180020Y-38124130D01*
X-13183092Y-38133380D01*
X-14273000Y-38133380D01*
X-14273000Y-37971907D01*
X-13864822Y-37727000D01*
X-11227000Y-37727000D01*
X-11227000Y-38600000D01*
X-11224560Y-38624776D01*
X-11217333Y-38648601D01*
X-11205597Y-38670557D01*
X-11189803Y-38689803D01*
X-11170557Y-38705597D01*
X-11148601Y-38717333D01*
X-11124776Y-38724560D01*
X-11100000Y-38727000D01*
X-2900000Y-38727000D01*
X-2875224Y-38724560D01*
X-2851399Y-38717333D01*
X-2829443Y-38705597D01*
X-2810197Y-38689803D01*
X-2794403Y-38670557D01*
X-2782667Y-38648601D01*
X-2775440Y-38624776D01*
X-2773000Y-38600000D01*
X-2773000Y-38316000D01*
X3377768Y-38316000D01*
X3380840Y-38830250D01*
X3539590Y-38989000D01*
X4688840Y-38989000D01*
X4688840Y-37839750D01*
X4942840Y-37839750D01*
X4942840Y-38989000D01*
X6092090Y-38989000D01*
X6250840Y-38830250D01*
X6253912Y-38316000D01*
X6241652Y-38191518D01*
X6205342Y-38071820D01*
X6146377Y-37961506D01*
X6067025Y-37864815D01*
X5970334Y-37785463D01*
X5860020Y-37726498D01*
X5740322Y-37690188D01*
X5615840Y-37677928D01*
X5101590Y-37681000D01*
X4942840Y-37839750D01*
X4688840Y-37839750D01*
X4530090Y-37681000D01*
X4015840Y-37677928D01*
X3891358Y-37690188D01*
X3771660Y-37726498D01*
X3661346Y-37785463D01*
X3564655Y-37864815D01*
X3485303Y-37961506D01*
X3426338Y-38071820D01*
X3390028Y-38191518D01*
X3377768Y-38316000D01*
X-2773000Y-38316000D01*
X-2773000Y-36876464D01*
X-2769300Y-36878442D01*
X-2649602Y-36914752D01*
X-2525120Y-36927012D01*
X-2515870Y-36923940D01*
X-2357120Y-36765190D01*
X-2357120Y-36627000D01*
X-2103120Y-36627000D01*
X-2103120Y-36765190D01*
X-1944370Y-36923940D01*
X-1935120Y-36927012D01*
X-1810638Y-36914752D01*
X-1690940Y-36878442D01*
X-1594700Y-36827000D01*
X2400000Y-36827000D01*
X2424776Y-36824560D01*
X2448601Y-36817333D01*
X2470557Y-36805597D01*
X2489803Y-36789803D01*
X2505597Y-36770557D01*
X2517333Y-36748601D01*
X2524560Y-36724776D01*
X2527000Y-36700000D01*
X2527000Y-31257140D01*
X3342328Y-31257140D01*
X3354588Y-31381622D01*
X3390898Y-31501320D01*
X3449863Y-31611634D01*
X3529215Y-31708325D01*
X3625906Y-31787677D01*
X3736220Y-31846642D01*
X3855918Y-31882952D01*
X3980400Y-31895212D01*
X4494650Y-31892140D01*
X4653400Y-31733390D01*
X4653400Y-30584140D01*
X4907400Y-30584140D01*
X4907400Y-31733390D01*
X5066150Y-31892140D01*
X5580400Y-31895212D01*
X5704882Y-31882952D01*
X5824580Y-31846642D01*
X5934894Y-31787677D01*
X6031585Y-31708325D01*
X6110937Y-31611634D01*
X6169902Y-31501320D01*
X6206212Y-31381622D01*
X6218472Y-31257140D01*
X6215400Y-30742890D01*
X6056650Y-30584140D01*
X4907400Y-30584140D01*
X4653400Y-30584140D01*
X3504150Y-30584140D01*
X3345400Y-30742890D01*
X3342328Y-31257140D01*
X2527000Y-31257140D01*
X2527000Y-29657140D01*
X3342328Y-29657140D01*
X3345400Y-30171390D01*
X3504150Y-30330140D01*
X4653400Y-30330140D01*
X4653400Y-29180890D01*
X4907400Y-29180890D01*
X4907400Y-30330140D01*
X6056650Y-30330140D01*
X6215400Y-30171390D01*
X6218472Y-29657140D01*
X6206212Y-29532658D01*
X6169902Y-29412960D01*
X6110937Y-29302646D01*
X6031585Y-29205955D01*
X5934894Y-29126603D01*
X5824580Y-29067638D01*
X5704882Y-29031328D01*
X5580400Y-29019068D01*
X5066150Y-29022140D01*
X4907400Y-29180890D01*
X4653400Y-29180890D01*
X4494650Y-29022140D01*
X3980400Y-29019068D01*
X3855918Y-29031328D01*
X3736220Y-29067638D01*
X3625906Y-29126603D01*
X3529215Y-29205955D01*
X3449863Y-29302646D01*
X3390898Y-29412960D01*
X3354588Y-29532658D01*
X3342328Y-29657140D01*
X2527000Y-29657140D01*
X2527000Y-22598280D01*
X3301688Y-22598280D01*
X3313948Y-22722762D01*
X3350258Y-22842460D01*
X3409223Y-22952774D01*
X3488575Y-23049465D01*
X3585266Y-23128817D01*
X3695580Y-23187782D01*
X3815278Y-23224092D01*
X3939760Y-23236352D01*
X4454010Y-23233280D01*
X4612760Y-23074530D01*
X4612760Y-21925280D01*
X4866760Y-21925280D01*
X4866760Y-23074530D01*
X5025510Y-23233280D01*
X5539760Y-23236352D01*
X5664242Y-23224092D01*
X5783940Y-23187782D01*
X5894254Y-23128817D01*
X5990945Y-23049465D01*
X6070297Y-22952774D01*
X6129262Y-22842460D01*
X6165572Y-22722762D01*
X6177832Y-22598280D01*
X6174760Y-22084030D01*
X6016010Y-21925280D01*
X4866760Y-21925280D01*
X4612760Y-21925280D01*
X3463510Y-21925280D01*
X3304760Y-22084030D01*
X3301688Y-22598280D01*
X2527000Y-22598280D01*
X2527000Y-20998280D01*
X3301688Y-20998280D01*
X3304760Y-21512530D01*
X3463510Y-21671280D01*
X4612760Y-21671280D01*
X4612760Y-20522030D01*
X4866760Y-20522030D01*
X4866760Y-21671280D01*
X6016010Y-21671280D01*
X6174760Y-21512530D01*
X6177832Y-20998280D01*
X6165572Y-20873798D01*
X6129262Y-20754100D01*
X6070297Y-20643786D01*
X5990945Y-20547095D01*
X5894254Y-20467743D01*
X5783940Y-20408778D01*
X5664242Y-20372468D01*
X5539760Y-20360208D01*
X5025510Y-20363280D01*
X4866760Y-20522030D01*
X4612760Y-20522030D01*
X4454010Y-20363280D01*
X3939760Y-20360208D01*
X3815278Y-20372468D01*
X3695580Y-20408778D01*
X3585266Y-20467743D01*
X3488575Y-20547095D01*
X3409223Y-20643786D01*
X3350258Y-20754100D01*
X3313948Y-20873798D01*
X3301688Y-20998280D01*
X2527000Y-20998280D01*
X2527000Y-16644033D01*
X3809852Y-16644033D01*
X3875377Y-16882900D01*
X4122356Y-16998800D01*
X4387200Y-17064290D01*
X4659732Y-17076852D01*
X4929478Y-17036005D01*
X5186072Y-16943317D01*
X5299103Y-16882900D01*
X5364628Y-16644033D01*
X4587240Y-15866645D01*
X3809852Y-16644033D01*
X2527000Y-16644033D01*
X2527000Y-15759532D01*
X3197428Y-15759532D01*
X3238275Y-16029278D01*
X3330963Y-16285872D01*
X3391380Y-16398903D01*
X3630247Y-16464428D01*
X4407635Y-15687040D01*
X4766845Y-15687040D01*
X5544233Y-16464428D01*
X5783100Y-16398903D01*
X5899000Y-16151924D01*
X5964490Y-15887080D01*
X5977052Y-15614548D01*
X5936205Y-15344802D01*
X5843517Y-15088208D01*
X5783100Y-14975177D01*
X5544233Y-14909652D01*
X4766845Y-15687040D01*
X4407635Y-15687040D01*
X3630247Y-14909652D01*
X3391380Y-14975177D01*
X3275480Y-15222156D01*
X3209990Y-15487000D01*
X3197428Y-15759532D01*
X2527000Y-15759532D01*
X2527000Y-14730047D01*
X3809852Y-14730047D01*
X4587240Y-15507435D01*
X5364628Y-14730047D01*
X5299103Y-14491180D01*
X5052124Y-14375280D01*
X4787280Y-14309790D01*
X4514748Y-14297228D01*
X4245002Y-14338075D01*
X3988408Y-14430763D01*
X3875377Y-14491180D01*
X3809852Y-14730047D01*
X2527000Y-14730047D01*
X2527000Y-14227000D01*
X6373000Y-14227000D01*
X6373000Y-43800000D01*
G04 #@! TA.AperFunction,Conductor*
D27*
G36*
X6373000Y-43800000D02*
G01*
X6375440Y-43824776D01*
X6382667Y-43848601D01*
X6394403Y-43870557D01*
X6410197Y-43889803D01*
X6429443Y-43905597D01*
X6451399Y-43917333D01*
X6475224Y-43924560D01*
X6499556Y-43926999D01*
X8159508Y-43932803D01*
X8124463Y-43975506D01*
X8065498Y-44085820D01*
X8029188Y-44205518D01*
X8016928Y-44330000D01*
X8020000Y-44364250D01*
X8178750Y-44523000D01*
X8823000Y-44523000D01*
X8823000Y-44503000D01*
X9077000Y-44503000D01*
X9077000Y-44523000D01*
X9097000Y-44523000D01*
X9097000Y-44777000D01*
X9077000Y-44777000D01*
X9077000Y-45653000D01*
X9097000Y-45653000D01*
X9097000Y-45907000D01*
X9077000Y-45907000D01*
X9077000Y-46576250D01*
X9235750Y-46735000D01*
X9245000Y-46738072D01*
X9253637Y-46737221D01*
X9253009Y-46828301D01*
X9173026Y-50797441D01*
X9174966Y-50822262D01*
X9181712Y-50846227D01*
X9193003Y-50868416D01*
X9208406Y-50887975D01*
X9227329Y-50904154D01*
X9249045Y-50916330D01*
X9272719Y-50924035D01*
X9300000Y-50927000D01*
X14478000Y-50927000D01*
X14502776Y-50924560D01*
X14526601Y-50917333D01*
X14548557Y-50905597D01*
X14567803Y-50889803D01*
X14583597Y-50870557D01*
X14595333Y-50848601D01*
X14602560Y-50824776D01*
X14605000Y-50800000D01*
X14605000Y-49150207D01*
X19423000Y-49195803D01*
X19423000Y-52673000D01*
X2327000Y-52673000D01*
X2327000Y-46100000D01*
X8016928Y-46100000D01*
X8029188Y-46224482D01*
X8065498Y-46344180D01*
X8124463Y-46454494D01*
X8203815Y-46551185D01*
X8300506Y-46630537D01*
X8410820Y-46689502D01*
X8530518Y-46725812D01*
X8655000Y-46738072D01*
X8664250Y-46735000D01*
X8823000Y-46576250D01*
X8823000Y-45907000D01*
X8178750Y-45907000D01*
X8020000Y-46065750D01*
X8016928Y-46100000D01*
X2327000Y-46100000D01*
X2327000Y-44970000D01*
X8016928Y-44970000D01*
X8029188Y-45094482D01*
X8065498Y-45214180D01*
X8065936Y-45215000D01*
X8065498Y-45215820D01*
X8029188Y-45335518D01*
X8016928Y-45460000D01*
X8020000Y-45494250D01*
X8178750Y-45653000D01*
X8823000Y-45653000D01*
X8823000Y-44777000D01*
X8178750Y-44777000D01*
X8020000Y-44935750D01*
X8016928Y-44970000D01*
X2327000Y-44970000D01*
X2327000Y-40900000D01*
X2324560Y-40875224D01*
X2317333Y-40851399D01*
X2305597Y-40829443D01*
X2289803Y-40810197D01*
X2270557Y-40794403D01*
X2248601Y-40782667D01*
X2224776Y-40775440D01*
X2200000Y-40773000D01*
X-14273000Y-40773000D01*
X-14273000Y-39916000D01*
X3377768Y-39916000D01*
X3390028Y-40040482D01*
X3426338Y-40160180D01*
X3485303Y-40270494D01*
X3564655Y-40367185D01*
X3661346Y-40446537D01*
X3771660Y-40505502D01*
X3891358Y-40541812D01*
X4015840Y-40554072D01*
X4530090Y-40551000D01*
X4688840Y-40392250D01*
X4688840Y-39243000D01*
X4942840Y-39243000D01*
X4942840Y-40392250D01*
X5101590Y-40551000D01*
X5615840Y-40554072D01*
X5740322Y-40541812D01*
X5860020Y-40505502D01*
X5970334Y-40446537D01*
X6067025Y-40367185D01*
X6146377Y-40270494D01*
X6205342Y-40160180D01*
X6241652Y-40040482D01*
X6253912Y-39916000D01*
X6250840Y-39401750D01*
X6092090Y-39243000D01*
X4942840Y-39243000D01*
X4688840Y-39243000D01*
X3539590Y-39243000D01*
X3380840Y-39401750D01*
X3377768Y-39916000D01*
X-14273000Y-39916000D01*
X-14273000Y-38133380D01*
X-13183092Y-38133380D01*
X-13170832Y-38257862D01*
X-13134522Y-38377560D01*
X-13075557Y-38487874D01*
X-12996205Y-38584565D01*
X-12899514Y-38663917D01*
X-12789200Y-38722882D01*
X-12669502Y-38759192D01*
X-12545020Y-38771452D01*
X-12510770Y-38768380D01*
X-12352020Y-38609630D01*
X-12352020Y-37965380D01*
X-12098020Y-37965380D01*
X-12098020Y-38609630D01*
X-11939270Y-38768380D01*
X-11905020Y-38771452D01*
X-11780538Y-38759192D01*
X-11660840Y-38722882D01*
X-11550526Y-38663917D01*
X-11453835Y-38584565D01*
X-11374483Y-38487874D01*
X-11315518Y-38377560D01*
X-11279208Y-38257862D01*
X-11266948Y-38133380D01*
X-11270020Y-38124130D01*
X-11428770Y-37965380D01*
X-12098020Y-37965380D01*
X-12352020Y-37965380D01*
X-13021270Y-37965380D01*
X-13180020Y-38124130D01*
X-13183092Y-38133380D01*
X-14273000Y-38133380D01*
X-14273000Y-37971907D01*
X-13864822Y-37727000D01*
X-11227000Y-37727000D01*
X-11227000Y-38600000D01*
X-11224560Y-38624776D01*
X-11217333Y-38648601D01*
X-11205597Y-38670557D01*
X-11189803Y-38689803D01*
X-11170557Y-38705597D01*
X-11148601Y-38717333D01*
X-11124776Y-38724560D01*
X-11100000Y-38727000D01*
X-2900000Y-38727000D01*
X-2875224Y-38724560D01*
X-2851399Y-38717333D01*
X-2829443Y-38705597D01*
X-2810197Y-38689803D01*
X-2794403Y-38670557D01*
X-2782667Y-38648601D01*
X-2775440Y-38624776D01*
X-2773000Y-38600000D01*
X-2773000Y-38316000D01*
X3377768Y-38316000D01*
X3380840Y-38830250D01*
X3539590Y-38989000D01*
X4688840Y-38989000D01*
X4688840Y-37839750D01*
X4942840Y-37839750D01*
X4942840Y-38989000D01*
X6092090Y-38989000D01*
X6250840Y-38830250D01*
X6253912Y-38316000D01*
X6241652Y-38191518D01*
X6205342Y-38071820D01*
X6146377Y-37961506D01*
X6067025Y-37864815D01*
X5970334Y-37785463D01*
X5860020Y-37726498D01*
X5740322Y-37690188D01*
X5615840Y-37677928D01*
X5101590Y-37681000D01*
X4942840Y-37839750D01*
X4688840Y-37839750D01*
X4530090Y-37681000D01*
X4015840Y-37677928D01*
X3891358Y-37690188D01*
X3771660Y-37726498D01*
X3661346Y-37785463D01*
X3564655Y-37864815D01*
X3485303Y-37961506D01*
X3426338Y-38071820D01*
X3390028Y-38191518D01*
X3377768Y-38316000D01*
X-2773000Y-38316000D01*
X-2773000Y-36876464D01*
X-2769300Y-36878442D01*
X-2649602Y-36914752D01*
X-2525120Y-36927012D01*
X-2515870Y-36923940D01*
X-2357120Y-36765190D01*
X-2357120Y-36627000D01*
X-2103120Y-36627000D01*
X-2103120Y-36765190D01*
X-1944370Y-36923940D01*
X-1935120Y-36927012D01*
X-1810638Y-36914752D01*
X-1690940Y-36878442D01*
X-1594700Y-36827000D01*
X2400000Y-36827000D01*
X2424776Y-36824560D01*
X2448601Y-36817333D01*
X2470557Y-36805597D01*
X2489803Y-36789803D01*
X2505597Y-36770557D01*
X2517333Y-36748601D01*
X2524560Y-36724776D01*
X2527000Y-36700000D01*
X2527000Y-31257140D01*
X3342328Y-31257140D01*
X3354588Y-31381622D01*
X3390898Y-31501320D01*
X3449863Y-31611634D01*
X3529215Y-31708325D01*
X3625906Y-31787677D01*
X3736220Y-31846642D01*
X3855918Y-31882952D01*
X3980400Y-31895212D01*
X4494650Y-31892140D01*
X4653400Y-31733390D01*
X4653400Y-30584140D01*
X4907400Y-30584140D01*
X4907400Y-31733390D01*
X5066150Y-31892140D01*
X5580400Y-31895212D01*
X5704882Y-31882952D01*
X5824580Y-31846642D01*
X5934894Y-31787677D01*
X6031585Y-31708325D01*
X6110937Y-31611634D01*
X6169902Y-31501320D01*
X6206212Y-31381622D01*
X6218472Y-31257140D01*
X6215400Y-30742890D01*
X6056650Y-30584140D01*
X4907400Y-30584140D01*
X4653400Y-30584140D01*
X3504150Y-30584140D01*
X3345400Y-30742890D01*
X3342328Y-31257140D01*
X2527000Y-31257140D01*
X2527000Y-29657140D01*
X3342328Y-29657140D01*
X3345400Y-30171390D01*
X3504150Y-30330140D01*
X4653400Y-30330140D01*
X4653400Y-29180890D01*
X4907400Y-29180890D01*
X4907400Y-30330140D01*
X6056650Y-30330140D01*
X6215400Y-30171390D01*
X6218472Y-29657140D01*
X6206212Y-29532658D01*
X6169902Y-29412960D01*
X6110937Y-29302646D01*
X6031585Y-29205955D01*
X5934894Y-29126603D01*
X5824580Y-29067638D01*
X5704882Y-29031328D01*
X5580400Y-29019068D01*
X5066150Y-29022140D01*
X4907400Y-29180890D01*
X4653400Y-29180890D01*
X4494650Y-29022140D01*
X3980400Y-29019068D01*
X3855918Y-29031328D01*
X3736220Y-29067638D01*
X3625906Y-29126603D01*
X3529215Y-29205955D01*
X3449863Y-29302646D01*
X3390898Y-29412960D01*
X3354588Y-29532658D01*
X3342328Y-29657140D01*
X2527000Y-29657140D01*
X2527000Y-22598280D01*
X3301688Y-22598280D01*
X3313948Y-22722762D01*
X3350258Y-22842460D01*
X3409223Y-22952774D01*
X3488575Y-23049465D01*
X3585266Y-23128817D01*
X3695580Y-23187782D01*
X3815278Y-23224092D01*
X3939760Y-23236352D01*
X4454010Y-23233280D01*
X4612760Y-23074530D01*
X4612760Y-21925280D01*
X4866760Y-21925280D01*
X4866760Y-23074530D01*
X5025510Y-23233280D01*
X5539760Y-23236352D01*
X5664242Y-23224092D01*
X5783940Y-23187782D01*
X5894254Y-23128817D01*
X5990945Y-23049465D01*
X6070297Y-22952774D01*
X6129262Y-22842460D01*
X6165572Y-22722762D01*
X6177832Y-22598280D01*
X6174760Y-22084030D01*
X6016010Y-21925280D01*
X4866760Y-21925280D01*
X4612760Y-21925280D01*
X3463510Y-21925280D01*
X3304760Y-22084030D01*
X3301688Y-22598280D01*
X2527000Y-22598280D01*
X2527000Y-20998280D01*
X3301688Y-20998280D01*
X3304760Y-21512530D01*
X3463510Y-21671280D01*
X4612760Y-21671280D01*
X4612760Y-20522030D01*
X4866760Y-20522030D01*
X4866760Y-21671280D01*
X6016010Y-21671280D01*
X6174760Y-21512530D01*
X6177832Y-20998280D01*
X6165572Y-20873798D01*
X6129262Y-20754100D01*
X6070297Y-20643786D01*
X5990945Y-20547095D01*
X5894254Y-20467743D01*
X5783940Y-20408778D01*
X5664242Y-20372468D01*
X5539760Y-20360208D01*
X5025510Y-20363280D01*
X4866760Y-20522030D01*
X4612760Y-20522030D01*
X4454010Y-20363280D01*
X3939760Y-20360208D01*
X3815278Y-20372468D01*
X3695580Y-20408778D01*
X3585266Y-20467743D01*
X3488575Y-20547095D01*
X3409223Y-20643786D01*
X3350258Y-20754100D01*
X3313948Y-20873798D01*
X3301688Y-20998280D01*
X2527000Y-20998280D01*
X2527000Y-16644033D01*
X3809852Y-16644033D01*
X3875377Y-16882900D01*
X4122356Y-16998800D01*
X4387200Y-17064290D01*
X4659732Y-17076852D01*
X4929478Y-17036005D01*
X5186072Y-16943317D01*
X5299103Y-16882900D01*
X5364628Y-16644033D01*
X4587240Y-15866645D01*
X3809852Y-16644033D01*
X2527000Y-16644033D01*
X2527000Y-15759532D01*
X3197428Y-15759532D01*
X3238275Y-16029278D01*
X3330963Y-16285872D01*
X3391380Y-16398903D01*
X3630247Y-16464428D01*
X4407635Y-15687040D01*
X4766845Y-15687040D01*
X5544233Y-16464428D01*
X5783100Y-16398903D01*
X5899000Y-16151924D01*
X5964490Y-15887080D01*
X5977052Y-15614548D01*
X5936205Y-15344802D01*
X5843517Y-15088208D01*
X5783100Y-14975177D01*
X5544233Y-14909652D01*
X4766845Y-15687040D01*
X4407635Y-15687040D01*
X3630247Y-14909652D01*
X3391380Y-14975177D01*
X3275480Y-15222156D01*
X3209990Y-15487000D01*
X3197428Y-15759532D01*
X2527000Y-15759532D01*
X2527000Y-14730047D01*
X3809852Y-14730047D01*
X4587240Y-15507435D01*
X5364628Y-14730047D01*
X5299103Y-14491180D01*
X5052124Y-14375280D01*
X4787280Y-14309790D01*
X4514748Y-14297228D01*
X4245002Y-14338075D01*
X3988408Y-14430763D01*
X3875377Y-14491180D01*
X3809852Y-14730047D01*
X2527000Y-14730047D01*
X2527000Y-14227000D01*
X6373000Y-14227000D01*
X6373000Y-43800000D01*
G37*
G04 #@! TD.AperFunction*
D26*
X-16959300Y-35379660D02*
X-16939300Y-35379660D01*
X-16939300Y-35633660D01*
X-16959300Y-35633660D01*
X-16959300Y-36302910D01*
X-16800550Y-36461660D01*
X-16791300Y-36464732D01*
X-16769962Y-36462630D01*
X-16769962Y-36751720D01*
X-16760814Y-36844599D01*
X-16733722Y-36933909D01*
X-16689728Y-37016217D01*
X-16630521Y-37088361D01*
X-16629474Y-37089220D01*
X-16630521Y-37090079D01*
X-16689728Y-37162223D01*
X-16733722Y-37244531D01*
X-16760814Y-37333841D01*
X-16769962Y-37426720D01*
X-16769962Y-37721720D01*
X-16760814Y-37814599D01*
X-16733722Y-37903909D01*
X-16689728Y-37986217D01*
X-16630521Y-38058361D01*
X-16558377Y-38117568D01*
X-16476069Y-38161562D01*
X-16386759Y-38188654D01*
X-16293880Y-38197802D01*
X-16243087Y-38197802D01*
X-15027000Y-39413890D01*
X-15027000Y-41400000D01*
X-15024560Y-41424776D01*
X-15017333Y-41448601D01*
X-15005597Y-41470557D01*
X-14989803Y-41489803D01*
X-14970557Y-41505597D01*
X-14948601Y-41517333D01*
X-14924776Y-41524560D01*
X-14900000Y-41527000D01*
X1473000Y-41527000D01*
X1473000Y-53500000D01*
X1475440Y-53524776D01*
X1482667Y-53548601D01*
X1494403Y-53570557D01*
X1510197Y-53589803D01*
X1529443Y-53605597D01*
X1551399Y-53617333D01*
X1575224Y-53624560D01*
X1599652Y-53627000D01*
X19598001Y-53676284D01*
X19598001Y-55349730D01*
X19390062Y-55038527D01*
X18961473Y-54609938D01*
X18457506Y-54273198D01*
X17897528Y-54041248D01*
X17303058Y-53923000D01*
X16696942Y-53923000D01*
X16102472Y-54041248D01*
X15542494Y-54273198D01*
X15038527Y-54609938D01*
X14609938Y-55038527D01*
X14273198Y-55542494D01*
X14041248Y-56102472D01*
X13923000Y-56696942D01*
X13923000Y-57303058D01*
X14041248Y-57897528D01*
X14273198Y-58457506D01*
X14609938Y-58961473D01*
X15038527Y-59390062D01*
X15349728Y-59598000D01*
X-12430888Y-59598000D01*
X-12415085Y-59591454D01*
X-12230499Y-59468118D01*
X-12073522Y-59311141D01*
X-11950186Y-59126555D01*
X-11865230Y-58921454D01*
X-11821920Y-58703720D01*
X-11821920Y-58481720D01*
X-11865230Y-58263986D01*
X-11950186Y-58058885D01*
X-12073522Y-57874299D01*
X-12230499Y-57717322D01*
X-12415085Y-57593986D01*
X-12620186Y-57509030D01*
X-12837920Y-57465720D01*
X-13059920Y-57465720D01*
X-13277654Y-57509030D01*
X-13482755Y-57593986D01*
X-13667341Y-57717322D01*
X-13824318Y-57874299D01*
X-13947654Y-58058885D01*
X-14032610Y-58263986D01*
X-14075920Y-58481720D01*
X-14075920Y-58703720D01*
X-14032610Y-58921454D01*
X-13947654Y-59126555D01*
X-13824318Y-59311141D01*
X-13667341Y-59468118D01*
X-13482755Y-59591454D01*
X-13466952Y-59598000D01*
X-15349728Y-59598000D01*
X-15038527Y-59390062D01*
X-14609938Y-58961473D01*
X-14273198Y-58457506D01*
X-14041248Y-57897528D01*
X-13923000Y-57303058D01*
X-13923000Y-57279000D01*
X10913000Y-57279000D01*
X10913000Y-57501000D01*
X10956310Y-57718734D01*
X11041266Y-57923835D01*
X11164602Y-58108421D01*
X11321579Y-58265398D01*
X11506165Y-58388734D01*
X11711266Y-58473690D01*
X11929000Y-58517000D01*
X12151000Y-58517000D01*
X12368734Y-58473690D01*
X12573835Y-58388734D01*
X12758421Y-58265398D01*
X12915398Y-58108421D01*
X13038734Y-57923835D01*
X13123690Y-57718734D01*
X13167000Y-57501000D01*
X13167000Y-57279000D01*
X13123690Y-57061266D01*
X13038734Y-56856165D01*
X12915398Y-56671579D01*
X12758421Y-56514602D01*
X12573835Y-56391266D01*
X12368734Y-56306310D01*
X12151000Y-56263000D01*
X11929000Y-56263000D01*
X11711266Y-56306310D01*
X11506165Y-56391266D01*
X11321579Y-56514602D01*
X11164602Y-56671579D01*
X11041266Y-56856165D01*
X10956310Y-57061266D01*
X10913000Y-57279000D01*
X-13923000Y-57279000D01*
X-13923000Y-56696942D01*
X-14041248Y-56102472D01*
X-14273198Y-55542494D01*
X-14609938Y-55038527D01*
X-15038527Y-54609938D01*
X-15542494Y-54273198D01*
X-16102472Y-54041248D01*
X-16696942Y-53923000D01*
X-17303058Y-53923000D01*
X-17897528Y-54041248D01*
X-18457506Y-54273198D01*
X-18961473Y-54609938D01*
X-19390062Y-55038527D01*
X-19598000Y-55349728D01*
X-19598000Y-35803587D01*
X-19469847Y-35931740D01*
X-19293451Y-36049605D01*
X-19097449Y-36130791D01*
X-18889375Y-36172180D01*
X-18677225Y-36172180D01*
X-18469151Y-36130791D01*
X-18273149Y-36049605D01*
X-18096753Y-35931740D01*
X-18016889Y-35851876D01*
X-18007112Y-35951142D01*
X-17970802Y-36070840D01*
X-17911837Y-36181154D01*
X-17832485Y-36277845D01*
X-17735794Y-36357197D01*
X-17625480Y-36416162D01*
X-17505782Y-36452472D01*
X-17381300Y-36464732D01*
X-17372050Y-36461660D01*
X-17213300Y-36302910D01*
X-17213300Y-35633660D01*
X-17233300Y-35633660D01*
X-17233300Y-35379660D01*
X-17213300Y-35379660D01*
X-17213300Y-35359660D01*
X-16959300Y-35359660D01*
X-16959300Y-35379660D01*
G04 #@! TA.AperFunction,Conductor*
D27*
G36*
X-16959300Y-35379660D02*
G01*
X-16939300Y-35379660D01*
X-16939300Y-35633660D01*
X-16959300Y-35633660D01*
X-16959300Y-36302910D01*
X-16800550Y-36461660D01*
X-16791300Y-36464732D01*
X-16769962Y-36462630D01*
X-16769962Y-36751720D01*
X-16760814Y-36844599D01*
X-16733722Y-36933909D01*
X-16689728Y-37016217D01*
X-16630521Y-37088361D01*
X-16629474Y-37089220D01*
X-16630521Y-37090079D01*
X-16689728Y-37162223D01*
X-16733722Y-37244531D01*
X-16760814Y-37333841D01*
X-16769962Y-37426720D01*
X-16769962Y-37721720D01*
X-16760814Y-37814599D01*
X-16733722Y-37903909D01*
X-16689728Y-37986217D01*
X-16630521Y-38058361D01*
X-16558377Y-38117568D01*
X-16476069Y-38161562D01*
X-16386759Y-38188654D01*
X-16293880Y-38197802D01*
X-16243087Y-38197802D01*
X-15027000Y-39413890D01*
X-15027000Y-41400000D01*
X-15024560Y-41424776D01*
X-15017333Y-41448601D01*
X-15005597Y-41470557D01*
X-14989803Y-41489803D01*
X-14970557Y-41505597D01*
X-14948601Y-41517333D01*
X-14924776Y-41524560D01*
X-14900000Y-41527000D01*
X1473000Y-41527000D01*
X1473000Y-53500000D01*
X1475440Y-53524776D01*
X1482667Y-53548601D01*
X1494403Y-53570557D01*
X1510197Y-53589803D01*
X1529443Y-53605597D01*
X1551399Y-53617333D01*
X1575224Y-53624560D01*
X1599652Y-53627000D01*
X19598001Y-53676284D01*
X19598001Y-55349730D01*
X19390062Y-55038527D01*
X18961473Y-54609938D01*
X18457506Y-54273198D01*
X17897528Y-54041248D01*
X17303058Y-53923000D01*
X16696942Y-53923000D01*
X16102472Y-54041248D01*
X15542494Y-54273198D01*
X15038527Y-54609938D01*
X14609938Y-55038527D01*
X14273198Y-55542494D01*
X14041248Y-56102472D01*
X13923000Y-56696942D01*
X13923000Y-57303058D01*
X14041248Y-57897528D01*
X14273198Y-58457506D01*
X14609938Y-58961473D01*
X15038527Y-59390062D01*
X15349728Y-59598000D01*
X-12430888Y-59598000D01*
X-12415085Y-59591454D01*
X-12230499Y-59468118D01*
X-12073522Y-59311141D01*
X-11950186Y-59126555D01*
X-11865230Y-58921454D01*
X-11821920Y-58703720D01*
X-11821920Y-58481720D01*
X-11865230Y-58263986D01*
X-11950186Y-58058885D01*
X-12073522Y-57874299D01*
X-12230499Y-57717322D01*
X-12415085Y-57593986D01*
X-12620186Y-57509030D01*
X-12837920Y-57465720D01*
X-13059920Y-57465720D01*
X-13277654Y-57509030D01*
X-13482755Y-57593986D01*
X-13667341Y-57717322D01*
X-13824318Y-57874299D01*
X-13947654Y-58058885D01*
X-14032610Y-58263986D01*
X-14075920Y-58481720D01*
X-14075920Y-58703720D01*
X-14032610Y-58921454D01*
X-13947654Y-59126555D01*
X-13824318Y-59311141D01*
X-13667341Y-59468118D01*
X-13482755Y-59591454D01*
X-13466952Y-59598000D01*
X-15349728Y-59598000D01*
X-15038527Y-59390062D01*
X-14609938Y-58961473D01*
X-14273198Y-58457506D01*
X-14041248Y-57897528D01*
X-13923000Y-57303058D01*
X-13923000Y-57279000D01*
X10913000Y-57279000D01*
X10913000Y-57501000D01*
X10956310Y-57718734D01*
X11041266Y-57923835D01*
X11164602Y-58108421D01*
X11321579Y-58265398D01*
X11506165Y-58388734D01*
X11711266Y-58473690D01*
X11929000Y-58517000D01*
X12151000Y-58517000D01*
X12368734Y-58473690D01*
X12573835Y-58388734D01*
X12758421Y-58265398D01*
X12915398Y-58108421D01*
X13038734Y-57923835D01*
X13123690Y-57718734D01*
X13167000Y-57501000D01*
X13167000Y-57279000D01*
X13123690Y-57061266D01*
X13038734Y-56856165D01*
X12915398Y-56671579D01*
X12758421Y-56514602D01*
X12573835Y-56391266D01*
X12368734Y-56306310D01*
X12151000Y-56263000D01*
X11929000Y-56263000D01*
X11711266Y-56306310D01*
X11506165Y-56391266D01*
X11321579Y-56514602D01*
X11164602Y-56671579D01*
X11041266Y-56856165D01*
X10956310Y-57061266D01*
X10913000Y-57279000D01*
X-13923000Y-57279000D01*
X-13923000Y-56696942D01*
X-14041248Y-56102472D01*
X-14273198Y-55542494D01*
X-14609938Y-55038527D01*
X-15038527Y-54609938D01*
X-15542494Y-54273198D01*
X-16102472Y-54041248D01*
X-16696942Y-53923000D01*
X-17303058Y-53923000D01*
X-17897528Y-54041248D01*
X-18457506Y-54273198D01*
X-18961473Y-54609938D01*
X-19390062Y-55038527D01*
X-19598000Y-55349728D01*
X-19598000Y-35803587D01*
X-19469847Y-35931740D01*
X-19293451Y-36049605D01*
X-19097449Y-36130791D01*
X-18889375Y-36172180D01*
X-18677225Y-36172180D01*
X-18469151Y-36130791D01*
X-18273149Y-36049605D01*
X-18096753Y-35931740D01*
X-18016889Y-35851876D01*
X-18007112Y-35951142D01*
X-17970802Y-36070840D01*
X-17911837Y-36181154D01*
X-17832485Y-36277845D01*
X-17735794Y-36357197D01*
X-17625480Y-36416162D01*
X-17505782Y-36452472D01*
X-17381300Y-36464732D01*
X-17372050Y-36461660D01*
X-17213300Y-36302910D01*
X-17213300Y-35633660D01*
X-17233300Y-35633660D01*
X-17233300Y-35379660D01*
X-17213300Y-35379660D01*
X-17213300Y-35359660D01*
X-16959300Y-35359660D01*
X-16959300Y-35379660D01*
G37*
G04 #@! TD.AperFunction*
D26*
X17504242Y4546631D02*
X17989286Y4400188D01*
X18436642Y4162326D01*
X18829282Y3842096D01*
X19152241Y3451706D01*
X19393222Y3006020D01*
X19543048Y2522013D01*
X19598000Y1999180D01*
X19598000Y1999173D01*
X19598001Y-45448922D01*
X19572343Y-45417657D01*
X19522550Y-45376794D01*
X19465743Y-45346430D01*
X19404103Y-45327732D01*
X19340000Y-45321418D01*
X15127000Y-45321418D01*
X15127000Y-45200000D01*
X15124560Y-45175224D01*
X15117333Y-45151399D01*
X15105597Y-45129443D01*
X15089803Y-45110197D01*
X15070557Y-45094403D01*
X15048601Y-45082667D01*
X15024776Y-45075440D01*
X15000000Y-45073000D01*
X10470829Y-45073000D01*
X10507342Y-45004689D01*
X10534434Y-44915379D01*
X10543582Y-44822500D01*
X10543582Y-44477500D01*
X10534434Y-44384621D01*
X10507342Y-44295311D01*
X10486865Y-44257000D01*
X10876418Y-44257000D01*
X10876418Y-44340000D01*
X10882732Y-44404103D01*
X10901430Y-44465743D01*
X10931794Y-44522550D01*
X10972657Y-44572343D01*
X11022450Y-44613206D01*
X11079257Y-44643570D01*
X11140897Y-44662268D01*
X11205000Y-44668582D01*
X11855000Y-44668582D01*
X11919103Y-44662268D01*
X11980743Y-44643570D01*
X12037550Y-44613206D01*
X12087343Y-44572343D01*
X12128206Y-44522550D01*
X12158570Y-44465743D01*
X12177268Y-44404103D01*
X12183582Y-44340000D01*
X12183582Y-43120000D01*
X12177268Y-43055897D01*
X12158570Y-42994257D01*
X12128206Y-42937450D01*
X12087343Y-42887657D01*
X12057000Y-42862756D01*
X12057000Y-41558290D01*
X12081708Y-41533582D01*
X12132500Y-41533582D01*
X12225379Y-41524434D01*
X12314689Y-41497342D01*
X12396997Y-41453348D01*
X12469141Y-41394141D01*
X12528348Y-41321997D01*
X12572342Y-41239689D01*
X12599434Y-41150379D01*
X12608582Y-41057500D01*
X12608582Y-40779387D01*
X12634494Y-40765537D01*
X12731185Y-40686185D01*
X12810537Y-40589494D01*
X12869502Y-40479180D01*
X12905812Y-40359482D01*
X12918072Y-40235000D01*
X12915000Y-40225750D01*
X12756250Y-40067000D01*
X12087000Y-40067000D01*
X12087000Y-40087000D01*
X11833000Y-40087000D01*
X11833000Y-40067000D01*
X11163750Y-40067000D01*
X11005000Y-40225750D01*
X11001928Y-40235000D01*
X11014188Y-40359482D01*
X11050498Y-40479180D01*
X11109463Y-40589494D01*
X11188815Y-40686185D01*
X11285506Y-40765537D01*
X11311418Y-40779387D01*
X11311418Y-40813292D01*
X11175661Y-40949050D01*
X11155553Y-40965552D01*
X11098061Y-41035606D01*
X11089696Y-41045799D01*
X11040761Y-41137351D01*
X11010626Y-41236691D01*
X11000451Y-41340000D01*
X11003001Y-41365890D01*
X11003000Y-42862755D01*
X10972657Y-42887657D01*
X10931794Y-42937450D01*
X10901430Y-42994257D01*
X10882732Y-43055897D01*
X10876418Y-43120000D01*
X10876418Y-43203000D01*
X10265877Y-43203000D01*
X10239999Y-43200451D01*
X10214121Y-43203000D01*
X10214119Y-43203000D01*
X10136690Y-43210626D01*
X10037350Y-43240761D01*
X9945798Y-43289696D01*
X9865552Y-43355552D01*
X9851233Y-43373000D01*
X6927000Y-43373000D01*
X6927000Y-40108702D01*
X7502743Y-40108702D01*
X7574326Y-40352671D01*
X7829836Y-40473571D01*
X8104024Y-40542300D01*
X8386352Y-40556217D01*
X8665970Y-40514787D01*
X8932132Y-40419603D01*
X9057354Y-40352671D01*
X9128937Y-40108702D01*
X8315840Y-39295605D01*
X7502743Y-40108702D01*
X6927000Y-40108702D01*
X6927000Y-39493945D01*
X7012237Y-39732292D01*
X7079169Y-39857514D01*
X7323138Y-39929097D01*
X8136235Y-39116000D01*
X8495445Y-39116000D01*
X9308542Y-39929097D01*
X9552511Y-39857514D01*
X9653066Y-39645000D01*
X11001928Y-39645000D01*
X11005000Y-39654250D01*
X11163750Y-39813000D01*
X11833000Y-39813000D01*
X11833000Y-39168750D01*
X12087000Y-39168750D01*
X12087000Y-39813000D01*
X12756250Y-39813000D01*
X12915000Y-39654250D01*
X12918072Y-39645000D01*
X12905812Y-39520518D01*
X12869502Y-39400820D01*
X12810537Y-39290506D01*
X12731185Y-39193815D01*
X12634494Y-39114463D01*
X12524180Y-39055498D01*
X12404482Y-39019188D01*
X12280000Y-39006928D01*
X12245750Y-39010000D01*
X12087000Y-39168750D01*
X11833000Y-39168750D01*
X11674250Y-39010000D01*
X11640000Y-39006928D01*
X11515518Y-39019188D01*
X11395820Y-39055498D01*
X11285506Y-39114463D01*
X11188815Y-39193815D01*
X11109463Y-39290506D01*
X11050498Y-39400820D01*
X11014188Y-39520518D01*
X11001928Y-39645000D01*
X9653066Y-39645000D01*
X9673411Y-39602004D01*
X9742140Y-39327816D01*
X9756057Y-39045488D01*
X9714627Y-38765870D01*
X9619443Y-38499708D01*
X9552511Y-38374486D01*
X9308542Y-38302903D01*
X8495445Y-39116000D01*
X8136235Y-39116000D01*
X7323138Y-38302903D01*
X7079169Y-38374486D01*
X6958269Y-38629996D01*
X6927000Y-38754741D01*
X6927000Y-38123298D01*
X7502743Y-38123298D01*
X8315840Y-38936395D01*
X9128937Y-38123298D01*
X9057354Y-37879329D01*
X8801844Y-37758429D01*
X8527656Y-37689700D01*
X8245328Y-37675783D01*
X7965710Y-37717213D01*
X7699548Y-37812397D01*
X7574326Y-37879329D01*
X7502743Y-38123298D01*
X6927000Y-38123298D01*
X6927000Y-34955042D01*
X11909763Y-34955042D01*
X11981346Y-35199011D01*
X12236856Y-35319911D01*
X12511044Y-35388640D01*
X12793372Y-35402557D01*
X13072990Y-35361127D01*
X13339152Y-35265943D01*
X13464374Y-35199011D01*
X13535957Y-34955042D01*
X12722860Y-34141945D01*
X11909763Y-34955042D01*
X6927000Y-34955042D01*
X6927000Y-34032852D01*
X11282643Y-34032852D01*
X11324073Y-34312470D01*
X11419257Y-34578632D01*
X11486189Y-34703854D01*
X11730158Y-34775437D01*
X12543255Y-33962340D01*
X12902465Y-33962340D01*
X13715562Y-34775437D01*
X13959531Y-34703854D01*
X14080431Y-34448344D01*
X14149160Y-34174156D01*
X14163077Y-33891828D01*
X14121647Y-33612210D01*
X14026463Y-33346048D01*
X13959531Y-33220826D01*
X13715562Y-33149243D01*
X12902465Y-33962340D01*
X12543255Y-33962340D01*
X11730158Y-33149243D01*
X11486189Y-33220826D01*
X11365289Y-33476336D01*
X11296560Y-33750524D01*
X11282643Y-34032852D01*
X6927000Y-34032852D01*
X6927000Y-32969638D01*
X11909763Y-32969638D01*
X12722860Y-33782735D01*
X13535957Y-32969638D01*
X13464374Y-32725669D01*
X13208864Y-32604769D01*
X12934676Y-32536040D01*
X12652348Y-32522123D01*
X12372730Y-32563553D01*
X12106568Y-32658737D01*
X11981346Y-32725669D01*
X11909763Y-32969638D01*
X6927000Y-32969638D01*
X6927000Y-31449842D01*
X7467303Y-31449842D01*
X7538886Y-31693811D01*
X7794396Y-31814711D01*
X8068584Y-31883440D01*
X8350912Y-31897357D01*
X8630530Y-31855927D01*
X8896692Y-31760743D01*
X9021914Y-31693811D01*
X9093497Y-31449842D01*
X8280400Y-30636745D01*
X7467303Y-31449842D01*
X6927000Y-31449842D01*
X6927000Y-30934185D01*
X6976797Y-31073432D01*
X7043729Y-31198654D01*
X7287698Y-31270237D01*
X8100795Y-30457140D01*
X8460005Y-30457140D01*
X9273102Y-31270237D01*
X9517071Y-31198654D01*
X9637971Y-30943144D01*
X9706700Y-30668956D01*
X9720617Y-30386628D01*
X9679187Y-30107010D01*
X9584003Y-29840848D01*
X9517071Y-29715626D01*
X9273102Y-29644043D01*
X8460005Y-30457140D01*
X8100795Y-30457140D01*
X7287698Y-29644043D01*
X7043729Y-29715626D01*
X6927000Y-29962321D01*
X6927000Y-29464438D01*
X7467303Y-29464438D01*
X8280400Y-30277535D01*
X9093497Y-29464438D01*
X9021914Y-29220469D01*
X8766404Y-29099569D01*
X8492216Y-29030840D01*
X8209888Y-29016923D01*
X7930270Y-29058353D01*
X7664108Y-29153537D01*
X7538886Y-29220469D01*
X7467303Y-29464438D01*
X6927000Y-29464438D01*
X6927000Y-26311422D01*
X11889443Y-26311422D01*
X11961026Y-26555391D01*
X12216536Y-26676291D01*
X12490724Y-26745020D01*
X12773052Y-26758937D01*
X13052670Y-26717507D01*
X13318832Y-26622323D01*
X13444054Y-26555391D01*
X13515637Y-26311422D01*
X12702540Y-25498325D01*
X11889443Y-26311422D01*
X6927000Y-26311422D01*
X6927000Y-25389232D01*
X11262323Y-25389232D01*
X11303753Y-25668850D01*
X11398937Y-25935012D01*
X11465869Y-26060234D01*
X11709838Y-26131817D01*
X12522935Y-25318720D01*
X12882145Y-25318720D01*
X13695242Y-26131817D01*
X13939211Y-26060234D01*
X14060111Y-25804724D01*
X14128840Y-25530536D01*
X14142757Y-25248208D01*
X14101327Y-24968590D01*
X14006143Y-24702428D01*
X13939211Y-24577206D01*
X13695242Y-24505623D01*
X12882145Y-25318720D01*
X12522935Y-25318720D01*
X11709838Y-24505623D01*
X11465869Y-24577206D01*
X11344969Y-24832716D01*
X11276240Y-25106904D01*
X11262323Y-25389232D01*
X6927000Y-25389232D01*
X6927000Y-24326018D01*
X11889443Y-24326018D01*
X12702540Y-25139115D01*
X13515637Y-24326018D01*
X13444054Y-24082049D01*
X13188544Y-23961149D01*
X12914356Y-23892420D01*
X12632028Y-23878503D01*
X12352410Y-23919933D01*
X12086248Y-24015117D01*
X11961026Y-24082049D01*
X11889443Y-24326018D01*
X6927000Y-24326018D01*
X6927000Y-22790982D01*
X7426663Y-22790982D01*
X7498246Y-23034951D01*
X7753756Y-23155851D01*
X8027944Y-23224580D01*
X8310272Y-23238497D01*
X8589890Y-23197067D01*
X8856052Y-23101883D01*
X8981274Y-23034951D01*
X9052857Y-22790982D01*
X8239760Y-21977885D01*
X7426663Y-22790982D01*
X6927000Y-22790982D01*
X6927000Y-22388966D01*
X6936157Y-22414572D01*
X7003089Y-22539794D01*
X7247058Y-22611377D01*
X8060155Y-21798280D01*
X8419365Y-21798280D01*
X9232462Y-22611377D01*
X9476431Y-22539794D01*
X9597331Y-22284284D01*
X9666060Y-22010096D01*
X9679977Y-21727768D01*
X9638547Y-21448150D01*
X9543363Y-21181988D01*
X9476431Y-21056766D01*
X9232462Y-20985183D01*
X8419365Y-21798280D01*
X8060155Y-21798280D01*
X7247058Y-20985183D01*
X7003089Y-21056766D01*
X6927000Y-21217572D01*
X6927000Y-20805578D01*
X7426663Y-20805578D01*
X8239760Y-21618675D01*
X9052857Y-20805578D01*
X8981274Y-20561609D01*
X8725764Y-20440709D01*
X8451576Y-20371980D01*
X8169248Y-20358063D01*
X7889630Y-20399493D01*
X7623468Y-20494677D01*
X7498246Y-20561609D01*
X7426663Y-20805578D01*
X6927000Y-20805578D01*
X6927000Y-20230513D01*
X10556092Y-20230513D01*
X10621617Y-20469380D01*
X10868596Y-20585280D01*
X11133440Y-20650770D01*
X11405972Y-20663332D01*
X11675718Y-20622485D01*
X11932312Y-20529797D01*
X12045343Y-20469380D01*
X12110868Y-20230513D01*
X11333480Y-19453125D01*
X10556092Y-20230513D01*
X6927000Y-20230513D01*
X6927000Y-19346012D01*
X9943668Y-19346012D01*
X9984515Y-19615758D01*
X10077203Y-19872352D01*
X10137620Y-19985383D01*
X10376487Y-20050908D01*
X11153875Y-19273520D01*
X10376487Y-18496132D01*
X10137620Y-18561657D01*
X10021720Y-18808636D01*
X9956230Y-19073480D01*
X9943668Y-19346012D01*
X6927000Y-19346012D01*
X6927000Y-18316527D01*
X10556092Y-18316527D01*
X11333480Y-19093915D01*
X11347623Y-19079773D01*
X11527228Y-19259378D01*
X11513085Y-19273520D01*
X12290473Y-20050908D01*
X12529340Y-19985383D01*
X12645240Y-19738404D01*
X12710730Y-19473560D01*
X12723292Y-19201028D01*
X12682445Y-18931282D01*
X12589757Y-18674688D01*
X12529340Y-18561657D01*
X12290475Y-18496133D01*
X12385106Y-18401502D01*
X12544146Y-18449747D01*
X12725870Y-18467645D01*
X12771407Y-18463160D01*
X14073364Y-18463160D01*
X14175851Y-18505611D01*
X14383925Y-18547000D01*
X14596075Y-18547000D01*
X14804149Y-18505611D01*
X14906636Y-18463160D01*
X15348785Y-18463160D01*
X15372181Y-18486556D01*
X15372180Y-19265884D01*
X15344755Y-19306929D01*
X15263569Y-19502931D01*
X15222180Y-19711005D01*
X15222180Y-19923155D01*
X15263569Y-20131229D01*
X15275541Y-20160132D01*
X15275540Y-24215822D01*
X15219990Y-24245514D01*
X15170197Y-24286377D01*
X15129334Y-24336170D01*
X15098970Y-24392977D01*
X15080272Y-24454617D01*
X15073958Y-24518720D01*
X15073958Y-26118720D01*
X15080272Y-26182823D01*
X15098970Y-26244463D01*
X15129334Y-26301270D01*
X15170197Y-26351063D01*
X15219990Y-26391926D01*
X15275540Y-26421618D01*
X15275541Y-32870303D01*
X15240310Y-32889134D01*
X15190517Y-32929997D01*
X15149654Y-32979790D01*
X15119290Y-33036597D01*
X15100592Y-33098237D01*
X15094278Y-33162340D01*
X15094278Y-34762340D01*
X15100592Y-34826443D01*
X15119290Y-34888083D01*
X15149654Y-34944890D01*
X15190517Y-34994683D01*
X15240310Y-35035546D01*
X15295860Y-35065238D01*
X15295861Y-40170200D01*
X15240847Y-40170200D01*
X15195320Y-40165716D01*
X15149793Y-40170200D01*
X15149782Y-40170200D01*
X15013596Y-40183613D01*
X14975795Y-40195080D01*
X14278647Y-40195080D01*
X14233120Y-40190596D01*
X14187593Y-40195080D01*
X14187582Y-40195080D01*
X14051396Y-40208493D01*
X13876656Y-40261500D01*
X13715615Y-40347578D01*
X13660609Y-40392721D01*
X13574461Y-40463421D01*
X13545432Y-40498793D01*
X13252733Y-40791492D01*
X13217361Y-40820521D01*
X13188333Y-40855892D01*
X13188332Y-40855893D01*
X13101519Y-40961675D01*
X13015780Y-41122080D01*
X13015440Y-41122717D01*
X12962433Y-41297457D01*
X12949020Y-41433643D01*
X12949020Y-41433653D01*
X12944536Y-41479180D01*
X12949020Y-41524708D01*
X12949021Y-42832592D01*
X12922450Y-42846794D01*
X12872657Y-42887657D01*
X12831794Y-42937450D01*
X12801430Y-42994257D01*
X12782732Y-43055897D01*
X12776418Y-43120000D01*
X12776418Y-44340000D01*
X12782732Y-44404103D01*
X12801430Y-44465743D01*
X12831794Y-44522550D01*
X12872657Y-44572343D01*
X12922450Y-44613206D01*
X12979257Y-44643570D01*
X13040897Y-44662268D01*
X13105000Y-44668582D01*
X13755000Y-44668582D01*
X13819103Y-44662268D01*
X13880743Y-44643570D01*
X13937550Y-44613206D01*
X13987343Y-44572343D01*
X14018540Y-44534328D01*
X14057744Y-44530467D01*
X14232484Y-44477460D01*
X14393525Y-44391381D01*
X14534679Y-44275539D01*
X14650521Y-44134385D01*
X14736600Y-43973344D01*
X14789607Y-43798604D01*
X14803020Y-43662418D01*
X14803020Y-42049080D01*
X15124913Y-42049080D01*
X15170440Y-42053564D01*
X15215967Y-42049080D01*
X15215978Y-42049080D01*
X15352164Y-42035667D01*
X15389965Y-42024200D01*
X15849793Y-42024200D01*
X15895320Y-42028684D01*
X15940847Y-42024200D01*
X17729293Y-42024200D01*
X17774820Y-42028684D01*
X17820347Y-42024200D01*
X17820358Y-42024200D01*
X17956544Y-42010787D01*
X18131284Y-41957780D01*
X18292325Y-41871701D01*
X18433479Y-41755859D01*
X18462508Y-41720487D01*
X18508328Y-41674667D01*
X18595141Y-41568885D01*
X18681219Y-41407844D01*
X18734226Y-41233103D01*
X18752124Y-41051381D01*
X18734226Y-40869657D01*
X18681219Y-40694917D01*
X18595141Y-40533875D01*
X18479299Y-40392721D01*
X18338145Y-40276879D01*
X18177103Y-40190801D01*
X18002363Y-40137794D01*
X17820639Y-40119896D01*
X17638917Y-40137794D01*
X17532089Y-40170200D01*
X17149860Y-40170200D01*
X17149860Y-35065238D01*
X17205410Y-35035546D01*
X17255203Y-34994683D01*
X17296066Y-34944890D01*
X17326430Y-34888083D01*
X17345128Y-34826443D01*
X17351442Y-34762340D01*
X17351442Y-33162340D01*
X17345128Y-33098237D01*
X17326430Y-33036597D01*
X17296066Y-32979790D01*
X17255203Y-32929997D01*
X17205410Y-32889134D01*
X17148603Y-32858770D01*
X17129540Y-32852987D01*
X17129540Y-26421618D01*
X17185090Y-26391926D01*
X17234883Y-26351063D01*
X17275746Y-26301270D01*
X17306110Y-26244463D01*
X17324808Y-26182823D01*
X17331122Y-26118720D01*
X17331122Y-24518720D01*
X17324808Y-24454617D01*
X17306110Y-24392977D01*
X17275746Y-24336170D01*
X17234883Y-24286377D01*
X17185090Y-24245514D01*
X17129540Y-24215822D01*
X17129540Y-20509827D01*
X17135740Y-20503627D01*
X17253605Y-20327231D01*
X17334791Y-20131229D01*
X17376180Y-19923155D01*
X17376180Y-19711005D01*
X17334791Y-19502931D01*
X17253605Y-19306929D01*
X17226180Y-19265885D01*
X17226180Y-18148107D01*
X17230664Y-18102580D01*
X17226180Y-18057053D01*
X17226180Y-18057042D01*
X17212767Y-17920856D01*
X17159760Y-17746116D01*
X17113010Y-17658654D01*
X17073681Y-17585074D01*
X16986868Y-17479293D01*
X16957839Y-17443921D01*
X16922467Y-17414892D01*
X16420448Y-16912873D01*
X16391419Y-16877501D01*
X16250265Y-16761659D01*
X16089224Y-16675580D01*
X15914484Y-16622573D01*
X15778298Y-16609160D01*
X15778287Y-16609160D01*
X15732760Y-16604676D01*
X15687233Y-16609160D01*
X15140210Y-16609160D01*
X15000151Y-16515575D01*
X14804149Y-16434389D01*
X14596075Y-16393000D01*
X14383925Y-16393000D01*
X14175851Y-16434389D01*
X13979849Y-16515575D01*
X13839790Y-16609160D01*
X13100556Y-16609160D01*
X13082334Y-16599420D01*
X12907594Y-16546413D01*
X12725870Y-16528515D01*
X12544147Y-16546413D01*
X12369407Y-16599420D01*
X12208366Y-16685499D01*
X12067211Y-16801341D01*
X11951369Y-16942495D01*
X11865290Y-17103536D01*
X11812283Y-17278276D01*
X11798870Y-17414462D01*
X11798870Y-17490622D01*
X11794385Y-17536160D01*
X11812283Y-17717884D01*
X11865290Y-17892624D01*
X11937025Y-18026830D01*
X11798364Y-17961760D01*
X11533520Y-17896270D01*
X11260988Y-17883708D01*
X10991242Y-17924555D01*
X10734648Y-18017243D01*
X10621617Y-18077660D01*
X10556092Y-18316527D01*
X6927000Y-18316527D01*
X6927000Y-13800000D01*
X6924560Y-13775224D01*
X6917333Y-13751399D01*
X6905597Y-13729443D01*
X6889803Y-13710197D01*
X6870557Y-13694403D01*
X6848601Y-13682667D01*
X6824776Y-13675440D01*
X6800000Y-13673000D01*
X5220920Y-13673000D01*
X5220920Y-13114162D01*
X5223469Y-13088281D01*
X5213294Y-12984972D01*
X5183159Y-12885632D01*
X5176619Y-12873396D01*
X9067999Y-12873396D01*
X9067999Y-13016602D01*
X9095937Y-13157057D01*
X9150740Y-13289363D01*
X9230301Y-13408435D01*
X9331563Y-13509697D01*
X9450635Y-13589258D01*
X9582941Y-13644061D01*
X9723396Y-13671999D01*
X9866602Y-13671999D01*
X10007057Y-13644061D01*
X10139363Y-13589258D01*
X10258435Y-13509697D01*
X10296133Y-13471999D01*
X16193865Y-13471999D01*
X16246564Y-13524698D01*
X16365636Y-13604259D01*
X16497942Y-13659062D01*
X16638397Y-13687000D01*
X16781603Y-13687000D01*
X16922058Y-13659062D01*
X17054364Y-13604259D01*
X17173436Y-13524698D01*
X17274698Y-13423436D01*
X17354259Y-13304364D01*
X17409062Y-13172058D01*
X17437000Y-13031603D01*
X17437000Y-12888397D01*
X17409062Y-12747942D01*
X17354259Y-12615636D01*
X17274698Y-12496564D01*
X17173436Y-12395302D01*
X17054364Y-12315741D01*
X16922058Y-12260938D01*
X16781603Y-12233000D01*
X16638397Y-12233000D01*
X16497942Y-12260938D01*
X16365636Y-12315741D01*
X16246564Y-12395302D01*
X16223867Y-12417999D01*
X10296133Y-12417999D01*
X10258435Y-12380301D01*
X10139363Y-12300740D01*
X10007057Y-12245937D01*
X9866602Y-12217999D01*
X9723396Y-12217999D01*
X9582941Y-12245937D01*
X9450635Y-12300740D01*
X9331563Y-12380301D01*
X9230301Y-12481563D01*
X9150740Y-12600635D01*
X9095937Y-12732941D01*
X9067999Y-12873396D01*
X5176619Y-12873396D01*
X5134224Y-12794080D01*
X5068368Y-12713834D01*
X5048254Y-12697327D01*
X4785394Y-12434467D01*
X4768887Y-12414353D01*
X4688641Y-12348497D01*
X4597089Y-12299562D01*
X4497749Y-12269427D01*
X4420320Y-12261801D01*
X4394439Y-12259252D01*
X4368558Y-12261801D01*
X1193090Y-12261801D01*
X26206Y-11094918D01*
X124364Y-11054259D01*
X243436Y-10974698D01*
X344698Y-10873436D01*
X424259Y-10754364D01*
X479062Y-10622058D01*
X507000Y-10481603D01*
X507000Y-10338397D01*
X9993000Y-10338397D01*
X9993000Y-10481603D01*
X10020938Y-10622058D01*
X10075741Y-10754364D01*
X10155302Y-10873436D01*
X10256564Y-10974698D01*
X10375636Y-11054259D01*
X10507942Y-11109062D01*
X10648397Y-11137000D01*
X10791603Y-11137000D01*
X10932058Y-11109062D01*
X11064364Y-11054259D01*
X11183436Y-10974698D01*
X11221134Y-10937000D01*
X17588866Y-10937000D01*
X17596564Y-10944698D01*
X17715636Y-11024259D01*
X17847942Y-11079062D01*
X17988397Y-11107000D01*
X18131603Y-11107000D01*
X18272058Y-11079062D01*
X18404364Y-11024259D01*
X18523436Y-10944698D01*
X18624698Y-10843436D01*
X18704259Y-10724364D01*
X18759062Y-10592058D01*
X18787000Y-10451603D01*
X18787000Y-10308397D01*
X18759062Y-10167942D01*
X18704259Y-10035636D01*
X18624698Y-9916564D01*
X18523436Y-9815302D01*
X18404364Y-9735741D01*
X18272058Y-9680938D01*
X18131603Y-9653000D01*
X17988397Y-9653000D01*
X17847942Y-9680938D01*
X17715636Y-9735741D01*
X17596564Y-9815302D01*
X17528866Y-9883000D01*
X11221134Y-9883000D01*
X11183436Y-9845302D01*
X11064364Y-9765741D01*
X10932058Y-9710938D01*
X10791603Y-9683000D01*
X10648397Y-9683000D01*
X10507942Y-9710938D01*
X10375636Y-9765741D01*
X10256564Y-9845302D01*
X10155302Y-9946564D01*
X10075741Y-10065636D01*
X10020938Y-10197942D01*
X9993000Y-10338397D01*
X507000Y-10338397D01*
X479062Y-10197942D01*
X424259Y-10065636D01*
X344698Y-9946564D01*
X243436Y-9845302D01*
X124364Y-9765741D01*
X-7942Y-9710938D01*
X-128287Y-9687000D01*
X4284119Y-9687000D01*
X4310000Y-9689549D01*
X4335881Y-9687000D01*
X4413310Y-9679374D01*
X4512650Y-9649239D01*
X4604202Y-9600304D01*
X4684448Y-9534448D01*
X4700955Y-9514334D01*
X6729744Y-7485546D01*
X6749848Y-7469048D01*
X6815704Y-7388802D01*
X6864639Y-7297250D01*
X6894774Y-7197910D01*
X6902400Y-7120481D01*
X6904949Y-7094600D01*
X6902400Y-7068719D01*
X6902400Y-2351085D01*
X6932919Y-2338444D01*
X7125694Y-2209636D01*
X7289636Y-2045694D01*
X7418444Y-1852919D01*
X7507169Y-1638718D01*
X7552400Y-1411324D01*
X7552400Y-1179476D01*
X7738400Y-1179476D01*
X7738400Y-1411324D01*
X7783631Y-1638718D01*
X7872356Y-1852919D01*
X8001164Y-2045694D01*
X8165106Y-2209636D01*
X8357881Y-2338444D01*
X8572082Y-2427169D01*
X8799476Y-2472400D01*
X9031324Y-2472400D01*
X9258718Y-2427169D01*
X9472919Y-2338444D01*
X9665694Y-2209636D01*
X9829636Y-2045694D01*
X9958444Y-1852919D01*
X10047169Y-1638718D01*
X10092400Y-1411324D01*
X10092400Y-1179476D01*
X10278400Y-1179476D01*
X10278400Y-1411324D01*
X10323631Y-1638718D01*
X10412356Y-1852919D01*
X10541164Y-2045694D01*
X10705106Y-2209636D01*
X10897881Y-2338444D01*
X11112082Y-2427169D01*
X11339476Y-2472400D01*
X11571324Y-2472400D01*
X11798718Y-2427169D01*
X12012919Y-2338444D01*
X12205694Y-2209636D01*
X12369636Y-2045694D01*
X12498444Y-1852919D01*
X12587169Y-1638718D01*
X12632400Y-1411324D01*
X12632400Y-1179476D01*
X12587169Y-952082D01*
X12498444Y-737881D01*
X12369636Y-545106D01*
X12205694Y-381164D01*
X12012919Y-252356D01*
X11798718Y-163631D01*
X11571324Y-118400D01*
X11339476Y-118400D01*
X11112082Y-163631D01*
X10897881Y-252356D01*
X10705106Y-381164D01*
X10541164Y-545106D01*
X10412356Y-737881D01*
X10323631Y-952082D01*
X10278400Y-1179476D01*
X10092400Y-1179476D01*
X10047169Y-952082D01*
X9958444Y-737881D01*
X9829636Y-545106D01*
X9665694Y-381164D01*
X9472919Y-252356D01*
X9258718Y-163631D01*
X9031324Y-118400D01*
X8799476Y-118400D01*
X8572082Y-163631D01*
X8357881Y-252356D01*
X8165106Y-381164D01*
X8001164Y-545106D01*
X7872356Y-737881D01*
X7783631Y-952082D01*
X7738400Y-1179476D01*
X7552400Y-1179476D01*
X7507169Y-952082D01*
X7418444Y-737881D01*
X7289636Y-545106D01*
X7125694Y-381164D01*
X6932919Y-252356D01*
X6718718Y-163631D01*
X6491324Y-118400D01*
X6259476Y-118400D01*
X6032082Y-163631D01*
X5817881Y-252356D01*
X5625106Y-381164D01*
X5461164Y-545106D01*
X5332356Y-737881D01*
X5243631Y-952082D01*
X5198400Y-1179476D01*
X5198400Y-1411324D01*
X5243631Y-1638718D01*
X5332356Y-1852919D01*
X5461164Y-2045694D01*
X5625106Y-2209636D01*
X5817881Y-2338444D01*
X5848400Y-2351085D01*
X5848401Y-6876308D01*
X4091711Y-8633000D01*
X-7593471Y-8633000D01*
X-7545778Y-8517858D01*
X-7517840Y-8377403D01*
X-7517840Y-8234197D01*
X-7545778Y-8093742D01*
X-7600581Y-7961436D01*
X-7680142Y-7842364D01*
X-7781404Y-7741102D01*
X-7799120Y-7729265D01*
X-7799120Y-7196647D01*
X-7639573Y-7090040D01*
X-7489560Y-6940027D01*
X-7371695Y-6763631D01*
X-7290509Y-6567629D01*
X-7249120Y-6359555D01*
X-7249120Y-6147405D01*
X-7274701Y-6018803D01*
X-7231559Y-6061945D01*
X-7217399Y-6079199D01*
X-7148573Y-6135683D01*
X-7077032Y-6173922D01*
X-7070050Y-6177654D01*
X-7028837Y-6190156D01*
X-6986141Y-6242181D01*
X-6913997Y-6301388D01*
X-6886447Y-6316114D01*
X-6871214Y-6366329D01*
X-6829243Y-6444852D01*
X-6772759Y-6513679D01*
X-6755500Y-6527843D01*
X-6571397Y-6711947D01*
X-6574080Y-6725437D01*
X-6574080Y-6868643D01*
X-6546142Y-7009098D01*
X-6491339Y-7141404D01*
X-6411778Y-7260476D01*
X-6310516Y-7361738D01*
X-6191444Y-7441299D01*
X-6059138Y-7496102D01*
X-5918683Y-7524040D01*
X-5775477Y-7524040D01*
X-5635022Y-7496102D01*
X-5502716Y-7441299D01*
X-5383644Y-7361738D01*
X-5282382Y-7260476D01*
X-5202821Y-7141404D01*
X-5148018Y-7009098D01*
X-5120080Y-6868643D01*
X-5120080Y-6725437D01*
X-5122763Y-6711947D01*
X-5025014Y-6614198D01*
X-5007761Y-6600039D01*
X-4951277Y-6531213D01*
X-4909306Y-6452690D01*
X-4894780Y-6404804D01*
X-4883460Y-6367488D01*
X-4877635Y-6308344D01*
X-4841123Y-6288828D01*
X-4768979Y-6229621D01*
X-4709772Y-6157477D01*
X-4707032Y-6152350D01*
X-4698186Y-6242164D01*
X-4645179Y-6416904D01*
X-4559100Y-6577945D01*
X-4443258Y-6719099D01*
X-4302104Y-6834941D01*
X-4141063Y-6921020D01*
X-3966323Y-6974027D01*
X-3784600Y-6991925D01*
X-3602876Y-6974027D01*
X-3428136Y-6921020D01*
X-3267095Y-6834941D01*
X-3125941Y-6719099D01*
X-3010099Y-6577945D01*
X-2924020Y-6416904D01*
X-2871013Y-6242164D01*
X-2857600Y-6105978D01*
X-2857600Y-2026591D01*
X-2741556Y-1852919D01*
X-2673336Y-1688221D01*
X-2588757Y-1926652D01*
X-2439778Y-2176755D01*
X-2244869Y-2392988D01*
X-2011520Y-2567041D01*
X-1748699Y-2692225D01*
X-1601490Y-2736876D01*
X-1371600Y-2615555D01*
X-1371600Y-1422400D01*
X-1391600Y-1422400D01*
X-1391600Y-1168400D01*
X-1371600Y-1168400D01*
X-1371600Y-1148400D01*
X-1117600Y-1148400D01*
X-1117600Y-1168400D01*
X-1097600Y-1168400D01*
X-1097600Y-1422400D01*
X-1117600Y-1422400D01*
X-1117600Y-2615555D01*
X-887710Y-2736876D01*
X-740501Y-2692225D01*
X-477680Y-2567041D01*
X-244331Y-2392988D01*
X-49422Y-2176755D01*
X99557Y-1926652D01*
X184136Y-1688221D01*
X252356Y-1852919D01*
X381164Y-2045694D01*
X545106Y-2209636D01*
X737881Y-2338444D01*
X952082Y-2427169D01*
X1179476Y-2472400D01*
X1411324Y-2472400D01*
X1638718Y-2427169D01*
X1852919Y-2338444D01*
X2045694Y-2209636D01*
X2209636Y-2045694D01*
X2338444Y-1852919D01*
X2427169Y-1638718D01*
X2472400Y-1411324D01*
X2472400Y-1179476D01*
X2658400Y-1179476D01*
X2658400Y-1411324D01*
X2703631Y-1638718D01*
X2792356Y-1852919D01*
X2921164Y-2045694D01*
X3085106Y-2209636D01*
X3277881Y-2338444D01*
X3492082Y-2427169D01*
X3719476Y-2472400D01*
X3951324Y-2472400D01*
X4178718Y-2427169D01*
X4392919Y-2338444D01*
X4585694Y-2209636D01*
X4749636Y-2045694D01*
X4878444Y-1852919D01*
X4967169Y-1638718D01*
X5012400Y-1411324D01*
X5012400Y-1179476D01*
X4967169Y-952082D01*
X4878444Y-737881D01*
X4749636Y-545106D01*
X4585694Y-381164D01*
X4392919Y-252356D01*
X4178718Y-163631D01*
X3951324Y-118400D01*
X3719476Y-118400D01*
X3492082Y-163631D01*
X3277881Y-252356D01*
X3085106Y-381164D01*
X2921164Y-545106D01*
X2792356Y-737881D01*
X2703631Y-952082D01*
X2658400Y-1179476D01*
X2472400Y-1179476D01*
X2427169Y-952082D01*
X2338444Y-737881D01*
X2209636Y-545106D01*
X2045694Y-381164D01*
X1852919Y-252356D01*
X1638718Y-163631D01*
X1411324Y-118400D01*
X1179476Y-118400D01*
X952082Y-163631D01*
X737881Y-252356D01*
X545106Y-381164D01*
X381164Y-545106D01*
X252356Y-737881D01*
X184136Y-902579D01*
X99557Y-664148D01*
X-49422Y-414045D01*
X-244331Y-197812D01*
X-477680Y-23759D01*
X-740501Y101425D01*
X-849212Y134399D01*
X-687081Y201556D01*
X-494306Y330364D01*
X-330364Y494306D01*
X-201556Y687081D01*
X-112831Y901282D01*
X-67600Y1128676D01*
X-67600Y1360524D01*
X118400Y1360524D01*
X118400Y1128676D01*
X163631Y901282D01*
X252356Y687081D01*
X381164Y494306D01*
X545106Y330364D01*
X737881Y201556D01*
X952082Y112831D01*
X1179476Y67600D01*
X1411324Y67600D01*
X1638718Y112831D01*
X1852919Y201556D01*
X2045694Y330364D01*
X2209636Y494306D01*
X2338444Y687081D01*
X2427169Y901282D01*
X2472400Y1128676D01*
X2472400Y1360524D01*
X2658400Y1360524D01*
X2658400Y1128676D01*
X2703631Y901282D01*
X2792356Y687081D01*
X2921164Y494306D01*
X3085106Y330364D01*
X3277881Y201556D01*
X3492082Y112831D01*
X3719476Y67600D01*
X3951324Y67600D01*
X4178718Y112831D01*
X4392919Y201556D01*
X4585694Y330364D01*
X4749636Y494306D01*
X4878444Y687081D01*
X4967169Y901282D01*
X5012400Y1128676D01*
X5012400Y1360524D01*
X4967169Y1587918D01*
X4878444Y1802119D01*
X4749636Y1994894D01*
X4585694Y2158836D01*
X4392919Y2287644D01*
X4178718Y2376369D01*
X3951324Y2421600D01*
X3719476Y2421600D01*
X3492082Y2376369D01*
X3277881Y2287644D01*
X3085106Y2158836D01*
X2921164Y1994894D01*
X2792356Y1802119D01*
X2703631Y1587918D01*
X2658400Y1360524D01*
X2472400Y1360524D01*
X2427169Y1587918D01*
X2338444Y1802119D01*
X2209636Y1994894D01*
X2045694Y2158836D01*
X1852919Y2287644D01*
X1638718Y2376369D01*
X1411324Y2421600D01*
X1179476Y2421600D01*
X952082Y2376369D01*
X737881Y2287644D01*
X545106Y2158836D01*
X381164Y1994894D01*
X252356Y1802119D01*
X163631Y1587918D01*
X118400Y1360524D01*
X-67600Y1360524D01*
X-112831Y1587918D01*
X-201556Y1802119D01*
X-330364Y1994894D01*
X-494306Y2158836D01*
X-687081Y2287644D01*
X-901282Y2376369D01*
X-1128676Y2421600D01*
X-1360524Y2421600D01*
X-1587918Y2376369D01*
X-1802119Y2287644D01*
X-1994894Y2158836D01*
X-2158836Y1994894D01*
X-2287644Y1802119D01*
X-2355864Y1637421D01*
X-2440443Y1875852D01*
X-2589422Y2125955D01*
X-2784331Y2342188D01*
X-2962764Y2475280D01*
X5379871Y2475280D01*
X5667792Y2187358D01*
X5625106Y2158836D01*
X5461164Y1994894D01*
X5332356Y1802119D01*
X5243631Y1587918D01*
X5198400Y1360524D01*
X5198400Y1128676D01*
X5243631Y901282D01*
X5332356Y687081D01*
X5461164Y494306D01*
X5625106Y330364D01*
X5817881Y201556D01*
X6032082Y112831D01*
X6259476Y67600D01*
X6491324Y67600D01*
X6718718Y112831D01*
X6932919Y201556D01*
X7125694Y330364D01*
X7289636Y494306D01*
X7418444Y687081D01*
X7507169Y901282D01*
X7552400Y1128676D01*
X7552400Y1360524D01*
X7738400Y1360524D01*
X7738400Y1128676D01*
X7783631Y901282D01*
X7872356Y687081D01*
X8001164Y494306D01*
X8165106Y330364D01*
X8357881Y201556D01*
X8572082Y112831D01*
X8799476Y67600D01*
X9031324Y67600D01*
X9258718Y112831D01*
X9472919Y201556D01*
X9665694Y330364D01*
X9829636Y494306D01*
X9958444Y687081D01*
X10047169Y901282D01*
X10092400Y1128676D01*
X10092400Y1360524D01*
X10278400Y1360524D01*
X10278400Y1128676D01*
X10323631Y901282D01*
X10412356Y687081D01*
X10541164Y494306D01*
X10705106Y330364D01*
X10897881Y201556D01*
X11112082Y112831D01*
X11339476Y67600D01*
X11571324Y67600D01*
X11798718Y112831D01*
X12012919Y201556D01*
X12205694Y330364D01*
X12369636Y494306D01*
X12498444Y687081D01*
X12587169Y901282D01*
X12632400Y1128676D01*
X12632400Y1360524D01*
X12587169Y1587918D01*
X12498444Y1802119D01*
X12369636Y1994894D01*
X12205694Y2158836D01*
X12012919Y2287644D01*
X11798718Y2376369D01*
X11571324Y2421600D01*
X11339476Y2421600D01*
X11112082Y2376369D01*
X10897881Y2287644D01*
X10705106Y2158836D01*
X10541164Y1994894D01*
X10412356Y1802119D01*
X10323631Y1587918D01*
X10278400Y1360524D01*
X10092400Y1360524D01*
X10047169Y1587918D01*
X9958444Y1802119D01*
X9829636Y1994894D01*
X9665694Y2158836D01*
X9472919Y2287644D01*
X9258718Y2376369D01*
X9031324Y2421600D01*
X8799476Y2421600D01*
X8572082Y2376369D01*
X8357881Y2287644D01*
X8165106Y2158836D01*
X8001164Y1994894D01*
X7872356Y1802119D01*
X7783631Y1587918D01*
X7738400Y1360524D01*
X7552400Y1360524D01*
X7507169Y1587918D01*
X7418444Y1802119D01*
X7289636Y1994894D01*
X7125694Y2158836D01*
X6932919Y2287644D01*
X6897331Y2302385D01*
X6894774Y2328350D01*
X6864639Y2427690D01*
X6815704Y2519242D01*
X6749848Y2599488D01*
X6729739Y2615991D01*
X5989115Y3356614D01*
X5972608Y3376728D01*
X5892362Y3442584D01*
X5800810Y3491519D01*
X5701470Y3521654D01*
X5624041Y3529280D01*
X5598160Y3531829D01*
X5572279Y3529280D01*
X-13944119Y3529280D01*
X-13970000Y3531829D01*
X-13995881Y3529280D01*
X-14073310Y3521654D01*
X-14172650Y3491519D01*
X-14264202Y3442584D01*
X-14344448Y3376728D01*
X-14410304Y3296482D01*
X-14459239Y3204930D01*
X-14489374Y3105590D01*
X-14499549Y3002280D01*
X-14497000Y2976399D01*
X-14496999Y-2128862D01*
X-14499374Y-2136691D01*
X-14509549Y-2240000D01*
X-14499374Y-2343309D01*
X-14469239Y-2442649D01*
X-14420304Y-2534201D01*
X-14354447Y-2614447D01*
X-14334344Y-2630945D01*
X-13360947Y-3604344D01*
X-13344448Y-3624448D01*
X-13264202Y-3690304D01*
X-13172650Y-3739239D01*
X-13073310Y-3769374D01*
X-12970000Y-3779549D01*
X-12944119Y-3777000D01*
X-8787080Y-3777000D01*
X-8787079Y-5278679D01*
X-8836271Y-5299055D01*
X-9012667Y-5416920D01*
X-9162680Y-5566933D01*
X-9280545Y-5743329D01*
X-9361731Y-5939331D01*
X-9403120Y-6147405D01*
X-9403120Y-6359555D01*
X-9361731Y-6567629D01*
X-9280545Y-6763631D01*
X-9162680Y-6940027D01*
X-9012667Y-7090040D01*
X-8853120Y-7196647D01*
X-8853119Y-7907588D01*
X-8889099Y-7961436D01*
X-8943902Y-8093742D01*
X-8971840Y-8234197D01*
X-8971840Y-8377403D01*
X-8943902Y-8517858D01*
X-8896209Y-8633000D01*
X-11528866Y-8633000D01*
X-11566564Y-8595302D01*
X-11685636Y-8515741D01*
X-11817942Y-8460938D01*
X-11958397Y-8433000D01*
X-12101603Y-8433000D01*
X-12242058Y-8460938D01*
X-12374364Y-8515741D01*
X-12493436Y-8595302D01*
X-12531134Y-8633000D01*
X-12874146Y-8633000D01*
X-12881972Y-8630626D01*
X-12959401Y-8623000D01*
X-12985282Y-8620451D01*
X-13011163Y-8623000D01*
X-14674119Y-8623000D01*
X-14700000Y-8620451D01*
X-14725881Y-8623000D01*
X-14803310Y-8630626D01*
X-14902650Y-8660761D01*
X-14994202Y-8709696D01*
X-15074448Y-8775552D01*
X-15090947Y-8795656D01*
X-15158746Y-8863455D01*
X-15184931Y-8852609D01*
X-15393005Y-8811220D01*
X-15605155Y-8811220D01*
X-15813229Y-8852609D01*
X-16009231Y-8933795D01*
X-16185627Y-9051660D01*
X-16335640Y-9201673D01*
X-16453505Y-9378069D01*
X-16534691Y-9574071D01*
X-16576080Y-9782145D01*
X-16576080Y-9994295D01*
X-16534691Y-10202369D01*
X-16523844Y-10228555D01*
X-16592554Y-10297265D01*
X-16612668Y-10313772D01*
X-16678524Y-10394018D01*
X-16719986Y-10471589D01*
X-16727459Y-10485571D01*
X-16757594Y-10584911D01*
X-16767769Y-10688220D01*
X-16765220Y-10714101D01*
X-16765219Y-13441024D01*
X-16809108Y-13494503D01*
X-16853102Y-13576811D01*
X-16880194Y-13666121D01*
X-16889342Y-13759000D01*
X-16889342Y-14054000D01*
X-16880194Y-14146879D01*
X-16853102Y-14236189D01*
X-16809108Y-14318497D01*
X-16749901Y-14390641D01*
X-16748854Y-14391500D01*
X-16749901Y-14392359D01*
X-16809108Y-14464503D01*
X-16853102Y-14546811D01*
X-16880194Y-14636121D01*
X-16889342Y-14729000D01*
X-16889342Y-15024000D01*
X-16880194Y-15116879D01*
X-16853102Y-15206189D01*
X-16809108Y-15288497D01*
X-16767760Y-15338880D01*
X-16767760Y-15481418D01*
X-16770000Y-15481418D01*
X-16834103Y-15487732D01*
X-16895743Y-15506430D01*
X-16952550Y-15536794D01*
X-16960112Y-15543000D01*
X-19598000Y-15543000D01*
X-19598000Y-7088397D01*
X-12887000Y-7088397D01*
X-12887000Y-7231603D01*
X-12859062Y-7372058D01*
X-12804259Y-7504364D01*
X-12724698Y-7623436D01*
X-12623436Y-7724698D01*
X-12504364Y-7804259D01*
X-12372058Y-7859062D01*
X-12231603Y-7887000D01*
X-12088397Y-7887000D01*
X-11947942Y-7859062D01*
X-11815636Y-7804259D01*
X-11696564Y-7724698D01*
X-11595302Y-7623436D01*
X-11515741Y-7504364D01*
X-11460938Y-7372058D01*
X-11433000Y-7231603D01*
X-11433000Y-7088397D01*
X-11460938Y-6947942D01*
X-11515741Y-6815636D01*
X-11595302Y-6696564D01*
X-11696564Y-6595302D01*
X-11815636Y-6515741D01*
X-11947942Y-6460938D01*
X-12088397Y-6433000D01*
X-12231603Y-6433000D01*
X-12372058Y-6460938D01*
X-12504364Y-6515741D01*
X-12623436Y-6595302D01*
X-12724698Y-6696564D01*
X-12804259Y-6815636D01*
X-12859062Y-6947942D01*
X-12887000Y-7088397D01*
X-19598000Y-7088397D01*
X-19598000Y-5088397D01*
X-12887000Y-5088397D01*
X-12887000Y-5231603D01*
X-12859062Y-5372058D01*
X-12804259Y-5504364D01*
X-12724698Y-5623436D01*
X-12623436Y-5724698D01*
X-12504364Y-5804259D01*
X-12372058Y-5859062D01*
X-12231603Y-5887000D01*
X-12088397Y-5887000D01*
X-11947942Y-5859062D01*
X-11815636Y-5804259D01*
X-11696564Y-5724698D01*
X-11595302Y-5623436D01*
X-11515741Y-5504364D01*
X-11460938Y-5372058D01*
X-11433000Y-5231603D01*
X-11433000Y-5088397D01*
X-11460938Y-4947942D01*
X-11515741Y-4815636D01*
X-11595302Y-4696564D01*
X-11696564Y-4595302D01*
X-11815636Y-4515741D01*
X-11947942Y-4460938D01*
X-12088397Y-4433000D01*
X-12231603Y-4433000D01*
X-12372058Y-4460938D01*
X-12504364Y-4515741D01*
X-12623436Y-4595302D01*
X-12724698Y-4696564D01*
X-12804259Y-4815636D01*
X-12859062Y-4947942D01*
X-12887000Y-5088397D01*
X-19598000Y-5088397D01*
X-19598000Y1980342D01*
X-19563618Y2331000D01*
X-18217000Y2331000D01*
X-18217000Y2109000D01*
X-18173690Y1891266D01*
X-18088734Y1686165D01*
X-17965398Y1501579D01*
X-17808421Y1344602D01*
X-17623835Y1221266D01*
X-17418734Y1136310D01*
X-17201000Y1093000D01*
X-16979000Y1093000D01*
X-16761266Y1136310D01*
X-16556165Y1221266D01*
X-16371579Y1344602D01*
X-16214602Y1501579D01*
X-16091266Y1686165D01*
X-16006310Y1891266D01*
X-15963000Y2109000D01*
X-15963000Y2331000D01*
X-16006310Y2548734D01*
X-16091266Y2753835D01*
X-16214602Y2938421D01*
X-16371579Y3095398D01*
X-16556165Y3218734D01*
X-16761266Y3303690D01*
X-16979000Y3347000D01*
X-17201000Y3347000D01*
X-17418734Y3303690D01*
X-17623835Y3218734D01*
X-17808421Y3095398D01*
X-17965398Y2938421D01*
X-18088734Y2753835D01*
X-18173690Y2548734D01*
X-18217000Y2331000D01*
X-19563618Y2331000D01*
X-19546631Y2504242D01*
X-19400188Y2989286D01*
X-19162326Y3436642D01*
X-18842096Y3829282D01*
X-18451706Y4152241D01*
X-18006020Y4393222D01*
X-17522013Y4543048D01*
X-16999180Y4598000D01*
X16980342Y4598000D01*
X17504242Y4546631D01*
G04 #@! TA.AperFunction,Conductor*
D27*
G36*
X17504242Y4546631D02*
G01*
X17989286Y4400188D01*
X18436642Y4162326D01*
X18829282Y3842096D01*
X19152241Y3451706D01*
X19393222Y3006020D01*
X19543048Y2522013D01*
X19598000Y1999180D01*
X19598000Y1999173D01*
X19598001Y-45448922D01*
X19572343Y-45417657D01*
X19522550Y-45376794D01*
X19465743Y-45346430D01*
X19404103Y-45327732D01*
X19340000Y-45321418D01*
X15127000Y-45321418D01*
X15127000Y-45200000D01*
X15124560Y-45175224D01*
X15117333Y-45151399D01*
X15105597Y-45129443D01*
X15089803Y-45110197D01*
X15070557Y-45094403D01*
X15048601Y-45082667D01*
X15024776Y-45075440D01*
X15000000Y-45073000D01*
X10470829Y-45073000D01*
X10507342Y-45004689D01*
X10534434Y-44915379D01*
X10543582Y-44822500D01*
X10543582Y-44477500D01*
X10534434Y-44384621D01*
X10507342Y-44295311D01*
X10486865Y-44257000D01*
X10876418Y-44257000D01*
X10876418Y-44340000D01*
X10882732Y-44404103D01*
X10901430Y-44465743D01*
X10931794Y-44522550D01*
X10972657Y-44572343D01*
X11022450Y-44613206D01*
X11079257Y-44643570D01*
X11140897Y-44662268D01*
X11205000Y-44668582D01*
X11855000Y-44668582D01*
X11919103Y-44662268D01*
X11980743Y-44643570D01*
X12037550Y-44613206D01*
X12087343Y-44572343D01*
X12128206Y-44522550D01*
X12158570Y-44465743D01*
X12177268Y-44404103D01*
X12183582Y-44340000D01*
X12183582Y-43120000D01*
X12177268Y-43055897D01*
X12158570Y-42994257D01*
X12128206Y-42937450D01*
X12087343Y-42887657D01*
X12057000Y-42862756D01*
X12057000Y-41558290D01*
X12081708Y-41533582D01*
X12132500Y-41533582D01*
X12225379Y-41524434D01*
X12314689Y-41497342D01*
X12396997Y-41453348D01*
X12469141Y-41394141D01*
X12528348Y-41321997D01*
X12572342Y-41239689D01*
X12599434Y-41150379D01*
X12608582Y-41057500D01*
X12608582Y-40779387D01*
X12634494Y-40765537D01*
X12731185Y-40686185D01*
X12810537Y-40589494D01*
X12869502Y-40479180D01*
X12905812Y-40359482D01*
X12918072Y-40235000D01*
X12915000Y-40225750D01*
X12756250Y-40067000D01*
X12087000Y-40067000D01*
X12087000Y-40087000D01*
X11833000Y-40087000D01*
X11833000Y-40067000D01*
X11163750Y-40067000D01*
X11005000Y-40225750D01*
X11001928Y-40235000D01*
X11014188Y-40359482D01*
X11050498Y-40479180D01*
X11109463Y-40589494D01*
X11188815Y-40686185D01*
X11285506Y-40765537D01*
X11311418Y-40779387D01*
X11311418Y-40813292D01*
X11175661Y-40949050D01*
X11155553Y-40965552D01*
X11098061Y-41035606D01*
X11089696Y-41045799D01*
X11040761Y-41137351D01*
X11010626Y-41236691D01*
X11000451Y-41340000D01*
X11003001Y-41365890D01*
X11003000Y-42862755D01*
X10972657Y-42887657D01*
X10931794Y-42937450D01*
X10901430Y-42994257D01*
X10882732Y-43055897D01*
X10876418Y-43120000D01*
X10876418Y-43203000D01*
X10265877Y-43203000D01*
X10239999Y-43200451D01*
X10214121Y-43203000D01*
X10214119Y-43203000D01*
X10136690Y-43210626D01*
X10037350Y-43240761D01*
X9945798Y-43289696D01*
X9865552Y-43355552D01*
X9851233Y-43373000D01*
X6927000Y-43373000D01*
X6927000Y-40108702D01*
X7502743Y-40108702D01*
X7574326Y-40352671D01*
X7829836Y-40473571D01*
X8104024Y-40542300D01*
X8386352Y-40556217D01*
X8665970Y-40514787D01*
X8932132Y-40419603D01*
X9057354Y-40352671D01*
X9128937Y-40108702D01*
X8315840Y-39295605D01*
X7502743Y-40108702D01*
X6927000Y-40108702D01*
X6927000Y-39493945D01*
X7012237Y-39732292D01*
X7079169Y-39857514D01*
X7323138Y-39929097D01*
X8136235Y-39116000D01*
X8495445Y-39116000D01*
X9308542Y-39929097D01*
X9552511Y-39857514D01*
X9653066Y-39645000D01*
X11001928Y-39645000D01*
X11005000Y-39654250D01*
X11163750Y-39813000D01*
X11833000Y-39813000D01*
X11833000Y-39168750D01*
X12087000Y-39168750D01*
X12087000Y-39813000D01*
X12756250Y-39813000D01*
X12915000Y-39654250D01*
X12918072Y-39645000D01*
X12905812Y-39520518D01*
X12869502Y-39400820D01*
X12810537Y-39290506D01*
X12731185Y-39193815D01*
X12634494Y-39114463D01*
X12524180Y-39055498D01*
X12404482Y-39019188D01*
X12280000Y-39006928D01*
X12245750Y-39010000D01*
X12087000Y-39168750D01*
X11833000Y-39168750D01*
X11674250Y-39010000D01*
X11640000Y-39006928D01*
X11515518Y-39019188D01*
X11395820Y-39055498D01*
X11285506Y-39114463D01*
X11188815Y-39193815D01*
X11109463Y-39290506D01*
X11050498Y-39400820D01*
X11014188Y-39520518D01*
X11001928Y-39645000D01*
X9653066Y-39645000D01*
X9673411Y-39602004D01*
X9742140Y-39327816D01*
X9756057Y-39045488D01*
X9714627Y-38765870D01*
X9619443Y-38499708D01*
X9552511Y-38374486D01*
X9308542Y-38302903D01*
X8495445Y-39116000D01*
X8136235Y-39116000D01*
X7323138Y-38302903D01*
X7079169Y-38374486D01*
X6958269Y-38629996D01*
X6927000Y-38754741D01*
X6927000Y-38123298D01*
X7502743Y-38123298D01*
X8315840Y-38936395D01*
X9128937Y-38123298D01*
X9057354Y-37879329D01*
X8801844Y-37758429D01*
X8527656Y-37689700D01*
X8245328Y-37675783D01*
X7965710Y-37717213D01*
X7699548Y-37812397D01*
X7574326Y-37879329D01*
X7502743Y-38123298D01*
X6927000Y-38123298D01*
X6927000Y-34955042D01*
X11909763Y-34955042D01*
X11981346Y-35199011D01*
X12236856Y-35319911D01*
X12511044Y-35388640D01*
X12793372Y-35402557D01*
X13072990Y-35361127D01*
X13339152Y-35265943D01*
X13464374Y-35199011D01*
X13535957Y-34955042D01*
X12722860Y-34141945D01*
X11909763Y-34955042D01*
X6927000Y-34955042D01*
X6927000Y-34032852D01*
X11282643Y-34032852D01*
X11324073Y-34312470D01*
X11419257Y-34578632D01*
X11486189Y-34703854D01*
X11730158Y-34775437D01*
X12543255Y-33962340D01*
X12902465Y-33962340D01*
X13715562Y-34775437D01*
X13959531Y-34703854D01*
X14080431Y-34448344D01*
X14149160Y-34174156D01*
X14163077Y-33891828D01*
X14121647Y-33612210D01*
X14026463Y-33346048D01*
X13959531Y-33220826D01*
X13715562Y-33149243D01*
X12902465Y-33962340D01*
X12543255Y-33962340D01*
X11730158Y-33149243D01*
X11486189Y-33220826D01*
X11365289Y-33476336D01*
X11296560Y-33750524D01*
X11282643Y-34032852D01*
X6927000Y-34032852D01*
X6927000Y-32969638D01*
X11909763Y-32969638D01*
X12722860Y-33782735D01*
X13535957Y-32969638D01*
X13464374Y-32725669D01*
X13208864Y-32604769D01*
X12934676Y-32536040D01*
X12652348Y-32522123D01*
X12372730Y-32563553D01*
X12106568Y-32658737D01*
X11981346Y-32725669D01*
X11909763Y-32969638D01*
X6927000Y-32969638D01*
X6927000Y-31449842D01*
X7467303Y-31449842D01*
X7538886Y-31693811D01*
X7794396Y-31814711D01*
X8068584Y-31883440D01*
X8350912Y-31897357D01*
X8630530Y-31855927D01*
X8896692Y-31760743D01*
X9021914Y-31693811D01*
X9093497Y-31449842D01*
X8280400Y-30636745D01*
X7467303Y-31449842D01*
X6927000Y-31449842D01*
X6927000Y-30934185D01*
X6976797Y-31073432D01*
X7043729Y-31198654D01*
X7287698Y-31270237D01*
X8100795Y-30457140D01*
X8460005Y-30457140D01*
X9273102Y-31270237D01*
X9517071Y-31198654D01*
X9637971Y-30943144D01*
X9706700Y-30668956D01*
X9720617Y-30386628D01*
X9679187Y-30107010D01*
X9584003Y-29840848D01*
X9517071Y-29715626D01*
X9273102Y-29644043D01*
X8460005Y-30457140D01*
X8100795Y-30457140D01*
X7287698Y-29644043D01*
X7043729Y-29715626D01*
X6927000Y-29962321D01*
X6927000Y-29464438D01*
X7467303Y-29464438D01*
X8280400Y-30277535D01*
X9093497Y-29464438D01*
X9021914Y-29220469D01*
X8766404Y-29099569D01*
X8492216Y-29030840D01*
X8209888Y-29016923D01*
X7930270Y-29058353D01*
X7664108Y-29153537D01*
X7538886Y-29220469D01*
X7467303Y-29464438D01*
X6927000Y-29464438D01*
X6927000Y-26311422D01*
X11889443Y-26311422D01*
X11961026Y-26555391D01*
X12216536Y-26676291D01*
X12490724Y-26745020D01*
X12773052Y-26758937D01*
X13052670Y-26717507D01*
X13318832Y-26622323D01*
X13444054Y-26555391D01*
X13515637Y-26311422D01*
X12702540Y-25498325D01*
X11889443Y-26311422D01*
X6927000Y-26311422D01*
X6927000Y-25389232D01*
X11262323Y-25389232D01*
X11303753Y-25668850D01*
X11398937Y-25935012D01*
X11465869Y-26060234D01*
X11709838Y-26131817D01*
X12522935Y-25318720D01*
X12882145Y-25318720D01*
X13695242Y-26131817D01*
X13939211Y-26060234D01*
X14060111Y-25804724D01*
X14128840Y-25530536D01*
X14142757Y-25248208D01*
X14101327Y-24968590D01*
X14006143Y-24702428D01*
X13939211Y-24577206D01*
X13695242Y-24505623D01*
X12882145Y-25318720D01*
X12522935Y-25318720D01*
X11709838Y-24505623D01*
X11465869Y-24577206D01*
X11344969Y-24832716D01*
X11276240Y-25106904D01*
X11262323Y-25389232D01*
X6927000Y-25389232D01*
X6927000Y-24326018D01*
X11889443Y-24326018D01*
X12702540Y-25139115D01*
X13515637Y-24326018D01*
X13444054Y-24082049D01*
X13188544Y-23961149D01*
X12914356Y-23892420D01*
X12632028Y-23878503D01*
X12352410Y-23919933D01*
X12086248Y-24015117D01*
X11961026Y-24082049D01*
X11889443Y-24326018D01*
X6927000Y-24326018D01*
X6927000Y-22790982D01*
X7426663Y-22790982D01*
X7498246Y-23034951D01*
X7753756Y-23155851D01*
X8027944Y-23224580D01*
X8310272Y-23238497D01*
X8589890Y-23197067D01*
X8856052Y-23101883D01*
X8981274Y-23034951D01*
X9052857Y-22790982D01*
X8239760Y-21977885D01*
X7426663Y-22790982D01*
X6927000Y-22790982D01*
X6927000Y-22388966D01*
X6936157Y-22414572D01*
X7003089Y-22539794D01*
X7247058Y-22611377D01*
X8060155Y-21798280D01*
X8419365Y-21798280D01*
X9232462Y-22611377D01*
X9476431Y-22539794D01*
X9597331Y-22284284D01*
X9666060Y-22010096D01*
X9679977Y-21727768D01*
X9638547Y-21448150D01*
X9543363Y-21181988D01*
X9476431Y-21056766D01*
X9232462Y-20985183D01*
X8419365Y-21798280D01*
X8060155Y-21798280D01*
X7247058Y-20985183D01*
X7003089Y-21056766D01*
X6927000Y-21217572D01*
X6927000Y-20805578D01*
X7426663Y-20805578D01*
X8239760Y-21618675D01*
X9052857Y-20805578D01*
X8981274Y-20561609D01*
X8725764Y-20440709D01*
X8451576Y-20371980D01*
X8169248Y-20358063D01*
X7889630Y-20399493D01*
X7623468Y-20494677D01*
X7498246Y-20561609D01*
X7426663Y-20805578D01*
X6927000Y-20805578D01*
X6927000Y-20230513D01*
X10556092Y-20230513D01*
X10621617Y-20469380D01*
X10868596Y-20585280D01*
X11133440Y-20650770D01*
X11405972Y-20663332D01*
X11675718Y-20622485D01*
X11932312Y-20529797D01*
X12045343Y-20469380D01*
X12110868Y-20230513D01*
X11333480Y-19453125D01*
X10556092Y-20230513D01*
X6927000Y-20230513D01*
X6927000Y-19346012D01*
X9943668Y-19346012D01*
X9984515Y-19615758D01*
X10077203Y-19872352D01*
X10137620Y-19985383D01*
X10376487Y-20050908D01*
X11153875Y-19273520D01*
X10376487Y-18496132D01*
X10137620Y-18561657D01*
X10021720Y-18808636D01*
X9956230Y-19073480D01*
X9943668Y-19346012D01*
X6927000Y-19346012D01*
X6927000Y-18316527D01*
X10556092Y-18316527D01*
X11333480Y-19093915D01*
X11347623Y-19079773D01*
X11527228Y-19259378D01*
X11513085Y-19273520D01*
X12290473Y-20050908D01*
X12529340Y-19985383D01*
X12645240Y-19738404D01*
X12710730Y-19473560D01*
X12723292Y-19201028D01*
X12682445Y-18931282D01*
X12589757Y-18674688D01*
X12529340Y-18561657D01*
X12290475Y-18496133D01*
X12385106Y-18401502D01*
X12544146Y-18449747D01*
X12725870Y-18467645D01*
X12771407Y-18463160D01*
X14073364Y-18463160D01*
X14175851Y-18505611D01*
X14383925Y-18547000D01*
X14596075Y-18547000D01*
X14804149Y-18505611D01*
X14906636Y-18463160D01*
X15348785Y-18463160D01*
X15372181Y-18486556D01*
X15372180Y-19265884D01*
X15344755Y-19306929D01*
X15263569Y-19502931D01*
X15222180Y-19711005D01*
X15222180Y-19923155D01*
X15263569Y-20131229D01*
X15275541Y-20160132D01*
X15275540Y-24215822D01*
X15219990Y-24245514D01*
X15170197Y-24286377D01*
X15129334Y-24336170D01*
X15098970Y-24392977D01*
X15080272Y-24454617D01*
X15073958Y-24518720D01*
X15073958Y-26118720D01*
X15080272Y-26182823D01*
X15098970Y-26244463D01*
X15129334Y-26301270D01*
X15170197Y-26351063D01*
X15219990Y-26391926D01*
X15275540Y-26421618D01*
X15275541Y-32870303D01*
X15240310Y-32889134D01*
X15190517Y-32929997D01*
X15149654Y-32979790D01*
X15119290Y-33036597D01*
X15100592Y-33098237D01*
X15094278Y-33162340D01*
X15094278Y-34762340D01*
X15100592Y-34826443D01*
X15119290Y-34888083D01*
X15149654Y-34944890D01*
X15190517Y-34994683D01*
X15240310Y-35035546D01*
X15295860Y-35065238D01*
X15295861Y-40170200D01*
X15240847Y-40170200D01*
X15195320Y-40165716D01*
X15149793Y-40170200D01*
X15149782Y-40170200D01*
X15013596Y-40183613D01*
X14975795Y-40195080D01*
X14278647Y-40195080D01*
X14233120Y-40190596D01*
X14187593Y-40195080D01*
X14187582Y-40195080D01*
X14051396Y-40208493D01*
X13876656Y-40261500D01*
X13715615Y-40347578D01*
X13660609Y-40392721D01*
X13574461Y-40463421D01*
X13545432Y-40498793D01*
X13252733Y-40791492D01*
X13217361Y-40820521D01*
X13188333Y-40855892D01*
X13188332Y-40855893D01*
X13101519Y-40961675D01*
X13015780Y-41122080D01*
X13015440Y-41122717D01*
X12962433Y-41297457D01*
X12949020Y-41433643D01*
X12949020Y-41433653D01*
X12944536Y-41479180D01*
X12949020Y-41524708D01*
X12949021Y-42832592D01*
X12922450Y-42846794D01*
X12872657Y-42887657D01*
X12831794Y-42937450D01*
X12801430Y-42994257D01*
X12782732Y-43055897D01*
X12776418Y-43120000D01*
X12776418Y-44340000D01*
X12782732Y-44404103D01*
X12801430Y-44465743D01*
X12831794Y-44522550D01*
X12872657Y-44572343D01*
X12922450Y-44613206D01*
X12979257Y-44643570D01*
X13040897Y-44662268D01*
X13105000Y-44668582D01*
X13755000Y-44668582D01*
X13819103Y-44662268D01*
X13880743Y-44643570D01*
X13937550Y-44613206D01*
X13987343Y-44572343D01*
X14018540Y-44534328D01*
X14057744Y-44530467D01*
X14232484Y-44477460D01*
X14393525Y-44391381D01*
X14534679Y-44275539D01*
X14650521Y-44134385D01*
X14736600Y-43973344D01*
X14789607Y-43798604D01*
X14803020Y-43662418D01*
X14803020Y-42049080D01*
X15124913Y-42049080D01*
X15170440Y-42053564D01*
X15215967Y-42049080D01*
X15215978Y-42049080D01*
X15352164Y-42035667D01*
X15389965Y-42024200D01*
X15849793Y-42024200D01*
X15895320Y-42028684D01*
X15940847Y-42024200D01*
X17729293Y-42024200D01*
X17774820Y-42028684D01*
X17820347Y-42024200D01*
X17820358Y-42024200D01*
X17956544Y-42010787D01*
X18131284Y-41957780D01*
X18292325Y-41871701D01*
X18433479Y-41755859D01*
X18462508Y-41720487D01*
X18508328Y-41674667D01*
X18595141Y-41568885D01*
X18681219Y-41407844D01*
X18734226Y-41233103D01*
X18752124Y-41051381D01*
X18734226Y-40869657D01*
X18681219Y-40694917D01*
X18595141Y-40533875D01*
X18479299Y-40392721D01*
X18338145Y-40276879D01*
X18177103Y-40190801D01*
X18002363Y-40137794D01*
X17820639Y-40119896D01*
X17638917Y-40137794D01*
X17532089Y-40170200D01*
X17149860Y-40170200D01*
X17149860Y-35065238D01*
X17205410Y-35035546D01*
X17255203Y-34994683D01*
X17296066Y-34944890D01*
X17326430Y-34888083D01*
X17345128Y-34826443D01*
X17351442Y-34762340D01*
X17351442Y-33162340D01*
X17345128Y-33098237D01*
X17326430Y-33036597D01*
X17296066Y-32979790D01*
X17255203Y-32929997D01*
X17205410Y-32889134D01*
X17148603Y-32858770D01*
X17129540Y-32852987D01*
X17129540Y-26421618D01*
X17185090Y-26391926D01*
X17234883Y-26351063D01*
X17275746Y-26301270D01*
X17306110Y-26244463D01*
X17324808Y-26182823D01*
X17331122Y-26118720D01*
X17331122Y-24518720D01*
X17324808Y-24454617D01*
X17306110Y-24392977D01*
X17275746Y-24336170D01*
X17234883Y-24286377D01*
X17185090Y-24245514D01*
X17129540Y-24215822D01*
X17129540Y-20509827D01*
X17135740Y-20503627D01*
X17253605Y-20327231D01*
X17334791Y-20131229D01*
X17376180Y-19923155D01*
X17376180Y-19711005D01*
X17334791Y-19502931D01*
X17253605Y-19306929D01*
X17226180Y-19265885D01*
X17226180Y-18148107D01*
X17230664Y-18102580D01*
X17226180Y-18057053D01*
X17226180Y-18057042D01*
X17212767Y-17920856D01*
X17159760Y-17746116D01*
X17113010Y-17658654D01*
X17073681Y-17585074D01*
X16986868Y-17479293D01*
X16957839Y-17443921D01*
X16922467Y-17414892D01*
X16420448Y-16912873D01*
X16391419Y-16877501D01*
X16250265Y-16761659D01*
X16089224Y-16675580D01*
X15914484Y-16622573D01*
X15778298Y-16609160D01*
X15778287Y-16609160D01*
X15732760Y-16604676D01*
X15687233Y-16609160D01*
X15140210Y-16609160D01*
X15000151Y-16515575D01*
X14804149Y-16434389D01*
X14596075Y-16393000D01*
X14383925Y-16393000D01*
X14175851Y-16434389D01*
X13979849Y-16515575D01*
X13839790Y-16609160D01*
X13100556Y-16609160D01*
X13082334Y-16599420D01*
X12907594Y-16546413D01*
X12725870Y-16528515D01*
X12544147Y-16546413D01*
X12369407Y-16599420D01*
X12208366Y-16685499D01*
X12067211Y-16801341D01*
X11951369Y-16942495D01*
X11865290Y-17103536D01*
X11812283Y-17278276D01*
X11798870Y-17414462D01*
X11798870Y-17490622D01*
X11794385Y-17536160D01*
X11812283Y-17717884D01*
X11865290Y-17892624D01*
X11937025Y-18026830D01*
X11798364Y-17961760D01*
X11533520Y-17896270D01*
X11260988Y-17883708D01*
X10991242Y-17924555D01*
X10734648Y-18017243D01*
X10621617Y-18077660D01*
X10556092Y-18316527D01*
X6927000Y-18316527D01*
X6927000Y-13800000D01*
X6924560Y-13775224D01*
X6917333Y-13751399D01*
X6905597Y-13729443D01*
X6889803Y-13710197D01*
X6870557Y-13694403D01*
X6848601Y-13682667D01*
X6824776Y-13675440D01*
X6800000Y-13673000D01*
X5220920Y-13673000D01*
X5220920Y-13114162D01*
X5223469Y-13088281D01*
X5213294Y-12984972D01*
X5183159Y-12885632D01*
X5176619Y-12873396D01*
X9067999Y-12873396D01*
X9067999Y-13016602D01*
X9095937Y-13157057D01*
X9150740Y-13289363D01*
X9230301Y-13408435D01*
X9331563Y-13509697D01*
X9450635Y-13589258D01*
X9582941Y-13644061D01*
X9723396Y-13671999D01*
X9866602Y-13671999D01*
X10007057Y-13644061D01*
X10139363Y-13589258D01*
X10258435Y-13509697D01*
X10296133Y-13471999D01*
X16193865Y-13471999D01*
X16246564Y-13524698D01*
X16365636Y-13604259D01*
X16497942Y-13659062D01*
X16638397Y-13687000D01*
X16781603Y-13687000D01*
X16922058Y-13659062D01*
X17054364Y-13604259D01*
X17173436Y-13524698D01*
X17274698Y-13423436D01*
X17354259Y-13304364D01*
X17409062Y-13172058D01*
X17437000Y-13031603D01*
X17437000Y-12888397D01*
X17409062Y-12747942D01*
X17354259Y-12615636D01*
X17274698Y-12496564D01*
X17173436Y-12395302D01*
X17054364Y-12315741D01*
X16922058Y-12260938D01*
X16781603Y-12233000D01*
X16638397Y-12233000D01*
X16497942Y-12260938D01*
X16365636Y-12315741D01*
X16246564Y-12395302D01*
X16223867Y-12417999D01*
X10296133Y-12417999D01*
X10258435Y-12380301D01*
X10139363Y-12300740D01*
X10007057Y-12245937D01*
X9866602Y-12217999D01*
X9723396Y-12217999D01*
X9582941Y-12245937D01*
X9450635Y-12300740D01*
X9331563Y-12380301D01*
X9230301Y-12481563D01*
X9150740Y-12600635D01*
X9095937Y-12732941D01*
X9067999Y-12873396D01*
X5176619Y-12873396D01*
X5134224Y-12794080D01*
X5068368Y-12713834D01*
X5048254Y-12697327D01*
X4785394Y-12434467D01*
X4768887Y-12414353D01*
X4688641Y-12348497D01*
X4597089Y-12299562D01*
X4497749Y-12269427D01*
X4420320Y-12261801D01*
X4394439Y-12259252D01*
X4368558Y-12261801D01*
X1193090Y-12261801D01*
X26206Y-11094918D01*
X124364Y-11054259D01*
X243436Y-10974698D01*
X344698Y-10873436D01*
X424259Y-10754364D01*
X479062Y-10622058D01*
X507000Y-10481603D01*
X507000Y-10338397D01*
X9993000Y-10338397D01*
X9993000Y-10481603D01*
X10020938Y-10622058D01*
X10075741Y-10754364D01*
X10155302Y-10873436D01*
X10256564Y-10974698D01*
X10375636Y-11054259D01*
X10507942Y-11109062D01*
X10648397Y-11137000D01*
X10791603Y-11137000D01*
X10932058Y-11109062D01*
X11064364Y-11054259D01*
X11183436Y-10974698D01*
X11221134Y-10937000D01*
X17588866Y-10937000D01*
X17596564Y-10944698D01*
X17715636Y-11024259D01*
X17847942Y-11079062D01*
X17988397Y-11107000D01*
X18131603Y-11107000D01*
X18272058Y-11079062D01*
X18404364Y-11024259D01*
X18523436Y-10944698D01*
X18624698Y-10843436D01*
X18704259Y-10724364D01*
X18759062Y-10592058D01*
X18787000Y-10451603D01*
X18787000Y-10308397D01*
X18759062Y-10167942D01*
X18704259Y-10035636D01*
X18624698Y-9916564D01*
X18523436Y-9815302D01*
X18404364Y-9735741D01*
X18272058Y-9680938D01*
X18131603Y-9653000D01*
X17988397Y-9653000D01*
X17847942Y-9680938D01*
X17715636Y-9735741D01*
X17596564Y-9815302D01*
X17528866Y-9883000D01*
X11221134Y-9883000D01*
X11183436Y-9845302D01*
X11064364Y-9765741D01*
X10932058Y-9710938D01*
X10791603Y-9683000D01*
X10648397Y-9683000D01*
X10507942Y-9710938D01*
X10375636Y-9765741D01*
X10256564Y-9845302D01*
X10155302Y-9946564D01*
X10075741Y-10065636D01*
X10020938Y-10197942D01*
X9993000Y-10338397D01*
X507000Y-10338397D01*
X479062Y-10197942D01*
X424259Y-10065636D01*
X344698Y-9946564D01*
X243436Y-9845302D01*
X124364Y-9765741D01*
X-7942Y-9710938D01*
X-128287Y-9687000D01*
X4284119Y-9687000D01*
X4310000Y-9689549D01*
X4335881Y-9687000D01*
X4413310Y-9679374D01*
X4512650Y-9649239D01*
X4604202Y-9600304D01*
X4684448Y-9534448D01*
X4700955Y-9514334D01*
X6729744Y-7485546D01*
X6749848Y-7469048D01*
X6815704Y-7388802D01*
X6864639Y-7297250D01*
X6894774Y-7197910D01*
X6902400Y-7120481D01*
X6904949Y-7094600D01*
X6902400Y-7068719D01*
X6902400Y-2351085D01*
X6932919Y-2338444D01*
X7125694Y-2209636D01*
X7289636Y-2045694D01*
X7418444Y-1852919D01*
X7507169Y-1638718D01*
X7552400Y-1411324D01*
X7552400Y-1179476D01*
X7738400Y-1179476D01*
X7738400Y-1411324D01*
X7783631Y-1638718D01*
X7872356Y-1852919D01*
X8001164Y-2045694D01*
X8165106Y-2209636D01*
X8357881Y-2338444D01*
X8572082Y-2427169D01*
X8799476Y-2472400D01*
X9031324Y-2472400D01*
X9258718Y-2427169D01*
X9472919Y-2338444D01*
X9665694Y-2209636D01*
X9829636Y-2045694D01*
X9958444Y-1852919D01*
X10047169Y-1638718D01*
X10092400Y-1411324D01*
X10092400Y-1179476D01*
X10278400Y-1179476D01*
X10278400Y-1411324D01*
X10323631Y-1638718D01*
X10412356Y-1852919D01*
X10541164Y-2045694D01*
X10705106Y-2209636D01*
X10897881Y-2338444D01*
X11112082Y-2427169D01*
X11339476Y-2472400D01*
X11571324Y-2472400D01*
X11798718Y-2427169D01*
X12012919Y-2338444D01*
X12205694Y-2209636D01*
X12369636Y-2045694D01*
X12498444Y-1852919D01*
X12587169Y-1638718D01*
X12632400Y-1411324D01*
X12632400Y-1179476D01*
X12587169Y-952082D01*
X12498444Y-737881D01*
X12369636Y-545106D01*
X12205694Y-381164D01*
X12012919Y-252356D01*
X11798718Y-163631D01*
X11571324Y-118400D01*
X11339476Y-118400D01*
X11112082Y-163631D01*
X10897881Y-252356D01*
X10705106Y-381164D01*
X10541164Y-545106D01*
X10412356Y-737881D01*
X10323631Y-952082D01*
X10278400Y-1179476D01*
X10092400Y-1179476D01*
X10047169Y-952082D01*
X9958444Y-737881D01*
X9829636Y-545106D01*
X9665694Y-381164D01*
X9472919Y-252356D01*
X9258718Y-163631D01*
X9031324Y-118400D01*
X8799476Y-118400D01*
X8572082Y-163631D01*
X8357881Y-252356D01*
X8165106Y-381164D01*
X8001164Y-545106D01*
X7872356Y-737881D01*
X7783631Y-952082D01*
X7738400Y-1179476D01*
X7552400Y-1179476D01*
X7507169Y-952082D01*
X7418444Y-737881D01*
X7289636Y-545106D01*
X7125694Y-381164D01*
X6932919Y-252356D01*
X6718718Y-163631D01*
X6491324Y-118400D01*
X6259476Y-118400D01*
X6032082Y-163631D01*
X5817881Y-252356D01*
X5625106Y-381164D01*
X5461164Y-545106D01*
X5332356Y-737881D01*
X5243631Y-952082D01*
X5198400Y-1179476D01*
X5198400Y-1411324D01*
X5243631Y-1638718D01*
X5332356Y-1852919D01*
X5461164Y-2045694D01*
X5625106Y-2209636D01*
X5817881Y-2338444D01*
X5848400Y-2351085D01*
X5848401Y-6876308D01*
X4091711Y-8633000D01*
X-7593471Y-8633000D01*
X-7545778Y-8517858D01*
X-7517840Y-8377403D01*
X-7517840Y-8234197D01*
X-7545778Y-8093742D01*
X-7600581Y-7961436D01*
X-7680142Y-7842364D01*
X-7781404Y-7741102D01*
X-7799120Y-7729265D01*
X-7799120Y-7196647D01*
X-7639573Y-7090040D01*
X-7489560Y-6940027D01*
X-7371695Y-6763631D01*
X-7290509Y-6567629D01*
X-7249120Y-6359555D01*
X-7249120Y-6147405D01*
X-7274701Y-6018803D01*
X-7231559Y-6061945D01*
X-7217399Y-6079199D01*
X-7148573Y-6135683D01*
X-7077032Y-6173922D01*
X-7070050Y-6177654D01*
X-7028837Y-6190156D01*
X-6986141Y-6242181D01*
X-6913997Y-6301388D01*
X-6886447Y-6316114D01*
X-6871214Y-6366329D01*
X-6829243Y-6444852D01*
X-6772759Y-6513679D01*
X-6755500Y-6527843D01*
X-6571397Y-6711947D01*
X-6574080Y-6725437D01*
X-6574080Y-6868643D01*
X-6546142Y-7009098D01*
X-6491339Y-7141404D01*
X-6411778Y-7260476D01*
X-6310516Y-7361738D01*
X-6191444Y-7441299D01*
X-6059138Y-7496102D01*
X-5918683Y-7524040D01*
X-5775477Y-7524040D01*
X-5635022Y-7496102D01*
X-5502716Y-7441299D01*
X-5383644Y-7361738D01*
X-5282382Y-7260476D01*
X-5202821Y-7141404D01*
X-5148018Y-7009098D01*
X-5120080Y-6868643D01*
X-5120080Y-6725437D01*
X-5122763Y-6711947D01*
X-5025014Y-6614198D01*
X-5007761Y-6600039D01*
X-4951277Y-6531213D01*
X-4909306Y-6452690D01*
X-4894780Y-6404804D01*
X-4883460Y-6367488D01*
X-4877635Y-6308344D01*
X-4841123Y-6288828D01*
X-4768979Y-6229621D01*
X-4709772Y-6157477D01*
X-4707032Y-6152350D01*
X-4698186Y-6242164D01*
X-4645179Y-6416904D01*
X-4559100Y-6577945D01*
X-4443258Y-6719099D01*
X-4302104Y-6834941D01*
X-4141063Y-6921020D01*
X-3966323Y-6974027D01*
X-3784600Y-6991925D01*
X-3602876Y-6974027D01*
X-3428136Y-6921020D01*
X-3267095Y-6834941D01*
X-3125941Y-6719099D01*
X-3010099Y-6577945D01*
X-2924020Y-6416904D01*
X-2871013Y-6242164D01*
X-2857600Y-6105978D01*
X-2857600Y-2026591D01*
X-2741556Y-1852919D01*
X-2673336Y-1688221D01*
X-2588757Y-1926652D01*
X-2439778Y-2176755D01*
X-2244869Y-2392988D01*
X-2011520Y-2567041D01*
X-1748699Y-2692225D01*
X-1601490Y-2736876D01*
X-1371600Y-2615555D01*
X-1371600Y-1422400D01*
X-1391600Y-1422400D01*
X-1391600Y-1168400D01*
X-1371600Y-1168400D01*
X-1371600Y-1148400D01*
X-1117600Y-1148400D01*
X-1117600Y-1168400D01*
X-1097600Y-1168400D01*
X-1097600Y-1422400D01*
X-1117600Y-1422400D01*
X-1117600Y-2615555D01*
X-887710Y-2736876D01*
X-740501Y-2692225D01*
X-477680Y-2567041D01*
X-244331Y-2392988D01*
X-49422Y-2176755D01*
X99557Y-1926652D01*
X184136Y-1688221D01*
X252356Y-1852919D01*
X381164Y-2045694D01*
X545106Y-2209636D01*
X737881Y-2338444D01*
X952082Y-2427169D01*
X1179476Y-2472400D01*
X1411324Y-2472400D01*
X1638718Y-2427169D01*
X1852919Y-2338444D01*
X2045694Y-2209636D01*
X2209636Y-2045694D01*
X2338444Y-1852919D01*
X2427169Y-1638718D01*
X2472400Y-1411324D01*
X2472400Y-1179476D01*
X2658400Y-1179476D01*
X2658400Y-1411324D01*
X2703631Y-1638718D01*
X2792356Y-1852919D01*
X2921164Y-2045694D01*
X3085106Y-2209636D01*
X3277881Y-2338444D01*
X3492082Y-2427169D01*
X3719476Y-2472400D01*
X3951324Y-2472400D01*
X4178718Y-2427169D01*
X4392919Y-2338444D01*
X4585694Y-2209636D01*
X4749636Y-2045694D01*
X4878444Y-1852919D01*
X4967169Y-1638718D01*
X5012400Y-1411324D01*
X5012400Y-1179476D01*
X4967169Y-952082D01*
X4878444Y-737881D01*
X4749636Y-545106D01*
X4585694Y-381164D01*
X4392919Y-252356D01*
X4178718Y-163631D01*
X3951324Y-118400D01*
X3719476Y-118400D01*
X3492082Y-163631D01*
X3277881Y-252356D01*
X3085106Y-381164D01*
X2921164Y-545106D01*
X2792356Y-737881D01*
X2703631Y-952082D01*
X2658400Y-1179476D01*
X2472400Y-1179476D01*
X2427169Y-952082D01*
X2338444Y-737881D01*
X2209636Y-545106D01*
X2045694Y-381164D01*
X1852919Y-252356D01*
X1638718Y-163631D01*
X1411324Y-118400D01*
X1179476Y-118400D01*
X952082Y-163631D01*
X737881Y-252356D01*
X545106Y-381164D01*
X381164Y-545106D01*
X252356Y-737881D01*
X184136Y-902579D01*
X99557Y-664148D01*
X-49422Y-414045D01*
X-244331Y-197812D01*
X-477680Y-23759D01*
X-740501Y101425D01*
X-849212Y134399D01*
X-687081Y201556D01*
X-494306Y330364D01*
X-330364Y494306D01*
X-201556Y687081D01*
X-112831Y901282D01*
X-67600Y1128676D01*
X-67600Y1360524D01*
X118400Y1360524D01*
X118400Y1128676D01*
X163631Y901282D01*
X252356Y687081D01*
X381164Y494306D01*
X545106Y330364D01*
X737881Y201556D01*
X952082Y112831D01*
X1179476Y67600D01*
X1411324Y67600D01*
X1638718Y112831D01*
X1852919Y201556D01*
X2045694Y330364D01*
X2209636Y494306D01*
X2338444Y687081D01*
X2427169Y901282D01*
X2472400Y1128676D01*
X2472400Y1360524D01*
X2658400Y1360524D01*
X2658400Y1128676D01*
X2703631Y901282D01*
X2792356Y687081D01*
X2921164Y494306D01*
X3085106Y330364D01*
X3277881Y201556D01*
X3492082Y112831D01*
X3719476Y67600D01*
X3951324Y67600D01*
X4178718Y112831D01*
X4392919Y201556D01*
X4585694Y330364D01*
X4749636Y494306D01*
X4878444Y687081D01*
X4967169Y901282D01*
X5012400Y1128676D01*
X5012400Y1360524D01*
X4967169Y1587918D01*
X4878444Y1802119D01*
X4749636Y1994894D01*
X4585694Y2158836D01*
X4392919Y2287644D01*
X4178718Y2376369D01*
X3951324Y2421600D01*
X3719476Y2421600D01*
X3492082Y2376369D01*
X3277881Y2287644D01*
X3085106Y2158836D01*
X2921164Y1994894D01*
X2792356Y1802119D01*
X2703631Y1587918D01*
X2658400Y1360524D01*
X2472400Y1360524D01*
X2427169Y1587918D01*
X2338444Y1802119D01*
X2209636Y1994894D01*
X2045694Y2158836D01*
X1852919Y2287644D01*
X1638718Y2376369D01*
X1411324Y2421600D01*
X1179476Y2421600D01*
X952082Y2376369D01*
X737881Y2287644D01*
X545106Y2158836D01*
X381164Y1994894D01*
X252356Y1802119D01*
X163631Y1587918D01*
X118400Y1360524D01*
X-67600Y1360524D01*
X-112831Y1587918D01*
X-201556Y1802119D01*
X-330364Y1994894D01*
X-494306Y2158836D01*
X-687081Y2287644D01*
X-901282Y2376369D01*
X-1128676Y2421600D01*
X-1360524Y2421600D01*
X-1587918Y2376369D01*
X-1802119Y2287644D01*
X-1994894Y2158836D01*
X-2158836Y1994894D01*
X-2287644Y1802119D01*
X-2355864Y1637421D01*
X-2440443Y1875852D01*
X-2589422Y2125955D01*
X-2784331Y2342188D01*
X-2962764Y2475280D01*
X5379871Y2475280D01*
X5667792Y2187358D01*
X5625106Y2158836D01*
X5461164Y1994894D01*
X5332356Y1802119D01*
X5243631Y1587918D01*
X5198400Y1360524D01*
X5198400Y1128676D01*
X5243631Y901282D01*
X5332356Y687081D01*
X5461164Y494306D01*
X5625106Y330364D01*
X5817881Y201556D01*
X6032082Y112831D01*
X6259476Y67600D01*
X6491324Y67600D01*
X6718718Y112831D01*
X6932919Y201556D01*
X7125694Y330364D01*
X7289636Y494306D01*
X7418444Y687081D01*
X7507169Y901282D01*
X7552400Y1128676D01*
X7552400Y1360524D01*
X7738400Y1360524D01*
X7738400Y1128676D01*
X7783631Y901282D01*
X7872356Y687081D01*
X8001164Y494306D01*
X8165106Y330364D01*
X8357881Y201556D01*
X8572082Y112831D01*
X8799476Y67600D01*
X9031324Y67600D01*
X9258718Y112831D01*
X9472919Y201556D01*
X9665694Y330364D01*
X9829636Y494306D01*
X9958444Y687081D01*
X10047169Y901282D01*
X10092400Y1128676D01*
X10092400Y1360524D01*
X10278400Y1360524D01*
X10278400Y1128676D01*
X10323631Y901282D01*
X10412356Y687081D01*
X10541164Y494306D01*
X10705106Y330364D01*
X10897881Y201556D01*
X11112082Y112831D01*
X11339476Y67600D01*
X11571324Y67600D01*
X11798718Y112831D01*
X12012919Y201556D01*
X12205694Y330364D01*
X12369636Y494306D01*
X12498444Y687081D01*
X12587169Y901282D01*
X12632400Y1128676D01*
X12632400Y1360524D01*
X12587169Y1587918D01*
X12498444Y1802119D01*
X12369636Y1994894D01*
X12205694Y2158836D01*
X12012919Y2287644D01*
X11798718Y2376369D01*
X11571324Y2421600D01*
X11339476Y2421600D01*
X11112082Y2376369D01*
X10897881Y2287644D01*
X10705106Y2158836D01*
X10541164Y1994894D01*
X10412356Y1802119D01*
X10323631Y1587918D01*
X10278400Y1360524D01*
X10092400Y1360524D01*
X10047169Y1587918D01*
X9958444Y1802119D01*
X9829636Y1994894D01*
X9665694Y2158836D01*
X9472919Y2287644D01*
X9258718Y2376369D01*
X9031324Y2421600D01*
X8799476Y2421600D01*
X8572082Y2376369D01*
X8357881Y2287644D01*
X8165106Y2158836D01*
X8001164Y1994894D01*
X7872356Y1802119D01*
X7783631Y1587918D01*
X7738400Y1360524D01*
X7552400Y1360524D01*
X7507169Y1587918D01*
X7418444Y1802119D01*
X7289636Y1994894D01*
X7125694Y2158836D01*
X6932919Y2287644D01*
X6897331Y2302385D01*
X6894774Y2328350D01*
X6864639Y2427690D01*
X6815704Y2519242D01*
X6749848Y2599488D01*
X6729739Y2615991D01*
X5989115Y3356614D01*
X5972608Y3376728D01*
X5892362Y3442584D01*
X5800810Y3491519D01*
X5701470Y3521654D01*
X5624041Y3529280D01*
X5598160Y3531829D01*
X5572279Y3529280D01*
X-13944119Y3529280D01*
X-13970000Y3531829D01*
X-13995881Y3529280D01*
X-14073310Y3521654D01*
X-14172650Y3491519D01*
X-14264202Y3442584D01*
X-14344448Y3376728D01*
X-14410304Y3296482D01*
X-14459239Y3204930D01*
X-14489374Y3105590D01*
X-14499549Y3002280D01*
X-14497000Y2976399D01*
X-14496999Y-2128862D01*
X-14499374Y-2136691D01*
X-14509549Y-2240000D01*
X-14499374Y-2343309D01*
X-14469239Y-2442649D01*
X-14420304Y-2534201D01*
X-14354447Y-2614447D01*
X-14334344Y-2630945D01*
X-13360947Y-3604344D01*
X-13344448Y-3624448D01*
X-13264202Y-3690304D01*
X-13172650Y-3739239D01*
X-13073310Y-3769374D01*
X-12970000Y-3779549D01*
X-12944119Y-3777000D01*
X-8787080Y-3777000D01*
X-8787079Y-5278679D01*
X-8836271Y-5299055D01*
X-9012667Y-5416920D01*
X-9162680Y-5566933D01*
X-9280545Y-5743329D01*
X-9361731Y-5939331D01*
X-9403120Y-6147405D01*
X-9403120Y-6359555D01*
X-9361731Y-6567629D01*
X-9280545Y-6763631D01*
X-9162680Y-6940027D01*
X-9012667Y-7090040D01*
X-8853120Y-7196647D01*
X-8853119Y-7907588D01*
X-8889099Y-7961436D01*
X-8943902Y-8093742D01*
X-8971840Y-8234197D01*
X-8971840Y-8377403D01*
X-8943902Y-8517858D01*
X-8896209Y-8633000D01*
X-11528866Y-8633000D01*
X-11566564Y-8595302D01*
X-11685636Y-8515741D01*
X-11817942Y-8460938D01*
X-11958397Y-8433000D01*
X-12101603Y-8433000D01*
X-12242058Y-8460938D01*
X-12374364Y-8515741D01*
X-12493436Y-8595302D01*
X-12531134Y-8633000D01*
X-12874146Y-8633000D01*
X-12881972Y-8630626D01*
X-12959401Y-8623000D01*
X-12985282Y-8620451D01*
X-13011163Y-8623000D01*
X-14674119Y-8623000D01*
X-14700000Y-8620451D01*
X-14725881Y-8623000D01*
X-14803310Y-8630626D01*
X-14902650Y-8660761D01*
X-14994202Y-8709696D01*
X-15074448Y-8775552D01*
X-15090947Y-8795656D01*
X-15158746Y-8863455D01*
X-15184931Y-8852609D01*
X-15393005Y-8811220D01*
X-15605155Y-8811220D01*
X-15813229Y-8852609D01*
X-16009231Y-8933795D01*
X-16185627Y-9051660D01*
X-16335640Y-9201673D01*
X-16453505Y-9378069D01*
X-16534691Y-9574071D01*
X-16576080Y-9782145D01*
X-16576080Y-9994295D01*
X-16534691Y-10202369D01*
X-16523844Y-10228555D01*
X-16592554Y-10297265D01*
X-16612668Y-10313772D01*
X-16678524Y-10394018D01*
X-16719986Y-10471589D01*
X-16727459Y-10485571D01*
X-16757594Y-10584911D01*
X-16767769Y-10688220D01*
X-16765220Y-10714101D01*
X-16765219Y-13441024D01*
X-16809108Y-13494503D01*
X-16853102Y-13576811D01*
X-16880194Y-13666121D01*
X-16889342Y-13759000D01*
X-16889342Y-14054000D01*
X-16880194Y-14146879D01*
X-16853102Y-14236189D01*
X-16809108Y-14318497D01*
X-16749901Y-14390641D01*
X-16748854Y-14391500D01*
X-16749901Y-14392359D01*
X-16809108Y-14464503D01*
X-16853102Y-14546811D01*
X-16880194Y-14636121D01*
X-16889342Y-14729000D01*
X-16889342Y-15024000D01*
X-16880194Y-15116879D01*
X-16853102Y-15206189D01*
X-16809108Y-15288497D01*
X-16767760Y-15338880D01*
X-16767760Y-15481418D01*
X-16770000Y-15481418D01*
X-16834103Y-15487732D01*
X-16895743Y-15506430D01*
X-16952550Y-15536794D01*
X-16960112Y-15543000D01*
X-19598000Y-15543000D01*
X-19598000Y-7088397D01*
X-12887000Y-7088397D01*
X-12887000Y-7231603D01*
X-12859062Y-7372058D01*
X-12804259Y-7504364D01*
X-12724698Y-7623436D01*
X-12623436Y-7724698D01*
X-12504364Y-7804259D01*
X-12372058Y-7859062D01*
X-12231603Y-7887000D01*
X-12088397Y-7887000D01*
X-11947942Y-7859062D01*
X-11815636Y-7804259D01*
X-11696564Y-7724698D01*
X-11595302Y-7623436D01*
X-11515741Y-7504364D01*
X-11460938Y-7372058D01*
X-11433000Y-7231603D01*
X-11433000Y-7088397D01*
X-11460938Y-6947942D01*
X-11515741Y-6815636D01*
X-11595302Y-6696564D01*
X-11696564Y-6595302D01*
X-11815636Y-6515741D01*
X-11947942Y-6460938D01*
X-12088397Y-6433000D01*
X-12231603Y-6433000D01*
X-12372058Y-6460938D01*
X-12504364Y-6515741D01*
X-12623436Y-6595302D01*
X-12724698Y-6696564D01*
X-12804259Y-6815636D01*
X-12859062Y-6947942D01*
X-12887000Y-7088397D01*
X-19598000Y-7088397D01*
X-19598000Y-5088397D01*
X-12887000Y-5088397D01*
X-12887000Y-5231603D01*
X-12859062Y-5372058D01*
X-12804259Y-5504364D01*
X-12724698Y-5623436D01*
X-12623436Y-5724698D01*
X-12504364Y-5804259D01*
X-12372058Y-5859062D01*
X-12231603Y-5887000D01*
X-12088397Y-5887000D01*
X-11947942Y-5859062D01*
X-11815636Y-5804259D01*
X-11696564Y-5724698D01*
X-11595302Y-5623436D01*
X-11515741Y-5504364D01*
X-11460938Y-5372058D01*
X-11433000Y-5231603D01*
X-11433000Y-5088397D01*
X-11460938Y-4947942D01*
X-11515741Y-4815636D01*
X-11595302Y-4696564D01*
X-11696564Y-4595302D01*
X-11815636Y-4515741D01*
X-11947942Y-4460938D01*
X-12088397Y-4433000D01*
X-12231603Y-4433000D01*
X-12372058Y-4460938D01*
X-12504364Y-4515741D01*
X-12623436Y-4595302D01*
X-12724698Y-4696564D01*
X-12804259Y-4815636D01*
X-12859062Y-4947942D01*
X-12887000Y-5088397D01*
X-19598000Y-5088397D01*
X-19598000Y1980342D01*
X-19563618Y2331000D01*
X-18217000Y2331000D01*
X-18217000Y2109000D01*
X-18173690Y1891266D01*
X-18088734Y1686165D01*
X-17965398Y1501579D01*
X-17808421Y1344602D01*
X-17623835Y1221266D01*
X-17418734Y1136310D01*
X-17201000Y1093000D01*
X-16979000Y1093000D01*
X-16761266Y1136310D01*
X-16556165Y1221266D01*
X-16371579Y1344602D01*
X-16214602Y1501579D01*
X-16091266Y1686165D01*
X-16006310Y1891266D01*
X-15963000Y2109000D01*
X-15963000Y2331000D01*
X-16006310Y2548734D01*
X-16091266Y2753835D01*
X-16214602Y2938421D01*
X-16371579Y3095398D01*
X-16556165Y3218734D01*
X-16761266Y3303690D01*
X-16979000Y3347000D01*
X-17201000Y3347000D01*
X-17418734Y3303690D01*
X-17623835Y3218734D01*
X-17808421Y3095398D01*
X-17965398Y2938421D01*
X-18088734Y2753835D01*
X-18173690Y2548734D01*
X-18217000Y2331000D01*
X-19563618Y2331000D01*
X-19546631Y2504242D01*
X-19400188Y2989286D01*
X-19162326Y3436642D01*
X-18842096Y3829282D01*
X-18451706Y4152241D01*
X-18006020Y4393222D01*
X-17522013Y4543048D01*
X-16999180Y4598000D01*
X16980342Y4598000D01*
X17504242Y4546631D01*
G37*
G04 #@! TD.AperFunction*
D26*
X-5088731Y-30934236D02*
X-5092268Y-30945897D01*
X-5098582Y-31010000D01*
X-5098582Y-33610000D01*
X-5092268Y-33674103D01*
X-5073570Y-33735743D01*
X-5043206Y-33792550D01*
X-5002343Y-33842343D01*
X-4952550Y-33883206D01*
X-4895743Y-33913570D01*
X-4834103Y-33932268D01*
X-4770000Y-33938582D01*
X-4687679Y-33938582D01*
X-4687679Y-35112106D01*
X-4687680Y-35112116D01*
X-4687679Y-36308979D01*
X-4696071Y-36312455D01*
X-4872467Y-36430320D01*
X-5022480Y-36580333D01*
X-5140345Y-36756729D01*
X-5221531Y-36952731D01*
X-5262920Y-37160805D01*
X-5262920Y-37372955D01*
X-5221531Y-37581029D01*
X-5140345Y-37777031D01*
X-5076220Y-37873000D01*
X-8216990Y-37873000D01*
X-8198838Y-37829178D01*
X-8170900Y-37688723D01*
X-8170900Y-37545517D01*
X-8198838Y-37405062D01*
X-8253641Y-37272756D01*
X-8333202Y-37153684D01*
X-8434464Y-37052422D01*
X-8553536Y-36972861D01*
X-8685842Y-36918058D01*
X-8826297Y-36890120D01*
X-8969503Y-36890120D01*
X-9109958Y-36918058D01*
X-9242264Y-36972861D01*
X-9361336Y-37052422D01*
X-9399034Y-37090120D01*
X-9675515Y-37090120D01*
X-9650072Y-37059117D01*
X-9606078Y-36976809D01*
X-9578986Y-36887499D01*
X-9569838Y-36794620D01*
X-9569838Y-36499620D01*
X-9578986Y-36406741D01*
X-9606078Y-36317431D01*
X-9650072Y-36235123D01*
X-9709279Y-36162979D01*
X-9781423Y-36103772D01*
X-9799440Y-36094142D01*
X-9799440Y-36078772D01*
X-9741289Y-36054685D01*
X-9564893Y-35936820D01*
X-9414880Y-35786807D01*
X-9297015Y-35610411D01*
X-9239180Y-35470783D01*
X-9234731Y-35493149D01*
X-9153545Y-35689151D01*
X-9035680Y-35865547D01*
X-8885667Y-36015560D01*
X-8709271Y-36133425D01*
X-8513269Y-36214611D01*
X-8305195Y-36256000D01*
X-8093045Y-36256000D01*
X-7884971Y-36214611D01*
X-7688969Y-36133425D01*
X-7512573Y-36015560D01*
X-7362560Y-35865547D01*
X-7300000Y-35771920D01*
X-7300000Y-35833715D01*
X-7258611Y-36041789D01*
X-7177425Y-36237791D01*
X-7059560Y-36414187D01*
X-6909547Y-36564200D01*
X-6733151Y-36682065D01*
X-6537149Y-36763251D01*
X-6329075Y-36804640D01*
X-6116925Y-36804640D01*
X-5908851Y-36763251D01*
X-5712849Y-36682065D01*
X-5536453Y-36564200D01*
X-5386440Y-36414187D01*
X-5268575Y-36237791D01*
X-5187389Y-36041789D01*
X-5146000Y-35833715D01*
X-5146000Y-35621565D01*
X-5187389Y-35413491D01*
X-5268575Y-35217489D01*
X-5386440Y-35041093D01*
X-5536453Y-34891080D01*
X-5712849Y-34773215D01*
X-5783680Y-34743876D01*
X-5783680Y-33938582D01*
X-5670000Y-33938582D01*
X-5605897Y-33932268D01*
X-5544257Y-33913570D01*
X-5487450Y-33883206D01*
X-5437657Y-33842343D01*
X-5396794Y-33792550D01*
X-5366430Y-33735743D01*
X-5347732Y-33674103D01*
X-5341418Y-33610000D01*
X-5341418Y-31010000D01*
X-5347732Y-30945897D01*
X-5351318Y-30934074D01*
X-5088731Y-30934236D01*
G04 #@! TA.AperFunction,Conductor*
D27*
G36*
X-5088731Y-30934236D02*
G01*
X-5092268Y-30945897D01*
X-5098582Y-31010000D01*
X-5098582Y-33610000D01*
X-5092268Y-33674103D01*
X-5073570Y-33735743D01*
X-5043206Y-33792550D01*
X-5002343Y-33842343D01*
X-4952550Y-33883206D01*
X-4895743Y-33913570D01*
X-4834103Y-33932268D01*
X-4770000Y-33938582D01*
X-4687679Y-33938582D01*
X-4687679Y-35112106D01*
X-4687680Y-35112116D01*
X-4687679Y-36308979D01*
X-4696071Y-36312455D01*
X-4872467Y-36430320D01*
X-5022480Y-36580333D01*
X-5140345Y-36756729D01*
X-5221531Y-36952731D01*
X-5262920Y-37160805D01*
X-5262920Y-37372955D01*
X-5221531Y-37581029D01*
X-5140345Y-37777031D01*
X-5076220Y-37873000D01*
X-8216990Y-37873000D01*
X-8198838Y-37829178D01*
X-8170900Y-37688723D01*
X-8170900Y-37545517D01*
X-8198838Y-37405062D01*
X-8253641Y-37272756D01*
X-8333202Y-37153684D01*
X-8434464Y-37052422D01*
X-8553536Y-36972861D01*
X-8685842Y-36918058D01*
X-8826297Y-36890120D01*
X-8969503Y-36890120D01*
X-9109958Y-36918058D01*
X-9242264Y-36972861D01*
X-9361336Y-37052422D01*
X-9399034Y-37090120D01*
X-9675515Y-37090120D01*
X-9650072Y-37059117D01*
X-9606078Y-36976809D01*
X-9578986Y-36887499D01*
X-9569838Y-36794620D01*
X-9569838Y-36499620D01*
X-9578986Y-36406741D01*
X-9606078Y-36317431D01*
X-9650072Y-36235123D01*
X-9709279Y-36162979D01*
X-9781423Y-36103772D01*
X-9799440Y-36094142D01*
X-9799440Y-36078772D01*
X-9741289Y-36054685D01*
X-9564893Y-35936820D01*
X-9414880Y-35786807D01*
X-9297015Y-35610411D01*
X-9239180Y-35470783D01*
X-9234731Y-35493149D01*
X-9153545Y-35689151D01*
X-9035680Y-35865547D01*
X-8885667Y-36015560D01*
X-8709271Y-36133425D01*
X-8513269Y-36214611D01*
X-8305195Y-36256000D01*
X-8093045Y-36256000D01*
X-7884971Y-36214611D01*
X-7688969Y-36133425D01*
X-7512573Y-36015560D01*
X-7362560Y-35865547D01*
X-7300000Y-35771920D01*
X-7300000Y-35833715D01*
X-7258611Y-36041789D01*
X-7177425Y-36237791D01*
X-7059560Y-36414187D01*
X-6909547Y-36564200D01*
X-6733151Y-36682065D01*
X-6537149Y-36763251D01*
X-6329075Y-36804640D01*
X-6116925Y-36804640D01*
X-5908851Y-36763251D01*
X-5712849Y-36682065D01*
X-5536453Y-36564200D01*
X-5386440Y-36414187D01*
X-5268575Y-36237791D01*
X-5187389Y-36041789D01*
X-5146000Y-35833715D01*
X-5146000Y-35621565D01*
X-5187389Y-35413491D01*
X-5268575Y-35217489D01*
X-5386440Y-35041093D01*
X-5536453Y-34891080D01*
X-5712849Y-34773215D01*
X-5783680Y-34743876D01*
X-5783680Y-33938582D01*
X-5670000Y-33938582D01*
X-5605897Y-33932268D01*
X-5544257Y-33913570D01*
X-5487450Y-33883206D01*
X-5437657Y-33842343D01*
X-5396794Y-33792550D01*
X-5366430Y-33735743D01*
X-5347732Y-33674103D01*
X-5341418Y-33610000D01*
X-5341418Y-31010000D01*
X-5347732Y-30945897D01*
X-5351318Y-30934074D01*
X-5088731Y-30934236D01*
G37*
G04 #@! TD.AperFunction*
D26*
X-15086863Y-30928080D02*
X-15092268Y-30945897D01*
X-15098582Y-31010000D01*
X-15098582Y-33610000D01*
X-15092268Y-33674103D01*
X-15073570Y-33735743D01*
X-15043206Y-33792550D01*
X-15002343Y-33842343D01*
X-14952550Y-33883206D01*
X-14895743Y-33913570D01*
X-14834103Y-33932268D01*
X-14770000Y-33938582D01*
X-14715296Y-33938582D01*
X-14800378Y-34023664D01*
X-14879939Y-34142736D01*
X-14934742Y-34275042D01*
X-14962680Y-34415497D01*
X-14962680Y-34558703D01*
X-14934742Y-34699158D01*
X-14879939Y-34831464D01*
X-14800378Y-34950536D01*
X-14699116Y-35051798D01*
X-14580044Y-35131359D01*
X-14447738Y-35186162D01*
X-14307283Y-35214100D01*
X-14164077Y-35214100D01*
X-14040631Y-35189545D01*
X-14075192Y-35303478D01*
X-14087452Y-35427960D01*
X-14084380Y-35462210D01*
X-13925630Y-35620960D01*
X-13281380Y-35620960D01*
X-13281380Y-34951710D01*
X-13440130Y-34792960D01*
X-13449380Y-34789888D01*
X-13573862Y-34802148D01*
X-13580056Y-34804027D01*
X-13536618Y-34699158D01*
X-13508680Y-34558703D01*
X-13508680Y-34415497D01*
X-13536618Y-34275042D01*
X-13591421Y-34142736D01*
X-13670982Y-34023664D01*
X-13756064Y-33938582D01*
X-13670000Y-33938582D01*
X-13605897Y-33932268D01*
X-13544257Y-33913570D01*
X-13487450Y-33883206D01*
X-13437657Y-33842343D01*
X-13396794Y-33792550D01*
X-13366430Y-33735743D01*
X-13347732Y-33674103D01*
X-13341418Y-33610000D01*
X-13341418Y-31010000D01*
X-13347732Y-30945897D01*
X-13352813Y-30929147D01*
X-13087237Y-30929311D01*
X-13092268Y-30945897D01*
X-13098582Y-31010000D01*
X-13098582Y-33610000D01*
X-13092268Y-33674103D01*
X-13073570Y-33735743D01*
X-13043206Y-33792550D01*
X-13002343Y-33842343D01*
X-12952550Y-33883206D01*
X-12895743Y-33913570D01*
X-12834103Y-33932268D01*
X-12770000Y-33938582D01*
X-12687679Y-33938582D01*
X-12687679Y-33997360D01*
X-12721476Y-34019942D01*
X-12822738Y-34121204D01*
X-12902299Y-34240276D01*
X-12957102Y-34372582D01*
X-12985040Y-34513037D01*
X-12985040Y-34656243D01*
X-12957102Y-34796698D01*
X-12932284Y-34856614D01*
X-13027380Y-34951710D01*
X-13027380Y-35620960D01*
X-13007380Y-35620960D01*
X-13007380Y-35874960D01*
X-13027380Y-35874960D01*
X-13027380Y-35894960D01*
X-13281380Y-35894960D01*
X-13281380Y-35874960D01*
X-13925630Y-35874960D01*
X-14084380Y-36033710D01*
X-14087452Y-36067960D01*
X-14075192Y-36192442D01*
X-14038882Y-36312140D01*
X-14006351Y-36373000D01*
X-14900000Y-36373000D01*
X-14924776Y-36375440D01*
X-14948601Y-36382667D01*
X-14962536Y-36390115D01*
X-15102765Y-36249886D01*
X-15119272Y-36229772D01*
X-15199518Y-36163916D01*
X-15291070Y-36114981D01*
X-15390410Y-36084846D01*
X-15467839Y-36077220D01*
X-15493720Y-36074671D01*
X-15519601Y-36077220D01*
X-15589300Y-36077220D01*
X-15589300Y-35963577D01*
X-15572952Y-35943657D01*
X-15528958Y-35861349D01*
X-15501866Y-35772039D01*
X-15492718Y-35679160D01*
X-15492718Y-35334160D01*
X-15501866Y-35241281D01*
X-15528958Y-35151971D01*
X-15572952Y-35069663D01*
X-15589300Y-35049743D01*
X-15589300Y-34503840D01*
X-15586751Y-34477960D01*
X-15589300Y-34452077D01*
X-15589300Y-33927233D01*
X-15544257Y-33913570D01*
X-15487450Y-33883206D01*
X-15437657Y-33842343D01*
X-15396794Y-33792550D01*
X-15366430Y-33735743D01*
X-15347732Y-33674103D01*
X-15341418Y-33610000D01*
X-15341418Y-31010000D01*
X-15347732Y-30945897D01*
X-15353187Y-30927916D01*
X-15086863Y-30928080D01*
G04 #@! TA.AperFunction,Conductor*
D27*
G36*
X-15086863Y-30928080D02*
G01*
X-15092268Y-30945897D01*
X-15098582Y-31010000D01*
X-15098582Y-33610000D01*
X-15092268Y-33674103D01*
X-15073570Y-33735743D01*
X-15043206Y-33792550D01*
X-15002343Y-33842343D01*
X-14952550Y-33883206D01*
X-14895743Y-33913570D01*
X-14834103Y-33932268D01*
X-14770000Y-33938582D01*
X-14715296Y-33938582D01*
X-14800378Y-34023664D01*
X-14879939Y-34142736D01*
X-14934742Y-34275042D01*
X-14962680Y-34415497D01*
X-14962680Y-34558703D01*
X-14934742Y-34699158D01*
X-14879939Y-34831464D01*
X-14800378Y-34950536D01*
X-14699116Y-35051798D01*
X-14580044Y-35131359D01*
X-14447738Y-35186162D01*
X-14307283Y-35214100D01*
X-14164077Y-35214100D01*
X-14040631Y-35189545D01*
X-14075192Y-35303478D01*
X-14087452Y-35427960D01*
X-14084380Y-35462210D01*
X-13925630Y-35620960D01*
X-13281380Y-35620960D01*
X-13281380Y-34951710D01*
X-13440130Y-34792960D01*
X-13449380Y-34789888D01*
X-13573862Y-34802148D01*
X-13580056Y-34804027D01*
X-13536618Y-34699158D01*
X-13508680Y-34558703D01*
X-13508680Y-34415497D01*
X-13536618Y-34275042D01*
X-13591421Y-34142736D01*
X-13670982Y-34023664D01*
X-13756064Y-33938582D01*
X-13670000Y-33938582D01*
X-13605897Y-33932268D01*
X-13544257Y-33913570D01*
X-13487450Y-33883206D01*
X-13437657Y-33842343D01*
X-13396794Y-33792550D01*
X-13366430Y-33735743D01*
X-13347732Y-33674103D01*
X-13341418Y-33610000D01*
X-13341418Y-31010000D01*
X-13347732Y-30945897D01*
X-13352813Y-30929147D01*
X-13087237Y-30929311D01*
X-13092268Y-30945897D01*
X-13098582Y-31010000D01*
X-13098582Y-33610000D01*
X-13092268Y-33674103D01*
X-13073570Y-33735743D01*
X-13043206Y-33792550D01*
X-13002343Y-33842343D01*
X-12952550Y-33883206D01*
X-12895743Y-33913570D01*
X-12834103Y-33932268D01*
X-12770000Y-33938582D01*
X-12687679Y-33938582D01*
X-12687679Y-33997360D01*
X-12721476Y-34019942D01*
X-12822738Y-34121204D01*
X-12902299Y-34240276D01*
X-12957102Y-34372582D01*
X-12985040Y-34513037D01*
X-12985040Y-34656243D01*
X-12957102Y-34796698D01*
X-12932284Y-34856614D01*
X-13027380Y-34951710D01*
X-13027380Y-35620960D01*
X-13007380Y-35620960D01*
X-13007380Y-35874960D01*
X-13027380Y-35874960D01*
X-13027380Y-35894960D01*
X-13281380Y-35894960D01*
X-13281380Y-35874960D01*
X-13925630Y-35874960D01*
X-14084380Y-36033710D01*
X-14087452Y-36067960D01*
X-14075192Y-36192442D01*
X-14038882Y-36312140D01*
X-14006351Y-36373000D01*
X-14900000Y-36373000D01*
X-14924776Y-36375440D01*
X-14948601Y-36382667D01*
X-14962536Y-36390115D01*
X-15102765Y-36249886D01*
X-15119272Y-36229772D01*
X-15199518Y-36163916D01*
X-15291070Y-36114981D01*
X-15390410Y-36084846D01*
X-15467839Y-36077220D01*
X-15493720Y-36074671D01*
X-15519601Y-36077220D01*
X-15589300Y-36077220D01*
X-15589300Y-35963577D01*
X-15572952Y-35943657D01*
X-15528958Y-35861349D01*
X-15501866Y-35772039D01*
X-15492718Y-35679160D01*
X-15492718Y-35334160D01*
X-15501866Y-35241281D01*
X-15528958Y-35151971D01*
X-15572952Y-35069663D01*
X-15589300Y-35049743D01*
X-15589300Y-34503840D01*
X-15586751Y-34477960D01*
X-15589300Y-34452077D01*
X-15589300Y-33927233D01*
X-15544257Y-33913570D01*
X-15487450Y-33883206D01*
X-15437657Y-33842343D01*
X-15396794Y-33792550D01*
X-15366430Y-33735743D01*
X-15347732Y-33674103D01*
X-15341418Y-33610000D01*
X-15341418Y-31010000D01*
X-15347732Y-30945897D01*
X-15353187Y-30927916D01*
X-15086863Y-30928080D01*
G37*
G04 #@! TD.AperFunction*
D26*
X583852Y-13143145D02*
X600351Y-13163249D01*
X680597Y-13229105D01*
X772149Y-13278040D01*
X842826Y-13299480D01*
X871489Y-13308175D01*
X974799Y-13318350D01*
X1000680Y-13315801D01*
X4166920Y-13315801D01*
X4166920Y-13673000D01*
X2100000Y-13673000D01*
X2075224Y-13675440D01*
X2051399Y-13682667D01*
X2029443Y-13694403D01*
X2010197Y-13710197D01*
X1994403Y-13729443D01*
X1982667Y-13751399D01*
X1975440Y-13775224D01*
X1973000Y-13800000D01*
X1973000Y-36173000D01*
X-411810Y-36173000D01*
X-488870Y-36095940D01*
X-1133120Y-36095940D01*
X-1133120Y-36115940D01*
X-1387120Y-36115940D01*
X-1387120Y-36095940D01*
X-1407120Y-36095940D01*
X-1407120Y-35841940D01*
X-1387120Y-35841940D01*
X-1387120Y-35024060D01*
X-1133120Y-35024060D01*
X-1133120Y-35841940D01*
X-984490Y-35841940D01*
X-974370Y-35852060D01*
X-965120Y-35855132D01*
X-840638Y-35842872D01*
X-837566Y-35841940D01*
X-488870Y-35841940D01*
X-330120Y-35683190D01*
X-327048Y-35648940D01*
X-339308Y-35524458D01*
X-367051Y-35433000D01*
X-339308Y-35341542D01*
X-327048Y-35217060D01*
X-330120Y-35182810D01*
X-488870Y-35024060D01*
X-837566Y-35024060D01*
X-840638Y-35023128D01*
X-965120Y-35010868D01*
X-974370Y-35013940D01*
X-984490Y-35024060D01*
X-1133120Y-35024060D01*
X-1387120Y-35024060D01*
X-1407120Y-35024060D01*
X-1407120Y-34770060D01*
X-1387120Y-34770060D01*
X-1387120Y-34750060D01*
X-1133120Y-34750060D01*
X-1133120Y-34770060D01*
X-488870Y-34770060D01*
X-330120Y-34611310D01*
X-327048Y-34577060D01*
X-339308Y-34452578D01*
X-375618Y-34332880D01*
X-434583Y-34222566D01*
X-513935Y-34125875D01*
X-610626Y-34046523D01*
X-673000Y-34013183D01*
X-673000Y-30936955D01*
X-600078Y-30937000D01*
X-575326Y-30934580D01*
X-551495Y-30927372D01*
X-529529Y-30915654D01*
X-510271Y-30899876D01*
X-494461Y-30880644D01*
X-482707Y-30858697D01*
X-475461Y-30834878D01*
X-473000Y-30810104D01*
X-463000Y-18600104D01*
X-465440Y-18575224D01*
X-472667Y-18551399D01*
X-484403Y-18529443D01*
X-500197Y-18510197D01*
X-519443Y-18494403D01*
X-541399Y-18482667D01*
X-565224Y-18475440D01*
X-590000Y-18473000D01*
X-1038133Y-18473000D01*
X-1031928Y-18410000D01*
X-1035000Y-17395750D01*
X-1193750Y-17237000D01*
X-2093000Y-17237000D01*
X-2093000Y-17257000D01*
X-2347000Y-17257000D01*
X-2347000Y-17237000D01*
X-4093000Y-17237000D01*
X-4093000Y-17257000D01*
X-4347000Y-17257000D01*
X-4347000Y-17237000D01*
X-4367000Y-17237000D01*
X-4367000Y-16983000D01*
X-4347000Y-16983000D01*
X-4347000Y-16963000D01*
X-4093000Y-16963000D01*
X-4093000Y-16983000D01*
X-2347000Y-16983000D01*
X-2347000Y-15333750D01*
X-2093000Y-15333750D01*
X-2093000Y-16983000D01*
X-1193750Y-16983000D01*
X-1035000Y-16824250D01*
X-1031928Y-15810000D01*
X-1044188Y-15685518D01*
X-1080498Y-15565820D01*
X-1139463Y-15455506D01*
X-1218815Y-15358815D01*
X-1315506Y-15279463D01*
X-1425820Y-15220498D01*
X-1545518Y-15184188D01*
X-1670000Y-15171928D01*
X-1934250Y-15175000D01*
X-2093000Y-15333750D01*
X-2347000Y-15333750D01*
X-2505750Y-15175000D01*
X-2770000Y-15171928D01*
X-2894482Y-15184188D01*
X-3014180Y-15220498D01*
X-3124494Y-15279463D01*
X-3220000Y-15357842D01*
X-3315506Y-15279463D01*
X-3425820Y-15220498D01*
X-3545518Y-15184188D01*
X-3666669Y-15172256D01*
X-3640428Y-15162777D01*
X-3527397Y-15102360D01*
X-3461872Y-14863493D01*
X-4239260Y-14086105D01*
X-5016648Y-14863493D01*
X-4951123Y-15102360D01*
X-4797173Y-15174604D01*
X-4894482Y-15184188D01*
X-5014180Y-15220498D01*
X-5124494Y-15279463D01*
X-5221185Y-15358815D01*
X-5300537Y-15455506D01*
X-5359502Y-15565820D01*
X-5384930Y-15649646D01*
X-5396794Y-15627450D01*
X-5437657Y-15577657D01*
X-5487450Y-15536794D01*
X-5544257Y-15506430D01*
X-5593000Y-15491644D01*
X-5593000Y-14217205D01*
X-5588225Y-14248738D01*
X-5495537Y-14505332D01*
X-5435120Y-14618363D01*
X-5196253Y-14683888D01*
X-4418865Y-13906500D01*
X-4059655Y-13906500D01*
X-3282267Y-14683888D01*
X-3043400Y-14618363D01*
X-2927500Y-14371384D01*
X-2862010Y-14106540D01*
X-2849448Y-13834008D01*
X-2890295Y-13564262D01*
X-2982983Y-13307668D01*
X-3043400Y-13194637D01*
X-3282267Y-13129112D01*
X-4059655Y-13906500D01*
X-4418865Y-13906500D01*
X-4433007Y-13892358D01*
X-4253402Y-13712753D01*
X-4239260Y-13726895D01*
X-3461872Y-12949507D01*
X-3527397Y-12710640D01*
X-3774376Y-12594740D01*
X-4039220Y-12529250D01*
X-4311752Y-12516688D01*
X-4549168Y-12552639D01*
X-4537055Y-12534511D01*
X-4455869Y-12338509D01*
X-4414480Y-12130435D01*
X-4414480Y-11918285D01*
X-4455869Y-11710211D01*
X-4537055Y-11514209D01*
X-4654920Y-11337813D01*
X-4804933Y-11187800D01*
X-4981329Y-11069935D01*
X-5177331Y-10988749D01*
X-5385405Y-10947360D01*
X-5589429Y-10947360D01*
X-5537349Y-10895280D01*
X-1664011Y-10895280D01*
X583852Y-13143145D01*
G04 #@! TA.AperFunction,Conductor*
D27*
G36*
X583852Y-13143145D02*
G01*
X600351Y-13163249D01*
X680597Y-13229105D01*
X772149Y-13278040D01*
X842826Y-13299480D01*
X871489Y-13308175D01*
X974799Y-13318350D01*
X1000680Y-13315801D01*
X4166920Y-13315801D01*
X4166920Y-13673000D01*
X2100000Y-13673000D01*
X2075224Y-13675440D01*
X2051399Y-13682667D01*
X2029443Y-13694403D01*
X2010197Y-13710197D01*
X1994403Y-13729443D01*
X1982667Y-13751399D01*
X1975440Y-13775224D01*
X1973000Y-13800000D01*
X1973000Y-36173000D01*
X-411810Y-36173000D01*
X-488870Y-36095940D01*
X-1133120Y-36095940D01*
X-1133120Y-36115940D01*
X-1387120Y-36115940D01*
X-1387120Y-36095940D01*
X-1407120Y-36095940D01*
X-1407120Y-35841940D01*
X-1387120Y-35841940D01*
X-1387120Y-35024060D01*
X-1133120Y-35024060D01*
X-1133120Y-35841940D01*
X-984490Y-35841940D01*
X-974370Y-35852060D01*
X-965120Y-35855132D01*
X-840638Y-35842872D01*
X-837566Y-35841940D01*
X-488870Y-35841940D01*
X-330120Y-35683190D01*
X-327048Y-35648940D01*
X-339308Y-35524458D01*
X-367051Y-35433000D01*
X-339308Y-35341542D01*
X-327048Y-35217060D01*
X-330120Y-35182810D01*
X-488870Y-35024060D01*
X-837566Y-35024060D01*
X-840638Y-35023128D01*
X-965120Y-35010868D01*
X-974370Y-35013940D01*
X-984490Y-35024060D01*
X-1133120Y-35024060D01*
X-1387120Y-35024060D01*
X-1407120Y-35024060D01*
X-1407120Y-34770060D01*
X-1387120Y-34770060D01*
X-1387120Y-34750060D01*
X-1133120Y-34750060D01*
X-1133120Y-34770060D01*
X-488870Y-34770060D01*
X-330120Y-34611310D01*
X-327048Y-34577060D01*
X-339308Y-34452578D01*
X-375618Y-34332880D01*
X-434583Y-34222566D01*
X-513935Y-34125875D01*
X-610626Y-34046523D01*
X-673000Y-34013183D01*
X-673000Y-30936955D01*
X-600078Y-30937000D01*
X-575326Y-30934580D01*
X-551495Y-30927372D01*
X-529529Y-30915654D01*
X-510271Y-30899876D01*
X-494461Y-30880644D01*
X-482707Y-30858697D01*
X-475461Y-30834878D01*
X-473000Y-30810104D01*
X-463000Y-18600104D01*
X-465440Y-18575224D01*
X-472667Y-18551399D01*
X-484403Y-18529443D01*
X-500197Y-18510197D01*
X-519443Y-18494403D01*
X-541399Y-18482667D01*
X-565224Y-18475440D01*
X-590000Y-18473000D01*
X-1038133Y-18473000D01*
X-1031928Y-18410000D01*
X-1035000Y-17395750D01*
X-1193750Y-17237000D01*
X-2093000Y-17237000D01*
X-2093000Y-17257000D01*
X-2347000Y-17257000D01*
X-2347000Y-17237000D01*
X-4093000Y-17237000D01*
X-4093000Y-17257000D01*
X-4347000Y-17257000D01*
X-4347000Y-17237000D01*
X-4367000Y-17237000D01*
X-4367000Y-16983000D01*
X-4347000Y-16983000D01*
X-4347000Y-16963000D01*
X-4093000Y-16963000D01*
X-4093000Y-16983000D01*
X-2347000Y-16983000D01*
X-2347000Y-15333750D01*
X-2093000Y-15333750D01*
X-2093000Y-16983000D01*
X-1193750Y-16983000D01*
X-1035000Y-16824250D01*
X-1031928Y-15810000D01*
X-1044188Y-15685518D01*
X-1080498Y-15565820D01*
X-1139463Y-15455506D01*
X-1218815Y-15358815D01*
X-1315506Y-15279463D01*
X-1425820Y-15220498D01*
X-1545518Y-15184188D01*
X-1670000Y-15171928D01*
X-1934250Y-15175000D01*
X-2093000Y-15333750D01*
X-2347000Y-15333750D01*
X-2505750Y-15175000D01*
X-2770000Y-15171928D01*
X-2894482Y-15184188D01*
X-3014180Y-15220498D01*
X-3124494Y-15279463D01*
X-3220000Y-15357842D01*
X-3315506Y-15279463D01*
X-3425820Y-15220498D01*
X-3545518Y-15184188D01*
X-3666669Y-15172256D01*
X-3640428Y-15162777D01*
X-3527397Y-15102360D01*
X-3461872Y-14863493D01*
X-4239260Y-14086105D01*
X-5016648Y-14863493D01*
X-4951123Y-15102360D01*
X-4797173Y-15174604D01*
X-4894482Y-15184188D01*
X-5014180Y-15220498D01*
X-5124494Y-15279463D01*
X-5221185Y-15358815D01*
X-5300537Y-15455506D01*
X-5359502Y-15565820D01*
X-5384930Y-15649646D01*
X-5396794Y-15627450D01*
X-5437657Y-15577657D01*
X-5487450Y-15536794D01*
X-5544257Y-15506430D01*
X-5593000Y-15491644D01*
X-5593000Y-14217205D01*
X-5588225Y-14248738D01*
X-5495537Y-14505332D01*
X-5435120Y-14618363D01*
X-5196253Y-14683888D01*
X-4418865Y-13906500D01*
X-4059655Y-13906500D01*
X-3282267Y-14683888D01*
X-3043400Y-14618363D01*
X-2927500Y-14371384D01*
X-2862010Y-14106540D01*
X-2849448Y-13834008D01*
X-2890295Y-13564262D01*
X-2982983Y-13307668D01*
X-3043400Y-13194637D01*
X-3282267Y-13129112D01*
X-4059655Y-13906500D01*
X-4418865Y-13906500D01*
X-4433007Y-13892358D01*
X-4253402Y-13712753D01*
X-4239260Y-13726895D01*
X-3461872Y-12949507D01*
X-3527397Y-12710640D01*
X-3774376Y-12594740D01*
X-4039220Y-12529250D01*
X-4311752Y-12516688D01*
X-4549168Y-12552639D01*
X-4537055Y-12534511D01*
X-4455869Y-12338509D01*
X-4414480Y-12130435D01*
X-4414480Y-11918285D01*
X-4455869Y-11710211D01*
X-4537055Y-11514209D01*
X-4654920Y-11337813D01*
X-4804933Y-11187800D01*
X-4981329Y-11069935D01*
X-5177331Y-10988749D01*
X-5385405Y-10947360D01*
X-5589429Y-10947360D01*
X-5537349Y-10895280D01*
X-1664011Y-10895280D01*
X583852Y-13143145D01*
G37*
G04 #@! TD.AperFunction*
D26*
X-8899259Y-10328716D02*
X-8954062Y-10461022D01*
X-8982000Y-10601477D01*
X-8982000Y-10744683D01*
X-8954062Y-10885138D01*
X-8899259Y-11017444D01*
X-8819698Y-11136516D01*
X-8761680Y-11194534D01*
X-8761680Y-11358399D01*
X-8764229Y-11384280D01*
X-8754054Y-11487589D01*
X-8751520Y-11495942D01*
X-8751520Y-11717001D01*
X-8753455Y-11712329D01*
X-8871320Y-11535933D01*
X-9021333Y-11385920D01*
X-9197729Y-11268055D01*
X-9393731Y-11186869D01*
X-9601805Y-11145480D01*
X-9813955Y-11145480D01*
X-10022029Y-11186869D01*
X-10218031Y-11268055D01*
X-10394427Y-11385920D01*
X-10544440Y-11535933D01*
X-10662305Y-11712329D01*
X-10743491Y-11908331D01*
X-10784880Y-12116405D01*
X-10784880Y-12328555D01*
X-10743491Y-12536629D01*
X-10724538Y-12582385D01*
X-10739374Y-12631291D01*
X-10749549Y-12734600D01*
X-10746999Y-12760491D01*
X-10747000Y-15481418D01*
X-10770000Y-15481418D01*
X-10834103Y-15487732D01*
X-10895743Y-15506430D01*
X-10952550Y-15536794D01*
X-11002343Y-15577657D01*
X-11043206Y-15627450D01*
X-11073570Y-15684257D01*
X-11092268Y-15745897D01*
X-11098582Y-15810000D01*
X-11098582Y-18410000D01*
X-11092377Y-18473000D01*
X-11347623Y-18473000D01*
X-11341418Y-18410000D01*
X-11341418Y-15810000D01*
X-11347732Y-15745897D01*
X-11366430Y-15684257D01*
X-11396794Y-15627450D01*
X-11437657Y-15577657D01*
X-11487450Y-15536794D01*
X-11544257Y-15506430D01*
X-11605897Y-15487732D01*
X-11670000Y-15481418D01*
X-11708680Y-15481418D01*
X-11708680Y-14815284D01*
X-11551173Y-14710040D01*
X-11401160Y-14560027D01*
X-11283295Y-14383631D01*
X-11202109Y-14187629D01*
X-11160720Y-13979555D01*
X-11160720Y-13767405D01*
X-11202109Y-13559331D01*
X-11283295Y-13363329D01*
X-11401160Y-13186933D01*
X-11551173Y-13036920D01*
X-11727569Y-12919055D01*
X-11923571Y-12837869D01*
X-12131645Y-12796480D01*
X-12343795Y-12796480D01*
X-12551869Y-12837869D01*
X-12747871Y-12919055D01*
X-12924267Y-13036920D01*
X-13074280Y-13186933D01*
X-13192145Y-13363329D01*
X-13273331Y-13559331D01*
X-13314720Y-13767405D01*
X-13314720Y-13979555D01*
X-13273331Y-14187629D01*
X-13192145Y-14383631D01*
X-13074280Y-14560027D01*
X-12924267Y-14710040D01*
X-12762679Y-14818010D01*
X-12762679Y-15481418D01*
X-12770000Y-15481418D01*
X-12834103Y-15487732D01*
X-12895743Y-15506430D01*
X-12952550Y-15536794D01*
X-13002343Y-15577657D01*
X-13043206Y-15627450D01*
X-13073570Y-15684257D01*
X-13092268Y-15745897D01*
X-13098582Y-15810000D01*
X-13098582Y-18410000D01*
X-13092377Y-18473000D01*
X-13347623Y-18473000D01*
X-13341418Y-18410000D01*
X-13341418Y-15810000D01*
X-13347732Y-15745897D01*
X-13366430Y-15684257D01*
X-13396794Y-15627450D01*
X-13437657Y-15577657D01*
X-13487450Y-15536794D01*
X-13544257Y-15506430D01*
X-13605897Y-15487732D01*
X-13670000Y-15481418D01*
X-13799940Y-15481418D01*
X-13799940Y-15372255D01*
X-13742799Y-15325361D01*
X-13683592Y-15253217D01*
X-13639598Y-15170909D01*
X-13612506Y-15081599D01*
X-13603358Y-14988720D01*
X-13603358Y-14693720D01*
X-13612506Y-14600841D01*
X-13639598Y-14511531D01*
X-13683592Y-14429223D01*
X-13742799Y-14357079D01*
X-13743846Y-14356220D01*
X-13742799Y-14355361D01*
X-13683592Y-14283217D01*
X-13639598Y-14200909D01*
X-13612506Y-14111599D01*
X-13603358Y-14018720D01*
X-13603358Y-13723720D01*
X-13612506Y-13630841D01*
X-13639598Y-13541531D01*
X-13683592Y-13459223D01*
X-13742799Y-13387079D01*
X-13799940Y-13340185D01*
X-13799940Y-13084438D01*
X-13685909Y-13037205D01*
X-13509513Y-12919340D01*
X-13359500Y-12769327D01*
X-13252893Y-12609780D01*
X-13161281Y-12609780D01*
X-13135400Y-12612329D01*
X-13109519Y-12609780D01*
X-13032090Y-12602154D01*
X-12932750Y-12572019D01*
X-12841198Y-12523084D01*
X-12760952Y-12457228D01*
X-12744445Y-12437114D01*
X-10594339Y-10287010D01*
X-8871392Y-10287010D01*
X-8899259Y-10328716D01*
G04 #@! TA.AperFunction,Conductor*
D27*
G36*
X-8899259Y-10328716D02*
G01*
X-8954062Y-10461022D01*
X-8982000Y-10601477D01*
X-8982000Y-10744683D01*
X-8954062Y-10885138D01*
X-8899259Y-11017444D01*
X-8819698Y-11136516D01*
X-8761680Y-11194534D01*
X-8761680Y-11358399D01*
X-8764229Y-11384280D01*
X-8754054Y-11487589D01*
X-8751520Y-11495942D01*
X-8751520Y-11717001D01*
X-8753455Y-11712329D01*
X-8871320Y-11535933D01*
X-9021333Y-11385920D01*
X-9197729Y-11268055D01*
X-9393731Y-11186869D01*
X-9601805Y-11145480D01*
X-9813955Y-11145480D01*
X-10022029Y-11186869D01*
X-10218031Y-11268055D01*
X-10394427Y-11385920D01*
X-10544440Y-11535933D01*
X-10662305Y-11712329D01*
X-10743491Y-11908331D01*
X-10784880Y-12116405D01*
X-10784880Y-12328555D01*
X-10743491Y-12536629D01*
X-10724538Y-12582385D01*
X-10739374Y-12631291D01*
X-10749549Y-12734600D01*
X-10746999Y-12760491D01*
X-10747000Y-15481418D01*
X-10770000Y-15481418D01*
X-10834103Y-15487732D01*
X-10895743Y-15506430D01*
X-10952550Y-15536794D01*
X-11002343Y-15577657D01*
X-11043206Y-15627450D01*
X-11073570Y-15684257D01*
X-11092268Y-15745897D01*
X-11098582Y-15810000D01*
X-11098582Y-18410000D01*
X-11092377Y-18473000D01*
X-11347623Y-18473000D01*
X-11341418Y-18410000D01*
X-11341418Y-15810000D01*
X-11347732Y-15745897D01*
X-11366430Y-15684257D01*
X-11396794Y-15627450D01*
X-11437657Y-15577657D01*
X-11487450Y-15536794D01*
X-11544257Y-15506430D01*
X-11605897Y-15487732D01*
X-11670000Y-15481418D01*
X-11708680Y-15481418D01*
X-11708680Y-14815284D01*
X-11551173Y-14710040D01*
X-11401160Y-14560027D01*
X-11283295Y-14383631D01*
X-11202109Y-14187629D01*
X-11160720Y-13979555D01*
X-11160720Y-13767405D01*
X-11202109Y-13559331D01*
X-11283295Y-13363329D01*
X-11401160Y-13186933D01*
X-11551173Y-13036920D01*
X-11727569Y-12919055D01*
X-11923571Y-12837869D01*
X-12131645Y-12796480D01*
X-12343795Y-12796480D01*
X-12551869Y-12837869D01*
X-12747871Y-12919055D01*
X-12924267Y-13036920D01*
X-13074280Y-13186933D01*
X-13192145Y-13363329D01*
X-13273331Y-13559331D01*
X-13314720Y-13767405D01*
X-13314720Y-13979555D01*
X-13273331Y-14187629D01*
X-13192145Y-14383631D01*
X-13074280Y-14560027D01*
X-12924267Y-14710040D01*
X-12762679Y-14818010D01*
X-12762679Y-15481418D01*
X-12770000Y-15481418D01*
X-12834103Y-15487732D01*
X-12895743Y-15506430D01*
X-12952550Y-15536794D01*
X-13002343Y-15577657D01*
X-13043206Y-15627450D01*
X-13073570Y-15684257D01*
X-13092268Y-15745897D01*
X-13098582Y-15810000D01*
X-13098582Y-18410000D01*
X-13092377Y-18473000D01*
X-13347623Y-18473000D01*
X-13341418Y-18410000D01*
X-13341418Y-15810000D01*
X-13347732Y-15745897D01*
X-13366430Y-15684257D01*
X-13396794Y-15627450D01*
X-13437657Y-15577657D01*
X-13487450Y-15536794D01*
X-13544257Y-15506430D01*
X-13605897Y-15487732D01*
X-13670000Y-15481418D01*
X-13799940Y-15481418D01*
X-13799940Y-15372255D01*
X-13742799Y-15325361D01*
X-13683592Y-15253217D01*
X-13639598Y-15170909D01*
X-13612506Y-15081599D01*
X-13603358Y-14988720D01*
X-13603358Y-14693720D01*
X-13612506Y-14600841D01*
X-13639598Y-14511531D01*
X-13683592Y-14429223D01*
X-13742799Y-14357079D01*
X-13743846Y-14356220D01*
X-13742799Y-14355361D01*
X-13683592Y-14283217D01*
X-13639598Y-14200909D01*
X-13612506Y-14111599D01*
X-13603358Y-14018720D01*
X-13603358Y-13723720D01*
X-13612506Y-13630841D01*
X-13639598Y-13541531D01*
X-13683592Y-13459223D01*
X-13742799Y-13387079D01*
X-13799940Y-13340185D01*
X-13799940Y-13084438D01*
X-13685909Y-13037205D01*
X-13509513Y-12919340D01*
X-13359500Y-12769327D01*
X-13252893Y-12609780D01*
X-13161281Y-12609780D01*
X-13135400Y-12612329D01*
X-13109519Y-12609780D01*
X-13032090Y-12602154D01*
X-12932750Y-12572019D01*
X-12841198Y-12523084D01*
X-12760952Y-12457228D01*
X-12744445Y-12437114D01*
X-10594339Y-10287010D01*
X-8871392Y-10287010D01*
X-8899259Y-10328716D01*
G37*
G04 #@! TD.AperFunction*
D26*
X-9082760Y-13583920D02*
X-9062760Y-13583920D01*
X-9062760Y-13837920D01*
X-9082760Y-13837920D01*
X-9082760Y-14507170D01*
X-8924010Y-14665920D01*
X-8914760Y-14668992D01*
X-8790278Y-14656732D01*
X-8762679Y-14648360D01*
X-8762679Y-15481418D01*
X-8770000Y-15481418D01*
X-8834103Y-15487732D01*
X-8895743Y-15506430D01*
X-8952550Y-15536794D01*
X-9002343Y-15577657D01*
X-9043206Y-15627450D01*
X-9073570Y-15684257D01*
X-9092268Y-15745897D01*
X-9098582Y-15810000D01*
X-9098582Y-18410000D01*
X-9092377Y-18473000D01*
X-9347623Y-18473000D01*
X-9341418Y-18410000D01*
X-9341418Y-15810000D01*
X-9347732Y-15745897D01*
X-9366430Y-15684257D01*
X-9396794Y-15627450D01*
X-9437657Y-15577657D01*
X-9487450Y-15536794D01*
X-9544257Y-15506430D01*
X-9605897Y-15487732D01*
X-9670000Y-15481418D01*
X-9693000Y-15481418D01*
X-9693000Y-14637391D01*
X-9629242Y-14656732D01*
X-9504760Y-14668992D01*
X-9495510Y-14665920D01*
X-9336760Y-14507170D01*
X-9336760Y-13837920D01*
X-9356760Y-13837920D01*
X-9356760Y-13583920D01*
X-9336760Y-13583920D01*
X-9336760Y-13563920D01*
X-9082760Y-13563920D01*
X-9082760Y-13583920D01*
G04 #@! TA.AperFunction,Conductor*
D27*
G36*
X-9082760Y-13583920D02*
G01*
X-9062760Y-13583920D01*
X-9062760Y-13837920D01*
X-9082760Y-13837920D01*
X-9082760Y-14507170D01*
X-8924010Y-14665920D01*
X-8914760Y-14668992D01*
X-8790278Y-14656732D01*
X-8762679Y-14648360D01*
X-8762679Y-15481418D01*
X-8770000Y-15481418D01*
X-8834103Y-15487732D01*
X-8895743Y-15506430D01*
X-8952550Y-15536794D01*
X-9002343Y-15577657D01*
X-9043206Y-15627450D01*
X-9073570Y-15684257D01*
X-9092268Y-15745897D01*
X-9098582Y-15810000D01*
X-9098582Y-18410000D01*
X-9092377Y-18473000D01*
X-9347623Y-18473000D01*
X-9341418Y-18410000D01*
X-9341418Y-15810000D01*
X-9347732Y-15745897D01*
X-9366430Y-15684257D01*
X-9396794Y-15627450D01*
X-9437657Y-15577657D01*
X-9487450Y-15536794D01*
X-9544257Y-15506430D01*
X-9605897Y-15487732D01*
X-9670000Y-15481418D01*
X-9693000Y-15481418D01*
X-9693000Y-14637391D01*
X-9629242Y-14656732D01*
X-9504760Y-14668992D01*
X-9495510Y-14665920D01*
X-9336760Y-14507170D01*
X-9336760Y-13837920D01*
X-9356760Y-13837920D01*
X-9356760Y-13583920D01*
X-9336760Y-13583920D01*
X-9336760Y-13563920D01*
X-9082760Y-13563920D01*
X-9082760Y-13583920D01*
G37*
G04 #@! TD.AperFunction*
D26*
X-6197600Y-1168400D02*
X-6177600Y-1168400D01*
X-6177600Y-1422400D01*
X-6197600Y-1422400D01*
X-6197600Y-2615555D01*
X-5967710Y-2736876D01*
X-5820501Y-2692225D01*
X-5681310Y-2625927D01*
X-5741556Y-2666182D01*
X-5842818Y-2767444D01*
X-5922379Y-2886516D01*
X-5977182Y-3018822D01*
X-6005120Y-3159277D01*
X-6005120Y-3302483D01*
X-5978119Y-3438227D01*
X-6013564Y-3402782D01*
X-6132636Y-3323221D01*
X-6264942Y-3268418D01*
X-6405397Y-3240480D01*
X-6548603Y-3240480D01*
X-6689058Y-3268418D01*
X-6821364Y-3323221D01*
X-6940436Y-3402782D01*
X-7041698Y-3504044D01*
X-7121259Y-3623116D01*
X-7176062Y-3755422D01*
X-7203560Y-3893665D01*
X-7203560Y-3168468D01*
X-7201373Y-3146263D01*
X-7210100Y-3057656D01*
X-7219755Y-3025829D01*
X-7235946Y-2972454D01*
X-7277917Y-2893931D01*
X-7334401Y-2825105D01*
X-7351650Y-2810949D01*
X-7741511Y-2421090D01*
X-7755675Y-2403831D01*
X-7824501Y-2347347D01*
X-7903024Y-2305376D01*
X-7988227Y-2279530D01*
X-8054629Y-2272990D01*
X-8076834Y-2270803D01*
X-8099039Y-2272990D01*
X-8209122Y-2272990D01*
X-8114306Y-2209636D01*
X-7950364Y-2045694D01*
X-7821556Y-1852919D01*
X-7753336Y-1688221D01*
X-7668757Y-1926652D01*
X-7519778Y-2176755D01*
X-7324869Y-2392988D01*
X-7091520Y-2567041D01*
X-6828699Y-2692225D01*
X-6681490Y-2736876D01*
X-6451600Y-2615555D01*
X-6451600Y-1422400D01*
X-6471600Y-1422400D01*
X-6471600Y-1168400D01*
X-6451600Y-1168400D01*
X-6451600Y-1148400D01*
X-6197600Y-1148400D01*
X-6197600Y-1168400D01*
G04 #@! TA.AperFunction,Conductor*
D27*
G36*
X-6197600Y-1168400D02*
G01*
X-6177600Y-1168400D01*
X-6177600Y-1422400D01*
X-6197600Y-1422400D01*
X-6197600Y-2615555D01*
X-5967710Y-2736876D01*
X-5820501Y-2692225D01*
X-5681310Y-2625927D01*
X-5741556Y-2666182D01*
X-5842818Y-2767444D01*
X-5922379Y-2886516D01*
X-5977182Y-3018822D01*
X-6005120Y-3159277D01*
X-6005120Y-3302483D01*
X-5978119Y-3438227D01*
X-6013564Y-3402782D01*
X-6132636Y-3323221D01*
X-6264942Y-3268418D01*
X-6405397Y-3240480D01*
X-6548603Y-3240480D01*
X-6689058Y-3268418D01*
X-6821364Y-3323221D01*
X-6940436Y-3402782D01*
X-7041698Y-3504044D01*
X-7121259Y-3623116D01*
X-7176062Y-3755422D01*
X-7203560Y-3893665D01*
X-7203560Y-3168468D01*
X-7201373Y-3146263D01*
X-7210100Y-3057656D01*
X-7219755Y-3025829D01*
X-7235946Y-2972454D01*
X-7277917Y-2893931D01*
X-7334401Y-2825105D01*
X-7351650Y-2810949D01*
X-7741511Y-2421090D01*
X-7755675Y-2403831D01*
X-7824501Y-2347347D01*
X-7903024Y-2305376D01*
X-7988227Y-2279530D01*
X-8054629Y-2272990D01*
X-8076834Y-2270803D01*
X-8099039Y-2272990D01*
X-8209122Y-2272990D01*
X-8114306Y-2209636D01*
X-7950364Y-2045694D01*
X-7821556Y-1852919D01*
X-7753336Y-1688221D01*
X-7668757Y-1926652D01*
X-7519778Y-2176755D01*
X-7324869Y-2392988D01*
X-7091520Y-2567041D01*
X-6828699Y-2692225D01*
X-6681490Y-2736876D01*
X-6451600Y-2615555D01*
X-6451600Y-1422400D01*
X-6471600Y-1422400D01*
X-6471600Y-1168400D01*
X-6451600Y-1168400D01*
X-6451600Y-1148400D01*
X-6197600Y-1148400D01*
X-6197600Y-1168400D01*
G37*
G04 #@! TD.AperFunction*
D26*
X-3657600Y1371600D02*
X-3637600Y1371600D01*
X-3637600Y1117600D01*
X-3657600Y1117600D01*
X-3657600Y1097600D01*
X-3911600Y1097600D01*
X-3911600Y1117600D01*
X-3931600Y1117600D01*
X-3931600Y1371600D01*
X-3911600Y1371600D01*
X-3911600Y1391600D01*
X-3657600Y1391600D01*
X-3657600Y1371600D01*
G04 #@! TA.AperFunction,Conductor*
D27*
G36*
X-3657600Y1371600D02*
G01*
X-3637600Y1371600D01*
X-3637600Y1117600D01*
X-3657600Y1117600D01*
X-3657600Y1097600D01*
X-3911600Y1097600D01*
X-3911600Y1117600D01*
X-3931600Y1117600D01*
X-3931600Y1371600D01*
X-3911600Y1371600D01*
X-3911600Y1391600D01*
X-3657600Y1391600D01*
X-3657600Y1371600D01*
G37*
G04 #@! TD.AperFunction*
M02*
