G04 #@! TF.GenerationSoftware,KiCad,Pcbnew,(5.1.10)-1*
G04 #@! TF.CreationDate,2022-03-14T17:05:32+05:30*
G04 #@! TF.ProjectId,P-1000072_Cicada Wi-Fi,502d3130-3030-4303-9732-5f4369636164,0.1*
G04 #@! TF.SameCoordinates,PX7cee6c0PY3dfd240*
G04 #@! TF.FileFunction,Other,Fab,Bot*
%FSLAX46Y46*%
G04 Gerber Fmt 4.6, Leading zero omitted, Abs format (unit mm)*
G04 Created by KiCad (PCBNEW (5.1.10)-1) date 2022-03-14 17:05:32*
%MOMM*%
%LPD*%
G01*
G04 APERTURE LIST*
%ADD10C,0.150000*%
%ADD11C,0.100000*%
%ADD12C,0.062500*%
%ADD13C,0.050000*%
G04 APERTURE END LIST*
D10*
X-11339999Y-37750000D02*
G75*
G03*
X-11339999Y-37750000I-923093J0D01*
G01*
X-13354522Y-35740000D02*
G75*
G03*
X-13354522Y-35740000I-915478J0D01*
G01*
X9100193Y-16460000D02*
G75*
G03*
X9100193Y-16460000I-905097J0D01*
G01*
X5920494Y-16690000D02*
G75*
G03*
X5920494Y-16690000I-910494J0D01*
G01*
X4536079Y-15130000D02*
G75*
G03*
X4536079Y-15130000I-916079J0D01*
G01*
X1720054Y-16350000D02*
G75*
G03*
X1720054Y-16350000I-920054J0D01*
G01*
X10494434Y-8870000D02*
G75*
G03*
X10494434Y-8870000I-904434J0D01*
G01*
X6752009Y-10560000D02*
G75*
G03*
X6752009Y-10560000I-922009J0D01*
G01*
X2486788Y-10560000D02*
G75*
G03*
X2486788Y-10560000I-916788J0D01*
G01*
X-11189946Y-7790000D02*
G75*
G03*
X-11189946Y-7790000I-920054J0D01*
G01*
X-11208859Y-4900000D02*
G75*
G03*
X-11208859Y-4900000I-921141J0D01*
G01*
X-8724671Y-39150000D02*
G75*
G03*
X-8724671Y-39150000I-950329J0D01*
G01*
D11*
X-12674600Y2514600D02*
X-12674600Y-1565400D01*
X-12674600Y-1565400D02*
X-11674600Y-2565400D01*
X-11674600Y-2565400D02*
X12725400Y-2565400D01*
X12725400Y-2565400D02*
X12725400Y2514600D01*
X12725400Y2514600D02*
X-12674600Y2514600D01*
X13031980Y-57343040D02*
G75*
G03*
X13031980Y-57343040I-1000000J0D01*
G01*
X-11964160Y-58587640D02*
G75*
G03*
X-11964160Y-58587640I-1000000J0D01*
G01*
X-16096740Y2212340D02*
G75*
G03*
X-16096740Y2212340I-1000000J0D01*
G01*
D12*
X-11250953Y-6106190D02*
X-11536667Y-6106190D01*
X-11393810Y-6606190D02*
X-11393810Y-6106190D01*
X-11703334Y-6606190D02*
X-11703334Y-6106190D01*
X-11893810Y-6106190D01*
X-11941429Y-6130000D01*
X-11965239Y-6153809D01*
X-11989048Y-6201428D01*
X-11989048Y-6272857D01*
X-11965239Y-6320476D01*
X-11941429Y-6344285D01*
X-11893810Y-6368095D01*
X-11703334Y-6368095D01*
X-12155715Y-6106190D02*
X-12465239Y-6106190D01*
X-12298572Y-6296666D01*
X-12370000Y-6296666D01*
X-12417620Y-6320476D01*
X-12441429Y-6344285D01*
X-12465239Y-6391904D01*
X-12465239Y-6510952D01*
X-12441429Y-6558571D01*
X-12417620Y-6582380D01*
X-12370000Y-6606190D01*
X-12227143Y-6606190D01*
X-12179524Y-6582380D01*
X-12155715Y-6558571D01*
X-12917620Y-6106190D02*
X-12679524Y-6106190D01*
X-12655715Y-6344285D01*
X-12679524Y-6320476D01*
X-12727143Y-6296666D01*
X-12846191Y-6296666D01*
X-12893810Y-6320476D01*
X-12917620Y-6344285D01*
X-12941429Y-6391904D01*
X-12941429Y-6510952D01*
X-12917620Y-6558571D01*
X-12893810Y-6582380D01*
X-12846191Y-6606190D01*
X-12727143Y-6606190D01*
X-12679524Y-6582380D01*
X-12655715Y-6558571D01*
X6689047Y-11946190D02*
X6403333Y-11946190D01*
X6546190Y-12446190D02*
X6546190Y-11946190D01*
X6236666Y-12446190D02*
X6236666Y-11946190D01*
X6046190Y-11946190D01*
X5998571Y-11970000D01*
X5974761Y-11993809D01*
X5950952Y-12041428D01*
X5950952Y-12112857D01*
X5974761Y-12160476D01*
X5998571Y-12184285D01*
X6046190Y-12208095D01*
X6236666Y-12208095D01*
X5784285Y-11946190D02*
X5474761Y-11946190D01*
X5641428Y-12136666D01*
X5570000Y-12136666D01*
X5522380Y-12160476D01*
X5498571Y-12184285D01*
X5474761Y-12231904D01*
X5474761Y-12350952D01*
X5498571Y-12398571D01*
X5522380Y-12422380D01*
X5570000Y-12446190D01*
X5712857Y-12446190D01*
X5760476Y-12422380D01*
X5784285Y-12398571D01*
X5046190Y-12112857D02*
X5046190Y-12446190D01*
X5165238Y-11922380D02*
X5284285Y-12279523D01*
X4974761Y-12279523D01*
X-11240953Y-9166190D02*
X-11526667Y-9166190D01*
X-11383810Y-9666190D02*
X-11383810Y-9166190D01*
X-11693334Y-9666190D02*
X-11693334Y-9166190D01*
X-11883810Y-9166190D01*
X-11931429Y-9190000D01*
X-11955239Y-9213809D01*
X-11979048Y-9261428D01*
X-11979048Y-9332857D01*
X-11955239Y-9380476D01*
X-11931429Y-9404285D01*
X-11883810Y-9428095D01*
X-11693334Y-9428095D01*
X-12145715Y-9166190D02*
X-12455239Y-9166190D01*
X-12288572Y-9356666D01*
X-12360000Y-9356666D01*
X-12407620Y-9380476D01*
X-12431429Y-9404285D01*
X-12455239Y-9451904D01*
X-12455239Y-9570952D01*
X-12431429Y-9618571D01*
X-12407620Y-9642380D01*
X-12360000Y-9666190D01*
X-12217143Y-9666190D01*
X-12169524Y-9642380D01*
X-12145715Y-9618571D01*
X-12645715Y-9213809D02*
X-12669524Y-9190000D01*
X-12717143Y-9166190D01*
X-12836191Y-9166190D01*
X-12883810Y-9190000D01*
X-12907620Y-9213809D01*
X-12931429Y-9261428D01*
X-12931429Y-9309047D01*
X-12907620Y-9380476D01*
X-12621905Y-9666190D01*
X-12931429Y-9666190D01*
X2459047Y-11946190D02*
X2173333Y-11946190D01*
X2316190Y-12446190D02*
X2316190Y-11946190D01*
X2006666Y-12446190D02*
X2006666Y-11946190D01*
X1816190Y-11946190D01*
X1768571Y-11970000D01*
X1744761Y-11993809D01*
X1720952Y-12041428D01*
X1720952Y-12112857D01*
X1744761Y-12160476D01*
X1768571Y-12184285D01*
X1816190Y-12208095D01*
X2006666Y-12208095D01*
X1554285Y-11946190D02*
X1244761Y-11946190D01*
X1411428Y-12136666D01*
X1340000Y-12136666D01*
X1292380Y-12160476D01*
X1268571Y-12184285D01*
X1244761Y-12231904D01*
X1244761Y-12350952D01*
X1268571Y-12398571D01*
X1292380Y-12422380D01*
X1340000Y-12446190D01*
X1482857Y-12446190D01*
X1530476Y-12422380D01*
X1554285Y-12398571D01*
X935238Y-11946190D02*
X887619Y-11946190D01*
X840000Y-11970000D01*
X816190Y-11993809D01*
X792380Y-12041428D01*
X768571Y-12136666D01*
X768571Y-12255714D01*
X792380Y-12350952D01*
X816190Y-12398571D01*
X840000Y-12422380D01*
X887619Y-12446190D01*
X935238Y-12446190D01*
X982857Y-12422380D01*
X1006666Y-12398571D01*
X1030476Y-12350952D01*
X1054285Y-12255714D01*
X1054285Y-12136666D01*
X1030476Y-12041428D01*
X1006666Y-11993809D01*
X982857Y-11970000D01*
X935238Y-11946190D01*
X1666607Y-17723630D02*
X1380893Y-17723630D01*
X1523750Y-18223630D02*
X1523750Y-17723630D01*
X1214226Y-18223630D02*
X1214226Y-17723630D01*
X1023750Y-17723630D01*
X976131Y-17747440D01*
X952321Y-17771249D01*
X928512Y-17818868D01*
X928512Y-17890297D01*
X952321Y-17937916D01*
X976131Y-17961725D01*
X1023750Y-17985535D01*
X1214226Y-17985535D01*
X738036Y-17771249D02*
X714226Y-17747440D01*
X666607Y-17723630D01*
X547560Y-17723630D01*
X499940Y-17747440D01*
X476131Y-17771249D01*
X452321Y-17818868D01*
X452321Y-17866487D01*
X476131Y-17937916D01*
X761845Y-18223630D01*
X452321Y-18223630D01*
X285655Y-17723630D02*
X-23869Y-17723630D01*
X142798Y-17914106D01*
X71369Y-17914106D01*
X23750Y-17937916D01*
X-60Y-17961725D01*
X-23869Y-18009344D01*
X-23869Y-18128392D01*
X-60Y-18176011D01*
X23750Y-18199820D01*
X71369Y-18223630D01*
X214226Y-18223630D01*
X261845Y-18199820D01*
X285655Y-18176011D01*
X-13400673Y-37121610D02*
X-13686387Y-37121610D01*
X-13543530Y-37621610D02*
X-13543530Y-37121610D01*
X-13853054Y-37621610D02*
X-13853054Y-37121610D01*
X-14043530Y-37121610D01*
X-14091149Y-37145420D01*
X-14114959Y-37169229D01*
X-14138768Y-37216848D01*
X-14138768Y-37288277D01*
X-14114959Y-37335896D01*
X-14091149Y-37359705D01*
X-14043530Y-37383515D01*
X-13853054Y-37383515D01*
X-14614959Y-37621610D02*
X-14329244Y-37621610D01*
X-14472101Y-37621610D02*
X-14472101Y-37121610D01*
X-14424482Y-37193039D01*
X-14376863Y-37240658D01*
X-14329244Y-37264467D01*
X-14805435Y-37169229D02*
X-14829244Y-37145420D01*
X-14876863Y-37121610D01*
X-14995911Y-37121610D01*
X-15043530Y-37145420D01*
X-15067340Y-37169229D01*
X-15091149Y-37216848D01*
X-15091149Y-37264467D01*
X-15067340Y-37335896D01*
X-14781625Y-37621610D01*
X-15091149Y-37621610D01*
X-11624548Y-39130750D02*
X-11910262Y-39130750D01*
X-11767405Y-39630750D02*
X-11767405Y-39130750D01*
X-12076929Y-39630750D02*
X-12076929Y-39130750D01*
X-12267405Y-39130750D01*
X-12315024Y-39154560D01*
X-12338834Y-39178369D01*
X-12362643Y-39225988D01*
X-12362643Y-39297417D01*
X-12338834Y-39345036D01*
X-12315024Y-39368845D01*
X-12267405Y-39392655D01*
X-12076929Y-39392655D01*
X-12648358Y-39345036D02*
X-12600739Y-39321226D01*
X-12576929Y-39297417D01*
X-12553120Y-39249798D01*
X-12553120Y-39225988D01*
X-12576929Y-39178369D01*
X-12600739Y-39154560D01*
X-12648358Y-39130750D01*
X-12743596Y-39130750D01*
X-12791215Y-39154560D01*
X-12815024Y-39178369D01*
X-12838834Y-39225988D01*
X-12838834Y-39249798D01*
X-12815024Y-39297417D01*
X-12791215Y-39321226D01*
X-12743596Y-39345036D01*
X-12648358Y-39345036D01*
X-12600739Y-39368845D01*
X-12576929Y-39392655D01*
X-12553120Y-39440274D01*
X-12553120Y-39535512D01*
X-12576929Y-39583131D01*
X-12600739Y-39606940D01*
X-12648358Y-39630750D01*
X-12743596Y-39630750D01*
X-12791215Y-39606940D01*
X-12815024Y-39583131D01*
X-12838834Y-39535512D01*
X-12838834Y-39440274D01*
X-12815024Y-39392655D01*
X-12791215Y-39368845D01*
X-12743596Y-39345036D01*
X-9066768Y-40527750D02*
X-9352482Y-40527750D01*
X-9209625Y-41027750D02*
X-9209625Y-40527750D01*
X-9519149Y-41027750D02*
X-9519149Y-40527750D01*
X-9709625Y-40527750D01*
X-9757244Y-40551560D01*
X-9781054Y-40575369D01*
X-9804863Y-40622988D01*
X-9804863Y-40694417D01*
X-9781054Y-40742036D01*
X-9757244Y-40765845D01*
X-9709625Y-40789655D01*
X-9519149Y-40789655D01*
X-10233435Y-40527750D02*
X-10138197Y-40527750D01*
X-10090578Y-40551560D01*
X-10066768Y-40575369D01*
X-10019149Y-40646798D01*
X-9995340Y-40742036D01*
X-9995340Y-40932512D01*
X-10019149Y-40980131D01*
X-10042959Y-41003940D01*
X-10090578Y-41027750D01*
X-10185816Y-41027750D01*
X-10233435Y-41003940D01*
X-10257244Y-40980131D01*
X-10281054Y-40932512D01*
X-10281054Y-40813464D01*
X-10257244Y-40765845D01*
X-10233435Y-40742036D01*
X-10185816Y-40718226D01*
X-10090578Y-40718226D01*
X-10042959Y-40742036D01*
X-10019149Y-40765845D01*
X-9995340Y-40813464D01*
X3860952Y-16316190D02*
X3575238Y-16316190D01*
X3718095Y-16816190D02*
X3718095Y-16316190D01*
X3408571Y-16816190D02*
X3408571Y-16316190D01*
X3218095Y-16316190D01*
X3170476Y-16340000D01*
X3146666Y-16363809D01*
X3122857Y-16411428D01*
X3122857Y-16482857D01*
X3146666Y-16530476D01*
X3170476Y-16554285D01*
X3218095Y-16578095D01*
X3408571Y-16578095D01*
X2670476Y-16316190D02*
X2908571Y-16316190D01*
X2932380Y-16554285D01*
X2908571Y-16530476D01*
X2860952Y-16506666D01*
X2741904Y-16506666D01*
X2694285Y-16530476D01*
X2670476Y-16554285D01*
X2646666Y-16601904D01*
X2646666Y-16720952D01*
X2670476Y-16768571D01*
X2694285Y-16792380D01*
X2741904Y-16816190D01*
X2860952Y-16816190D01*
X2908571Y-16792380D01*
X2932380Y-16768571D01*
X5639832Y-18063990D02*
X5354118Y-18063990D01*
X5496975Y-18563990D02*
X5496975Y-18063990D01*
X5187451Y-18563990D02*
X5187451Y-18063990D01*
X4996975Y-18063990D01*
X4949356Y-18087800D01*
X4925546Y-18111609D01*
X4901737Y-18159228D01*
X4901737Y-18230657D01*
X4925546Y-18278276D01*
X4949356Y-18302085D01*
X4996975Y-18325895D01*
X5187451Y-18325895D01*
X4473165Y-18230657D02*
X4473165Y-18563990D01*
X4592213Y-18040180D02*
X4711260Y-18397323D01*
X4401737Y-18397323D01*
D13*
X12671428Y-17360476D02*
X12909523Y-17360476D01*
X12933333Y-17455714D01*
X12909523Y-17446190D01*
X12861904Y-17436666D01*
X12742857Y-17436666D01*
X12695238Y-17446190D01*
X12671428Y-17455714D01*
X12647619Y-17474761D01*
X12647619Y-17522380D01*
X12671428Y-17541428D01*
X12695238Y-17550952D01*
X12742857Y-17560476D01*
X12861904Y-17560476D01*
X12909523Y-17550952D01*
X12933333Y-17541428D01*
X12480952Y-17427142D02*
X12361904Y-17560476D01*
X12242857Y-17427142D01*
D12*
X16375238Y-17206190D02*
X16613333Y-17206190D01*
X16637142Y-17444285D01*
X16613333Y-17420476D01*
X16565714Y-17396666D01*
X16446666Y-17396666D01*
X16399047Y-17420476D01*
X16375238Y-17444285D01*
X16351428Y-17491904D01*
X16351428Y-17610952D01*
X16375238Y-17658571D01*
X16399047Y-17682380D01*
X16446666Y-17706190D01*
X16565714Y-17706190D01*
X16613333Y-17682380D01*
X16637142Y-17658571D01*
X16208571Y-17206190D02*
X16041904Y-17706190D01*
X15875238Y-17206190D01*
X10230952Y-10246190D02*
X9945238Y-10246190D01*
X10088095Y-10746190D02*
X10088095Y-10246190D01*
X9778571Y-10746190D02*
X9778571Y-10246190D01*
X9588095Y-10246190D01*
X9540476Y-10270000D01*
X9516666Y-10293809D01*
X9492857Y-10341428D01*
X9492857Y-10412857D01*
X9516666Y-10460476D01*
X9540476Y-10484285D01*
X9588095Y-10508095D01*
X9778571Y-10508095D01*
X9016666Y-10746190D02*
X9302380Y-10746190D01*
X9159523Y-10746190D02*
X9159523Y-10246190D01*
X9207142Y-10317619D01*
X9254761Y-10365238D01*
X9302380Y-10389047D01*
D10*
X14677780Y1403172D02*
X13677780Y1403172D01*
X14153971Y1403172D02*
X14153971Y831743D01*
X14677780Y831743D02*
X13677780Y831743D01*
X14677780Y212696D02*
X14630161Y307934D01*
X14582542Y355553D01*
X14487304Y403172D01*
X14201590Y403172D01*
X14106352Y355553D01*
X14058733Y307934D01*
X14011114Y212696D01*
X14011114Y69839D01*
X14058733Y-25400D01*
X14106352Y-73019D01*
X14201590Y-120638D01*
X14487304Y-120638D01*
X14582542Y-73019D01*
X14630161Y-25400D01*
X14677780Y69839D01*
X14677780Y212696D01*
X14630161Y-501590D02*
X14677780Y-596828D01*
X14677780Y-787304D01*
X14630161Y-882542D01*
X14534923Y-930161D01*
X14487304Y-930161D01*
X14392066Y-882542D01*
X14344447Y-787304D01*
X14344447Y-644447D01*
X14296828Y-549209D01*
X14201590Y-501590D01*
X14153971Y-501590D01*
X14058733Y-549209D01*
X14011114Y-644447D01*
X14011114Y-787304D01*
X14058733Y-882542D01*
X14011114Y-1215876D02*
X14011114Y-1596828D01*
X13677780Y-1358733D02*
X14534923Y-1358733D01*
X14630161Y-1406352D01*
X14677780Y-1501590D01*
X14677780Y-1596828D01*
X358733Y522220D02*
X358733Y-192066D01*
X406352Y-334923D01*
X501590Y-430161D01*
X644447Y-477780D01*
X739685Y-477780D01*
X-22220Y522220D02*
X-641267Y522220D01*
X-307934Y141267D01*
X-450791Y141267D01*
X-546029Y93648D01*
X-593648Y46029D01*
X-641267Y-49209D01*
X-641267Y-287304D01*
X-593648Y-382542D01*
X-546029Y-430161D01*
X-450791Y-477780D01*
X-165077Y-477780D01*
X-69839Y-430161D01*
X-22220Y-382542D01*
D12*
X1454523Y-36903095D02*
X1311666Y-36903095D01*
X1383095Y-37153095D02*
X1383095Y-36903095D01*
X1228333Y-37153095D02*
X1228333Y-36903095D01*
X1133095Y-36903095D01*
X1109285Y-36915000D01*
X1097380Y-36926904D01*
X1085476Y-36950714D01*
X1085476Y-36986428D01*
X1097380Y-37010238D01*
X1109285Y-37022142D01*
X1133095Y-37034047D01*
X1228333Y-37034047D01*
X1002142Y-36903095D02*
X847380Y-36903095D01*
X930714Y-36998333D01*
X895000Y-36998333D01*
X871190Y-37010238D01*
X859285Y-37022142D01*
X847380Y-37045952D01*
X847380Y-37105476D01*
X859285Y-37129285D01*
X871190Y-37141190D01*
X895000Y-37153095D01*
X966428Y-37153095D01*
X990238Y-37141190D01*
X1002142Y-37129285D01*
X728333Y-37153095D02*
X680714Y-37153095D01*
X656904Y-37141190D01*
X645000Y-37129285D01*
X621190Y-37093571D01*
X609285Y-37045952D01*
X609285Y-36950714D01*
X621190Y-36926904D01*
X633095Y-36915000D01*
X656904Y-36903095D01*
X704523Y-36903095D01*
X728333Y-36915000D01*
X740238Y-36926904D01*
X752142Y-36950714D01*
X752142Y-37010238D01*
X740238Y-37034047D01*
X728333Y-37045952D01*
X704523Y-37057857D01*
X656904Y-37057857D01*
X633095Y-37045952D01*
X621190Y-37034047D01*
X609285Y-37010238D01*
X9079047Y-17596190D02*
X8793333Y-17596190D01*
X8936190Y-18096190D02*
X8936190Y-17596190D01*
X8626666Y-18096190D02*
X8626666Y-17596190D01*
X8436190Y-17596190D01*
X8388571Y-17620000D01*
X8364761Y-17643809D01*
X8340952Y-17691428D01*
X8340952Y-17762857D01*
X8364761Y-17810476D01*
X8388571Y-17834285D01*
X8436190Y-17858095D01*
X8626666Y-17858095D01*
X7864761Y-18096190D02*
X8150476Y-18096190D01*
X8007619Y-18096190D02*
X8007619Y-17596190D01*
X8055238Y-17667619D01*
X8102857Y-17715238D01*
X8150476Y-17739047D01*
X7555238Y-17596190D02*
X7507619Y-17596190D01*
X7460000Y-17620000D01*
X7436190Y-17643809D01*
X7412380Y-17691428D01*
X7388571Y-17786666D01*
X7388571Y-17905714D01*
X7412380Y-18000952D01*
X7436190Y-18048571D01*
X7460000Y-18072380D01*
X7507619Y-18096190D01*
X7555238Y-18096190D01*
X7602857Y-18072380D01*
X7626666Y-18048571D01*
X7650476Y-18000952D01*
X7674285Y-17905714D01*
X7674285Y-17786666D01*
X7650476Y-17691428D01*
X7626666Y-17643809D01*
X7602857Y-17620000D01*
X7555238Y-17596190D01*
X12627218Y-55325182D02*
X12710551Y-55325182D01*
X12710551Y-55456135D02*
X12710551Y-55206135D01*
X12591503Y-55206135D01*
X12496265Y-55456135D02*
X12496265Y-55289468D01*
X12496265Y-55206135D02*
X12508170Y-55218040D01*
X12496265Y-55229944D01*
X12484360Y-55218040D01*
X12496265Y-55206135D01*
X12496265Y-55229944D01*
X12270075Y-55456135D02*
X12270075Y-55206135D01*
X12270075Y-55444230D02*
X12293884Y-55456135D01*
X12341503Y-55456135D01*
X12365313Y-55444230D01*
X12377218Y-55432325D01*
X12389122Y-55408516D01*
X12389122Y-55337087D01*
X12377218Y-55313278D01*
X12365313Y-55301373D01*
X12341503Y-55289468D01*
X12293884Y-55289468D01*
X12270075Y-55301373D01*
X12043884Y-55289468D02*
X12043884Y-55456135D01*
X12151027Y-55289468D02*
X12151027Y-55420420D01*
X12139122Y-55444230D01*
X12115313Y-55456135D01*
X12079599Y-55456135D01*
X12055789Y-55444230D01*
X12043884Y-55432325D01*
X11817694Y-55444230D02*
X11841503Y-55456135D01*
X11889122Y-55456135D01*
X11912932Y-55444230D01*
X11924837Y-55432325D01*
X11936741Y-55408516D01*
X11936741Y-55337087D01*
X11924837Y-55313278D01*
X11912932Y-55301373D01*
X11889122Y-55289468D01*
X11841503Y-55289468D01*
X11817694Y-55301373D01*
X11710551Y-55456135D02*
X11710551Y-55289468D01*
X11710551Y-55206135D02*
X11722456Y-55218040D01*
X11710551Y-55229944D01*
X11698646Y-55218040D01*
X11710551Y-55206135D01*
X11710551Y-55229944D01*
X11484360Y-55456135D02*
X11484360Y-55325182D01*
X11496265Y-55301373D01*
X11520075Y-55289468D01*
X11567694Y-55289468D01*
X11591503Y-55301373D01*
X11484360Y-55444230D02*
X11508170Y-55456135D01*
X11567694Y-55456135D01*
X11591503Y-55444230D01*
X11603408Y-55420420D01*
X11603408Y-55396611D01*
X11591503Y-55372801D01*
X11567694Y-55360897D01*
X11508170Y-55360897D01*
X11484360Y-55348992D01*
X11329599Y-55456135D02*
X11353408Y-55444230D01*
X11365313Y-55420420D01*
X11365313Y-55206135D01*
D11*
D12*
X12299837Y-57325182D02*
X12383170Y-57325182D01*
X12383170Y-57456135D02*
X12383170Y-57206135D01*
X12264122Y-57206135D01*
X12168884Y-57456135D02*
X12168884Y-57206135D01*
X12049837Y-57456135D02*
X12049837Y-57206135D01*
X11990313Y-57206135D01*
X11954599Y-57218040D01*
X11930789Y-57241849D01*
X11918884Y-57265659D01*
X11906980Y-57313278D01*
X11906980Y-57348992D01*
X11918884Y-57396611D01*
X11930789Y-57420420D01*
X11954599Y-57444230D01*
X11990313Y-57456135D01*
X12049837Y-57456135D01*
X11692694Y-57206135D02*
X11740313Y-57206135D01*
X11764122Y-57218040D01*
X11776027Y-57229944D01*
X11799837Y-57265659D01*
X11811741Y-57313278D01*
X11811741Y-57408516D01*
X11799837Y-57432325D01*
X11787932Y-57444230D01*
X11764122Y-57456135D01*
X11716503Y-57456135D01*
X11692694Y-57444230D01*
X11680789Y-57432325D01*
X11668884Y-57408516D01*
X11668884Y-57348992D01*
X11680789Y-57325182D01*
X11692694Y-57313278D01*
X11716503Y-57301373D01*
X11764122Y-57301373D01*
X11787932Y-57313278D01*
X11799837Y-57325182D01*
X11811741Y-57348992D01*
D11*
D12*
X-12368922Y-56569782D02*
X-12285589Y-56569782D01*
X-12285589Y-56700735D02*
X-12285589Y-56450735D01*
X-12404637Y-56450735D01*
X-12499875Y-56700735D02*
X-12499875Y-56534068D01*
X-12499875Y-56450735D02*
X-12487970Y-56462640D01*
X-12499875Y-56474544D01*
X-12511780Y-56462640D01*
X-12499875Y-56450735D01*
X-12499875Y-56474544D01*
X-12726065Y-56700735D02*
X-12726065Y-56450735D01*
X-12726065Y-56688830D02*
X-12702256Y-56700735D01*
X-12654637Y-56700735D01*
X-12630827Y-56688830D01*
X-12618922Y-56676925D01*
X-12607018Y-56653116D01*
X-12607018Y-56581687D01*
X-12618922Y-56557878D01*
X-12630827Y-56545973D01*
X-12654637Y-56534068D01*
X-12702256Y-56534068D01*
X-12726065Y-56545973D01*
X-12952256Y-56534068D02*
X-12952256Y-56700735D01*
X-12845113Y-56534068D02*
X-12845113Y-56665020D01*
X-12857018Y-56688830D01*
X-12880827Y-56700735D01*
X-12916541Y-56700735D01*
X-12940351Y-56688830D01*
X-12952256Y-56676925D01*
X-13178446Y-56688830D02*
X-13154637Y-56700735D01*
X-13107018Y-56700735D01*
X-13083208Y-56688830D01*
X-13071303Y-56676925D01*
X-13059399Y-56653116D01*
X-13059399Y-56581687D01*
X-13071303Y-56557878D01*
X-13083208Y-56545973D01*
X-13107018Y-56534068D01*
X-13154637Y-56534068D01*
X-13178446Y-56545973D01*
X-13285589Y-56700735D02*
X-13285589Y-56534068D01*
X-13285589Y-56450735D02*
X-13273684Y-56462640D01*
X-13285589Y-56474544D01*
X-13297494Y-56462640D01*
X-13285589Y-56450735D01*
X-13285589Y-56474544D01*
X-13511780Y-56700735D02*
X-13511780Y-56569782D01*
X-13499875Y-56545973D01*
X-13476065Y-56534068D01*
X-13428446Y-56534068D01*
X-13404637Y-56545973D01*
X-13511780Y-56688830D02*
X-13487970Y-56700735D01*
X-13428446Y-56700735D01*
X-13404637Y-56688830D01*
X-13392732Y-56665020D01*
X-13392732Y-56641211D01*
X-13404637Y-56617401D01*
X-13428446Y-56605497D01*
X-13487970Y-56605497D01*
X-13511780Y-56593592D01*
X-13666541Y-56700735D02*
X-13642732Y-56688830D01*
X-13630827Y-56665020D01*
X-13630827Y-56450735D01*
D11*
D12*
X-12696303Y-58569782D02*
X-12612970Y-58569782D01*
X-12612970Y-58700735D02*
X-12612970Y-58450735D01*
X-12732018Y-58450735D01*
X-12827256Y-58700735D02*
X-12827256Y-58450735D01*
X-12946303Y-58700735D02*
X-12946303Y-58450735D01*
X-13005827Y-58450735D01*
X-13041541Y-58462640D01*
X-13065351Y-58486449D01*
X-13077256Y-58510259D01*
X-13089160Y-58557878D01*
X-13089160Y-58593592D01*
X-13077256Y-58641211D01*
X-13065351Y-58665020D01*
X-13041541Y-58688830D01*
X-13005827Y-58700735D01*
X-12946303Y-58700735D01*
X-13303446Y-58534068D02*
X-13303446Y-58700735D01*
X-13243922Y-58438830D02*
X-13184399Y-58617401D01*
X-13339160Y-58617401D01*
D11*
D12*
X-16501502Y4230198D02*
X-16418169Y4230198D01*
X-16418169Y4099245D02*
X-16418169Y4349245D01*
X-16537217Y4349245D01*
X-16632455Y4099245D02*
X-16632455Y4265912D01*
X-16632455Y4349245D02*
X-16620550Y4337340D01*
X-16632455Y4325436D01*
X-16644360Y4337340D01*
X-16632455Y4349245D01*
X-16632455Y4325436D01*
X-16858645Y4099245D02*
X-16858645Y4349245D01*
X-16858645Y4111150D02*
X-16834836Y4099245D01*
X-16787217Y4099245D01*
X-16763407Y4111150D01*
X-16751502Y4123055D01*
X-16739598Y4146864D01*
X-16739598Y4218293D01*
X-16751502Y4242102D01*
X-16763407Y4254007D01*
X-16787217Y4265912D01*
X-16834836Y4265912D01*
X-16858645Y4254007D01*
X-17084836Y4265912D02*
X-17084836Y4099245D01*
X-16977693Y4265912D02*
X-16977693Y4134960D01*
X-16989598Y4111150D01*
X-17013407Y4099245D01*
X-17049121Y4099245D01*
X-17072931Y4111150D01*
X-17084836Y4123055D01*
X-17311026Y4111150D02*
X-17287217Y4099245D01*
X-17239598Y4099245D01*
X-17215788Y4111150D01*
X-17203883Y4123055D01*
X-17191979Y4146864D01*
X-17191979Y4218293D01*
X-17203883Y4242102D01*
X-17215788Y4254007D01*
X-17239598Y4265912D01*
X-17287217Y4265912D01*
X-17311026Y4254007D01*
X-17418169Y4099245D02*
X-17418169Y4265912D01*
X-17418169Y4349245D02*
X-17406264Y4337340D01*
X-17418169Y4325436D01*
X-17430074Y4337340D01*
X-17418169Y4349245D01*
X-17418169Y4325436D01*
X-17644360Y4099245D02*
X-17644360Y4230198D01*
X-17632455Y4254007D01*
X-17608645Y4265912D01*
X-17561026Y4265912D01*
X-17537217Y4254007D01*
X-17644360Y4111150D02*
X-17620550Y4099245D01*
X-17561026Y4099245D01*
X-17537217Y4111150D01*
X-17525312Y4134960D01*
X-17525312Y4158769D01*
X-17537217Y4182579D01*
X-17561026Y4194483D01*
X-17620550Y4194483D01*
X-17644360Y4206388D01*
X-17799121Y4099245D02*
X-17775312Y4111150D01*
X-17763407Y4134960D01*
X-17763407Y4349245D01*
D11*
D12*
X-16828883Y2230198D02*
X-16745550Y2230198D01*
X-16745550Y2099245D02*
X-16745550Y2349245D01*
X-16864598Y2349245D01*
X-16959836Y2099245D02*
X-16959836Y2349245D01*
X-17078883Y2099245D02*
X-17078883Y2349245D01*
X-17138407Y2349245D01*
X-17174121Y2337340D01*
X-17197931Y2313531D01*
X-17209836Y2289721D01*
X-17221740Y2242102D01*
X-17221740Y2206388D01*
X-17209836Y2158769D01*
X-17197931Y2134960D01*
X-17174121Y2111150D01*
X-17138407Y2099245D01*
X-17078883Y2099245D01*
X-17316979Y2325436D02*
X-17328883Y2337340D01*
X-17352693Y2349245D01*
X-17412217Y2349245D01*
X-17436026Y2337340D01*
X-17447931Y2325436D01*
X-17459836Y2301626D01*
X-17459836Y2277817D01*
X-17447931Y2242102D01*
X-17305074Y2099245D01*
X-17459836Y2099245D01*
D11*
M02*
