G04 #@! TF.GenerationSoftware,KiCad,Pcbnew,(5.1.10)-1*
G04 #@! TF.CreationDate,2022-03-11T13:30:57+05:30*
G04 #@! TF.ProjectId,P-1000072_Cicada Wi-Fi,502d3130-3030-4303-9732-5f4369636164,0.1*
G04 #@! TF.SameCoordinates,PX7cee6c0PY3dfd240*
G04 #@! TF.FileFunction,Soldermask,Top*
G04 #@! TF.FilePolarity,Negative*
%FSLAX46Y46*%
G04 Gerber Fmt 4.6, Leading zero omitted, Abs format (unit mm)*
G04 Created by KiCad (PCBNEW (5.1.10)-1) date 2022-03-11 13:30:57*
%MOMM*%
%LPD*%
G01*
G04 APERTURE LIST*
%ADD10C,1.600000*%
%ADD11O,1.800000X1.800000*%
%ADD12C,1.700000*%
%ADD13C,5.600000*%
%ADD14C,2.000000*%
G04 APERTURE END LIST*
G36*
G01*
X11855000Y-44390000D02*
X11205000Y-44390000D01*
G75*
G02*
X11155000Y-44340000I0J50000D01*
G01*
X11155000Y-43120000D01*
G75*
G02*
X11205000Y-43070000I50000J0D01*
G01*
X11855000Y-43070000D01*
G75*
G02*
X11905000Y-43120000I0J-50000D01*
G01*
X11905000Y-44340000D01*
G75*
G02*
X11855000Y-44390000I-50000J0D01*
G01*
G37*
G36*
G01*
X13755000Y-44390000D02*
X13105000Y-44390000D01*
G75*
G02*
X13055000Y-44340000I0J50000D01*
G01*
X13055000Y-43120000D01*
G75*
G02*
X13105000Y-43070000I50000J0D01*
G01*
X13755000Y-43070000D01*
G75*
G02*
X13805000Y-43120000I0J-50000D01*
G01*
X13805000Y-44340000D01*
G75*
G02*
X13755000Y-44390000I-50000J0D01*
G01*
G37*
G36*
G01*
X13755000Y-47010000D02*
X13105000Y-47010000D01*
G75*
G02*
X13055000Y-46960000I0J50000D01*
G01*
X13055000Y-45740000D01*
G75*
G02*
X13105000Y-45690000I50000J0D01*
G01*
X13755000Y-45690000D01*
G75*
G02*
X13805000Y-45740000I0J-50000D01*
G01*
X13805000Y-46960000D01*
G75*
G02*
X13755000Y-47010000I-50000J0D01*
G01*
G37*
G36*
G01*
X12805000Y-47010000D02*
X12155000Y-47010000D01*
G75*
G02*
X12105000Y-46960000I0J50000D01*
G01*
X12105000Y-45740000D01*
G75*
G02*
X12155000Y-45690000I50000J0D01*
G01*
X12805000Y-45690000D01*
G75*
G02*
X12855000Y-45740000I0J-50000D01*
G01*
X12855000Y-46960000D01*
G75*
G02*
X12805000Y-47010000I-50000J0D01*
G01*
G37*
G36*
G01*
X11855000Y-47010000D02*
X11205000Y-47010000D01*
G75*
G02*
X11155000Y-46960000I0J50000D01*
G01*
X11155000Y-45740000D01*
G75*
G02*
X11205000Y-45690000I50000J0D01*
G01*
X11855000Y-45690000D01*
G75*
G02*
X11905000Y-45740000I0J-50000D01*
G01*
X11905000Y-46960000D01*
G75*
G02*
X11855000Y-47010000I-50000J0D01*
G01*
G37*
G36*
G01*
X-13670000Y-18460000D02*
X-14770000Y-18460000D01*
G75*
G02*
X-14820000Y-18410000I0J50000D01*
G01*
X-14820000Y-15810000D01*
G75*
G02*
X-14770000Y-15760000I50000J0D01*
G01*
X-13670000Y-15760000D01*
G75*
G02*
X-13620000Y-15810000I0J-50000D01*
G01*
X-13620000Y-18410000D01*
G75*
G02*
X-13670000Y-18460000I-50000J0D01*
G01*
G37*
G36*
G01*
X-11670000Y-18460000D02*
X-12770000Y-18460000D01*
G75*
G02*
X-12820000Y-18410000I0J50000D01*
G01*
X-12820000Y-15810000D01*
G75*
G02*
X-12770000Y-15760000I50000J0D01*
G01*
X-11670000Y-15760000D01*
G75*
G02*
X-11620000Y-15810000I0J-50000D01*
G01*
X-11620000Y-18410000D01*
G75*
G02*
X-11670000Y-18460000I-50000J0D01*
G01*
G37*
G36*
G01*
X-5670000Y-18460000D02*
X-6770000Y-18460000D01*
G75*
G02*
X-6820000Y-18410000I0J50000D01*
G01*
X-6820000Y-15810000D01*
G75*
G02*
X-6770000Y-15760000I50000J0D01*
G01*
X-5670000Y-15760000D01*
G75*
G02*
X-5620000Y-15810000I0J-50000D01*
G01*
X-5620000Y-18410000D01*
G75*
G02*
X-5670000Y-18460000I-50000J0D01*
G01*
G37*
G36*
G01*
X-3670000Y-33660000D02*
X-4770000Y-33660000D01*
G75*
G02*
X-4820000Y-33610000I0J50000D01*
G01*
X-4820000Y-31010000D01*
G75*
G02*
X-4770000Y-30960000I50000J0D01*
G01*
X-3670000Y-30960000D01*
G75*
G02*
X-3620000Y-31010000I0J-50000D01*
G01*
X-3620000Y-33610000D01*
G75*
G02*
X-3670000Y-33660000I-50000J0D01*
G01*
G37*
G36*
G01*
X-3670000Y-18460000D02*
X-4770000Y-18460000D01*
G75*
G02*
X-4820000Y-18410000I0J50000D01*
G01*
X-4820000Y-15810000D01*
G75*
G02*
X-4770000Y-15760000I50000J0D01*
G01*
X-3670000Y-15760000D01*
G75*
G02*
X-3620000Y-15810000I0J-50000D01*
G01*
X-3620000Y-18410000D01*
G75*
G02*
X-3670000Y-18460000I-50000J0D01*
G01*
G37*
G36*
G01*
X-1670000Y-33660000D02*
X-2770000Y-33660000D01*
G75*
G02*
X-2820000Y-33610000I0J50000D01*
G01*
X-2820000Y-31010000D01*
G75*
G02*
X-2770000Y-30960000I50000J0D01*
G01*
X-1670000Y-30960000D01*
G75*
G02*
X-1620000Y-31010000I0J-50000D01*
G01*
X-1620000Y-33610000D01*
G75*
G02*
X-1670000Y-33660000I-50000J0D01*
G01*
G37*
G36*
G01*
X-11670000Y-33660000D02*
X-12770000Y-33660000D01*
G75*
G02*
X-12820000Y-33610000I0J50000D01*
G01*
X-12820000Y-31010000D01*
G75*
G02*
X-12770000Y-30960000I50000J0D01*
G01*
X-11670000Y-30960000D01*
G75*
G02*
X-11620000Y-31010000I0J-50000D01*
G01*
X-11620000Y-33610000D01*
G75*
G02*
X-11670000Y-33660000I-50000J0D01*
G01*
G37*
G36*
G01*
X-15670000Y-18460000D02*
X-16770000Y-18460000D01*
G75*
G02*
X-16820000Y-18410000I0J50000D01*
G01*
X-16820000Y-15810000D01*
G75*
G02*
X-16770000Y-15760000I50000J0D01*
G01*
X-15670000Y-15760000D01*
G75*
G02*
X-15620000Y-15810000I0J-50000D01*
G01*
X-15620000Y-18410000D01*
G75*
G02*
X-15670000Y-18460000I-50000J0D01*
G01*
G37*
G36*
G01*
X-7670000Y-33660000D02*
X-8770000Y-33660000D01*
G75*
G02*
X-8820000Y-33610000I0J50000D01*
G01*
X-8820000Y-31010000D01*
G75*
G02*
X-8770000Y-30960000I50000J0D01*
G01*
X-7670000Y-30960000D01*
G75*
G02*
X-7620000Y-31010000I0J-50000D01*
G01*
X-7620000Y-33610000D01*
G75*
G02*
X-7670000Y-33660000I-50000J0D01*
G01*
G37*
G36*
G01*
X-9670000Y-18460000D02*
X-10770000Y-18460000D01*
G75*
G02*
X-10820000Y-18410000I0J50000D01*
G01*
X-10820000Y-15810000D01*
G75*
G02*
X-10770000Y-15760000I50000J0D01*
G01*
X-9670000Y-15760000D01*
G75*
G02*
X-9620000Y-15810000I0J-50000D01*
G01*
X-9620000Y-18410000D01*
G75*
G02*
X-9670000Y-18460000I-50000J0D01*
G01*
G37*
G36*
G01*
X-7670000Y-18460000D02*
X-8770000Y-18460000D01*
G75*
G02*
X-8820000Y-18410000I0J50000D01*
G01*
X-8820000Y-15810000D01*
G75*
G02*
X-8770000Y-15760000I50000J0D01*
G01*
X-7670000Y-15760000D01*
G75*
G02*
X-7620000Y-15810000I0J-50000D01*
G01*
X-7620000Y-18410000D01*
G75*
G02*
X-7670000Y-18460000I-50000J0D01*
G01*
G37*
G36*
G01*
X-5670000Y-33660000D02*
X-6770000Y-33660000D01*
G75*
G02*
X-6820000Y-33610000I0J50000D01*
G01*
X-6820000Y-31010000D01*
G75*
G02*
X-6770000Y-30960000I50000J0D01*
G01*
X-5670000Y-30960000D01*
G75*
G02*
X-5620000Y-31010000I0J-50000D01*
G01*
X-5620000Y-33610000D01*
G75*
G02*
X-5670000Y-33660000I-50000J0D01*
G01*
G37*
G36*
G01*
X-9670000Y-33660000D02*
X-10770000Y-33660000D01*
G75*
G02*
X-10820000Y-33610000I0J50000D01*
G01*
X-10820000Y-31010000D01*
G75*
G02*
X-10770000Y-30960000I50000J0D01*
G01*
X-9670000Y-30960000D01*
G75*
G02*
X-9620000Y-31010000I0J-50000D01*
G01*
X-9620000Y-33610000D01*
G75*
G02*
X-9670000Y-33660000I-50000J0D01*
G01*
G37*
G36*
G01*
X-1670000Y-18460000D02*
X-2770000Y-18460000D01*
G75*
G02*
X-2820000Y-18410000I0J50000D01*
G01*
X-2820000Y-15810000D01*
G75*
G02*
X-2770000Y-15760000I50000J0D01*
G01*
X-1670000Y-15760000D01*
G75*
G02*
X-1620000Y-15810000I0J-50000D01*
G01*
X-1620000Y-18410000D01*
G75*
G02*
X-1670000Y-18460000I-50000J0D01*
G01*
G37*
G36*
G01*
X-13670000Y-33660000D02*
X-14770000Y-33660000D01*
G75*
G02*
X-14820000Y-33610000I0J50000D01*
G01*
X-14820000Y-31010000D01*
G75*
G02*
X-14770000Y-30960000I50000J0D01*
G01*
X-13670000Y-30960000D01*
G75*
G02*
X-13620000Y-31010000I0J-50000D01*
G01*
X-13620000Y-33610000D01*
G75*
G02*
X-13670000Y-33660000I-50000J0D01*
G01*
G37*
G36*
G01*
X-15670000Y-33660000D02*
X-16770000Y-33660000D01*
G75*
G02*
X-16820000Y-33610000I0J50000D01*
G01*
X-16820000Y-31010000D01*
G75*
G02*
X-16770000Y-30960000I50000J0D01*
G01*
X-15670000Y-30960000D01*
G75*
G02*
X-15620000Y-31010000I0J-50000D01*
G01*
X-15620000Y-33610000D01*
G75*
G02*
X-15670000Y-33660000I-50000J0D01*
G01*
G37*
D10*
X-8326120Y-6253480D03*
X-15499080Y-9888220D03*
X-9707880Y-12222480D03*
X-12237720Y-13873480D03*
X-14196060Y-12082780D03*
X-4239260Y-13906500D03*
X-5491480Y-12024360D03*
X-4185920Y-37266880D03*
X-6223000Y-35727640D03*
X-8199120Y-35179000D03*
X-10251440Y-35100260D03*
X-18783300Y-35095180D03*
X4587240Y-15687040D03*
X16299180Y-19817080D03*
X14490000Y-17470000D03*
G36*
G01*
X14540000Y-49000000D02*
X19340000Y-49000000D01*
G75*
G02*
X19390000Y-49050000I0J-50000D01*
G01*
X19390000Y-51250000D01*
G75*
G02*
X19340000Y-51300000I-50000J0D01*
G01*
X14540000Y-51300000D01*
G75*
G02*
X14490000Y-51250000I0J50000D01*
G01*
X14490000Y-49050000D01*
G75*
G02*
X14540000Y-49000000I50000J0D01*
G01*
G37*
G36*
G01*
X14540000Y-45600000D02*
X19340000Y-45600000D01*
G75*
G02*
X19390000Y-45650000I0J-50000D01*
G01*
X19390000Y-47850000D01*
G75*
G02*
X19340000Y-47900000I-50000J0D01*
G01*
X14540000Y-47900000D01*
G75*
G02*
X14490000Y-47850000I0J50000D01*
G01*
X14490000Y-45650000D01*
G75*
G02*
X14540000Y-45600000I50000J0D01*
G01*
G37*
D11*
X11455400Y1244600D03*
X11455400Y-1295400D03*
X8915400Y1244600D03*
X8915400Y-1295400D03*
X6375400Y1244600D03*
X6375400Y-1295400D03*
X3835400Y1244600D03*
X3835400Y-1295400D03*
X1295400Y1244600D03*
X1295400Y-1295400D03*
X-1244600Y1244600D03*
X-1244600Y-1295400D03*
X-3784600Y1244600D03*
X-3784600Y-1295400D03*
X-6324600Y1244600D03*
X-6324600Y-1295400D03*
X-8864600Y1244600D03*
X-8864600Y-1295400D03*
X-11404600Y1244600D03*
G36*
G01*
X-12254600Y-395400D02*
X-10554600Y-395400D01*
G75*
G02*
X-10504600Y-445400I0J-50000D01*
G01*
X-10504600Y-2145400D01*
G75*
G02*
X-10554600Y-2195400I-50000J0D01*
G01*
X-12254600Y-2195400D01*
G75*
G02*
X-12304600Y-2145400I0J50000D01*
G01*
X-12304600Y-445400D01*
G75*
G02*
X-12254600Y-395400I50000J0D01*
G01*
G37*
D12*
X8280400Y-30457140D03*
G36*
G01*
X3930400Y-31257140D02*
X3930400Y-29657140D01*
G75*
G02*
X3980400Y-29607140I50000J0D01*
G01*
X5580400Y-29607140D01*
G75*
G02*
X5630400Y-29657140I0J-50000D01*
G01*
X5630400Y-31257140D01*
G75*
G02*
X5580400Y-31307140I-50000J0D01*
G01*
X3980400Y-31307140D01*
G75*
G02*
X3930400Y-31257140I0J50000D01*
G01*
G37*
X8239760Y-21798280D03*
G36*
G01*
X3889760Y-22598280D02*
X3889760Y-20998280D01*
G75*
G02*
X3939760Y-20948280I50000J0D01*
G01*
X5539760Y-20948280D01*
G75*
G02*
X5589760Y-20998280I0J-50000D01*
G01*
X5589760Y-22598280D01*
G75*
G02*
X5539760Y-22648280I-50000J0D01*
G01*
X3939760Y-22648280D01*
G75*
G02*
X3889760Y-22598280I0J50000D01*
G01*
G37*
G36*
G01*
X-16438260Y-14531500D02*
X-16043260Y-14531500D01*
G75*
G02*
X-15870760Y-14704000I0J-172500D01*
G01*
X-15870760Y-15049000D01*
G75*
G02*
X-16043260Y-15221500I-172500J0D01*
G01*
X-16438260Y-15221500D01*
G75*
G02*
X-16610760Y-15049000I0J172500D01*
G01*
X-16610760Y-14704000D01*
G75*
G02*
X-16438260Y-14531500I172500J0D01*
G01*
G37*
G36*
G01*
X-16438260Y-13561500D02*
X-16043260Y-13561500D01*
G75*
G02*
X-15870760Y-13734000I0J-172500D01*
G01*
X-15870760Y-14079000D01*
G75*
G02*
X-16043260Y-14251500I-172500J0D01*
G01*
X-16438260Y-14251500D01*
G75*
G02*
X-16610760Y-14079000I0J172500D01*
G01*
X-16610760Y-13734000D01*
G75*
G02*
X-16438260Y-13561500I172500J0D01*
G01*
G37*
G36*
G01*
X-14449440Y-14496220D02*
X-14054440Y-14496220D01*
G75*
G02*
X-13881940Y-14668720I0J-172500D01*
G01*
X-13881940Y-15013720D01*
G75*
G02*
X-14054440Y-15186220I-172500J0D01*
G01*
X-14449440Y-15186220D01*
G75*
G02*
X-14621940Y-15013720I0J172500D01*
G01*
X-14621940Y-14668720D01*
G75*
G02*
X-14449440Y-14496220I172500J0D01*
G01*
G37*
G36*
G01*
X-14449440Y-13526220D02*
X-14054440Y-13526220D01*
G75*
G02*
X-13881940Y-13698720I0J-172500D01*
G01*
X-13881940Y-14043720D01*
G75*
G02*
X-14054440Y-14216220I-172500J0D01*
G01*
X-14449440Y-14216220D01*
G75*
G02*
X-14621940Y-14043720I0J172500D01*
G01*
X-14621940Y-13698720D01*
G75*
G02*
X-14449440Y-13526220I172500J0D01*
G01*
G37*
G36*
G01*
X-10415920Y-37272120D02*
X-10020920Y-37272120D01*
G75*
G02*
X-9848420Y-37444620I0J-172500D01*
G01*
X-9848420Y-37789620D01*
G75*
G02*
X-10020920Y-37962120I-172500J0D01*
G01*
X-10415920Y-37962120D01*
G75*
G02*
X-10588420Y-37789620I0J172500D01*
G01*
X-10588420Y-37444620D01*
G75*
G02*
X-10415920Y-37272120I172500J0D01*
G01*
G37*
G36*
G01*
X-10415920Y-36302120D02*
X-10020920Y-36302120D01*
G75*
G02*
X-9848420Y-36474620I0J-172500D01*
G01*
X-9848420Y-36819620D01*
G75*
G02*
X-10020920Y-36992120I-172500J0D01*
G01*
X-10415920Y-36992120D01*
G75*
G02*
X-10588420Y-36819620I0J172500D01*
G01*
X-10588420Y-36474620D01*
G75*
G02*
X-10415920Y-36302120I172500J0D01*
G01*
G37*
G36*
G01*
X-7894480Y-12350100D02*
X-7894480Y-12745100D01*
G75*
G02*
X-8066980Y-12917600I-172500J0D01*
G01*
X-8411980Y-12917600D01*
G75*
G02*
X-8584480Y-12745100I0J172500D01*
G01*
X-8584480Y-12350100D01*
G75*
G02*
X-8411980Y-12177600I172500J0D01*
G01*
X-8066980Y-12177600D01*
G75*
G02*
X-7894480Y-12350100I0J-172500D01*
G01*
G37*
G36*
G01*
X-6924480Y-12350100D02*
X-6924480Y-12745100D01*
G75*
G02*
X-7096980Y-12917600I-172500J0D01*
G01*
X-7441980Y-12917600D01*
G75*
G02*
X-7614480Y-12745100I0J172500D01*
G01*
X-7614480Y-12350100D01*
G75*
G02*
X-7441980Y-12177600I172500J0D01*
G01*
X-7096980Y-12177600D01*
G75*
G02*
X-6924480Y-12350100I0J-172500D01*
G01*
G37*
G36*
G01*
X-15923880Y-36949220D02*
X-16318880Y-36949220D01*
G75*
G02*
X-16491380Y-36776720I0J172500D01*
G01*
X-16491380Y-36431720D01*
G75*
G02*
X-16318880Y-36259220I172500J0D01*
G01*
X-15923880Y-36259220D01*
G75*
G02*
X-15751380Y-36431720I0J-172500D01*
G01*
X-15751380Y-36776720D01*
G75*
G02*
X-15923880Y-36949220I-172500J0D01*
G01*
G37*
G36*
G01*
X-15923880Y-37919220D02*
X-16318880Y-37919220D01*
G75*
G02*
X-16491380Y-37746720I0J172500D01*
G01*
X-16491380Y-37401720D01*
G75*
G02*
X-16318880Y-37229220I172500J0D01*
G01*
X-15923880Y-37229220D01*
G75*
G02*
X-15751380Y-37401720I0J-172500D01*
G01*
X-15751380Y-37746720D01*
G75*
G02*
X-15923880Y-37919220I-172500J0D01*
G01*
G37*
G36*
G01*
X-12422520Y-37493380D02*
X-12027520Y-37493380D01*
G75*
G02*
X-11855020Y-37665880I0J-172500D01*
G01*
X-11855020Y-38010880D01*
G75*
G02*
X-12027520Y-38183380I-172500J0D01*
G01*
X-12422520Y-38183380D01*
G75*
G02*
X-12595020Y-38010880I0J172500D01*
G01*
X-12595020Y-37665880D01*
G75*
G02*
X-12422520Y-37493380I172500J0D01*
G01*
G37*
G36*
G01*
X-12422520Y-36523380D02*
X-12027520Y-36523380D01*
G75*
G02*
X-11855020Y-36695880I0J-172500D01*
G01*
X-11855020Y-37040880D01*
G75*
G02*
X-12027520Y-37213380I-172500J0D01*
G01*
X-12422520Y-37213380D01*
G75*
G02*
X-12595020Y-37040880I0J172500D01*
G01*
X-12595020Y-36695880D01*
G75*
G02*
X-12422520Y-36523380I172500J0D01*
G01*
G37*
G36*
G01*
X-8584760Y-13908420D02*
X-8584760Y-13513420D01*
G75*
G02*
X-8412260Y-13340920I172500J0D01*
G01*
X-8067260Y-13340920D01*
G75*
G02*
X-7894760Y-13513420I0J-172500D01*
G01*
X-7894760Y-13908420D01*
G75*
G02*
X-8067260Y-14080920I-172500J0D01*
G01*
X-8412260Y-14080920D01*
G75*
G02*
X-8584760Y-13908420I0J172500D01*
G01*
G37*
G36*
G01*
X-9554760Y-13908420D02*
X-9554760Y-13513420D01*
G75*
G02*
X-9382260Y-13340920I172500J0D01*
G01*
X-9037260Y-13340920D01*
G75*
G02*
X-8864760Y-13513420I0J-172500D01*
G01*
X-8864760Y-13908420D01*
G75*
G02*
X-9037260Y-14080920I-172500J0D01*
G01*
X-9382260Y-14080920D01*
G75*
G02*
X-9554760Y-13908420I0J172500D01*
G01*
G37*
G36*
G01*
X-1885120Y-35771440D02*
X-1885120Y-36166440D01*
G75*
G02*
X-2057620Y-36338940I-172500J0D01*
G01*
X-2402620Y-36338940D01*
G75*
G02*
X-2575120Y-36166440I0J172500D01*
G01*
X-2575120Y-35771440D01*
G75*
G02*
X-2402620Y-35598940I172500J0D01*
G01*
X-2057620Y-35598940D01*
G75*
G02*
X-1885120Y-35771440I0J-172500D01*
G01*
G37*
G36*
G01*
X-915120Y-35771440D02*
X-915120Y-36166440D01*
G75*
G02*
X-1087620Y-36338940I-172500J0D01*
G01*
X-1432620Y-36338940D01*
G75*
G02*
X-1605120Y-36166440I0J172500D01*
G01*
X-1605120Y-35771440D01*
G75*
G02*
X-1432620Y-35598940I172500J0D01*
G01*
X-1087620Y-35598940D01*
G75*
G02*
X-915120Y-35771440I0J-172500D01*
G01*
G37*
G36*
G01*
X-1885120Y-34699560D02*
X-1885120Y-35094560D01*
G75*
G02*
X-2057620Y-35267060I-172500J0D01*
G01*
X-2402620Y-35267060D01*
G75*
G02*
X-2575120Y-35094560I0J172500D01*
G01*
X-2575120Y-34699560D01*
G75*
G02*
X-2402620Y-34527060I172500J0D01*
G01*
X-2057620Y-34527060D01*
G75*
G02*
X-1885120Y-34699560I0J-172500D01*
G01*
G37*
G36*
G01*
X-915120Y-34699560D02*
X-915120Y-35094560D01*
G75*
G02*
X-1087620Y-35267060I-172500J0D01*
G01*
X-1432620Y-35267060D01*
G75*
G02*
X-1605120Y-35094560I0J172500D01*
G01*
X-1605120Y-34699560D01*
G75*
G02*
X-1432620Y-34527060I172500J0D01*
G01*
X-1087620Y-34527060D01*
G75*
G02*
X-915120Y-34699560I0J-172500D01*
G01*
G37*
G36*
G01*
X-16461300Y-35704160D02*
X-16461300Y-35309160D01*
G75*
G02*
X-16288800Y-35136660I172500J0D01*
G01*
X-15943800Y-35136660D01*
G75*
G02*
X-15771300Y-35309160I0J-172500D01*
G01*
X-15771300Y-35704160D01*
G75*
G02*
X-15943800Y-35876660I-172500J0D01*
G01*
X-16288800Y-35876660D01*
G75*
G02*
X-16461300Y-35704160I0J172500D01*
G01*
G37*
G36*
G01*
X-17431300Y-35704160D02*
X-17431300Y-35309160D01*
G75*
G02*
X-17258800Y-35136660I172500J0D01*
G01*
X-16913800Y-35136660D01*
G75*
G02*
X-16741300Y-35309160I0J-172500D01*
G01*
X-16741300Y-35704160D01*
G75*
G02*
X-16913800Y-35876660I-172500J0D01*
G01*
X-17258800Y-35876660D01*
G75*
G02*
X-17431300Y-35704160I0J172500D01*
G01*
G37*
G36*
G01*
X-12529380Y-35945460D02*
X-12529380Y-35550460D01*
G75*
G02*
X-12356880Y-35377960I172500J0D01*
G01*
X-12011880Y-35377960D01*
G75*
G02*
X-11839380Y-35550460I0J-172500D01*
G01*
X-11839380Y-35945460D01*
G75*
G02*
X-12011880Y-36117960I-172500J0D01*
G01*
X-12356880Y-36117960D01*
G75*
G02*
X-12529380Y-35945460I0J172500D01*
G01*
G37*
G36*
G01*
X-13499380Y-35945460D02*
X-13499380Y-35550460D01*
G75*
G02*
X-13326880Y-35377960I172500J0D01*
G01*
X-12981880Y-35377960D01*
G75*
G02*
X-12809380Y-35550460I0J-172500D01*
G01*
X-12809380Y-35945460D01*
G75*
G02*
X-12981880Y-36117960I-172500J0D01*
G01*
X-13326880Y-36117960D01*
G75*
G02*
X-13499380Y-35945460I0J172500D01*
G01*
G37*
D10*
X11333480Y-19273520D03*
D12*
X12702540Y-25318720D03*
G36*
G01*
X17052540Y-24518720D02*
X17052540Y-26118720D01*
G75*
G02*
X17002540Y-26168720I-50000J0D01*
G01*
X15402540Y-26168720D01*
G75*
G02*
X15352540Y-26118720I0J50000D01*
G01*
X15352540Y-24518720D01*
G75*
G02*
X15402540Y-24468720I50000J0D01*
G01*
X17002540Y-24468720D01*
G75*
G02*
X17052540Y-24518720I0J-50000D01*
G01*
G37*
X12722860Y-33962340D03*
G36*
G01*
X17072860Y-33162340D02*
X17072860Y-34762340D01*
G75*
G02*
X17022860Y-34812340I-50000J0D01*
G01*
X15422860Y-34812340D01*
G75*
G02*
X15372860Y-34762340I0J50000D01*
G01*
X15372860Y-33162340D01*
G75*
G02*
X15422860Y-33112340I50000J0D01*
G01*
X17022860Y-33112340D01*
G75*
G02*
X17072860Y-33162340I0J-50000D01*
G01*
G37*
G36*
G01*
X12157500Y-40285000D02*
X11762500Y-40285000D01*
G75*
G02*
X11590000Y-40112500I0J172500D01*
G01*
X11590000Y-39767500D01*
G75*
G02*
X11762500Y-39595000I172500J0D01*
G01*
X12157500Y-39595000D01*
G75*
G02*
X12330000Y-39767500I0J-172500D01*
G01*
X12330000Y-40112500D01*
G75*
G02*
X12157500Y-40285000I-172500J0D01*
G01*
G37*
G36*
G01*
X12157500Y-41255000D02*
X11762500Y-41255000D01*
G75*
G02*
X11590000Y-41082500I0J172500D01*
G01*
X11590000Y-40737500D01*
G75*
G02*
X11762500Y-40565000I172500J0D01*
G01*
X12157500Y-40565000D01*
G75*
G02*
X12330000Y-40737500I0J-172500D01*
G01*
X12330000Y-41082500D01*
G75*
G02*
X12157500Y-41255000I-172500J0D01*
G01*
G37*
G36*
G01*
X9575000Y-44847500D02*
X9575000Y-44452500D01*
G75*
G02*
X9747500Y-44280000I172500J0D01*
G01*
X10092500Y-44280000D01*
G75*
G02*
X10265000Y-44452500I0J-172500D01*
G01*
X10265000Y-44847500D01*
G75*
G02*
X10092500Y-45020000I-172500J0D01*
G01*
X9747500Y-45020000D01*
G75*
G02*
X9575000Y-44847500I0J172500D01*
G01*
G37*
G36*
G01*
X8605000Y-44847500D02*
X8605000Y-44452500D01*
G75*
G02*
X8777500Y-44280000I172500J0D01*
G01*
X9122500Y-44280000D01*
G75*
G02*
X9295000Y-44452500I0J-172500D01*
G01*
X9295000Y-44847500D01*
G75*
G02*
X9122500Y-45020000I-172500J0D01*
G01*
X8777500Y-45020000D01*
G75*
G02*
X8605000Y-44847500I0J172500D01*
G01*
G37*
G36*
G01*
X12115000Y-48047500D02*
X12115000Y-47652500D01*
G75*
G02*
X12287500Y-47480000I172500J0D01*
G01*
X12632500Y-47480000D01*
G75*
G02*
X12805000Y-47652500I0J-172500D01*
G01*
X12805000Y-48047500D01*
G75*
G02*
X12632500Y-48220000I-172500J0D01*
G01*
X12287500Y-48220000D01*
G75*
G02*
X12115000Y-48047500I0J172500D01*
G01*
G37*
G36*
G01*
X11145000Y-48047500D02*
X11145000Y-47652500D01*
G75*
G02*
X11317500Y-47480000I172500J0D01*
G01*
X11662500Y-47480000D01*
G75*
G02*
X11835000Y-47652500I0J-172500D01*
G01*
X11835000Y-48047500D01*
G75*
G02*
X11662500Y-48220000I-172500J0D01*
G01*
X11317500Y-48220000D01*
G75*
G02*
X11145000Y-48047500I0J172500D01*
G01*
G37*
X8315840Y-39116000D03*
G36*
G01*
X3965840Y-39916000D02*
X3965840Y-38316000D01*
G75*
G02*
X4015840Y-38266000I50000J0D01*
G01*
X5615840Y-38266000D01*
G75*
G02*
X5665840Y-38316000I0J-50000D01*
G01*
X5665840Y-39916000D01*
G75*
G02*
X5615840Y-39966000I-50000J0D01*
G01*
X4015840Y-39966000D01*
G75*
G02*
X3965840Y-39916000I0J50000D01*
G01*
G37*
G36*
G01*
X13671250Y-50407500D02*
X12708750Y-50407500D01*
G75*
G02*
X12440000Y-50138750I0J268750D01*
G01*
X12440000Y-49601250D01*
G75*
G02*
X12708750Y-49332500I268750J0D01*
G01*
X13671250Y-49332500D01*
G75*
G02*
X13940000Y-49601250I0J-268750D01*
G01*
X13940000Y-50138750D01*
G75*
G02*
X13671250Y-50407500I-268750J0D01*
G01*
G37*
G36*
G01*
X13671250Y-52282500D02*
X12708750Y-52282500D01*
G75*
G02*
X12440000Y-52013750I0J268750D01*
G01*
X12440000Y-51476250D01*
G75*
G02*
X12708750Y-51207500I268750J0D01*
G01*
X13671250Y-51207500D01*
G75*
G02*
X13940000Y-51476250I0J-268750D01*
G01*
X13940000Y-52013750D01*
G75*
G02*
X13671250Y-52282500I-268750J0D01*
G01*
G37*
G36*
G01*
X11761250Y-50417500D02*
X11198750Y-50417500D01*
G75*
G02*
X10955000Y-50173750I0J243750D01*
G01*
X10955000Y-49686250D01*
G75*
G02*
X11198750Y-49442500I243750J0D01*
G01*
X11761250Y-49442500D01*
G75*
G02*
X12005000Y-49686250I0J-243750D01*
G01*
X12005000Y-50173750D01*
G75*
G02*
X11761250Y-50417500I-243750J0D01*
G01*
G37*
G36*
G01*
X11761250Y-51992500D02*
X11198750Y-51992500D01*
G75*
G02*
X10955000Y-51748750I0J243750D01*
G01*
X10955000Y-51261250D01*
G75*
G02*
X11198750Y-51017500I243750J0D01*
G01*
X11761250Y-51017500D01*
G75*
G02*
X12005000Y-51261250I0J-243750D01*
G01*
X12005000Y-51748750D01*
G75*
G02*
X11761250Y-51992500I-243750J0D01*
G01*
G37*
G36*
G01*
X9575000Y-45977500D02*
X9575000Y-45582500D01*
G75*
G02*
X9747500Y-45410000I172500J0D01*
G01*
X10092500Y-45410000D01*
G75*
G02*
X10265000Y-45582500I0J-172500D01*
G01*
X10265000Y-45977500D01*
G75*
G02*
X10092500Y-46150000I-172500J0D01*
G01*
X9747500Y-46150000D01*
G75*
G02*
X9575000Y-45977500I0J172500D01*
G01*
G37*
G36*
G01*
X8605000Y-45977500D02*
X8605000Y-45582500D01*
G75*
G02*
X8777500Y-45410000I172500J0D01*
G01*
X9122500Y-45410000D01*
G75*
G02*
X9295000Y-45582500I0J-172500D01*
G01*
X9295000Y-45977500D01*
G75*
G02*
X9122500Y-46150000I-172500J0D01*
G01*
X8777500Y-46150000D01*
G75*
G02*
X8605000Y-45977500I0J172500D01*
G01*
G37*
G36*
G01*
X15414070Y-42434700D02*
X16376570Y-42434700D01*
G75*
G02*
X16645320Y-42703450I0J-268750D01*
G01*
X16645320Y-43240950D01*
G75*
G02*
X16376570Y-43509700I-268750J0D01*
G01*
X15414070Y-43509700D01*
G75*
G02*
X15145320Y-43240950I0J268750D01*
G01*
X15145320Y-42703450D01*
G75*
G02*
X15414070Y-42434700I268750J0D01*
G01*
G37*
G36*
G01*
X15414070Y-40559700D02*
X16376570Y-40559700D01*
G75*
G02*
X16645320Y-40828450I0J-268750D01*
G01*
X16645320Y-41365950D01*
G75*
G02*
X16376570Y-41634700I-268750J0D01*
G01*
X15414070Y-41634700D01*
G75*
G02*
X15145320Y-41365950I0J268750D01*
G01*
X15145320Y-40828450D01*
G75*
G02*
X15414070Y-40559700I268750J0D01*
G01*
G37*
G36*
G01*
X17539390Y-42138880D02*
X18101890Y-42138880D01*
G75*
G02*
X18345640Y-42382630I0J-243750D01*
G01*
X18345640Y-42870130D01*
G75*
G02*
X18101890Y-43113880I-243750J0D01*
G01*
X17539390Y-43113880D01*
G75*
G02*
X17295640Y-42870130I0J243750D01*
G01*
X17295640Y-42382630D01*
G75*
G02*
X17539390Y-42138880I243750J0D01*
G01*
G37*
G36*
G01*
X17539390Y-40563880D02*
X18101890Y-40563880D01*
G75*
G02*
X18345640Y-40807630I0J-243750D01*
G01*
X18345640Y-41295130D01*
G75*
G02*
X18101890Y-41538880I-243750J0D01*
G01*
X17539390Y-41538880D01*
G75*
G02*
X17295640Y-41295130I0J243750D01*
G01*
X17295640Y-40807630D01*
G75*
G02*
X17539390Y-40563880I243750J0D01*
G01*
G37*
D13*
X-17000000Y-57000000D03*
D14*
X12040000Y-57390000D03*
X-12948920Y-58592720D03*
X-17090000Y2220000D03*
D13*
X17000000Y-57000000D03*
G36*
G01*
X-6279500Y-5133040D02*
X-6674500Y-5133040D01*
G75*
G02*
X-6847000Y-4960540I0J172500D01*
G01*
X-6847000Y-4615540D01*
G75*
G02*
X-6674500Y-4443040I172500J0D01*
G01*
X-6279500Y-4443040D01*
G75*
G02*
X-6107000Y-4615540I0J-172500D01*
G01*
X-6107000Y-4960540D01*
G75*
G02*
X-6279500Y-5133040I-172500J0D01*
G01*
G37*
G36*
G01*
X-6279500Y-6103040D02*
X-6674500Y-6103040D01*
G75*
G02*
X-6847000Y-5930540I0J172500D01*
G01*
X-6847000Y-5585540D01*
G75*
G02*
X-6674500Y-5413040I172500J0D01*
G01*
X-6279500Y-5413040D01*
G75*
G02*
X-6107000Y-5585540I0J-172500D01*
G01*
X-6107000Y-5930540D01*
G75*
G02*
X-6279500Y-6103040I-172500J0D01*
G01*
G37*
G36*
G01*
X-5080620Y-5120480D02*
X-5475620Y-5120480D01*
G75*
G02*
X-5648120Y-4947980I0J172500D01*
G01*
X-5648120Y-4602980D01*
G75*
G02*
X-5475620Y-4430480I172500J0D01*
G01*
X-5080620Y-4430480D01*
G75*
G02*
X-4908120Y-4602980I0J-172500D01*
G01*
X-4908120Y-4947980D01*
G75*
G02*
X-5080620Y-5120480I-172500J0D01*
G01*
G37*
G36*
G01*
X-5080620Y-6090480D02*
X-5475620Y-6090480D01*
G75*
G02*
X-5648120Y-5917980I0J172500D01*
G01*
X-5648120Y-5572980D01*
G75*
G02*
X-5475620Y-5400480I172500J0D01*
G01*
X-5080620Y-5400480D01*
G75*
G02*
X-4908120Y-5572980I0J-172500D01*
G01*
X-4908120Y-5917980D01*
G75*
G02*
X-5080620Y-6090480I-172500J0D01*
G01*
G37*
M02*
