G04 #@! TF.GenerationSoftware,KiCad,Pcbnew,(5.1.10)-1*
G04 #@! TF.CreationDate,2022-03-11T13:30:57+05:30*
G04 #@! TF.ProjectId,P-1000072_Cicada Wi-Fi,502d3130-3030-4303-9732-5f4369636164,0.1*
G04 #@! TF.SameCoordinates,PX7cee6c0PY3dfd240*
G04 #@! TF.FileFunction,Other,User*
%FSLAX46Y46*%
G04 Gerber Fmt 4.6, Leading zero omitted, Abs format (unit mm)*
G04 Created by KiCad (PCBNEW (5.1.10)-1) date 2022-03-11 13:30:57*
%MOMM*%
%LPD*%
G01*
G04 APERTURE LIST*
%ADD10C,0.050000*%
G04 APERTURE END LIST*
D10*
X-11130000Y-4900000D02*
G75*
G03*
X-11130000Y-4900000I-1000000J0D01*
G01*
X6820000Y-10570000D02*
G75*
G03*
X6820000Y-10570000I-1000000J0D01*
G01*
X-11110000Y-7790000D02*
G75*
G03*
X-11110000Y-7790000I-1000000J0D01*
G01*
X2590000Y-10570000D02*
G75*
G03*
X2590000Y-10570000I-1000000J0D01*
G01*
X1797560Y-16347440D02*
G75*
G03*
X1797560Y-16347440I-1000000J0D01*
G01*
X-13269720Y-35745420D02*
G75*
G03*
X-13269720Y-35745420I-1000000J0D01*
G01*
X-11255500Y-37754560D02*
G75*
G03*
X-11255500Y-37754560I-1000000J0D01*
G01*
X-8697720Y-39151560D02*
G75*
G03*
X-8697720Y-39151560I-1000000J0D01*
G01*
X4622040Y-15138400D02*
G75*
G03*
X4622040Y-15138400I-1000000J0D01*
G01*
X6008880Y-16687800D02*
G75*
G03*
X6008880Y-16687800I-1000000J0D01*
G01*
X15740000Y-17470000D02*
G75*
G03*
X15740000Y-17470000I-1250000J0D01*
G01*
X10600000Y-8870000D02*
G75*
G03*
X10600000Y-8870000I-1000000J0D01*
G01*
X13195400Y3044600D02*
X-13204600Y3044600D01*
X13195400Y-3055400D02*
X13195400Y3044600D01*
X-13204600Y-3055400D02*
X13195400Y-3055400D01*
X-13204600Y3044600D02*
X-13204600Y-3055400D01*
X2020000Y-35390000D02*
G75*
G03*
X2020000Y-35390000I-1000000J0D01*
G01*
X9204200Y-16454120D02*
G75*
G03*
X9204200Y-16454120I-1000000J0D01*
G01*
X13281980Y-57343040D02*
G75*
G03*
X13281980Y-57343040I-1250000J0D01*
G01*
X-11714160Y-58587640D02*
G75*
G03*
X-11714160Y-58587640I-1250000J0D01*
G01*
X-15846740Y2212340D02*
G75*
G03*
X-15846740Y2212340I-1250000J0D01*
G01*
M02*
