M48
; DRILL file {KiCad (5.1.10)-1} date 11/22/21 18:43:42
; FORMAT={-:-/ absolute / metric / decimal}
; #@! TF.CreationDate,2021-11-22T18:43:42+05:30
; #@! TF.GenerationSoftware,Kicad,Pcbnew,(5.1.10)-1
; #@! TF.FileFunction,Plated,1,2,PTH
FMAT,2
METRIC
T1C0.300
T2C0.400
T3C0.800
T4C1.000
T5C3.200
%
G90
G05
T1
X-0.986Y-49.515
X11.956Y-41.961
T2
X-19.365Y1.89
X-19.334Y-38.781
X-19.299Y-40.3
X-19.296Y-37.315
X-19.223Y-45.019
X-19.213Y-41.991
X-19.213Y-49.576
X-19.197Y-47.127
X-19.172Y-43.414
X-19.136Y-51.709
X-19.04Y-53.939
X-17.729Y-53.665
X-17.125Y4.105
X-17.089Y-37.226
X-16.749Y-44.079
X-16.505Y-53.523
X-16.485Y-34.524
X-16.337Y-47.036
X-16.19Y-39.919
X-15.773Y-41.813
X-15.484Y0.711
X-15.273Y-34.483
X-14.976Y2.789
X-14.94Y-53.868
X-14.813Y-37.285
X-14.661Y-49.373
X-14.514Y4.227
X-14.432Y-42.083
X-14.236Y-34.487
X-14.031Y-54.661
X-13.299Y-55.86
X-13.0Y-42.159
X-12.949Y-48.067
X-12.832Y-51.882
X-12.548Y-45.547
X-12.258Y-34.585
X-12.162Y4.211
X-12.03Y-9.16
X-11.882Y-57.292
X-11.689Y-42.103
X-11.384Y-44.079
X-11.318Y-11.582
X-10.79Y-59.228
X-10.602Y-5.09
X-10.409Y-41.961
X-10.272Y-7.087
X-10.211Y4.227
X-10.15Y-53.335
X-9.972Y-50.074
X-9.743Y-8.27
X-9.642Y-59.019
X-9.403Y-4.491
X-9.261Y-14.808
X-8.905Y-41.925
X-8.898Y-37.617
X-8.453Y-57.196
X-8.392Y-59.136
X-8.255Y-10.673
X-8.245Y-8.306
X-8.016Y-44.79
X-7.757Y-36.825
X-7.732Y-47.945
X-7.422Y-41.869
X-7.386Y4.262
X-7.305Y-52.385
X-7.29Y-54.92
X-6.985Y-7.356
X-6.624Y-59.106
X-6.477Y-3.967
X-6.02Y-41.819
X-5.847Y-6.797
X-5.4Y-49.154
X-5.309Y-59.273
X-5.278Y-3.231
X-5.029Y-47.686
X-4.973Y-34.508
X-4.775Y-55.971
X-4.77Y4.298
X-4.669Y-53.741
X-4.572Y-43.531
X-4.521Y-7.945
X-4.486Y-41.9
X-3.785Y-6.06
X-3.439Y-54.392
X-3.287Y-59.304
X-3.104Y-11.704
X-2.926Y-41.844
X-2.347Y4.125
X-2.205Y-14.026
X-2.032Y-57.313
X-1.869Y-54.32
X-1.554Y-46.401
X-1.491Y-39.566
X-1.443Y-41.844
X-1.407Y-44.907
X-1.402Y-43.322
X-1.392Y-59.223
X-1.372Y-52.614
X-1.265Y-47.874
X-1.245Y-3.855
X-1.189Y-11.867
X-1.138Y-50.881
X-0.818Y-15.301
X-0.706Y-31.623
X-0.564Y-17.013
X-0.538Y-54.422
X-0.518Y-33.604
X-0.291Y-6.249
X-0.22Y-10.41
X-0.046Y-18.877
X0.03Y-21.57
X0.036Y-26.436
X0.112Y-23.713
X0.188Y-28.326
X0.3Y-30.256
X0.356Y-35.524
X0.478Y-55.91
X0.574Y-59.157
X0.584Y-13.955
X0.599Y-5.07
X0.605Y-32.913
X0.864Y-54.422
X0.955Y-19.614
X1.35Y-3.54
X1.443Y-24.872
X1.473Y-30.353
X1.529Y-57.953
X1.6Y-20.721
X1.6Y-31.913
X1.602Y-6.76
X1.631Y-34.082
X1.661Y-27.142
X1.692Y-17.709
X1.722Y-22.382
X2.027Y-54.392
X2.662Y-59.167
X2.82Y-3.9
X3.002Y-11.989
X3.104Y-55.971
X3.393Y-54.356
X3.42Y-5.25
X3.805Y-57.78
X3.876Y-59.192
X4.54Y-3.66
X4.77Y-18.43
X4.917Y-54.508
X5.05Y-6.76
X5.248Y-59.177
X5.441Y-56.088
X6.609Y-59.111
X6.812Y-54.219
X6.838Y-57.018
X7.021Y3.048
X7.777Y-5.072
X7.945Y-59.197
X7.96Y-27.803
X7.963Y-3.787
X8.026Y-11.938
X8.118Y-33.233
X8.204Y-18.171
X8.255Y-24.597
X8.418Y-36.322
X8.418Y-57.953
X8.692Y-54.392
X8.942Y-6.76
X8.951Y-41.88
X9.174Y-55.677
X9.728Y-59.182
X9.795Y-12.945
X9.987Y-26.599
X10.048Y-17.602
X10.094Y-57.628
X10.15Y-4.44
X10.165Y-15.235
X10.282Y-31.801
X10.465Y-54.422
X10.582Y-49.911
X10.61Y-47.808
X10.714Y-55.992
X10.72Y-10.41
X10.927Y-49.078
X10.932Y-35.057
X10.973Y-59.136
X11.213Y-6.76
X11.326Y-23.035
X11.34Y-14.13
X11.506Y-21.133
X11.557Y-28.986
X12.035Y-38.339
X12.075Y-48.981
X12.177Y-54.458
X12.38Y-4.69
X12.522Y-59.207
X12.59Y-17.46
X13.076Y-30.927
X13.078Y2.256
X13.111Y-48.875
X13.213Y-54.447
X13.24Y-0.59
X13.487Y-23.485
X13.487Y-56.713
X13.508Y-21.092
X13.538Y-57.81
X13.6Y-2.84
X13.701Y-27.249
X13.767Y-55.738
X13.777Y-29.225
X13.929Y-59.233
X14.027Y-6.76
X14.102Y-48.595
X14.138Y-47.635
X14.321Y-54.117
X14.346Y-36.581
X14.39Y1.33
X15.314Y-14.989
X15.32Y-9.206
X15.32Y-11.3
X15.413Y-0.079
X15.47Y-1.9
X16.43Y-4.5
X16.571Y-44.323
X16.71Y-12.96
X16.79Y0.49
X16.81Y-6.29
X17.506Y-16.82
X17.795Y-14.874
X17.831Y-39.182
X18.06Y-10.38
X18.166Y-22.708
X18.303Y-37.572
X18.339Y-20.447
X18.633Y-16.154
X18.684Y-44.049
X18.781Y-18.552
X18.872Y-29.571
X18.872Y-34.163
X18.918Y-25.71
X19.08Y-21.636
X19.162Y-31.638
X19.167Y-23.846
X19.182Y-27.793
X19.253Y-39.558
X19.274Y-12.771
X19.395Y-36.292
T3
X4.74Y-21.798
X4.78Y-30.457
X4.816Y-39.116
X8.24Y-21.798
X8.28Y-30.457
X8.316Y-39.116
X12.703Y-25.319
X12.723Y-33.962
X16.203Y-25.319
X16.223Y-33.962
T4
X-11.405Y1.245
X-11.405Y-1.295
X-8.865Y1.245
X-8.865Y-1.295
X-6.325Y1.245
X-6.325Y-1.295
X-3.785Y1.245
X-3.785Y-1.295
X-1.245Y1.245
X-1.245Y-1.295
X1.295Y1.245
X1.295Y-1.295
X3.835Y1.245
X3.835Y-1.295
X6.375Y1.245
X6.375Y-1.295
X8.915Y1.245
X8.915Y-1.295
X11.455Y1.245
X11.455Y-1.295
T5
X-17.0Y-57.0
X17.0Y-57.0
T0
M30
