G04 #@! TF.GenerationSoftware,KiCad,Pcbnew,(5.1.10)-1*
G04 #@! TF.CreationDate,2021-11-03T08:24:22+05:30*
G04 #@! TF.ProjectId,P-1000072_Cicada Wi-Fi,502d3130-3030-4303-9732-5f4369636164,0.1*
G04 #@! TF.SameCoordinates,PX7cee6c0PY3dfd240*
G04 #@! TF.FileFunction,Legend,Bot*
G04 #@! TF.FilePolarity,Positive*
%FSLAX46Y46*%
G04 Gerber Fmt 4.6, Leading zero omitted, Abs format (unit mm)*
G04 Created by KiCad (PCBNEW (5.1.10)-1) date 2021-11-03 08:24:22*
%MOMM*%
%LPD*%
G01*
G04 APERTURE LIST*
%ADD10C,0.120000*%
%ADD11C,0.150000*%
%ADD12C,0.100000*%
G04 APERTURE END LIST*
D10*
X-12734600Y2574600D02*
X-12734600Y-25400D01*
X-12734600Y2574600D02*
X12785400Y2574600D01*
X12785400Y2574600D02*
X12785400Y-2625400D01*
X-10134600Y-2625400D02*
X12785400Y-2625400D01*
X-10134600Y-25400D02*
X-10134600Y-2625400D01*
X-12734600Y-25400D02*
X-10134600Y-25400D01*
X-12734600Y-2625400D02*
X-11404600Y-2625400D01*
X-12734600Y-1295400D02*
X-12734600Y-2625400D01*
X-736560Y-37688520D02*
G75*
G03*
X-736560Y-37688520I-950000J0D01*
G01*
X-11305500Y-37754560D02*
G75*
G03*
X-11305500Y-37754560I-950000J0D01*
G01*
X1691680Y-17139920D02*
G75*
G03*
X1691680Y-17139920I-950000J0D01*
G01*
X-13319720Y-35745420D02*
G75*
G03*
X-13319720Y-35745420I-950000J0D01*
G01*
X6770000Y-10570000D02*
G75*
G03*
X6770000Y-10570000I-950000J0D01*
G01*
X2540000Y-10570000D02*
G75*
G03*
X2540000Y-10570000I-950000J0D01*
G01*
X-11180000Y-4900000D02*
G75*
G03*
X-11180000Y-4900000I-950000J0D01*
G01*
X-11160000Y-7790000D02*
G75*
G03*
X-11160000Y-7790000I-950000J0D01*
G01*
X13580000Y-15460000D02*
G75*
G03*
X13580000Y-15460000I-950000J0D01*
G01*
X10550000Y-8870000D02*
G75*
G03*
X10550000Y-8870000I-950000J0D01*
G01*
D11*
X-14722220Y307934D02*
X-14007934Y307934D01*
X-13865077Y355553D01*
X-13769839Y450791D01*
X-13722220Y593648D01*
X-13722220Y688886D01*
X-14722220Y-73019D02*
X-14722220Y-692066D01*
X-14341267Y-358733D01*
X-14341267Y-501590D01*
X-14293648Y-596828D01*
X-14246029Y-644447D01*
X-14150791Y-692066D01*
X-13912696Y-692066D01*
X-13817458Y-644447D01*
X-13769839Y-596828D01*
X-13722220Y-501590D01*
X-13722220Y-215876D01*
X-13769839Y-120638D01*
X-13817458Y-73019D01*
X-496084Y-35390900D02*
X-829418Y-36390900D01*
X-1162751Y-35390900D01*
X-1924656Y-36343281D02*
X-1829418Y-36390900D01*
X-1638941Y-36390900D01*
X-1543703Y-36343281D01*
X-1496084Y-36295662D01*
X-1448465Y-36200424D01*
X-1448465Y-35914710D01*
X-1496084Y-35819472D01*
X-1543703Y-35771853D01*
X-1638941Y-35724234D01*
X-1829418Y-35724234D01*
X-1924656Y-35771853D01*
X-2781799Y-36343281D02*
X-2686560Y-36390900D01*
X-2496084Y-36390900D01*
X-2400846Y-36343281D01*
X-2353227Y-36295662D01*
X-2305608Y-36200424D01*
X-2305608Y-35914710D01*
X-2353227Y-35819472D01*
X-2400846Y-35771853D01*
X-2496084Y-35724234D01*
X-2686560Y-35724234D01*
X-2781799Y-35771853D01*
D12*
X-11911853Y-39255545D02*
X-12078520Y-39255545D01*
X-12149948Y-39517450D02*
X-11911853Y-39517450D01*
X-11911853Y-39017450D01*
X-12149948Y-39017450D01*
X-12364234Y-39517450D02*
X-12364234Y-39017450D01*
X-12649948Y-39517450D01*
X-12649948Y-39017450D01*
X1117012Y-15434580D02*
X1164631Y-15410770D01*
X1236060Y-15410770D01*
X1307488Y-15434580D01*
X1355107Y-15482199D01*
X1378917Y-15529818D01*
X1402726Y-15625056D01*
X1402726Y-15696484D01*
X1378917Y-15791722D01*
X1355107Y-15839341D01*
X1307488Y-15886960D01*
X1236060Y-15910770D01*
X1188440Y-15910770D01*
X1117012Y-15886960D01*
X1093202Y-15863151D01*
X1093202Y-15696484D01*
X1188440Y-15696484D01*
X878917Y-15910770D02*
X878917Y-15410770D01*
X593202Y-15910770D01*
X593202Y-15410770D01*
X355107Y-15910770D02*
X355107Y-15410770D01*
X236060Y-15410770D01*
X164631Y-15434580D01*
X117012Y-15482199D01*
X93202Y-15529818D01*
X69393Y-15625056D01*
X69393Y-15696484D01*
X93202Y-15791722D01*
X117012Y-15839341D01*
X164631Y-15886960D01*
X236060Y-15910770D01*
X355107Y-15910770D01*
X-14337814Y-34545827D02*
X-14337814Y-34307732D01*
X-14480671Y-34593446D02*
X-13980671Y-34426780D01*
X-14480671Y-34260113D01*
X-14480671Y-34093446D02*
X-13980671Y-34093446D01*
X-13980671Y-33974399D01*
X-14004480Y-33902970D01*
X-14052100Y-33855351D01*
X-14099719Y-33831541D01*
X-14194957Y-33807732D01*
X-14266385Y-33807732D01*
X-14361623Y-33831541D01*
X-14409242Y-33855351D01*
X-14456861Y-33902970D01*
X-14480671Y-33974399D01*
X-14480671Y-34093446D01*
X-14433052Y-33307732D02*
X-14456861Y-33331541D01*
X-14480671Y-33402970D01*
X-14480671Y-33450589D01*
X-14456861Y-33522018D01*
X-14409242Y-33569637D01*
X-14361623Y-33593446D01*
X-14266385Y-33617256D01*
X-14194957Y-33617256D01*
X-14099719Y-33593446D01*
X-14052100Y-33569637D01*
X-14004480Y-33522018D01*
X-13980671Y-33450589D01*
X-13980671Y-33402970D01*
X-14004480Y-33331541D01*
X-14028290Y-33307732D01*
X5912479Y-9278750D02*
X6079145Y-9040655D01*
X6198193Y-9278750D02*
X6198193Y-8778750D01*
X6007717Y-8778750D01*
X5960098Y-8802560D01*
X5936288Y-8826369D01*
X5912479Y-8873988D01*
X5912479Y-8945417D01*
X5936288Y-8993036D01*
X5960098Y-9016845D01*
X6007717Y-9040655D01*
X6198193Y-9040655D01*
X5745812Y-9278750D02*
X5483907Y-8945417D01*
X5745812Y-8945417D02*
X5483907Y-9278750D01*
X1713859Y-9438770D02*
X1880525Y-9200675D01*
X1999573Y-9438770D02*
X1999573Y-8938770D01*
X1809097Y-8938770D01*
X1761478Y-8962580D01*
X1737668Y-8986389D01*
X1713859Y-9034008D01*
X1713859Y-9105437D01*
X1737668Y-9153056D01*
X1761478Y-9176865D01*
X1809097Y-9200675D01*
X1999573Y-9200675D01*
X1547192Y-9438770D02*
X1285287Y-9105437D01*
X1547192Y-9105437D02*
X1285287Y-9438770D01*
X-10261802Y-4514090D02*
X-10547517Y-4514090D01*
X-10404660Y-5014090D02*
X-10404660Y-4514090D01*
X-10666564Y-5014090D02*
X-10928469Y-4680757D01*
X-10666564Y-4680757D02*
X-10928469Y-5014090D01*
X-10261802Y-7567170D02*
X-10547517Y-7567170D01*
X-10404660Y-8067170D02*
X-10404660Y-7567170D01*
X-10666564Y-8067170D02*
X-10928469Y-7733837D01*
X-10666564Y-7733837D02*
X-10928469Y-8067170D01*
X-9399211Y-40798910D02*
X-9232544Y-40560815D01*
X-9113497Y-40798910D02*
X-9113497Y-40298910D01*
X-9303973Y-40298910D01*
X-9351592Y-40322720D01*
X-9375401Y-40346529D01*
X-9399211Y-40394148D01*
X-9399211Y-40465577D01*
X-9375401Y-40513196D01*
X-9351592Y-40537005D01*
X-9303973Y-40560815D01*
X-9113497Y-40560815D01*
X-9589687Y-40775100D02*
X-9661116Y-40798910D01*
X-9780163Y-40798910D01*
X-9827782Y-40775100D01*
X-9851592Y-40751291D01*
X-9875401Y-40703672D01*
X-9875401Y-40656053D01*
X-9851592Y-40608434D01*
X-9827782Y-40584624D01*
X-9780163Y-40560815D01*
X-9684925Y-40537005D01*
X-9637306Y-40513196D01*
X-9613497Y-40489386D01*
X-9589687Y-40441767D01*
X-9589687Y-40394148D01*
X-9613497Y-40346529D01*
X-9637306Y-40322720D01*
X-9684925Y-40298910D01*
X-9803973Y-40298910D01*
X-9875401Y-40322720D01*
X-10018259Y-40298910D02*
X-10303973Y-40298910D01*
X-10161116Y-40798910D02*
X-10161116Y-40298910D01*
X12692688Y-13731750D02*
X12930783Y-13731750D01*
X12954593Y-13969845D01*
X12930783Y-13946036D01*
X12883164Y-13922226D01*
X12764117Y-13922226D01*
X12716498Y-13946036D01*
X12692688Y-13969845D01*
X12668879Y-14017464D01*
X12668879Y-14136512D01*
X12692688Y-14184131D01*
X12716498Y-14207940D01*
X12764117Y-14231750D01*
X12883164Y-14231750D01*
X12930783Y-14207940D01*
X12954593Y-14184131D01*
X12502212Y-13898417D02*
X12383164Y-14231750D01*
X12264117Y-13898417D01*
X9671428Y-6846190D02*
X9909523Y-6846190D01*
X9933333Y-7084285D01*
X9909523Y-7060476D01*
X9861904Y-7036666D01*
X9742857Y-7036666D01*
X9695238Y-7060476D01*
X9671428Y-7084285D01*
X9647619Y-7131904D01*
X9647619Y-7250952D01*
X9671428Y-7298571D01*
X9695238Y-7322380D01*
X9742857Y-7346190D01*
X9861904Y-7346190D01*
X9909523Y-7322380D01*
X9933333Y-7298571D01*
X9480952Y-7012857D02*
X9361904Y-7346190D01*
X9242857Y-7012857D01*
M02*
