G04 #@! TF.GenerationSoftware,KiCad,Pcbnew,(5.1.10)-1*
G04 #@! TF.CreationDate,2021-11-22T18:42:53+05:30*
G04 #@! TF.ProjectId,P-1000072_Cicada Wi-Fi,502d3130-3030-4303-9732-5f4369636164,0.1*
G04 #@! TF.SameCoordinates,PX7cee6c0PY3dfd240*
G04 #@! TF.FileFunction,Other,Fab,Bot*
%FSLAX46Y46*%
G04 Gerber Fmt 4.6, Leading zero omitted, Abs format (unit mm)*
G04 Created by KiCad (PCBNEW (5.1.10)-1) date 2021-11-22 18:42:53*
%MOMM*%
%LPD*%
G01*
G04 APERTURE LIST*
%ADD10C,0.100000*%
%ADD11C,0.150000*%
%ADD12C,0.060000*%
G04 APERTURE END LIST*
D10*
X-12674600Y2514600D02*
X-12674600Y-1565400D01*
X-12674600Y-1565400D02*
X-11674600Y-2565400D01*
X-11674600Y-2565400D02*
X12725400Y-2565400D01*
X12725400Y-2565400D02*
X12725400Y2514600D01*
X12725400Y2514600D02*
X-12674600Y2514600D01*
X13031980Y-57343040D02*
G75*
G03*
X13031980Y-57343040I-1000000J0D01*
G01*
X-11964160Y-58587640D02*
G75*
G03*
X-11964160Y-58587640I-1000000J0D01*
G01*
X-16096740Y2212340D02*
G75*
G03*
X-16096740Y2212340I-1000000J0D01*
G01*
D11*
X9942295Y-17556500D02*
X9370866Y-17556500D01*
X9656580Y-18556500D02*
X9656580Y-17556500D01*
X9037533Y-18556500D02*
X9037533Y-17556500D01*
X8656580Y-17556500D01*
X8561342Y-17604120D01*
X8513723Y-17651739D01*
X8466104Y-17746977D01*
X8466104Y-17889834D01*
X8513723Y-17985072D01*
X8561342Y-18032691D01*
X8656580Y-18080310D01*
X9037533Y-18080310D01*
X7513723Y-18556500D02*
X8085152Y-18556500D01*
X7799438Y-18556500D02*
X7799438Y-17556500D01*
X7894676Y-17699358D01*
X7989914Y-17794596D01*
X8085152Y-17842215D01*
X6894676Y-17556500D02*
X6799438Y-17556500D01*
X6704200Y-17604120D01*
X6656580Y-17651739D01*
X6608961Y-17746977D01*
X6561342Y-17937453D01*
X6561342Y-18175548D01*
X6608961Y-18366024D01*
X6656580Y-18461262D01*
X6704200Y-18508881D01*
X6799438Y-18556500D01*
X6894676Y-18556500D01*
X6989914Y-18508881D01*
X7037533Y-18461262D01*
X7085152Y-18366024D01*
X7132771Y-18175548D01*
X7132771Y-17937453D01*
X7085152Y-17746977D01*
X7037533Y-17651739D01*
X6989914Y-17604120D01*
X6894676Y-17556500D01*
X14677780Y1403172D02*
X13677780Y1403172D01*
X14153971Y1403172D02*
X14153971Y831743D01*
X14677780Y831743D02*
X13677780Y831743D01*
X14677780Y212696D02*
X14630161Y307934D01*
X14582542Y355553D01*
X14487304Y403172D01*
X14201590Y403172D01*
X14106352Y355553D01*
X14058733Y307934D01*
X14011114Y212696D01*
X14011114Y69839D01*
X14058733Y-25400D01*
X14106352Y-73019D01*
X14201590Y-120638D01*
X14487304Y-120638D01*
X14582542Y-73019D01*
X14630161Y-25400D01*
X14677780Y69839D01*
X14677780Y212696D01*
X14630161Y-501590D02*
X14677780Y-596828D01*
X14677780Y-787304D01*
X14630161Y-882542D01*
X14534923Y-930161D01*
X14487304Y-930161D01*
X14392066Y-882542D01*
X14344447Y-787304D01*
X14344447Y-644447D01*
X14296828Y-549209D01*
X14201590Y-501590D01*
X14153971Y-501590D01*
X14058733Y-549209D01*
X14011114Y-644447D01*
X14011114Y-787304D01*
X14058733Y-882542D01*
X14011114Y-1215876D02*
X14011114Y-1596828D01*
X13677780Y-1358733D02*
X14534923Y-1358733D01*
X14630161Y-1406352D01*
X14677780Y-1501590D01*
X14677780Y-1596828D01*
X358733Y522220D02*
X358733Y-192066D01*
X406352Y-334923D01*
X501590Y-430161D01*
X644447Y-477780D01*
X739685Y-477780D01*
X-22220Y522220D02*
X-641267Y522220D01*
X-307934Y141267D01*
X-450791Y141267D01*
X-546029Y93648D01*
X-593648Y46029D01*
X-641267Y-49209D01*
X-641267Y-287304D01*
X-593648Y-382542D01*
X-546029Y-430161D01*
X-450791Y-477780D01*
X-165077Y-477780D01*
X-69839Y-430161D01*
X-22220Y-382542D01*
X6270784Y-17790180D02*
X5699356Y-17790180D01*
X5985070Y-18790180D02*
X5985070Y-17790180D01*
X5366022Y-18790180D02*
X5366022Y-17790180D01*
X4985070Y-17790180D01*
X4889832Y-17837800D01*
X4842213Y-17885419D01*
X4794594Y-17980657D01*
X4794594Y-18123514D01*
X4842213Y-18218752D01*
X4889832Y-18266371D01*
X4985070Y-18313990D01*
X5366022Y-18313990D01*
X3937451Y-18123514D02*
X3937451Y-18790180D01*
X4175546Y-17742561D02*
X4413641Y-18456847D01*
X3794594Y-18456847D01*
X4883944Y-16240780D02*
X4312516Y-16240780D01*
X4598230Y-17240780D02*
X4598230Y-16240780D01*
X3979182Y-17240780D02*
X3979182Y-16240780D01*
X3598230Y-16240780D01*
X3502992Y-16288400D01*
X3455373Y-16336019D01*
X3407754Y-16431257D01*
X3407754Y-16574114D01*
X3455373Y-16669352D01*
X3502992Y-16716971D01*
X3598230Y-16764590D01*
X3979182Y-16764590D01*
X2502992Y-16240780D02*
X2979182Y-16240780D01*
X3026801Y-16716971D01*
X2979182Y-16669352D01*
X2883944Y-16621733D01*
X2645849Y-16621733D01*
X2550611Y-16669352D01*
X2502992Y-16716971D01*
X2455373Y-16812209D01*
X2455373Y-17050304D01*
X2502992Y-17145542D01*
X2550611Y-17193161D01*
X2645849Y-17240780D01*
X2883944Y-17240780D01*
X2979182Y-17193161D01*
X3026801Y-17145542D01*
X-10993596Y-38856940D02*
X-11565024Y-38856940D01*
X-11279310Y-39856940D02*
X-11279310Y-38856940D01*
X-11898358Y-39856940D02*
X-11898358Y-38856940D01*
X-12279310Y-38856940D01*
X-12374548Y-38904560D01*
X-12422167Y-38952179D01*
X-12469786Y-39047417D01*
X-12469786Y-39190274D01*
X-12422167Y-39285512D01*
X-12374548Y-39333131D01*
X-12279310Y-39380750D01*
X-11898358Y-39380750D01*
X-13041215Y-39285512D02*
X-12945977Y-39237893D01*
X-12898358Y-39190274D01*
X-12850739Y-39095036D01*
X-12850739Y-39047417D01*
X-12898358Y-38952179D01*
X-12945977Y-38904560D01*
X-13041215Y-38856940D01*
X-13231691Y-38856940D01*
X-13326929Y-38904560D01*
X-13374548Y-38952179D01*
X-13422167Y-39047417D01*
X-13422167Y-39095036D01*
X-13374548Y-39190274D01*
X-13326929Y-39237893D01*
X-13231691Y-39285512D01*
X-13041215Y-39285512D01*
X-12945977Y-39333131D01*
X-12898358Y-39380750D01*
X-12850739Y-39475988D01*
X-12850739Y-39666464D01*
X-12898358Y-39761702D01*
X-12945977Y-39809321D01*
X-13041215Y-39856940D01*
X-13231691Y-39856940D01*
X-13326929Y-39809321D01*
X-13374548Y-39761702D01*
X-13422167Y-39666464D01*
X-13422167Y-39475988D01*
X-13374548Y-39380750D01*
X-13326929Y-39333131D01*
X-13231691Y-39285512D01*
X2535655Y-17449820D02*
X1964226Y-17449820D01*
X2249940Y-18449820D02*
X2249940Y-17449820D01*
X1630893Y-18449820D02*
X1630893Y-17449820D01*
X1249940Y-17449820D01*
X1154702Y-17497440D01*
X1107083Y-17545059D01*
X1059464Y-17640297D01*
X1059464Y-17783154D01*
X1107083Y-17878392D01*
X1154702Y-17926011D01*
X1249940Y-17973630D01*
X1630893Y-17973630D01*
X678512Y-17545059D02*
X630893Y-17497440D01*
X535655Y-17449820D01*
X297560Y-17449820D01*
X202321Y-17497440D01*
X154702Y-17545059D01*
X107083Y-17640297D01*
X107083Y-17735535D01*
X154702Y-17878392D01*
X726131Y-18449820D01*
X107083Y-18449820D01*
X-226250Y-17449820D02*
X-845298Y-17449820D01*
X-511964Y-17830773D01*
X-654821Y-17830773D01*
X-750060Y-17878392D01*
X-797679Y-17926011D01*
X-845298Y-18021249D01*
X-845298Y-18259344D01*
X-797679Y-18354582D01*
X-750060Y-18402201D01*
X-654821Y-18449820D01*
X-369107Y-18449820D01*
X-273869Y-18402201D01*
X-226250Y-18354582D01*
X-12531625Y-36847800D02*
X-13103054Y-36847800D01*
X-12817340Y-37847800D02*
X-12817340Y-36847800D01*
X-13436387Y-37847800D02*
X-13436387Y-36847800D01*
X-13817340Y-36847800D01*
X-13912578Y-36895420D01*
X-13960197Y-36943039D01*
X-14007816Y-37038277D01*
X-14007816Y-37181134D01*
X-13960197Y-37276372D01*
X-13912578Y-37323991D01*
X-13817340Y-37371610D01*
X-13436387Y-37371610D01*
X-14960197Y-37847800D02*
X-14388768Y-37847800D01*
X-14674482Y-37847800D02*
X-14674482Y-36847800D01*
X-14579244Y-36990658D01*
X-14484006Y-37085896D01*
X-14388768Y-37133515D01*
X-15341149Y-36943039D02*
X-15388768Y-36895420D01*
X-15484006Y-36847800D01*
X-15722101Y-36847800D01*
X-15817340Y-36895420D01*
X-15864959Y-36943039D01*
X-15912578Y-37038277D01*
X-15912578Y-37133515D01*
X-15864959Y-37276372D01*
X-15293530Y-37847800D01*
X-15912578Y-37847800D01*
X7558095Y-11672380D02*
X6986666Y-11672380D01*
X7272380Y-12672380D02*
X7272380Y-11672380D01*
X6653333Y-12672380D02*
X6653333Y-11672380D01*
X6272380Y-11672380D01*
X6177142Y-11720000D01*
X6129523Y-11767619D01*
X6081904Y-11862857D01*
X6081904Y-12005714D01*
X6129523Y-12100952D01*
X6177142Y-12148571D01*
X6272380Y-12196190D01*
X6653333Y-12196190D01*
X5748571Y-11672380D02*
X5129523Y-11672380D01*
X5462857Y-12053333D01*
X5320000Y-12053333D01*
X5224761Y-12100952D01*
X5177142Y-12148571D01*
X5129523Y-12243809D01*
X5129523Y-12481904D01*
X5177142Y-12577142D01*
X5224761Y-12624761D01*
X5320000Y-12672380D01*
X5605714Y-12672380D01*
X5700952Y-12624761D01*
X5748571Y-12577142D01*
X4272380Y-12005714D02*
X4272380Y-12672380D01*
X4510476Y-11624761D02*
X4748571Y-12339047D01*
X4129523Y-12339047D01*
X3328095Y-11672380D02*
X2756666Y-11672380D01*
X3042380Y-12672380D02*
X3042380Y-11672380D01*
X2423333Y-12672380D02*
X2423333Y-11672380D01*
X2042380Y-11672380D01*
X1947142Y-11720000D01*
X1899523Y-11767619D01*
X1851904Y-11862857D01*
X1851904Y-12005714D01*
X1899523Y-12100952D01*
X1947142Y-12148571D01*
X2042380Y-12196190D01*
X2423333Y-12196190D01*
X1518571Y-11672380D02*
X899523Y-11672380D01*
X1232857Y-12053333D01*
X1090000Y-12053333D01*
X994761Y-12100952D01*
X947142Y-12148571D01*
X899523Y-12243809D01*
X899523Y-12481904D01*
X947142Y-12577142D01*
X994761Y-12624761D01*
X1090000Y-12672380D01*
X1375714Y-12672380D01*
X1470952Y-12624761D01*
X1518571Y-12577142D01*
X280476Y-11672380D02*
X185238Y-11672380D01*
X90000Y-11720000D01*
X42380Y-11767619D01*
X-5239Y-11862857D01*
X-52858Y-12053333D01*
X-52858Y-12291428D01*
X-5239Y-12481904D01*
X42380Y-12577142D01*
X90000Y-12624761D01*
X185238Y-12672380D01*
X280476Y-12672380D01*
X375714Y-12624761D01*
X423333Y-12577142D01*
X470952Y-12481904D01*
X518571Y-12291428D01*
X518571Y-12053333D01*
X470952Y-11862857D01*
X423333Y-11767619D01*
X375714Y-11720000D01*
X280476Y-11672380D01*
X-10391905Y-6002380D02*
X-10963334Y-6002380D01*
X-10677620Y-7002380D02*
X-10677620Y-6002380D01*
X-11296667Y-7002380D02*
X-11296667Y-6002380D01*
X-11677620Y-6002380D01*
X-11772858Y-6050000D01*
X-11820477Y-6097619D01*
X-11868096Y-6192857D01*
X-11868096Y-6335714D01*
X-11820477Y-6430952D01*
X-11772858Y-6478571D01*
X-11677620Y-6526190D01*
X-11296667Y-6526190D01*
X-12201429Y-6002380D02*
X-12820477Y-6002380D01*
X-12487143Y-6383333D01*
X-12630000Y-6383333D01*
X-12725239Y-6430952D01*
X-12772858Y-6478571D01*
X-12820477Y-6573809D01*
X-12820477Y-6811904D01*
X-12772858Y-6907142D01*
X-12725239Y-6954761D01*
X-12630000Y-7002380D01*
X-12344286Y-7002380D01*
X-12249048Y-6954761D01*
X-12201429Y-6907142D01*
X-13725239Y-6002380D02*
X-13249048Y-6002380D01*
X-13201429Y-6478571D01*
X-13249048Y-6430952D01*
X-13344286Y-6383333D01*
X-13582381Y-6383333D01*
X-13677620Y-6430952D01*
X-13725239Y-6478571D01*
X-13772858Y-6573809D01*
X-13772858Y-6811904D01*
X-13725239Y-6907142D01*
X-13677620Y-6954761D01*
X-13582381Y-7002380D01*
X-13344286Y-7002380D01*
X-13249048Y-6954761D01*
X-13201429Y-6907142D01*
X-10371905Y-8892380D02*
X-10943334Y-8892380D01*
X-10657620Y-9892380D02*
X-10657620Y-8892380D01*
X-11276667Y-9892380D02*
X-11276667Y-8892380D01*
X-11657620Y-8892380D01*
X-11752858Y-8940000D01*
X-11800477Y-8987619D01*
X-11848096Y-9082857D01*
X-11848096Y-9225714D01*
X-11800477Y-9320952D01*
X-11752858Y-9368571D01*
X-11657620Y-9416190D01*
X-11276667Y-9416190D01*
X-12181429Y-8892380D02*
X-12800477Y-8892380D01*
X-12467143Y-9273333D01*
X-12610000Y-9273333D01*
X-12705239Y-9320952D01*
X-12752858Y-9368571D01*
X-12800477Y-9463809D01*
X-12800477Y-9701904D01*
X-12752858Y-9797142D01*
X-12705239Y-9844761D01*
X-12610000Y-9892380D01*
X-12324286Y-9892380D01*
X-12229048Y-9844761D01*
X-12181429Y-9797142D01*
X-13181429Y-8987619D02*
X-13229048Y-8940000D01*
X-13324286Y-8892380D01*
X-13562381Y-8892380D01*
X-13657620Y-8940000D01*
X-13705239Y-8987619D01*
X-13752858Y-9082857D01*
X-13752858Y-9178095D01*
X-13705239Y-9320952D01*
X-13133810Y-9892380D01*
X-13752858Y-9892380D01*
X13891904Y-16562380D02*
X13320476Y-16562380D01*
X13606190Y-17562380D02*
X13606190Y-16562380D01*
X12987142Y-17562380D02*
X12987142Y-16562380D01*
X12606190Y-16562380D01*
X12510952Y-16610000D01*
X12463333Y-16657619D01*
X12415714Y-16752857D01*
X12415714Y-16895714D01*
X12463333Y-16990952D01*
X12510952Y-17038571D01*
X12606190Y-17086190D01*
X12987142Y-17086190D01*
X12034761Y-16657619D02*
X11987142Y-16610000D01*
X11891904Y-16562380D01*
X11653809Y-16562380D01*
X11558571Y-16610000D01*
X11510952Y-16657619D01*
X11463333Y-16752857D01*
X11463333Y-16848095D01*
X11510952Y-16990952D01*
X12082380Y-17562380D01*
X11463333Y-17562380D01*
X10861904Y-9972380D02*
X10290476Y-9972380D01*
X10576190Y-10972380D02*
X10576190Y-9972380D01*
X9957142Y-10972380D02*
X9957142Y-9972380D01*
X9576190Y-9972380D01*
X9480952Y-10020000D01*
X9433333Y-10067619D01*
X9385714Y-10162857D01*
X9385714Y-10305714D01*
X9433333Y-10400952D01*
X9480952Y-10448571D01*
X9576190Y-10496190D01*
X9957142Y-10496190D01*
X8433333Y-10972380D02*
X9004761Y-10972380D01*
X8719047Y-10972380D02*
X8719047Y-9972380D01*
X8814285Y-10115238D01*
X8909523Y-10210476D01*
X9004761Y-10258095D01*
X14412932Y-55271611D02*
X14746265Y-55271611D01*
X14746265Y-55795420D02*
X14746265Y-54795420D01*
X14270075Y-54795420D01*
X13889122Y-55795420D02*
X13889122Y-55128754D01*
X13889122Y-54795420D02*
X13936741Y-54843040D01*
X13889122Y-54890659D01*
X13841503Y-54843040D01*
X13889122Y-54795420D01*
X13889122Y-54890659D01*
X12984360Y-55795420D02*
X12984360Y-54795420D01*
X12984360Y-55747801D02*
X13079599Y-55795420D01*
X13270075Y-55795420D01*
X13365313Y-55747801D01*
X13412932Y-55700182D01*
X13460551Y-55604944D01*
X13460551Y-55319230D01*
X13412932Y-55223992D01*
X13365313Y-55176373D01*
X13270075Y-55128754D01*
X13079599Y-55128754D01*
X12984360Y-55176373D01*
X12079599Y-55128754D02*
X12079599Y-55795420D01*
X12508170Y-55128754D02*
X12508170Y-55652563D01*
X12460551Y-55747801D01*
X12365313Y-55795420D01*
X12222456Y-55795420D01*
X12127218Y-55747801D01*
X12079599Y-55700182D01*
X11174837Y-55747801D02*
X11270075Y-55795420D01*
X11460551Y-55795420D01*
X11555789Y-55747801D01*
X11603408Y-55700182D01*
X11651027Y-55604944D01*
X11651027Y-55319230D01*
X11603408Y-55223992D01*
X11555789Y-55176373D01*
X11460551Y-55128754D01*
X11270075Y-55128754D01*
X11174837Y-55176373D01*
X10746265Y-55795420D02*
X10746265Y-55128754D01*
X10746265Y-54795420D02*
X10793884Y-54843040D01*
X10746265Y-54890659D01*
X10698646Y-54843040D01*
X10746265Y-54795420D01*
X10746265Y-54890659D01*
X9841503Y-55795420D02*
X9841503Y-55271611D01*
X9889122Y-55176373D01*
X9984360Y-55128754D01*
X10174837Y-55128754D01*
X10270075Y-55176373D01*
X9841503Y-55747801D02*
X9936741Y-55795420D01*
X10174837Y-55795420D01*
X10270075Y-55747801D01*
X10317694Y-55652563D01*
X10317694Y-55557325D01*
X10270075Y-55462087D01*
X10174837Y-55414468D01*
X9936741Y-55414468D01*
X9841503Y-55366849D01*
X9222456Y-55795420D02*
X9317694Y-55747801D01*
X9365313Y-55652563D01*
X9365313Y-54795420D01*
D12*
X12460551Y-57314468D02*
X12593884Y-57314468D01*
X12593884Y-57523992D02*
X12593884Y-57123992D01*
X12403408Y-57123992D01*
X12251027Y-57523992D02*
X12251027Y-57123992D01*
X12060551Y-57523992D02*
X12060551Y-57123992D01*
X11965313Y-57123992D01*
X11908170Y-57143040D01*
X11870075Y-57181135D01*
X11851027Y-57219230D01*
X11831980Y-57295420D01*
X11831980Y-57352563D01*
X11851027Y-57428754D01*
X11870075Y-57466849D01*
X11908170Y-57504944D01*
X11965313Y-57523992D01*
X12060551Y-57523992D01*
X11489122Y-57123992D02*
X11565313Y-57123992D01*
X11603408Y-57143040D01*
X11622456Y-57162087D01*
X11660551Y-57219230D01*
X11679599Y-57295420D01*
X11679599Y-57447801D01*
X11660551Y-57485897D01*
X11641503Y-57504944D01*
X11603408Y-57523992D01*
X11527218Y-57523992D01*
X11489122Y-57504944D01*
X11470075Y-57485897D01*
X11451027Y-57447801D01*
X11451027Y-57352563D01*
X11470075Y-57314468D01*
X11489122Y-57295420D01*
X11527218Y-57276373D01*
X11603408Y-57276373D01*
X11641503Y-57295420D01*
X11660551Y-57314468D01*
X11679599Y-57352563D01*
D11*
X-10583208Y-56516211D02*
X-10249875Y-56516211D01*
X-10249875Y-57040020D02*
X-10249875Y-56040020D01*
X-10726065Y-56040020D01*
X-11107018Y-57040020D02*
X-11107018Y-56373354D01*
X-11107018Y-56040020D02*
X-11059399Y-56087640D01*
X-11107018Y-56135259D01*
X-11154637Y-56087640D01*
X-11107018Y-56040020D01*
X-11107018Y-56135259D01*
X-12011780Y-57040020D02*
X-12011780Y-56040020D01*
X-12011780Y-56992401D02*
X-11916541Y-57040020D01*
X-11726065Y-57040020D01*
X-11630827Y-56992401D01*
X-11583208Y-56944782D01*
X-11535589Y-56849544D01*
X-11535589Y-56563830D01*
X-11583208Y-56468592D01*
X-11630827Y-56420973D01*
X-11726065Y-56373354D01*
X-11916541Y-56373354D01*
X-12011780Y-56420973D01*
X-12916541Y-56373354D02*
X-12916541Y-57040020D01*
X-12487970Y-56373354D02*
X-12487970Y-56897163D01*
X-12535589Y-56992401D01*
X-12630827Y-57040020D01*
X-12773684Y-57040020D01*
X-12868922Y-56992401D01*
X-12916541Y-56944782D01*
X-13821303Y-56992401D02*
X-13726065Y-57040020D01*
X-13535589Y-57040020D01*
X-13440351Y-56992401D01*
X-13392732Y-56944782D01*
X-13345113Y-56849544D01*
X-13345113Y-56563830D01*
X-13392732Y-56468592D01*
X-13440351Y-56420973D01*
X-13535589Y-56373354D01*
X-13726065Y-56373354D01*
X-13821303Y-56420973D01*
X-14249875Y-57040020D02*
X-14249875Y-56373354D01*
X-14249875Y-56040020D02*
X-14202256Y-56087640D01*
X-14249875Y-56135259D01*
X-14297494Y-56087640D01*
X-14249875Y-56040020D01*
X-14249875Y-56135259D01*
X-15154637Y-57040020D02*
X-15154637Y-56516211D01*
X-15107018Y-56420973D01*
X-15011780Y-56373354D01*
X-14821303Y-56373354D01*
X-14726065Y-56420973D01*
X-15154637Y-56992401D02*
X-15059399Y-57040020D01*
X-14821303Y-57040020D01*
X-14726065Y-56992401D01*
X-14678446Y-56897163D01*
X-14678446Y-56801925D01*
X-14726065Y-56706687D01*
X-14821303Y-56659068D01*
X-15059399Y-56659068D01*
X-15154637Y-56611449D01*
X-15773684Y-57040020D02*
X-15678446Y-56992401D01*
X-15630827Y-56897163D01*
X-15630827Y-56040020D01*
D12*
X-12535589Y-58559068D02*
X-12402256Y-58559068D01*
X-12402256Y-58768592D02*
X-12402256Y-58368592D01*
X-12592732Y-58368592D01*
X-12745113Y-58768592D02*
X-12745113Y-58368592D01*
X-12935589Y-58768592D02*
X-12935589Y-58368592D01*
X-13030827Y-58368592D01*
X-13087970Y-58387640D01*
X-13126065Y-58425735D01*
X-13145113Y-58463830D01*
X-13164160Y-58540020D01*
X-13164160Y-58597163D01*
X-13145113Y-58673354D01*
X-13126065Y-58711449D01*
X-13087970Y-58749544D01*
X-13030827Y-58768592D01*
X-12935589Y-58768592D01*
X-13507018Y-58501925D02*
X-13507018Y-58768592D01*
X-13411780Y-58349544D02*
X-13316541Y-58635259D01*
X-13564160Y-58635259D01*
D11*
X-14715788Y4283769D02*
X-14382455Y4283769D01*
X-14382455Y3759960D02*
X-14382455Y4759960D01*
X-14858645Y4759960D01*
X-15239598Y3759960D02*
X-15239598Y4426626D01*
X-15239598Y4759960D02*
X-15191979Y4712340D01*
X-15239598Y4664721D01*
X-15287217Y4712340D01*
X-15239598Y4759960D01*
X-15239598Y4664721D01*
X-16144360Y3759960D02*
X-16144360Y4759960D01*
X-16144360Y3807579D02*
X-16049121Y3759960D01*
X-15858645Y3759960D01*
X-15763407Y3807579D01*
X-15715788Y3855198D01*
X-15668169Y3950436D01*
X-15668169Y4236150D01*
X-15715788Y4331388D01*
X-15763407Y4379007D01*
X-15858645Y4426626D01*
X-16049121Y4426626D01*
X-16144360Y4379007D01*
X-17049121Y4426626D02*
X-17049121Y3759960D01*
X-16620550Y4426626D02*
X-16620550Y3902817D01*
X-16668169Y3807579D01*
X-16763407Y3759960D01*
X-16906264Y3759960D01*
X-17001502Y3807579D01*
X-17049121Y3855198D01*
X-17953883Y3807579D02*
X-17858645Y3759960D01*
X-17668169Y3759960D01*
X-17572931Y3807579D01*
X-17525312Y3855198D01*
X-17477693Y3950436D01*
X-17477693Y4236150D01*
X-17525312Y4331388D01*
X-17572931Y4379007D01*
X-17668169Y4426626D01*
X-17858645Y4426626D01*
X-17953883Y4379007D01*
X-18382455Y3759960D02*
X-18382455Y4426626D01*
X-18382455Y4759960D02*
X-18334836Y4712340D01*
X-18382455Y4664721D01*
X-18430074Y4712340D01*
X-18382455Y4759960D01*
X-18382455Y4664721D01*
X-19287217Y3759960D02*
X-19287217Y4283769D01*
X-19239598Y4379007D01*
X-19144360Y4426626D01*
X-18953883Y4426626D01*
X-18858645Y4379007D01*
X-19287217Y3807579D02*
X-19191979Y3759960D01*
X-18953883Y3759960D01*
X-18858645Y3807579D01*
X-18811026Y3902817D01*
X-18811026Y3998055D01*
X-18858645Y4093293D01*
X-18953883Y4140912D01*
X-19191979Y4140912D01*
X-19287217Y4188531D01*
X-19906264Y3759960D02*
X-19811026Y3807579D01*
X-19763407Y3902817D01*
X-19763407Y4759960D01*
D12*
X-16668169Y2240912D02*
X-16534836Y2240912D01*
X-16534836Y2031388D02*
X-16534836Y2431388D01*
X-16725312Y2431388D01*
X-16877693Y2031388D02*
X-16877693Y2431388D01*
X-17068169Y2031388D02*
X-17068169Y2431388D01*
X-17163407Y2431388D01*
X-17220550Y2412340D01*
X-17258645Y2374245D01*
X-17277693Y2336150D01*
X-17296740Y2259960D01*
X-17296740Y2202817D01*
X-17277693Y2126626D01*
X-17258645Y2088531D01*
X-17220550Y2050436D01*
X-17163407Y2031388D01*
X-17068169Y2031388D01*
X-17449121Y2393293D02*
X-17468169Y2412340D01*
X-17506264Y2431388D01*
X-17601502Y2431388D01*
X-17639598Y2412340D01*
X-17658645Y2393293D01*
X-17677693Y2355198D01*
X-17677693Y2317102D01*
X-17658645Y2259960D01*
X-17430074Y2031388D01*
X-17677693Y2031388D01*
M02*
