G04 #@! TF.GenerationSoftware,KiCad,Pcbnew,(5.1.10)-1*
G04 #@! TF.CreationDate,2021-10-05T13:08:05+05:30*
G04 #@! TF.ProjectId,P-1000072_Cicada Wi-Fi,502d3130-3030-4303-9732-5f4369636164,0.1*
G04 #@! TF.SameCoordinates,PX7cee6c0PY3dfd240*
G04 #@! TF.FileFunction,Other,User*
%FSLAX46Y46*%
G04 Gerber Fmt 4.6, Leading zero omitted, Abs format (unit mm)*
G04 Created by KiCad (PCBNEW (5.1.10)-1) date 2021-10-05 13:08:05*
%MOMM*%
%LPD*%
G01*
G04 APERTURE LIST*
%ADD10C,0.050000*%
G04 APERTURE END LIST*
D10*
X-2720240Y-53954900D02*
X-3660240Y-53954900D01*
X-3660240Y-53954900D02*
X-3660240Y-52094900D01*
X-3660240Y-52094900D02*
X-2720240Y-52094900D01*
X-2720240Y-52094900D02*
X-2720240Y-53954900D01*
X-8637680Y-51680520D02*
X-8637680Y-48080520D01*
X-5037680Y-48080520D02*
X-5037680Y-51680520D01*
X-8637680Y-48080520D02*
X-5037680Y-48080520D01*
X-5037680Y-51680520D02*
X-8637680Y-51680520D01*
X-11630880Y-49725480D02*
X-9770880Y-49725480D01*
X-11630880Y-50665480D02*
X-11630880Y-49725480D01*
X-9770880Y-50665480D02*
X-11630880Y-50665480D01*
X-9770880Y-49725480D02*
X-9770880Y-50665480D01*
X-673000Y-52090100D02*
X-673000Y-53950100D01*
X-1613000Y-52090100D02*
X-673000Y-52090100D01*
X-1613000Y-53950100D02*
X-1613000Y-52090100D01*
X-673000Y-53950100D02*
X-1613000Y-53950100D01*
X-11893040Y-39702740D02*
G75*
G03*
X-11893040Y-39702740I-1000000J0D01*
G01*
X10780400Y-30457140D02*
G75*
G03*
X10780400Y-30457140I-4250000J0D01*
G01*
X10739760Y-21798280D02*
G75*
G03*
X10739760Y-21798280I-4250000J0D01*
G01*
X-10332500Y-52859840D02*
X-10332500Y-53799840D01*
X-10332500Y-53799840D02*
X-12192500Y-53799840D01*
X-12192500Y-53799840D02*
X-12192500Y-52859840D01*
X-12192500Y-52859840D02*
X-10332500Y-52859840D01*
X-16710760Y-13461500D02*
X-15770760Y-13461500D01*
X-15770760Y-13461500D02*
X-15770760Y-15321500D01*
X-15770760Y-15321500D02*
X-16710760Y-15321500D01*
X-16710760Y-15321500D02*
X-16710760Y-13461500D01*
X-14721940Y-13426220D02*
X-13781940Y-13426220D01*
X-13781940Y-13426220D02*
X-13781940Y-15286220D01*
X-13781940Y-15286220D02*
X-14721940Y-15286220D01*
X-14721940Y-15286220D02*
X-14721940Y-13426220D01*
X-10688420Y-36202120D02*
X-9748420Y-36202120D01*
X-9748420Y-36202120D02*
X-9748420Y-38062120D01*
X-9748420Y-38062120D02*
X-10688420Y-38062120D01*
X-10688420Y-38062120D02*
X-10688420Y-36202120D01*
X-14262320Y-53804920D02*
X-14262320Y-52864920D01*
X-14262320Y-52864920D02*
X-12402320Y-52864920D01*
X-12402320Y-52864920D02*
X-12402320Y-53804920D01*
X-12402320Y-53804920D02*
X-14262320Y-53804920D01*
X-4683400Y-45661480D02*
X-4683400Y-46601480D01*
X-4683400Y-46601480D02*
X-6543400Y-46601480D01*
X-6543400Y-46601480D02*
X-6543400Y-45661480D01*
X-6543400Y-45661480D02*
X-4683400Y-45661480D01*
X-8694520Y-13391380D02*
X-8694520Y-11531380D01*
X-7754520Y-13391380D02*
X-8694520Y-13391380D01*
X-7754520Y-11531380D02*
X-7754520Y-13391380D01*
X-8694520Y-11531380D02*
X-7754520Y-11531380D01*
X-15651380Y-36159220D02*
X-15651380Y-38019220D01*
X-16591380Y-36159220D02*
X-15651380Y-36159220D01*
X-16591380Y-38019220D02*
X-16591380Y-36159220D01*
X-15651380Y-38019220D02*
X-16591380Y-38019220D01*
X-12695020Y-38283380D02*
X-12695020Y-36423380D01*
X-11755020Y-38283380D02*
X-12695020Y-38283380D01*
X-11755020Y-36423380D02*
X-11755020Y-38283380D01*
X-12695020Y-36423380D02*
X-11755020Y-36423380D01*
X-7802660Y-14813380D02*
X-9662660Y-14813380D01*
X-7802660Y-13873380D02*
X-7802660Y-14813380D01*
X-9662660Y-13873380D02*
X-7802660Y-13873380D01*
X-9662660Y-14813380D02*
X-9662660Y-13873380D01*
X-2675120Y-35498940D02*
X-815120Y-35498940D01*
X-2675120Y-36438940D02*
X-2675120Y-35498940D01*
X-815120Y-36438940D02*
X-2675120Y-36438940D01*
X-815120Y-35498940D02*
X-815120Y-36438940D01*
X-2675120Y-34427060D02*
X-815120Y-34427060D01*
X-2675120Y-35367060D02*
X-2675120Y-34427060D01*
X-815120Y-35367060D02*
X-2675120Y-35367060D01*
X-815120Y-34427060D02*
X-815120Y-35367060D01*
X-15671300Y-35976660D02*
X-17531300Y-35976660D01*
X-15671300Y-35036660D02*
X-15671300Y-35976660D01*
X-17531300Y-35036660D02*
X-15671300Y-35036660D01*
X-17531300Y-35976660D02*
X-17531300Y-35036660D01*
X-11739380Y-36217960D02*
X-13599380Y-36217960D01*
X-11739380Y-35277960D02*
X-11739380Y-36217960D01*
X-13599380Y-35277960D02*
X-11739380Y-35277960D01*
X-13599380Y-36217960D02*
X-13599380Y-35277960D01*
X-2004820Y-56794400D02*
G75*
G03*
X-2004820Y-56794400I-1000000J0D01*
G01*
X-10493500Y-45394880D02*
G75*
G03*
X-10493500Y-45394880I-1000000J0D01*
G01*
X-8814560Y-43967400D02*
G75*
G03*
X-8814560Y-43967400I-1000000J0D01*
G01*
X-4352920Y-59079900D02*
X-4352920Y-54079900D01*
X-4352920Y-54079900D02*
X-9352920Y-54079900D01*
X-9352920Y-54079900D02*
X-9352920Y-59079900D01*
X-9352920Y-59079900D02*
X-4352920Y-59079900D01*
X-16454880Y-51069240D02*
G75*
G03*
X-16454880Y-51069240I-1000000J0D01*
G01*
X-874680Y-51702720D02*
X-3834680Y-51702720D01*
X-874680Y-50242720D02*
X-874680Y-51702720D01*
X-3834680Y-50242720D02*
X-874680Y-50242720D01*
X-3834680Y-51702720D02*
X-3834680Y-50242720D01*
X-3820380Y-49146360D02*
X-1960380Y-49146360D01*
X-3820380Y-50086360D02*
X-3820380Y-49146360D01*
X-1960380Y-50086360D02*
X-3820380Y-50086360D01*
X-1960380Y-49146360D02*
X-1960380Y-50086360D01*
X-9735320Y-47426980D02*
X-11595320Y-47426980D01*
X-9735320Y-46486980D02*
X-9735320Y-47426980D01*
X-11595320Y-46486980D02*
X-9735320Y-46486980D01*
X-11595320Y-47426980D02*
X-11595320Y-46486980D01*
X388720Y-52090100D02*
X388720Y-53950100D01*
X-551280Y-52090100D02*
X388720Y-52090100D01*
X-551280Y-53950100D02*
X-551280Y-52090100D01*
X388720Y-53950100D02*
X-551280Y-53950100D01*
X-1683920Y-52095180D02*
X-1683920Y-53955180D01*
X-2623920Y-52095180D02*
X-1683920Y-52095180D01*
X-2623920Y-53955180D02*
X-2623920Y-52095180D01*
X-1683920Y-53955180D02*
X-2623920Y-53955180D01*
X-3957420Y-48925980D02*
X-3957420Y-47065980D01*
X-3017420Y-48925980D02*
X-3957420Y-48925980D01*
X-3017420Y-47065980D02*
X-3017420Y-48925980D01*
X-3957420Y-47065980D02*
X-3017420Y-47065980D01*
X-2847440Y-48920620D02*
X-2847440Y-47060620D01*
X-1907440Y-48920620D02*
X-2847440Y-48920620D01*
X-1907440Y-47060620D02*
X-1907440Y-48920620D01*
X-2847440Y-47060620D02*
X-1907440Y-47060620D01*
X-1760320Y-48923440D02*
X-1760320Y-47063440D01*
X-820320Y-48923440D02*
X-1760320Y-48923440D01*
X-820320Y-47063440D02*
X-820320Y-48923440D01*
X-1760320Y-47063440D02*
X-820320Y-47063440D01*
X-11621000Y-48706940D02*
X-9761000Y-48706940D01*
X-11621000Y-49646940D02*
X-11621000Y-48706940D01*
X-9761000Y-49646940D02*
X-11621000Y-49646940D01*
X-9761000Y-48706940D02*
X-9761000Y-49646940D01*
X-11605760Y-47594420D02*
X-9745760Y-47594420D01*
X-11605760Y-48534420D02*
X-11605760Y-47594420D01*
X-9745760Y-48534420D02*
X-11605760Y-48534420D01*
X-9745760Y-47594420D02*
X-9745760Y-48534420D01*
X-9154260Y-47490600D02*
X-9154260Y-45630600D01*
X-8214260Y-47490600D02*
X-9154260Y-47490600D01*
X-8214260Y-45630600D02*
X-8214260Y-47490600D01*
X-9154260Y-45630600D02*
X-8214260Y-45630600D01*
X-470000Y-33810000D02*
X-17820000Y-33810000D01*
X-470000Y-15610000D02*
X-470000Y-33810000D01*
X-17820000Y-15610000D02*
X-470000Y-15610000D01*
X-17820000Y-33810000D02*
X-17820000Y-15610000D01*
X12333480Y-19273520D02*
G75*
G03*
X12333480Y-19273520I-1000000J0D01*
G01*
X18702540Y-25318720D02*
G75*
G03*
X18702540Y-25318720I-4250000J0D01*
G01*
X18722860Y-33962340D02*
G75*
G03*
X18722860Y-33962340I-4250000J0D01*
G01*
X19351820Y-51751380D02*
X19351820Y-45251380D01*
X14851820Y-51751380D02*
X19351820Y-51751380D01*
X14851820Y-45251380D02*
X14851820Y-51751380D01*
X19351820Y-45251380D02*
X14851820Y-45251380D01*
X-8608700Y-40442380D02*
X-8608700Y-45442380D01*
X-8608700Y-45442380D02*
X-3608700Y-45442380D01*
X-3608700Y-45442380D02*
X-3608700Y-40442380D01*
X-3608700Y-40442380D02*
X-8608700Y-40442380D01*
X-11237720Y-13873480D02*
G75*
G03*
X-11237720Y-13873480I-1000000J0D01*
G01*
X-13196060Y-12082780D02*
G75*
G03*
X-13196060Y-12082780I-1000000J0D01*
G01*
X-3239260Y-13906500D02*
G75*
G03*
X-3239260Y-13906500I-1000000J0D01*
G01*
X-5205220Y-12065000D02*
G75*
G03*
X-5205220Y-12065000I-1000000J0D01*
G01*
X-7326120Y-6253480D02*
G75*
G03*
X-7326120Y-6253480I-1000000J0D01*
G01*
X-9210800Y-12054840D02*
G75*
G03*
X-9210800Y-12054840I-1000000J0D01*
G01*
X-14499080Y-9888220D02*
G75*
G03*
X-14499080Y-9888220I-1000000J0D01*
G01*
X-3185920Y-37266880D02*
G75*
G03*
X-3185920Y-37266880I-1000000J0D01*
G01*
X6830000Y-12940000D02*
G75*
G03*
X6830000Y-12940000I-1000000J0D01*
G01*
X-5223000Y-35727640D02*
G75*
G03*
X-5223000Y-35727640I-1000000J0D01*
G01*
X-7199120Y-35179000D02*
G75*
G03*
X-7199120Y-35179000I-1000000J0D01*
G01*
X-9251440Y-35100260D02*
G75*
G03*
X-9251440Y-35100260I-1000000J0D01*
G01*
X-17783300Y-35095180D02*
G75*
G03*
X-17783300Y-35095180I-1000000J0D01*
G01*
X-694180Y-37703760D02*
G75*
G03*
X-694180Y-37703760I-1000000J0D01*
G01*
X17299180Y-19817080D02*
G75*
G03*
X17299180Y-19817080I-1000000J0D01*
G01*
X14626020Y-42756880D02*
X14626020Y-47096880D01*
X14626020Y-42756880D02*
X11226020Y-42756880D01*
X11226020Y-47096880D02*
X14626020Y-47096880D01*
X11226020Y-47096880D02*
X11226020Y-42756880D01*
X11125300Y-42183820D02*
X11125300Y-44043820D01*
X10185300Y-42183820D02*
X11125300Y-42183820D01*
X10185300Y-44043820D02*
X10185300Y-42183820D01*
X11125300Y-44043820D02*
X10185300Y-44043820D01*
X11112860Y-45095260D02*
X9252860Y-45095260D01*
X11112860Y-44155260D02*
X11112860Y-45095260D01*
X9252860Y-44155260D02*
X11112860Y-44155260D01*
X9252860Y-45095260D02*
X9252860Y-44155260D01*
X-14285180Y-53959660D02*
X-12425180Y-53959660D01*
X-14285180Y-54899660D02*
X-14285180Y-53959660D01*
X-12425180Y-54899660D02*
X-14285180Y-54899660D01*
X-12425180Y-53959660D02*
X-12425180Y-54899660D01*
X13396460Y-48262640D02*
X11536460Y-48262640D01*
X13396460Y-47322640D02*
X13396460Y-48262640D01*
X11536460Y-47322640D02*
X13396460Y-47322640D01*
X11536460Y-48262640D02*
X11536460Y-47322640D01*
X-6418080Y-52821940D02*
X-8278080Y-52821940D01*
X-6418080Y-51881940D02*
X-6418080Y-52821940D01*
X-8278080Y-51881940D02*
X-6418080Y-51881940D01*
X-8278080Y-52821940D02*
X-8278080Y-51881940D01*
X10815840Y-39116000D02*
G75*
G03*
X10815840Y-39116000I-4250000J0D01*
G01*
X-5452880Y-53903980D02*
X-7312880Y-53903980D01*
X-5452880Y-52963980D02*
X-5452880Y-53903980D01*
X-7312880Y-52963980D02*
X-5452880Y-52963980D01*
X-7312880Y-53903980D02*
X-7312880Y-52963980D01*
X14732040Y-49130400D02*
X14732040Y-52490400D01*
X12832040Y-49130400D02*
X14732040Y-49130400D01*
X12832040Y-52490400D02*
X12832040Y-49130400D01*
X14732040Y-52490400D02*
X12832040Y-52490400D01*
X12741660Y-49144640D02*
X12741660Y-52104640D01*
X11281660Y-49144640D02*
X12741660Y-49144640D01*
X11281660Y-52104640D02*
X11281660Y-49144640D01*
X12741660Y-52104640D02*
X11281660Y-52104640D01*
X11123160Y-46149360D02*
X9263160Y-46149360D01*
X11123160Y-45209360D02*
X11123160Y-46149360D01*
X9263160Y-45209360D02*
X11123160Y-45209360D01*
X9263160Y-46149360D02*
X9263160Y-45209360D01*
X-4693420Y-47632720D02*
X-6553420Y-47632720D01*
X-4693420Y-46692720D02*
X-4693420Y-47632720D01*
X-6553420Y-46692720D02*
X-4693420Y-46692720D01*
X-6553420Y-47632720D02*
X-6553420Y-46692720D01*
X14945320Y-43714700D02*
X14945320Y-40354700D01*
X16845320Y-43714700D02*
X14945320Y-43714700D01*
X16845320Y-40354700D02*
X16845320Y-43714700D01*
X14945320Y-40354700D02*
X16845320Y-40354700D01*
X17090640Y-43318880D02*
X17090640Y-40358880D01*
X18550640Y-43318880D02*
X17090640Y-43318880D01*
X18550640Y-40358880D02*
X18550640Y-43318880D01*
X17090640Y-40358880D02*
X18550640Y-40358880D01*
X-14000000Y-57000000D02*
G75*
G03*
X-14000000Y-57000000I-3000000J0D01*
G01*
X13290000Y-57390000D02*
G75*
G03*
X13290000Y-57390000I-1250000J0D01*
G01*
X-11698920Y-58592720D02*
G75*
G03*
X-11698920Y-58592720I-1250000J0D01*
G01*
X-15840000Y2220000D02*
G75*
G03*
X-15840000Y2220000I-1250000J0D01*
G01*
X20000000Y-57000000D02*
G75*
G03*
X20000000Y-57000000I-3000000J0D01*
G01*
X-6007000Y-6203040D02*
X-6947000Y-6203040D01*
X-6947000Y-6203040D02*
X-6947000Y-4343040D01*
X-6947000Y-4343040D02*
X-6007000Y-4343040D01*
X-6007000Y-4343040D02*
X-6007000Y-6203040D01*
X-4808120Y-6190480D02*
X-5748120Y-6190480D01*
X-5748120Y-6190480D02*
X-5748120Y-4330480D01*
X-5748120Y-4330480D02*
X-4808120Y-4330480D01*
X-4808120Y-4330480D02*
X-4808120Y-6190480D01*
M02*
