G04 #@! TF.GenerationSoftware,KiCad,Pcbnew,(5.1.10)-1*
G04 #@! TF.CreationDate,2021-11-03T08:24:22+05:30*
G04 #@! TF.ProjectId,P-1000072_Cicada Wi-Fi,502d3130-3030-4303-9732-5f4369636164,0.1*
G04 #@! TF.SameCoordinates,PX7cee6c0PY3dfd240*
G04 #@! TF.FileFunction,Soldermask,Top*
G04 #@! TF.FilePolarity,Negative*
%FSLAX46Y46*%
G04 Gerber Fmt 4.6, Leading zero omitted, Abs format (unit mm)*
G04 Created by KiCad (PCBNEW (5.1.10)-1) date 2021-11-03 08:24:22*
%MOMM*%
%LPD*%
G01*
G04 APERTURE LIST*
%ADD10O,1.800000X1.800000*%
%ADD11C,1.600000*%
%ADD12C,1.700000*%
%ADD13C,5.600000*%
%ADD14C,2.000000*%
G04 APERTURE END LIST*
G36*
G01*
X-13670000Y-18460000D02*
X-14770000Y-18460000D01*
G75*
G02*
X-14820000Y-18410000I0J50000D01*
G01*
X-14820000Y-15810000D01*
G75*
G02*
X-14770000Y-15760000I50000J0D01*
G01*
X-13670000Y-15760000D01*
G75*
G02*
X-13620000Y-15810000I0J-50000D01*
G01*
X-13620000Y-18410000D01*
G75*
G02*
X-13670000Y-18460000I-50000J0D01*
G01*
G37*
G36*
G01*
X-11670000Y-18460000D02*
X-12770000Y-18460000D01*
G75*
G02*
X-12820000Y-18410000I0J50000D01*
G01*
X-12820000Y-15810000D01*
G75*
G02*
X-12770000Y-15760000I50000J0D01*
G01*
X-11670000Y-15760000D01*
G75*
G02*
X-11620000Y-15810000I0J-50000D01*
G01*
X-11620000Y-18410000D01*
G75*
G02*
X-11670000Y-18460000I-50000J0D01*
G01*
G37*
G36*
G01*
X-5670000Y-18460000D02*
X-6770000Y-18460000D01*
G75*
G02*
X-6820000Y-18410000I0J50000D01*
G01*
X-6820000Y-15810000D01*
G75*
G02*
X-6770000Y-15760000I50000J0D01*
G01*
X-5670000Y-15760000D01*
G75*
G02*
X-5620000Y-15810000I0J-50000D01*
G01*
X-5620000Y-18410000D01*
G75*
G02*
X-5670000Y-18460000I-50000J0D01*
G01*
G37*
G36*
G01*
X-3670000Y-33660000D02*
X-4770000Y-33660000D01*
G75*
G02*
X-4820000Y-33610000I0J50000D01*
G01*
X-4820000Y-31010000D01*
G75*
G02*
X-4770000Y-30960000I50000J0D01*
G01*
X-3670000Y-30960000D01*
G75*
G02*
X-3620000Y-31010000I0J-50000D01*
G01*
X-3620000Y-33610000D01*
G75*
G02*
X-3670000Y-33660000I-50000J0D01*
G01*
G37*
G36*
G01*
X-3670000Y-18460000D02*
X-4770000Y-18460000D01*
G75*
G02*
X-4820000Y-18410000I0J50000D01*
G01*
X-4820000Y-15810000D01*
G75*
G02*
X-4770000Y-15760000I50000J0D01*
G01*
X-3670000Y-15760000D01*
G75*
G02*
X-3620000Y-15810000I0J-50000D01*
G01*
X-3620000Y-18410000D01*
G75*
G02*
X-3670000Y-18460000I-50000J0D01*
G01*
G37*
G36*
G01*
X-1670000Y-33660000D02*
X-2770000Y-33660000D01*
G75*
G02*
X-2820000Y-33610000I0J50000D01*
G01*
X-2820000Y-31010000D01*
G75*
G02*
X-2770000Y-30960000I50000J0D01*
G01*
X-1670000Y-30960000D01*
G75*
G02*
X-1620000Y-31010000I0J-50000D01*
G01*
X-1620000Y-33610000D01*
G75*
G02*
X-1670000Y-33660000I-50000J0D01*
G01*
G37*
G36*
G01*
X-11670000Y-33660000D02*
X-12770000Y-33660000D01*
G75*
G02*
X-12820000Y-33610000I0J50000D01*
G01*
X-12820000Y-31010000D01*
G75*
G02*
X-12770000Y-30960000I50000J0D01*
G01*
X-11670000Y-30960000D01*
G75*
G02*
X-11620000Y-31010000I0J-50000D01*
G01*
X-11620000Y-33610000D01*
G75*
G02*
X-11670000Y-33660000I-50000J0D01*
G01*
G37*
G36*
G01*
X-15670000Y-18460000D02*
X-16770000Y-18460000D01*
G75*
G02*
X-16820000Y-18410000I0J50000D01*
G01*
X-16820000Y-15810000D01*
G75*
G02*
X-16770000Y-15760000I50000J0D01*
G01*
X-15670000Y-15760000D01*
G75*
G02*
X-15620000Y-15810000I0J-50000D01*
G01*
X-15620000Y-18410000D01*
G75*
G02*
X-15670000Y-18460000I-50000J0D01*
G01*
G37*
G36*
G01*
X-7670000Y-33660000D02*
X-8770000Y-33660000D01*
G75*
G02*
X-8820000Y-33610000I0J50000D01*
G01*
X-8820000Y-31010000D01*
G75*
G02*
X-8770000Y-30960000I50000J0D01*
G01*
X-7670000Y-30960000D01*
G75*
G02*
X-7620000Y-31010000I0J-50000D01*
G01*
X-7620000Y-33610000D01*
G75*
G02*
X-7670000Y-33660000I-50000J0D01*
G01*
G37*
G36*
G01*
X-9670000Y-18460000D02*
X-10770000Y-18460000D01*
G75*
G02*
X-10820000Y-18410000I0J50000D01*
G01*
X-10820000Y-15810000D01*
G75*
G02*
X-10770000Y-15760000I50000J0D01*
G01*
X-9670000Y-15760000D01*
G75*
G02*
X-9620000Y-15810000I0J-50000D01*
G01*
X-9620000Y-18410000D01*
G75*
G02*
X-9670000Y-18460000I-50000J0D01*
G01*
G37*
G36*
G01*
X-7670000Y-18460000D02*
X-8770000Y-18460000D01*
G75*
G02*
X-8820000Y-18410000I0J50000D01*
G01*
X-8820000Y-15810000D01*
G75*
G02*
X-8770000Y-15760000I50000J0D01*
G01*
X-7670000Y-15760000D01*
G75*
G02*
X-7620000Y-15810000I0J-50000D01*
G01*
X-7620000Y-18410000D01*
G75*
G02*
X-7670000Y-18460000I-50000J0D01*
G01*
G37*
G36*
G01*
X-5670000Y-33660000D02*
X-6770000Y-33660000D01*
G75*
G02*
X-6820000Y-33610000I0J50000D01*
G01*
X-6820000Y-31010000D01*
G75*
G02*
X-6770000Y-30960000I50000J0D01*
G01*
X-5670000Y-30960000D01*
G75*
G02*
X-5620000Y-31010000I0J-50000D01*
G01*
X-5620000Y-33610000D01*
G75*
G02*
X-5670000Y-33660000I-50000J0D01*
G01*
G37*
G36*
G01*
X-9670000Y-33660000D02*
X-10770000Y-33660000D01*
G75*
G02*
X-10820000Y-33610000I0J50000D01*
G01*
X-10820000Y-31010000D01*
G75*
G02*
X-10770000Y-30960000I50000J0D01*
G01*
X-9670000Y-30960000D01*
G75*
G02*
X-9620000Y-31010000I0J-50000D01*
G01*
X-9620000Y-33610000D01*
G75*
G02*
X-9670000Y-33660000I-50000J0D01*
G01*
G37*
G36*
G01*
X-1670000Y-18460000D02*
X-2770000Y-18460000D01*
G75*
G02*
X-2820000Y-18410000I0J50000D01*
G01*
X-2820000Y-15810000D01*
G75*
G02*
X-2770000Y-15760000I50000J0D01*
G01*
X-1670000Y-15760000D01*
G75*
G02*
X-1620000Y-15810000I0J-50000D01*
G01*
X-1620000Y-18410000D01*
G75*
G02*
X-1670000Y-18460000I-50000J0D01*
G01*
G37*
G36*
G01*
X-13670000Y-33660000D02*
X-14770000Y-33660000D01*
G75*
G02*
X-14820000Y-33610000I0J50000D01*
G01*
X-14820000Y-31010000D01*
G75*
G02*
X-14770000Y-30960000I50000J0D01*
G01*
X-13670000Y-30960000D01*
G75*
G02*
X-13620000Y-31010000I0J-50000D01*
G01*
X-13620000Y-33610000D01*
G75*
G02*
X-13670000Y-33660000I-50000J0D01*
G01*
G37*
G36*
G01*
X-15670000Y-33660000D02*
X-16770000Y-33660000D01*
G75*
G02*
X-16820000Y-33610000I0J50000D01*
G01*
X-16820000Y-31010000D01*
G75*
G02*
X-16770000Y-30960000I50000J0D01*
G01*
X-15670000Y-30960000D01*
G75*
G02*
X-15620000Y-31010000I0J-50000D01*
G01*
X-15620000Y-33610000D01*
G75*
G02*
X-15670000Y-33660000I-50000J0D01*
G01*
G37*
D10*
X11455400Y1244600D03*
X11455400Y-1295400D03*
X8915400Y1244600D03*
X8915400Y-1295400D03*
X6375400Y1244600D03*
X6375400Y-1295400D03*
X3835400Y1244600D03*
X3835400Y-1295400D03*
X1295400Y1244600D03*
X1295400Y-1295400D03*
X-1244600Y1244600D03*
X-1244600Y-1295400D03*
X-3784600Y1244600D03*
X-3784600Y-1295400D03*
X-6324600Y1244600D03*
X-6324600Y-1295400D03*
X-8864600Y1244600D03*
X-8864600Y-1295400D03*
X-11404600Y1244600D03*
G36*
G01*
X-12254600Y-395400D02*
X-10554600Y-395400D01*
G75*
G02*
X-10504600Y-445400I0J-50000D01*
G01*
X-10504600Y-2145400D01*
G75*
G02*
X-10554600Y-2195400I-50000J0D01*
G01*
X-12254600Y-2195400D01*
G75*
G02*
X-12304600Y-2145400I0J50000D01*
G01*
X-12304600Y-445400D01*
G75*
G02*
X-12254600Y-395400I50000J0D01*
G01*
G37*
D11*
X-12893040Y-39702740D03*
D12*
X8280400Y-30457140D03*
G36*
G01*
X3930400Y-31257140D02*
X3930400Y-29657140D01*
G75*
G02*
X3980400Y-29607140I50000J0D01*
G01*
X5580400Y-29607140D01*
G75*
G02*
X5630400Y-29657140I0J-50000D01*
G01*
X5630400Y-31257140D01*
G75*
G02*
X5580400Y-31307140I-50000J0D01*
G01*
X3980400Y-31307140D01*
G75*
G02*
X3930400Y-31257140I0J50000D01*
G01*
G37*
X8239760Y-21798280D03*
G36*
G01*
X3889760Y-22598280D02*
X3889760Y-20998280D01*
G75*
G02*
X3939760Y-20948280I50000J0D01*
G01*
X5539760Y-20948280D01*
G75*
G02*
X5589760Y-20998280I0J-50000D01*
G01*
X5589760Y-22598280D01*
G75*
G02*
X5539760Y-22648280I-50000J0D01*
G01*
X3939760Y-22648280D01*
G75*
G02*
X3889760Y-22598280I0J50000D01*
G01*
G37*
G36*
G01*
X-16438260Y-14531500D02*
X-16043260Y-14531500D01*
G75*
G02*
X-15870760Y-14704000I0J-172500D01*
G01*
X-15870760Y-15049000D01*
G75*
G02*
X-16043260Y-15221500I-172500J0D01*
G01*
X-16438260Y-15221500D01*
G75*
G02*
X-16610760Y-15049000I0J172500D01*
G01*
X-16610760Y-14704000D01*
G75*
G02*
X-16438260Y-14531500I172500J0D01*
G01*
G37*
G36*
G01*
X-16438260Y-13561500D02*
X-16043260Y-13561500D01*
G75*
G02*
X-15870760Y-13734000I0J-172500D01*
G01*
X-15870760Y-14079000D01*
G75*
G02*
X-16043260Y-14251500I-172500J0D01*
G01*
X-16438260Y-14251500D01*
G75*
G02*
X-16610760Y-14079000I0J172500D01*
G01*
X-16610760Y-13734000D01*
G75*
G02*
X-16438260Y-13561500I172500J0D01*
G01*
G37*
G36*
G01*
X-14449440Y-14496220D02*
X-14054440Y-14496220D01*
G75*
G02*
X-13881940Y-14668720I0J-172500D01*
G01*
X-13881940Y-15013720D01*
G75*
G02*
X-14054440Y-15186220I-172500J0D01*
G01*
X-14449440Y-15186220D01*
G75*
G02*
X-14621940Y-15013720I0J172500D01*
G01*
X-14621940Y-14668720D01*
G75*
G02*
X-14449440Y-14496220I172500J0D01*
G01*
G37*
G36*
G01*
X-14449440Y-13526220D02*
X-14054440Y-13526220D01*
G75*
G02*
X-13881940Y-13698720I0J-172500D01*
G01*
X-13881940Y-14043720D01*
G75*
G02*
X-14054440Y-14216220I-172500J0D01*
G01*
X-14449440Y-14216220D01*
G75*
G02*
X-14621940Y-14043720I0J172500D01*
G01*
X-14621940Y-13698720D01*
G75*
G02*
X-14449440Y-13526220I172500J0D01*
G01*
G37*
G36*
G01*
X-10415920Y-37272120D02*
X-10020920Y-37272120D01*
G75*
G02*
X-9848420Y-37444620I0J-172500D01*
G01*
X-9848420Y-37789620D01*
G75*
G02*
X-10020920Y-37962120I-172500J0D01*
G01*
X-10415920Y-37962120D01*
G75*
G02*
X-10588420Y-37789620I0J172500D01*
G01*
X-10588420Y-37444620D01*
G75*
G02*
X-10415920Y-37272120I172500J0D01*
G01*
G37*
G36*
G01*
X-10415920Y-36302120D02*
X-10020920Y-36302120D01*
G75*
G02*
X-9848420Y-36474620I0J-172500D01*
G01*
X-9848420Y-36819620D01*
G75*
G02*
X-10020920Y-36992120I-172500J0D01*
G01*
X-10415920Y-36992120D01*
G75*
G02*
X-10588420Y-36819620I0J172500D01*
G01*
X-10588420Y-36474620D01*
G75*
G02*
X-10415920Y-36302120I172500J0D01*
G01*
G37*
G36*
G01*
X-7889400Y-13035900D02*
X-7889400Y-13430900D01*
G75*
G02*
X-8061900Y-13603400I-172500J0D01*
G01*
X-8406900Y-13603400D01*
G75*
G02*
X-8579400Y-13430900I0J172500D01*
G01*
X-8579400Y-13035900D01*
G75*
G02*
X-8406900Y-12863400I172500J0D01*
G01*
X-8061900Y-12863400D01*
G75*
G02*
X-7889400Y-13035900I0J-172500D01*
G01*
G37*
G36*
G01*
X-6919400Y-13035900D02*
X-6919400Y-13430900D01*
G75*
G02*
X-7091900Y-13603400I-172500J0D01*
G01*
X-7436900Y-13603400D01*
G75*
G02*
X-7609400Y-13430900I0J172500D01*
G01*
X-7609400Y-13035900D01*
G75*
G02*
X-7436900Y-12863400I172500J0D01*
G01*
X-7091900Y-12863400D01*
G75*
G02*
X-6919400Y-13035900I0J-172500D01*
G01*
G37*
G36*
G01*
X-15923880Y-36949220D02*
X-16318880Y-36949220D01*
G75*
G02*
X-16491380Y-36776720I0J172500D01*
G01*
X-16491380Y-36431720D01*
G75*
G02*
X-16318880Y-36259220I172500J0D01*
G01*
X-15923880Y-36259220D01*
G75*
G02*
X-15751380Y-36431720I0J-172500D01*
G01*
X-15751380Y-36776720D01*
G75*
G02*
X-15923880Y-36949220I-172500J0D01*
G01*
G37*
G36*
G01*
X-15923880Y-37919220D02*
X-16318880Y-37919220D01*
G75*
G02*
X-16491380Y-37746720I0J172500D01*
G01*
X-16491380Y-37401720D01*
G75*
G02*
X-16318880Y-37229220I172500J0D01*
G01*
X-15923880Y-37229220D01*
G75*
G02*
X-15751380Y-37401720I0J-172500D01*
G01*
X-15751380Y-37746720D01*
G75*
G02*
X-15923880Y-37919220I-172500J0D01*
G01*
G37*
G36*
G01*
X-12422520Y-37493380D02*
X-12027520Y-37493380D01*
G75*
G02*
X-11855020Y-37665880I0J-172500D01*
G01*
X-11855020Y-38010880D01*
G75*
G02*
X-12027520Y-38183380I-172500J0D01*
G01*
X-12422520Y-38183380D01*
G75*
G02*
X-12595020Y-38010880I0J172500D01*
G01*
X-12595020Y-37665880D01*
G75*
G02*
X-12422520Y-37493380I172500J0D01*
G01*
G37*
G36*
G01*
X-12422520Y-36523380D02*
X-12027520Y-36523380D01*
G75*
G02*
X-11855020Y-36695880I0J-172500D01*
G01*
X-11855020Y-37040880D01*
G75*
G02*
X-12027520Y-37213380I-172500J0D01*
G01*
X-12422520Y-37213380D01*
G75*
G02*
X-12595020Y-37040880I0J172500D01*
G01*
X-12595020Y-36695880D01*
G75*
G02*
X-12422520Y-36523380I172500J0D01*
G01*
G37*
G36*
G01*
X-8592660Y-14540880D02*
X-8592660Y-14145880D01*
G75*
G02*
X-8420160Y-13973380I172500J0D01*
G01*
X-8075160Y-13973380D01*
G75*
G02*
X-7902660Y-14145880I0J-172500D01*
G01*
X-7902660Y-14540880D01*
G75*
G02*
X-8075160Y-14713380I-172500J0D01*
G01*
X-8420160Y-14713380D01*
G75*
G02*
X-8592660Y-14540880I0J172500D01*
G01*
G37*
G36*
G01*
X-9562660Y-14540880D02*
X-9562660Y-14145880D01*
G75*
G02*
X-9390160Y-13973380I172500J0D01*
G01*
X-9045160Y-13973380D01*
G75*
G02*
X-8872660Y-14145880I0J-172500D01*
G01*
X-8872660Y-14540880D01*
G75*
G02*
X-9045160Y-14713380I-172500J0D01*
G01*
X-9390160Y-14713380D01*
G75*
G02*
X-9562660Y-14540880I0J172500D01*
G01*
G37*
G36*
G01*
X-1885120Y-35771440D02*
X-1885120Y-36166440D01*
G75*
G02*
X-2057620Y-36338940I-172500J0D01*
G01*
X-2402620Y-36338940D01*
G75*
G02*
X-2575120Y-36166440I0J172500D01*
G01*
X-2575120Y-35771440D01*
G75*
G02*
X-2402620Y-35598940I172500J0D01*
G01*
X-2057620Y-35598940D01*
G75*
G02*
X-1885120Y-35771440I0J-172500D01*
G01*
G37*
G36*
G01*
X-915120Y-35771440D02*
X-915120Y-36166440D01*
G75*
G02*
X-1087620Y-36338940I-172500J0D01*
G01*
X-1432620Y-36338940D01*
G75*
G02*
X-1605120Y-36166440I0J172500D01*
G01*
X-1605120Y-35771440D01*
G75*
G02*
X-1432620Y-35598940I172500J0D01*
G01*
X-1087620Y-35598940D01*
G75*
G02*
X-915120Y-35771440I0J-172500D01*
G01*
G37*
G36*
G01*
X-1885120Y-34699560D02*
X-1885120Y-35094560D01*
G75*
G02*
X-2057620Y-35267060I-172500J0D01*
G01*
X-2402620Y-35267060D01*
G75*
G02*
X-2575120Y-35094560I0J172500D01*
G01*
X-2575120Y-34699560D01*
G75*
G02*
X-2402620Y-34527060I172500J0D01*
G01*
X-2057620Y-34527060D01*
G75*
G02*
X-1885120Y-34699560I0J-172500D01*
G01*
G37*
G36*
G01*
X-915120Y-34699560D02*
X-915120Y-35094560D01*
G75*
G02*
X-1087620Y-35267060I-172500J0D01*
G01*
X-1432620Y-35267060D01*
G75*
G02*
X-1605120Y-35094560I0J172500D01*
G01*
X-1605120Y-34699560D01*
G75*
G02*
X-1432620Y-34527060I172500J0D01*
G01*
X-1087620Y-34527060D01*
G75*
G02*
X-915120Y-34699560I0J-172500D01*
G01*
G37*
G36*
G01*
X-16461300Y-35704160D02*
X-16461300Y-35309160D01*
G75*
G02*
X-16288800Y-35136660I172500J0D01*
G01*
X-15943800Y-35136660D01*
G75*
G02*
X-15771300Y-35309160I0J-172500D01*
G01*
X-15771300Y-35704160D01*
G75*
G02*
X-15943800Y-35876660I-172500J0D01*
G01*
X-16288800Y-35876660D01*
G75*
G02*
X-16461300Y-35704160I0J172500D01*
G01*
G37*
G36*
G01*
X-17431300Y-35704160D02*
X-17431300Y-35309160D01*
G75*
G02*
X-17258800Y-35136660I172500J0D01*
G01*
X-16913800Y-35136660D01*
G75*
G02*
X-16741300Y-35309160I0J-172500D01*
G01*
X-16741300Y-35704160D01*
G75*
G02*
X-16913800Y-35876660I-172500J0D01*
G01*
X-17258800Y-35876660D01*
G75*
G02*
X-17431300Y-35704160I0J172500D01*
G01*
G37*
G36*
G01*
X-12529380Y-35945460D02*
X-12529380Y-35550460D01*
G75*
G02*
X-12356880Y-35377960I172500J0D01*
G01*
X-12011880Y-35377960D01*
G75*
G02*
X-11839380Y-35550460I0J-172500D01*
G01*
X-11839380Y-35945460D01*
G75*
G02*
X-12011880Y-36117960I-172500J0D01*
G01*
X-12356880Y-36117960D01*
G75*
G02*
X-12529380Y-35945460I0J172500D01*
G01*
G37*
G36*
G01*
X-13499380Y-35945460D02*
X-13499380Y-35550460D01*
G75*
G02*
X-13326880Y-35377960I172500J0D01*
G01*
X-12981880Y-35377960D01*
G75*
G02*
X-12809380Y-35550460I0J-172500D01*
G01*
X-12809380Y-35945460D01*
G75*
G02*
X-12981880Y-36117960I-172500J0D01*
G01*
X-13326880Y-36117960D01*
G75*
G02*
X-13499380Y-35945460I0J172500D01*
G01*
G37*
D11*
X11333480Y-19273520D03*
D12*
X12702540Y-25318720D03*
G36*
G01*
X17052540Y-24518720D02*
X17052540Y-26118720D01*
G75*
G02*
X17002540Y-26168720I-50000J0D01*
G01*
X15402540Y-26168720D01*
G75*
G02*
X15352540Y-26118720I0J50000D01*
G01*
X15352540Y-24518720D01*
G75*
G02*
X15402540Y-24468720I50000J0D01*
G01*
X17002540Y-24468720D01*
G75*
G02*
X17052540Y-24518720I0J-50000D01*
G01*
G37*
X12722860Y-33962340D03*
G36*
G01*
X17072860Y-33162340D02*
X17072860Y-34762340D01*
G75*
G02*
X17022860Y-34812340I-50000J0D01*
G01*
X15422860Y-34812340D01*
G75*
G02*
X15372860Y-34762340I0J50000D01*
G01*
X15372860Y-33162340D01*
G75*
G02*
X15422860Y-33112340I50000J0D01*
G01*
X17022860Y-33112340D01*
G75*
G02*
X17072860Y-33162340I0J-50000D01*
G01*
G37*
G36*
G01*
X15151820Y-49251380D02*
X19051820Y-49251380D01*
G75*
G02*
X19101820Y-49301380I0J-50000D01*
G01*
X19101820Y-51501380D01*
G75*
G02*
X19051820Y-51551380I-50000J0D01*
G01*
X15151820Y-51551380D01*
G75*
G02*
X15101820Y-51501380I0J50000D01*
G01*
X15101820Y-49301380D01*
G75*
G02*
X15151820Y-49251380I50000J0D01*
G01*
G37*
G36*
G01*
X15151820Y-45451380D02*
X19051820Y-45451380D01*
G75*
G02*
X19101820Y-45501380I0J-50000D01*
G01*
X19101820Y-47701380D01*
G75*
G02*
X19051820Y-47751380I-50000J0D01*
G01*
X15151820Y-47751380D01*
G75*
G02*
X15101820Y-47701380I0J50000D01*
G01*
X15101820Y-45501380D01*
G75*
G02*
X15151820Y-45451380I50000J0D01*
G01*
G37*
D11*
X-12237720Y-13873480D03*
X-14196060Y-12082780D03*
X-4239260Y-13906500D03*
X-5491480Y-12024360D03*
X-8326120Y-6253480D03*
X-10210800Y-12054840D03*
X-15499080Y-9888220D03*
X-4185920Y-37266880D03*
X-9697720Y-39151560D03*
X-6223000Y-35727640D03*
X-8199120Y-35179000D03*
X-10251440Y-35100260D03*
X-18783300Y-35095180D03*
X-1694180Y-37703760D03*
X16299180Y-19817080D03*
G36*
G01*
X12301020Y-44276880D02*
X11651020Y-44276880D01*
G75*
G02*
X11601020Y-44226880I0J50000D01*
G01*
X11601020Y-43006880D01*
G75*
G02*
X11651020Y-42956880I50000J0D01*
G01*
X12301020Y-42956880D01*
G75*
G02*
X12351020Y-43006880I0J-50000D01*
G01*
X12351020Y-44226880D01*
G75*
G02*
X12301020Y-44276880I-50000J0D01*
G01*
G37*
G36*
G01*
X14201020Y-44276880D02*
X13551020Y-44276880D01*
G75*
G02*
X13501020Y-44226880I0J50000D01*
G01*
X13501020Y-43006880D01*
G75*
G02*
X13551020Y-42956880I50000J0D01*
G01*
X14201020Y-42956880D01*
G75*
G02*
X14251020Y-43006880I0J-50000D01*
G01*
X14251020Y-44226880D01*
G75*
G02*
X14201020Y-44276880I-50000J0D01*
G01*
G37*
G36*
G01*
X14201020Y-46896880D02*
X13551020Y-46896880D01*
G75*
G02*
X13501020Y-46846880I0J50000D01*
G01*
X13501020Y-45626880D01*
G75*
G02*
X13551020Y-45576880I50000J0D01*
G01*
X14201020Y-45576880D01*
G75*
G02*
X14251020Y-45626880I0J-50000D01*
G01*
X14251020Y-46846880D01*
G75*
G02*
X14201020Y-46896880I-50000J0D01*
G01*
G37*
G36*
G01*
X13251020Y-46896880D02*
X12601020Y-46896880D01*
G75*
G02*
X12551020Y-46846880I0J50000D01*
G01*
X12551020Y-45626880D01*
G75*
G02*
X12601020Y-45576880I50000J0D01*
G01*
X13251020Y-45576880D01*
G75*
G02*
X13301020Y-45626880I0J-50000D01*
G01*
X13301020Y-46846880D01*
G75*
G02*
X13251020Y-46896880I-50000J0D01*
G01*
G37*
G36*
G01*
X12301020Y-46896880D02*
X11651020Y-46896880D01*
G75*
G02*
X11601020Y-46846880I0J50000D01*
G01*
X11601020Y-45626880D01*
G75*
G02*
X11651020Y-45576880I50000J0D01*
G01*
X12301020Y-45576880D01*
G75*
G02*
X12351020Y-45626880I0J-50000D01*
G01*
X12351020Y-46846880D01*
G75*
G02*
X12301020Y-46896880I-50000J0D01*
G01*
G37*
G36*
G01*
X10852800Y-42973820D02*
X10457800Y-42973820D01*
G75*
G02*
X10285300Y-42801320I0J172500D01*
G01*
X10285300Y-42456320D01*
G75*
G02*
X10457800Y-42283820I172500J0D01*
G01*
X10852800Y-42283820D01*
G75*
G02*
X11025300Y-42456320I0J-172500D01*
G01*
X11025300Y-42801320D01*
G75*
G02*
X10852800Y-42973820I-172500J0D01*
G01*
G37*
G36*
G01*
X10852800Y-43943820D02*
X10457800Y-43943820D01*
G75*
G02*
X10285300Y-43771320I0J172500D01*
G01*
X10285300Y-43426320D01*
G75*
G02*
X10457800Y-43253820I172500J0D01*
G01*
X10852800Y-43253820D01*
G75*
G02*
X11025300Y-43426320I0J-172500D01*
G01*
X11025300Y-43771320D01*
G75*
G02*
X10852800Y-43943820I-172500J0D01*
G01*
G37*
G36*
G01*
X10322860Y-44822760D02*
X10322860Y-44427760D01*
G75*
G02*
X10495360Y-44255260I172500J0D01*
G01*
X10840360Y-44255260D01*
G75*
G02*
X11012860Y-44427760I0J-172500D01*
G01*
X11012860Y-44822760D01*
G75*
G02*
X10840360Y-44995260I-172500J0D01*
G01*
X10495360Y-44995260D01*
G75*
G02*
X10322860Y-44822760I0J172500D01*
G01*
G37*
G36*
G01*
X9352860Y-44822760D02*
X9352860Y-44427760D01*
G75*
G02*
X9525360Y-44255260I172500J0D01*
G01*
X9870360Y-44255260D01*
G75*
G02*
X10042860Y-44427760I0J-172500D01*
G01*
X10042860Y-44822760D01*
G75*
G02*
X9870360Y-44995260I-172500J0D01*
G01*
X9525360Y-44995260D01*
G75*
G02*
X9352860Y-44822760I0J172500D01*
G01*
G37*
G36*
G01*
X12606460Y-47990140D02*
X12606460Y-47595140D01*
G75*
G02*
X12778960Y-47422640I172500J0D01*
G01*
X13123960Y-47422640D01*
G75*
G02*
X13296460Y-47595140I0J-172500D01*
G01*
X13296460Y-47990140D01*
G75*
G02*
X13123960Y-48162640I-172500J0D01*
G01*
X12778960Y-48162640D01*
G75*
G02*
X12606460Y-47990140I0J172500D01*
G01*
G37*
G36*
G01*
X11636460Y-47990140D02*
X11636460Y-47595140D01*
G75*
G02*
X11808960Y-47422640I172500J0D01*
G01*
X12153960Y-47422640D01*
G75*
G02*
X12326460Y-47595140I0J-172500D01*
G01*
X12326460Y-47990140D01*
G75*
G02*
X12153960Y-48162640I-172500J0D01*
G01*
X11808960Y-48162640D01*
G75*
G02*
X11636460Y-47990140I0J172500D01*
G01*
G37*
D12*
X8315840Y-39116000D03*
G36*
G01*
X3965840Y-39916000D02*
X3965840Y-38316000D01*
G75*
G02*
X4015840Y-38266000I50000J0D01*
G01*
X5615840Y-38266000D01*
G75*
G02*
X5665840Y-38316000I0J-50000D01*
G01*
X5665840Y-39916000D01*
G75*
G02*
X5615840Y-39966000I-50000J0D01*
G01*
X4015840Y-39966000D01*
G75*
G02*
X3965840Y-39916000I0J50000D01*
G01*
G37*
G36*
G01*
X14263290Y-50410400D02*
X13300790Y-50410400D01*
G75*
G02*
X13032040Y-50141650I0J268750D01*
G01*
X13032040Y-49604150D01*
G75*
G02*
X13300790Y-49335400I268750J0D01*
G01*
X14263290Y-49335400D01*
G75*
G02*
X14532040Y-49604150I0J-268750D01*
G01*
X14532040Y-50141650D01*
G75*
G02*
X14263290Y-50410400I-268750J0D01*
G01*
G37*
G36*
G01*
X14263290Y-52285400D02*
X13300790Y-52285400D01*
G75*
G02*
X13032040Y-52016650I0J268750D01*
G01*
X13032040Y-51479150D01*
G75*
G02*
X13300790Y-51210400I268750J0D01*
G01*
X14263290Y-51210400D01*
G75*
G02*
X14532040Y-51479150I0J-268750D01*
G01*
X14532040Y-52016650D01*
G75*
G02*
X14263290Y-52285400I-268750J0D01*
G01*
G37*
G36*
G01*
X12292910Y-50324640D02*
X11730410Y-50324640D01*
G75*
G02*
X11486660Y-50080890I0J243750D01*
G01*
X11486660Y-49593390D01*
G75*
G02*
X11730410Y-49349640I243750J0D01*
G01*
X12292910Y-49349640D01*
G75*
G02*
X12536660Y-49593390I0J-243750D01*
G01*
X12536660Y-50080890D01*
G75*
G02*
X12292910Y-50324640I-243750J0D01*
G01*
G37*
G36*
G01*
X12292910Y-51899640D02*
X11730410Y-51899640D01*
G75*
G02*
X11486660Y-51655890I0J243750D01*
G01*
X11486660Y-51168390D01*
G75*
G02*
X11730410Y-50924640I243750J0D01*
G01*
X12292910Y-50924640D01*
G75*
G02*
X12536660Y-51168390I0J-243750D01*
G01*
X12536660Y-51655890D01*
G75*
G02*
X12292910Y-51899640I-243750J0D01*
G01*
G37*
G36*
G01*
X10333160Y-45876860D02*
X10333160Y-45481860D01*
G75*
G02*
X10505660Y-45309360I172500J0D01*
G01*
X10850660Y-45309360D01*
G75*
G02*
X11023160Y-45481860I0J-172500D01*
G01*
X11023160Y-45876860D01*
G75*
G02*
X10850660Y-46049360I-172500J0D01*
G01*
X10505660Y-46049360D01*
G75*
G02*
X10333160Y-45876860I0J172500D01*
G01*
G37*
G36*
G01*
X9363160Y-45876860D02*
X9363160Y-45481860D01*
G75*
G02*
X9535660Y-45309360I172500J0D01*
G01*
X9880660Y-45309360D01*
G75*
G02*
X10053160Y-45481860I0J-172500D01*
G01*
X10053160Y-45876860D01*
G75*
G02*
X9880660Y-46049360I-172500J0D01*
G01*
X9535660Y-46049360D01*
G75*
G02*
X9363160Y-45876860I0J172500D01*
G01*
G37*
G36*
G01*
X15414070Y-42434700D02*
X16376570Y-42434700D01*
G75*
G02*
X16645320Y-42703450I0J-268750D01*
G01*
X16645320Y-43240950D01*
G75*
G02*
X16376570Y-43509700I-268750J0D01*
G01*
X15414070Y-43509700D01*
G75*
G02*
X15145320Y-43240950I0J268750D01*
G01*
X15145320Y-42703450D01*
G75*
G02*
X15414070Y-42434700I268750J0D01*
G01*
G37*
G36*
G01*
X15414070Y-40559700D02*
X16376570Y-40559700D01*
G75*
G02*
X16645320Y-40828450I0J-268750D01*
G01*
X16645320Y-41365950D01*
G75*
G02*
X16376570Y-41634700I-268750J0D01*
G01*
X15414070Y-41634700D01*
G75*
G02*
X15145320Y-41365950I0J268750D01*
G01*
X15145320Y-40828450D01*
G75*
G02*
X15414070Y-40559700I268750J0D01*
G01*
G37*
G36*
G01*
X17539390Y-42138880D02*
X18101890Y-42138880D01*
G75*
G02*
X18345640Y-42382630I0J-243750D01*
G01*
X18345640Y-42870130D01*
G75*
G02*
X18101890Y-43113880I-243750J0D01*
G01*
X17539390Y-43113880D01*
G75*
G02*
X17295640Y-42870130I0J243750D01*
G01*
X17295640Y-42382630D01*
G75*
G02*
X17539390Y-42138880I243750J0D01*
G01*
G37*
G36*
G01*
X17539390Y-40563880D02*
X18101890Y-40563880D01*
G75*
G02*
X18345640Y-40807630I0J-243750D01*
G01*
X18345640Y-41295130D01*
G75*
G02*
X18101890Y-41538880I-243750J0D01*
G01*
X17539390Y-41538880D01*
G75*
G02*
X17295640Y-41295130I0J243750D01*
G01*
X17295640Y-40807630D01*
G75*
G02*
X17539390Y-40563880I243750J0D01*
G01*
G37*
D13*
X-17000000Y-57000000D03*
D14*
X12040000Y-57390000D03*
X-12948920Y-58592720D03*
X-17090000Y2220000D03*
D13*
X17000000Y-57000000D03*
G36*
G01*
X-6279500Y-5133040D02*
X-6674500Y-5133040D01*
G75*
G02*
X-6847000Y-4960540I0J172500D01*
G01*
X-6847000Y-4615540D01*
G75*
G02*
X-6674500Y-4443040I172500J0D01*
G01*
X-6279500Y-4443040D01*
G75*
G02*
X-6107000Y-4615540I0J-172500D01*
G01*
X-6107000Y-4960540D01*
G75*
G02*
X-6279500Y-5133040I-172500J0D01*
G01*
G37*
G36*
G01*
X-6279500Y-6103040D02*
X-6674500Y-6103040D01*
G75*
G02*
X-6847000Y-5930540I0J172500D01*
G01*
X-6847000Y-5585540D01*
G75*
G02*
X-6674500Y-5413040I172500J0D01*
G01*
X-6279500Y-5413040D01*
G75*
G02*
X-6107000Y-5585540I0J-172500D01*
G01*
X-6107000Y-5930540D01*
G75*
G02*
X-6279500Y-6103040I-172500J0D01*
G01*
G37*
G36*
G01*
X-5080620Y-5120480D02*
X-5475620Y-5120480D01*
G75*
G02*
X-5648120Y-4947980I0J172500D01*
G01*
X-5648120Y-4602980D01*
G75*
G02*
X-5475620Y-4430480I172500J0D01*
G01*
X-5080620Y-4430480D01*
G75*
G02*
X-4908120Y-4602980I0J-172500D01*
G01*
X-4908120Y-4947980D01*
G75*
G02*
X-5080620Y-5120480I-172500J0D01*
G01*
G37*
G36*
G01*
X-5080620Y-6090480D02*
X-5475620Y-6090480D01*
G75*
G02*
X-5648120Y-5917980I0J172500D01*
G01*
X-5648120Y-5572980D01*
G75*
G02*
X-5475620Y-5400480I172500J0D01*
G01*
X-5080620Y-5400480D01*
G75*
G02*
X-4908120Y-5572980I0J-172500D01*
G01*
X-4908120Y-5917980D01*
G75*
G02*
X-5080620Y-6090480I-172500J0D01*
G01*
G37*
M02*
