G04 #@! TF.GenerationSoftware,KiCad,Pcbnew,(5.1.10)-1*
G04 #@! TF.CreationDate,2021-10-05T13:08:05+05:30*
G04 #@! TF.ProjectId,P-1000072_Cicada Wi-Fi,502d3130-3030-4303-9732-5f4369636164,0.1*
G04 #@! TF.SameCoordinates,PX7cee6c0PY3dfd240*
G04 #@! TF.FileFunction,Legend,Bot*
G04 #@! TF.FilePolarity,Positive*
%FSLAX46Y46*%
G04 Gerber Fmt 4.6, Leading zero omitted, Abs format (unit mm)*
G04 Created by KiCad (PCBNEW (5.1.10)-1) date 2021-10-05 13:08:05*
%MOMM*%
%LPD*%
G01*
G04 APERTURE LIST*
%ADD10C,0.120000*%
%ADD11C,0.150000*%
%ADD12C,0.100000*%
G04 APERTURE END LIST*
D10*
X-12734600Y2574600D02*
X-12734600Y-25400D01*
X-12734600Y2574600D02*
X12785400Y2574600D01*
X12785400Y2574600D02*
X12785400Y-2625400D01*
X-10134600Y-2625400D02*
X12785400Y-2625400D01*
X-10134600Y-25400D02*
X-10134600Y-2625400D01*
X-12734600Y-25400D02*
X-10134600Y-25400D01*
X-12734600Y-2625400D02*
X-11404600Y-2625400D01*
X-12734600Y-1295400D02*
X-12734600Y-2625400D01*
X-1569680Y-48707040D02*
G75*
G03*
X-1569680Y-48707040I-950000J0D01*
G01*
X-736560Y-37688520D02*
G75*
G03*
X-736560Y-37688520I-950000J0D01*
G01*
X-878800Y-50774600D02*
G75*
G03*
X-878800Y-50774600I-950000J0D01*
G01*
X-10820360Y-49997360D02*
G75*
G03*
X-10820360Y-49997360I-950000J0D01*
G01*
X-10429200Y-56098440D02*
G75*
G03*
X-10429200Y-56098440I-950000J0D01*
G01*
X-11305500Y-37754560D02*
G75*
G03*
X-11305500Y-37754560I-950000J0D01*
G01*
X1691680Y-17139920D02*
G75*
G03*
X1691680Y-17139920I-950000J0D01*
G01*
X-9199840Y-51511200D02*
G75*
G03*
X-9199840Y-51511200I-950000J0D01*
G01*
X-13319720Y-35745420D02*
G75*
G03*
X-13319720Y-35745420I-950000J0D01*
G01*
X6770000Y-10570000D02*
G75*
G03*
X6770000Y-10570000I-950000J0D01*
G01*
X2540000Y-10570000D02*
G75*
G03*
X2540000Y-10570000I-950000J0D01*
G01*
X-11180000Y-4900000D02*
G75*
G03*
X-11180000Y-4900000I-950000J0D01*
G01*
X-11160000Y-7790000D02*
G75*
G03*
X-11160000Y-7790000I-950000J0D01*
G01*
X13580000Y-15460000D02*
G75*
G03*
X13580000Y-15460000I-950000J0D01*
G01*
X10550000Y-8870000D02*
G75*
G03*
X10550000Y-8870000I-950000J0D01*
G01*
D11*
X-14722220Y307934D02*
X-14007934Y307934D01*
X-13865077Y355553D01*
X-13769839Y450791D01*
X-13722220Y593648D01*
X-13722220Y688886D01*
X-14722220Y-73019D02*
X-14722220Y-692066D01*
X-14341267Y-358733D01*
X-14341267Y-501590D01*
X-14293648Y-596828D01*
X-14246029Y-644447D01*
X-14150791Y-692066D01*
X-13912696Y-692066D01*
X-13817458Y-644447D01*
X-13769839Y-596828D01*
X-13722220Y-501590D01*
X-13722220Y-215876D01*
X-13769839Y-120638D01*
X-13817458Y-73019D01*
D12*
X-1490791Y-46990510D02*
X-1657458Y-47490510D01*
X-1824124Y-46990510D01*
X-2205077Y-47466700D02*
X-2157458Y-47490510D01*
X-2062220Y-47490510D01*
X-2014600Y-47466700D01*
X-1990791Y-47442891D01*
X-1966981Y-47395272D01*
X-1966981Y-47252415D01*
X-1990791Y-47204796D01*
X-2014600Y-47180986D01*
X-2062220Y-47157177D01*
X-2157458Y-47157177D01*
X-2205077Y-47180986D01*
X-2633648Y-47466700D02*
X-2586029Y-47490510D01*
X-2490791Y-47490510D01*
X-2443172Y-47466700D01*
X-2419362Y-47442891D01*
X-2395553Y-47395272D01*
X-2395553Y-47252415D01*
X-2419362Y-47204796D01*
X-2443172Y-47180986D01*
X-2490791Y-47157177D01*
X-2586029Y-47157177D01*
X-2633648Y-47180986D01*
X-2728886Y-47538129D02*
X-3109839Y-47538129D01*
X-3490791Y-47490510D02*
X-3205077Y-47490510D01*
X-3347934Y-47490510D02*
X-3347934Y-46990510D01*
X-3300315Y-47061939D01*
X-3252696Y-47109558D01*
X-3205077Y-47133367D01*
D11*
X-496084Y-35390900D02*
X-829418Y-36390900D01*
X-1162751Y-35390900D01*
X-1924656Y-36343281D02*
X-1829418Y-36390900D01*
X-1638941Y-36390900D01*
X-1543703Y-36343281D01*
X-1496084Y-36295662D01*
X-1448465Y-36200424D01*
X-1448465Y-35914710D01*
X-1496084Y-35819472D01*
X-1543703Y-35771853D01*
X-1638941Y-35724234D01*
X-1829418Y-35724234D01*
X-1924656Y-35771853D01*
X-2781799Y-36343281D02*
X-2686560Y-36390900D01*
X-2496084Y-36390900D01*
X-2400846Y-36343281D01*
X-2353227Y-36295662D01*
X-2305608Y-36200424D01*
X-2305608Y-35914710D01*
X-2353227Y-35819472D01*
X-2400846Y-35771853D01*
X-2496084Y-35724234D01*
X-2686560Y-35724234D01*
X-2781799Y-35771853D01*
D12*
X-733871Y-49073310D02*
X-900538Y-49573310D01*
X-1067204Y-49073310D01*
X-1448157Y-49549500D02*
X-1400538Y-49573310D01*
X-1305300Y-49573310D01*
X-1257680Y-49549500D01*
X-1233871Y-49525691D01*
X-1210061Y-49478072D01*
X-1210061Y-49335215D01*
X-1233871Y-49287596D01*
X-1257680Y-49263786D01*
X-1305300Y-49239977D01*
X-1400538Y-49239977D01*
X-1448157Y-49263786D01*
X-1876728Y-49549500D02*
X-1829109Y-49573310D01*
X-1733871Y-49573310D01*
X-1686252Y-49549500D01*
X-1662442Y-49525691D01*
X-1638633Y-49478072D01*
X-1638633Y-49335215D01*
X-1662442Y-49287596D01*
X-1686252Y-49263786D01*
X-1733871Y-49239977D01*
X-1829109Y-49239977D01*
X-1876728Y-49263786D01*
X-1971966Y-49620929D02*
X-2352919Y-49620929D01*
X-2448157Y-49120929D02*
X-2471966Y-49097120D01*
X-2519585Y-49073310D01*
X-2638633Y-49073310D01*
X-2686252Y-49097120D01*
X-2710061Y-49120929D01*
X-2733871Y-49168548D01*
X-2733871Y-49216167D01*
X-2710061Y-49287596D01*
X-2424347Y-49573310D01*
X-2733871Y-49573310D01*
X-11380993Y-48539245D02*
X-11547660Y-48539245D01*
X-11619088Y-48801150D02*
X-11380993Y-48801150D01*
X-11380993Y-48301150D01*
X-11619088Y-48301150D01*
X-11833374Y-48801150D02*
X-11833374Y-48301150D01*
X-12119088Y-48801150D01*
X-12119088Y-48301150D01*
X-8197317Y-55690960D02*
X-8149698Y-55667150D01*
X-8078269Y-55667150D01*
X-8006840Y-55690960D01*
X-7959221Y-55738579D01*
X-7935412Y-55786198D01*
X-7911602Y-55881436D01*
X-7911602Y-55952864D01*
X-7935412Y-56048102D01*
X-7959221Y-56095721D01*
X-8006840Y-56143340D01*
X-8078269Y-56167150D01*
X-8125888Y-56167150D01*
X-8197317Y-56143340D01*
X-8221126Y-56119531D01*
X-8221126Y-55952864D01*
X-8125888Y-55952864D01*
X-8435412Y-56167150D02*
X-8435412Y-55667150D01*
X-8721126Y-56167150D01*
X-8721126Y-55667150D01*
X-8959221Y-56167150D02*
X-8959221Y-55667150D01*
X-9078269Y-55667150D01*
X-9149698Y-55690960D01*
X-9197317Y-55738579D01*
X-9221126Y-55786198D01*
X-9244936Y-55881436D01*
X-9244936Y-55952864D01*
X-9221126Y-56048102D01*
X-9197317Y-56095721D01*
X-9149698Y-56143340D01*
X-9078269Y-56167150D01*
X-8959221Y-56167150D01*
X-9340174Y-56214769D02*
X-9721126Y-56214769D01*
X-9863983Y-56167150D02*
X-9959221Y-56167150D01*
X-10006840Y-56143340D01*
X-10030650Y-56119531D01*
X-10078269Y-56048102D01*
X-10102079Y-55952864D01*
X-10102079Y-55762388D01*
X-10078269Y-55714769D01*
X-10054460Y-55690960D01*
X-10006840Y-55667150D01*
X-9911602Y-55667150D01*
X-9863983Y-55690960D01*
X-9840174Y-55714769D01*
X-9816364Y-55762388D01*
X-9816364Y-55881436D01*
X-9840174Y-55929055D01*
X-9863983Y-55952864D01*
X-9911602Y-55976674D01*
X-10006840Y-55976674D01*
X-10054460Y-55952864D01*
X-10078269Y-55929055D01*
X-10102079Y-55881436D01*
X-11911853Y-39255545D02*
X-12078520Y-39255545D01*
X-12149948Y-39517450D02*
X-11911853Y-39517450D01*
X-11911853Y-39017450D01*
X-12149948Y-39017450D01*
X-12364234Y-39517450D02*
X-12364234Y-39017450D01*
X-12649948Y-39517450D01*
X-12649948Y-39017450D01*
X-13657747Y-51269413D02*
X-13895842Y-51269413D01*
X-13610128Y-51412270D02*
X-13776795Y-50912270D01*
X-13943461Y-51412270D01*
X-14110128Y-51412270D02*
X-14110128Y-50912270D01*
X-14276795Y-51269413D01*
X-14443461Y-50912270D01*
X-14443461Y-51412270D01*
X-14681557Y-51412270D02*
X-14681557Y-50912270D01*
X-14872033Y-50912270D01*
X-14919652Y-50936080D01*
X-14943461Y-50959889D01*
X-14967271Y-51007508D01*
X-14967271Y-51078937D01*
X-14943461Y-51126556D01*
X-14919652Y-51150365D01*
X-14872033Y-51174175D01*
X-14681557Y-51174175D01*
X-15062509Y-51459889D02*
X-15443461Y-51459889D01*
X-15562509Y-51150365D02*
X-15729176Y-51150365D01*
X-15800604Y-51412270D02*
X-15562509Y-51412270D01*
X-15562509Y-50912270D01*
X-15800604Y-50912270D01*
X-16014890Y-51412270D02*
X-16014890Y-50912270D01*
X-16300604Y-51412270D01*
X-16300604Y-50912270D01*
X1117012Y-15434580D02*
X1164631Y-15410770D01*
X1236060Y-15410770D01*
X1307488Y-15434580D01*
X1355107Y-15482199D01*
X1378917Y-15529818D01*
X1402726Y-15625056D01*
X1402726Y-15696484D01*
X1378917Y-15791722D01*
X1355107Y-15839341D01*
X1307488Y-15886960D01*
X1236060Y-15910770D01*
X1188440Y-15910770D01*
X1117012Y-15886960D01*
X1093202Y-15863151D01*
X1093202Y-15696484D01*
X1188440Y-15696484D01*
X878917Y-15910770D02*
X878917Y-15410770D01*
X593202Y-15910770D01*
X593202Y-15410770D01*
X355107Y-15910770D02*
X355107Y-15410770D01*
X236060Y-15410770D01*
X164631Y-15434580D01*
X117012Y-15482199D01*
X93202Y-15529818D01*
X69393Y-15625056D01*
X69393Y-15696484D01*
X93202Y-15791722D01*
X117012Y-15839341D01*
X164631Y-15886960D01*
X236060Y-15910770D01*
X355107Y-15910770D01*
X-9622541Y-53418870D02*
X-9622541Y-52918870D01*
X-9741589Y-52918870D01*
X-9813018Y-52942680D01*
X-9860637Y-52990299D01*
X-9884446Y-53037918D01*
X-9908256Y-53133156D01*
X-9908256Y-53204584D01*
X-9884446Y-53299822D01*
X-9860637Y-53347441D01*
X-9813018Y-53395060D01*
X-9741589Y-53418870D01*
X-9622541Y-53418870D01*
X-10122541Y-53156965D02*
X-10289208Y-53156965D01*
X-10360637Y-53418870D02*
X-10122541Y-53418870D01*
X-10122541Y-52918870D01*
X-10360637Y-52918870D01*
X-10503494Y-52918870D02*
X-10789208Y-52918870D01*
X-10646351Y-53418870D02*
X-10646351Y-52918870D01*
X-14337814Y-34545827D02*
X-14337814Y-34307732D01*
X-14480671Y-34593446D02*
X-13980671Y-34426780D01*
X-14480671Y-34260113D01*
X-14480671Y-34093446D02*
X-13980671Y-34093446D01*
X-13980671Y-33974399D01*
X-14004480Y-33902970D01*
X-14052100Y-33855351D01*
X-14099719Y-33831541D01*
X-14194957Y-33807732D01*
X-14266385Y-33807732D01*
X-14361623Y-33831541D01*
X-14409242Y-33855351D01*
X-14456861Y-33902970D01*
X-14480671Y-33974399D01*
X-14480671Y-34093446D01*
X-14433052Y-33307732D02*
X-14456861Y-33331541D01*
X-14480671Y-33402970D01*
X-14480671Y-33450589D01*
X-14456861Y-33522018D01*
X-14409242Y-33569637D01*
X-14361623Y-33593446D01*
X-14266385Y-33617256D01*
X-14194957Y-33617256D01*
X-14099719Y-33593446D01*
X-14052100Y-33569637D01*
X-14004480Y-33522018D01*
X-13980671Y-33450589D01*
X-13980671Y-33402970D01*
X-14004480Y-33331541D01*
X-14028290Y-33307732D01*
X5912479Y-9278750D02*
X6079145Y-9040655D01*
X6198193Y-9278750D02*
X6198193Y-8778750D01*
X6007717Y-8778750D01*
X5960098Y-8802560D01*
X5936288Y-8826369D01*
X5912479Y-8873988D01*
X5912479Y-8945417D01*
X5936288Y-8993036D01*
X5960098Y-9016845D01*
X6007717Y-9040655D01*
X6198193Y-9040655D01*
X5745812Y-9278750D02*
X5483907Y-8945417D01*
X5745812Y-8945417D02*
X5483907Y-9278750D01*
X1713859Y-9438770D02*
X1880525Y-9200675D01*
X1999573Y-9438770D02*
X1999573Y-8938770D01*
X1809097Y-8938770D01*
X1761478Y-8962580D01*
X1737668Y-8986389D01*
X1713859Y-9034008D01*
X1713859Y-9105437D01*
X1737668Y-9153056D01*
X1761478Y-9176865D01*
X1809097Y-9200675D01*
X1999573Y-9200675D01*
X1547192Y-9438770D02*
X1285287Y-9105437D01*
X1547192Y-9105437D02*
X1285287Y-9438770D01*
X-10261802Y-4514090D02*
X-10547517Y-4514090D01*
X-10404660Y-5014090D02*
X-10404660Y-4514090D01*
X-10666564Y-5014090D02*
X-10928469Y-4680757D01*
X-10666564Y-4680757D02*
X-10928469Y-5014090D01*
X-10261802Y-7567170D02*
X-10547517Y-7567170D01*
X-10404660Y-8067170D02*
X-10404660Y-7567170D01*
X-10666564Y-8067170D02*
X-10928469Y-7733837D01*
X-10666564Y-7733837D02*
X-10928469Y-8067170D01*
X6128509Y-14587350D02*
X6295176Y-14349255D01*
X6414223Y-14587350D02*
X6414223Y-14087350D01*
X6223747Y-14087350D01*
X6176128Y-14111160D01*
X6152319Y-14134969D01*
X6128509Y-14182588D01*
X6128509Y-14254017D01*
X6152319Y-14301636D01*
X6176128Y-14325445D01*
X6223747Y-14349255D01*
X6414223Y-14349255D01*
X5938033Y-14563540D02*
X5866604Y-14587350D01*
X5747557Y-14587350D01*
X5699938Y-14563540D01*
X5676128Y-14539731D01*
X5652319Y-14492112D01*
X5652319Y-14444493D01*
X5676128Y-14396874D01*
X5699938Y-14373064D01*
X5747557Y-14349255D01*
X5842795Y-14325445D01*
X5890414Y-14301636D01*
X5914223Y-14277826D01*
X5938033Y-14230207D01*
X5938033Y-14182588D01*
X5914223Y-14134969D01*
X5890414Y-14111160D01*
X5842795Y-14087350D01*
X5723747Y-14087350D01*
X5652319Y-14111160D01*
X5509461Y-14087350D02*
X5223747Y-14087350D01*
X5366604Y-14587350D02*
X5366604Y-14087350D01*
X12692688Y-13731750D02*
X12930783Y-13731750D01*
X12954593Y-13969845D01*
X12930783Y-13946036D01*
X12883164Y-13922226D01*
X12764117Y-13922226D01*
X12716498Y-13946036D01*
X12692688Y-13969845D01*
X12668879Y-14017464D01*
X12668879Y-14136512D01*
X12692688Y-14184131D01*
X12716498Y-14207940D01*
X12764117Y-14231750D01*
X12883164Y-14231750D01*
X12930783Y-14207940D01*
X12954593Y-14184131D01*
X12502212Y-13898417D02*
X12383164Y-14231750D01*
X12264117Y-13898417D01*
X9671428Y-6846190D02*
X9909523Y-6846190D01*
X9933333Y-7084285D01*
X9909523Y-7060476D01*
X9861904Y-7036666D01*
X9742857Y-7036666D01*
X9695238Y-7060476D01*
X9671428Y-7084285D01*
X9647619Y-7131904D01*
X9647619Y-7250952D01*
X9671428Y-7298571D01*
X9695238Y-7322380D01*
X9742857Y-7346190D01*
X9861904Y-7346190D01*
X9909523Y-7322380D01*
X9933333Y-7298571D01*
X9480952Y-7012857D02*
X9361904Y-7346190D01*
X9242857Y-7012857D01*
M02*
