G04 #@! TF.GenerationSoftware,KiCad,Pcbnew,(5.1.10)-1*
G04 #@! TF.CreationDate,2022-01-19T13:45:55+05:30*
G04 #@! TF.ProjectId,P-1000072_Cicada Wi-Fi,502d3130-3030-4303-9732-5f4369636164,0.1*
G04 #@! TF.SameCoordinates,PX7cee6c0PY3dfd240*
G04 #@! TF.FileFunction,Paste,Top*
G04 #@! TF.FilePolarity,Positive*
%FSLAX46Y46*%
G04 Gerber Fmt 4.6, Leading zero omitted, Abs format (unit mm)*
G04 Created by KiCad (PCBNEW (5.1.10)-1) date 2022-01-19 13:45:55*
%MOMM*%
%LPD*%
G01*
G04 APERTURE LIST*
%ADD10R,1.100000X2.600000*%
%ADD11R,3.900000X2.200000*%
%ADD12R,0.650000X1.220000*%
G04 APERTURE END LIST*
D10*
X-14220000Y-17110000D03*
X-12220000Y-17110000D03*
X-6220000Y-17110000D03*
X-4220000Y-32310000D03*
X-4220000Y-17110000D03*
X-2220000Y-32310000D03*
X-12220000Y-32310000D03*
X-16220000Y-17110000D03*
X-8220000Y-32310000D03*
X-10220000Y-17110000D03*
X-8220000Y-17110000D03*
X-6220000Y-32310000D03*
X-10220000Y-32310000D03*
X-2220000Y-17110000D03*
X-14220000Y-32310000D03*
X-16220000Y-32310000D03*
G36*
G01*
X-16413260Y-14581500D02*
X-16068260Y-14581500D01*
G75*
G02*
X-15920760Y-14729000I0J-147500D01*
G01*
X-15920760Y-15024000D01*
G75*
G02*
X-16068260Y-15171500I-147500J0D01*
G01*
X-16413260Y-15171500D01*
G75*
G02*
X-16560760Y-15024000I0J147500D01*
G01*
X-16560760Y-14729000D01*
G75*
G02*
X-16413260Y-14581500I147500J0D01*
G01*
G37*
G36*
G01*
X-16413260Y-13611500D02*
X-16068260Y-13611500D01*
G75*
G02*
X-15920760Y-13759000I0J-147500D01*
G01*
X-15920760Y-14054000D01*
G75*
G02*
X-16068260Y-14201500I-147500J0D01*
G01*
X-16413260Y-14201500D01*
G75*
G02*
X-16560760Y-14054000I0J147500D01*
G01*
X-16560760Y-13759000D01*
G75*
G02*
X-16413260Y-13611500I147500J0D01*
G01*
G37*
G36*
G01*
X-14424440Y-14546220D02*
X-14079440Y-14546220D01*
G75*
G02*
X-13931940Y-14693720I0J-147500D01*
G01*
X-13931940Y-14988720D01*
G75*
G02*
X-14079440Y-15136220I-147500J0D01*
G01*
X-14424440Y-15136220D01*
G75*
G02*
X-14571940Y-14988720I0J147500D01*
G01*
X-14571940Y-14693720D01*
G75*
G02*
X-14424440Y-14546220I147500J0D01*
G01*
G37*
G36*
G01*
X-14424440Y-13576220D02*
X-14079440Y-13576220D01*
G75*
G02*
X-13931940Y-13723720I0J-147500D01*
G01*
X-13931940Y-14018720D01*
G75*
G02*
X-14079440Y-14166220I-147500J0D01*
G01*
X-14424440Y-14166220D01*
G75*
G02*
X-14571940Y-14018720I0J147500D01*
G01*
X-14571940Y-13723720D01*
G75*
G02*
X-14424440Y-13576220I147500J0D01*
G01*
G37*
G36*
G01*
X-10390920Y-37322120D02*
X-10045920Y-37322120D01*
G75*
G02*
X-9898420Y-37469620I0J-147500D01*
G01*
X-9898420Y-37764620D01*
G75*
G02*
X-10045920Y-37912120I-147500J0D01*
G01*
X-10390920Y-37912120D01*
G75*
G02*
X-10538420Y-37764620I0J147500D01*
G01*
X-10538420Y-37469620D01*
G75*
G02*
X-10390920Y-37322120I147500J0D01*
G01*
G37*
G36*
G01*
X-10390920Y-36352120D02*
X-10045920Y-36352120D01*
G75*
G02*
X-9898420Y-36499620I0J-147500D01*
G01*
X-9898420Y-36794620D01*
G75*
G02*
X-10045920Y-36942120I-147500J0D01*
G01*
X-10390920Y-36942120D01*
G75*
G02*
X-10538420Y-36794620I0J147500D01*
G01*
X-10538420Y-36499620D01*
G75*
G02*
X-10390920Y-36352120I147500J0D01*
G01*
G37*
G36*
G01*
X-7944480Y-12375100D02*
X-7944480Y-12720100D01*
G75*
G02*
X-8091980Y-12867600I-147500J0D01*
G01*
X-8386980Y-12867600D01*
G75*
G02*
X-8534480Y-12720100I0J147500D01*
G01*
X-8534480Y-12375100D01*
G75*
G02*
X-8386980Y-12227600I147500J0D01*
G01*
X-8091980Y-12227600D01*
G75*
G02*
X-7944480Y-12375100I0J-147500D01*
G01*
G37*
G36*
G01*
X-6974480Y-12375100D02*
X-6974480Y-12720100D01*
G75*
G02*
X-7121980Y-12867600I-147500J0D01*
G01*
X-7416980Y-12867600D01*
G75*
G02*
X-7564480Y-12720100I0J147500D01*
G01*
X-7564480Y-12375100D01*
G75*
G02*
X-7416980Y-12227600I147500J0D01*
G01*
X-7121980Y-12227600D01*
G75*
G02*
X-6974480Y-12375100I0J-147500D01*
G01*
G37*
G36*
G01*
X-15948880Y-36899220D02*
X-16293880Y-36899220D01*
G75*
G02*
X-16441380Y-36751720I0J147500D01*
G01*
X-16441380Y-36456720D01*
G75*
G02*
X-16293880Y-36309220I147500J0D01*
G01*
X-15948880Y-36309220D01*
G75*
G02*
X-15801380Y-36456720I0J-147500D01*
G01*
X-15801380Y-36751720D01*
G75*
G02*
X-15948880Y-36899220I-147500J0D01*
G01*
G37*
G36*
G01*
X-15948880Y-37869220D02*
X-16293880Y-37869220D01*
G75*
G02*
X-16441380Y-37721720I0J147500D01*
G01*
X-16441380Y-37426720D01*
G75*
G02*
X-16293880Y-37279220I147500J0D01*
G01*
X-15948880Y-37279220D01*
G75*
G02*
X-15801380Y-37426720I0J-147500D01*
G01*
X-15801380Y-37721720D01*
G75*
G02*
X-15948880Y-37869220I-147500J0D01*
G01*
G37*
G36*
G01*
X-12397520Y-37543380D02*
X-12052520Y-37543380D01*
G75*
G02*
X-11905020Y-37690880I0J-147500D01*
G01*
X-11905020Y-37985880D01*
G75*
G02*
X-12052520Y-38133380I-147500J0D01*
G01*
X-12397520Y-38133380D01*
G75*
G02*
X-12545020Y-37985880I0J147500D01*
G01*
X-12545020Y-37690880D01*
G75*
G02*
X-12397520Y-37543380I147500J0D01*
G01*
G37*
G36*
G01*
X-12397520Y-36573380D02*
X-12052520Y-36573380D01*
G75*
G02*
X-11905020Y-36720880I0J-147500D01*
G01*
X-11905020Y-37015880D01*
G75*
G02*
X-12052520Y-37163380I-147500J0D01*
G01*
X-12397520Y-37163380D01*
G75*
G02*
X-12545020Y-37015880I0J147500D01*
G01*
X-12545020Y-36720880D01*
G75*
G02*
X-12397520Y-36573380I147500J0D01*
G01*
G37*
G36*
G01*
X-8534760Y-13883420D02*
X-8534760Y-13538420D01*
G75*
G02*
X-8387260Y-13390920I147500J0D01*
G01*
X-8092260Y-13390920D01*
G75*
G02*
X-7944760Y-13538420I0J-147500D01*
G01*
X-7944760Y-13883420D01*
G75*
G02*
X-8092260Y-14030920I-147500J0D01*
G01*
X-8387260Y-14030920D01*
G75*
G02*
X-8534760Y-13883420I0J147500D01*
G01*
G37*
G36*
G01*
X-9504760Y-13883420D02*
X-9504760Y-13538420D01*
G75*
G02*
X-9357260Y-13390920I147500J0D01*
G01*
X-9062260Y-13390920D01*
G75*
G02*
X-8914760Y-13538420I0J-147500D01*
G01*
X-8914760Y-13883420D01*
G75*
G02*
X-9062260Y-14030920I-147500J0D01*
G01*
X-9357260Y-14030920D01*
G75*
G02*
X-9504760Y-13883420I0J147500D01*
G01*
G37*
G36*
G01*
X-1935120Y-35796440D02*
X-1935120Y-36141440D01*
G75*
G02*
X-2082620Y-36288940I-147500J0D01*
G01*
X-2377620Y-36288940D01*
G75*
G02*
X-2525120Y-36141440I0J147500D01*
G01*
X-2525120Y-35796440D01*
G75*
G02*
X-2377620Y-35648940I147500J0D01*
G01*
X-2082620Y-35648940D01*
G75*
G02*
X-1935120Y-35796440I0J-147500D01*
G01*
G37*
G36*
G01*
X-965120Y-35796440D02*
X-965120Y-36141440D01*
G75*
G02*
X-1112620Y-36288940I-147500J0D01*
G01*
X-1407620Y-36288940D01*
G75*
G02*
X-1555120Y-36141440I0J147500D01*
G01*
X-1555120Y-35796440D01*
G75*
G02*
X-1407620Y-35648940I147500J0D01*
G01*
X-1112620Y-35648940D01*
G75*
G02*
X-965120Y-35796440I0J-147500D01*
G01*
G37*
G36*
G01*
X-1935120Y-34724560D02*
X-1935120Y-35069560D01*
G75*
G02*
X-2082620Y-35217060I-147500J0D01*
G01*
X-2377620Y-35217060D01*
G75*
G02*
X-2525120Y-35069560I0J147500D01*
G01*
X-2525120Y-34724560D01*
G75*
G02*
X-2377620Y-34577060I147500J0D01*
G01*
X-2082620Y-34577060D01*
G75*
G02*
X-1935120Y-34724560I0J-147500D01*
G01*
G37*
G36*
G01*
X-965120Y-34724560D02*
X-965120Y-35069560D01*
G75*
G02*
X-1112620Y-35217060I-147500J0D01*
G01*
X-1407620Y-35217060D01*
G75*
G02*
X-1555120Y-35069560I0J147500D01*
G01*
X-1555120Y-34724560D01*
G75*
G02*
X-1407620Y-34577060I147500J0D01*
G01*
X-1112620Y-34577060D01*
G75*
G02*
X-965120Y-34724560I0J-147500D01*
G01*
G37*
G36*
G01*
X-16411300Y-35679160D02*
X-16411300Y-35334160D01*
G75*
G02*
X-16263800Y-35186660I147500J0D01*
G01*
X-15968800Y-35186660D01*
G75*
G02*
X-15821300Y-35334160I0J-147500D01*
G01*
X-15821300Y-35679160D01*
G75*
G02*
X-15968800Y-35826660I-147500J0D01*
G01*
X-16263800Y-35826660D01*
G75*
G02*
X-16411300Y-35679160I0J147500D01*
G01*
G37*
G36*
G01*
X-17381300Y-35679160D02*
X-17381300Y-35334160D01*
G75*
G02*
X-17233800Y-35186660I147500J0D01*
G01*
X-16938800Y-35186660D01*
G75*
G02*
X-16791300Y-35334160I0J-147500D01*
G01*
X-16791300Y-35679160D01*
G75*
G02*
X-16938800Y-35826660I-147500J0D01*
G01*
X-17233800Y-35826660D01*
G75*
G02*
X-17381300Y-35679160I0J147500D01*
G01*
G37*
G36*
G01*
X-12479380Y-35920460D02*
X-12479380Y-35575460D01*
G75*
G02*
X-12331880Y-35427960I147500J0D01*
G01*
X-12036880Y-35427960D01*
G75*
G02*
X-11889380Y-35575460I0J-147500D01*
G01*
X-11889380Y-35920460D01*
G75*
G02*
X-12036880Y-36067960I-147500J0D01*
G01*
X-12331880Y-36067960D01*
G75*
G02*
X-12479380Y-35920460I0J147500D01*
G01*
G37*
G36*
G01*
X-13449380Y-35920460D02*
X-13449380Y-35575460D01*
G75*
G02*
X-13301880Y-35427960I147500J0D01*
G01*
X-13006880Y-35427960D01*
G75*
G02*
X-12859380Y-35575460I0J-147500D01*
G01*
X-12859380Y-35920460D01*
G75*
G02*
X-13006880Y-36067960I-147500J0D01*
G01*
X-13301880Y-36067960D01*
G75*
G02*
X-13449380Y-35920460I0J147500D01*
G01*
G37*
D11*
X17101820Y-50401380D03*
X17101820Y-46601380D03*
D12*
X11976020Y-43616880D03*
X13876020Y-43616880D03*
X13876020Y-46236880D03*
X12926020Y-46236880D03*
X11976020Y-46236880D03*
G36*
G01*
X10827800Y-42923820D02*
X10482800Y-42923820D01*
G75*
G02*
X10335300Y-42776320I0J147500D01*
G01*
X10335300Y-42481320D01*
G75*
G02*
X10482800Y-42333820I147500J0D01*
G01*
X10827800Y-42333820D01*
G75*
G02*
X10975300Y-42481320I0J-147500D01*
G01*
X10975300Y-42776320D01*
G75*
G02*
X10827800Y-42923820I-147500J0D01*
G01*
G37*
G36*
G01*
X10827800Y-43893820D02*
X10482800Y-43893820D01*
G75*
G02*
X10335300Y-43746320I0J147500D01*
G01*
X10335300Y-43451320D01*
G75*
G02*
X10482800Y-43303820I147500J0D01*
G01*
X10827800Y-43303820D01*
G75*
G02*
X10975300Y-43451320I0J-147500D01*
G01*
X10975300Y-43746320D01*
G75*
G02*
X10827800Y-43893820I-147500J0D01*
G01*
G37*
G36*
G01*
X10372860Y-44797760D02*
X10372860Y-44452760D01*
G75*
G02*
X10520360Y-44305260I147500J0D01*
G01*
X10815360Y-44305260D01*
G75*
G02*
X10962860Y-44452760I0J-147500D01*
G01*
X10962860Y-44797760D01*
G75*
G02*
X10815360Y-44945260I-147500J0D01*
G01*
X10520360Y-44945260D01*
G75*
G02*
X10372860Y-44797760I0J147500D01*
G01*
G37*
G36*
G01*
X9402860Y-44797760D02*
X9402860Y-44452760D01*
G75*
G02*
X9550360Y-44305260I147500J0D01*
G01*
X9845360Y-44305260D01*
G75*
G02*
X9992860Y-44452760I0J-147500D01*
G01*
X9992860Y-44797760D01*
G75*
G02*
X9845360Y-44945260I-147500J0D01*
G01*
X9550360Y-44945260D01*
G75*
G02*
X9402860Y-44797760I0J147500D01*
G01*
G37*
G36*
G01*
X12656460Y-47965140D02*
X12656460Y-47620140D01*
G75*
G02*
X12803960Y-47472640I147500J0D01*
G01*
X13098960Y-47472640D01*
G75*
G02*
X13246460Y-47620140I0J-147500D01*
G01*
X13246460Y-47965140D01*
G75*
G02*
X13098960Y-48112640I-147500J0D01*
G01*
X12803960Y-48112640D01*
G75*
G02*
X12656460Y-47965140I0J147500D01*
G01*
G37*
G36*
G01*
X11686460Y-47965140D02*
X11686460Y-47620140D01*
G75*
G02*
X11833960Y-47472640I147500J0D01*
G01*
X12128960Y-47472640D01*
G75*
G02*
X12276460Y-47620140I0J-147500D01*
G01*
X12276460Y-47965140D01*
G75*
G02*
X12128960Y-48112640I-147500J0D01*
G01*
X11833960Y-48112640D01*
G75*
G02*
X11686460Y-47965140I0J147500D01*
G01*
G37*
G36*
G01*
X14238290Y-50360400D02*
X13325790Y-50360400D01*
G75*
G02*
X13082040Y-50116650I0J243750D01*
G01*
X13082040Y-49629150D01*
G75*
G02*
X13325790Y-49385400I243750J0D01*
G01*
X14238290Y-49385400D01*
G75*
G02*
X14482040Y-49629150I0J-243750D01*
G01*
X14482040Y-50116650D01*
G75*
G02*
X14238290Y-50360400I-243750J0D01*
G01*
G37*
G36*
G01*
X14238290Y-52235400D02*
X13325790Y-52235400D01*
G75*
G02*
X13082040Y-51991650I0J243750D01*
G01*
X13082040Y-51504150D01*
G75*
G02*
X13325790Y-51260400I243750J0D01*
G01*
X14238290Y-51260400D01*
G75*
G02*
X14482040Y-51504150I0J-243750D01*
G01*
X14482040Y-51991650D01*
G75*
G02*
X14238290Y-52235400I-243750J0D01*
G01*
G37*
G36*
G01*
X12267910Y-50274640D02*
X11755410Y-50274640D01*
G75*
G02*
X11536660Y-50055890I0J218750D01*
G01*
X11536660Y-49618390D01*
G75*
G02*
X11755410Y-49399640I218750J0D01*
G01*
X12267910Y-49399640D01*
G75*
G02*
X12486660Y-49618390I0J-218750D01*
G01*
X12486660Y-50055890D01*
G75*
G02*
X12267910Y-50274640I-218750J0D01*
G01*
G37*
G36*
G01*
X12267910Y-51849640D02*
X11755410Y-51849640D01*
G75*
G02*
X11536660Y-51630890I0J218750D01*
G01*
X11536660Y-51193390D01*
G75*
G02*
X11755410Y-50974640I218750J0D01*
G01*
X12267910Y-50974640D01*
G75*
G02*
X12486660Y-51193390I0J-218750D01*
G01*
X12486660Y-51630890D01*
G75*
G02*
X12267910Y-51849640I-218750J0D01*
G01*
G37*
G36*
G01*
X10383160Y-45851860D02*
X10383160Y-45506860D01*
G75*
G02*
X10530660Y-45359360I147500J0D01*
G01*
X10825660Y-45359360D01*
G75*
G02*
X10973160Y-45506860I0J-147500D01*
G01*
X10973160Y-45851860D01*
G75*
G02*
X10825660Y-45999360I-147500J0D01*
G01*
X10530660Y-45999360D01*
G75*
G02*
X10383160Y-45851860I0J147500D01*
G01*
G37*
G36*
G01*
X9413160Y-45851860D02*
X9413160Y-45506860D01*
G75*
G02*
X9560660Y-45359360I147500J0D01*
G01*
X9855660Y-45359360D01*
G75*
G02*
X10003160Y-45506860I0J-147500D01*
G01*
X10003160Y-45851860D01*
G75*
G02*
X9855660Y-45999360I-147500J0D01*
G01*
X9560660Y-45999360D01*
G75*
G02*
X9413160Y-45851860I0J147500D01*
G01*
G37*
G36*
G01*
X15439070Y-42484700D02*
X16351570Y-42484700D01*
G75*
G02*
X16595320Y-42728450I0J-243750D01*
G01*
X16595320Y-43215950D01*
G75*
G02*
X16351570Y-43459700I-243750J0D01*
G01*
X15439070Y-43459700D01*
G75*
G02*
X15195320Y-43215950I0J243750D01*
G01*
X15195320Y-42728450D01*
G75*
G02*
X15439070Y-42484700I243750J0D01*
G01*
G37*
G36*
G01*
X15439070Y-40609700D02*
X16351570Y-40609700D01*
G75*
G02*
X16595320Y-40853450I0J-243750D01*
G01*
X16595320Y-41340950D01*
G75*
G02*
X16351570Y-41584700I-243750J0D01*
G01*
X15439070Y-41584700D01*
G75*
G02*
X15195320Y-41340950I0J243750D01*
G01*
X15195320Y-40853450D01*
G75*
G02*
X15439070Y-40609700I243750J0D01*
G01*
G37*
G36*
G01*
X17564390Y-42188880D02*
X18076890Y-42188880D01*
G75*
G02*
X18295640Y-42407630I0J-218750D01*
G01*
X18295640Y-42845130D01*
G75*
G02*
X18076890Y-43063880I-218750J0D01*
G01*
X17564390Y-43063880D01*
G75*
G02*
X17345640Y-42845130I0J218750D01*
G01*
X17345640Y-42407630D01*
G75*
G02*
X17564390Y-42188880I218750J0D01*
G01*
G37*
G36*
G01*
X17564390Y-40613880D02*
X18076890Y-40613880D01*
G75*
G02*
X18295640Y-40832630I0J-218750D01*
G01*
X18295640Y-41270130D01*
G75*
G02*
X18076890Y-41488880I-218750J0D01*
G01*
X17564390Y-41488880D01*
G75*
G02*
X17345640Y-41270130I0J218750D01*
G01*
X17345640Y-40832630D01*
G75*
G02*
X17564390Y-40613880I218750J0D01*
G01*
G37*
G36*
G01*
X-6304500Y-5083040D02*
X-6649500Y-5083040D01*
G75*
G02*
X-6797000Y-4935540I0J147500D01*
G01*
X-6797000Y-4640540D01*
G75*
G02*
X-6649500Y-4493040I147500J0D01*
G01*
X-6304500Y-4493040D01*
G75*
G02*
X-6157000Y-4640540I0J-147500D01*
G01*
X-6157000Y-4935540D01*
G75*
G02*
X-6304500Y-5083040I-147500J0D01*
G01*
G37*
G36*
G01*
X-6304500Y-6053040D02*
X-6649500Y-6053040D01*
G75*
G02*
X-6797000Y-5905540I0J147500D01*
G01*
X-6797000Y-5610540D01*
G75*
G02*
X-6649500Y-5463040I147500J0D01*
G01*
X-6304500Y-5463040D01*
G75*
G02*
X-6157000Y-5610540I0J-147500D01*
G01*
X-6157000Y-5905540D01*
G75*
G02*
X-6304500Y-6053040I-147500J0D01*
G01*
G37*
G36*
G01*
X-5105620Y-5070480D02*
X-5450620Y-5070480D01*
G75*
G02*
X-5598120Y-4922980I0J147500D01*
G01*
X-5598120Y-4627980D01*
G75*
G02*
X-5450620Y-4480480I147500J0D01*
G01*
X-5105620Y-4480480D01*
G75*
G02*
X-4958120Y-4627980I0J-147500D01*
G01*
X-4958120Y-4922980D01*
G75*
G02*
X-5105620Y-5070480I-147500J0D01*
G01*
G37*
G36*
G01*
X-5105620Y-6040480D02*
X-5450620Y-6040480D01*
G75*
G02*
X-5598120Y-5892980I0J147500D01*
G01*
X-5598120Y-5597980D01*
G75*
G02*
X-5450620Y-5450480I147500J0D01*
G01*
X-5105620Y-5450480D01*
G75*
G02*
X-4958120Y-5597980I0J-147500D01*
G01*
X-4958120Y-5892980D01*
G75*
G02*
X-5105620Y-6040480I-147500J0D01*
G01*
G37*
M02*
