G04 #@! TF.GenerationSoftware,KiCad,Pcbnew,(5.1.10)-1*
G04 #@! TF.CreationDate,2021-11-22T18:42:53+05:30*
G04 #@! TF.ProjectId,P-1000072_Cicada Wi-Fi,502d3130-3030-4303-9732-5f4369636164,0.1*
G04 #@! TF.SameCoordinates,PX7cee6c0PY3dfd240*
G04 #@! TF.FileFunction,Copper,L1,Top*
G04 #@! TF.FilePolarity,Positive*
%FSLAX46Y46*%
G04 Gerber Fmt 4.6, Leading zero omitted, Abs format (unit mm)*
G04 Created by KiCad (PCBNEW (5.1.10)-1) date 2021-11-22 18:42:53*
%MOMM*%
%LPD*%
G01*
G04 APERTURE LIST*
G04 #@! TA.AperFunction,SMDPad,CuDef*
%ADD10R,1.100000X2.600000*%
G04 #@! TD*
G04 #@! TA.AperFunction,ComponentPad*
%ADD11O,1.700000X1.700000*%
G04 #@! TD*
G04 #@! TA.AperFunction,ComponentPad*
%ADD12R,1.700000X1.700000*%
G04 #@! TD*
G04 #@! TA.AperFunction,ComponentPad*
%ADD13C,1.600000*%
G04 #@! TD*
G04 #@! TA.AperFunction,ComponentPad*
%ADD14R,1.600000X1.600000*%
G04 #@! TD*
G04 #@! TA.AperFunction,SMDPad,CuDef*
%ADD15C,1.500000*%
G04 #@! TD*
G04 #@! TA.AperFunction,SMDPad,CuDef*
%ADD16R,3.900000X2.200000*%
G04 #@! TD*
G04 #@! TA.AperFunction,SMDPad,CuDef*
%ADD17R,0.650000X1.220000*%
G04 #@! TD*
G04 #@! TA.AperFunction,ComponentPad*
%ADD18C,5.500000*%
G04 #@! TD*
G04 #@! TA.AperFunction,SMDPad,CuDef*
%ADD19C,1.000000*%
G04 #@! TD*
G04 #@! TA.AperFunction,ViaPad*
%ADD20C,0.800000*%
G04 #@! TD*
G04 #@! TA.AperFunction,ViaPad*
%ADD21C,0.700000*%
G04 #@! TD*
G04 #@! TA.AperFunction,Conductor*
%ADD22C,0.250000*%
G04 #@! TD*
G04 #@! TA.AperFunction,Conductor*
%ADD23C,1.200000*%
G04 #@! TD*
G04 #@! TA.AperFunction,Conductor*
%ADD24C,0.400000*%
G04 #@! TD*
G04 #@! TA.AperFunction,Conductor*
%ADD25C,0.600000*%
G04 #@! TD*
G04 #@! TA.AperFunction,Conductor*
%ADD26C,0.254000*%
G04 #@! TD*
G04 #@! TA.AperFunction,Conductor*
%ADD27C,0.100000*%
G04 #@! TD*
G04 APERTURE END LIST*
D10*
X-14220000Y-17110000D03*
X-12220000Y-17110000D03*
X-6220000Y-17110000D03*
X-4220000Y-32310000D03*
X-4220000Y-17110000D03*
X-2220000Y-32310000D03*
X-12220000Y-32310000D03*
X-16220000Y-17110000D03*
X-8220000Y-32310000D03*
X-10220000Y-17110000D03*
X-8220000Y-17110000D03*
X-6220000Y-32310000D03*
X-10220000Y-32310000D03*
X-2220000Y-17110000D03*
X-14220000Y-32310000D03*
X-16220000Y-32310000D03*
D11*
X11455400Y1244600D03*
X11455400Y-1295400D03*
X8915400Y1244600D03*
X8915400Y-1295400D03*
X6375400Y1244600D03*
X6375400Y-1295400D03*
X3835400Y1244600D03*
X3835400Y-1295400D03*
X1295400Y1244600D03*
X1295400Y-1295400D03*
X-1244600Y1244600D03*
X-1244600Y-1295400D03*
X-3784600Y1244600D03*
X-3784600Y-1295400D03*
X-6324600Y1244600D03*
X-6324600Y-1295400D03*
X-8864600Y1244600D03*
X-8864600Y-1295400D03*
X-11404600Y1244600D03*
D12*
X-11404600Y-1295400D03*
D13*
X8280400Y-30457140D03*
D14*
X4780400Y-30457140D03*
D13*
X8239760Y-21798280D03*
D14*
X4739760Y-21798280D03*
G04 #@! TA.AperFunction,SMDPad,CuDef*
G36*
G01*
X-16413260Y-14581500D02*
X-16068260Y-14581500D01*
G75*
G02*
X-15920760Y-14729000I0J-147500D01*
G01*
X-15920760Y-15024000D01*
G75*
G02*
X-16068260Y-15171500I-147500J0D01*
G01*
X-16413260Y-15171500D01*
G75*
G02*
X-16560760Y-15024000I0J147500D01*
G01*
X-16560760Y-14729000D01*
G75*
G02*
X-16413260Y-14581500I147500J0D01*
G01*
G37*
G04 #@! TD.AperFunction*
G04 #@! TA.AperFunction,SMDPad,CuDef*
G36*
G01*
X-16413260Y-13611500D02*
X-16068260Y-13611500D01*
G75*
G02*
X-15920760Y-13759000I0J-147500D01*
G01*
X-15920760Y-14054000D01*
G75*
G02*
X-16068260Y-14201500I-147500J0D01*
G01*
X-16413260Y-14201500D01*
G75*
G02*
X-16560760Y-14054000I0J147500D01*
G01*
X-16560760Y-13759000D01*
G75*
G02*
X-16413260Y-13611500I147500J0D01*
G01*
G37*
G04 #@! TD.AperFunction*
G04 #@! TA.AperFunction,SMDPad,CuDef*
G36*
G01*
X-14424440Y-14546220D02*
X-14079440Y-14546220D01*
G75*
G02*
X-13931940Y-14693720I0J-147500D01*
G01*
X-13931940Y-14988720D01*
G75*
G02*
X-14079440Y-15136220I-147500J0D01*
G01*
X-14424440Y-15136220D01*
G75*
G02*
X-14571940Y-14988720I0J147500D01*
G01*
X-14571940Y-14693720D01*
G75*
G02*
X-14424440Y-14546220I147500J0D01*
G01*
G37*
G04 #@! TD.AperFunction*
G04 #@! TA.AperFunction,SMDPad,CuDef*
G36*
G01*
X-14424440Y-13576220D02*
X-14079440Y-13576220D01*
G75*
G02*
X-13931940Y-13723720I0J-147500D01*
G01*
X-13931940Y-14018720D01*
G75*
G02*
X-14079440Y-14166220I-147500J0D01*
G01*
X-14424440Y-14166220D01*
G75*
G02*
X-14571940Y-14018720I0J147500D01*
G01*
X-14571940Y-13723720D01*
G75*
G02*
X-14424440Y-13576220I147500J0D01*
G01*
G37*
G04 #@! TD.AperFunction*
G04 #@! TA.AperFunction,SMDPad,CuDef*
G36*
G01*
X-10390920Y-37322120D02*
X-10045920Y-37322120D01*
G75*
G02*
X-9898420Y-37469620I0J-147500D01*
G01*
X-9898420Y-37764620D01*
G75*
G02*
X-10045920Y-37912120I-147500J0D01*
G01*
X-10390920Y-37912120D01*
G75*
G02*
X-10538420Y-37764620I0J147500D01*
G01*
X-10538420Y-37469620D01*
G75*
G02*
X-10390920Y-37322120I147500J0D01*
G01*
G37*
G04 #@! TD.AperFunction*
G04 #@! TA.AperFunction,SMDPad,CuDef*
G36*
G01*
X-10390920Y-36352120D02*
X-10045920Y-36352120D01*
G75*
G02*
X-9898420Y-36499620I0J-147500D01*
G01*
X-9898420Y-36794620D01*
G75*
G02*
X-10045920Y-36942120I-147500J0D01*
G01*
X-10390920Y-36942120D01*
G75*
G02*
X-10538420Y-36794620I0J147500D01*
G01*
X-10538420Y-36499620D01*
G75*
G02*
X-10390920Y-36352120I147500J0D01*
G01*
G37*
G04 #@! TD.AperFunction*
G04 #@! TA.AperFunction,SMDPad,CuDef*
G36*
G01*
X-7944480Y-12375100D02*
X-7944480Y-12720100D01*
G75*
G02*
X-8091980Y-12867600I-147500J0D01*
G01*
X-8386980Y-12867600D01*
G75*
G02*
X-8534480Y-12720100I0J147500D01*
G01*
X-8534480Y-12375100D01*
G75*
G02*
X-8386980Y-12227600I147500J0D01*
G01*
X-8091980Y-12227600D01*
G75*
G02*
X-7944480Y-12375100I0J-147500D01*
G01*
G37*
G04 #@! TD.AperFunction*
G04 #@! TA.AperFunction,SMDPad,CuDef*
G36*
G01*
X-6974480Y-12375100D02*
X-6974480Y-12720100D01*
G75*
G02*
X-7121980Y-12867600I-147500J0D01*
G01*
X-7416980Y-12867600D01*
G75*
G02*
X-7564480Y-12720100I0J147500D01*
G01*
X-7564480Y-12375100D01*
G75*
G02*
X-7416980Y-12227600I147500J0D01*
G01*
X-7121980Y-12227600D01*
G75*
G02*
X-6974480Y-12375100I0J-147500D01*
G01*
G37*
G04 #@! TD.AperFunction*
G04 #@! TA.AperFunction,SMDPad,CuDef*
G36*
G01*
X-15948880Y-36899220D02*
X-16293880Y-36899220D01*
G75*
G02*
X-16441380Y-36751720I0J147500D01*
G01*
X-16441380Y-36456720D01*
G75*
G02*
X-16293880Y-36309220I147500J0D01*
G01*
X-15948880Y-36309220D01*
G75*
G02*
X-15801380Y-36456720I0J-147500D01*
G01*
X-15801380Y-36751720D01*
G75*
G02*
X-15948880Y-36899220I-147500J0D01*
G01*
G37*
G04 #@! TD.AperFunction*
G04 #@! TA.AperFunction,SMDPad,CuDef*
G36*
G01*
X-15948880Y-37869220D02*
X-16293880Y-37869220D01*
G75*
G02*
X-16441380Y-37721720I0J147500D01*
G01*
X-16441380Y-37426720D01*
G75*
G02*
X-16293880Y-37279220I147500J0D01*
G01*
X-15948880Y-37279220D01*
G75*
G02*
X-15801380Y-37426720I0J-147500D01*
G01*
X-15801380Y-37721720D01*
G75*
G02*
X-15948880Y-37869220I-147500J0D01*
G01*
G37*
G04 #@! TD.AperFunction*
G04 #@! TA.AperFunction,SMDPad,CuDef*
G36*
G01*
X-12397520Y-37543380D02*
X-12052520Y-37543380D01*
G75*
G02*
X-11905020Y-37690880I0J-147500D01*
G01*
X-11905020Y-37985880D01*
G75*
G02*
X-12052520Y-38133380I-147500J0D01*
G01*
X-12397520Y-38133380D01*
G75*
G02*
X-12545020Y-37985880I0J147500D01*
G01*
X-12545020Y-37690880D01*
G75*
G02*
X-12397520Y-37543380I147500J0D01*
G01*
G37*
G04 #@! TD.AperFunction*
G04 #@! TA.AperFunction,SMDPad,CuDef*
G36*
G01*
X-12397520Y-36573380D02*
X-12052520Y-36573380D01*
G75*
G02*
X-11905020Y-36720880I0J-147500D01*
G01*
X-11905020Y-37015880D01*
G75*
G02*
X-12052520Y-37163380I-147500J0D01*
G01*
X-12397520Y-37163380D01*
G75*
G02*
X-12545020Y-37015880I0J147500D01*
G01*
X-12545020Y-36720880D01*
G75*
G02*
X-12397520Y-36573380I147500J0D01*
G01*
G37*
G04 #@! TD.AperFunction*
G04 #@! TA.AperFunction,SMDPad,CuDef*
G36*
G01*
X-8534760Y-13883420D02*
X-8534760Y-13538420D01*
G75*
G02*
X-8387260Y-13390920I147500J0D01*
G01*
X-8092260Y-13390920D01*
G75*
G02*
X-7944760Y-13538420I0J-147500D01*
G01*
X-7944760Y-13883420D01*
G75*
G02*
X-8092260Y-14030920I-147500J0D01*
G01*
X-8387260Y-14030920D01*
G75*
G02*
X-8534760Y-13883420I0J147500D01*
G01*
G37*
G04 #@! TD.AperFunction*
G04 #@! TA.AperFunction,SMDPad,CuDef*
G36*
G01*
X-9504760Y-13883420D02*
X-9504760Y-13538420D01*
G75*
G02*
X-9357260Y-13390920I147500J0D01*
G01*
X-9062260Y-13390920D01*
G75*
G02*
X-8914760Y-13538420I0J-147500D01*
G01*
X-8914760Y-13883420D01*
G75*
G02*
X-9062260Y-14030920I-147500J0D01*
G01*
X-9357260Y-14030920D01*
G75*
G02*
X-9504760Y-13883420I0J147500D01*
G01*
G37*
G04 #@! TD.AperFunction*
G04 #@! TA.AperFunction,SMDPad,CuDef*
G36*
G01*
X-1935120Y-35796440D02*
X-1935120Y-36141440D01*
G75*
G02*
X-2082620Y-36288940I-147500J0D01*
G01*
X-2377620Y-36288940D01*
G75*
G02*
X-2525120Y-36141440I0J147500D01*
G01*
X-2525120Y-35796440D01*
G75*
G02*
X-2377620Y-35648940I147500J0D01*
G01*
X-2082620Y-35648940D01*
G75*
G02*
X-1935120Y-35796440I0J-147500D01*
G01*
G37*
G04 #@! TD.AperFunction*
G04 #@! TA.AperFunction,SMDPad,CuDef*
G36*
G01*
X-965120Y-35796440D02*
X-965120Y-36141440D01*
G75*
G02*
X-1112620Y-36288940I-147500J0D01*
G01*
X-1407620Y-36288940D01*
G75*
G02*
X-1555120Y-36141440I0J147500D01*
G01*
X-1555120Y-35796440D01*
G75*
G02*
X-1407620Y-35648940I147500J0D01*
G01*
X-1112620Y-35648940D01*
G75*
G02*
X-965120Y-35796440I0J-147500D01*
G01*
G37*
G04 #@! TD.AperFunction*
G04 #@! TA.AperFunction,SMDPad,CuDef*
G36*
G01*
X-1935120Y-34724560D02*
X-1935120Y-35069560D01*
G75*
G02*
X-2082620Y-35217060I-147500J0D01*
G01*
X-2377620Y-35217060D01*
G75*
G02*
X-2525120Y-35069560I0J147500D01*
G01*
X-2525120Y-34724560D01*
G75*
G02*
X-2377620Y-34577060I147500J0D01*
G01*
X-2082620Y-34577060D01*
G75*
G02*
X-1935120Y-34724560I0J-147500D01*
G01*
G37*
G04 #@! TD.AperFunction*
G04 #@! TA.AperFunction,SMDPad,CuDef*
G36*
G01*
X-965120Y-34724560D02*
X-965120Y-35069560D01*
G75*
G02*
X-1112620Y-35217060I-147500J0D01*
G01*
X-1407620Y-35217060D01*
G75*
G02*
X-1555120Y-35069560I0J147500D01*
G01*
X-1555120Y-34724560D01*
G75*
G02*
X-1407620Y-34577060I147500J0D01*
G01*
X-1112620Y-34577060D01*
G75*
G02*
X-965120Y-34724560I0J-147500D01*
G01*
G37*
G04 #@! TD.AperFunction*
G04 #@! TA.AperFunction,SMDPad,CuDef*
G36*
G01*
X-16411300Y-35679160D02*
X-16411300Y-35334160D01*
G75*
G02*
X-16263800Y-35186660I147500J0D01*
G01*
X-15968800Y-35186660D01*
G75*
G02*
X-15821300Y-35334160I0J-147500D01*
G01*
X-15821300Y-35679160D01*
G75*
G02*
X-15968800Y-35826660I-147500J0D01*
G01*
X-16263800Y-35826660D01*
G75*
G02*
X-16411300Y-35679160I0J147500D01*
G01*
G37*
G04 #@! TD.AperFunction*
G04 #@! TA.AperFunction,SMDPad,CuDef*
G36*
G01*
X-17381300Y-35679160D02*
X-17381300Y-35334160D01*
G75*
G02*
X-17233800Y-35186660I147500J0D01*
G01*
X-16938800Y-35186660D01*
G75*
G02*
X-16791300Y-35334160I0J-147500D01*
G01*
X-16791300Y-35679160D01*
G75*
G02*
X-16938800Y-35826660I-147500J0D01*
G01*
X-17233800Y-35826660D01*
G75*
G02*
X-17381300Y-35679160I0J147500D01*
G01*
G37*
G04 #@! TD.AperFunction*
G04 #@! TA.AperFunction,SMDPad,CuDef*
G36*
G01*
X-12479380Y-35920460D02*
X-12479380Y-35575460D01*
G75*
G02*
X-12331880Y-35427960I147500J0D01*
G01*
X-12036880Y-35427960D01*
G75*
G02*
X-11889380Y-35575460I0J-147500D01*
G01*
X-11889380Y-35920460D01*
G75*
G02*
X-12036880Y-36067960I-147500J0D01*
G01*
X-12331880Y-36067960D01*
G75*
G02*
X-12479380Y-35920460I0J147500D01*
G01*
G37*
G04 #@! TD.AperFunction*
G04 #@! TA.AperFunction,SMDPad,CuDef*
G36*
G01*
X-13449380Y-35920460D02*
X-13449380Y-35575460D01*
G75*
G02*
X-13301880Y-35427960I147500J0D01*
G01*
X-13006880Y-35427960D01*
G75*
G02*
X-12859380Y-35575460I0J-147500D01*
G01*
X-12859380Y-35920460D01*
G75*
G02*
X-13006880Y-36067960I-147500J0D01*
G01*
X-13301880Y-36067960D01*
G75*
G02*
X-13449380Y-35920460I0J147500D01*
G01*
G37*
G04 #@! TD.AperFunction*
D15*
X11333480Y-19273520D03*
D13*
X12702540Y-25318720D03*
D14*
X16202540Y-25318720D03*
D13*
X12722860Y-33962340D03*
D14*
X16222860Y-33962340D03*
D16*
X17101820Y-50401380D03*
X17101820Y-46601380D03*
D15*
X-12237720Y-13873480D03*
X-14196060Y-12082780D03*
X-4239260Y-13906500D03*
X-5491480Y-12024360D03*
X-8326120Y-6253480D03*
X-9707880Y-12222480D03*
X-15499080Y-9888220D03*
X-4185920Y-37266880D03*
X-6223000Y-35727640D03*
X-8199120Y-35179000D03*
X-10251440Y-35100260D03*
X-18783300Y-35095180D03*
X4587240Y-15687040D03*
X16299180Y-19817080D03*
D17*
X11976020Y-43616880D03*
X13876020Y-43616880D03*
X13876020Y-46236880D03*
X12926020Y-46236880D03*
X11976020Y-46236880D03*
G04 #@! TA.AperFunction,SMDPad,CuDef*
G36*
G01*
X10827800Y-42923820D02*
X10482800Y-42923820D01*
G75*
G02*
X10335300Y-42776320I0J147500D01*
G01*
X10335300Y-42481320D01*
G75*
G02*
X10482800Y-42333820I147500J0D01*
G01*
X10827800Y-42333820D01*
G75*
G02*
X10975300Y-42481320I0J-147500D01*
G01*
X10975300Y-42776320D01*
G75*
G02*
X10827800Y-42923820I-147500J0D01*
G01*
G37*
G04 #@! TD.AperFunction*
G04 #@! TA.AperFunction,SMDPad,CuDef*
G36*
G01*
X10827800Y-43893820D02*
X10482800Y-43893820D01*
G75*
G02*
X10335300Y-43746320I0J147500D01*
G01*
X10335300Y-43451320D01*
G75*
G02*
X10482800Y-43303820I147500J0D01*
G01*
X10827800Y-43303820D01*
G75*
G02*
X10975300Y-43451320I0J-147500D01*
G01*
X10975300Y-43746320D01*
G75*
G02*
X10827800Y-43893820I-147500J0D01*
G01*
G37*
G04 #@! TD.AperFunction*
G04 #@! TA.AperFunction,SMDPad,CuDef*
G36*
G01*
X10372860Y-44797760D02*
X10372860Y-44452760D01*
G75*
G02*
X10520360Y-44305260I147500J0D01*
G01*
X10815360Y-44305260D01*
G75*
G02*
X10962860Y-44452760I0J-147500D01*
G01*
X10962860Y-44797760D01*
G75*
G02*
X10815360Y-44945260I-147500J0D01*
G01*
X10520360Y-44945260D01*
G75*
G02*
X10372860Y-44797760I0J147500D01*
G01*
G37*
G04 #@! TD.AperFunction*
G04 #@! TA.AperFunction,SMDPad,CuDef*
G36*
G01*
X9402860Y-44797760D02*
X9402860Y-44452760D01*
G75*
G02*
X9550360Y-44305260I147500J0D01*
G01*
X9845360Y-44305260D01*
G75*
G02*
X9992860Y-44452760I0J-147500D01*
G01*
X9992860Y-44797760D01*
G75*
G02*
X9845360Y-44945260I-147500J0D01*
G01*
X9550360Y-44945260D01*
G75*
G02*
X9402860Y-44797760I0J147500D01*
G01*
G37*
G04 #@! TD.AperFunction*
G04 #@! TA.AperFunction,SMDPad,CuDef*
G36*
G01*
X12656460Y-47965140D02*
X12656460Y-47620140D01*
G75*
G02*
X12803960Y-47472640I147500J0D01*
G01*
X13098960Y-47472640D01*
G75*
G02*
X13246460Y-47620140I0J-147500D01*
G01*
X13246460Y-47965140D01*
G75*
G02*
X13098960Y-48112640I-147500J0D01*
G01*
X12803960Y-48112640D01*
G75*
G02*
X12656460Y-47965140I0J147500D01*
G01*
G37*
G04 #@! TD.AperFunction*
G04 #@! TA.AperFunction,SMDPad,CuDef*
G36*
G01*
X11686460Y-47965140D02*
X11686460Y-47620140D01*
G75*
G02*
X11833960Y-47472640I147500J0D01*
G01*
X12128960Y-47472640D01*
G75*
G02*
X12276460Y-47620140I0J-147500D01*
G01*
X12276460Y-47965140D01*
G75*
G02*
X12128960Y-48112640I-147500J0D01*
G01*
X11833960Y-48112640D01*
G75*
G02*
X11686460Y-47965140I0J147500D01*
G01*
G37*
G04 #@! TD.AperFunction*
D13*
X8315840Y-39116000D03*
D14*
X4815840Y-39116000D03*
G04 #@! TA.AperFunction,SMDPad,CuDef*
G36*
G01*
X14238290Y-50360400D02*
X13325790Y-50360400D01*
G75*
G02*
X13082040Y-50116650I0J243750D01*
G01*
X13082040Y-49629150D01*
G75*
G02*
X13325790Y-49385400I243750J0D01*
G01*
X14238290Y-49385400D01*
G75*
G02*
X14482040Y-49629150I0J-243750D01*
G01*
X14482040Y-50116650D01*
G75*
G02*
X14238290Y-50360400I-243750J0D01*
G01*
G37*
G04 #@! TD.AperFunction*
G04 #@! TA.AperFunction,SMDPad,CuDef*
G36*
G01*
X14238290Y-52235400D02*
X13325790Y-52235400D01*
G75*
G02*
X13082040Y-51991650I0J243750D01*
G01*
X13082040Y-51504150D01*
G75*
G02*
X13325790Y-51260400I243750J0D01*
G01*
X14238290Y-51260400D01*
G75*
G02*
X14482040Y-51504150I0J-243750D01*
G01*
X14482040Y-51991650D01*
G75*
G02*
X14238290Y-52235400I-243750J0D01*
G01*
G37*
G04 #@! TD.AperFunction*
G04 #@! TA.AperFunction,SMDPad,CuDef*
G36*
G01*
X12267910Y-50274640D02*
X11755410Y-50274640D01*
G75*
G02*
X11536660Y-50055890I0J218750D01*
G01*
X11536660Y-49618390D01*
G75*
G02*
X11755410Y-49399640I218750J0D01*
G01*
X12267910Y-49399640D01*
G75*
G02*
X12486660Y-49618390I0J-218750D01*
G01*
X12486660Y-50055890D01*
G75*
G02*
X12267910Y-50274640I-218750J0D01*
G01*
G37*
G04 #@! TD.AperFunction*
G04 #@! TA.AperFunction,SMDPad,CuDef*
G36*
G01*
X12267910Y-51849640D02*
X11755410Y-51849640D01*
G75*
G02*
X11536660Y-51630890I0J218750D01*
G01*
X11536660Y-51193390D01*
G75*
G02*
X11755410Y-50974640I218750J0D01*
G01*
X12267910Y-50974640D01*
G75*
G02*
X12486660Y-51193390I0J-218750D01*
G01*
X12486660Y-51630890D01*
G75*
G02*
X12267910Y-51849640I-218750J0D01*
G01*
G37*
G04 #@! TD.AperFunction*
G04 #@! TA.AperFunction,SMDPad,CuDef*
G36*
G01*
X10383160Y-45851860D02*
X10383160Y-45506860D01*
G75*
G02*
X10530660Y-45359360I147500J0D01*
G01*
X10825660Y-45359360D01*
G75*
G02*
X10973160Y-45506860I0J-147500D01*
G01*
X10973160Y-45851860D01*
G75*
G02*
X10825660Y-45999360I-147500J0D01*
G01*
X10530660Y-45999360D01*
G75*
G02*
X10383160Y-45851860I0J147500D01*
G01*
G37*
G04 #@! TD.AperFunction*
G04 #@! TA.AperFunction,SMDPad,CuDef*
G36*
G01*
X9413160Y-45851860D02*
X9413160Y-45506860D01*
G75*
G02*
X9560660Y-45359360I147500J0D01*
G01*
X9855660Y-45359360D01*
G75*
G02*
X10003160Y-45506860I0J-147500D01*
G01*
X10003160Y-45851860D01*
G75*
G02*
X9855660Y-45999360I-147500J0D01*
G01*
X9560660Y-45999360D01*
G75*
G02*
X9413160Y-45851860I0J147500D01*
G01*
G37*
G04 #@! TD.AperFunction*
G04 #@! TA.AperFunction,SMDPad,CuDef*
G36*
G01*
X15439070Y-42484700D02*
X16351570Y-42484700D01*
G75*
G02*
X16595320Y-42728450I0J-243750D01*
G01*
X16595320Y-43215950D01*
G75*
G02*
X16351570Y-43459700I-243750J0D01*
G01*
X15439070Y-43459700D01*
G75*
G02*
X15195320Y-43215950I0J243750D01*
G01*
X15195320Y-42728450D01*
G75*
G02*
X15439070Y-42484700I243750J0D01*
G01*
G37*
G04 #@! TD.AperFunction*
G04 #@! TA.AperFunction,SMDPad,CuDef*
G36*
G01*
X15439070Y-40609700D02*
X16351570Y-40609700D01*
G75*
G02*
X16595320Y-40853450I0J-243750D01*
G01*
X16595320Y-41340950D01*
G75*
G02*
X16351570Y-41584700I-243750J0D01*
G01*
X15439070Y-41584700D01*
G75*
G02*
X15195320Y-41340950I0J243750D01*
G01*
X15195320Y-40853450D01*
G75*
G02*
X15439070Y-40609700I243750J0D01*
G01*
G37*
G04 #@! TD.AperFunction*
G04 #@! TA.AperFunction,SMDPad,CuDef*
G36*
G01*
X17564390Y-42188880D02*
X18076890Y-42188880D01*
G75*
G02*
X18295640Y-42407630I0J-218750D01*
G01*
X18295640Y-42845130D01*
G75*
G02*
X18076890Y-43063880I-218750J0D01*
G01*
X17564390Y-43063880D01*
G75*
G02*
X17345640Y-42845130I0J218750D01*
G01*
X17345640Y-42407630D01*
G75*
G02*
X17564390Y-42188880I218750J0D01*
G01*
G37*
G04 #@! TD.AperFunction*
G04 #@! TA.AperFunction,SMDPad,CuDef*
G36*
G01*
X17564390Y-40613880D02*
X18076890Y-40613880D01*
G75*
G02*
X18295640Y-40832630I0J-218750D01*
G01*
X18295640Y-41270130D01*
G75*
G02*
X18076890Y-41488880I-218750J0D01*
G01*
X17564390Y-41488880D01*
G75*
G02*
X17345640Y-41270130I0J218750D01*
G01*
X17345640Y-40832630D01*
G75*
G02*
X17564390Y-40613880I218750J0D01*
G01*
G37*
G04 #@! TD.AperFunction*
D18*
X-17000000Y-57000000D03*
D19*
X12040000Y-57390000D03*
X-12948920Y-58592720D03*
X-17090000Y2220000D03*
D18*
X17000000Y-57000000D03*
G04 #@! TA.AperFunction,SMDPad,CuDef*
G36*
G01*
X-6304500Y-5083040D02*
X-6649500Y-5083040D01*
G75*
G02*
X-6797000Y-4935540I0J147500D01*
G01*
X-6797000Y-4640540D01*
G75*
G02*
X-6649500Y-4493040I147500J0D01*
G01*
X-6304500Y-4493040D01*
G75*
G02*
X-6157000Y-4640540I0J-147500D01*
G01*
X-6157000Y-4935540D01*
G75*
G02*
X-6304500Y-5083040I-147500J0D01*
G01*
G37*
G04 #@! TD.AperFunction*
G04 #@! TA.AperFunction,SMDPad,CuDef*
G36*
G01*
X-6304500Y-6053040D02*
X-6649500Y-6053040D01*
G75*
G02*
X-6797000Y-5905540I0J147500D01*
G01*
X-6797000Y-5610540D01*
G75*
G02*
X-6649500Y-5463040I147500J0D01*
G01*
X-6304500Y-5463040D01*
G75*
G02*
X-6157000Y-5610540I0J-147500D01*
G01*
X-6157000Y-5905540D01*
G75*
G02*
X-6304500Y-6053040I-147500J0D01*
G01*
G37*
G04 #@! TD.AperFunction*
G04 #@! TA.AperFunction,SMDPad,CuDef*
G36*
G01*
X-5105620Y-5070480D02*
X-5450620Y-5070480D01*
G75*
G02*
X-5598120Y-4922980I0J147500D01*
G01*
X-5598120Y-4627980D01*
G75*
G02*
X-5450620Y-4480480I147500J0D01*
G01*
X-5105620Y-4480480D01*
G75*
G02*
X-4958120Y-4627980I0J-147500D01*
G01*
X-4958120Y-4922980D01*
G75*
G02*
X-5105620Y-5070480I-147500J0D01*
G01*
G37*
G04 #@! TD.AperFunction*
G04 #@! TA.AperFunction,SMDPad,CuDef*
G36*
G01*
X-5105620Y-6040480D02*
X-5450620Y-6040480D01*
G75*
G02*
X-5598120Y-5892980I0J147500D01*
G01*
X-5598120Y-5597980D01*
G75*
G02*
X-5450620Y-5450480I147500J0D01*
G01*
X-5105620Y-5450480D01*
G75*
G02*
X-4958120Y-5597980I0J-147500D01*
G01*
X-4958120Y-5892980D01*
G75*
G02*
X-5105620Y-6040480I-147500J0D01*
G01*
G37*
G04 #@! TD.AperFunction*
D20*
X-1244600Y-3854600D03*
X15313660Y-14988540D03*
X15320000Y-11300000D03*
X11340000Y-14130000D03*
X5050000Y-6760000D03*
X14102080Y-48595280D03*
X16810000Y-6290000D03*
X10150000Y-4440000D03*
X13600000Y-2840000D03*
X12380000Y-4690000D03*
X15470000Y-1900000D03*
X14390000Y1330000D03*
X16790000Y490000D03*
X16430000Y-4500000D03*
X13240000Y-590000D03*
X4540000Y-3660000D03*
X1350000Y-3540000D03*
X3420000Y-5250000D03*
X2820000Y-3900000D03*
X7777480Y-5072380D03*
X7962900Y-3787140D03*
X15412720Y-78740D03*
X13078460Y2255520D03*
X-19296380Y-37315140D03*
X-15273020Y-34483040D03*
X-17089120Y-37226240D03*
X-19334480Y-38780720D03*
X-19212560Y-41991280D03*
X-19222720Y-45018960D03*
X-19197320Y-47127160D03*
X-19212560Y-49575720D03*
X-19136360Y-51709320D03*
X-19039840Y-53939440D03*
X-13299440Y-55859680D03*
X-10789920Y-59227720D03*
X-8392160Y-59136280D03*
X-5308600Y-59273440D03*
X-3286760Y-59303920D03*
X-1391920Y-59222640D03*
X574040Y-59156600D03*
X2661920Y-59166760D03*
X5247640Y-59176920D03*
X7945120Y-59197240D03*
X9728200Y-59182000D03*
X12522200Y-59207400D03*
X12176760Y-54457600D03*
X10713720Y-55991760D03*
X10093960Y-57627520D03*
X6812280Y-54218840D03*
X10464800Y-54422040D03*
X8691880Y-54391560D03*
X16570960Y-44323000D03*
X18684240Y-44048680D03*
X8255000Y-24597360D03*
X9987280Y-26598880D03*
X11557000Y-28986480D03*
X10281920Y-31800800D03*
X8117840Y-33233360D03*
X8417560Y-36322000D03*
X10932160Y-35057080D03*
X12034520Y-38338760D03*
X13075920Y-30927040D03*
X14345920Y-36581080D03*
X8950960Y-41879520D03*
X7960360Y-27802840D03*
X11325860Y-23035260D03*
X13507720Y-21092160D03*
X8204200Y-18171160D03*
X8026400Y-11938000D03*
X3002280Y-11988800D03*
X-3103880Y-11704320D03*
X-1188720Y-11866880D03*
X-10271760Y-7086600D03*
X-10601960Y-5090160D03*
X-9403080Y-4490720D03*
X-290580Y-6249420D03*
X1601680Y-6760000D03*
X599440Y-5069840D03*
X11213040Y-6760000D03*
X8942280Y-6760000D03*
X14027360Y-6760000D03*
X15320000Y-9206240D03*
X10048240Y-17602200D03*
X10165080Y-15234920D03*
X13487400Y-23484840D03*
X13700760Y-27249120D03*
X13776960Y-29225240D03*
X17795240Y-14874240D03*
X19273520Y-12771120D03*
X18633440Y-16154400D03*
X17505680Y-16819880D03*
X18780760Y-18552160D03*
X18338800Y-20447000D03*
X18166080Y-22707600D03*
X19166840Y-23845520D03*
X18917920Y-25709880D03*
X19182080Y-27792680D03*
X18872200Y-29570680D03*
X18872200Y-34163000D03*
X18303240Y-37571680D03*
X19253200Y-39557960D03*
X17830800Y-39182040D03*
X-14975840Y2788920D03*
X-17124680Y4104640D03*
X-19364960Y1889760D03*
X-15483840Y711200D03*
X11506200Y-21132800D03*
X-7757160Y-36824920D03*
X-4973320Y-34508440D03*
X-16189960Y-39918640D03*
X-15773400Y-41813480D03*
X-14432280Y-42082720D03*
X-12999720Y-42158920D03*
X-11689080Y-42103040D03*
X-10408920Y-41960800D03*
X-1442720Y-41843960D03*
X-1402080Y-43322240D03*
X-1407160Y-44907200D03*
X-1554480Y-46400720D03*
X-1264920Y-47873920D03*
X-2926080Y-41843960D03*
X-8905240Y-41925240D03*
X-6019800Y-41818560D03*
X-4485640Y-41899840D03*
X-7421880Y-41869360D03*
X-11882120Y-57292240D03*
X-14513560Y4226560D03*
X-12161520Y4211320D03*
X-10210800Y4226560D03*
X-7386320Y4262120D03*
X-4770120Y4297680D03*
X-2346960Y4124960D03*
X7020560Y3048000D03*
X-4521200Y-7945120D03*
X-6985000Y-7355840D03*
X-9743440Y-8270240D03*
X19080480Y-21635720D03*
X19161760Y-31638240D03*
X19395440Y-36291520D03*
X1473200Y-30353000D03*
X1661160Y-27142440D03*
X1442720Y-24871680D03*
X1722120Y-22382480D03*
X1600200Y-20721320D03*
X1691640Y-17708880D03*
X955040Y-19613880D03*
X584200Y-13954760D03*
X-2204720Y-14025880D03*
X-817880Y-15300960D03*
X-563880Y-17012920D03*
X-45720Y-18877280D03*
X30480Y-21569680D03*
X111760Y-23713440D03*
X35560Y-26436320D03*
X187960Y-28326080D03*
X299720Y-30256480D03*
X-706120Y-31623000D03*
X-518160Y-33604200D03*
X355600Y-35524440D03*
X604520Y-32913320D03*
X1600200Y-31912560D03*
X1630680Y-34081720D03*
X-538480Y-54422040D03*
X-3439160Y-54391560D03*
X863600Y-54422040D03*
X-1869440Y-54320440D03*
D21*
X-985520Y-49514760D03*
D20*
X-1137920Y-50881280D03*
X-5029200Y-47685960D03*
X-4668520Y-53741320D03*
X-1371600Y-52613560D03*
X-5400040Y-49154080D03*
X4917440Y-54508400D03*
X2026920Y-54391560D03*
X3393440Y-54356000D03*
X13213080Y-54447440D03*
X14320520Y-54117240D03*
X13766800Y-55737760D03*
X13487400Y-56713120D03*
X13538200Y-57810400D03*
X13929360Y-59232800D03*
X10972800Y-59136280D03*
X6609080Y-59110880D03*
X3876040Y-59192160D03*
X-6624320Y-59105800D03*
X-9641840Y-59019440D03*
X-14030960Y-54660800D03*
X-14940280Y-53868320D03*
X-16504920Y-53522880D03*
X-17729200Y-53665120D03*
X-19298920Y-40299640D03*
X-19171920Y-43413680D03*
X-16748760Y-44079160D03*
X-8016240Y-44790360D03*
X-4572000Y-43530520D03*
X-11384280Y-44079160D03*
X-7731760Y-47945040D03*
X-12948920Y-48066960D03*
X-12547600Y-45547280D03*
X-7305040Y-52384960D03*
X-14660880Y-49372520D03*
X-10149840Y-53334920D03*
X-8453120Y-57195720D03*
X-9972040Y-50073560D03*
X-16337280Y-47035720D03*
X-12832080Y-51882040D03*
X-4775200Y-55971440D03*
X-2032000Y-57312560D03*
X-7289800Y-54919880D03*
X477520Y-55910480D03*
X3804920Y-57779920D03*
X3103880Y-55971440D03*
X1529080Y-57952640D03*
X6837680Y-57017920D03*
X5440680Y-56088280D03*
X9174480Y-55676800D03*
X8417560Y-57952640D03*
X10581640Y-49911000D03*
X14137640Y-47635160D03*
X10927080Y-49077880D03*
X12075160Y-48981360D03*
X13111480Y-48874680D03*
X-9260840Y-14808200D03*
X-11318240Y-11582400D03*
X18060000Y-10380000D03*
X10720000Y-10410000D03*
X-220000Y-10410000D03*
X-12030000Y-9160000D03*
X-5278120Y-3230880D03*
X-6477000Y-3967480D03*
X-12258040Y-34584640D03*
X10609580Y-47807880D03*
X-8244840Y-8305800D03*
X-8255000Y-10673080D03*
X-3784600Y-6060440D03*
X12590000Y-17460000D03*
X16710000Y-12960000D03*
X9794999Y-12944999D03*
X-8897900Y-37617120D03*
X-14813280Y-37284660D03*
X-16484600Y-34523680D03*
X-1490980Y-39565580D03*
X4770120Y-18430240D03*
D21*
X11955780Y-41960800D03*
D20*
X-5847080Y-6797040D03*
X-14235680Y-34487100D03*
D22*
X12926020Y-44889380D02*
X12926020Y-46236880D01*
X12923520Y-44886880D02*
X12926020Y-44889380D01*
X12948920Y-46259780D02*
X12926020Y-46236880D01*
D23*
X-1244600Y-1295400D02*
X-1244600Y-3854600D01*
D22*
X12926020Y-44889380D02*
X14465640Y-44889380D01*
X-4235680Y-13910080D02*
X-4239260Y-13906500D01*
D24*
X-4235680Y-17139280D02*
X-4235680Y-13910080D01*
X12959080Y-47785020D02*
X12951460Y-47792640D01*
X12951460Y-46262320D02*
X12926020Y-46236880D01*
X12951460Y-47792640D02*
X12951460Y-46262320D01*
D22*
X15895320Y-43459700D02*
X15895320Y-42972200D01*
X14465640Y-44889380D02*
X15895320Y-43459700D01*
X17474820Y-42972200D02*
X17820640Y-42626380D01*
D25*
X-1260120Y-34897060D02*
X-1260120Y-35412960D01*
X-1260120Y-35412960D02*
X-1260120Y-35968940D01*
D23*
X15313660Y-14988540D02*
X12283440Y-14988540D01*
X12283440Y-14988540D02*
X11325860Y-15946120D01*
X11325860Y-23942040D02*
X12702540Y-25318720D01*
X11325860Y-15946120D02*
X11325860Y-19692620D01*
X11325860Y-23035260D02*
X11325860Y-23942040D01*
X11325860Y-19692620D02*
X11325860Y-23035260D01*
D22*
X-9209760Y-14757120D02*
X-9260840Y-14808200D01*
X-9209760Y-13710920D02*
X-9209760Y-14757120D01*
X-14235680Y-12122400D02*
X-14196060Y-12082780D01*
D24*
X10720000Y-10410000D02*
X10720000Y-10410000D01*
X18030000Y-10410000D02*
X18060000Y-10380000D01*
X10720000Y-10410000D02*
X18030000Y-10410000D01*
X-320000Y-10410000D02*
X-220000Y-10510000D01*
X-869990Y-9760010D02*
X-220000Y-10410000D01*
D22*
X-14251940Y-12138660D02*
X-14196060Y-12082780D01*
X-14251940Y-13871220D02*
X-14251940Y-12138660D01*
D24*
X-14196060Y-12082780D02*
X-13135400Y-12082780D01*
X-13135400Y-12082780D02*
X-10812630Y-9760010D01*
X-10812630Y-9760010D02*
X-869990Y-9760010D01*
X-14700000Y-9150000D02*
X-16238220Y-10688220D01*
X-12985282Y-9150000D02*
X-14700000Y-9150000D01*
X-12975282Y-9160000D02*
X-12985282Y-9150000D01*
X4310000Y-9160000D02*
X-12030000Y-9160000D01*
X6375400Y-7094600D02*
X4310000Y-9160000D01*
X6375400Y-1295400D02*
X6375400Y-7094600D01*
X-12030000Y-9160000D02*
X-12975282Y-9160000D01*
X-16238220Y-13903960D02*
X-16240760Y-13906500D01*
X-16238220Y-10688220D02*
X-16238220Y-13903960D01*
D22*
X-5278120Y-4775480D02*
X-5278120Y-3230880D01*
X-5278120Y-3230880D02*
X-5278120Y-3230880D01*
X-6461760Y-4659799D02*
X-6477000Y-4675039D01*
X-6461760Y-3860800D02*
X-6461760Y-4659799D01*
X-12110720Y-32339280D02*
X-12235680Y-32339280D01*
X-12235680Y-32339280D02*
X-12235680Y-35415720D01*
X-12212320Y-35219640D02*
X-12197080Y-35204400D01*
X-12212320Y-36383240D02*
X-12212320Y-35219640D01*
X-12225020Y-36395940D02*
X-12212320Y-36383240D01*
X-12225020Y-36868380D02*
X-12225020Y-36395940D01*
X11976020Y-46236880D02*
X11976020Y-46642100D01*
D24*
X11981460Y-46242320D02*
X11976020Y-46236880D01*
X11981460Y-47792640D02*
X11981460Y-46242320D01*
X11966220Y-47807880D02*
X11981460Y-47792640D01*
X10609580Y-47807880D02*
X11966220Y-47807880D01*
D22*
X-16235680Y-17139280D02*
X-16235680Y-15951200D01*
D24*
X-16240760Y-17089240D02*
X-16220000Y-17110000D01*
X-16240760Y-14876500D02*
X-16240760Y-17089240D01*
D22*
X-6235680Y-32339280D02*
X-6235680Y-34404320D01*
X-6235680Y-35582880D02*
X-6088380Y-35730180D01*
X-6235680Y-34404320D02*
X-6235680Y-35582880D01*
D24*
X-8260080Y-6187440D02*
X-8326120Y-6253480D01*
X-8260080Y-3284220D02*
X-8260080Y-6187440D01*
X-8294300Y-3250000D02*
X-8260080Y-3284220D01*
X-13980000Y-2240000D02*
X-12970000Y-3250000D01*
X-13970000Y-2230000D02*
X-13980000Y-2240000D01*
X-13970000Y3002280D02*
X-13970000Y-2230000D01*
X-12970000Y-3250000D02*
X-8294300Y-3250000D01*
X5598160Y3002280D02*
X-13970000Y3002280D01*
X6375400Y2225040D02*
X5598160Y3002280D01*
X6375400Y1244600D02*
X6375400Y2225040D01*
D22*
X-8235680Y-13920200D02*
X-8219440Y-13903960D01*
D24*
X-8235680Y-17139280D02*
X-8235680Y-13920200D01*
X-8224520Y-13909040D02*
X-8235680Y-13920200D01*
X-8224520Y-12946380D02*
X-8224520Y-13909040D01*
X-8326120Y-8224520D02*
X-8244840Y-8305800D01*
X-8326120Y-6253480D02*
X-8326120Y-8224520D01*
X-8219440Y-12941300D02*
X-8224520Y-12946380D01*
X-8219440Y-11978640D02*
X-8219440Y-12941300D01*
X-8224520Y-11976380D02*
X-8224520Y-11394440D01*
X-8234680Y-11384280D02*
X-8224520Y-11394440D01*
X-8234680Y-10535920D02*
X-8234680Y-11384280D01*
D23*
X-3784600Y-1295400D02*
X-3784600Y-3914600D01*
X17774820Y-41097200D02*
X17820640Y-41051380D01*
X15895320Y-41097200D02*
X17774820Y-41097200D01*
X15195320Y-41097200D02*
X15170440Y-41122080D01*
X14233120Y-41122080D02*
X13876020Y-41479180D01*
X15170440Y-41122080D02*
X14233120Y-41122080D01*
X15895320Y-41097200D02*
X15195320Y-41097200D01*
X13876020Y-41479180D02*
X13876020Y-43616880D01*
X16202540Y-19913720D02*
X16299180Y-19817080D01*
X16202540Y-25318720D02*
X16202540Y-19913720D01*
X16299180Y-19817080D02*
X16299180Y-18102580D01*
X16299180Y-18102580D02*
X15732760Y-17536160D01*
X12725870Y-17536160D02*
X12725870Y-17460000D01*
X15732760Y-17536160D02*
X12725870Y-17536160D01*
X16202540Y-33942020D02*
X16222860Y-33962340D01*
X16202540Y-25318720D02*
X16202540Y-33942020D01*
X16222860Y-40769660D02*
X15895320Y-41097200D01*
X16222860Y-33962340D02*
X16222860Y-40769660D01*
X-3784600Y-3914600D02*
X-3784600Y-6060440D01*
D24*
X9794999Y-12944999D02*
X9794999Y-12944999D01*
X16694999Y-12944999D02*
X16710000Y-12960000D01*
X9794999Y-12944999D02*
X16694999Y-12944999D01*
X-16116300Y-36599140D02*
X-16121380Y-36604220D01*
X-16116300Y-35506660D02*
X-16116300Y-36599140D01*
X-16116300Y-32413700D02*
X-16220000Y-32310000D01*
X-18166080Y-34477960D02*
X-16116300Y-34477960D01*
X-18783300Y-35095180D02*
X-18166080Y-34477960D01*
X-16116300Y-34477960D02*
X-16116300Y-32413700D01*
X-16116300Y-35506660D02*
X-16116300Y-34477960D01*
X-8897900Y-37617120D02*
X-8897900Y-37617120D01*
X-10218420Y-37617120D02*
X-8897900Y-37617120D01*
X-16121380Y-36604220D02*
X-15493720Y-36604220D01*
X-15493720Y-36604220D02*
X-14813280Y-37284660D01*
D25*
X-2235680Y-37204320D02*
X-1365000Y-38075000D01*
X-2235680Y-32339280D02*
X-2235680Y-37204320D01*
D22*
X-12344400Y-37957760D02*
X-12225020Y-37838380D01*
X16200420Y-51302780D02*
X17101820Y-50401380D01*
D25*
X-1490980Y-37906960D02*
X-1694180Y-37703760D01*
X-12230100Y-37843460D02*
X-12225020Y-37838380D01*
D23*
X17396620Y-50401380D02*
X17101820Y-50401380D01*
D24*
X-12893040Y-39702740D02*
X-12893040Y-39268400D01*
X-12225020Y-38600380D02*
X-12225020Y-37838380D01*
X-12893040Y-39268400D02*
X-12225020Y-38600380D01*
X-13992860Y-39702740D02*
X-12893040Y-39702740D01*
X-16121380Y-37574220D02*
X-13992860Y-39702740D01*
D22*
X4693920Y-14198600D02*
X4693920Y-15021560D01*
D24*
X4693920Y-13088282D02*
X4693920Y-14198600D01*
X4394439Y-12788801D02*
X4693920Y-13088282D01*
X974799Y-12788801D02*
X4394439Y-12788801D01*
X-5755640Y-10368280D02*
X-1445722Y-10368280D01*
X-1445722Y-10368280D02*
X974799Y-12788801D01*
X-7264400Y-11877040D02*
X-5755640Y-10368280D01*
X-7264400Y-12542520D02*
X-7264400Y-11877040D01*
X-7269480Y-12547600D02*
X-7264400Y-12542520D01*
X11955780Y-43596640D02*
X11976020Y-43616880D01*
X11955780Y-41960800D02*
X11955780Y-43596640D01*
X11957960Y-43598820D02*
X11976020Y-43616880D01*
X10655300Y-43598820D02*
X11957960Y-43598820D01*
X10667860Y-43611380D02*
X10655300Y-43598820D01*
X10667860Y-44625260D02*
X10667860Y-43611380D01*
X10678160Y-44635560D02*
X10667860Y-44625260D01*
X10678160Y-45679360D02*
X10678160Y-44635560D01*
D22*
X-6464440Y-5745480D02*
X-6477000Y-5758040D01*
X-5278120Y-5745480D02*
X-6464440Y-5745480D01*
X-5847080Y-6797040D02*
X-5328920Y-6278880D01*
X-5847080Y-6797040D02*
X-6451600Y-6192520D01*
X-6451600Y-5783440D02*
X-6477000Y-5758040D01*
X-6451600Y-6192520D02*
X-6451600Y-5783440D01*
X-5328920Y-5796280D02*
X-5278120Y-5745480D01*
X-5328920Y-6278880D02*
X-5328920Y-5796280D01*
X-8864600Y-2704670D02*
X-8864600Y-1295400D01*
X-8844280Y-2724990D02*
X-8864600Y-2704670D01*
X-8076834Y-2724990D02*
X-8844280Y-2724990D01*
X-7655560Y-3146264D02*
X-8076834Y-2724990D01*
X-7655560Y-4998720D02*
X-7655560Y-3146264D01*
X-6896240Y-5758040D02*
X-7655560Y-4998720D01*
X-6477000Y-5758040D02*
X-6896240Y-5758040D01*
X16737320Y-46236880D02*
X17101820Y-46601380D01*
D25*
X13876020Y-46236880D02*
X16737320Y-46236880D01*
D22*
X-10235680Y-32339280D02*
X-10235680Y-35484320D01*
X-10251440Y-36614100D02*
X-10218420Y-36647120D01*
X-10251440Y-35100260D02*
X-10251440Y-36614100D01*
X-14235680Y-17139280D02*
X-14235680Y-16775680D01*
X-14251940Y-17078060D02*
X-14220000Y-17110000D01*
X-14251940Y-14841220D02*
X-14251940Y-17078060D01*
X-4235680Y-32339280D02*
X-4235680Y-35134320D01*
X-4235680Y-37052020D02*
X-4028440Y-37259260D01*
X-4235680Y-35134320D02*
X-4235680Y-37052020D01*
X-14235680Y-32339280D02*
X-14235680Y-34487100D01*
X-8235680Y-32339280D02*
X-8235680Y-34806620D01*
X-8235680Y-34806620D02*
X-8235680Y-34944320D01*
D25*
X-5491480Y-12024360D02*
X-5491480Y-12252960D01*
X-6220000Y-12981480D02*
X-6220000Y-17110000D01*
X-5491480Y-12252960D02*
X-6220000Y-12981480D01*
D22*
X-10210800Y-17114400D02*
X-10235680Y-17139280D01*
D24*
X-10220000Y-12734600D02*
X-9707880Y-12222480D01*
X-10220000Y-17110000D02*
X-10220000Y-12734600D01*
D22*
X-12235680Y-17139280D02*
X-12235680Y-16193000D01*
X-12235680Y-17139280D02*
X-12235680Y-16045680D01*
X-12235680Y-13875520D02*
X-12237720Y-13873480D01*
D24*
X-12235680Y-17139280D02*
X-12235680Y-13875520D01*
D26*
X14390226Y-50327034D02*
X10068398Y-50307847D01*
X10178437Y-48863588D01*
X10281433Y-48611424D01*
X12617113Y-48640990D01*
X12641918Y-48638863D01*
X12665832Y-48631938D01*
X12687935Y-48620481D01*
X12707379Y-48604932D01*
X12723415Y-48585888D01*
X12735428Y-48564082D01*
X12742956Y-48540351D01*
X12745695Y-48511481D01*
X12722829Y-47359013D01*
X14603132Y-47332311D01*
X14390226Y-50327034D01*
G04 #@! TA.AperFunction,Conductor*
D27*
G36*
X14390226Y-50327034D02*
G01*
X10068398Y-50307847D01*
X10178437Y-48863588D01*
X10281433Y-48611424D01*
X12617113Y-48640990D01*
X12641918Y-48638863D01*
X12665832Y-48631938D01*
X12687935Y-48620481D01*
X12707379Y-48604932D01*
X12723415Y-48585888D01*
X12735428Y-48564082D01*
X12742956Y-48540351D01*
X12745695Y-48511481D01*
X12722829Y-47359013D01*
X14603132Y-47332311D01*
X14390226Y-50327034D01*
G37*
G04 #@! TD.AperFunction*
D26*
X5980209Y-14283602D02*
X6225544Y-43534125D01*
X6228192Y-43558880D01*
X6235619Y-43582643D01*
X6247539Y-43604501D01*
X6263494Y-43623613D01*
X6282871Y-43639245D01*
X6304925Y-43650796D01*
X6328809Y-43657823D01*
X6347769Y-43659970D01*
X9940423Y-43795032D01*
X9939203Y-43926987D01*
X9815110Y-43928260D01*
X9720860Y-44022510D01*
X9720860Y-44602260D01*
X9740860Y-44602260D01*
X9740860Y-44648260D01*
X9720860Y-44648260D01*
X9720860Y-45228010D01*
X9731160Y-45238310D01*
X9731160Y-45656360D01*
X9751160Y-45656360D01*
X9751160Y-45702360D01*
X9731160Y-45702360D01*
X9731160Y-46282110D01*
X9825410Y-46376360D01*
X9916544Y-46377295D01*
X9913697Y-46685114D01*
X9378786Y-50712158D01*
X9377942Y-50737040D01*
X9381969Y-50761608D01*
X9390712Y-50784919D01*
X9403835Y-50806076D01*
X9420833Y-50824267D01*
X9441053Y-50838792D01*
X9463718Y-50849093D01*
X9487958Y-50854774D01*
X9505469Y-50855878D01*
X14819149Y-50822858D01*
X14843910Y-50820263D01*
X14867689Y-50812888D01*
X14889572Y-50801016D01*
X14908719Y-50785103D01*
X14924393Y-50765760D01*
X14935992Y-50743731D01*
X14943071Y-50719862D01*
X14944868Y-50707028D01*
X15081962Y-49154080D01*
X19211585Y-49154080D01*
X19192244Y-51682949D01*
X19192240Y-51683920D01*
X19192240Y-53053505D01*
X16406054Y-53121580D01*
X15182539Y-53136810D01*
X15181068Y-53136837D01*
X10957488Y-53238365D01*
X9400895Y-53202873D01*
X9398713Y-53202842D01*
X7590933Y-53192686D01*
X6326640Y-53172376D01*
X6323291Y-53172367D01*
X4353201Y-53192677D01*
X2406520Y-53183158D01*
X2463748Y-51189724D01*
X2463737Y-51182076D01*
X2413073Y-49576042D01*
X2463715Y-48193529D01*
X2463731Y-48184689D01*
X2392663Y-46032354D01*
X2392403Y-45999360D01*
X9034336Y-45999360D01*
X9041615Y-46073265D01*
X9063172Y-46144330D01*
X9098179Y-46209823D01*
X9145291Y-46267229D01*
X9202697Y-46314341D01*
X9268190Y-46349348D01*
X9339255Y-46370905D01*
X9413160Y-46378184D01*
X9590910Y-46376360D01*
X9685160Y-46282110D01*
X9685160Y-45702360D01*
X9130410Y-45702360D01*
X9036160Y-45796610D01*
X9034336Y-45999360D01*
X2392403Y-45999360D01*
X2384070Y-44945260D01*
X9024036Y-44945260D01*
X9031315Y-45019165D01*
X9052872Y-45090230D01*
X9087879Y-45155723D01*
X9091907Y-45160631D01*
X9063172Y-45214390D01*
X9041615Y-45285455D01*
X9034336Y-45359360D01*
X9036160Y-45562110D01*
X9130410Y-45656360D01*
X9685160Y-45656360D01*
X9685160Y-45076610D01*
X9674860Y-45066310D01*
X9674860Y-44648260D01*
X9120110Y-44648260D01*
X9025860Y-44742510D01*
X9024036Y-44945260D01*
X2384070Y-44945260D01*
X2382516Y-44748716D01*
X2382470Y-44746169D01*
X2370137Y-44305260D01*
X9024036Y-44305260D01*
X9025860Y-44508010D01*
X9120110Y-44602260D01*
X9674860Y-44602260D01*
X9674860Y-44022510D01*
X9580610Y-43928260D01*
X9402860Y-43926436D01*
X9328955Y-43933715D01*
X9257890Y-43955272D01*
X9192397Y-43990279D01*
X9134991Y-44037391D01*
X9087879Y-44094797D01*
X9052872Y-44160290D01*
X9031315Y-44231355D01*
X9024036Y-44305260D01*
X2370137Y-44305260D01*
X2341868Y-43294652D01*
X2331717Y-41736453D01*
X2331193Y-41725727D01*
X2234673Y-40669087D01*
X2229989Y-40644635D01*
X2220625Y-40621567D01*
X2206940Y-40600769D01*
X2189461Y-40583041D01*
X2168859Y-40569063D01*
X2145926Y-40559373D01*
X2121543Y-40554343D01*
X2106596Y-40553650D01*
X-8754444Y-40690810D01*
X-8756838Y-40690863D01*
X-9397984Y-40711057D01*
X-10032747Y-40690905D01*
X-10417485Y-40670656D01*
X-10425853Y-40670491D01*
X-10806853Y-40675571D01*
X-10821194Y-40676576D01*
X-11368256Y-40746202D01*
X-11955879Y-40711343D01*
X-11968377Y-40711218D01*
X-12486537Y-40731538D01*
X-12490450Y-40731752D01*
X-13065124Y-40772080D01*
X-14059846Y-40772080D01*
X-14339820Y-40764992D01*
X-14351000Y-40429589D01*
X-14351000Y-39916000D01*
X3637016Y-39916000D01*
X3644295Y-39989905D01*
X3665852Y-40060970D01*
X3700859Y-40126463D01*
X3747971Y-40183869D01*
X3805377Y-40230981D01*
X3870870Y-40265988D01*
X3941935Y-40287545D01*
X4015840Y-40294824D01*
X4698590Y-40293000D01*
X4792840Y-40198750D01*
X4792840Y-39139000D01*
X4838840Y-39139000D01*
X4838840Y-40198750D01*
X4933090Y-40293000D01*
X5615840Y-40294824D01*
X5689745Y-40287545D01*
X5760810Y-40265988D01*
X5826303Y-40230981D01*
X5883709Y-40183869D01*
X5930821Y-40126463D01*
X5965828Y-40060970D01*
X5987385Y-39989905D01*
X5994664Y-39916000D01*
X5992840Y-39233250D01*
X5898590Y-39139000D01*
X4838840Y-39139000D01*
X4792840Y-39139000D01*
X3733090Y-39139000D01*
X3638840Y-39233250D01*
X3637016Y-39916000D01*
X-14351000Y-39916000D01*
X-14351000Y-39827200D01*
X-14351028Y-39824555D01*
X-14361138Y-39339283D01*
X-14351019Y-38747331D01*
X-14351035Y-38742184D01*
X-14365304Y-38133380D01*
X-12923844Y-38133380D01*
X-12916565Y-38207285D01*
X-12895008Y-38278350D01*
X-12860001Y-38343843D01*
X-12812889Y-38401249D01*
X-12755483Y-38448361D01*
X-12689990Y-38483368D01*
X-12618925Y-38504925D01*
X-12545020Y-38512204D01*
X-12342270Y-38510380D01*
X-12248020Y-38416130D01*
X-12248020Y-37861380D01*
X-12202020Y-37861380D01*
X-12202020Y-38416130D01*
X-12107770Y-38510380D01*
X-11905020Y-38512204D01*
X-11831115Y-38504925D01*
X-11760050Y-38483368D01*
X-11694557Y-38448361D01*
X-11637151Y-38401249D01*
X-11590039Y-38343843D01*
X-11555032Y-38278350D01*
X-11533475Y-38207285D01*
X-11526196Y-38133380D01*
X-11528020Y-37955630D01*
X-11622270Y-37861380D01*
X-12202020Y-37861380D01*
X-12248020Y-37861380D01*
X-12827770Y-37861380D01*
X-12922020Y-37955630D01*
X-12923844Y-38133380D01*
X-14365304Y-38133380D01*
X-14371620Y-37863908D01*
X-14349844Y-37849358D01*
X-14314814Y-37814328D01*
X-13993949Y-37642743D01*
X-12922844Y-37640806D01*
X-12922020Y-37721130D01*
X-12827770Y-37815380D01*
X-12248020Y-37815380D01*
X-12248020Y-37795380D01*
X-12202020Y-37795380D01*
X-12202020Y-37815380D01*
X-11622270Y-37815380D01*
X-11528020Y-37721130D01*
X-11527170Y-37638282D01*
X-11343640Y-37637950D01*
X-11343640Y-38577520D01*
X-11341200Y-38602296D01*
X-11333973Y-38626121D01*
X-11322237Y-38648077D01*
X-11306443Y-38667323D01*
X-11287197Y-38683117D01*
X-11265241Y-38694853D01*
X-11241416Y-38702080D01*
X-11212631Y-38704457D01*
X-8802485Y-38628347D01*
X-6905418Y-38653709D01*
X-6902905Y-38653717D01*
X-2945585Y-38628317D01*
X-2920825Y-38625718D01*
X-2897047Y-38618338D01*
X-2875166Y-38606462D01*
X-2856023Y-38590544D01*
X-2840353Y-38571198D01*
X-2828758Y-38549167D01*
X-2821684Y-38525296D01*
X-2819443Y-38504614D01*
X-2814550Y-38316000D01*
X3637016Y-38316000D01*
X3638840Y-38998750D01*
X3733090Y-39093000D01*
X4792840Y-39093000D01*
X4792840Y-38033250D01*
X4838840Y-38033250D01*
X4838840Y-39093000D01*
X5898590Y-39093000D01*
X5992840Y-38998750D01*
X5994664Y-38316000D01*
X5987385Y-38242095D01*
X5965828Y-38171030D01*
X5930821Y-38105537D01*
X5883709Y-38048131D01*
X5826303Y-38001019D01*
X5760810Y-37966012D01*
X5689745Y-37944455D01*
X5615840Y-37937176D01*
X4933090Y-37939000D01*
X4838840Y-38033250D01*
X4792840Y-38033250D01*
X4698590Y-37939000D01*
X4015840Y-37937176D01*
X3941935Y-37944455D01*
X3870870Y-37966012D01*
X3805377Y-38001019D01*
X3747971Y-38048131D01*
X3700859Y-38105537D01*
X3665852Y-38171030D01*
X3644295Y-38242095D01*
X3637016Y-38316000D01*
X-2814550Y-38316000D01*
X-2769412Y-36576158D01*
X-2735583Y-36603921D01*
X-2670090Y-36638928D01*
X-2599025Y-36660485D01*
X-2525120Y-36667764D01*
X-2347370Y-36665940D01*
X-2253120Y-36571690D01*
X-2253120Y-35991940D01*
X-2273120Y-35991940D01*
X-2273120Y-35945940D01*
X-2253120Y-35945940D01*
X-2253120Y-34920060D01*
X-2273120Y-34920060D01*
X-2273120Y-34874060D01*
X-2253120Y-34874060D01*
X-2253120Y-34854060D01*
X-2207120Y-34854060D01*
X-2207120Y-34874060D01*
X-2187120Y-34874060D01*
X-2187120Y-34920060D01*
X-2207120Y-34920060D01*
X-2207120Y-35945940D01*
X-2187120Y-35945940D01*
X-2187120Y-35991940D01*
X-2207120Y-35991940D01*
X-2207120Y-36571690D01*
X-2112870Y-36665940D01*
X-1998991Y-36667109D01*
X-1991853Y-36690641D01*
X-1980117Y-36712597D01*
X-1964323Y-36731843D01*
X-1945077Y-36747637D01*
X-1923121Y-36759373D01*
X-1899296Y-36766600D01*
X-1874443Y-36769040D01*
X2324177Y-36766500D01*
X2348952Y-36764045D01*
X2372772Y-36756803D01*
X2394721Y-36745054D01*
X2413957Y-36729248D01*
X2429739Y-36709994D01*
X2441462Y-36688030D01*
X2448675Y-36664201D01*
X2451091Y-36641018D01*
X2515459Y-31257140D01*
X3601576Y-31257140D01*
X3608855Y-31331045D01*
X3630412Y-31402110D01*
X3665419Y-31467603D01*
X3712531Y-31525009D01*
X3769937Y-31572121D01*
X3835430Y-31607128D01*
X3906495Y-31628685D01*
X3980400Y-31635964D01*
X4663150Y-31634140D01*
X4757400Y-31539890D01*
X4757400Y-30480140D01*
X4803400Y-30480140D01*
X4803400Y-31539890D01*
X4897650Y-31634140D01*
X5580400Y-31635964D01*
X5654305Y-31628685D01*
X5725370Y-31607128D01*
X5790863Y-31572121D01*
X5848269Y-31525009D01*
X5895381Y-31467603D01*
X5930388Y-31402110D01*
X5951945Y-31331045D01*
X5959224Y-31257140D01*
X5957400Y-30574390D01*
X5863150Y-30480140D01*
X4803400Y-30480140D01*
X4757400Y-30480140D01*
X3697650Y-30480140D01*
X3603400Y-30574390D01*
X3601576Y-31257140D01*
X2515459Y-31257140D01*
X2534588Y-29657140D01*
X3601576Y-29657140D01*
X3603400Y-30339890D01*
X3697650Y-30434140D01*
X4757400Y-30434140D01*
X4757400Y-29374390D01*
X4803400Y-29374390D01*
X4803400Y-30434140D01*
X5863150Y-30434140D01*
X5957400Y-30339890D01*
X5959224Y-29657140D01*
X5951945Y-29583235D01*
X5930388Y-29512170D01*
X5895381Y-29446677D01*
X5848269Y-29389271D01*
X5790863Y-29342159D01*
X5725370Y-29307152D01*
X5654305Y-29285595D01*
X5580400Y-29278316D01*
X4897650Y-29280140D01*
X4803400Y-29374390D01*
X4757400Y-29374390D01*
X4663150Y-29280140D01*
X3980400Y-29278316D01*
X3906495Y-29285595D01*
X3835430Y-29307152D01*
X3769937Y-29342159D01*
X3712531Y-29389271D01*
X3665419Y-29446677D01*
X3630412Y-29512170D01*
X3608855Y-29583235D01*
X3601576Y-29657140D01*
X2534588Y-29657140D01*
X2618982Y-22598280D01*
X3560936Y-22598280D01*
X3568215Y-22672185D01*
X3589772Y-22743250D01*
X3624779Y-22808743D01*
X3671891Y-22866149D01*
X3729297Y-22913261D01*
X3794790Y-22948268D01*
X3865855Y-22969825D01*
X3939760Y-22977104D01*
X4622510Y-22975280D01*
X4716760Y-22881030D01*
X4716760Y-21821280D01*
X4762760Y-21821280D01*
X4762760Y-22881030D01*
X4857010Y-22975280D01*
X5539760Y-22977104D01*
X5613665Y-22969825D01*
X5684730Y-22948268D01*
X5750223Y-22913261D01*
X5807629Y-22866149D01*
X5854741Y-22808743D01*
X5889748Y-22743250D01*
X5911305Y-22672185D01*
X5918584Y-22598280D01*
X5916760Y-21915530D01*
X5822510Y-21821280D01*
X4762760Y-21821280D01*
X4716760Y-21821280D01*
X3657010Y-21821280D01*
X3562760Y-21915530D01*
X3560936Y-22598280D01*
X2618982Y-22598280D01*
X2638111Y-20998280D01*
X3560936Y-20998280D01*
X3562760Y-21681030D01*
X3657010Y-21775280D01*
X4716760Y-21775280D01*
X4716760Y-20715530D01*
X4762760Y-20715530D01*
X4762760Y-21775280D01*
X5822510Y-21775280D01*
X5916760Y-21681030D01*
X5918584Y-20998280D01*
X5911305Y-20924375D01*
X5889748Y-20853310D01*
X5854741Y-20787817D01*
X5807629Y-20730411D01*
X5750223Y-20683299D01*
X5684730Y-20648292D01*
X5613665Y-20626735D01*
X5539760Y-20619456D01*
X4857010Y-20621280D01*
X4762760Y-20715530D01*
X4716760Y-20715530D01*
X4622510Y-20621280D01*
X3939760Y-20619456D01*
X3865855Y-20626735D01*
X3794790Y-20648292D01*
X3729297Y-20683299D01*
X3671891Y-20730411D01*
X3624779Y-20787817D01*
X3589772Y-20853310D01*
X3568215Y-20924375D01*
X3560936Y-20998280D01*
X2638111Y-20998280D01*
X2718814Y-14248229D01*
X5980209Y-14283602D01*
G04 #@! TA.AperFunction,Conductor*
D27*
G36*
X5980209Y-14283602D02*
G01*
X6225544Y-43534125D01*
X6228192Y-43558880D01*
X6235619Y-43582643D01*
X6247539Y-43604501D01*
X6263494Y-43623613D01*
X6282871Y-43639245D01*
X6304925Y-43650796D01*
X6328809Y-43657823D01*
X6347769Y-43659970D01*
X9940423Y-43795032D01*
X9939203Y-43926987D01*
X9815110Y-43928260D01*
X9720860Y-44022510D01*
X9720860Y-44602260D01*
X9740860Y-44602260D01*
X9740860Y-44648260D01*
X9720860Y-44648260D01*
X9720860Y-45228010D01*
X9731160Y-45238310D01*
X9731160Y-45656360D01*
X9751160Y-45656360D01*
X9751160Y-45702360D01*
X9731160Y-45702360D01*
X9731160Y-46282110D01*
X9825410Y-46376360D01*
X9916544Y-46377295D01*
X9913697Y-46685114D01*
X9378786Y-50712158D01*
X9377942Y-50737040D01*
X9381969Y-50761608D01*
X9390712Y-50784919D01*
X9403835Y-50806076D01*
X9420833Y-50824267D01*
X9441053Y-50838792D01*
X9463718Y-50849093D01*
X9487958Y-50854774D01*
X9505469Y-50855878D01*
X14819149Y-50822858D01*
X14843910Y-50820263D01*
X14867689Y-50812888D01*
X14889572Y-50801016D01*
X14908719Y-50785103D01*
X14924393Y-50765760D01*
X14935992Y-50743731D01*
X14943071Y-50719862D01*
X14944868Y-50707028D01*
X15081962Y-49154080D01*
X19211585Y-49154080D01*
X19192244Y-51682949D01*
X19192240Y-51683920D01*
X19192240Y-53053505D01*
X16406054Y-53121580D01*
X15182539Y-53136810D01*
X15181068Y-53136837D01*
X10957488Y-53238365D01*
X9400895Y-53202873D01*
X9398713Y-53202842D01*
X7590933Y-53192686D01*
X6326640Y-53172376D01*
X6323291Y-53172367D01*
X4353201Y-53192677D01*
X2406520Y-53183158D01*
X2463748Y-51189724D01*
X2463737Y-51182076D01*
X2413073Y-49576042D01*
X2463715Y-48193529D01*
X2463731Y-48184689D01*
X2392663Y-46032354D01*
X2392403Y-45999360D01*
X9034336Y-45999360D01*
X9041615Y-46073265D01*
X9063172Y-46144330D01*
X9098179Y-46209823D01*
X9145291Y-46267229D01*
X9202697Y-46314341D01*
X9268190Y-46349348D01*
X9339255Y-46370905D01*
X9413160Y-46378184D01*
X9590910Y-46376360D01*
X9685160Y-46282110D01*
X9685160Y-45702360D01*
X9130410Y-45702360D01*
X9036160Y-45796610D01*
X9034336Y-45999360D01*
X2392403Y-45999360D01*
X2384070Y-44945260D01*
X9024036Y-44945260D01*
X9031315Y-45019165D01*
X9052872Y-45090230D01*
X9087879Y-45155723D01*
X9091907Y-45160631D01*
X9063172Y-45214390D01*
X9041615Y-45285455D01*
X9034336Y-45359360D01*
X9036160Y-45562110D01*
X9130410Y-45656360D01*
X9685160Y-45656360D01*
X9685160Y-45076610D01*
X9674860Y-45066310D01*
X9674860Y-44648260D01*
X9120110Y-44648260D01*
X9025860Y-44742510D01*
X9024036Y-44945260D01*
X2384070Y-44945260D01*
X2382516Y-44748716D01*
X2382470Y-44746169D01*
X2370137Y-44305260D01*
X9024036Y-44305260D01*
X9025860Y-44508010D01*
X9120110Y-44602260D01*
X9674860Y-44602260D01*
X9674860Y-44022510D01*
X9580610Y-43928260D01*
X9402860Y-43926436D01*
X9328955Y-43933715D01*
X9257890Y-43955272D01*
X9192397Y-43990279D01*
X9134991Y-44037391D01*
X9087879Y-44094797D01*
X9052872Y-44160290D01*
X9031315Y-44231355D01*
X9024036Y-44305260D01*
X2370137Y-44305260D01*
X2341868Y-43294652D01*
X2331717Y-41736453D01*
X2331193Y-41725727D01*
X2234673Y-40669087D01*
X2229989Y-40644635D01*
X2220625Y-40621567D01*
X2206940Y-40600769D01*
X2189461Y-40583041D01*
X2168859Y-40569063D01*
X2145926Y-40559373D01*
X2121543Y-40554343D01*
X2106596Y-40553650D01*
X-8754444Y-40690810D01*
X-8756838Y-40690863D01*
X-9397984Y-40711057D01*
X-10032747Y-40690905D01*
X-10417485Y-40670656D01*
X-10425853Y-40670491D01*
X-10806853Y-40675571D01*
X-10821194Y-40676576D01*
X-11368256Y-40746202D01*
X-11955879Y-40711343D01*
X-11968377Y-40711218D01*
X-12486537Y-40731538D01*
X-12490450Y-40731752D01*
X-13065124Y-40772080D01*
X-14059846Y-40772080D01*
X-14339820Y-40764992D01*
X-14351000Y-40429589D01*
X-14351000Y-39916000D01*
X3637016Y-39916000D01*
X3644295Y-39989905D01*
X3665852Y-40060970D01*
X3700859Y-40126463D01*
X3747971Y-40183869D01*
X3805377Y-40230981D01*
X3870870Y-40265988D01*
X3941935Y-40287545D01*
X4015840Y-40294824D01*
X4698590Y-40293000D01*
X4792840Y-40198750D01*
X4792840Y-39139000D01*
X4838840Y-39139000D01*
X4838840Y-40198750D01*
X4933090Y-40293000D01*
X5615840Y-40294824D01*
X5689745Y-40287545D01*
X5760810Y-40265988D01*
X5826303Y-40230981D01*
X5883709Y-40183869D01*
X5930821Y-40126463D01*
X5965828Y-40060970D01*
X5987385Y-39989905D01*
X5994664Y-39916000D01*
X5992840Y-39233250D01*
X5898590Y-39139000D01*
X4838840Y-39139000D01*
X4792840Y-39139000D01*
X3733090Y-39139000D01*
X3638840Y-39233250D01*
X3637016Y-39916000D01*
X-14351000Y-39916000D01*
X-14351000Y-39827200D01*
X-14351028Y-39824555D01*
X-14361138Y-39339283D01*
X-14351019Y-38747331D01*
X-14351035Y-38742184D01*
X-14365304Y-38133380D01*
X-12923844Y-38133380D01*
X-12916565Y-38207285D01*
X-12895008Y-38278350D01*
X-12860001Y-38343843D01*
X-12812889Y-38401249D01*
X-12755483Y-38448361D01*
X-12689990Y-38483368D01*
X-12618925Y-38504925D01*
X-12545020Y-38512204D01*
X-12342270Y-38510380D01*
X-12248020Y-38416130D01*
X-12248020Y-37861380D01*
X-12202020Y-37861380D01*
X-12202020Y-38416130D01*
X-12107770Y-38510380D01*
X-11905020Y-38512204D01*
X-11831115Y-38504925D01*
X-11760050Y-38483368D01*
X-11694557Y-38448361D01*
X-11637151Y-38401249D01*
X-11590039Y-38343843D01*
X-11555032Y-38278350D01*
X-11533475Y-38207285D01*
X-11526196Y-38133380D01*
X-11528020Y-37955630D01*
X-11622270Y-37861380D01*
X-12202020Y-37861380D01*
X-12248020Y-37861380D01*
X-12827770Y-37861380D01*
X-12922020Y-37955630D01*
X-12923844Y-38133380D01*
X-14365304Y-38133380D01*
X-14371620Y-37863908D01*
X-14349844Y-37849358D01*
X-14314814Y-37814328D01*
X-13993949Y-37642743D01*
X-12922844Y-37640806D01*
X-12922020Y-37721130D01*
X-12827770Y-37815380D01*
X-12248020Y-37815380D01*
X-12248020Y-37795380D01*
X-12202020Y-37795380D01*
X-12202020Y-37815380D01*
X-11622270Y-37815380D01*
X-11528020Y-37721130D01*
X-11527170Y-37638282D01*
X-11343640Y-37637950D01*
X-11343640Y-38577520D01*
X-11341200Y-38602296D01*
X-11333973Y-38626121D01*
X-11322237Y-38648077D01*
X-11306443Y-38667323D01*
X-11287197Y-38683117D01*
X-11265241Y-38694853D01*
X-11241416Y-38702080D01*
X-11212631Y-38704457D01*
X-8802485Y-38628347D01*
X-6905418Y-38653709D01*
X-6902905Y-38653717D01*
X-2945585Y-38628317D01*
X-2920825Y-38625718D01*
X-2897047Y-38618338D01*
X-2875166Y-38606462D01*
X-2856023Y-38590544D01*
X-2840353Y-38571198D01*
X-2828758Y-38549167D01*
X-2821684Y-38525296D01*
X-2819443Y-38504614D01*
X-2814550Y-38316000D01*
X3637016Y-38316000D01*
X3638840Y-38998750D01*
X3733090Y-39093000D01*
X4792840Y-39093000D01*
X4792840Y-38033250D01*
X4838840Y-38033250D01*
X4838840Y-39093000D01*
X5898590Y-39093000D01*
X5992840Y-38998750D01*
X5994664Y-38316000D01*
X5987385Y-38242095D01*
X5965828Y-38171030D01*
X5930821Y-38105537D01*
X5883709Y-38048131D01*
X5826303Y-38001019D01*
X5760810Y-37966012D01*
X5689745Y-37944455D01*
X5615840Y-37937176D01*
X4933090Y-37939000D01*
X4838840Y-38033250D01*
X4792840Y-38033250D01*
X4698590Y-37939000D01*
X4015840Y-37937176D01*
X3941935Y-37944455D01*
X3870870Y-37966012D01*
X3805377Y-38001019D01*
X3747971Y-38048131D01*
X3700859Y-38105537D01*
X3665852Y-38171030D01*
X3644295Y-38242095D01*
X3637016Y-38316000D01*
X-2814550Y-38316000D01*
X-2769412Y-36576158D01*
X-2735583Y-36603921D01*
X-2670090Y-36638928D01*
X-2599025Y-36660485D01*
X-2525120Y-36667764D01*
X-2347370Y-36665940D01*
X-2253120Y-36571690D01*
X-2253120Y-35991940D01*
X-2273120Y-35991940D01*
X-2273120Y-35945940D01*
X-2253120Y-35945940D01*
X-2253120Y-34920060D01*
X-2273120Y-34920060D01*
X-2273120Y-34874060D01*
X-2253120Y-34874060D01*
X-2253120Y-34854060D01*
X-2207120Y-34854060D01*
X-2207120Y-34874060D01*
X-2187120Y-34874060D01*
X-2187120Y-34920060D01*
X-2207120Y-34920060D01*
X-2207120Y-35945940D01*
X-2187120Y-35945940D01*
X-2187120Y-35991940D01*
X-2207120Y-35991940D01*
X-2207120Y-36571690D01*
X-2112870Y-36665940D01*
X-1998991Y-36667109D01*
X-1991853Y-36690641D01*
X-1980117Y-36712597D01*
X-1964323Y-36731843D01*
X-1945077Y-36747637D01*
X-1923121Y-36759373D01*
X-1899296Y-36766600D01*
X-1874443Y-36769040D01*
X2324177Y-36766500D01*
X2348952Y-36764045D01*
X2372772Y-36756803D01*
X2394721Y-36745054D01*
X2413957Y-36729248D01*
X2429739Y-36709994D01*
X2441462Y-36688030D01*
X2448675Y-36664201D01*
X2451091Y-36641018D01*
X2515459Y-31257140D01*
X3601576Y-31257140D01*
X3608855Y-31331045D01*
X3630412Y-31402110D01*
X3665419Y-31467603D01*
X3712531Y-31525009D01*
X3769937Y-31572121D01*
X3835430Y-31607128D01*
X3906495Y-31628685D01*
X3980400Y-31635964D01*
X4663150Y-31634140D01*
X4757400Y-31539890D01*
X4757400Y-30480140D01*
X4803400Y-30480140D01*
X4803400Y-31539890D01*
X4897650Y-31634140D01*
X5580400Y-31635964D01*
X5654305Y-31628685D01*
X5725370Y-31607128D01*
X5790863Y-31572121D01*
X5848269Y-31525009D01*
X5895381Y-31467603D01*
X5930388Y-31402110D01*
X5951945Y-31331045D01*
X5959224Y-31257140D01*
X5957400Y-30574390D01*
X5863150Y-30480140D01*
X4803400Y-30480140D01*
X4757400Y-30480140D01*
X3697650Y-30480140D01*
X3603400Y-30574390D01*
X3601576Y-31257140D01*
X2515459Y-31257140D01*
X2534588Y-29657140D01*
X3601576Y-29657140D01*
X3603400Y-30339890D01*
X3697650Y-30434140D01*
X4757400Y-30434140D01*
X4757400Y-29374390D01*
X4803400Y-29374390D01*
X4803400Y-30434140D01*
X5863150Y-30434140D01*
X5957400Y-30339890D01*
X5959224Y-29657140D01*
X5951945Y-29583235D01*
X5930388Y-29512170D01*
X5895381Y-29446677D01*
X5848269Y-29389271D01*
X5790863Y-29342159D01*
X5725370Y-29307152D01*
X5654305Y-29285595D01*
X5580400Y-29278316D01*
X4897650Y-29280140D01*
X4803400Y-29374390D01*
X4757400Y-29374390D01*
X4663150Y-29280140D01*
X3980400Y-29278316D01*
X3906495Y-29285595D01*
X3835430Y-29307152D01*
X3769937Y-29342159D01*
X3712531Y-29389271D01*
X3665419Y-29446677D01*
X3630412Y-29512170D01*
X3608855Y-29583235D01*
X3601576Y-29657140D01*
X2534588Y-29657140D01*
X2618982Y-22598280D01*
X3560936Y-22598280D01*
X3568215Y-22672185D01*
X3589772Y-22743250D01*
X3624779Y-22808743D01*
X3671891Y-22866149D01*
X3729297Y-22913261D01*
X3794790Y-22948268D01*
X3865855Y-22969825D01*
X3939760Y-22977104D01*
X4622510Y-22975280D01*
X4716760Y-22881030D01*
X4716760Y-21821280D01*
X4762760Y-21821280D01*
X4762760Y-22881030D01*
X4857010Y-22975280D01*
X5539760Y-22977104D01*
X5613665Y-22969825D01*
X5684730Y-22948268D01*
X5750223Y-22913261D01*
X5807629Y-22866149D01*
X5854741Y-22808743D01*
X5889748Y-22743250D01*
X5911305Y-22672185D01*
X5918584Y-22598280D01*
X5916760Y-21915530D01*
X5822510Y-21821280D01*
X4762760Y-21821280D01*
X4716760Y-21821280D01*
X3657010Y-21821280D01*
X3562760Y-21915530D01*
X3560936Y-22598280D01*
X2618982Y-22598280D01*
X2638111Y-20998280D01*
X3560936Y-20998280D01*
X3562760Y-21681030D01*
X3657010Y-21775280D01*
X4716760Y-21775280D01*
X4716760Y-20715530D01*
X4762760Y-20715530D01*
X4762760Y-21775280D01*
X5822510Y-21775280D01*
X5916760Y-21681030D01*
X5918584Y-20998280D01*
X5911305Y-20924375D01*
X5889748Y-20853310D01*
X5854741Y-20787817D01*
X5807629Y-20730411D01*
X5750223Y-20683299D01*
X5684730Y-20648292D01*
X5613665Y-20626735D01*
X5539760Y-20619456D01*
X4857010Y-20621280D01*
X4762760Y-20715530D01*
X4716760Y-20715530D01*
X4622510Y-20621280D01*
X3939760Y-20619456D01*
X3865855Y-20626735D01*
X3794790Y-20648292D01*
X3729297Y-20683299D01*
X3671891Y-20730411D01*
X3624779Y-20787817D01*
X3589772Y-20853310D01*
X3568215Y-20924375D01*
X3560936Y-20998280D01*
X2638111Y-20998280D01*
X2718814Y-14248229D01*
X5980209Y-14283602D01*
G37*
G04 #@! TD.AperFunction*
D26*
X-17664050Y-35433660D02*
X-17159300Y-35433660D01*
X-17159300Y-35413660D01*
X-17013300Y-35413660D01*
X-17013300Y-35433660D01*
X-16993300Y-35433660D01*
X-16993300Y-35579660D01*
X-17013300Y-35579660D01*
X-17013300Y-36109410D01*
X-16919050Y-36203660D01*
X-16791300Y-36205484D01*
X-16717395Y-36198205D01*
X-16687094Y-36189013D01*
X-16689728Y-36192223D01*
X-16733722Y-36274531D01*
X-16760814Y-36363841D01*
X-16769962Y-36456720D01*
X-16769962Y-36751720D01*
X-16760814Y-36844599D01*
X-16733722Y-36933909D01*
X-16689728Y-37016217D01*
X-16630521Y-37088361D01*
X-16629474Y-37089220D01*
X-16630521Y-37090079D01*
X-16689728Y-37162223D01*
X-16733722Y-37244531D01*
X-16760814Y-37333841D01*
X-16769962Y-37426720D01*
X-16769962Y-37721720D01*
X-16760814Y-37814599D01*
X-16733722Y-37903909D01*
X-16689728Y-37986217D01*
X-16630521Y-38058361D01*
X-16558377Y-38117568D01*
X-16476069Y-38161562D01*
X-16386759Y-38188654D01*
X-16293880Y-38197802D01*
X-16243087Y-38197802D01*
X-15053377Y-39387513D01*
X-15052040Y-39629420D01*
X-15052040Y-41325800D01*
X-15049600Y-41350576D01*
X-15042373Y-41374401D01*
X-15030637Y-41396357D01*
X-15014843Y-41415603D01*
X-14995597Y-41431397D01*
X-14973641Y-41443133D01*
X-14949816Y-41450360D01*
X-14925829Y-41452798D01*
X-13290069Y-41462958D01*
X-13286083Y-41462920D01*
X-11875432Y-41427400D01*
X-9702800Y-41427400D01*
X-9697585Y-41427293D01*
X-8588454Y-41381712D01*
X-7773978Y-41391830D01*
X-7763243Y-41391509D01*
X-7346182Y-41361360D01*
X-7012395Y-41361360D01*
X-6211777Y-41386696D01*
X-6207760Y-41386760D01*
X-5481320Y-41386760D01*
X-5477426Y-41386700D01*
X-4652320Y-41361390D01*
X-3679904Y-41376584D01*
X-3677920Y-41376600D01*
X-193049Y-41376600D01*
X1475086Y-41381339D01*
X1529080Y-42335231D01*
X1529080Y-44775120D01*
X1529163Y-44779707D01*
X1574800Y-46042331D01*
X1574800Y-47348200D01*
X1529176Y-48519216D01*
X1529080Y-48524160D01*
X1529080Y-49563359D01*
X1488516Y-50734644D01*
X1488490Y-50735481D01*
X1458055Y-51821005D01*
X1422578Y-52489995D01*
X1422411Y-52495056D01*
X1407171Y-53658376D01*
X1409286Y-53683183D01*
X1416201Y-53707100D01*
X1427648Y-53729208D01*
X1443189Y-53748659D01*
X1462225Y-53764703D01*
X1484026Y-53776726D01*
X1507754Y-53784264D01*
X1536991Y-53787008D01*
X3130191Y-53751491D01*
X5084090Y-53766716D01*
X7471583Y-53787035D01*
X9823623Y-53807355D01*
X9825500Y-53807358D01*
X13131551Y-53787044D01*
X15071030Y-53807353D01*
X15077988Y-53807235D01*
X16333905Y-53751529D01*
X19545633Y-53807341D01*
X19570449Y-53805331D01*
X19594395Y-53798519D01*
X19598001Y-53796672D01*
X19598001Y-55349730D01*
X19390062Y-55038527D01*
X18961473Y-54609938D01*
X18457506Y-54273198D01*
X17897528Y-54041248D01*
X17303058Y-53923000D01*
X16696942Y-53923000D01*
X16102472Y-54041248D01*
X15542494Y-54273198D01*
X15038527Y-54609938D01*
X14609938Y-55038527D01*
X14273198Y-55542494D01*
X14041248Y-56102472D01*
X13923000Y-56696942D01*
X13923000Y-57303058D01*
X14041248Y-57897528D01*
X14273198Y-58457506D01*
X14609938Y-58961473D01*
X15038527Y-59390062D01*
X15349728Y-59598000D01*
X-12430888Y-59598000D01*
X-12415085Y-59591454D01*
X-12230499Y-59468118D01*
X-12073522Y-59311141D01*
X-11950186Y-59126555D01*
X-11865230Y-58921454D01*
X-11821920Y-58703720D01*
X-11821920Y-58481720D01*
X-11865230Y-58263986D01*
X-11950186Y-58058885D01*
X-12073522Y-57874299D01*
X-12230499Y-57717322D01*
X-12415085Y-57593986D01*
X-12620186Y-57509030D01*
X-12837920Y-57465720D01*
X-13059920Y-57465720D01*
X-13277654Y-57509030D01*
X-13482755Y-57593986D01*
X-13667341Y-57717322D01*
X-13824318Y-57874299D01*
X-13947654Y-58058885D01*
X-14032610Y-58263986D01*
X-14075920Y-58481720D01*
X-14075920Y-58703720D01*
X-14032610Y-58921454D01*
X-13947654Y-59126555D01*
X-13824318Y-59311141D01*
X-13667341Y-59468118D01*
X-13482755Y-59591454D01*
X-13466952Y-59598000D01*
X-15349728Y-59598000D01*
X-15038527Y-59390062D01*
X-14609938Y-58961473D01*
X-14273198Y-58457506D01*
X-14041248Y-57897528D01*
X-13923000Y-57303058D01*
X-13923000Y-57279000D01*
X10913000Y-57279000D01*
X10913000Y-57501000D01*
X10956310Y-57718734D01*
X11041266Y-57923835D01*
X11164602Y-58108421D01*
X11321579Y-58265398D01*
X11506165Y-58388734D01*
X11711266Y-58473690D01*
X11929000Y-58517000D01*
X12151000Y-58517000D01*
X12368734Y-58473690D01*
X12573835Y-58388734D01*
X12758421Y-58265398D01*
X12915398Y-58108421D01*
X13038734Y-57923835D01*
X13123690Y-57718734D01*
X13167000Y-57501000D01*
X13167000Y-57279000D01*
X13123690Y-57061266D01*
X13038734Y-56856165D01*
X12915398Y-56671579D01*
X12758421Y-56514602D01*
X12573835Y-56391266D01*
X12368734Y-56306310D01*
X12151000Y-56263000D01*
X11929000Y-56263000D01*
X11711266Y-56306310D01*
X11506165Y-56391266D01*
X11321579Y-56514602D01*
X11164602Y-56671579D01*
X11041266Y-56856165D01*
X10956310Y-57061266D01*
X10913000Y-57279000D01*
X-13923000Y-57279000D01*
X-13923000Y-56696942D01*
X-14041248Y-56102472D01*
X-14273198Y-55542494D01*
X-14609938Y-55038527D01*
X-15038527Y-54609938D01*
X-15542494Y-54273198D01*
X-16102472Y-54041248D01*
X-16696942Y-53923000D01*
X-17303058Y-53923000D01*
X-17897528Y-54041248D01*
X-18457506Y-54273198D01*
X-18961473Y-54609938D01*
X-19390062Y-55038527D01*
X-19598000Y-55349728D01*
X-19598000Y-35803587D01*
X-19469847Y-35931740D01*
X-19293451Y-36049605D01*
X-19097449Y-36130791D01*
X-18889375Y-36172180D01*
X-18677225Y-36172180D01*
X-18469151Y-36130791D01*
X-18273149Y-36049605D01*
X-18096753Y-35931740D01*
X-17991673Y-35826660D01*
X-17760124Y-35826660D01*
X-17752845Y-35900565D01*
X-17731288Y-35971630D01*
X-17696281Y-36037123D01*
X-17649169Y-36094529D01*
X-17591763Y-36141641D01*
X-17526270Y-36176648D01*
X-17455205Y-36198205D01*
X-17381300Y-36205484D01*
X-17253550Y-36203660D01*
X-17159300Y-36109410D01*
X-17159300Y-35579660D01*
X-17664050Y-35579660D01*
X-17758300Y-35673910D01*
X-17760124Y-35826660D01*
X-17991673Y-35826660D01*
X-17946740Y-35781727D01*
X-17828875Y-35605331D01*
X-17747689Y-35409329D01*
X-17737849Y-35359861D01*
X-17664050Y-35433660D01*
G04 #@! TA.AperFunction,Conductor*
D27*
G36*
X-17664050Y-35433660D02*
G01*
X-17159300Y-35433660D01*
X-17159300Y-35413660D01*
X-17013300Y-35413660D01*
X-17013300Y-35433660D01*
X-16993300Y-35433660D01*
X-16993300Y-35579660D01*
X-17013300Y-35579660D01*
X-17013300Y-36109410D01*
X-16919050Y-36203660D01*
X-16791300Y-36205484D01*
X-16717395Y-36198205D01*
X-16687094Y-36189013D01*
X-16689728Y-36192223D01*
X-16733722Y-36274531D01*
X-16760814Y-36363841D01*
X-16769962Y-36456720D01*
X-16769962Y-36751720D01*
X-16760814Y-36844599D01*
X-16733722Y-36933909D01*
X-16689728Y-37016217D01*
X-16630521Y-37088361D01*
X-16629474Y-37089220D01*
X-16630521Y-37090079D01*
X-16689728Y-37162223D01*
X-16733722Y-37244531D01*
X-16760814Y-37333841D01*
X-16769962Y-37426720D01*
X-16769962Y-37721720D01*
X-16760814Y-37814599D01*
X-16733722Y-37903909D01*
X-16689728Y-37986217D01*
X-16630521Y-38058361D01*
X-16558377Y-38117568D01*
X-16476069Y-38161562D01*
X-16386759Y-38188654D01*
X-16293880Y-38197802D01*
X-16243087Y-38197802D01*
X-15053377Y-39387513D01*
X-15052040Y-39629420D01*
X-15052040Y-41325800D01*
X-15049600Y-41350576D01*
X-15042373Y-41374401D01*
X-15030637Y-41396357D01*
X-15014843Y-41415603D01*
X-14995597Y-41431397D01*
X-14973641Y-41443133D01*
X-14949816Y-41450360D01*
X-14925829Y-41452798D01*
X-13290069Y-41462958D01*
X-13286083Y-41462920D01*
X-11875432Y-41427400D01*
X-9702800Y-41427400D01*
X-9697585Y-41427293D01*
X-8588454Y-41381712D01*
X-7773978Y-41391830D01*
X-7763243Y-41391509D01*
X-7346182Y-41361360D01*
X-7012395Y-41361360D01*
X-6211777Y-41386696D01*
X-6207760Y-41386760D01*
X-5481320Y-41386760D01*
X-5477426Y-41386700D01*
X-4652320Y-41361390D01*
X-3679904Y-41376584D01*
X-3677920Y-41376600D01*
X-193049Y-41376600D01*
X1475086Y-41381339D01*
X1529080Y-42335231D01*
X1529080Y-44775120D01*
X1529163Y-44779707D01*
X1574800Y-46042331D01*
X1574800Y-47348200D01*
X1529176Y-48519216D01*
X1529080Y-48524160D01*
X1529080Y-49563359D01*
X1488516Y-50734644D01*
X1488490Y-50735481D01*
X1458055Y-51821005D01*
X1422578Y-52489995D01*
X1422411Y-52495056D01*
X1407171Y-53658376D01*
X1409286Y-53683183D01*
X1416201Y-53707100D01*
X1427648Y-53729208D01*
X1443189Y-53748659D01*
X1462225Y-53764703D01*
X1484026Y-53776726D01*
X1507754Y-53784264D01*
X1536991Y-53787008D01*
X3130191Y-53751491D01*
X5084090Y-53766716D01*
X7471583Y-53787035D01*
X9823623Y-53807355D01*
X9825500Y-53807358D01*
X13131551Y-53787044D01*
X15071030Y-53807353D01*
X15077988Y-53807235D01*
X16333905Y-53751529D01*
X19545633Y-53807341D01*
X19570449Y-53805331D01*
X19594395Y-53798519D01*
X19598001Y-53796672D01*
X19598001Y-55349730D01*
X19390062Y-55038527D01*
X18961473Y-54609938D01*
X18457506Y-54273198D01*
X17897528Y-54041248D01*
X17303058Y-53923000D01*
X16696942Y-53923000D01*
X16102472Y-54041248D01*
X15542494Y-54273198D01*
X15038527Y-54609938D01*
X14609938Y-55038527D01*
X14273198Y-55542494D01*
X14041248Y-56102472D01*
X13923000Y-56696942D01*
X13923000Y-57303058D01*
X14041248Y-57897528D01*
X14273198Y-58457506D01*
X14609938Y-58961473D01*
X15038527Y-59390062D01*
X15349728Y-59598000D01*
X-12430888Y-59598000D01*
X-12415085Y-59591454D01*
X-12230499Y-59468118D01*
X-12073522Y-59311141D01*
X-11950186Y-59126555D01*
X-11865230Y-58921454D01*
X-11821920Y-58703720D01*
X-11821920Y-58481720D01*
X-11865230Y-58263986D01*
X-11950186Y-58058885D01*
X-12073522Y-57874299D01*
X-12230499Y-57717322D01*
X-12415085Y-57593986D01*
X-12620186Y-57509030D01*
X-12837920Y-57465720D01*
X-13059920Y-57465720D01*
X-13277654Y-57509030D01*
X-13482755Y-57593986D01*
X-13667341Y-57717322D01*
X-13824318Y-57874299D01*
X-13947654Y-58058885D01*
X-14032610Y-58263986D01*
X-14075920Y-58481720D01*
X-14075920Y-58703720D01*
X-14032610Y-58921454D01*
X-13947654Y-59126555D01*
X-13824318Y-59311141D01*
X-13667341Y-59468118D01*
X-13482755Y-59591454D01*
X-13466952Y-59598000D01*
X-15349728Y-59598000D01*
X-15038527Y-59390062D01*
X-14609938Y-58961473D01*
X-14273198Y-58457506D01*
X-14041248Y-57897528D01*
X-13923000Y-57303058D01*
X-13923000Y-57279000D01*
X10913000Y-57279000D01*
X10913000Y-57501000D01*
X10956310Y-57718734D01*
X11041266Y-57923835D01*
X11164602Y-58108421D01*
X11321579Y-58265398D01*
X11506165Y-58388734D01*
X11711266Y-58473690D01*
X11929000Y-58517000D01*
X12151000Y-58517000D01*
X12368734Y-58473690D01*
X12573835Y-58388734D01*
X12758421Y-58265398D01*
X12915398Y-58108421D01*
X13038734Y-57923835D01*
X13123690Y-57718734D01*
X13167000Y-57501000D01*
X13167000Y-57279000D01*
X13123690Y-57061266D01*
X13038734Y-56856165D01*
X12915398Y-56671579D01*
X12758421Y-56514602D01*
X12573835Y-56391266D01*
X12368734Y-56306310D01*
X12151000Y-56263000D01*
X11929000Y-56263000D01*
X11711266Y-56306310D01*
X11506165Y-56391266D01*
X11321579Y-56514602D01*
X11164602Y-56671579D01*
X11041266Y-56856165D01*
X10956310Y-57061266D01*
X10913000Y-57279000D01*
X-13923000Y-57279000D01*
X-13923000Y-56696942D01*
X-14041248Y-56102472D01*
X-14273198Y-55542494D01*
X-14609938Y-55038527D01*
X-15038527Y-54609938D01*
X-15542494Y-54273198D01*
X-16102472Y-54041248D01*
X-16696942Y-53923000D01*
X-17303058Y-53923000D01*
X-17897528Y-54041248D01*
X-18457506Y-54273198D01*
X-18961473Y-54609938D01*
X-19390062Y-55038527D01*
X-19598000Y-55349728D01*
X-19598000Y-35803587D01*
X-19469847Y-35931740D01*
X-19293451Y-36049605D01*
X-19097449Y-36130791D01*
X-18889375Y-36172180D01*
X-18677225Y-36172180D01*
X-18469151Y-36130791D01*
X-18273149Y-36049605D01*
X-18096753Y-35931740D01*
X-17991673Y-35826660D01*
X-17760124Y-35826660D01*
X-17752845Y-35900565D01*
X-17731288Y-35971630D01*
X-17696281Y-36037123D01*
X-17649169Y-36094529D01*
X-17591763Y-36141641D01*
X-17526270Y-36176648D01*
X-17455205Y-36198205D01*
X-17381300Y-36205484D01*
X-17253550Y-36203660D01*
X-17159300Y-36109410D01*
X-17159300Y-35579660D01*
X-17664050Y-35579660D01*
X-17758300Y-35673910D01*
X-17760124Y-35826660D01*
X-17991673Y-35826660D01*
X-17946740Y-35781727D01*
X-17828875Y-35605331D01*
X-17747689Y-35409329D01*
X-17737849Y-35359861D01*
X-17664050Y-35433660D01*
G37*
G04 #@! TD.AperFunction*
D26*
X17504242Y4546631D02*
X17989286Y4400188D01*
X18436642Y4162326D01*
X18829282Y3842096D01*
X19152241Y3451706D01*
X19393222Y3006020D01*
X19543048Y2522013D01*
X19598000Y1999180D01*
X19598000Y1999173D01*
X19598001Y-48685998D01*
X15072005Y-48622481D01*
X15082395Y-48022034D01*
X15087717Y-48023648D01*
X15151820Y-48029962D01*
X19051820Y-48029962D01*
X19115923Y-48023648D01*
X19177563Y-48004950D01*
X19234370Y-47974586D01*
X19284163Y-47933723D01*
X19325026Y-47883930D01*
X19355390Y-47827123D01*
X19374088Y-47765483D01*
X19380402Y-47701380D01*
X19380402Y-45501380D01*
X19374088Y-45437277D01*
X19355390Y-45375637D01*
X19325026Y-45318830D01*
X19284163Y-45269037D01*
X19234370Y-45228174D01*
X19177563Y-45197810D01*
X19115923Y-45179112D01*
X19051820Y-45172798D01*
X15151820Y-45172798D01*
X15120768Y-45175857D01*
X15110582Y-45155980D01*
X15095123Y-45136465D01*
X15076154Y-45120340D01*
X15054403Y-45108226D01*
X15030708Y-45100588D01*
X15005493Y-45097712D01*
X11219559Y-45046633D01*
X11255202Y-44979949D01*
X11282294Y-44890639D01*
X11291442Y-44797760D01*
X11291442Y-44452760D01*
X11282294Y-44359881D01*
X11255202Y-44270571D01*
X11211208Y-44188263D01*
X11194860Y-44168343D01*
X11194860Y-44125820D01*
X11322438Y-44125820D01*
X11322438Y-44226880D01*
X11328752Y-44290983D01*
X11347450Y-44352623D01*
X11377814Y-44409430D01*
X11418677Y-44459223D01*
X11468470Y-44500086D01*
X11525277Y-44530450D01*
X11586917Y-44549148D01*
X11651020Y-44555462D01*
X12301020Y-44555462D01*
X12365123Y-44549148D01*
X12426763Y-44530450D01*
X12483570Y-44500086D01*
X12533363Y-44459223D01*
X12574226Y-44409430D01*
X12604590Y-44352623D01*
X12623288Y-44290983D01*
X12629602Y-44226880D01*
X12629602Y-43006880D01*
X12623288Y-42942777D01*
X12604590Y-42881137D01*
X12574226Y-42824330D01*
X12533363Y-42774537D01*
X12483570Y-42733674D01*
X12482780Y-42733252D01*
X12482780Y-42390657D01*
X12555730Y-42281480D01*
X12606764Y-42158274D01*
X12632780Y-42027479D01*
X12632780Y-41894121D01*
X12606764Y-41763326D01*
X12555730Y-41640120D01*
X12481640Y-41529237D01*
X12387343Y-41434940D01*
X12276460Y-41360850D01*
X12153254Y-41309816D01*
X12022459Y-41283800D01*
X11889101Y-41283800D01*
X11758306Y-41309816D01*
X11635100Y-41360850D01*
X11524217Y-41434940D01*
X11429920Y-41529237D01*
X11355830Y-41640120D01*
X11304796Y-41763326D01*
X11278780Y-41894121D01*
X11278780Y-42027479D01*
X11302337Y-42145912D01*
X11290281Y-42123357D01*
X11243169Y-42065951D01*
X11185763Y-42018839D01*
X11120270Y-41983832D01*
X11049205Y-41962275D01*
X10975300Y-41954996D01*
X10822550Y-41956820D01*
X10728300Y-42051070D01*
X10728300Y-42555820D01*
X11258050Y-42555820D01*
X11352300Y-42461570D01*
X11354124Y-42333820D01*
X11346845Y-42259915D01*
X11346702Y-42259442D01*
X11355830Y-42281480D01*
X11428780Y-42390657D01*
X11428780Y-42766245D01*
X11418677Y-42774537D01*
X11377814Y-42824330D01*
X11353357Y-42870086D01*
X11352300Y-42796070D01*
X11258050Y-42701820D01*
X10728300Y-42701820D01*
X10728300Y-42721820D01*
X10582300Y-42721820D01*
X10582300Y-42701820D01*
X10052550Y-42701820D01*
X9958300Y-42796070D01*
X9956476Y-42923820D01*
X9963755Y-42997725D01*
X9985312Y-43068790D01*
X10020319Y-43134283D01*
X10067431Y-43191689D01*
X10079192Y-43201341D01*
X10042958Y-43269131D01*
X10030008Y-43311820D01*
X6928730Y-43163067D01*
X6926055Y-42333820D01*
X9956476Y-42333820D01*
X9958300Y-42461570D01*
X10052550Y-42555820D01*
X10582300Y-42555820D01*
X10582300Y-42051070D01*
X10488050Y-41956820D01*
X10335300Y-41954996D01*
X10261395Y-41962275D01*
X10190330Y-41983832D01*
X10124837Y-42018839D01*
X10067431Y-42065951D01*
X10020319Y-42123357D01*
X9985312Y-42188850D01*
X9963755Y-42259915D01*
X9956476Y-42333820D01*
X6926055Y-42333820D01*
X6918317Y-39935533D01*
X7599545Y-39935533D01*
X7681053Y-40113904D01*
X7887932Y-40218571D01*
X8111256Y-40280866D01*
X8342441Y-40298396D01*
X8572603Y-40270488D01*
X8792899Y-40198212D01*
X8950627Y-40113904D01*
X9032135Y-39935533D01*
X8315840Y-39219238D01*
X7599545Y-39935533D01*
X6918317Y-39935533D01*
X6915758Y-39142601D01*
X7133444Y-39142601D01*
X7161352Y-39372763D01*
X7233628Y-39593059D01*
X7317936Y-39750787D01*
X7496307Y-39832295D01*
X8212602Y-39116000D01*
X8419078Y-39116000D01*
X9135373Y-39832295D01*
X9313744Y-39750787D01*
X9418411Y-39543908D01*
X9480706Y-39320584D01*
X9498236Y-39089399D01*
X9470328Y-38859237D01*
X9398052Y-38638941D01*
X9313744Y-38481213D01*
X9135373Y-38399705D01*
X8419078Y-39116000D01*
X8212602Y-39116000D01*
X7496307Y-38399705D01*
X7317936Y-38481213D01*
X7213269Y-38688092D01*
X7150974Y-38911416D01*
X7133444Y-39142601D01*
X6915758Y-39142601D01*
X6913028Y-38296467D01*
X7599545Y-38296467D01*
X8315840Y-39012762D01*
X9032135Y-38296467D01*
X8950627Y-38118096D01*
X8743748Y-38013429D01*
X8520424Y-37951134D01*
X8289239Y-37933604D01*
X8059077Y-37961512D01*
X7838781Y-38033788D01*
X7681053Y-38118096D01*
X7599545Y-38296467D01*
X6913028Y-38296467D01*
X6901689Y-34781873D01*
X12006565Y-34781873D01*
X12088073Y-34960244D01*
X12294952Y-35064911D01*
X12518276Y-35127206D01*
X12749461Y-35144736D01*
X12979623Y-35116828D01*
X13199919Y-35044552D01*
X13357647Y-34960244D01*
X13439155Y-34781873D01*
X12722860Y-34065578D01*
X12006565Y-34781873D01*
X6901689Y-34781873D01*
X6899130Y-33988941D01*
X11540464Y-33988941D01*
X11568372Y-34219103D01*
X11640648Y-34439399D01*
X11724956Y-34597127D01*
X11903327Y-34678635D01*
X12619622Y-33962340D01*
X12826098Y-33962340D01*
X13542393Y-34678635D01*
X13720764Y-34597127D01*
X13825431Y-34390248D01*
X13887726Y-34166924D01*
X13905256Y-33935739D01*
X13877348Y-33705577D01*
X13805072Y-33485281D01*
X13720764Y-33327553D01*
X13542393Y-33246045D01*
X12826098Y-33962340D01*
X12619622Y-33962340D01*
X11903327Y-33246045D01*
X11724956Y-33327553D01*
X11620289Y-33534432D01*
X11557994Y-33757756D01*
X11540464Y-33988941D01*
X6899130Y-33988941D01*
X6896400Y-33142807D01*
X12006565Y-33142807D01*
X12722860Y-33859102D01*
X13439155Y-33142807D01*
X13357647Y-32964436D01*
X13150768Y-32859769D01*
X12927444Y-32797474D01*
X12696259Y-32779944D01*
X12466097Y-32807852D01*
X12245801Y-32880128D01*
X12088073Y-32964436D01*
X12006565Y-33142807D01*
X6896400Y-33142807D01*
X6890378Y-31276673D01*
X7564105Y-31276673D01*
X7645613Y-31455044D01*
X7852492Y-31559711D01*
X8075816Y-31622006D01*
X8307001Y-31639536D01*
X8537163Y-31611628D01*
X8757459Y-31539352D01*
X8915187Y-31455044D01*
X8996695Y-31276673D01*
X8280400Y-30560378D01*
X7564105Y-31276673D01*
X6890378Y-31276673D01*
X6887819Y-30483741D01*
X7098004Y-30483741D01*
X7125912Y-30713903D01*
X7198188Y-30934199D01*
X7282496Y-31091927D01*
X7460867Y-31173435D01*
X8177162Y-30457140D01*
X8383638Y-30457140D01*
X9099933Y-31173435D01*
X9278304Y-31091927D01*
X9382971Y-30885048D01*
X9445266Y-30661724D01*
X9462796Y-30430539D01*
X9434888Y-30200377D01*
X9362612Y-29980081D01*
X9278304Y-29822353D01*
X9099933Y-29740845D01*
X8383638Y-30457140D01*
X8177162Y-30457140D01*
X7460867Y-29740845D01*
X7282496Y-29822353D01*
X7177829Y-30029232D01*
X7115534Y-30252556D01*
X7098004Y-30483741D01*
X6887819Y-30483741D01*
X6885089Y-29637607D01*
X7564105Y-29637607D01*
X8280400Y-30353902D01*
X8996695Y-29637607D01*
X8915187Y-29459236D01*
X8708308Y-29354569D01*
X8484984Y-29292274D01*
X8253799Y-29274744D01*
X8023637Y-29302652D01*
X7803341Y-29374928D01*
X7645613Y-29459236D01*
X7564105Y-29637607D01*
X6885089Y-29637607D01*
X6873798Y-26138253D01*
X11986245Y-26138253D01*
X12067753Y-26316624D01*
X12274632Y-26421291D01*
X12497956Y-26483586D01*
X12729141Y-26501116D01*
X12959303Y-26473208D01*
X13179599Y-26400932D01*
X13337327Y-26316624D01*
X13418835Y-26138253D01*
X12702540Y-25421958D01*
X11986245Y-26138253D01*
X6873798Y-26138253D01*
X6871239Y-25345321D01*
X11520144Y-25345321D01*
X11548052Y-25575483D01*
X11620328Y-25795779D01*
X11704636Y-25953507D01*
X11883007Y-26035015D01*
X12599302Y-25318720D01*
X12805778Y-25318720D01*
X13522073Y-26035015D01*
X13700444Y-25953507D01*
X13805111Y-25746628D01*
X13867406Y-25523304D01*
X13884936Y-25292119D01*
X13857028Y-25061957D01*
X13784752Y-24841661D01*
X13700444Y-24683933D01*
X13522073Y-24602425D01*
X12805778Y-25318720D01*
X12599302Y-25318720D01*
X11883007Y-24602425D01*
X11704636Y-24683933D01*
X11599969Y-24890812D01*
X11537674Y-25114136D01*
X11520144Y-25345321D01*
X6871239Y-25345321D01*
X6868509Y-24499187D01*
X11986245Y-24499187D01*
X12702540Y-25215482D01*
X13418835Y-24499187D01*
X13337327Y-24320816D01*
X13130448Y-24216149D01*
X12907124Y-24153854D01*
X12675939Y-24136324D01*
X12445777Y-24164232D01*
X12225481Y-24236508D01*
X12067753Y-24320816D01*
X11986245Y-24499187D01*
X6868509Y-24499187D01*
X6862438Y-22617813D01*
X7523465Y-22617813D01*
X7604973Y-22796184D01*
X7811852Y-22900851D01*
X8035176Y-22963146D01*
X8266361Y-22980676D01*
X8496523Y-22952768D01*
X8716819Y-22880492D01*
X8874547Y-22796184D01*
X8956055Y-22617813D01*
X8239760Y-21901518D01*
X7523465Y-22617813D01*
X6862438Y-22617813D01*
X6859879Y-21824881D01*
X7057364Y-21824881D01*
X7085272Y-22055043D01*
X7157548Y-22275339D01*
X7241856Y-22433067D01*
X7420227Y-22514575D01*
X8136522Y-21798280D01*
X8342998Y-21798280D01*
X9059293Y-22514575D01*
X9237664Y-22433067D01*
X9342331Y-22226188D01*
X9404626Y-22002864D01*
X9422156Y-21771679D01*
X9394248Y-21541517D01*
X9321972Y-21321221D01*
X9237664Y-21163493D01*
X9059293Y-21081985D01*
X8342998Y-21798280D01*
X8136522Y-21798280D01*
X7420227Y-21081985D01*
X7241856Y-21163493D01*
X7137189Y-21370372D01*
X7074894Y-21593696D01*
X7057364Y-21824881D01*
X6859879Y-21824881D01*
X6857149Y-20978747D01*
X7523465Y-20978747D01*
X8239760Y-21695042D01*
X8956055Y-20978747D01*
X8874547Y-20800376D01*
X8667668Y-20695709D01*
X8444344Y-20633414D01*
X8213159Y-20615884D01*
X7982997Y-20643792D01*
X7762701Y-20716068D01*
X7604973Y-20800376D01*
X7523465Y-20978747D01*
X6857149Y-20978747D01*
X6854177Y-20057442D01*
X10652796Y-20057442D01*
X10728284Y-20230697D01*
X10926648Y-20330374D01*
X11140647Y-20389436D01*
X11362057Y-20405614D01*
X11582368Y-20378286D01*
X11793115Y-20308502D01*
X11938676Y-20230697D01*
X12014164Y-20057442D01*
X11333480Y-19376758D01*
X10652796Y-20057442D01*
X6854177Y-20057442D01*
X6851739Y-19302097D01*
X10201386Y-19302097D01*
X10228714Y-19522408D01*
X10298498Y-19733155D01*
X10376303Y-19878716D01*
X10549558Y-19954204D01*
X11230242Y-19273520D01*
X11436718Y-19273520D01*
X12117402Y-19954204D01*
X12290657Y-19878716D01*
X12390334Y-19680352D01*
X12449396Y-19466353D01*
X12465574Y-19244943D01*
X12438246Y-19024632D01*
X12368462Y-18813885D01*
X12290657Y-18668324D01*
X12117402Y-18592836D01*
X11436718Y-19273520D01*
X11230242Y-19273520D01*
X10549558Y-18592836D01*
X10376303Y-18668324D01*
X10276626Y-18866688D01*
X10217564Y-19080687D01*
X10201386Y-19302097D01*
X6851739Y-19302097D01*
X6849118Y-18489598D01*
X10652796Y-18489598D01*
X11333480Y-19170282D01*
X12014164Y-18489598D01*
X11938676Y-18316343D01*
X11740312Y-18216666D01*
X11526313Y-18157604D01*
X11304903Y-18141426D01*
X11084592Y-18168754D01*
X10873845Y-18238538D01*
X10728284Y-18316343D01*
X10652796Y-18489598D01*
X6849118Y-18489598D01*
X6846042Y-17536160D01*
X11794385Y-17536160D01*
X11812283Y-17717884D01*
X11865290Y-17892624D01*
X11951369Y-18053665D01*
X12037866Y-18159062D01*
X12067211Y-18194819D01*
X12208365Y-18310661D01*
X12369406Y-18396740D01*
X12544146Y-18449747D01*
X12725870Y-18467645D01*
X12771407Y-18463160D01*
X15348785Y-18463160D01*
X15372181Y-18486556D01*
X15372180Y-19265884D01*
X15344755Y-19306929D01*
X15263569Y-19502931D01*
X15222180Y-19711005D01*
X15222180Y-19923155D01*
X15263569Y-20131229D01*
X15275541Y-20160132D01*
X15275540Y-24215822D01*
X15219990Y-24245514D01*
X15170197Y-24286377D01*
X15129334Y-24336170D01*
X15098970Y-24392977D01*
X15080272Y-24454617D01*
X15073958Y-24518720D01*
X15073958Y-26118720D01*
X15080272Y-26182823D01*
X15098970Y-26244463D01*
X15129334Y-26301270D01*
X15170197Y-26351063D01*
X15219990Y-26391926D01*
X15275540Y-26421618D01*
X15275541Y-32870303D01*
X15240310Y-32889134D01*
X15190517Y-32929997D01*
X15149654Y-32979790D01*
X15119290Y-33036597D01*
X15100592Y-33098237D01*
X15094278Y-33162340D01*
X15094278Y-34762340D01*
X15100592Y-34826443D01*
X15119290Y-34888083D01*
X15149654Y-34944890D01*
X15190517Y-34994683D01*
X15240310Y-35035546D01*
X15295860Y-35065238D01*
X15295861Y-40170200D01*
X15240847Y-40170200D01*
X15195320Y-40165716D01*
X15149793Y-40170200D01*
X15149782Y-40170200D01*
X15013596Y-40183613D01*
X14975795Y-40195080D01*
X14278647Y-40195080D01*
X14233120Y-40190596D01*
X14187593Y-40195080D01*
X14187582Y-40195080D01*
X14051396Y-40208493D01*
X13876656Y-40261500D01*
X13715615Y-40347578D01*
X13660609Y-40392721D01*
X13574461Y-40463421D01*
X13545432Y-40498793D01*
X13252733Y-40791492D01*
X13217361Y-40820521D01*
X13188333Y-40855892D01*
X13188332Y-40855893D01*
X13101519Y-40961675D01*
X13053570Y-41051381D01*
X13015440Y-41122717D01*
X12962433Y-41297457D01*
X12949020Y-41433643D01*
X12949020Y-41433653D01*
X12944536Y-41479180D01*
X12949020Y-41524708D01*
X12949021Y-43662418D01*
X12962434Y-43798604D01*
X13015441Y-43973344D01*
X13101520Y-44134385D01*
X13217362Y-44275539D01*
X13228099Y-44284350D01*
X13228752Y-44290983D01*
X13247450Y-44352623D01*
X13277814Y-44409430D01*
X13318677Y-44459223D01*
X13368470Y-44500086D01*
X13425277Y-44530450D01*
X13486917Y-44549148D01*
X13551020Y-44555462D01*
X14201020Y-44555462D01*
X14265123Y-44549148D01*
X14326763Y-44530450D01*
X14383570Y-44500086D01*
X14433363Y-44459223D01*
X14474226Y-44409430D01*
X14504590Y-44352623D01*
X14523288Y-44290983D01*
X14523941Y-44284351D01*
X14534679Y-44275539D01*
X14650521Y-44134385D01*
X14736600Y-43973344D01*
X14789607Y-43798604D01*
X14803020Y-43662418D01*
X14803020Y-42049080D01*
X15124913Y-42049080D01*
X15170440Y-42053564D01*
X15215967Y-42049080D01*
X15215978Y-42049080D01*
X15352164Y-42035667D01*
X15389965Y-42024200D01*
X15849793Y-42024200D01*
X15895320Y-42028684D01*
X15940847Y-42024200D01*
X17729293Y-42024200D01*
X17774820Y-42028684D01*
X17820347Y-42024200D01*
X17820358Y-42024200D01*
X17956544Y-42010787D01*
X18131284Y-41957780D01*
X18292325Y-41871701D01*
X18433479Y-41755859D01*
X18462508Y-41720487D01*
X18508328Y-41674667D01*
X18595141Y-41568885D01*
X18681219Y-41407844D01*
X18734226Y-41233103D01*
X18752124Y-41051381D01*
X18734226Y-40869657D01*
X18681219Y-40694917D01*
X18595141Y-40533875D01*
X18479299Y-40392721D01*
X18338145Y-40276879D01*
X18177103Y-40190801D01*
X18002363Y-40137794D01*
X17820639Y-40119896D01*
X17638917Y-40137794D01*
X17532089Y-40170200D01*
X17149860Y-40170200D01*
X17149860Y-35065238D01*
X17205410Y-35035546D01*
X17255203Y-34994683D01*
X17296066Y-34944890D01*
X17326430Y-34888083D01*
X17345128Y-34826443D01*
X17351442Y-34762340D01*
X17351442Y-33162340D01*
X17345128Y-33098237D01*
X17326430Y-33036597D01*
X17296066Y-32979790D01*
X17255203Y-32929997D01*
X17205410Y-32889134D01*
X17148603Y-32858770D01*
X17129540Y-32852987D01*
X17129540Y-26421618D01*
X17185090Y-26391926D01*
X17234883Y-26351063D01*
X17275746Y-26301270D01*
X17306110Y-26244463D01*
X17324808Y-26182823D01*
X17331122Y-26118720D01*
X17331122Y-24518720D01*
X17324808Y-24454617D01*
X17306110Y-24392977D01*
X17275746Y-24336170D01*
X17234883Y-24286377D01*
X17185090Y-24245514D01*
X17129540Y-24215822D01*
X17129540Y-20509827D01*
X17135740Y-20503627D01*
X17253605Y-20327231D01*
X17334791Y-20131229D01*
X17376180Y-19923155D01*
X17376180Y-19711005D01*
X17334791Y-19502931D01*
X17253605Y-19306929D01*
X17226180Y-19265885D01*
X17226180Y-18148107D01*
X17230664Y-18102580D01*
X17226180Y-18057053D01*
X17226180Y-18057042D01*
X17212767Y-17920856D01*
X17159760Y-17746116D01*
X17113010Y-17658654D01*
X17073681Y-17585074D01*
X16986868Y-17479293D01*
X16957839Y-17443921D01*
X16922467Y-17414892D01*
X16420448Y-16912873D01*
X16391419Y-16877501D01*
X16250265Y-16761659D01*
X16089224Y-16675580D01*
X15914484Y-16622573D01*
X15778298Y-16609160D01*
X15778287Y-16609160D01*
X15732760Y-16604676D01*
X15687233Y-16609160D01*
X13100556Y-16609160D01*
X13082334Y-16599420D01*
X12907594Y-16546413D01*
X12725870Y-16528515D01*
X12544147Y-16546413D01*
X12369407Y-16599420D01*
X12208366Y-16685499D01*
X12067211Y-16801341D01*
X11951369Y-16942495D01*
X11865290Y-17103536D01*
X11812283Y-17278276D01*
X11798870Y-17414462D01*
X11798870Y-17490622D01*
X11794385Y-17536160D01*
X6846042Y-17536160D01*
X6835139Y-14157550D01*
X6835137Y-14157124D01*
X6832597Y-13771044D01*
X6829994Y-13746285D01*
X6822610Y-13722508D01*
X6810730Y-13700629D01*
X6794810Y-13681489D01*
X6775461Y-13665821D01*
X6753428Y-13654230D01*
X6729556Y-13647160D01*
X6707046Y-13644888D01*
X5220920Y-13627970D01*
X5220920Y-13114162D01*
X5223469Y-13088281D01*
X5213294Y-12984972D01*
X5183159Y-12885632D01*
X5176619Y-12873396D01*
X9067999Y-12873396D01*
X9067999Y-13016602D01*
X9095937Y-13157057D01*
X9150740Y-13289363D01*
X9230301Y-13408435D01*
X9331563Y-13509697D01*
X9450635Y-13589258D01*
X9582941Y-13644061D01*
X9723396Y-13671999D01*
X9866602Y-13671999D01*
X10007057Y-13644061D01*
X10139363Y-13589258D01*
X10258435Y-13509697D01*
X10296133Y-13471999D01*
X16193865Y-13471999D01*
X16246564Y-13524698D01*
X16365636Y-13604259D01*
X16497942Y-13659062D01*
X16638397Y-13687000D01*
X16781603Y-13687000D01*
X16922058Y-13659062D01*
X17054364Y-13604259D01*
X17173436Y-13524698D01*
X17274698Y-13423436D01*
X17354259Y-13304364D01*
X17409062Y-13172058D01*
X17437000Y-13031603D01*
X17437000Y-12888397D01*
X17409062Y-12747942D01*
X17354259Y-12615636D01*
X17274698Y-12496564D01*
X17173436Y-12395302D01*
X17054364Y-12315741D01*
X16922058Y-12260938D01*
X16781603Y-12233000D01*
X16638397Y-12233000D01*
X16497942Y-12260938D01*
X16365636Y-12315741D01*
X16246564Y-12395302D01*
X16223867Y-12417999D01*
X10296133Y-12417999D01*
X10258435Y-12380301D01*
X10139363Y-12300740D01*
X10007057Y-12245937D01*
X9866602Y-12217999D01*
X9723396Y-12217999D01*
X9582941Y-12245937D01*
X9450635Y-12300740D01*
X9331563Y-12380301D01*
X9230301Y-12481563D01*
X9150740Y-12600635D01*
X9095937Y-12732941D01*
X9067999Y-12873396D01*
X5176619Y-12873396D01*
X5134224Y-12794080D01*
X5068368Y-12713834D01*
X5048254Y-12697327D01*
X4785394Y-12434467D01*
X4768887Y-12414353D01*
X4688641Y-12348497D01*
X4597089Y-12299562D01*
X4497749Y-12269427D01*
X4420320Y-12261801D01*
X4394439Y-12259252D01*
X4368558Y-12261801D01*
X1193090Y-12261801D01*
X26206Y-11094918D01*
X124364Y-11054259D01*
X243436Y-10974698D01*
X344698Y-10873436D01*
X424259Y-10754364D01*
X479062Y-10622058D01*
X507000Y-10481603D01*
X507000Y-10338397D01*
X9993000Y-10338397D01*
X9993000Y-10481603D01*
X10020938Y-10622058D01*
X10075741Y-10754364D01*
X10155302Y-10873436D01*
X10256564Y-10974698D01*
X10375636Y-11054259D01*
X10507942Y-11109062D01*
X10648397Y-11137000D01*
X10791603Y-11137000D01*
X10932058Y-11109062D01*
X11064364Y-11054259D01*
X11183436Y-10974698D01*
X11221134Y-10937000D01*
X17588866Y-10937000D01*
X17596564Y-10944698D01*
X17715636Y-11024259D01*
X17847942Y-11079062D01*
X17988397Y-11107000D01*
X18131603Y-11107000D01*
X18272058Y-11079062D01*
X18404364Y-11024259D01*
X18523436Y-10944698D01*
X18624698Y-10843436D01*
X18704259Y-10724364D01*
X18759062Y-10592058D01*
X18787000Y-10451603D01*
X18787000Y-10308397D01*
X18759062Y-10167942D01*
X18704259Y-10035636D01*
X18624698Y-9916564D01*
X18523436Y-9815302D01*
X18404364Y-9735741D01*
X18272058Y-9680938D01*
X18131603Y-9653000D01*
X17988397Y-9653000D01*
X17847942Y-9680938D01*
X17715636Y-9735741D01*
X17596564Y-9815302D01*
X17528866Y-9883000D01*
X11221134Y-9883000D01*
X11183436Y-9845302D01*
X11064364Y-9765741D01*
X10932058Y-9710938D01*
X10791603Y-9683000D01*
X10648397Y-9683000D01*
X10507942Y-9710938D01*
X10375636Y-9765741D01*
X10256564Y-9845302D01*
X10155302Y-9946564D01*
X10075741Y-10065636D01*
X10020938Y-10197942D01*
X9993000Y-10338397D01*
X507000Y-10338397D01*
X479062Y-10197942D01*
X424259Y-10065636D01*
X344698Y-9946564D01*
X243436Y-9845302D01*
X124364Y-9765741D01*
X-7942Y-9710938D01*
X-128287Y-9687000D01*
X4284119Y-9687000D01*
X4310000Y-9689549D01*
X4335881Y-9687000D01*
X4413310Y-9679374D01*
X4512650Y-9649239D01*
X4604202Y-9600304D01*
X4684448Y-9534448D01*
X4700955Y-9514334D01*
X6729744Y-7485546D01*
X6749848Y-7469048D01*
X6815704Y-7388802D01*
X6864639Y-7297250D01*
X6894774Y-7197910D01*
X6902400Y-7120481D01*
X6904949Y-7094600D01*
X6902400Y-7068719D01*
X6902400Y-2351085D01*
X6932919Y-2338444D01*
X7125694Y-2209636D01*
X7289636Y-2045694D01*
X7418444Y-1852919D01*
X7507169Y-1638718D01*
X7552400Y-1411324D01*
X7552400Y-1179476D01*
X7738400Y-1179476D01*
X7738400Y-1411324D01*
X7783631Y-1638718D01*
X7872356Y-1852919D01*
X8001164Y-2045694D01*
X8165106Y-2209636D01*
X8357881Y-2338444D01*
X8572082Y-2427169D01*
X8799476Y-2472400D01*
X9031324Y-2472400D01*
X9258718Y-2427169D01*
X9472919Y-2338444D01*
X9665694Y-2209636D01*
X9829636Y-2045694D01*
X9958444Y-1852919D01*
X10047169Y-1638718D01*
X10092400Y-1411324D01*
X10092400Y-1179476D01*
X10278400Y-1179476D01*
X10278400Y-1411324D01*
X10323631Y-1638718D01*
X10412356Y-1852919D01*
X10541164Y-2045694D01*
X10705106Y-2209636D01*
X10897881Y-2338444D01*
X11112082Y-2427169D01*
X11339476Y-2472400D01*
X11571324Y-2472400D01*
X11798718Y-2427169D01*
X12012919Y-2338444D01*
X12205694Y-2209636D01*
X12369636Y-2045694D01*
X12498444Y-1852919D01*
X12587169Y-1638718D01*
X12632400Y-1411324D01*
X12632400Y-1179476D01*
X12587169Y-952082D01*
X12498444Y-737881D01*
X12369636Y-545106D01*
X12205694Y-381164D01*
X12012919Y-252356D01*
X11798718Y-163631D01*
X11571324Y-118400D01*
X11339476Y-118400D01*
X11112082Y-163631D01*
X10897881Y-252356D01*
X10705106Y-381164D01*
X10541164Y-545106D01*
X10412356Y-737881D01*
X10323631Y-952082D01*
X10278400Y-1179476D01*
X10092400Y-1179476D01*
X10047169Y-952082D01*
X9958444Y-737881D01*
X9829636Y-545106D01*
X9665694Y-381164D01*
X9472919Y-252356D01*
X9258718Y-163631D01*
X9031324Y-118400D01*
X8799476Y-118400D01*
X8572082Y-163631D01*
X8357881Y-252356D01*
X8165106Y-381164D01*
X8001164Y-545106D01*
X7872356Y-737881D01*
X7783631Y-952082D01*
X7738400Y-1179476D01*
X7552400Y-1179476D01*
X7507169Y-952082D01*
X7418444Y-737881D01*
X7289636Y-545106D01*
X7125694Y-381164D01*
X6932919Y-252356D01*
X6718718Y-163631D01*
X6491324Y-118400D01*
X6259476Y-118400D01*
X6032082Y-163631D01*
X5817881Y-252356D01*
X5625106Y-381164D01*
X5461164Y-545106D01*
X5332356Y-737881D01*
X5243631Y-952082D01*
X5198400Y-1179476D01*
X5198400Y-1411324D01*
X5243631Y-1638718D01*
X5332356Y-1852919D01*
X5461164Y-2045694D01*
X5625106Y-2209636D01*
X5817881Y-2338444D01*
X5848400Y-2351085D01*
X5848401Y-6876308D01*
X4091711Y-8633000D01*
X-7593471Y-8633000D01*
X-7545778Y-8517858D01*
X-7517840Y-8377403D01*
X-7517840Y-8234197D01*
X-7545778Y-8093742D01*
X-7600581Y-7961436D01*
X-7680142Y-7842364D01*
X-7781404Y-7741102D01*
X-7799120Y-7729265D01*
X-7799120Y-7196647D01*
X-7639573Y-7090040D01*
X-7489560Y-6940027D01*
X-7371695Y-6763631D01*
X-7290509Y-6567629D01*
X-7249120Y-6359555D01*
X-7249120Y-6147405D01*
X-7274701Y-6018803D01*
X-7231559Y-6061945D01*
X-7217399Y-6079199D01*
X-7148573Y-6135683D01*
X-7077032Y-6173922D01*
X-7070050Y-6177654D01*
X-7028837Y-6190156D01*
X-6986141Y-6242181D01*
X-6913997Y-6301388D01*
X-6886447Y-6316114D01*
X-6871214Y-6366329D01*
X-6829243Y-6444852D01*
X-6772759Y-6513679D01*
X-6755500Y-6527843D01*
X-6571397Y-6711947D01*
X-6574080Y-6725437D01*
X-6574080Y-6868643D01*
X-6546142Y-7009098D01*
X-6491339Y-7141404D01*
X-6411778Y-7260476D01*
X-6310516Y-7361738D01*
X-6191444Y-7441299D01*
X-6059138Y-7496102D01*
X-5918683Y-7524040D01*
X-5775477Y-7524040D01*
X-5635022Y-7496102D01*
X-5502716Y-7441299D01*
X-5383644Y-7361738D01*
X-5282382Y-7260476D01*
X-5202821Y-7141404D01*
X-5148018Y-7009098D01*
X-5120080Y-6868643D01*
X-5120080Y-6725437D01*
X-5122763Y-6711947D01*
X-5025014Y-6614198D01*
X-5007761Y-6600039D01*
X-4951277Y-6531213D01*
X-4909306Y-6452690D01*
X-4894780Y-6404804D01*
X-4883460Y-6367488D01*
X-4877635Y-6308344D01*
X-4841123Y-6288828D01*
X-4768979Y-6229621D01*
X-4709772Y-6157477D01*
X-4707032Y-6152350D01*
X-4698186Y-6242164D01*
X-4645179Y-6416904D01*
X-4559100Y-6577945D01*
X-4443258Y-6719099D01*
X-4302104Y-6834941D01*
X-4141063Y-6921020D01*
X-3966323Y-6974027D01*
X-3784600Y-6991925D01*
X-3602876Y-6974027D01*
X-3428136Y-6921020D01*
X-3267095Y-6834941D01*
X-3125941Y-6719099D01*
X-3010099Y-6577945D01*
X-2924020Y-6416904D01*
X-2871013Y-6242164D01*
X-2857600Y-6105978D01*
X-2857600Y-2026591D01*
X-2741556Y-1852919D01*
X-2652831Y-1638718D01*
X-2636996Y-1559107D01*
X-2442931Y-1559107D01*
X-2368459Y-1787823D01*
X-2250797Y-1997615D01*
X-2094468Y-2180421D01*
X-1905479Y-2329217D01*
X-1691093Y-2438284D01*
X-1508306Y-2493728D01*
X-1317600Y-2425795D01*
X-1317600Y-1368400D01*
X-1171600Y-1368400D01*
X-1171600Y-2425795D01*
X-980894Y-2493728D01*
X-798107Y-2438284D01*
X-583721Y-2329217D01*
X-394732Y-2180421D01*
X-238403Y-1997615D01*
X-120741Y-1787823D01*
X-46269Y-1559107D01*
X-114020Y-1368400D01*
X-1171600Y-1368400D01*
X-1317600Y-1368400D01*
X-2375180Y-1368400D01*
X-2442931Y-1559107D01*
X-2636996Y-1559107D01*
X-2607600Y-1411324D01*
X-2607600Y-1179476D01*
X-2636995Y-1031693D01*
X-2442931Y-1031693D01*
X-2375180Y-1222400D01*
X-1317600Y-1222400D01*
X-1317600Y-165005D01*
X-1171600Y-165005D01*
X-1171600Y-1222400D01*
X-114020Y-1222400D01*
X-98771Y-1179476D01*
X118400Y-1179476D01*
X118400Y-1411324D01*
X163631Y-1638718D01*
X252356Y-1852919D01*
X381164Y-2045694D01*
X545106Y-2209636D01*
X737881Y-2338444D01*
X952082Y-2427169D01*
X1179476Y-2472400D01*
X1411324Y-2472400D01*
X1638718Y-2427169D01*
X1852919Y-2338444D01*
X2045694Y-2209636D01*
X2209636Y-2045694D01*
X2338444Y-1852919D01*
X2427169Y-1638718D01*
X2472400Y-1411324D01*
X2472400Y-1179476D01*
X2658400Y-1179476D01*
X2658400Y-1411324D01*
X2703631Y-1638718D01*
X2792356Y-1852919D01*
X2921164Y-2045694D01*
X3085106Y-2209636D01*
X3277881Y-2338444D01*
X3492082Y-2427169D01*
X3719476Y-2472400D01*
X3951324Y-2472400D01*
X4178718Y-2427169D01*
X4392919Y-2338444D01*
X4585694Y-2209636D01*
X4749636Y-2045694D01*
X4878444Y-1852919D01*
X4967169Y-1638718D01*
X5012400Y-1411324D01*
X5012400Y-1179476D01*
X4967169Y-952082D01*
X4878444Y-737881D01*
X4749636Y-545106D01*
X4585694Y-381164D01*
X4392919Y-252356D01*
X4178718Y-163631D01*
X3951324Y-118400D01*
X3719476Y-118400D01*
X3492082Y-163631D01*
X3277881Y-252356D01*
X3085106Y-381164D01*
X2921164Y-545106D01*
X2792356Y-737881D01*
X2703631Y-952082D01*
X2658400Y-1179476D01*
X2472400Y-1179476D01*
X2427169Y-952082D01*
X2338444Y-737881D01*
X2209636Y-545106D01*
X2045694Y-381164D01*
X1852919Y-252356D01*
X1638718Y-163631D01*
X1411324Y-118400D01*
X1179476Y-118400D01*
X952082Y-163631D01*
X737881Y-252356D01*
X545106Y-381164D01*
X381164Y-545106D01*
X252356Y-737881D01*
X163631Y-952082D01*
X118400Y-1179476D01*
X-98771Y-1179476D01*
X-46269Y-1031693D01*
X-120741Y-802977D01*
X-238403Y-593185D01*
X-394732Y-410379D01*
X-583721Y-261583D01*
X-798107Y-152516D01*
X-980894Y-97072D01*
X-1171600Y-165005D01*
X-1317600Y-165005D01*
X-1508306Y-97072D01*
X-1691093Y-152516D01*
X-1905479Y-261583D01*
X-2094468Y-410379D01*
X-2250797Y-593185D01*
X-2368459Y-802977D01*
X-2442931Y-1031693D01*
X-2636995Y-1031693D01*
X-2652831Y-952082D01*
X-2741556Y-737881D01*
X-2870364Y-545106D01*
X-3034306Y-381164D01*
X-3227081Y-252356D01*
X-3441282Y-163631D01*
X-3668676Y-118400D01*
X-3900524Y-118400D01*
X-4127918Y-163631D01*
X-4342119Y-252356D01*
X-4534894Y-381164D01*
X-4698836Y-545106D01*
X-4827644Y-737881D01*
X-4916369Y-952082D01*
X-4961600Y-1179476D01*
X-4961600Y-1411324D01*
X-4916369Y-1638718D01*
X-4827644Y-1852919D01*
X-4711600Y-2026592D01*
X-4711599Y-2770172D01*
X-4713422Y-2767444D01*
X-4814684Y-2666182D01*
X-4933756Y-2586621D01*
X-5066062Y-2531818D01*
X-5206517Y-2503880D01*
X-5349723Y-2503880D01*
X-5490178Y-2531818D01*
X-5622484Y-2586621D01*
X-5741556Y-2666182D01*
X-5842818Y-2767444D01*
X-5922379Y-2886516D01*
X-5977182Y-3018822D01*
X-6005120Y-3159277D01*
X-6005120Y-3302483D01*
X-5978119Y-3438227D01*
X-6013564Y-3402782D01*
X-6132636Y-3323221D01*
X-6264942Y-3268418D01*
X-6405397Y-3240480D01*
X-6548603Y-3240480D01*
X-6689058Y-3268418D01*
X-6821364Y-3323221D01*
X-6940436Y-3402782D01*
X-7041698Y-3504044D01*
X-7121259Y-3623116D01*
X-7176062Y-3755422D01*
X-7203560Y-3893665D01*
X-7203560Y-3168468D01*
X-7201373Y-3146263D01*
X-7210100Y-3057656D01*
X-7219755Y-3025829D01*
X-7235946Y-2972454D01*
X-7277917Y-2893931D01*
X-7334401Y-2825105D01*
X-7351650Y-2810949D01*
X-7741511Y-2421090D01*
X-7755675Y-2403831D01*
X-7824501Y-2347347D01*
X-7903024Y-2305376D01*
X-7988227Y-2279530D01*
X-8054629Y-2272990D01*
X-8076834Y-2270803D01*
X-8099039Y-2272990D01*
X-8209122Y-2272990D01*
X-8114306Y-2209636D01*
X-7950364Y-2045694D01*
X-7821556Y-1852919D01*
X-7732831Y-1638718D01*
X-7716996Y-1559107D01*
X-7522931Y-1559107D01*
X-7448459Y-1787823D01*
X-7330797Y-1997615D01*
X-7174468Y-2180421D01*
X-6985479Y-2329217D01*
X-6771093Y-2438284D01*
X-6588306Y-2493728D01*
X-6397600Y-2425795D01*
X-6397600Y-1368400D01*
X-6251600Y-1368400D01*
X-6251600Y-2425795D01*
X-6060894Y-2493728D01*
X-5878107Y-2438284D01*
X-5663721Y-2329217D01*
X-5474732Y-2180421D01*
X-5318403Y-1997615D01*
X-5200741Y-1787823D01*
X-5126269Y-1559107D01*
X-5194020Y-1368400D01*
X-6251600Y-1368400D01*
X-6397600Y-1368400D01*
X-7455180Y-1368400D01*
X-7522931Y-1559107D01*
X-7716996Y-1559107D01*
X-7687600Y-1411324D01*
X-7687600Y-1179476D01*
X-7716995Y-1031693D01*
X-7522931Y-1031693D01*
X-7455180Y-1222400D01*
X-6397600Y-1222400D01*
X-6397600Y-165005D01*
X-6251600Y-165005D01*
X-6251600Y-1222400D01*
X-5194020Y-1222400D01*
X-5126269Y-1031693D01*
X-5200741Y-802977D01*
X-5318403Y-593185D01*
X-5474732Y-410379D01*
X-5663721Y-261583D01*
X-5878107Y-152516D01*
X-6060894Y-97072D01*
X-6251600Y-165005D01*
X-6397600Y-165005D01*
X-6588306Y-97072D01*
X-6771093Y-152516D01*
X-6985479Y-261583D01*
X-7174468Y-410379D01*
X-7330797Y-593185D01*
X-7448459Y-802977D01*
X-7522931Y-1031693D01*
X-7716995Y-1031693D01*
X-7732831Y-952082D01*
X-7821556Y-737881D01*
X-7950364Y-545106D01*
X-8114306Y-381164D01*
X-8307081Y-252356D01*
X-8521282Y-163631D01*
X-8748676Y-118400D01*
X-8980524Y-118400D01*
X-9207918Y-163631D01*
X-9422119Y-252356D01*
X-9614894Y-381164D01*
X-9778836Y-545106D01*
X-9907644Y-737881D01*
X-9996369Y-952082D01*
X-10041600Y-1179476D01*
X-10041600Y-1411324D01*
X-9996369Y-1638718D01*
X-9907644Y-1852919D01*
X-9778836Y-2045694D01*
X-9614894Y-2209636D01*
X-9422119Y-2338444D01*
X-9316600Y-2382152D01*
X-9316600Y-2682465D01*
X-9318787Y-2704670D01*
X-9316982Y-2723000D01*
X-12751709Y-2723000D01*
X-13443000Y-2031711D01*
X-13443000Y-445400D01*
X-12583182Y-445400D01*
X-12583182Y-2145400D01*
X-12576868Y-2209503D01*
X-12558170Y-2271143D01*
X-12527806Y-2327950D01*
X-12486943Y-2377743D01*
X-12437150Y-2418606D01*
X-12380343Y-2448970D01*
X-12318703Y-2467668D01*
X-12254600Y-2473982D01*
X-10554600Y-2473982D01*
X-10490497Y-2467668D01*
X-10428857Y-2448970D01*
X-10372050Y-2418606D01*
X-10322257Y-2377743D01*
X-10281394Y-2327950D01*
X-10251030Y-2271143D01*
X-10232332Y-2209503D01*
X-10226018Y-2145400D01*
X-10226018Y-445400D01*
X-10232332Y-381297D01*
X-10251030Y-319657D01*
X-10281394Y-262850D01*
X-10322257Y-213057D01*
X-10372050Y-172194D01*
X-10428857Y-141830D01*
X-10490497Y-123132D01*
X-10554600Y-116818D01*
X-12254600Y-116818D01*
X-12318703Y-123132D01*
X-12380343Y-141830D01*
X-12437150Y-172194D01*
X-12486943Y-213057D01*
X-12527806Y-262850D01*
X-12558170Y-319657D01*
X-12576868Y-381297D01*
X-12583182Y-445400D01*
X-13443000Y-445400D01*
X-13443000Y1360524D01*
X-12581600Y1360524D01*
X-12581600Y1128676D01*
X-12536369Y901282D01*
X-12447644Y687081D01*
X-12318836Y494306D01*
X-12154894Y330364D01*
X-11962119Y201556D01*
X-11747918Y112831D01*
X-11520524Y67600D01*
X-11288676Y67600D01*
X-11061282Y112831D01*
X-10847081Y201556D01*
X-10654306Y330364D01*
X-10490364Y494306D01*
X-10361556Y687081D01*
X-10272831Y901282D01*
X-10227600Y1128676D01*
X-10227600Y1360524D01*
X-10041600Y1360524D01*
X-10041600Y1128676D01*
X-9996369Y901282D01*
X-9907644Y687081D01*
X-9778836Y494306D01*
X-9614894Y330364D01*
X-9422119Y201556D01*
X-9207918Y112831D01*
X-8980524Y67600D01*
X-8748676Y67600D01*
X-8521282Y112831D01*
X-8307081Y201556D01*
X-8114306Y330364D01*
X-7950364Y494306D01*
X-7821556Y687081D01*
X-7732831Y901282D01*
X-7687600Y1128676D01*
X-7687600Y1360524D01*
X-7501600Y1360524D01*
X-7501600Y1128676D01*
X-7456369Y901282D01*
X-7367644Y687081D01*
X-7238836Y494306D01*
X-7074894Y330364D01*
X-6882119Y201556D01*
X-6667918Y112831D01*
X-6440524Y67600D01*
X-6208676Y67600D01*
X-5981282Y112831D01*
X-5767081Y201556D01*
X-5574306Y330364D01*
X-5410364Y494306D01*
X-5281556Y687081D01*
X-5192831Y901282D01*
X-5176996Y980893D01*
X-4982931Y980893D01*
X-4908459Y752177D01*
X-4790797Y542385D01*
X-4634468Y359579D01*
X-4445479Y210783D01*
X-4231093Y101716D01*
X-4048306Y46272D01*
X-3857600Y114205D01*
X-3857600Y1171600D01*
X-3711600Y1171600D01*
X-3711600Y114205D01*
X-3520894Y46272D01*
X-3338107Y101716D01*
X-3123721Y210783D01*
X-2934732Y359579D01*
X-2778403Y542385D01*
X-2660741Y752177D01*
X-2586269Y980893D01*
X-2654020Y1171600D01*
X-3711600Y1171600D01*
X-3857600Y1171600D01*
X-4915180Y1171600D01*
X-4982931Y980893D01*
X-5176996Y980893D01*
X-5147600Y1128676D01*
X-5147600Y1360524D01*
X-5176995Y1508307D01*
X-4982931Y1508307D01*
X-4915180Y1317600D01*
X-3857600Y1317600D01*
X-3857600Y2374995D01*
X-3711600Y2374995D01*
X-3711600Y1317600D01*
X-2654020Y1317600D01*
X-2638771Y1360524D01*
X-2421600Y1360524D01*
X-2421600Y1128676D01*
X-2376369Y901282D01*
X-2287644Y687081D01*
X-2158836Y494306D01*
X-1994894Y330364D01*
X-1802119Y201556D01*
X-1587918Y112831D01*
X-1360524Y67600D01*
X-1128676Y67600D01*
X-901282Y112831D01*
X-687081Y201556D01*
X-494306Y330364D01*
X-330364Y494306D01*
X-201556Y687081D01*
X-112831Y901282D01*
X-67600Y1128676D01*
X-67600Y1360524D01*
X118400Y1360524D01*
X118400Y1128676D01*
X163631Y901282D01*
X252356Y687081D01*
X381164Y494306D01*
X545106Y330364D01*
X737881Y201556D01*
X952082Y112831D01*
X1179476Y67600D01*
X1411324Y67600D01*
X1638718Y112831D01*
X1852919Y201556D01*
X2045694Y330364D01*
X2209636Y494306D01*
X2338444Y687081D01*
X2427169Y901282D01*
X2472400Y1128676D01*
X2472400Y1360524D01*
X2658400Y1360524D01*
X2658400Y1128676D01*
X2703631Y901282D01*
X2792356Y687081D01*
X2921164Y494306D01*
X3085106Y330364D01*
X3277881Y201556D01*
X3492082Y112831D01*
X3719476Y67600D01*
X3951324Y67600D01*
X4178718Y112831D01*
X4392919Y201556D01*
X4585694Y330364D01*
X4749636Y494306D01*
X4878444Y687081D01*
X4967169Y901282D01*
X5012400Y1128676D01*
X5012400Y1360524D01*
X4967169Y1587918D01*
X4878444Y1802119D01*
X4749636Y1994894D01*
X4585694Y2158836D01*
X4392919Y2287644D01*
X4178718Y2376369D01*
X3951324Y2421600D01*
X3719476Y2421600D01*
X3492082Y2376369D01*
X3277881Y2287644D01*
X3085106Y2158836D01*
X2921164Y1994894D01*
X2792356Y1802119D01*
X2703631Y1587918D01*
X2658400Y1360524D01*
X2472400Y1360524D01*
X2427169Y1587918D01*
X2338444Y1802119D01*
X2209636Y1994894D01*
X2045694Y2158836D01*
X1852919Y2287644D01*
X1638718Y2376369D01*
X1411324Y2421600D01*
X1179476Y2421600D01*
X952082Y2376369D01*
X737881Y2287644D01*
X545106Y2158836D01*
X381164Y1994894D01*
X252356Y1802119D01*
X163631Y1587918D01*
X118400Y1360524D01*
X-67600Y1360524D01*
X-112831Y1587918D01*
X-201556Y1802119D01*
X-330364Y1994894D01*
X-494306Y2158836D01*
X-687081Y2287644D01*
X-901282Y2376369D01*
X-1128676Y2421600D01*
X-1360524Y2421600D01*
X-1587918Y2376369D01*
X-1802119Y2287644D01*
X-1994894Y2158836D01*
X-2158836Y1994894D01*
X-2287644Y1802119D01*
X-2376369Y1587918D01*
X-2421600Y1360524D01*
X-2638771Y1360524D01*
X-2586269Y1508307D01*
X-2660741Y1737023D01*
X-2778403Y1946815D01*
X-2934732Y2129621D01*
X-3123721Y2278417D01*
X-3338107Y2387484D01*
X-3520894Y2442928D01*
X-3711600Y2374995D01*
X-3857600Y2374995D01*
X-4048306Y2442928D01*
X-4231093Y2387484D01*
X-4445479Y2278417D01*
X-4634468Y2129621D01*
X-4790797Y1946815D01*
X-4908459Y1737023D01*
X-4982931Y1508307D01*
X-5176995Y1508307D01*
X-5192831Y1587918D01*
X-5281556Y1802119D01*
X-5410364Y1994894D01*
X-5574306Y2158836D01*
X-5767081Y2287644D01*
X-5981282Y2376369D01*
X-6208676Y2421600D01*
X-6440524Y2421600D01*
X-6667918Y2376369D01*
X-6882119Y2287644D01*
X-7074894Y2158836D01*
X-7238836Y1994894D01*
X-7367644Y1802119D01*
X-7456369Y1587918D01*
X-7501600Y1360524D01*
X-7687600Y1360524D01*
X-7732831Y1587918D01*
X-7821556Y1802119D01*
X-7950364Y1994894D01*
X-8114306Y2158836D01*
X-8307081Y2287644D01*
X-8521282Y2376369D01*
X-8748676Y2421600D01*
X-8980524Y2421600D01*
X-9207918Y2376369D01*
X-9422119Y2287644D01*
X-9614894Y2158836D01*
X-9778836Y1994894D01*
X-9907644Y1802119D01*
X-9996369Y1587918D01*
X-10041600Y1360524D01*
X-10227600Y1360524D01*
X-10272831Y1587918D01*
X-10361556Y1802119D01*
X-10490364Y1994894D01*
X-10654306Y2158836D01*
X-10847081Y2287644D01*
X-11061282Y2376369D01*
X-11288676Y2421600D01*
X-11520524Y2421600D01*
X-11747918Y2376369D01*
X-11962119Y2287644D01*
X-12154894Y2158836D01*
X-12318836Y1994894D01*
X-12447644Y1802119D01*
X-12536369Y1587918D01*
X-12581600Y1360524D01*
X-13443000Y1360524D01*
X-13443000Y2475280D01*
X5379871Y2475280D01*
X5667792Y2187358D01*
X5625106Y2158836D01*
X5461164Y1994894D01*
X5332356Y1802119D01*
X5243631Y1587918D01*
X5198400Y1360524D01*
X5198400Y1128676D01*
X5243631Y901282D01*
X5332356Y687081D01*
X5461164Y494306D01*
X5625106Y330364D01*
X5817881Y201556D01*
X6032082Y112831D01*
X6259476Y67600D01*
X6491324Y67600D01*
X6718718Y112831D01*
X6932919Y201556D01*
X7125694Y330364D01*
X7289636Y494306D01*
X7418444Y687081D01*
X7507169Y901282D01*
X7552400Y1128676D01*
X7552400Y1360524D01*
X7738400Y1360524D01*
X7738400Y1128676D01*
X7783631Y901282D01*
X7872356Y687081D01*
X8001164Y494306D01*
X8165106Y330364D01*
X8357881Y201556D01*
X8572082Y112831D01*
X8799476Y67600D01*
X9031324Y67600D01*
X9258718Y112831D01*
X9472919Y201556D01*
X9665694Y330364D01*
X9829636Y494306D01*
X9958444Y687081D01*
X10047169Y901282D01*
X10092400Y1128676D01*
X10092400Y1360524D01*
X10278400Y1360524D01*
X10278400Y1128676D01*
X10323631Y901282D01*
X10412356Y687081D01*
X10541164Y494306D01*
X10705106Y330364D01*
X10897881Y201556D01*
X11112082Y112831D01*
X11339476Y67600D01*
X11571324Y67600D01*
X11798718Y112831D01*
X12012919Y201556D01*
X12205694Y330364D01*
X12369636Y494306D01*
X12498444Y687081D01*
X12587169Y901282D01*
X12632400Y1128676D01*
X12632400Y1360524D01*
X12587169Y1587918D01*
X12498444Y1802119D01*
X12369636Y1994894D01*
X12205694Y2158836D01*
X12012919Y2287644D01*
X11798718Y2376369D01*
X11571324Y2421600D01*
X11339476Y2421600D01*
X11112082Y2376369D01*
X10897881Y2287644D01*
X10705106Y2158836D01*
X10541164Y1994894D01*
X10412356Y1802119D01*
X10323631Y1587918D01*
X10278400Y1360524D01*
X10092400Y1360524D01*
X10047169Y1587918D01*
X9958444Y1802119D01*
X9829636Y1994894D01*
X9665694Y2158836D01*
X9472919Y2287644D01*
X9258718Y2376369D01*
X9031324Y2421600D01*
X8799476Y2421600D01*
X8572082Y2376369D01*
X8357881Y2287644D01*
X8165106Y2158836D01*
X8001164Y1994894D01*
X7872356Y1802119D01*
X7783631Y1587918D01*
X7738400Y1360524D01*
X7552400Y1360524D01*
X7507169Y1587918D01*
X7418444Y1802119D01*
X7289636Y1994894D01*
X7125694Y2158836D01*
X6932919Y2287644D01*
X6897331Y2302385D01*
X6894774Y2328350D01*
X6864639Y2427690D01*
X6815704Y2519242D01*
X6749848Y2599488D01*
X6729739Y2615991D01*
X5989115Y3356614D01*
X5972608Y3376728D01*
X5892362Y3442584D01*
X5800810Y3491519D01*
X5701470Y3521654D01*
X5624041Y3529280D01*
X5598160Y3531829D01*
X5572279Y3529280D01*
X-13944119Y3529280D01*
X-13970000Y3531829D01*
X-13995881Y3529280D01*
X-14073310Y3521654D01*
X-14172650Y3491519D01*
X-14264202Y3442584D01*
X-14344448Y3376728D01*
X-14410304Y3296482D01*
X-14459239Y3204930D01*
X-14489374Y3105590D01*
X-14499549Y3002280D01*
X-14497000Y2976399D01*
X-14496999Y-2128862D01*
X-14499374Y-2136691D01*
X-14509549Y-2240000D01*
X-14499374Y-2343309D01*
X-14469239Y-2442649D01*
X-14420304Y-2534201D01*
X-14354447Y-2614447D01*
X-14334344Y-2630945D01*
X-13360947Y-3604344D01*
X-13344448Y-3624448D01*
X-13264202Y-3690304D01*
X-13172650Y-3739239D01*
X-13073310Y-3769374D01*
X-12970000Y-3779549D01*
X-12944119Y-3777000D01*
X-8787080Y-3777000D01*
X-8787079Y-5278679D01*
X-8836271Y-5299055D01*
X-9012667Y-5416920D01*
X-9162680Y-5566933D01*
X-9280545Y-5743329D01*
X-9361731Y-5939331D01*
X-9403120Y-6147405D01*
X-9403120Y-6359555D01*
X-9361731Y-6567629D01*
X-9280545Y-6763631D01*
X-9162680Y-6940027D01*
X-9012667Y-7090040D01*
X-8853120Y-7196647D01*
X-8853119Y-7907588D01*
X-8889099Y-7961436D01*
X-8943902Y-8093742D01*
X-8971840Y-8234197D01*
X-8971840Y-8377403D01*
X-8943902Y-8517858D01*
X-8896209Y-8633000D01*
X-11528866Y-8633000D01*
X-11566564Y-8595302D01*
X-11685636Y-8515741D01*
X-11817942Y-8460938D01*
X-11958397Y-8433000D01*
X-12101603Y-8433000D01*
X-12242058Y-8460938D01*
X-12374364Y-8515741D01*
X-12493436Y-8595302D01*
X-12531134Y-8633000D01*
X-12874146Y-8633000D01*
X-12881972Y-8630626D01*
X-12959401Y-8623000D01*
X-12985282Y-8620451D01*
X-13011163Y-8623000D01*
X-14674119Y-8623000D01*
X-14700000Y-8620451D01*
X-14725881Y-8623000D01*
X-14803310Y-8630626D01*
X-14902650Y-8660761D01*
X-14994202Y-8709696D01*
X-15074448Y-8775552D01*
X-15090947Y-8795656D01*
X-15158746Y-8863455D01*
X-15184931Y-8852609D01*
X-15393005Y-8811220D01*
X-15605155Y-8811220D01*
X-15813229Y-8852609D01*
X-16009231Y-8933795D01*
X-16185627Y-9051660D01*
X-16335640Y-9201673D01*
X-16453505Y-9378069D01*
X-16534691Y-9574071D01*
X-16576080Y-9782145D01*
X-16576080Y-9994295D01*
X-16534691Y-10202369D01*
X-16523844Y-10228555D01*
X-16592554Y-10297265D01*
X-16612668Y-10313772D01*
X-16678524Y-10394018D01*
X-16719986Y-10471589D01*
X-16727459Y-10485571D01*
X-16757594Y-10584911D01*
X-16767769Y-10688220D01*
X-16765220Y-10714101D01*
X-16765219Y-13441024D01*
X-16809108Y-13494503D01*
X-16853102Y-13576811D01*
X-16880194Y-13666121D01*
X-16889342Y-13759000D01*
X-16889342Y-14054000D01*
X-16880194Y-14146879D01*
X-16853102Y-14236189D01*
X-16809108Y-14318497D01*
X-16749901Y-14390641D01*
X-16748854Y-14391500D01*
X-16749901Y-14392359D01*
X-16809108Y-14464503D01*
X-16853102Y-14546811D01*
X-16880194Y-14636121D01*
X-16889342Y-14729000D01*
X-16889342Y-15024000D01*
X-16880194Y-15116879D01*
X-16853102Y-15206189D01*
X-16809108Y-15288497D01*
X-16767760Y-15338880D01*
X-16767760Y-15481418D01*
X-16770000Y-15481418D01*
X-16834103Y-15487732D01*
X-16895743Y-15506430D01*
X-16952550Y-15536794D01*
X-16960112Y-15543000D01*
X-19598000Y-15543000D01*
X-19598000Y1980342D01*
X-19563618Y2331000D01*
X-18217000Y2331000D01*
X-18217000Y2109000D01*
X-18173690Y1891266D01*
X-18088734Y1686165D01*
X-17965398Y1501579D01*
X-17808421Y1344602D01*
X-17623835Y1221266D01*
X-17418734Y1136310D01*
X-17201000Y1093000D01*
X-16979000Y1093000D01*
X-16761266Y1136310D01*
X-16556165Y1221266D01*
X-16371579Y1344602D01*
X-16214602Y1501579D01*
X-16091266Y1686165D01*
X-16006310Y1891266D01*
X-15963000Y2109000D01*
X-15963000Y2331000D01*
X-16006310Y2548734D01*
X-16091266Y2753835D01*
X-16214602Y2938421D01*
X-16371579Y3095398D01*
X-16556165Y3218734D01*
X-16761266Y3303690D01*
X-16979000Y3347000D01*
X-17201000Y3347000D01*
X-17418734Y3303690D01*
X-17623835Y3218734D01*
X-17808421Y3095398D01*
X-17965398Y2938421D01*
X-18088734Y2753835D01*
X-18173690Y2548734D01*
X-18217000Y2331000D01*
X-19563618Y2331000D01*
X-19546631Y2504242D01*
X-19400188Y2989286D01*
X-19162326Y3436642D01*
X-18842096Y3829282D01*
X-18451706Y4152241D01*
X-18006020Y4393222D01*
X-17522013Y4543048D01*
X-16999180Y4598000D01*
X16980342Y4598000D01*
X17504242Y4546631D01*
G04 #@! TA.AperFunction,Conductor*
D27*
G36*
X17504242Y4546631D02*
G01*
X17989286Y4400188D01*
X18436642Y4162326D01*
X18829282Y3842096D01*
X19152241Y3451706D01*
X19393222Y3006020D01*
X19543048Y2522013D01*
X19598000Y1999180D01*
X19598000Y1999173D01*
X19598001Y-48685998D01*
X15072005Y-48622481D01*
X15082395Y-48022034D01*
X15087717Y-48023648D01*
X15151820Y-48029962D01*
X19051820Y-48029962D01*
X19115923Y-48023648D01*
X19177563Y-48004950D01*
X19234370Y-47974586D01*
X19284163Y-47933723D01*
X19325026Y-47883930D01*
X19355390Y-47827123D01*
X19374088Y-47765483D01*
X19380402Y-47701380D01*
X19380402Y-45501380D01*
X19374088Y-45437277D01*
X19355390Y-45375637D01*
X19325026Y-45318830D01*
X19284163Y-45269037D01*
X19234370Y-45228174D01*
X19177563Y-45197810D01*
X19115923Y-45179112D01*
X19051820Y-45172798D01*
X15151820Y-45172798D01*
X15120768Y-45175857D01*
X15110582Y-45155980D01*
X15095123Y-45136465D01*
X15076154Y-45120340D01*
X15054403Y-45108226D01*
X15030708Y-45100588D01*
X15005493Y-45097712D01*
X11219559Y-45046633D01*
X11255202Y-44979949D01*
X11282294Y-44890639D01*
X11291442Y-44797760D01*
X11291442Y-44452760D01*
X11282294Y-44359881D01*
X11255202Y-44270571D01*
X11211208Y-44188263D01*
X11194860Y-44168343D01*
X11194860Y-44125820D01*
X11322438Y-44125820D01*
X11322438Y-44226880D01*
X11328752Y-44290983D01*
X11347450Y-44352623D01*
X11377814Y-44409430D01*
X11418677Y-44459223D01*
X11468470Y-44500086D01*
X11525277Y-44530450D01*
X11586917Y-44549148D01*
X11651020Y-44555462D01*
X12301020Y-44555462D01*
X12365123Y-44549148D01*
X12426763Y-44530450D01*
X12483570Y-44500086D01*
X12533363Y-44459223D01*
X12574226Y-44409430D01*
X12604590Y-44352623D01*
X12623288Y-44290983D01*
X12629602Y-44226880D01*
X12629602Y-43006880D01*
X12623288Y-42942777D01*
X12604590Y-42881137D01*
X12574226Y-42824330D01*
X12533363Y-42774537D01*
X12483570Y-42733674D01*
X12482780Y-42733252D01*
X12482780Y-42390657D01*
X12555730Y-42281480D01*
X12606764Y-42158274D01*
X12632780Y-42027479D01*
X12632780Y-41894121D01*
X12606764Y-41763326D01*
X12555730Y-41640120D01*
X12481640Y-41529237D01*
X12387343Y-41434940D01*
X12276460Y-41360850D01*
X12153254Y-41309816D01*
X12022459Y-41283800D01*
X11889101Y-41283800D01*
X11758306Y-41309816D01*
X11635100Y-41360850D01*
X11524217Y-41434940D01*
X11429920Y-41529237D01*
X11355830Y-41640120D01*
X11304796Y-41763326D01*
X11278780Y-41894121D01*
X11278780Y-42027479D01*
X11302337Y-42145912D01*
X11290281Y-42123357D01*
X11243169Y-42065951D01*
X11185763Y-42018839D01*
X11120270Y-41983832D01*
X11049205Y-41962275D01*
X10975300Y-41954996D01*
X10822550Y-41956820D01*
X10728300Y-42051070D01*
X10728300Y-42555820D01*
X11258050Y-42555820D01*
X11352300Y-42461570D01*
X11354124Y-42333820D01*
X11346845Y-42259915D01*
X11346702Y-42259442D01*
X11355830Y-42281480D01*
X11428780Y-42390657D01*
X11428780Y-42766245D01*
X11418677Y-42774537D01*
X11377814Y-42824330D01*
X11353357Y-42870086D01*
X11352300Y-42796070D01*
X11258050Y-42701820D01*
X10728300Y-42701820D01*
X10728300Y-42721820D01*
X10582300Y-42721820D01*
X10582300Y-42701820D01*
X10052550Y-42701820D01*
X9958300Y-42796070D01*
X9956476Y-42923820D01*
X9963755Y-42997725D01*
X9985312Y-43068790D01*
X10020319Y-43134283D01*
X10067431Y-43191689D01*
X10079192Y-43201341D01*
X10042958Y-43269131D01*
X10030008Y-43311820D01*
X6928730Y-43163067D01*
X6926055Y-42333820D01*
X9956476Y-42333820D01*
X9958300Y-42461570D01*
X10052550Y-42555820D01*
X10582300Y-42555820D01*
X10582300Y-42051070D01*
X10488050Y-41956820D01*
X10335300Y-41954996D01*
X10261395Y-41962275D01*
X10190330Y-41983832D01*
X10124837Y-42018839D01*
X10067431Y-42065951D01*
X10020319Y-42123357D01*
X9985312Y-42188850D01*
X9963755Y-42259915D01*
X9956476Y-42333820D01*
X6926055Y-42333820D01*
X6918317Y-39935533D01*
X7599545Y-39935533D01*
X7681053Y-40113904D01*
X7887932Y-40218571D01*
X8111256Y-40280866D01*
X8342441Y-40298396D01*
X8572603Y-40270488D01*
X8792899Y-40198212D01*
X8950627Y-40113904D01*
X9032135Y-39935533D01*
X8315840Y-39219238D01*
X7599545Y-39935533D01*
X6918317Y-39935533D01*
X6915758Y-39142601D01*
X7133444Y-39142601D01*
X7161352Y-39372763D01*
X7233628Y-39593059D01*
X7317936Y-39750787D01*
X7496307Y-39832295D01*
X8212602Y-39116000D01*
X8419078Y-39116000D01*
X9135373Y-39832295D01*
X9313744Y-39750787D01*
X9418411Y-39543908D01*
X9480706Y-39320584D01*
X9498236Y-39089399D01*
X9470328Y-38859237D01*
X9398052Y-38638941D01*
X9313744Y-38481213D01*
X9135373Y-38399705D01*
X8419078Y-39116000D01*
X8212602Y-39116000D01*
X7496307Y-38399705D01*
X7317936Y-38481213D01*
X7213269Y-38688092D01*
X7150974Y-38911416D01*
X7133444Y-39142601D01*
X6915758Y-39142601D01*
X6913028Y-38296467D01*
X7599545Y-38296467D01*
X8315840Y-39012762D01*
X9032135Y-38296467D01*
X8950627Y-38118096D01*
X8743748Y-38013429D01*
X8520424Y-37951134D01*
X8289239Y-37933604D01*
X8059077Y-37961512D01*
X7838781Y-38033788D01*
X7681053Y-38118096D01*
X7599545Y-38296467D01*
X6913028Y-38296467D01*
X6901689Y-34781873D01*
X12006565Y-34781873D01*
X12088073Y-34960244D01*
X12294952Y-35064911D01*
X12518276Y-35127206D01*
X12749461Y-35144736D01*
X12979623Y-35116828D01*
X13199919Y-35044552D01*
X13357647Y-34960244D01*
X13439155Y-34781873D01*
X12722860Y-34065578D01*
X12006565Y-34781873D01*
X6901689Y-34781873D01*
X6899130Y-33988941D01*
X11540464Y-33988941D01*
X11568372Y-34219103D01*
X11640648Y-34439399D01*
X11724956Y-34597127D01*
X11903327Y-34678635D01*
X12619622Y-33962340D01*
X12826098Y-33962340D01*
X13542393Y-34678635D01*
X13720764Y-34597127D01*
X13825431Y-34390248D01*
X13887726Y-34166924D01*
X13905256Y-33935739D01*
X13877348Y-33705577D01*
X13805072Y-33485281D01*
X13720764Y-33327553D01*
X13542393Y-33246045D01*
X12826098Y-33962340D01*
X12619622Y-33962340D01*
X11903327Y-33246045D01*
X11724956Y-33327553D01*
X11620289Y-33534432D01*
X11557994Y-33757756D01*
X11540464Y-33988941D01*
X6899130Y-33988941D01*
X6896400Y-33142807D01*
X12006565Y-33142807D01*
X12722860Y-33859102D01*
X13439155Y-33142807D01*
X13357647Y-32964436D01*
X13150768Y-32859769D01*
X12927444Y-32797474D01*
X12696259Y-32779944D01*
X12466097Y-32807852D01*
X12245801Y-32880128D01*
X12088073Y-32964436D01*
X12006565Y-33142807D01*
X6896400Y-33142807D01*
X6890378Y-31276673D01*
X7564105Y-31276673D01*
X7645613Y-31455044D01*
X7852492Y-31559711D01*
X8075816Y-31622006D01*
X8307001Y-31639536D01*
X8537163Y-31611628D01*
X8757459Y-31539352D01*
X8915187Y-31455044D01*
X8996695Y-31276673D01*
X8280400Y-30560378D01*
X7564105Y-31276673D01*
X6890378Y-31276673D01*
X6887819Y-30483741D01*
X7098004Y-30483741D01*
X7125912Y-30713903D01*
X7198188Y-30934199D01*
X7282496Y-31091927D01*
X7460867Y-31173435D01*
X8177162Y-30457140D01*
X8383638Y-30457140D01*
X9099933Y-31173435D01*
X9278304Y-31091927D01*
X9382971Y-30885048D01*
X9445266Y-30661724D01*
X9462796Y-30430539D01*
X9434888Y-30200377D01*
X9362612Y-29980081D01*
X9278304Y-29822353D01*
X9099933Y-29740845D01*
X8383638Y-30457140D01*
X8177162Y-30457140D01*
X7460867Y-29740845D01*
X7282496Y-29822353D01*
X7177829Y-30029232D01*
X7115534Y-30252556D01*
X7098004Y-30483741D01*
X6887819Y-30483741D01*
X6885089Y-29637607D01*
X7564105Y-29637607D01*
X8280400Y-30353902D01*
X8996695Y-29637607D01*
X8915187Y-29459236D01*
X8708308Y-29354569D01*
X8484984Y-29292274D01*
X8253799Y-29274744D01*
X8023637Y-29302652D01*
X7803341Y-29374928D01*
X7645613Y-29459236D01*
X7564105Y-29637607D01*
X6885089Y-29637607D01*
X6873798Y-26138253D01*
X11986245Y-26138253D01*
X12067753Y-26316624D01*
X12274632Y-26421291D01*
X12497956Y-26483586D01*
X12729141Y-26501116D01*
X12959303Y-26473208D01*
X13179599Y-26400932D01*
X13337327Y-26316624D01*
X13418835Y-26138253D01*
X12702540Y-25421958D01*
X11986245Y-26138253D01*
X6873798Y-26138253D01*
X6871239Y-25345321D01*
X11520144Y-25345321D01*
X11548052Y-25575483D01*
X11620328Y-25795779D01*
X11704636Y-25953507D01*
X11883007Y-26035015D01*
X12599302Y-25318720D01*
X12805778Y-25318720D01*
X13522073Y-26035015D01*
X13700444Y-25953507D01*
X13805111Y-25746628D01*
X13867406Y-25523304D01*
X13884936Y-25292119D01*
X13857028Y-25061957D01*
X13784752Y-24841661D01*
X13700444Y-24683933D01*
X13522073Y-24602425D01*
X12805778Y-25318720D01*
X12599302Y-25318720D01*
X11883007Y-24602425D01*
X11704636Y-24683933D01*
X11599969Y-24890812D01*
X11537674Y-25114136D01*
X11520144Y-25345321D01*
X6871239Y-25345321D01*
X6868509Y-24499187D01*
X11986245Y-24499187D01*
X12702540Y-25215482D01*
X13418835Y-24499187D01*
X13337327Y-24320816D01*
X13130448Y-24216149D01*
X12907124Y-24153854D01*
X12675939Y-24136324D01*
X12445777Y-24164232D01*
X12225481Y-24236508D01*
X12067753Y-24320816D01*
X11986245Y-24499187D01*
X6868509Y-24499187D01*
X6862438Y-22617813D01*
X7523465Y-22617813D01*
X7604973Y-22796184D01*
X7811852Y-22900851D01*
X8035176Y-22963146D01*
X8266361Y-22980676D01*
X8496523Y-22952768D01*
X8716819Y-22880492D01*
X8874547Y-22796184D01*
X8956055Y-22617813D01*
X8239760Y-21901518D01*
X7523465Y-22617813D01*
X6862438Y-22617813D01*
X6859879Y-21824881D01*
X7057364Y-21824881D01*
X7085272Y-22055043D01*
X7157548Y-22275339D01*
X7241856Y-22433067D01*
X7420227Y-22514575D01*
X8136522Y-21798280D01*
X8342998Y-21798280D01*
X9059293Y-22514575D01*
X9237664Y-22433067D01*
X9342331Y-22226188D01*
X9404626Y-22002864D01*
X9422156Y-21771679D01*
X9394248Y-21541517D01*
X9321972Y-21321221D01*
X9237664Y-21163493D01*
X9059293Y-21081985D01*
X8342998Y-21798280D01*
X8136522Y-21798280D01*
X7420227Y-21081985D01*
X7241856Y-21163493D01*
X7137189Y-21370372D01*
X7074894Y-21593696D01*
X7057364Y-21824881D01*
X6859879Y-21824881D01*
X6857149Y-20978747D01*
X7523465Y-20978747D01*
X8239760Y-21695042D01*
X8956055Y-20978747D01*
X8874547Y-20800376D01*
X8667668Y-20695709D01*
X8444344Y-20633414D01*
X8213159Y-20615884D01*
X7982997Y-20643792D01*
X7762701Y-20716068D01*
X7604973Y-20800376D01*
X7523465Y-20978747D01*
X6857149Y-20978747D01*
X6854177Y-20057442D01*
X10652796Y-20057442D01*
X10728284Y-20230697D01*
X10926648Y-20330374D01*
X11140647Y-20389436D01*
X11362057Y-20405614D01*
X11582368Y-20378286D01*
X11793115Y-20308502D01*
X11938676Y-20230697D01*
X12014164Y-20057442D01*
X11333480Y-19376758D01*
X10652796Y-20057442D01*
X6854177Y-20057442D01*
X6851739Y-19302097D01*
X10201386Y-19302097D01*
X10228714Y-19522408D01*
X10298498Y-19733155D01*
X10376303Y-19878716D01*
X10549558Y-19954204D01*
X11230242Y-19273520D01*
X11436718Y-19273520D01*
X12117402Y-19954204D01*
X12290657Y-19878716D01*
X12390334Y-19680352D01*
X12449396Y-19466353D01*
X12465574Y-19244943D01*
X12438246Y-19024632D01*
X12368462Y-18813885D01*
X12290657Y-18668324D01*
X12117402Y-18592836D01*
X11436718Y-19273520D01*
X11230242Y-19273520D01*
X10549558Y-18592836D01*
X10376303Y-18668324D01*
X10276626Y-18866688D01*
X10217564Y-19080687D01*
X10201386Y-19302097D01*
X6851739Y-19302097D01*
X6849118Y-18489598D01*
X10652796Y-18489598D01*
X11333480Y-19170282D01*
X12014164Y-18489598D01*
X11938676Y-18316343D01*
X11740312Y-18216666D01*
X11526313Y-18157604D01*
X11304903Y-18141426D01*
X11084592Y-18168754D01*
X10873845Y-18238538D01*
X10728284Y-18316343D01*
X10652796Y-18489598D01*
X6849118Y-18489598D01*
X6846042Y-17536160D01*
X11794385Y-17536160D01*
X11812283Y-17717884D01*
X11865290Y-17892624D01*
X11951369Y-18053665D01*
X12037866Y-18159062D01*
X12067211Y-18194819D01*
X12208365Y-18310661D01*
X12369406Y-18396740D01*
X12544146Y-18449747D01*
X12725870Y-18467645D01*
X12771407Y-18463160D01*
X15348785Y-18463160D01*
X15372181Y-18486556D01*
X15372180Y-19265884D01*
X15344755Y-19306929D01*
X15263569Y-19502931D01*
X15222180Y-19711005D01*
X15222180Y-19923155D01*
X15263569Y-20131229D01*
X15275541Y-20160132D01*
X15275540Y-24215822D01*
X15219990Y-24245514D01*
X15170197Y-24286377D01*
X15129334Y-24336170D01*
X15098970Y-24392977D01*
X15080272Y-24454617D01*
X15073958Y-24518720D01*
X15073958Y-26118720D01*
X15080272Y-26182823D01*
X15098970Y-26244463D01*
X15129334Y-26301270D01*
X15170197Y-26351063D01*
X15219990Y-26391926D01*
X15275540Y-26421618D01*
X15275541Y-32870303D01*
X15240310Y-32889134D01*
X15190517Y-32929997D01*
X15149654Y-32979790D01*
X15119290Y-33036597D01*
X15100592Y-33098237D01*
X15094278Y-33162340D01*
X15094278Y-34762340D01*
X15100592Y-34826443D01*
X15119290Y-34888083D01*
X15149654Y-34944890D01*
X15190517Y-34994683D01*
X15240310Y-35035546D01*
X15295860Y-35065238D01*
X15295861Y-40170200D01*
X15240847Y-40170200D01*
X15195320Y-40165716D01*
X15149793Y-40170200D01*
X15149782Y-40170200D01*
X15013596Y-40183613D01*
X14975795Y-40195080D01*
X14278647Y-40195080D01*
X14233120Y-40190596D01*
X14187593Y-40195080D01*
X14187582Y-40195080D01*
X14051396Y-40208493D01*
X13876656Y-40261500D01*
X13715615Y-40347578D01*
X13660609Y-40392721D01*
X13574461Y-40463421D01*
X13545432Y-40498793D01*
X13252733Y-40791492D01*
X13217361Y-40820521D01*
X13188333Y-40855892D01*
X13188332Y-40855893D01*
X13101519Y-40961675D01*
X13053570Y-41051381D01*
X13015440Y-41122717D01*
X12962433Y-41297457D01*
X12949020Y-41433643D01*
X12949020Y-41433653D01*
X12944536Y-41479180D01*
X12949020Y-41524708D01*
X12949021Y-43662418D01*
X12962434Y-43798604D01*
X13015441Y-43973344D01*
X13101520Y-44134385D01*
X13217362Y-44275539D01*
X13228099Y-44284350D01*
X13228752Y-44290983D01*
X13247450Y-44352623D01*
X13277814Y-44409430D01*
X13318677Y-44459223D01*
X13368470Y-44500086D01*
X13425277Y-44530450D01*
X13486917Y-44549148D01*
X13551020Y-44555462D01*
X14201020Y-44555462D01*
X14265123Y-44549148D01*
X14326763Y-44530450D01*
X14383570Y-44500086D01*
X14433363Y-44459223D01*
X14474226Y-44409430D01*
X14504590Y-44352623D01*
X14523288Y-44290983D01*
X14523941Y-44284351D01*
X14534679Y-44275539D01*
X14650521Y-44134385D01*
X14736600Y-43973344D01*
X14789607Y-43798604D01*
X14803020Y-43662418D01*
X14803020Y-42049080D01*
X15124913Y-42049080D01*
X15170440Y-42053564D01*
X15215967Y-42049080D01*
X15215978Y-42049080D01*
X15352164Y-42035667D01*
X15389965Y-42024200D01*
X15849793Y-42024200D01*
X15895320Y-42028684D01*
X15940847Y-42024200D01*
X17729293Y-42024200D01*
X17774820Y-42028684D01*
X17820347Y-42024200D01*
X17820358Y-42024200D01*
X17956544Y-42010787D01*
X18131284Y-41957780D01*
X18292325Y-41871701D01*
X18433479Y-41755859D01*
X18462508Y-41720487D01*
X18508328Y-41674667D01*
X18595141Y-41568885D01*
X18681219Y-41407844D01*
X18734226Y-41233103D01*
X18752124Y-41051381D01*
X18734226Y-40869657D01*
X18681219Y-40694917D01*
X18595141Y-40533875D01*
X18479299Y-40392721D01*
X18338145Y-40276879D01*
X18177103Y-40190801D01*
X18002363Y-40137794D01*
X17820639Y-40119896D01*
X17638917Y-40137794D01*
X17532089Y-40170200D01*
X17149860Y-40170200D01*
X17149860Y-35065238D01*
X17205410Y-35035546D01*
X17255203Y-34994683D01*
X17296066Y-34944890D01*
X17326430Y-34888083D01*
X17345128Y-34826443D01*
X17351442Y-34762340D01*
X17351442Y-33162340D01*
X17345128Y-33098237D01*
X17326430Y-33036597D01*
X17296066Y-32979790D01*
X17255203Y-32929997D01*
X17205410Y-32889134D01*
X17148603Y-32858770D01*
X17129540Y-32852987D01*
X17129540Y-26421618D01*
X17185090Y-26391926D01*
X17234883Y-26351063D01*
X17275746Y-26301270D01*
X17306110Y-26244463D01*
X17324808Y-26182823D01*
X17331122Y-26118720D01*
X17331122Y-24518720D01*
X17324808Y-24454617D01*
X17306110Y-24392977D01*
X17275746Y-24336170D01*
X17234883Y-24286377D01*
X17185090Y-24245514D01*
X17129540Y-24215822D01*
X17129540Y-20509827D01*
X17135740Y-20503627D01*
X17253605Y-20327231D01*
X17334791Y-20131229D01*
X17376180Y-19923155D01*
X17376180Y-19711005D01*
X17334791Y-19502931D01*
X17253605Y-19306929D01*
X17226180Y-19265885D01*
X17226180Y-18148107D01*
X17230664Y-18102580D01*
X17226180Y-18057053D01*
X17226180Y-18057042D01*
X17212767Y-17920856D01*
X17159760Y-17746116D01*
X17113010Y-17658654D01*
X17073681Y-17585074D01*
X16986868Y-17479293D01*
X16957839Y-17443921D01*
X16922467Y-17414892D01*
X16420448Y-16912873D01*
X16391419Y-16877501D01*
X16250265Y-16761659D01*
X16089224Y-16675580D01*
X15914484Y-16622573D01*
X15778298Y-16609160D01*
X15778287Y-16609160D01*
X15732760Y-16604676D01*
X15687233Y-16609160D01*
X13100556Y-16609160D01*
X13082334Y-16599420D01*
X12907594Y-16546413D01*
X12725870Y-16528515D01*
X12544147Y-16546413D01*
X12369407Y-16599420D01*
X12208366Y-16685499D01*
X12067211Y-16801341D01*
X11951369Y-16942495D01*
X11865290Y-17103536D01*
X11812283Y-17278276D01*
X11798870Y-17414462D01*
X11798870Y-17490622D01*
X11794385Y-17536160D01*
X6846042Y-17536160D01*
X6835139Y-14157550D01*
X6835137Y-14157124D01*
X6832597Y-13771044D01*
X6829994Y-13746285D01*
X6822610Y-13722508D01*
X6810730Y-13700629D01*
X6794810Y-13681489D01*
X6775461Y-13665821D01*
X6753428Y-13654230D01*
X6729556Y-13647160D01*
X6707046Y-13644888D01*
X5220920Y-13627970D01*
X5220920Y-13114162D01*
X5223469Y-13088281D01*
X5213294Y-12984972D01*
X5183159Y-12885632D01*
X5176619Y-12873396D01*
X9067999Y-12873396D01*
X9067999Y-13016602D01*
X9095937Y-13157057D01*
X9150740Y-13289363D01*
X9230301Y-13408435D01*
X9331563Y-13509697D01*
X9450635Y-13589258D01*
X9582941Y-13644061D01*
X9723396Y-13671999D01*
X9866602Y-13671999D01*
X10007057Y-13644061D01*
X10139363Y-13589258D01*
X10258435Y-13509697D01*
X10296133Y-13471999D01*
X16193865Y-13471999D01*
X16246564Y-13524698D01*
X16365636Y-13604259D01*
X16497942Y-13659062D01*
X16638397Y-13687000D01*
X16781603Y-13687000D01*
X16922058Y-13659062D01*
X17054364Y-13604259D01*
X17173436Y-13524698D01*
X17274698Y-13423436D01*
X17354259Y-13304364D01*
X17409062Y-13172058D01*
X17437000Y-13031603D01*
X17437000Y-12888397D01*
X17409062Y-12747942D01*
X17354259Y-12615636D01*
X17274698Y-12496564D01*
X17173436Y-12395302D01*
X17054364Y-12315741D01*
X16922058Y-12260938D01*
X16781603Y-12233000D01*
X16638397Y-12233000D01*
X16497942Y-12260938D01*
X16365636Y-12315741D01*
X16246564Y-12395302D01*
X16223867Y-12417999D01*
X10296133Y-12417999D01*
X10258435Y-12380301D01*
X10139363Y-12300740D01*
X10007057Y-12245937D01*
X9866602Y-12217999D01*
X9723396Y-12217999D01*
X9582941Y-12245937D01*
X9450635Y-12300740D01*
X9331563Y-12380301D01*
X9230301Y-12481563D01*
X9150740Y-12600635D01*
X9095937Y-12732941D01*
X9067999Y-12873396D01*
X5176619Y-12873396D01*
X5134224Y-12794080D01*
X5068368Y-12713834D01*
X5048254Y-12697327D01*
X4785394Y-12434467D01*
X4768887Y-12414353D01*
X4688641Y-12348497D01*
X4597089Y-12299562D01*
X4497749Y-12269427D01*
X4420320Y-12261801D01*
X4394439Y-12259252D01*
X4368558Y-12261801D01*
X1193090Y-12261801D01*
X26206Y-11094918D01*
X124364Y-11054259D01*
X243436Y-10974698D01*
X344698Y-10873436D01*
X424259Y-10754364D01*
X479062Y-10622058D01*
X507000Y-10481603D01*
X507000Y-10338397D01*
X9993000Y-10338397D01*
X9993000Y-10481603D01*
X10020938Y-10622058D01*
X10075741Y-10754364D01*
X10155302Y-10873436D01*
X10256564Y-10974698D01*
X10375636Y-11054259D01*
X10507942Y-11109062D01*
X10648397Y-11137000D01*
X10791603Y-11137000D01*
X10932058Y-11109062D01*
X11064364Y-11054259D01*
X11183436Y-10974698D01*
X11221134Y-10937000D01*
X17588866Y-10937000D01*
X17596564Y-10944698D01*
X17715636Y-11024259D01*
X17847942Y-11079062D01*
X17988397Y-11107000D01*
X18131603Y-11107000D01*
X18272058Y-11079062D01*
X18404364Y-11024259D01*
X18523436Y-10944698D01*
X18624698Y-10843436D01*
X18704259Y-10724364D01*
X18759062Y-10592058D01*
X18787000Y-10451603D01*
X18787000Y-10308397D01*
X18759062Y-10167942D01*
X18704259Y-10035636D01*
X18624698Y-9916564D01*
X18523436Y-9815302D01*
X18404364Y-9735741D01*
X18272058Y-9680938D01*
X18131603Y-9653000D01*
X17988397Y-9653000D01*
X17847942Y-9680938D01*
X17715636Y-9735741D01*
X17596564Y-9815302D01*
X17528866Y-9883000D01*
X11221134Y-9883000D01*
X11183436Y-9845302D01*
X11064364Y-9765741D01*
X10932058Y-9710938D01*
X10791603Y-9683000D01*
X10648397Y-9683000D01*
X10507942Y-9710938D01*
X10375636Y-9765741D01*
X10256564Y-9845302D01*
X10155302Y-9946564D01*
X10075741Y-10065636D01*
X10020938Y-10197942D01*
X9993000Y-10338397D01*
X507000Y-10338397D01*
X479062Y-10197942D01*
X424259Y-10065636D01*
X344698Y-9946564D01*
X243436Y-9845302D01*
X124364Y-9765741D01*
X-7942Y-9710938D01*
X-128287Y-9687000D01*
X4284119Y-9687000D01*
X4310000Y-9689549D01*
X4335881Y-9687000D01*
X4413310Y-9679374D01*
X4512650Y-9649239D01*
X4604202Y-9600304D01*
X4684448Y-9534448D01*
X4700955Y-9514334D01*
X6729744Y-7485546D01*
X6749848Y-7469048D01*
X6815704Y-7388802D01*
X6864639Y-7297250D01*
X6894774Y-7197910D01*
X6902400Y-7120481D01*
X6904949Y-7094600D01*
X6902400Y-7068719D01*
X6902400Y-2351085D01*
X6932919Y-2338444D01*
X7125694Y-2209636D01*
X7289636Y-2045694D01*
X7418444Y-1852919D01*
X7507169Y-1638718D01*
X7552400Y-1411324D01*
X7552400Y-1179476D01*
X7738400Y-1179476D01*
X7738400Y-1411324D01*
X7783631Y-1638718D01*
X7872356Y-1852919D01*
X8001164Y-2045694D01*
X8165106Y-2209636D01*
X8357881Y-2338444D01*
X8572082Y-2427169D01*
X8799476Y-2472400D01*
X9031324Y-2472400D01*
X9258718Y-2427169D01*
X9472919Y-2338444D01*
X9665694Y-2209636D01*
X9829636Y-2045694D01*
X9958444Y-1852919D01*
X10047169Y-1638718D01*
X10092400Y-1411324D01*
X10092400Y-1179476D01*
X10278400Y-1179476D01*
X10278400Y-1411324D01*
X10323631Y-1638718D01*
X10412356Y-1852919D01*
X10541164Y-2045694D01*
X10705106Y-2209636D01*
X10897881Y-2338444D01*
X11112082Y-2427169D01*
X11339476Y-2472400D01*
X11571324Y-2472400D01*
X11798718Y-2427169D01*
X12012919Y-2338444D01*
X12205694Y-2209636D01*
X12369636Y-2045694D01*
X12498444Y-1852919D01*
X12587169Y-1638718D01*
X12632400Y-1411324D01*
X12632400Y-1179476D01*
X12587169Y-952082D01*
X12498444Y-737881D01*
X12369636Y-545106D01*
X12205694Y-381164D01*
X12012919Y-252356D01*
X11798718Y-163631D01*
X11571324Y-118400D01*
X11339476Y-118400D01*
X11112082Y-163631D01*
X10897881Y-252356D01*
X10705106Y-381164D01*
X10541164Y-545106D01*
X10412356Y-737881D01*
X10323631Y-952082D01*
X10278400Y-1179476D01*
X10092400Y-1179476D01*
X10047169Y-952082D01*
X9958444Y-737881D01*
X9829636Y-545106D01*
X9665694Y-381164D01*
X9472919Y-252356D01*
X9258718Y-163631D01*
X9031324Y-118400D01*
X8799476Y-118400D01*
X8572082Y-163631D01*
X8357881Y-252356D01*
X8165106Y-381164D01*
X8001164Y-545106D01*
X7872356Y-737881D01*
X7783631Y-952082D01*
X7738400Y-1179476D01*
X7552400Y-1179476D01*
X7507169Y-952082D01*
X7418444Y-737881D01*
X7289636Y-545106D01*
X7125694Y-381164D01*
X6932919Y-252356D01*
X6718718Y-163631D01*
X6491324Y-118400D01*
X6259476Y-118400D01*
X6032082Y-163631D01*
X5817881Y-252356D01*
X5625106Y-381164D01*
X5461164Y-545106D01*
X5332356Y-737881D01*
X5243631Y-952082D01*
X5198400Y-1179476D01*
X5198400Y-1411324D01*
X5243631Y-1638718D01*
X5332356Y-1852919D01*
X5461164Y-2045694D01*
X5625106Y-2209636D01*
X5817881Y-2338444D01*
X5848400Y-2351085D01*
X5848401Y-6876308D01*
X4091711Y-8633000D01*
X-7593471Y-8633000D01*
X-7545778Y-8517858D01*
X-7517840Y-8377403D01*
X-7517840Y-8234197D01*
X-7545778Y-8093742D01*
X-7600581Y-7961436D01*
X-7680142Y-7842364D01*
X-7781404Y-7741102D01*
X-7799120Y-7729265D01*
X-7799120Y-7196647D01*
X-7639573Y-7090040D01*
X-7489560Y-6940027D01*
X-7371695Y-6763631D01*
X-7290509Y-6567629D01*
X-7249120Y-6359555D01*
X-7249120Y-6147405D01*
X-7274701Y-6018803D01*
X-7231559Y-6061945D01*
X-7217399Y-6079199D01*
X-7148573Y-6135683D01*
X-7077032Y-6173922D01*
X-7070050Y-6177654D01*
X-7028837Y-6190156D01*
X-6986141Y-6242181D01*
X-6913997Y-6301388D01*
X-6886447Y-6316114D01*
X-6871214Y-6366329D01*
X-6829243Y-6444852D01*
X-6772759Y-6513679D01*
X-6755500Y-6527843D01*
X-6571397Y-6711947D01*
X-6574080Y-6725437D01*
X-6574080Y-6868643D01*
X-6546142Y-7009098D01*
X-6491339Y-7141404D01*
X-6411778Y-7260476D01*
X-6310516Y-7361738D01*
X-6191444Y-7441299D01*
X-6059138Y-7496102D01*
X-5918683Y-7524040D01*
X-5775477Y-7524040D01*
X-5635022Y-7496102D01*
X-5502716Y-7441299D01*
X-5383644Y-7361738D01*
X-5282382Y-7260476D01*
X-5202821Y-7141404D01*
X-5148018Y-7009098D01*
X-5120080Y-6868643D01*
X-5120080Y-6725437D01*
X-5122763Y-6711947D01*
X-5025014Y-6614198D01*
X-5007761Y-6600039D01*
X-4951277Y-6531213D01*
X-4909306Y-6452690D01*
X-4894780Y-6404804D01*
X-4883460Y-6367488D01*
X-4877635Y-6308344D01*
X-4841123Y-6288828D01*
X-4768979Y-6229621D01*
X-4709772Y-6157477D01*
X-4707032Y-6152350D01*
X-4698186Y-6242164D01*
X-4645179Y-6416904D01*
X-4559100Y-6577945D01*
X-4443258Y-6719099D01*
X-4302104Y-6834941D01*
X-4141063Y-6921020D01*
X-3966323Y-6974027D01*
X-3784600Y-6991925D01*
X-3602876Y-6974027D01*
X-3428136Y-6921020D01*
X-3267095Y-6834941D01*
X-3125941Y-6719099D01*
X-3010099Y-6577945D01*
X-2924020Y-6416904D01*
X-2871013Y-6242164D01*
X-2857600Y-6105978D01*
X-2857600Y-2026591D01*
X-2741556Y-1852919D01*
X-2652831Y-1638718D01*
X-2636996Y-1559107D01*
X-2442931Y-1559107D01*
X-2368459Y-1787823D01*
X-2250797Y-1997615D01*
X-2094468Y-2180421D01*
X-1905479Y-2329217D01*
X-1691093Y-2438284D01*
X-1508306Y-2493728D01*
X-1317600Y-2425795D01*
X-1317600Y-1368400D01*
X-1171600Y-1368400D01*
X-1171600Y-2425795D01*
X-980894Y-2493728D01*
X-798107Y-2438284D01*
X-583721Y-2329217D01*
X-394732Y-2180421D01*
X-238403Y-1997615D01*
X-120741Y-1787823D01*
X-46269Y-1559107D01*
X-114020Y-1368400D01*
X-1171600Y-1368400D01*
X-1317600Y-1368400D01*
X-2375180Y-1368400D01*
X-2442931Y-1559107D01*
X-2636996Y-1559107D01*
X-2607600Y-1411324D01*
X-2607600Y-1179476D01*
X-2636995Y-1031693D01*
X-2442931Y-1031693D01*
X-2375180Y-1222400D01*
X-1317600Y-1222400D01*
X-1317600Y-165005D01*
X-1171600Y-165005D01*
X-1171600Y-1222400D01*
X-114020Y-1222400D01*
X-98771Y-1179476D01*
X118400Y-1179476D01*
X118400Y-1411324D01*
X163631Y-1638718D01*
X252356Y-1852919D01*
X381164Y-2045694D01*
X545106Y-2209636D01*
X737881Y-2338444D01*
X952082Y-2427169D01*
X1179476Y-2472400D01*
X1411324Y-2472400D01*
X1638718Y-2427169D01*
X1852919Y-2338444D01*
X2045694Y-2209636D01*
X2209636Y-2045694D01*
X2338444Y-1852919D01*
X2427169Y-1638718D01*
X2472400Y-1411324D01*
X2472400Y-1179476D01*
X2658400Y-1179476D01*
X2658400Y-1411324D01*
X2703631Y-1638718D01*
X2792356Y-1852919D01*
X2921164Y-2045694D01*
X3085106Y-2209636D01*
X3277881Y-2338444D01*
X3492082Y-2427169D01*
X3719476Y-2472400D01*
X3951324Y-2472400D01*
X4178718Y-2427169D01*
X4392919Y-2338444D01*
X4585694Y-2209636D01*
X4749636Y-2045694D01*
X4878444Y-1852919D01*
X4967169Y-1638718D01*
X5012400Y-1411324D01*
X5012400Y-1179476D01*
X4967169Y-952082D01*
X4878444Y-737881D01*
X4749636Y-545106D01*
X4585694Y-381164D01*
X4392919Y-252356D01*
X4178718Y-163631D01*
X3951324Y-118400D01*
X3719476Y-118400D01*
X3492082Y-163631D01*
X3277881Y-252356D01*
X3085106Y-381164D01*
X2921164Y-545106D01*
X2792356Y-737881D01*
X2703631Y-952082D01*
X2658400Y-1179476D01*
X2472400Y-1179476D01*
X2427169Y-952082D01*
X2338444Y-737881D01*
X2209636Y-545106D01*
X2045694Y-381164D01*
X1852919Y-252356D01*
X1638718Y-163631D01*
X1411324Y-118400D01*
X1179476Y-118400D01*
X952082Y-163631D01*
X737881Y-252356D01*
X545106Y-381164D01*
X381164Y-545106D01*
X252356Y-737881D01*
X163631Y-952082D01*
X118400Y-1179476D01*
X-98771Y-1179476D01*
X-46269Y-1031693D01*
X-120741Y-802977D01*
X-238403Y-593185D01*
X-394732Y-410379D01*
X-583721Y-261583D01*
X-798107Y-152516D01*
X-980894Y-97072D01*
X-1171600Y-165005D01*
X-1317600Y-165005D01*
X-1508306Y-97072D01*
X-1691093Y-152516D01*
X-1905479Y-261583D01*
X-2094468Y-410379D01*
X-2250797Y-593185D01*
X-2368459Y-802977D01*
X-2442931Y-1031693D01*
X-2636995Y-1031693D01*
X-2652831Y-952082D01*
X-2741556Y-737881D01*
X-2870364Y-545106D01*
X-3034306Y-381164D01*
X-3227081Y-252356D01*
X-3441282Y-163631D01*
X-3668676Y-118400D01*
X-3900524Y-118400D01*
X-4127918Y-163631D01*
X-4342119Y-252356D01*
X-4534894Y-381164D01*
X-4698836Y-545106D01*
X-4827644Y-737881D01*
X-4916369Y-952082D01*
X-4961600Y-1179476D01*
X-4961600Y-1411324D01*
X-4916369Y-1638718D01*
X-4827644Y-1852919D01*
X-4711600Y-2026592D01*
X-4711599Y-2770172D01*
X-4713422Y-2767444D01*
X-4814684Y-2666182D01*
X-4933756Y-2586621D01*
X-5066062Y-2531818D01*
X-5206517Y-2503880D01*
X-5349723Y-2503880D01*
X-5490178Y-2531818D01*
X-5622484Y-2586621D01*
X-5741556Y-2666182D01*
X-5842818Y-2767444D01*
X-5922379Y-2886516D01*
X-5977182Y-3018822D01*
X-6005120Y-3159277D01*
X-6005120Y-3302483D01*
X-5978119Y-3438227D01*
X-6013564Y-3402782D01*
X-6132636Y-3323221D01*
X-6264942Y-3268418D01*
X-6405397Y-3240480D01*
X-6548603Y-3240480D01*
X-6689058Y-3268418D01*
X-6821364Y-3323221D01*
X-6940436Y-3402782D01*
X-7041698Y-3504044D01*
X-7121259Y-3623116D01*
X-7176062Y-3755422D01*
X-7203560Y-3893665D01*
X-7203560Y-3168468D01*
X-7201373Y-3146263D01*
X-7210100Y-3057656D01*
X-7219755Y-3025829D01*
X-7235946Y-2972454D01*
X-7277917Y-2893931D01*
X-7334401Y-2825105D01*
X-7351650Y-2810949D01*
X-7741511Y-2421090D01*
X-7755675Y-2403831D01*
X-7824501Y-2347347D01*
X-7903024Y-2305376D01*
X-7988227Y-2279530D01*
X-8054629Y-2272990D01*
X-8076834Y-2270803D01*
X-8099039Y-2272990D01*
X-8209122Y-2272990D01*
X-8114306Y-2209636D01*
X-7950364Y-2045694D01*
X-7821556Y-1852919D01*
X-7732831Y-1638718D01*
X-7716996Y-1559107D01*
X-7522931Y-1559107D01*
X-7448459Y-1787823D01*
X-7330797Y-1997615D01*
X-7174468Y-2180421D01*
X-6985479Y-2329217D01*
X-6771093Y-2438284D01*
X-6588306Y-2493728D01*
X-6397600Y-2425795D01*
X-6397600Y-1368400D01*
X-6251600Y-1368400D01*
X-6251600Y-2425795D01*
X-6060894Y-2493728D01*
X-5878107Y-2438284D01*
X-5663721Y-2329217D01*
X-5474732Y-2180421D01*
X-5318403Y-1997615D01*
X-5200741Y-1787823D01*
X-5126269Y-1559107D01*
X-5194020Y-1368400D01*
X-6251600Y-1368400D01*
X-6397600Y-1368400D01*
X-7455180Y-1368400D01*
X-7522931Y-1559107D01*
X-7716996Y-1559107D01*
X-7687600Y-1411324D01*
X-7687600Y-1179476D01*
X-7716995Y-1031693D01*
X-7522931Y-1031693D01*
X-7455180Y-1222400D01*
X-6397600Y-1222400D01*
X-6397600Y-165005D01*
X-6251600Y-165005D01*
X-6251600Y-1222400D01*
X-5194020Y-1222400D01*
X-5126269Y-1031693D01*
X-5200741Y-802977D01*
X-5318403Y-593185D01*
X-5474732Y-410379D01*
X-5663721Y-261583D01*
X-5878107Y-152516D01*
X-6060894Y-97072D01*
X-6251600Y-165005D01*
X-6397600Y-165005D01*
X-6588306Y-97072D01*
X-6771093Y-152516D01*
X-6985479Y-261583D01*
X-7174468Y-410379D01*
X-7330797Y-593185D01*
X-7448459Y-802977D01*
X-7522931Y-1031693D01*
X-7716995Y-1031693D01*
X-7732831Y-952082D01*
X-7821556Y-737881D01*
X-7950364Y-545106D01*
X-8114306Y-381164D01*
X-8307081Y-252356D01*
X-8521282Y-163631D01*
X-8748676Y-118400D01*
X-8980524Y-118400D01*
X-9207918Y-163631D01*
X-9422119Y-252356D01*
X-9614894Y-381164D01*
X-9778836Y-545106D01*
X-9907644Y-737881D01*
X-9996369Y-952082D01*
X-10041600Y-1179476D01*
X-10041600Y-1411324D01*
X-9996369Y-1638718D01*
X-9907644Y-1852919D01*
X-9778836Y-2045694D01*
X-9614894Y-2209636D01*
X-9422119Y-2338444D01*
X-9316600Y-2382152D01*
X-9316600Y-2682465D01*
X-9318787Y-2704670D01*
X-9316982Y-2723000D01*
X-12751709Y-2723000D01*
X-13443000Y-2031711D01*
X-13443000Y-445400D01*
X-12583182Y-445400D01*
X-12583182Y-2145400D01*
X-12576868Y-2209503D01*
X-12558170Y-2271143D01*
X-12527806Y-2327950D01*
X-12486943Y-2377743D01*
X-12437150Y-2418606D01*
X-12380343Y-2448970D01*
X-12318703Y-2467668D01*
X-12254600Y-2473982D01*
X-10554600Y-2473982D01*
X-10490497Y-2467668D01*
X-10428857Y-2448970D01*
X-10372050Y-2418606D01*
X-10322257Y-2377743D01*
X-10281394Y-2327950D01*
X-10251030Y-2271143D01*
X-10232332Y-2209503D01*
X-10226018Y-2145400D01*
X-10226018Y-445400D01*
X-10232332Y-381297D01*
X-10251030Y-319657D01*
X-10281394Y-262850D01*
X-10322257Y-213057D01*
X-10372050Y-172194D01*
X-10428857Y-141830D01*
X-10490497Y-123132D01*
X-10554600Y-116818D01*
X-12254600Y-116818D01*
X-12318703Y-123132D01*
X-12380343Y-141830D01*
X-12437150Y-172194D01*
X-12486943Y-213057D01*
X-12527806Y-262850D01*
X-12558170Y-319657D01*
X-12576868Y-381297D01*
X-12583182Y-445400D01*
X-13443000Y-445400D01*
X-13443000Y1360524D01*
X-12581600Y1360524D01*
X-12581600Y1128676D01*
X-12536369Y901282D01*
X-12447644Y687081D01*
X-12318836Y494306D01*
X-12154894Y330364D01*
X-11962119Y201556D01*
X-11747918Y112831D01*
X-11520524Y67600D01*
X-11288676Y67600D01*
X-11061282Y112831D01*
X-10847081Y201556D01*
X-10654306Y330364D01*
X-10490364Y494306D01*
X-10361556Y687081D01*
X-10272831Y901282D01*
X-10227600Y1128676D01*
X-10227600Y1360524D01*
X-10041600Y1360524D01*
X-10041600Y1128676D01*
X-9996369Y901282D01*
X-9907644Y687081D01*
X-9778836Y494306D01*
X-9614894Y330364D01*
X-9422119Y201556D01*
X-9207918Y112831D01*
X-8980524Y67600D01*
X-8748676Y67600D01*
X-8521282Y112831D01*
X-8307081Y201556D01*
X-8114306Y330364D01*
X-7950364Y494306D01*
X-7821556Y687081D01*
X-7732831Y901282D01*
X-7687600Y1128676D01*
X-7687600Y1360524D01*
X-7501600Y1360524D01*
X-7501600Y1128676D01*
X-7456369Y901282D01*
X-7367644Y687081D01*
X-7238836Y494306D01*
X-7074894Y330364D01*
X-6882119Y201556D01*
X-6667918Y112831D01*
X-6440524Y67600D01*
X-6208676Y67600D01*
X-5981282Y112831D01*
X-5767081Y201556D01*
X-5574306Y330364D01*
X-5410364Y494306D01*
X-5281556Y687081D01*
X-5192831Y901282D01*
X-5176996Y980893D01*
X-4982931Y980893D01*
X-4908459Y752177D01*
X-4790797Y542385D01*
X-4634468Y359579D01*
X-4445479Y210783D01*
X-4231093Y101716D01*
X-4048306Y46272D01*
X-3857600Y114205D01*
X-3857600Y1171600D01*
X-3711600Y1171600D01*
X-3711600Y114205D01*
X-3520894Y46272D01*
X-3338107Y101716D01*
X-3123721Y210783D01*
X-2934732Y359579D01*
X-2778403Y542385D01*
X-2660741Y752177D01*
X-2586269Y980893D01*
X-2654020Y1171600D01*
X-3711600Y1171600D01*
X-3857600Y1171600D01*
X-4915180Y1171600D01*
X-4982931Y980893D01*
X-5176996Y980893D01*
X-5147600Y1128676D01*
X-5147600Y1360524D01*
X-5176995Y1508307D01*
X-4982931Y1508307D01*
X-4915180Y1317600D01*
X-3857600Y1317600D01*
X-3857600Y2374995D01*
X-3711600Y2374995D01*
X-3711600Y1317600D01*
X-2654020Y1317600D01*
X-2638771Y1360524D01*
X-2421600Y1360524D01*
X-2421600Y1128676D01*
X-2376369Y901282D01*
X-2287644Y687081D01*
X-2158836Y494306D01*
X-1994894Y330364D01*
X-1802119Y201556D01*
X-1587918Y112831D01*
X-1360524Y67600D01*
X-1128676Y67600D01*
X-901282Y112831D01*
X-687081Y201556D01*
X-494306Y330364D01*
X-330364Y494306D01*
X-201556Y687081D01*
X-112831Y901282D01*
X-67600Y1128676D01*
X-67600Y1360524D01*
X118400Y1360524D01*
X118400Y1128676D01*
X163631Y901282D01*
X252356Y687081D01*
X381164Y494306D01*
X545106Y330364D01*
X737881Y201556D01*
X952082Y112831D01*
X1179476Y67600D01*
X1411324Y67600D01*
X1638718Y112831D01*
X1852919Y201556D01*
X2045694Y330364D01*
X2209636Y494306D01*
X2338444Y687081D01*
X2427169Y901282D01*
X2472400Y1128676D01*
X2472400Y1360524D01*
X2658400Y1360524D01*
X2658400Y1128676D01*
X2703631Y901282D01*
X2792356Y687081D01*
X2921164Y494306D01*
X3085106Y330364D01*
X3277881Y201556D01*
X3492082Y112831D01*
X3719476Y67600D01*
X3951324Y67600D01*
X4178718Y112831D01*
X4392919Y201556D01*
X4585694Y330364D01*
X4749636Y494306D01*
X4878444Y687081D01*
X4967169Y901282D01*
X5012400Y1128676D01*
X5012400Y1360524D01*
X4967169Y1587918D01*
X4878444Y1802119D01*
X4749636Y1994894D01*
X4585694Y2158836D01*
X4392919Y2287644D01*
X4178718Y2376369D01*
X3951324Y2421600D01*
X3719476Y2421600D01*
X3492082Y2376369D01*
X3277881Y2287644D01*
X3085106Y2158836D01*
X2921164Y1994894D01*
X2792356Y1802119D01*
X2703631Y1587918D01*
X2658400Y1360524D01*
X2472400Y1360524D01*
X2427169Y1587918D01*
X2338444Y1802119D01*
X2209636Y1994894D01*
X2045694Y2158836D01*
X1852919Y2287644D01*
X1638718Y2376369D01*
X1411324Y2421600D01*
X1179476Y2421600D01*
X952082Y2376369D01*
X737881Y2287644D01*
X545106Y2158836D01*
X381164Y1994894D01*
X252356Y1802119D01*
X163631Y1587918D01*
X118400Y1360524D01*
X-67600Y1360524D01*
X-112831Y1587918D01*
X-201556Y1802119D01*
X-330364Y1994894D01*
X-494306Y2158836D01*
X-687081Y2287644D01*
X-901282Y2376369D01*
X-1128676Y2421600D01*
X-1360524Y2421600D01*
X-1587918Y2376369D01*
X-1802119Y2287644D01*
X-1994894Y2158836D01*
X-2158836Y1994894D01*
X-2287644Y1802119D01*
X-2376369Y1587918D01*
X-2421600Y1360524D01*
X-2638771Y1360524D01*
X-2586269Y1508307D01*
X-2660741Y1737023D01*
X-2778403Y1946815D01*
X-2934732Y2129621D01*
X-3123721Y2278417D01*
X-3338107Y2387484D01*
X-3520894Y2442928D01*
X-3711600Y2374995D01*
X-3857600Y2374995D01*
X-4048306Y2442928D01*
X-4231093Y2387484D01*
X-4445479Y2278417D01*
X-4634468Y2129621D01*
X-4790797Y1946815D01*
X-4908459Y1737023D01*
X-4982931Y1508307D01*
X-5176995Y1508307D01*
X-5192831Y1587918D01*
X-5281556Y1802119D01*
X-5410364Y1994894D01*
X-5574306Y2158836D01*
X-5767081Y2287644D01*
X-5981282Y2376369D01*
X-6208676Y2421600D01*
X-6440524Y2421600D01*
X-6667918Y2376369D01*
X-6882119Y2287644D01*
X-7074894Y2158836D01*
X-7238836Y1994894D01*
X-7367644Y1802119D01*
X-7456369Y1587918D01*
X-7501600Y1360524D01*
X-7687600Y1360524D01*
X-7732831Y1587918D01*
X-7821556Y1802119D01*
X-7950364Y1994894D01*
X-8114306Y2158836D01*
X-8307081Y2287644D01*
X-8521282Y2376369D01*
X-8748676Y2421600D01*
X-8980524Y2421600D01*
X-9207918Y2376369D01*
X-9422119Y2287644D01*
X-9614894Y2158836D01*
X-9778836Y1994894D01*
X-9907644Y1802119D01*
X-9996369Y1587918D01*
X-10041600Y1360524D01*
X-10227600Y1360524D01*
X-10272831Y1587918D01*
X-10361556Y1802119D01*
X-10490364Y1994894D01*
X-10654306Y2158836D01*
X-10847081Y2287644D01*
X-11061282Y2376369D01*
X-11288676Y2421600D01*
X-11520524Y2421600D01*
X-11747918Y2376369D01*
X-11962119Y2287644D01*
X-12154894Y2158836D01*
X-12318836Y1994894D01*
X-12447644Y1802119D01*
X-12536369Y1587918D01*
X-12581600Y1360524D01*
X-13443000Y1360524D01*
X-13443000Y2475280D01*
X5379871Y2475280D01*
X5667792Y2187358D01*
X5625106Y2158836D01*
X5461164Y1994894D01*
X5332356Y1802119D01*
X5243631Y1587918D01*
X5198400Y1360524D01*
X5198400Y1128676D01*
X5243631Y901282D01*
X5332356Y687081D01*
X5461164Y494306D01*
X5625106Y330364D01*
X5817881Y201556D01*
X6032082Y112831D01*
X6259476Y67600D01*
X6491324Y67600D01*
X6718718Y112831D01*
X6932919Y201556D01*
X7125694Y330364D01*
X7289636Y494306D01*
X7418444Y687081D01*
X7507169Y901282D01*
X7552400Y1128676D01*
X7552400Y1360524D01*
X7738400Y1360524D01*
X7738400Y1128676D01*
X7783631Y901282D01*
X7872356Y687081D01*
X8001164Y494306D01*
X8165106Y330364D01*
X8357881Y201556D01*
X8572082Y112831D01*
X8799476Y67600D01*
X9031324Y67600D01*
X9258718Y112831D01*
X9472919Y201556D01*
X9665694Y330364D01*
X9829636Y494306D01*
X9958444Y687081D01*
X10047169Y901282D01*
X10092400Y1128676D01*
X10092400Y1360524D01*
X10278400Y1360524D01*
X10278400Y1128676D01*
X10323631Y901282D01*
X10412356Y687081D01*
X10541164Y494306D01*
X10705106Y330364D01*
X10897881Y201556D01*
X11112082Y112831D01*
X11339476Y67600D01*
X11571324Y67600D01*
X11798718Y112831D01*
X12012919Y201556D01*
X12205694Y330364D01*
X12369636Y494306D01*
X12498444Y687081D01*
X12587169Y901282D01*
X12632400Y1128676D01*
X12632400Y1360524D01*
X12587169Y1587918D01*
X12498444Y1802119D01*
X12369636Y1994894D01*
X12205694Y2158836D01*
X12012919Y2287644D01*
X11798718Y2376369D01*
X11571324Y2421600D01*
X11339476Y2421600D01*
X11112082Y2376369D01*
X10897881Y2287644D01*
X10705106Y2158836D01*
X10541164Y1994894D01*
X10412356Y1802119D01*
X10323631Y1587918D01*
X10278400Y1360524D01*
X10092400Y1360524D01*
X10047169Y1587918D01*
X9958444Y1802119D01*
X9829636Y1994894D01*
X9665694Y2158836D01*
X9472919Y2287644D01*
X9258718Y2376369D01*
X9031324Y2421600D01*
X8799476Y2421600D01*
X8572082Y2376369D01*
X8357881Y2287644D01*
X8165106Y2158836D01*
X8001164Y1994894D01*
X7872356Y1802119D01*
X7783631Y1587918D01*
X7738400Y1360524D01*
X7552400Y1360524D01*
X7507169Y1587918D01*
X7418444Y1802119D01*
X7289636Y1994894D01*
X7125694Y2158836D01*
X6932919Y2287644D01*
X6897331Y2302385D01*
X6894774Y2328350D01*
X6864639Y2427690D01*
X6815704Y2519242D01*
X6749848Y2599488D01*
X6729739Y2615991D01*
X5989115Y3356614D01*
X5972608Y3376728D01*
X5892362Y3442584D01*
X5800810Y3491519D01*
X5701470Y3521654D01*
X5624041Y3529280D01*
X5598160Y3531829D01*
X5572279Y3529280D01*
X-13944119Y3529280D01*
X-13970000Y3531829D01*
X-13995881Y3529280D01*
X-14073310Y3521654D01*
X-14172650Y3491519D01*
X-14264202Y3442584D01*
X-14344448Y3376728D01*
X-14410304Y3296482D01*
X-14459239Y3204930D01*
X-14489374Y3105590D01*
X-14499549Y3002280D01*
X-14497000Y2976399D01*
X-14496999Y-2128862D01*
X-14499374Y-2136691D01*
X-14509549Y-2240000D01*
X-14499374Y-2343309D01*
X-14469239Y-2442649D01*
X-14420304Y-2534201D01*
X-14354447Y-2614447D01*
X-14334344Y-2630945D01*
X-13360947Y-3604344D01*
X-13344448Y-3624448D01*
X-13264202Y-3690304D01*
X-13172650Y-3739239D01*
X-13073310Y-3769374D01*
X-12970000Y-3779549D01*
X-12944119Y-3777000D01*
X-8787080Y-3777000D01*
X-8787079Y-5278679D01*
X-8836271Y-5299055D01*
X-9012667Y-5416920D01*
X-9162680Y-5566933D01*
X-9280545Y-5743329D01*
X-9361731Y-5939331D01*
X-9403120Y-6147405D01*
X-9403120Y-6359555D01*
X-9361731Y-6567629D01*
X-9280545Y-6763631D01*
X-9162680Y-6940027D01*
X-9012667Y-7090040D01*
X-8853120Y-7196647D01*
X-8853119Y-7907588D01*
X-8889099Y-7961436D01*
X-8943902Y-8093742D01*
X-8971840Y-8234197D01*
X-8971840Y-8377403D01*
X-8943902Y-8517858D01*
X-8896209Y-8633000D01*
X-11528866Y-8633000D01*
X-11566564Y-8595302D01*
X-11685636Y-8515741D01*
X-11817942Y-8460938D01*
X-11958397Y-8433000D01*
X-12101603Y-8433000D01*
X-12242058Y-8460938D01*
X-12374364Y-8515741D01*
X-12493436Y-8595302D01*
X-12531134Y-8633000D01*
X-12874146Y-8633000D01*
X-12881972Y-8630626D01*
X-12959401Y-8623000D01*
X-12985282Y-8620451D01*
X-13011163Y-8623000D01*
X-14674119Y-8623000D01*
X-14700000Y-8620451D01*
X-14725881Y-8623000D01*
X-14803310Y-8630626D01*
X-14902650Y-8660761D01*
X-14994202Y-8709696D01*
X-15074448Y-8775552D01*
X-15090947Y-8795656D01*
X-15158746Y-8863455D01*
X-15184931Y-8852609D01*
X-15393005Y-8811220D01*
X-15605155Y-8811220D01*
X-15813229Y-8852609D01*
X-16009231Y-8933795D01*
X-16185627Y-9051660D01*
X-16335640Y-9201673D01*
X-16453505Y-9378069D01*
X-16534691Y-9574071D01*
X-16576080Y-9782145D01*
X-16576080Y-9994295D01*
X-16534691Y-10202369D01*
X-16523844Y-10228555D01*
X-16592554Y-10297265D01*
X-16612668Y-10313772D01*
X-16678524Y-10394018D01*
X-16719986Y-10471589D01*
X-16727459Y-10485571D01*
X-16757594Y-10584911D01*
X-16767769Y-10688220D01*
X-16765220Y-10714101D01*
X-16765219Y-13441024D01*
X-16809108Y-13494503D01*
X-16853102Y-13576811D01*
X-16880194Y-13666121D01*
X-16889342Y-13759000D01*
X-16889342Y-14054000D01*
X-16880194Y-14146879D01*
X-16853102Y-14236189D01*
X-16809108Y-14318497D01*
X-16749901Y-14390641D01*
X-16748854Y-14391500D01*
X-16749901Y-14392359D01*
X-16809108Y-14464503D01*
X-16853102Y-14546811D01*
X-16880194Y-14636121D01*
X-16889342Y-14729000D01*
X-16889342Y-15024000D01*
X-16880194Y-15116879D01*
X-16853102Y-15206189D01*
X-16809108Y-15288497D01*
X-16767760Y-15338880D01*
X-16767760Y-15481418D01*
X-16770000Y-15481418D01*
X-16834103Y-15487732D01*
X-16895743Y-15506430D01*
X-16952550Y-15536794D01*
X-16960112Y-15543000D01*
X-19598000Y-15543000D01*
X-19598000Y1980342D01*
X-19563618Y2331000D01*
X-18217000Y2331000D01*
X-18217000Y2109000D01*
X-18173690Y1891266D01*
X-18088734Y1686165D01*
X-17965398Y1501579D01*
X-17808421Y1344602D01*
X-17623835Y1221266D01*
X-17418734Y1136310D01*
X-17201000Y1093000D01*
X-16979000Y1093000D01*
X-16761266Y1136310D01*
X-16556165Y1221266D01*
X-16371579Y1344602D01*
X-16214602Y1501579D01*
X-16091266Y1686165D01*
X-16006310Y1891266D01*
X-15963000Y2109000D01*
X-15963000Y2331000D01*
X-16006310Y2548734D01*
X-16091266Y2753835D01*
X-16214602Y2938421D01*
X-16371579Y3095398D01*
X-16556165Y3218734D01*
X-16761266Y3303690D01*
X-16979000Y3347000D01*
X-17201000Y3347000D01*
X-17418734Y3303690D01*
X-17623835Y3218734D01*
X-17808421Y3095398D01*
X-17965398Y2938421D01*
X-18088734Y2753835D01*
X-18173690Y2548734D01*
X-18217000Y2331000D01*
X-19563618Y2331000D01*
X-19546631Y2504242D01*
X-19400188Y2989286D01*
X-19162326Y3436642D01*
X-18842096Y3829282D01*
X-18451706Y4152241D01*
X-18006020Y4393222D01*
X-17522013Y4543048D01*
X-16999180Y4598000D01*
X16980342Y4598000D01*
X17504242Y4546631D01*
G37*
G04 #@! TD.AperFunction*
D26*
X-5088731Y-30934236D02*
X-5092268Y-30945897D01*
X-5098582Y-31010000D01*
X-5098582Y-33610000D01*
X-5092268Y-33674103D01*
X-5073570Y-33735743D01*
X-5043206Y-33792550D01*
X-5002343Y-33842343D01*
X-4952550Y-33883206D01*
X-4895743Y-33913570D01*
X-4834103Y-33932268D01*
X-4770000Y-33938582D01*
X-4687679Y-33938582D01*
X-4687679Y-35112106D01*
X-4687680Y-35112116D01*
X-4687679Y-36308979D01*
X-4696071Y-36312455D01*
X-4872467Y-36430320D01*
X-5022480Y-36580333D01*
X-5140345Y-36756729D01*
X-5221531Y-36952731D01*
X-5262920Y-37160805D01*
X-5262920Y-37372955D01*
X-5221531Y-37581029D01*
X-5140345Y-37777031D01*
X-5052282Y-37908825D01*
X-8233138Y-37911986D01*
X-8198838Y-37829178D01*
X-8170900Y-37688723D01*
X-8170900Y-37545517D01*
X-8198838Y-37405062D01*
X-8253641Y-37272756D01*
X-8333202Y-37153684D01*
X-8434464Y-37052422D01*
X-8553536Y-36972861D01*
X-8685842Y-36918058D01*
X-8826297Y-36890120D01*
X-8969503Y-36890120D01*
X-9109958Y-36918058D01*
X-9242264Y-36972861D01*
X-9361336Y-37052422D01*
X-9399034Y-37090120D01*
X-9675515Y-37090120D01*
X-9650072Y-37059117D01*
X-9606078Y-36976809D01*
X-9578986Y-36887499D01*
X-9569838Y-36794620D01*
X-9569838Y-36499620D01*
X-9578986Y-36406741D01*
X-9606078Y-36317431D01*
X-9650072Y-36235123D01*
X-9709279Y-36162979D01*
X-9781423Y-36103772D01*
X-9799440Y-36094142D01*
X-9799440Y-36078772D01*
X-9741289Y-36054685D01*
X-9564893Y-35936820D01*
X-9414880Y-35786807D01*
X-9297015Y-35610411D01*
X-9239180Y-35470783D01*
X-9234731Y-35493149D01*
X-9153545Y-35689151D01*
X-9035680Y-35865547D01*
X-8885667Y-36015560D01*
X-8709271Y-36133425D01*
X-8513269Y-36214611D01*
X-8305195Y-36256000D01*
X-8093045Y-36256000D01*
X-7884971Y-36214611D01*
X-7688969Y-36133425D01*
X-7512573Y-36015560D01*
X-7362560Y-35865547D01*
X-7300000Y-35771920D01*
X-7300000Y-35833715D01*
X-7258611Y-36041789D01*
X-7177425Y-36237791D01*
X-7059560Y-36414187D01*
X-6909547Y-36564200D01*
X-6733151Y-36682065D01*
X-6537149Y-36763251D01*
X-6329075Y-36804640D01*
X-6116925Y-36804640D01*
X-5908851Y-36763251D01*
X-5712849Y-36682065D01*
X-5536453Y-36564200D01*
X-5386440Y-36414187D01*
X-5268575Y-36237791D01*
X-5187389Y-36041789D01*
X-5146000Y-35833715D01*
X-5146000Y-35621565D01*
X-5187389Y-35413491D01*
X-5268575Y-35217489D01*
X-5386440Y-35041093D01*
X-5536453Y-34891080D01*
X-5712849Y-34773215D01*
X-5783680Y-34743876D01*
X-5783680Y-33938582D01*
X-5670000Y-33938582D01*
X-5605897Y-33932268D01*
X-5544257Y-33913570D01*
X-5487450Y-33883206D01*
X-5437657Y-33842343D01*
X-5396794Y-33792550D01*
X-5366430Y-33735743D01*
X-5347732Y-33674103D01*
X-5341418Y-33610000D01*
X-5341418Y-31010000D01*
X-5347732Y-30945897D01*
X-5351318Y-30934074D01*
X-5088731Y-30934236D01*
G04 #@! TA.AperFunction,Conductor*
D27*
G36*
X-5088731Y-30934236D02*
G01*
X-5092268Y-30945897D01*
X-5098582Y-31010000D01*
X-5098582Y-33610000D01*
X-5092268Y-33674103D01*
X-5073570Y-33735743D01*
X-5043206Y-33792550D01*
X-5002343Y-33842343D01*
X-4952550Y-33883206D01*
X-4895743Y-33913570D01*
X-4834103Y-33932268D01*
X-4770000Y-33938582D01*
X-4687679Y-33938582D01*
X-4687679Y-35112106D01*
X-4687680Y-35112116D01*
X-4687679Y-36308979D01*
X-4696071Y-36312455D01*
X-4872467Y-36430320D01*
X-5022480Y-36580333D01*
X-5140345Y-36756729D01*
X-5221531Y-36952731D01*
X-5262920Y-37160805D01*
X-5262920Y-37372955D01*
X-5221531Y-37581029D01*
X-5140345Y-37777031D01*
X-5052282Y-37908825D01*
X-8233138Y-37911986D01*
X-8198838Y-37829178D01*
X-8170900Y-37688723D01*
X-8170900Y-37545517D01*
X-8198838Y-37405062D01*
X-8253641Y-37272756D01*
X-8333202Y-37153684D01*
X-8434464Y-37052422D01*
X-8553536Y-36972861D01*
X-8685842Y-36918058D01*
X-8826297Y-36890120D01*
X-8969503Y-36890120D01*
X-9109958Y-36918058D01*
X-9242264Y-36972861D01*
X-9361336Y-37052422D01*
X-9399034Y-37090120D01*
X-9675515Y-37090120D01*
X-9650072Y-37059117D01*
X-9606078Y-36976809D01*
X-9578986Y-36887499D01*
X-9569838Y-36794620D01*
X-9569838Y-36499620D01*
X-9578986Y-36406741D01*
X-9606078Y-36317431D01*
X-9650072Y-36235123D01*
X-9709279Y-36162979D01*
X-9781423Y-36103772D01*
X-9799440Y-36094142D01*
X-9799440Y-36078772D01*
X-9741289Y-36054685D01*
X-9564893Y-35936820D01*
X-9414880Y-35786807D01*
X-9297015Y-35610411D01*
X-9239180Y-35470783D01*
X-9234731Y-35493149D01*
X-9153545Y-35689151D01*
X-9035680Y-35865547D01*
X-8885667Y-36015560D01*
X-8709271Y-36133425D01*
X-8513269Y-36214611D01*
X-8305195Y-36256000D01*
X-8093045Y-36256000D01*
X-7884971Y-36214611D01*
X-7688969Y-36133425D01*
X-7512573Y-36015560D01*
X-7362560Y-35865547D01*
X-7300000Y-35771920D01*
X-7300000Y-35833715D01*
X-7258611Y-36041789D01*
X-7177425Y-36237791D01*
X-7059560Y-36414187D01*
X-6909547Y-36564200D01*
X-6733151Y-36682065D01*
X-6537149Y-36763251D01*
X-6329075Y-36804640D01*
X-6116925Y-36804640D01*
X-5908851Y-36763251D01*
X-5712849Y-36682065D01*
X-5536453Y-36564200D01*
X-5386440Y-36414187D01*
X-5268575Y-36237791D01*
X-5187389Y-36041789D01*
X-5146000Y-35833715D01*
X-5146000Y-35621565D01*
X-5187389Y-35413491D01*
X-5268575Y-35217489D01*
X-5386440Y-35041093D01*
X-5536453Y-34891080D01*
X-5712849Y-34773215D01*
X-5783680Y-34743876D01*
X-5783680Y-33938582D01*
X-5670000Y-33938582D01*
X-5605897Y-33932268D01*
X-5544257Y-33913570D01*
X-5487450Y-33883206D01*
X-5437657Y-33842343D01*
X-5396794Y-33792550D01*
X-5366430Y-33735743D01*
X-5347732Y-33674103D01*
X-5341418Y-33610000D01*
X-5341418Y-31010000D01*
X-5347732Y-30945897D01*
X-5351318Y-30934074D01*
X-5088731Y-30934236D01*
G37*
G04 #@! TD.AperFunction*
D26*
X-15086863Y-30928080D02*
X-15092268Y-30945897D01*
X-15098582Y-31010000D01*
X-15098582Y-33610000D01*
X-15092268Y-33674103D01*
X-15073570Y-33735743D01*
X-15043206Y-33792550D01*
X-15002343Y-33842343D01*
X-14952550Y-33883206D01*
X-14895743Y-33913570D01*
X-14834103Y-33932268D01*
X-14770000Y-33938582D01*
X-14715296Y-33938582D01*
X-14800378Y-34023664D01*
X-14879939Y-34142736D01*
X-14934742Y-34275042D01*
X-14962680Y-34415497D01*
X-14962680Y-34558703D01*
X-14934742Y-34699158D01*
X-14879939Y-34831464D01*
X-14800378Y-34950536D01*
X-14699116Y-35051798D01*
X-14580044Y-35131359D01*
X-14447738Y-35186162D01*
X-14307283Y-35214100D01*
X-14164077Y-35214100D01*
X-14023622Y-35186162D01*
X-13891316Y-35131359D01*
X-13772244Y-35051798D01*
X-13670982Y-34950536D01*
X-13591421Y-34831464D01*
X-13536618Y-34699158D01*
X-13508680Y-34558703D01*
X-13508680Y-34415497D01*
X-13536618Y-34275042D01*
X-13591421Y-34142736D01*
X-13670982Y-34023664D01*
X-13756064Y-33938582D01*
X-13670000Y-33938582D01*
X-13605897Y-33932268D01*
X-13544257Y-33913570D01*
X-13487450Y-33883206D01*
X-13437657Y-33842343D01*
X-13396794Y-33792550D01*
X-13366430Y-33735743D01*
X-13347732Y-33674103D01*
X-13341418Y-33610000D01*
X-13341418Y-31010000D01*
X-13347732Y-30945897D01*
X-13352813Y-30929147D01*
X-13087237Y-30929311D01*
X-13092268Y-30945897D01*
X-13098582Y-31010000D01*
X-13098582Y-33610000D01*
X-13092268Y-33674103D01*
X-13073570Y-33735743D01*
X-13043206Y-33792550D01*
X-13002343Y-33842343D01*
X-12952550Y-33883206D01*
X-12895743Y-33913570D01*
X-12834103Y-33932268D01*
X-12770000Y-33938582D01*
X-12687679Y-33938582D01*
X-12687679Y-33997360D01*
X-12721476Y-34019942D01*
X-12822738Y-34121204D01*
X-12902299Y-34240276D01*
X-12957102Y-34372582D01*
X-12985040Y-34513037D01*
X-12985040Y-34656243D01*
X-12957102Y-34796698D01*
X-12902299Y-34929004D01*
X-12822738Y-35048076D01*
X-12817559Y-35053255D01*
X-12859380Y-35049136D01*
X-12987130Y-35050960D01*
X-13081380Y-35145210D01*
X-13081380Y-35674960D01*
X-13061380Y-35674960D01*
X-13061380Y-35820960D01*
X-13081380Y-35820960D01*
X-13081380Y-36350710D01*
X-12987130Y-36444960D01*
X-12859380Y-36446784D01*
X-12785475Y-36439505D01*
X-12777542Y-36437098D01*
X-12793368Y-36456383D01*
X-12837362Y-36538691D01*
X-12864454Y-36628001D01*
X-12873602Y-36720880D01*
X-12873602Y-37015880D01*
X-12864454Y-37108759D01*
X-12846030Y-37169496D01*
X-14090977Y-37189444D01*
X-14114218Y-37072602D01*
X-14169021Y-36940296D01*
X-14248582Y-36821224D01*
X-14349844Y-36719962D01*
X-14468916Y-36640401D01*
X-14601222Y-36585598D01*
X-14741677Y-36557660D01*
X-14794991Y-36557660D01*
X-15102765Y-36249886D01*
X-15119272Y-36229772D01*
X-15199518Y-36163916D01*
X-15291070Y-36114981D01*
X-15390410Y-36084846D01*
X-15467839Y-36077220D01*
X-15493720Y-36074671D01*
X-15519601Y-36077220D01*
X-15589300Y-36077220D01*
X-15589300Y-36067960D01*
X-13828204Y-36067960D01*
X-13820925Y-36141865D01*
X-13799368Y-36212930D01*
X-13764361Y-36278423D01*
X-13717249Y-36335829D01*
X-13659843Y-36382941D01*
X-13594350Y-36417948D01*
X-13523285Y-36439505D01*
X-13449380Y-36446784D01*
X-13321630Y-36444960D01*
X-13227380Y-36350710D01*
X-13227380Y-35820960D01*
X-13732130Y-35820960D01*
X-13826380Y-35915210D01*
X-13828204Y-36067960D01*
X-15589300Y-36067960D01*
X-15589300Y-35963577D01*
X-15572952Y-35943657D01*
X-15528958Y-35861349D01*
X-15501866Y-35772039D01*
X-15492718Y-35679160D01*
X-15492718Y-35427960D01*
X-13828204Y-35427960D01*
X-13826380Y-35580710D01*
X-13732130Y-35674960D01*
X-13227380Y-35674960D01*
X-13227380Y-35145210D01*
X-13321630Y-35050960D01*
X-13449380Y-35049136D01*
X-13523285Y-35056415D01*
X-13594350Y-35077972D01*
X-13659843Y-35112979D01*
X-13717249Y-35160091D01*
X-13764361Y-35217497D01*
X-13799368Y-35282990D01*
X-13820925Y-35354055D01*
X-13828204Y-35427960D01*
X-15492718Y-35427960D01*
X-15492718Y-35334160D01*
X-15501866Y-35241281D01*
X-15528958Y-35151971D01*
X-15572952Y-35069663D01*
X-15589300Y-35049743D01*
X-15589300Y-34503840D01*
X-15586751Y-34477960D01*
X-15589300Y-34452077D01*
X-15589300Y-33927233D01*
X-15544257Y-33913570D01*
X-15487450Y-33883206D01*
X-15437657Y-33842343D01*
X-15396794Y-33792550D01*
X-15366430Y-33735743D01*
X-15347732Y-33674103D01*
X-15341418Y-33610000D01*
X-15341418Y-31010000D01*
X-15347732Y-30945897D01*
X-15353187Y-30927916D01*
X-15086863Y-30928080D01*
G04 #@! TA.AperFunction,Conductor*
D27*
G36*
X-15086863Y-30928080D02*
G01*
X-15092268Y-30945897D01*
X-15098582Y-31010000D01*
X-15098582Y-33610000D01*
X-15092268Y-33674103D01*
X-15073570Y-33735743D01*
X-15043206Y-33792550D01*
X-15002343Y-33842343D01*
X-14952550Y-33883206D01*
X-14895743Y-33913570D01*
X-14834103Y-33932268D01*
X-14770000Y-33938582D01*
X-14715296Y-33938582D01*
X-14800378Y-34023664D01*
X-14879939Y-34142736D01*
X-14934742Y-34275042D01*
X-14962680Y-34415497D01*
X-14962680Y-34558703D01*
X-14934742Y-34699158D01*
X-14879939Y-34831464D01*
X-14800378Y-34950536D01*
X-14699116Y-35051798D01*
X-14580044Y-35131359D01*
X-14447738Y-35186162D01*
X-14307283Y-35214100D01*
X-14164077Y-35214100D01*
X-14023622Y-35186162D01*
X-13891316Y-35131359D01*
X-13772244Y-35051798D01*
X-13670982Y-34950536D01*
X-13591421Y-34831464D01*
X-13536618Y-34699158D01*
X-13508680Y-34558703D01*
X-13508680Y-34415497D01*
X-13536618Y-34275042D01*
X-13591421Y-34142736D01*
X-13670982Y-34023664D01*
X-13756064Y-33938582D01*
X-13670000Y-33938582D01*
X-13605897Y-33932268D01*
X-13544257Y-33913570D01*
X-13487450Y-33883206D01*
X-13437657Y-33842343D01*
X-13396794Y-33792550D01*
X-13366430Y-33735743D01*
X-13347732Y-33674103D01*
X-13341418Y-33610000D01*
X-13341418Y-31010000D01*
X-13347732Y-30945897D01*
X-13352813Y-30929147D01*
X-13087237Y-30929311D01*
X-13092268Y-30945897D01*
X-13098582Y-31010000D01*
X-13098582Y-33610000D01*
X-13092268Y-33674103D01*
X-13073570Y-33735743D01*
X-13043206Y-33792550D01*
X-13002343Y-33842343D01*
X-12952550Y-33883206D01*
X-12895743Y-33913570D01*
X-12834103Y-33932268D01*
X-12770000Y-33938582D01*
X-12687679Y-33938582D01*
X-12687679Y-33997360D01*
X-12721476Y-34019942D01*
X-12822738Y-34121204D01*
X-12902299Y-34240276D01*
X-12957102Y-34372582D01*
X-12985040Y-34513037D01*
X-12985040Y-34656243D01*
X-12957102Y-34796698D01*
X-12902299Y-34929004D01*
X-12822738Y-35048076D01*
X-12817559Y-35053255D01*
X-12859380Y-35049136D01*
X-12987130Y-35050960D01*
X-13081380Y-35145210D01*
X-13081380Y-35674960D01*
X-13061380Y-35674960D01*
X-13061380Y-35820960D01*
X-13081380Y-35820960D01*
X-13081380Y-36350710D01*
X-12987130Y-36444960D01*
X-12859380Y-36446784D01*
X-12785475Y-36439505D01*
X-12777542Y-36437098D01*
X-12793368Y-36456383D01*
X-12837362Y-36538691D01*
X-12864454Y-36628001D01*
X-12873602Y-36720880D01*
X-12873602Y-37015880D01*
X-12864454Y-37108759D01*
X-12846030Y-37169496D01*
X-14090977Y-37189444D01*
X-14114218Y-37072602D01*
X-14169021Y-36940296D01*
X-14248582Y-36821224D01*
X-14349844Y-36719962D01*
X-14468916Y-36640401D01*
X-14601222Y-36585598D01*
X-14741677Y-36557660D01*
X-14794991Y-36557660D01*
X-15102765Y-36249886D01*
X-15119272Y-36229772D01*
X-15199518Y-36163916D01*
X-15291070Y-36114981D01*
X-15390410Y-36084846D01*
X-15467839Y-36077220D01*
X-15493720Y-36074671D01*
X-15519601Y-36077220D01*
X-15589300Y-36077220D01*
X-15589300Y-36067960D01*
X-13828204Y-36067960D01*
X-13820925Y-36141865D01*
X-13799368Y-36212930D01*
X-13764361Y-36278423D01*
X-13717249Y-36335829D01*
X-13659843Y-36382941D01*
X-13594350Y-36417948D01*
X-13523285Y-36439505D01*
X-13449380Y-36446784D01*
X-13321630Y-36444960D01*
X-13227380Y-36350710D01*
X-13227380Y-35820960D01*
X-13732130Y-35820960D01*
X-13826380Y-35915210D01*
X-13828204Y-36067960D01*
X-15589300Y-36067960D01*
X-15589300Y-35963577D01*
X-15572952Y-35943657D01*
X-15528958Y-35861349D01*
X-15501866Y-35772039D01*
X-15492718Y-35679160D01*
X-15492718Y-35427960D01*
X-13828204Y-35427960D01*
X-13826380Y-35580710D01*
X-13732130Y-35674960D01*
X-13227380Y-35674960D01*
X-13227380Y-35145210D01*
X-13321630Y-35050960D01*
X-13449380Y-35049136D01*
X-13523285Y-35056415D01*
X-13594350Y-35077972D01*
X-13659843Y-35112979D01*
X-13717249Y-35160091D01*
X-13764361Y-35217497D01*
X-13799368Y-35282990D01*
X-13820925Y-35354055D01*
X-13828204Y-35427960D01*
X-15492718Y-35427960D01*
X-15492718Y-35334160D01*
X-15501866Y-35241281D01*
X-15528958Y-35151971D01*
X-15572952Y-35069663D01*
X-15589300Y-35049743D01*
X-15589300Y-34503840D01*
X-15586751Y-34477960D01*
X-15589300Y-34452077D01*
X-15589300Y-33927233D01*
X-15544257Y-33913570D01*
X-15487450Y-33883206D01*
X-15437657Y-33842343D01*
X-15396794Y-33792550D01*
X-15366430Y-33735743D01*
X-15347732Y-33674103D01*
X-15341418Y-33610000D01*
X-15341418Y-31010000D01*
X-15347732Y-30945897D01*
X-15353187Y-30927916D01*
X-15086863Y-30928080D01*
G37*
G04 #@! TD.AperFunction*
D26*
X583852Y-13143145D02*
X600351Y-13163249D01*
X680597Y-13229105D01*
X772149Y-13278040D01*
X842826Y-13299480D01*
X871489Y-13308175D01*
X974799Y-13318350D01*
X1000680Y-13315801D01*
X4166920Y-13315801D01*
X4166920Y-13615971D01*
X2467786Y-13596628D01*
X2456958Y-13596967D01*
X2319798Y-13607127D01*
X2295270Y-13611391D01*
X2272044Y-13620358D01*
X2251015Y-13633684D01*
X2232989Y-13650857D01*
X2218660Y-13671216D01*
X2208578Y-13693980D01*
X2203130Y-13718273D01*
X2202187Y-13732465D01*
X1969800Y-36176774D01*
X-587435Y-36193587D01*
X-588120Y-36136190D01*
X-682370Y-36041940D01*
X-1187120Y-36041940D01*
X-1187120Y-36061940D01*
X-1333120Y-36061940D01*
X-1333120Y-36041940D01*
X-1353120Y-36041940D01*
X-1353120Y-35895940D01*
X-1333120Y-35895940D01*
X-1333120Y-34970060D01*
X-1187120Y-34970060D01*
X-1187120Y-35895940D01*
X-682370Y-35895940D01*
X-588120Y-35801690D01*
X-586296Y-35648940D01*
X-593575Y-35575035D01*
X-615132Y-35503970D01*
X-650139Y-35438477D01*
X-654634Y-35433000D01*
X-650139Y-35427523D01*
X-615132Y-35362030D01*
X-593575Y-35290965D01*
X-586296Y-35217060D01*
X-588120Y-35064310D01*
X-682370Y-34970060D01*
X-1187120Y-34970060D01*
X-1333120Y-34970060D01*
X-1353120Y-34970060D01*
X-1353120Y-34824060D01*
X-1333120Y-34824060D01*
X-1333120Y-34294310D01*
X-1187120Y-34294310D01*
X-1187120Y-34824060D01*
X-682370Y-34824060D01*
X-588120Y-34729810D01*
X-586296Y-34577060D01*
X-593575Y-34503155D01*
X-615132Y-34432090D01*
X-650139Y-34366597D01*
X-697251Y-34309191D01*
X-754657Y-34262079D01*
X-820150Y-34227072D01*
X-891215Y-34205515D01*
X-965120Y-34198236D01*
X-1092870Y-34200060D01*
X-1187120Y-34294310D01*
X-1333120Y-34294310D01*
X-1427370Y-34200060D01*
X-1447800Y-34199768D01*
X-1447800Y-33934400D01*
X-1450240Y-33909624D01*
X-1457467Y-33885799D01*
X-1467572Y-33866893D01*
X-1437657Y-33842343D01*
X-1396794Y-33792550D01*
X-1366430Y-33735743D01*
X-1347732Y-33674103D01*
X-1341418Y-33610000D01*
X-1341418Y-31010000D01*
X-1347732Y-30945897D01*
X-1350571Y-30936538D01*
X-600078Y-30937000D01*
X-575326Y-30934580D01*
X-551495Y-30927372D01*
X-529529Y-30915654D01*
X-510271Y-30899876D01*
X-494461Y-30880644D01*
X-482707Y-30858697D01*
X-475461Y-30834878D01*
X-473000Y-30810104D01*
X-463000Y-18600104D01*
X-465440Y-18575224D01*
X-472667Y-18551399D01*
X-484403Y-18529443D01*
X-500197Y-18510197D01*
X-519443Y-18494403D01*
X-541399Y-18482667D01*
X-565224Y-18475440D01*
X-590000Y-18473000D01*
X-1297381Y-18473000D01*
X-1291176Y-18410000D01*
X-1293000Y-17277250D01*
X-1387250Y-17183000D01*
X-2147000Y-17183000D01*
X-2147000Y-17203000D01*
X-2293000Y-17203000D01*
X-2293000Y-17183000D01*
X-3052750Y-17183000D01*
X-3147000Y-17277250D01*
X-3148824Y-18410000D01*
X-3142619Y-18473000D01*
X-3297381Y-18473000D01*
X-3291176Y-18410000D01*
X-3293000Y-17277250D01*
X-3387250Y-17183000D01*
X-4147000Y-17183000D01*
X-4147000Y-17203000D01*
X-4293000Y-17203000D01*
X-4293000Y-17183000D01*
X-5052750Y-17183000D01*
X-5147000Y-17277250D01*
X-5148824Y-18410000D01*
X-5142619Y-18473000D01*
X-5347623Y-18473000D01*
X-5341418Y-18410000D01*
X-5341418Y-15810000D01*
X-5148824Y-15810000D01*
X-5147000Y-16942750D01*
X-5052750Y-17037000D01*
X-4293000Y-17037000D01*
X-4293000Y-15527250D01*
X-4147000Y-15527250D01*
X-4147000Y-17037000D01*
X-3387250Y-17037000D01*
X-3293000Y-16942750D01*
X-3291176Y-15810000D01*
X-3148824Y-15810000D01*
X-3147000Y-16942750D01*
X-3052750Y-17037000D01*
X-2293000Y-17037000D01*
X-2293000Y-15527250D01*
X-2147000Y-15527250D01*
X-2147000Y-17037000D01*
X-1387250Y-17037000D01*
X-1293000Y-16942750D01*
X-1291176Y-15810000D01*
X-1298455Y-15736095D01*
X-1320012Y-15665030D01*
X-1355019Y-15599537D01*
X-1402131Y-15542131D01*
X-1459537Y-15495019D01*
X-1525030Y-15460012D01*
X-1596095Y-15438455D01*
X-1670000Y-15431176D01*
X-2052750Y-15433000D01*
X-2147000Y-15527250D01*
X-2293000Y-15527250D01*
X-2387250Y-15433000D01*
X-2770000Y-15431176D01*
X-2843905Y-15438455D01*
X-2914970Y-15460012D01*
X-2980463Y-15495019D01*
X-3037869Y-15542131D01*
X-3084981Y-15599537D01*
X-3119988Y-15665030D01*
X-3141545Y-15736095D01*
X-3148824Y-15810000D01*
X-3291176Y-15810000D01*
X-3298455Y-15736095D01*
X-3320012Y-15665030D01*
X-3355019Y-15599537D01*
X-3402131Y-15542131D01*
X-3459537Y-15495019D01*
X-3525030Y-15460012D01*
X-3596095Y-15438455D01*
X-3670000Y-15431176D01*
X-4052750Y-15433000D01*
X-4147000Y-15527250D01*
X-4293000Y-15527250D01*
X-4387250Y-15433000D01*
X-4770000Y-15431176D01*
X-4843905Y-15438455D01*
X-4914970Y-15460012D01*
X-4980463Y-15495019D01*
X-5037869Y-15542131D01*
X-5084981Y-15599537D01*
X-5119988Y-15665030D01*
X-5141545Y-15736095D01*
X-5148824Y-15810000D01*
X-5341418Y-15810000D01*
X-5347732Y-15745897D01*
X-5366430Y-15684257D01*
X-5396794Y-15627450D01*
X-5437657Y-15577657D01*
X-5487450Y-15536794D01*
X-5544257Y-15506430D01*
X-5593000Y-15491644D01*
X-5593000Y-13241191D01*
X-5453169Y-13101360D01*
X-5385405Y-13101360D01*
X-5177331Y-13059971D01*
X-4981329Y-12978785D01*
X-4804933Y-12860920D01*
X-4654920Y-12710907D01*
X-4537055Y-12534511D01*
X-4455869Y-12338509D01*
X-4414480Y-12130435D01*
X-4414480Y-11918285D01*
X-4455869Y-11710211D01*
X-4537055Y-11514209D01*
X-4654920Y-11337813D01*
X-4804933Y-11187800D01*
X-4981329Y-11069935D01*
X-5177331Y-10988749D01*
X-5385405Y-10947360D01*
X-5589429Y-10947360D01*
X-5537349Y-10895280D01*
X-1664011Y-10895280D01*
X583852Y-13143145D01*
G04 #@! TA.AperFunction,Conductor*
D27*
G36*
X583852Y-13143145D02*
G01*
X600351Y-13163249D01*
X680597Y-13229105D01*
X772149Y-13278040D01*
X842826Y-13299480D01*
X871489Y-13308175D01*
X974799Y-13318350D01*
X1000680Y-13315801D01*
X4166920Y-13315801D01*
X4166920Y-13615971D01*
X2467786Y-13596628D01*
X2456958Y-13596967D01*
X2319798Y-13607127D01*
X2295270Y-13611391D01*
X2272044Y-13620358D01*
X2251015Y-13633684D01*
X2232989Y-13650857D01*
X2218660Y-13671216D01*
X2208578Y-13693980D01*
X2203130Y-13718273D01*
X2202187Y-13732465D01*
X1969800Y-36176774D01*
X-587435Y-36193587D01*
X-588120Y-36136190D01*
X-682370Y-36041940D01*
X-1187120Y-36041940D01*
X-1187120Y-36061940D01*
X-1333120Y-36061940D01*
X-1333120Y-36041940D01*
X-1353120Y-36041940D01*
X-1353120Y-35895940D01*
X-1333120Y-35895940D01*
X-1333120Y-34970060D01*
X-1187120Y-34970060D01*
X-1187120Y-35895940D01*
X-682370Y-35895940D01*
X-588120Y-35801690D01*
X-586296Y-35648940D01*
X-593575Y-35575035D01*
X-615132Y-35503970D01*
X-650139Y-35438477D01*
X-654634Y-35433000D01*
X-650139Y-35427523D01*
X-615132Y-35362030D01*
X-593575Y-35290965D01*
X-586296Y-35217060D01*
X-588120Y-35064310D01*
X-682370Y-34970060D01*
X-1187120Y-34970060D01*
X-1333120Y-34970060D01*
X-1353120Y-34970060D01*
X-1353120Y-34824060D01*
X-1333120Y-34824060D01*
X-1333120Y-34294310D01*
X-1187120Y-34294310D01*
X-1187120Y-34824060D01*
X-682370Y-34824060D01*
X-588120Y-34729810D01*
X-586296Y-34577060D01*
X-593575Y-34503155D01*
X-615132Y-34432090D01*
X-650139Y-34366597D01*
X-697251Y-34309191D01*
X-754657Y-34262079D01*
X-820150Y-34227072D01*
X-891215Y-34205515D01*
X-965120Y-34198236D01*
X-1092870Y-34200060D01*
X-1187120Y-34294310D01*
X-1333120Y-34294310D01*
X-1427370Y-34200060D01*
X-1447800Y-34199768D01*
X-1447800Y-33934400D01*
X-1450240Y-33909624D01*
X-1457467Y-33885799D01*
X-1467572Y-33866893D01*
X-1437657Y-33842343D01*
X-1396794Y-33792550D01*
X-1366430Y-33735743D01*
X-1347732Y-33674103D01*
X-1341418Y-33610000D01*
X-1341418Y-31010000D01*
X-1347732Y-30945897D01*
X-1350571Y-30936538D01*
X-600078Y-30937000D01*
X-575326Y-30934580D01*
X-551495Y-30927372D01*
X-529529Y-30915654D01*
X-510271Y-30899876D01*
X-494461Y-30880644D01*
X-482707Y-30858697D01*
X-475461Y-30834878D01*
X-473000Y-30810104D01*
X-463000Y-18600104D01*
X-465440Y-18575224D01*
X-472667Y-18551399D01*
X-484403Y-18529443D01*
X-500197Y-18510197D01*
X-519443Y-18494403D01*
X-541399Y-18482667D01*
X-565224Y-18475440D01*
X-590000Y-18473000D01*
X-1297381Y-18473000D01*
X-1291176Y-18410000D01*
X-1293000Y-17277250D01*
X-1387250Y-17183000D01*
X-2147000Y-17183000D01*
X-2147000Y-17203000D01*
X-2293000Y-17203000D01*
X-2293000Y-17183000D01*
X-3052750Y-17183000D01*
X-3147000Y-17277250D01*
X-3148824Y-18410000D01*
X-3142619Y-18473000D01*
X-3297381Y-18473000D01*
X-3291176Y-18410000D01*
X-3293000Y-17277250D01*
X-3387250Y-17183000D01*
X-4147000Y-17183000D01*
X-4147000Y-17203000D01*
X-4293000Y-17203000D01*
X-4293000Y-17183000D01*
X-5052750Y-17183000D01*
X-5147000Y-17277250D01*
X-5148824Y-18410000D01*
X-5142619Y-18473000D01*
X-5347623Y-18473000D01*
X-5341418Y-18410000D01*
X-5341418Y-15810000D01*
X-5148824Y-15810000D01*
X-5147000Y-16942750D01*
X-5052750Y-17037000D01*
X-4293000Y-17037000D01*
X-4293000Y-15527250D01*
X-4147000Y-15527250D01*
X-4147000Y-17037000D01*
X-3387250Y-17037000D01*
X-3293000Y-16942750D01*
X-3291176Y-15810000D01*
X-3148824Y-15810000D01*
X-3147000Y-16942750D01*
X-3052750Y-17037000D01*
X-2293000Y-17037000D01*
X-2293000Y-15527250D01*
X-2147000Y-15527250D01*
X-2147000Y-17037000D01*
X-1387250Y-17037000D01*
X-1293000Y-16942750D01*
X-1291176Y-15810000D01*
X-1298455Y-15736095D01*
X-1320012Y-15665030D01*
X-1355019Y-15599537D01*
X-1402131Y-15542131D01*
X-1459537Y-15495019D01*
X-1525030Y-15460012D01*
X-1596095Y-15438455D01*
X-1670000Y-15431176D01*
X-2052750Y-15433000D01*
X-2147000Y-15527250D01*
X-2293000Y-15527250D01*
X-2387250Y-15433000D01*
X-2770000Y-15431176D01*
X-2843905Y-15438455D01*
X-2914970Y-15460012D01*
X-2980463Y-15495019D01*
X-3037869Y-15542131D01*
X-3084981Y-15599537D01*
X-3119988Y-15665030D01*
X-3141545Y-15736095D01*
X-3148824Y-15810000D01*
X-3291176Y-15810000D01*
X-3298455Y-15736095D01*
X-3320012Y-15665030D01*
X-3355019Y-15599537D01*
X-3402131Y-15542131D01*
X-3459537Y-15495019D01*
X-3525030Y-15460012D01*
X-3596095Y-15438455D01*
X-3670000Y-15431176D01*
X-4052750Y-15433000D01*
X-4147000Y-15527250D01*
X-4293000Y-15527250D01*
X-4387250Y-15433000D01*
X-4770000Y-15431176D01*
X-4843905Y-15438455D01*
X-4914970Y-15460012D01*
X-4980463Y-15495019D01*
X-5037869Y-15542131D01*
X-5084981Y-15599537D01*
X-5119988Y-15665030D01*
X-5141545Y-15736095D01*
X-5148824Y-15810000D01*
X-5341418Y-15810000D01*
X-5347732Y-15745897D01*
X-5366430Y-15684257D01*
X-5396794Y-15627450D01*
X-5437657Y-15577657D01*
X-5487450Y-15536794D01*
X-5544257Y-15506430D01*
X-5593000Y-15491644D01*
X-5593000Y-13241191D01*
X-5453169Y-13101360D01*
X-5385405Y-13101360D01*
X-5177331Y-13059971D01*
X-4981329Y-12978785D01*
X-4804933Y-12860920D01*
X-4654920Y-12710907D01*
X-4537055Y-12534511D01*
X-4455869Y-12338509D01*
X-4414480Y-12130435D01*
X-4414480Y-11918285D01*
X-4455869Y-11710211D01*
X-4537055Y-11514209D01*
X-4654920Y-11337813D01*
X-4804933Y-11187800D01*
X-4981329Y-11069935D01*
X-5177331Y-10988749D01*
X-5385405Y-10947360D01*
X-5589429Y-10947360D01*
X-5537349Y-10895280D01*
X-1664011Y-10895280D01*
X583852Y-13143145D01*
G37*
G04 #@! TD.AperFunction*
D26*
X-9136760Y-13637920D02*
X-9116760Y-13637920D01*
X-9116760Y-13783920D01*
X-9136760Y-13783920D01*
X-9136760Y-14313670D01*
X-9042510Y-14407920D01*
X-8914760Y-14409744D01*
X-8840855Y-14402465D01*
X-8769790Y-14380908D01*
X-8762679Y-14377107D01*
X-8762679Y-15481418D01*
X-8770000Y-15481418D01*
X-8834103Y-15487732D01*
X-8895743Y-15506430D01*
X-8952550Y-15536794D01*
X-9002343Y-15577657D01*
X-9043206Y-15627450D01*
X-9073570Y-15684257D01*
X-9092268Y-15745897D01*
X-9098582Y-15810000D01*
X-9098582Y-18410000D01*
X-9092377Y-18473000D01*
X-9347623Y-18473000D01*
X-9341418Y-18410000D01*
X-9341418Y-15810000D01*
X-9347732Y-15745897D01*
X-9366430Y-15684257D01*
X-9396794Y-15627450D01*
X-9437657Y-15577657D01*
X-9487450Y-15536794D01*
X-9544257Y-15506430D01*
X-9605897Y-15487732D01*
X-9670000Y-15481418D01*
X-9693000Y-15481418D01*
X-9693000Y-14357780D01*
X-9649730Y-14380908D01*
X-9578665Y-14402465D01*
X-9504760Y-14409744D01*
X-9377010Y-14407920D01*
X-9282760Y-14313670D01*
X-9282760Y-13783920D01*
X-9302760Y-13783920D01*
X-9302760Y-13637920D01*
X-9282760Y-13637920D01*
X-9282760Y-13617920D01*
X-9136760Y-13617920D01*
X-9136760Y-13637920D01*
G04 #@! TA.AperFunction,Conductor*
D27*
G36*
X-9136760Y-13637920D02*
G01*
X-9116760Y-13637920D01*
X-9116760Y-13783920D01*
X-9136760Y-13783920D01*
X-9136760Y-14313670D01*
X-9042510Y-14407920D01*
X-8914760Y-14409744D01*
X-8840855Y-14402465D01*
X-8769790Y-14380908D01*
X-8762679Y-14377107D01*
X-8762679Y-15481418D01*
X-8770000Y-15481418D01*
X-8834103Y-15487732D01*
X-8895743Y-15506430D01*
X-8952550Y-15536794D01*
X-9002343Y-15577657D01*
X-9043206Y-15627450D01*
X-9073570Y-15684257D01*
X-9092268Y-15745897D01*
X-9098582Y-15810000D01*
X-9098582Y-18410000D01*
X-9092377Y-18473000D01*
X-9347623Y-18473000D01*
X-9341418Y-18410000D01*
X-9341418Y-15810000D01*
X-9347732Y-15745897D01*
X-9366430Y-15684257D01*
X-9396794Y-15627450D01*
X-9437657Y-15577657D01*
X-9487450Y-15536794D01*
X-9544257Y-15506430D01*
X-9605897Y-15487732D01*
X-9670000Y-15481418D01*
X-9693000Y-15481418D01*
X-9693000Y-14357780D01*
X-9649730Y-14380908D01*
X-9578665Y-14402465D01*
X-9504760Y-14409744D01*
X-9377010Y-14407920D01*
X-9282760Y-14313670D01*
X-9282760Y-13783920D01*
X-9302760Y-13783920D01*
X-9302760Y-13637920D01*
X-9282760Y-13637920D01*
X-9282760Y-13617920D01*
X-9136760Y-13617920D01*
X-9136760Y-13637920D01*
G37*
G04 #@! TD.AperFunction*
D26*
X-8899259Y-10328716D02*
X-8954062Y-10461022D01*
X-8982000Y-10601477D01*
X-8982000Y-10744683D01*
X-8954062Y-10885138D01*
X-8899259Y-11017444D01*
X-8819698Y-11136516D01*
X-8761680Y-11194534D01*
X-8761680Y-11358399D01*
X-8764229Y-11384280D01*
X-8754054Y-11487589D01*
X-8751520Y-11495942D01*
X-8751520Y-11717001D01*
X-8753455Y-11712329D01*
X-8871320Y-11535933D01*
X-9021333Y-11385920D01*
X-9197729Y-11268055D01*
X-9393731Y-11186869D01*
X-9601805Y-11145480D01*
X-9813955Y-11145480D01*
X-10022029Y-11186869D01*
X-10218031Y-11268055D01*
X-10394427Y-11385920D01*
X-10544440Y-11535933D01*
X-10662305Y-11712329D01*
X-10743491Y-11908331D01*
X-10784880Y-12116405D01*
X-10784880Y-12328555D01*
X-10743491Y-12536629D01*
X-10724538Y-12582385D01*
X-10739374Y-12631291D01*
X-10749549Y-12734600D01*
X-10746999Y-12760491D01*
X-10747000Y-15481418D01*
X-10770000Y-15481418D01*
X-10834103Y-15487732D01*
X-10895743Y-15506430D01*
X-10952550Y-15536794D01*
X-11002343Y-15577657D01*
X-11043206Y-15627450D01*
X-11073570Y-15684257D01*
X-11092268Y-15745897D01*
X-11098582Y-15810000D01*
X-11098582Y-18410000D01*
X-11092377Y-18473000D01*
X-11347623Y-18473000D01*
X-11341418Y-18410000D01*
X-11341418Y-15810000D01*
X-11347732Y-15745897D01*
X-11366430Y-15684257D01*
X-11396794Y-15627450D01*
X-11437657Y-15577657D01*
X-11487450Y-15536794D01*
X-11544257Y-15506430D01*
X-11605897Y-15487732D01*
X-11670000Y-15481418D01*
X-11708680Y-15481418D01*
X-11708680Y-14815284D01*
X-11551173Y-14710040D01*
X-11401160Y-14560027D01*
X-11283295Y-14383631D01*
X-11202109Y-14187629D01*
X-11160720Y-13979555D01*
X-11160720Y-13767405D01*
X-11202109Y-13559331D01*
X-11283295Y-13363329D01*
X-11401160Y-13186933D01*
X-11551173Y-13036920D01*
X-11727569Y-12919055D01*
X-11923571Y-12837869D01*
X-12131645Y-12796480D01*
X-12343795Y-12796480D01*
X-12551869Y-12837869D01*
X-12747871Y-12919055D01*
X-12924267Y-13036920D01*
X-13074280Y-13186933D01*
X-13192145Y-13363329D01*
X-13273331Y-13559331D01*
X-13314720Y-13767405D01*
X-13314720Y-13979555D01*
X-13273331Y-14187629D01*
X-13192145Y-14383631D01*
X-13074280Y-14560027D01*
X-12924267Y-14710040D01*
X-12762679Y-14818010D01*
X-12762679Y-15481418D01*
X-12770000Y-15481418D01*
X-12834103Y-15487732D01*
X-12895743Y-15506430D01*
X-12952550Y-15536794D01*
X-13002343Y-15577657D01*
X-13043206Y-15627450D01*
X-13073570Y-15684257D01*
X-13092268Y-15745897D01*
X-13098582Y-15810000D01*
X-13098582Y-18410000D01*
X-13092377Y-18473000D01*
X-13347623Y-18473000D01*
X-13341418Y-18410000D01*
X-13341418Y-15810000D01*
X-13347732Y-15745897D01*
X-13366430Y-15684257D01*
X-13396794Y-15627450D01*
X-13437657Y-15577657D01*
X-13487450Y-15536794D01*
X-13544257Y-15506430D01*
X-13605897Y-15487732D01*
X-13670000Y-15481418D01*
X-13799940Y-15481418D01*
X-13799940Y-15372255D01*
X-13742799Y-15325361D01*
X-13683592Y-15253217D01*
X-13639598Y-15170909D01*
X-13612506Y-15081599D01*
X-13603358Y-14988720D01*
X-13603358Y-14693720D01*
X-13612506Y-14600841D01*
X-13639598Y-14511531D01*
X-13683592Y-14429223D01*
X-13742799Y-14357079D01*
X-13743846Y-14356220D01*
X-13742799Y-14355361D01*
X-13683592Y-14283217D01*
X-13639598Y-14200909D01*
X-13612506Y-14111599D01*
X-13603358Y-14018720D01*
X-13603358Y-13723720D01*
X-13612506Y-13630841D01*
X-13639598Y-13541531D01*
X-13683592Y-13459223D01*
X-13742799Y-13387079D01*
X-13799940Y-13340185D01*
X-13799940Y-13084438D01*
X-13685909Y-13037205D01*
X-13509513Y-12919340D01*
X-13359500Y-12769327D01*
X-13252893Y-12609780D01*
X-13161281Y-12609780D01*
X-13135400Y-12612329D01*
X-13109519Y-12609780D01*
X-13032090Y-12602154D01*
X-12932750Y-12572019D01*
X-12841198Y-12523084D01*
X-12760952Y-12457228D01*
X-12744445Y-12437114D01*
X-10594339Y-10287010D01*
X-8871392Y-10287010D01*
X-8899259Y-10328716D01*
G04 #@! TA.AperFunction,Conductor*
D27*
G36*
X-8899259Y-10328716D02*
G01*
X-8954062Y-10461022D01*
X-8982000Y-10601477D01*
X-8982000Y-10744683D01*
X-8954062Y-10885138D01*
X-8899259Y-11017444D01*
X-8819698Y-11136516D01*
X-8761680Y-11194534D01*
X-8761680Y-11358399D01*
X-8764229Y-11384280D01*
X-8754054Y-11487589D01*
X-8751520Y-11495942D01*
X-8751520Y-11717001D01*
X-8753455Y-11712329D01*
X-8871320Y-11535933D01*
X-9021333Y-11385920D01*
X-9197729Y-11268055D01*
X-9393731Y-11186869D01*
X-9601805Y-11145480D01*
X-9813955Y-11145480D01*
X-10022029Y-11186869D01*
X-10218031Y-11268055D01*
X-10394427Y-11385920D01*
X-10544440Y-11535933D01*
X-10662305Y-11712329D01*
X-10743491Y-11908331D01*
X-10784880Y-12116405D01*
X-10784880Y-12328555D01*
X-10743491Y-12536629D01*
X-10724538Y-12582385D01*
X-10739374Y-12631291D01*
X-10749549Y-12734600D01*
X-10746999Y-12760491D01*
X-10747000Y-15481418D01*
X-10770000Y-15481418D01*
X-10834103Y-15487732D01*
X-10895743Y-15506430D01*
X-10952550Y-15536794D01*
X-11002343Y-15577657D01*
X-11043206Y-15627450D01*
X-11073570Y-15684257D01*
X-11092268Y-15745897D01*
X-11098582Y-15810000D01*
X-11098582Y-18410000D01*
X-11092377Y-18473000D01*
X-11347623Y-18473000D01*
X-11341418Y-18410000D01*
X-11341418Y-15810000D01*
X-11347732Y-15745897D01*
X-11366430Y-15684257D01*
X-11396794Y-15627450D01*
X-11437657Y-15577657D01*
X-11487450Y-15536794D01*
X-11544257Y-15506430D01*
X-11605897Y-15487732D01*
X-11670000Y-15481418D01*
X-11708680Y-15481418D01*
X-11708680Y-14815284D01*
X-11551173Y-14710040D01*
X-11401160Y-14560027D01*
X-11283295Y-14383631D01*
X-11202109Y-14187629D01*
X-11160720Y-13979555D01*
X-11160720Y-13767405D01*
X-11202109Y-13559331D01*
X-11283295Y-13363329D01*
X-11401160Y-13186933D01*
X-11551173Y-13036920D01*
X-11727569Y-12919055D01*
X-11923571Y-12837869D01*
X-12131645Y-12796480D01*
X-12343795Y-12796480D01*
X-12551869Y-12837869D01*
X-12747871Y-12919055D01*
X-12924267Y-13036920D01*
X-13074280Y-13186933D01*
X-13192145Y-13363329D01*
X-13273331Y-13559331D01*
X-13314720Y-13767405D01*
X-13314720Y-13979555D01*
X-13273331Y-14187629D01*
X-13192145Y-14383631D01*
X-13074280Y-14560027D01*
X-12924267Y-14710040D01*
X-12762679Y-14818010D01*
X-12762679Y-15481418D01*
X-12770000Y-15481418D01*
X-12834103Y-15487732D01*
X-12895743Y-15506430D01*
X-12952550Y-15536794D01*
X-13002343Y-15577657D01*
X-13043206Y-15627450D01*
X-13073570Y-15684257D01*
X-13092268Y-15745897D01*
X-13098582Y-15810000D01*
X-13098582Y-18410000D01*
X-13092377Y-18473000D01*
X-13347623Y-18473000D01*
X-13341418Y-18410000D01*
X-13341418Y-15810000D01*
X-13347732Y-15745897D01*
X-13366430Y-15684257D01*
X-13396794Y-15627450D01*
X-13437657Y-15577657D01*
X-13487450Y-15536794D01*
X-13544257Y-15506430D01*
X-13605897Y-15487732D01*
X-13670000Y-15481418D01*
X-13799940Y-15481418D01*
X-13799940Y-15372255D01*
X-13742799Y-15325361D01*
X-13683592Y-15253217D01*
X-13639598Y-15170909D01*
X-13612506Y-15081599D01*
X-13603358Y-14988720D01*
X-13603358Y-14693720D01*
X-13612506Y-14600841D01*
X-13639598Y-14511531D01*
X-13683592Y-14429223D01*
X-13742799Y-14357079D01*
X-13743846Y-14356220D01*
X-13742799Y-14355361D01*
X-13683592Y-14283217D01*
X-13639598Y-14200909D01*
X-13612506Y-14111599D01*
X-13603358Y-14018720D01*
X-13603358Y-13723720D01*
X-13612506Y-13630841D01*
X-13639598Y-13541531D01*
X-13683592Y-13459223D01*
X-13742799Y-13387079D01*
X-13799940Y-13340185D01*
X-13799940Y-13084438D01*
X-13685909Y-13037205D01*
X-13509513Y-12919340D01*
X-13359500Y-12769327D01*
X-13252893Y-12609780D01*
X-13161281Y-12609780D01*
X-13135400Y-12612329D01*
X-13109519Y-12609780D01*
X-13032090Y-12602154D01*
X-12932750Y-12572019D01*
X-12841198Y-12523084D01*
X-12760952Y-12457228D01*
X-12744445Y-12437114D01*
X-10594339Y-10287010D01*
X-8871392Y-10287010D01*
X-8899259Y-10328716D01*
G37*
G04 #@! TD.AperFunction*
M02*
