G04 #@! TF.GenerationSoftware,KiCad,Pcbnew,(5.1.10)-1*
G04 #@! TF.CreationDate,2021-10-05T13:08:05+05:30*
G04 #@! TF.ProjectId,P-1000072_Cicada Wi-Fi,502d3130-3030-4303-9732-5f4369636164,0.1*
G04 #@! TF.SameCoordinates,PX7cee6c0PY3dfd240*
G04 #@! TF.FileFunction,Copper,L2,Bot*
G04 #@! TF.FilePolarity,Positive*
%FSLAX46Y46*%
G04 Gerber Fmt 4.6, Leading zero omitted, Abs format (unit mm)*
G04 Created by KiCad (PCBNEW (5.1.10)-1) date 2021-10-05 13:08:05*
%MOMM*%
%LPD*%
G01*
G04 APERTURE LIST*
G04 #@! TA.AperFunction,EtchedComponent*
%ADD10C,0.010000*%
G04 #@! TD*
G04 #@! TA.AperFunction,ComponentPad*
%ADD11O,1.700000X1.700000*%
G04 #@! TD*
G04 #@! TA.AperFunction,ComponentPad*
%ADD12R,1.700000X1.700000*%
G04 #@! TD*
G04 #@! TA.AperFunction,ComponentPad*
%ADD13C,0.450000*%
G04 #@! TD*
G04 #@! TA.AperFunction,SMDPad,CuDef*
%ADD14C,1.500000*%
G04 #@! TD*
G04 #@! TA.AperFunction,ComponentPad*
%ADD15C,1.600000*%
G04 #@! TD*
G04 #@! TA.AperFunction,ComponentPad*
%ADD16R,1.600000X1.600000*%
G04 #@! TD*
G04 #@! TA.AperFunction,ComponentPad*
%ADD17C,5.500000*%
G04 #@! TD*
G04 #@! TA.AperFunction,SMDPad,CuDef*
%ADD18C,1.000000*%
G04 #@! TD*
G04 #@! TA.AperFunction,ViaPad*
%ADD19C,0.800000*%
G04 #@! TD*
G04 #@! TA.AperFunction,ViaPad*
%ADD20C,0.700000*%
G04 #@! TD*
G04 #@! TA.AperFunction,Conductor*
%ADD21C,0.500000*%
G04 #@! TD*
G04 #@! TA.AperFunction,Conductor*
%ADD22C,1.200000*%
G04 #@! TD*
G04 #@! TA.AperFunction,Conductor*
%ADD23C,0.250000*%
G04 #@! TD*
G04 #@! TA.AperFunction,Conductor*
%ADD24C,0.400000*%
G04 #@! TD*
G04 #@! TA.AperFunction,Conductor*
%ADD25C,0.600000*%
G04 #@! TD*
G04 #@! TA.AperFunction,Conductor*
%ADD26C,0.254000*%
G04 #@! TD*
G04 #@! TA.AperFunction,Conductor*
%ADD27C,0.100000*%
G04 #@! TD*
G04 APERTURE END LIST*
D10*
G36*
X-13836580Y-18980604D02*
G01*
X-13854745Y-18736574D01*
X-13885044Y-18551393D01*
X-14016120Y-18151408D01*
X-14209616Y-17791295D01*
X-14459791Y-17478509D01*
X-14760901Y-17220506D01*
X-15034793Y-17058465D01*
X-15264521Y-16952103D01*
X-15469954Y-16873911D01*
X-15671080Y-16819869D01*
X-15887888Y-16785959D01*
X-16140368Y-16768164D01*
X-16448509Y-16762465D01*
X-16507531Y-16762410D01*
X-16786767Y-16765157D01*
X-17003481Y-16773735D01*
X-17174399Y-16789501D01*
X-17316249Y-16813809D01*
X-17400500Y-16834752D01*
X-17812732Y-16985345D01*
X-18176850Y-17192518D01*
X-18487436Y-17452025D01*
X-18739074Y-17759617D01*
X-18870515Y-17987481D01*
X-18953395Y-18175195D01*
X-19028271Y-18378844D01*
X-19081049Y-18559429D01*
X-19087244Y-18587094D01*
X-19119778Y-18811814D01*
X-19137390Y-19084561D01*
X-19140122Y-19376874D01*
X-19128020Y-19660288D01*
X-19101124Y-19906343D01*
X-19085115Y-19993142D01*
X-18959070Y-20395745D01*
X-18766784Y-20757927D01*
X-18513026Y-21074741D01*
X-18202562Y-21341237D01*
X-17840160Y-21552466D01*
X-17439905Y-21700888D01*
X-17176264Y-21756902D01*
X-16865483Y-21794941D01*
X-16538127Y-21813234D01*
X-16514178Y-21812988D01*
X-16514178Y-20147694D01*
X-16714648Y-20137939D01*
X-17058851Y-20087404D01*
X-17333287Y-20003035D01*
X-17541111Y-19882343D01*
X-17685478Y-19722842D01*
X-17769546Y-19522043D01*
X-17796463Y-19285112D01*
X-17788014Y-19110585D01*
X-17755667Y-18977548D01*
X-17701127Y-18866396D01*
X-17559635Y-18701107D01*
X-17352820Y-18569844D01*
X-17088407Y-18475569D01*
X-16774117Y-18421245D01*
X-16507531Y-18408500D01*
X-16159101Y-18430788D01*
X-15852948Y-18495586D01*
X-15597482Y-18599797D01*
X-15401112Y-18740324D01*
X-15308916Y-18850017D01*
X-15247503Y-18956983D01*
X-15214702Y-19062604D01*
X-15202379Y-19199530D01*
X-15201345Y-19281625D01*
X-15207111Y-19444442D01*
X-15229715Y-19560740D01*
X-15277118Y-19662878D01*
X-15306711Y-19709901D01*
X-15448884Y-19858626D01*
X-15653941Y-19980788D01*
X-15908658Y-20072367D01*
X-16199811Y-20129342D01*
X-16514178Y-20147694D01*
X-16514178Y-21812988D01*
X-16224759Y-21810007D01*
X-15971750Y-21786001D01*
X-15504612Y-21684845D01*
X-15097383Y-21532970D01*
X-14747007Y-21327987D01*
X-14450426Y-21067503D01*
X-14204582Y-20749130D01*
X-14006419Y-20370474D01*
X-13937552Y-20195330D01*
X-13894060Y-20024330D01*
X-13861534Y-19795990D01*
X-13840657Y-19531678D01*
X-13832111Y-19252761D01*
X-13836580Y-18980604D01*
G37*
X-13836580Y-18980604D02*
X-13854745Y-18736574D01*
X-13885044Y-18551393D01*
X-14016120Y-18151408D01*
X-14209616Y-17791295D01*
X-14459791Y-17478509D01*
X-14760901Y-17220506D01*
X-15034793Y-17058465D01*
X-15264521Y-16952103D01*
X-15469954Y-16873911D01*
X-15671080Y-16819869D01*
X-15887888Y-16785959D01*
X-16140368Y-16768164D01*
X-16448509Y-16762465D01*
X-16507531Y-16762410D01*
X-16786767Y-16765157D01*
X-17003481Y-16773735D01*
X-17174399Y-16789501D01*
X-17316249Y-16813809D01*
X-17400500Y-16834752D01*
X-17812732Y-16985345D01*
X-18176850Y-17192518D01*
X-18487436Y-17452025D01*
X-18739074Y-17759617D01*
X-18870515Y-17987481D01*
X-18953395Y-18175195D01*
X-19028271Y-18378844D01*
X-19081049Y-18559429D01*
X-19087244Y-18587094D01*
X-19119778Y-18811814D01*
X-19137390Y-19084561D01*
X-19140122Y-19376874D01*
X-19128020Y-19660288D01*
X-19101124Y-19906343D01*
X-19085115Y-19993142D01*
X-18959070Y-20395745D01*
X-18766784Y-20757927D01*
X-18513026Y-21074741D01*
X-18202562Y-21341237D01*
X-17840160Y-21552466D01*
X-17439905Y-21700888D01*
X-17176264Y-21756902D01*
X-16865483Y-21794941D01*
X-16538127Y-21813234D01*
X-16514178Y-21812988D01*
X-16514178Y-20147694D01*
X-16714648Y-20137939D01*
X-17058851Y-20087404D01*
X-17333287Y-20003035D01*
X-17541111Y-19882343D01*
X-17685478Y-19722842D01*
X-17769546Y-19522043D01*
X-17796463Y-19285112D01*
X-17788014Y-19110585D01*
X-17755667Y-18977548D01*
X-17701127Y-18866396D01*
X-17559635Y-18701107D01*
X-17352820Y-18569844D01*
X-17088407Y-18475569D01*
X-16774117Y-18421245D01*
X-16507531Y-18408500D01*
X-16159101Y-18430788D01*
X-15852948Y-18495586D01*
X-15597482Y-18599797D01*
X-15401112Y-18740324D01*
X-15308916Y-18850017D01*
X-15247503Y-18956983D01*
X-15214702Y-19062604D01*
X-15202379Y-19199530D01*
X-15201345Y-19281625D01*
X-15207111Y-19444442D01*
X-15229715Y-19560740D01*
X-15277118Y-19662878D01*
X-15306711Y-19709901D01*
X-15448884Y-19858626D01*
X-15653941Y-19980788D01*
X-15908658Y-20072367D01*
X-16199811Y-20129342D01*
X-16514178Y-20147694D01*
X-16514178Y-21812988D01*
X-16224759Y-21810007D01*
X-15971750Y-21786001D01*
X-15504612Y-21684845D01*
X-15097383Y-21532970D01*
X-14747007Y-21327987D01*
X-14450426Y-21067503D01*
X-14204582Y-20749130D01*
X-14006419Y-20370474D01*
X-13937552Y-20195330D01*
X-13894060Y-20024330D01*
X-13861534Y-19795990D01*
X-13840657Y-19531678D01*
X-13832111Y-19252761D01*
X-13836580Y-18980604D01*
G36*
X-13853166Y-2681053D02*
G01*
X-13928055Y-2272155D01*
X-14055183Y-1920100D01*
X-14236446Y-1621872D01*
X-14473735Y-1374458D01*
X-14768946Y-1174844D01*
X-15123972Y-1020014D01*
X-15178000Y-1001920D01*
X-15239281Y-984448D01*
X-15310857Y-969862D01*
X-15400569Y-957811D01*
X-15516261Y-947946D01*
X-15665774Y-939916D01*
X-15856952Y-933371D01*
X-16097636Y-927961D01*
X-16395670Y-923335D01*
X-16758894Y-919144D01*
X-17105606Y-915832D01*
X-18814931Y-900458D01*
X-18864284Y-1065184D01*
X-18892454Y-1170842D01*
X-18931029Y-1331145D01*
X-18974588Y-1522955D01*
X-19011422Y-1693189D01*
X-19056327Y-1954138D01*
X-19092043Y-2257203D01*
X-19117548Y-2581418D01*
X-19131819Y-2905818D01*
X-19133836Y-3209436D01*
X-19122577Y-3471308D01*
X-19105498Y-3623362D01*
X-19022857Y-4016041D01*
X-18907396Y-4343902D01*
X-18754958Y-4616144D01*
X-18561387Y-4841967D01*
X-18550247Y-4852492D01*
X-18301395Y-5046437D01*
X-18031060Y-5177747D01*
X-17726795Y-5250451D01*
X-17376151Y-5268580D01*
X-17331542Y-5266926D01*
X-17331542Y-3841162D01*
X-17502591Y-3821159D01*
X-17660533Y-3739637D01*
X-17791613Y-3598069D01*
X-17878507Y-3410056D01*
X-17897817Y-3303601D01*
X-17909369Y-3152235D01*
X-17913441Y-2977470D01*
X-17910312Y-2800815D01*
X-17900262Y-2643781D01*
X-17883569Y-2527877D01*
X-17866441Y-2480298D01*
X-17836742Y-2452091D01*
X-17787447Y-2433487D01*
X-17704836Y-2423097D01*
X-17575190Y-2419533D01*
X-17384790Y-2421410D01*
X-17300894Y-2423103D01*
X-16785343Y-2434282D01*
X-16786380Y-2890688D01*
X-16788807Y-3098329D01*
X-16796882Y-3246314D01*
X-16813458Y-3354314D01*
X-16841389Y-3442001D01*
X-16877278Y-3517323D01*
X-17005133Y-3690717D01*
X-17161139Y-3798172D01*
X-17331542Y-3841162D01*
X-17331542Y-5266926D01*
X-17276360Y-5264878D01*
X-16939254Y-5217491D01*
X-16650988Y-5111465D01*
X-16403377Y-4943372D01*
X-16320100Y-4864426D01*
X-16139024Y-4647006D01*
X-15996101Y-4402065D01*
X-15888078Y-4119404D01*
X-15811700Y-3788824D01*
X-15763716Y-3400128D01*
X-15744227Y-3059360D01*
X-15722999Y-2454125D01*
X-15624424Y-2454125D01*
X-15519300Y-2488010D01*
X-15403268Y-2577091D01*
X-15293986Y-2702507D01*
X-15209113Y-2845397D01*
X-15177212Y-2931814D01*
X-15152196Y-3093240D01*
X-15144129Y-3329021D01*
X-15150682Y-3585219D01*
X-15168079Y-3857913D01*
X-15196108Y-4083685D01*
X-15240237Y-4294823D01*
X-15305933Y-4523611D01*
X-15313791Y-4548367D01*
X-15321645Y-4599324D01*
X-15298017Y-4641569D01*
X-15229231Y-4687861D01*
X-15101610Y-4750957D01*
X-15091607Y-4755638D01*
X-14910370Y-4825805D01*
X-14703249Y-4885082D01*
X-14562843Y-4912876D01*
X-14371739Y-4940180D01*
X-14243535Y-4951116D01*
X-14162194Y-4937636D01*
X-14111679Y-4891693D01*
X-14075952Y-4805237D01*
X-14038976Y-4670222D01*
X-14032753Y-4646860D01*
X-13906269Y-4074489D01*
X-13840577Y-3519483D01*
X-13828624Y-3149807D01*
X-13853166Y-2681053D01*
G37*
X-13853166Y-2681053D02*
X-13928055Y-2272155D01*
X-14055183Y-1920100D01*
X-14236446Y-1621872D01*
X-14473735Y-1374458D01*
X-14768946Y-1174844D01*
X-15123972Y-1020014D01*
X-15178000Y-1001920D01*
X-15239281Y-984448D01*
X-15310857Y-969862D01*
X-15400569Y-957811D01*
X-15516261Y-947946D01*
X-15665774Y-939916D01*
X-15856952Y-933371D01*
X-16097636Y-927961D01*
X-16395670Y-923335D01*
X-16758894Y-919144D01*
X-17105606Y-915832D01*
X-18814931Y-900458D01*
X-18864284Y-1065184D01*
X-18892454Y-1170842D01*
X-18931029Y-1331145D01*
X-18974588Y-1522955D01*
X-19011422Y-1693189D01*
X-19056327Y-1954138D01*
X-19092043Y-2257203D01*
X-19117548Y-2581418D01*
X-19131819Y-2905818D01*
X-19133836Y-3209436D01*
X-19122577Y-3471308D01*
X-19105498Y-3623362D01*
X-19022857Y-4016041D01*
X-18907396Y-4343902D01*
X-18754958Y-4616144D01*
X-18561387Y-4841967D01*
X-18550247Y-4852492D01*
X-18301395Y-5046437D01*
X-18031060Y-5177747D01*
X-17726795Y-5250451D01*
X-17376151Y-5268580D01*
X-17331542Y-5266926D01*
X-17331542Y-3841162D01*
X-17502591Y-3821159D01*
X-17660533Y-3739637D01*
X-17791613Y-3598069D01*
X-17878507Y-3410056D01*
X-17897817Y-3303601D01*
X-17909369Y-3152235D01*
X-17913441Y-2977470D01*
X-17910312Y-2800815D01*
X-17900262Y-2643781D01*
X-17883569Y-2527877D01*
X-17866441Y-2480298D01*
X-17836742Y-2452091D01*
X-17787447Y-2433487D01*
X-17704836Y-2423097D01*
X-17575190Y-2419533D01*
X-17384790Y-2421410D01*
X-17300894Y-2423103D01*
X-16785343Y-2434282D01*
X-16786380Y-2890688D01*
X-16788807Y-3098329D01*
X-16796882Y-3246314D01*
X-16813458Y-3354314D01*
X-16841389Y-3442001D01*
X-16877278Y-3517323D01*
X-17005133Y-3690717D01*
X-17161139Y-3798172D01*
X-17331542Y-3841162D01*
X-17331542Y-5266926D01*
X-17276360Y-5264878D01*
X-16939254Y-5217491D01*
X-16650988Y-5111465D01*
X-16403377Y-4943372D01*
X-16320100Y-4864426D01*
X-16139024Y-4647006D01*
X-15996101Y-4402065D01*
X-15888078Y-4119404D01*
X-15811700Y-3788824D01*
X-15763716Y-3400128D01*
X-15744227Y-3059360D01*
X-15722999Y-2454125D01*
X-15624424Y-2454125D01*
X-15519300Y-2488010D01*
X-15403268Y-2577091D01*
X-15293986Y-2702507D01*
X-15209113Y-2845397D01*
X-15177212Y-2931814D01*
X-15152196Y-3093240D01*
X-15144129Y-3329021D01*
X-15150682Y-3585219D01*
X-15168079Y-3857913D01*
X-15196108Y-4083685D01*
X-15240237Y-4294823D01*
X-15305933Y-4523611D01*
X-15313791Y-4548367D01*
X-15321645Y-4599324D01*
X-15298017Y-4641569D01*
X-15229231Y-4687861D01*
X-15101610Y-4750957D01*
X-15091607Y-4755638D01*
X-14910370Y-4825805D01*
X-14703249Y-4885082D01*
X-14562843Y-4912876D01*
X-14371739Y-4940180D01*
X-14243535Y-4951116D01*
X-14162194Y-4937636D01*
X-14111679Y-4891693D01*
X-14075952Y-4805237D01*
X-14038976Y-4670222D01*
X-14032753Y-4646860D01*
X-13906269Y-4074489D01*
X-13840577Y-3519483D01*
X-13828624Y-3149807D01*
X-13853166Y-2681053D01*
G36*
X-13889956Y-14861263D02*
G01*
X-13894277Y-14658353D01*
X-13902053Y-14490657D01*
X-13913300Y-14376595D01*
X-13918678Y-14350454D01*
X-13949199Y-14241313D01*
X-16486101Y-14241313D01*
X-17029362Y-14241680D01*
X-17497528Y-14242833D01*
X-17894876Y-14244851D01*
X-18225685Y-14247813D01*
X-18494230Y-14251797D01*
X-18704789Y-14256882D01*
X-18861640Y-14263147D01*
X-18969060Y-14270670D01*
X-19031325Y-14279530D01*
X-19052181Y-14288525D01*
X-19062712Y-14342918D01*
X-19072443Y-14460037D01*
X-19080988Y-14623235D01*
X-19087965Y-14815865D01*
X-19092990Y-15021280D01*
X-19095678Y-15222831D01*
X-19095646Y-15403872D01*
X-19092510Y-15547755D01*
X-19085885Y-15637833D01*
X-19083585Y-15650219D01*
X-19058808Y-15757073D01*
X-19045229Y-15818891D01*
X-19026175Y-15908188D01*
X-13951284Y-15908188D01*
X-13919720Y-15759360D01*
X-13906964Y-15656666D01*
X-13897595Y-15497090D01*
X-13891629Y-15299051D01*
X-13889078Y-15080969D01*
X-13889956Y-14861263D01*
G37*
X-13889956Y-14861263D02*
X-13894277Y-14658353D01*
X-13902053Y-14490657D01*
X-13913300Y-14376595D01*
X-13918678Y-14350454D01*
X-13949199Y-14241313D01*
X-16486101Y-14241313D01*
X-17029362Y-14241680D01*
X-17497528Y-14242833D01*
X-17894876Y-14244851D01*
X-18225685Y-14247813D01*
X-18494230Y-14251797D01*
X-18704789Y-14256882D01*
X-18861640Y-14263147D01*
X-18969060Y-14270670D01*
X-19031325Y-14279530D01*
X-19052181Y-14288525D01*
X-19062712Y-14342918D01*
X-19072443Y-14460037D01*
X-19080988Y-14623235D01*
X-19087965Y-14815865D01*
X-19092990Y-15021280D01*
X-19095678Y-15222831D01*
X-19095646Y-15403872D01*
X-19092510Y-15547755D01*
X-19085885Y-15637833D01*
X-19083585Y-15650219D01*
X-19058808Y-15757073D01*
X-19045229Y-15818891D01*
X-19026175Y-15908188D01*
X-13951284Y-15908188D01*
X-13919720Y-15759360D01*
X-13906964Y-15656666D01*
X-13897595Y-15497090D01*
X-13891629Y-15299051D01*
X-13889078Y-15080969D01*
X-13889956Y-14861263D01*
G36*
X-13887743Y-11796595D02*
G01*
X-13892119Y-11581360D01*
X-13899978Y-11393670D01*
X-13911321Y-11248413D01*
X-13926148Y-11160476D01*
X-13934436Y-11143064D01*
X-13964844Y-11138553D01*
X-14030337Y-11156199D01*
X-14136508Y-11198580D01*
X-14288951Y-11268272D01*
X-14493259Y-11367851D01*
X-14755025Y-11499896D01*
X-15079844Y-11666982D01*
X-15144905Y-11700700D01*
X-16309093Y-12304617D01*
X-17666636Y-11626886D01*
X-18049688Y-11436828D01*
X-18365846Y-11282612D01*
X-18618291Y-11162795D01*
X-18810201Y-11075933D01*
X-18944756Y-11020583D01*
X-19025135Y-10995302D01*
X-19053903Y-10997249D01*
X-19065654Y-11054749D01*
X-19075581Y-11176159D01*
X-19083515Y-11346031D01*
X-19089286Y-11548916D01*
X-19092724Y-11769367D01*
X-19093660Y-11991935D01*
X-19091923Y-12201173D01*
X-19087344Y-12381632D01*
X-19079752Y-12517865D01*
X-19071360Y-12584798D01*
X-19047390Y-12684449D01*
X-19027303Y-12744022D01*
X-19023941Y-12749070D01*
X-18980541Y-12774395D01*
X-18876065Y-12829249D01*
X-18720278Y-12908818D01*
X-18522944Y-13008289D01*
X-18293827Y-13122847D01*
X-18042691Y-13247680D01*
X-17779301Y-13377974D01*
X-17513421Y-13508913D01*
X-17254815Y-13635686D01*
X-17013247Y-13753478D01*
X-16798482Y-13857475D01*
X-16620284Y-13942864D01*
X-16488416Y-14004830D01*
X-16412644Y-14038561D01*
X-16398631Y-14043344D01*
X-16341390Y-14026391D01*
X-16224649Y-13978455D01*
X-16058714Y-13904600D01*
X-15853894Y-13809888D01*
X-15620494Y-13699385D01*
X-15368821Y-13578152D01*
X-15109182Y-13451254D01*
X-14851885Y-13323755D01*
X-14607235Y-13200717D01*
X-14385540Y-13087204D01*
X-14197106Y-12988281D01*
X-14052240Y-12909010D01*
X-13961250Y-12854455D01*
X-13934554Y-12832790D01*
X-13918059Y-12764909D01*
X-13905039Y-12635252D01*
X-13895496Y-12458704D01*
X-13889432Y-12250154D01*
X-13886847Y-12024489D01*
X-13887743Y-11796595D01*
G37*
X-13887743Y-11796595D02*
X-13892119Y-11581360D01*
X-13899978Y-11393670D01*
X-13911321Y-11248413D01*
X-13926148Y-11160476D01*
X-13934436Y-11143064D01*
X-13964844Y-11138553D01*
X-14030337Y-11156199D01*
X-14136508Y-11198580D01*
X-14288951Y-11268272D01*
X-14493259Y-11367851D01*
X-14755025Y-11499896D01*
X-15079844Y-11666982D01*
X-15144905Y-11700700D01*
X-16309093Y-12304617D01*
X-17666636Y-11626886D01*
X-18049688Y-11436828D01*
X-18365846Y-11282612D01*
X-18618291Y-11162795D01*
X-18810201Y-11075933D01*
X-18944756Y-11020583D01*
X-19025135Y-10995302D01*
X-19053903Y-10997249D01*
X-19065654Y-11054749D01*
X-19075581Y-11176159D01*
X-19083515Y-11346031D01*
X-19089286Y-11548916D01*
X-19092724Y-11769367D01*
X-19093660Y-11991935D01*
X-19091923Y-12201173D01*
X-19087344Y-12381632D01*
X-19079752Y-12517865D01*
X-19071360Y-12584798D01*
X-19047390Y-12684449D01*
X-19027303Y-12744022D01*
X-19023941Y-12749070D01*
X-18980541Y-12774395D01*
X-18876065Y-12829249D01*
X-18720278Y-12908818D01*
X-18522944Y-13008289D01*
X-18293827Y-13122847D01*
X-18042691Y-13247680D01*
X-17779301Y-13377974D01*
X-17513421Y-13508913D01*
X-17254815Y-13635686D01*
X-17013247Y-13753478D01*
X-16798482Y-13857475D01*
X-16620284Y-13942864D01*
X-16488416Y-14004830D01*
X-16412644Y-14038561D01*
X-16398631Y-14043344D01*
X-16341390Y-14026391D01*
X-16224649Y-13978455D01*
X-16058714Y-13904600D01*
X-15853894Y-13809888D01*
X-15620494Y-13699385D01*
X-15368821Y-13578152D01*
X-15109182Y-13451254D01*
X-14851885Y-13323755D01*
X-14607235Y-13200717D01*
X-14385540Y-13087204D01*
X-14197106Y-12988281D01*
X-14052240Y-12909010D01*
X-13961250Y-12854455D01*
X-13934554Y-12832790D01*
X-13918059Y-12764909D01*
X-13905039Y-12635252D01*
X-13895496Y-12458704D01*
X-13889432Y-12250154D01*
X-13886847Y-12024489D01*
X-13887743Y-11796595D01*
G36*
X-13835017Y-8142424D02*
G01*
X-13851518Y-7848721D01*
X-13878001Y-7611865D01*
X-13890271Y-7542374D01*
X-13998512Y-7156814D01*
X-14156055Y-6819681D01*
X-14358598Y-6537273D01*
X-14601842Y-6315887D01*
X-14813013Y-6191505D01*
X-14915388Y-6146540D01*
X-15008143Y-6116411D01*
X-15111224Y-6098190D01*
X-15244575Y-6088952D01*
X-15428142Y-6085769D01*
X-15535187Y-6085532D01*
X-15748543Y-6086902D01*
X-15902506Y-6092971D01*
X-16017039Y-6106675D01*
X-16112104Y-6130950D01*
X-16207664Y-6168734D01*
X-16258216Y-6191896D01*
X-16415758Y-6280934D01*
X-16582088Y-6398050D01*
X-16680822Y-6481287D01*
X-16876492Y-6664314D01*
X-17942167Y-6108164D01*
X-19007843Y-5552015D01*
X-19040909Y-5660023D01*
X-19054055Y-5743832D01*
X-19064626Y-5889954D01*
X-19072468Y-6081366D01*
X-19077425Y-6301045D01*
X-19079344Y-6531964D01*
X-19078070Y-6757102D01*
X-19073447Y-6959433D01*
X-19065322Y-7121934D01*
X-19055073Y-7218944D01*
X-19025104Y-7399856D01*
X-17889142Y-7933319D01*
X-17610087Y-8064311D01*
X-17354120Y-8184360D01*
X-17130077Y-8289329D01*
X-16946797Y-8375081D01*
X-16813117Y-8437480D01*
X-16737877Y-8472388D01*
X-16724809Y-8478292D01*
X-16689965Y-8454074D01*
X-16629140Y-8379518D01*
X-16573847Y-8298762D01*
X-16400260Y-8067175D01*
X-16217884Y-7907448D01*
X-16014527Y-7812138D01*
X-15777996Y-7773804D01*
X-15711257Y-7772250D01*
X-15486147Y-7798099D01*
X-15317342Y-7877587D01*
X-15202130Y-8013626D01*
X-15137798Y-8209128D01*
X-15121186Y-8405726D01*
X-15118468Y-8665219D01*
X-17068546Y-8675512D01*
X-19018624Y-8685806D01*
X-19044589Y-8774731D01*
X-19055398Y-8847102D01*
X-19066110Y-8978925D01*
X-19076062Y-9151547D01*
X-19084588Y-9346314D01*
X-19091024Y-9544574D01*
X-19094705Y-9727672D01*
X-19094967Y-9876956D01*
X-19091146Y-9973772D01*
X-19088050Y-9994750D01*
X-19071637Y-10072212D01*
X-19051417Y-10184724D01*
X-19048375Y-10203110D01*
X-19024090Y-10351938D01*
X-13954664Y-10351938D01*
X-13931689Y-10203110D01*
X-13893527Y-9904069D01*
X-13863852Y-9565949D01*
X-13842915Y-9204736D01*
X-13830965Y-8836419D01*
X-13828249Y-8476986D01*
X-13835017Y-8142424D01*
G37*
X-13835017Y-8142424D02*
X-13851518Y-7848721D01*
X-13878001Y-7611865D01*
X-13890271Y-7542374D01*
X-13998512Y-7156814D01*
X-14156055Y-6819681D01*
X-14358598Y-6537273D01*
X-14601842Y-6315887D01*
X-14813013Y-6191505D01*
X-14915388Y-6146540D01*
X-15008143Y-6116411D01*
X-15111224Y-6098190D01*
X-15244575Y-6088952D01*
X-15428142Y-6085769D01*
X-15535187Y-6085532D01*
X-15748543Y-6086902D01*
X-15902506Y-6092971D01*
X-16017039Y-6106675D01*
X-16112104Y-6130950D01*
X-16207664Y-6168734D01*
X-16258216Y-6191896D01*
X-16415758Y-6280934D01*
X-16582088Y-6398050D01*
X-16680822Y-6481287D01*
X-16876492Y-6664314D01*
X-17942167Y-6108164D01*
X-19007843Y-5552015D01*
X-19040909Y-5660023D01*
X-19054055Y-5743832D01*
X-19064626Y-5889954D01*
X-19072468Y-6081366D01*
X-19077425Y-6301045D01*
X-19079344Y-6531964D01*
X-19078070Y-6757102D01*
X-19073447Y-6959433D01*
X-19065322Y-7121934D01*
X-19055073Y-7218944D01*
X-19025104Y-7399856D01*
X-17889142Y-7933319D01*
X-17610087Y-8064311D01*
X-17354120Y-8184360D01*
X-17130077Y-8289329D01*
X-16946797Y-8375081D01*
X-16813117Y-8437480D01*
X-16737877Y-8472388D01*
X-16724809Y-8478292D01*
X-16689965Y-8454074D01*
X-16629140Y-8379518D01*
X-16573847Y-8298762D01*
X-16400260Y-8067175D01*
X-16217884Y-7907448D01*
X-16014527Y-7812138D01*
X-15777996Y-7773804D01*
X-15711257Y-7772250D01*
X-15486147Y-7798099D01*
X-15317342Y-7877587D01*
X-15202130Y-8013626D01*
X-15137798Y-8209128D01*
X-15121186Y-8405726D01*
X-15118468Y-8665219D01*
X-17068546Y-8675512D01*
X-19018624Y-8685806D01*
X-19044589Y-8774731D01*
X-19055398Y-8847102D01*
X-19066110Y-8978925D01*
X-19076062Y-9151547D01*
X-19084588Y-9346314D01*
X-19091024Y-9544574D01*
X-19094705Y-9727672D01*
X-19094967Y-9876956D01*
X-19091146Y-9973772D01*
X-19088050Y-9994750D01*
X-19071637Y-10072212D01*
X-19051417Y-10184724D01*
X-19048375Y-10203110D01*
X-19024090Y-10351938D01*
X-13954664Y-10351938D01*
X-13931689Y-10203110D01*
X-13893527Y-9904069D01*
X-13863852Y-9565949D01*
X-13842915Y-9204736D01*
X-13830965Y-8836419D01*
X-13828249Y-8476986D01*
X-13835017Y-8142424D01*
G36*
X-13760667Y-24809740D02*
G01*
X-13797443Y-24740853D01*
X-13876009Y-24619009D01*
X-13989257Y-24453774D01*
X-14130077Y-24254716D01*
X-14291361Y-24031400D01*
X-14465999Y-23793394D01*
X-14646884Y-23550265D01*
X-14826906Y-23311580D01*
X-14998958Y-23086905D01*
X-15155929Y-22885808D01*
X-15290711Y-22717855D01*
X-15396197Y-22592613D01*
X-15455523Y-22528811D01*
X-15537772Y-22451571D01*
X-15613489Y-22392836D01*
X-15692082Y-22353234D01*
X-15782960Y-22333394D01*
X-15895531Y-22333944D01*
X-16039204Y-22355513D01*
X-16223388Y-22398730D01*
X-16457489Y-22464223D01*
X-16750919Y-22552621D01*
X-17010289Y-22632688D01*
X-17431782Y-22763197D01*
X-17784196Y-22872602D01*
X-18074146Y-22963689D01*
X-18308248Y-23039244D01*
X-18493116Y-23102051D01*
X-18635367Y-23154897D01*
X-18741617Y-23200567D01*
X-18818479Y-23241847D01*
X-18872570Y-23281521D01*
X-18910505Y-23322377D01*
X-18938901Y-23367200D01*
X-18964371Y-23418774D01*
X-18986051Y-23464631D01*
X-19008022Y-23513667D01*
X-19025642Y-23566292D01*
X-19039390Y-23631409D01*
X-19049742Y-23717919D01*
X-19057178Y-23834723D01*
X-19062173Y-23990724D01*
X-19065207Y-24194821D01*
X-19066757Y-24455918D01*
X-19067300Y-24782916D01*
X-19067343Y-24979390D01*
X-19067132Y-25343294D01*
X-19066194Y-25636721D01*
X-19064039Y-25868566D01*
X-19060181Y-26047728D01*
X-19054131Y-26183103D01*
X-19045402Y-26283588D01*
X-19033506Y-26358080D01*
X-19017955Y-26415476D01*
X-18998261Y-26464672D01*
X-18984301Y-26493858D01*
X-18901503Y-26622922D01*
X-18787225Y-26725075D01*
X-18625732Y-26810954D01*
X-18401292Y-26891198D01*
X-18392687Y-26893855D01*
X-18287154Y-26926406D01*
X-18118374Y-26978568D01*
X-17898913Y-27046451D01*
X-17744997Y-27094087D01*
X-17744997Y-26369618D01*
X-17943944Y-26324027D01*
X-18116549Y-26205756D01*
X-18131044Y-26191085D01*
X-18247473Y-26020557D01*
X-18288067Y-25830075D01*
X-18252983Y-25617822D01*
X-18192480Y-25472875D01*
X-18055285Y-25275324D01*
X-17877724Y-25145501D01*
X-17665053Y-25084980D01*
X-17665053Y-24955439D01*
X-17818503Y-24948608D01*
X-17850306Y-24942297D01*
X-18002932Y-24868180D01*
X-18145468Y-24736861D01*
X-18261583Y-24570268D01*
X-18334951Y-24390328D01*
X-18352128Y-24268405D01*
X-18335246Y-24154344D01*
X-18293001Y-24029173D01*
X-18288575Y-24019576D01*
X-18171788Y-23857835D01*
X-18009649Y-23750957D01*
X-17816279Y-23701235D01*
X-17605798Y-23710962D01*
X-17392324Y-23782431D01*
X-17270916Y-23854326D01*
X-17141419Y-23986145D01*
X-17051305Y-24175796D01*
X-17004711Y-24374793D01*
X-16983751Y-24563181D01*
X-16996823Y-24694306D01*
X-17049175Y-24784877D01*
X-17146056Y-24851602D01*
X-17155997Y-24856463D01*
X-17299672Y-24905148D01*
X-17480733Y-24939546D01*
X-17665053Y-24955439D01*
X-17665053Y-25084980D01*
X-17661915Y-25084086D01*
X-17409974Y-25091760D01*
X-17182218Y-25148635D01*
X-16983781Y-25214907D01*
X-16985809Y-25552250D01*
X-16997653Y-25786597D01*
X-17034874Y-25960327D01*
X-17104881Y-26090138D01*
X-17215083Y-26192728D01*
X-17291580Y-26241347D01*
X-17525583Y-26342175D01*
X-17744997Y-26369618D01*
X-17744997Y-27094087D01*
X-17641341Y-27126168D01*
X-17358226Y-27213829D01*
X-17062136Y-27305546D01*
X-17030747Y-27315271D01*
X-16709768Y-27414338D01*
X-16455123Y-27491626D01*
X-16257482Y-27549347D01*
X-16111106Y-27588741D01*
X-16111106Y-26779034D01*
X-16312220Y-26753333D01*
X-16472354Y-26682799D01*
X-16660351Y-26531315D01*
X-16782492Y-26342149D01*
X-16835078Y-26126982D01*
X-16814409Y-25897496D01*
X-16765278Y-25757727D01*
X-16668884Y-25563226D01*
X-16641757Y-25524897D01*
X-16641757Y-25314125D01*
X-16759303Y-25301387D01*
X-16843941Y-25249860D01*
X-16901089Y-25185141D01*
X-16978521Y-25067875D01*
X-16996124Y-24969569D01*
X-16954800Y-24860700D01*
X-16913032Y-24794135D01*
X-16836437Y-24702043D01*
X-16747722Y-24659451D01*
X-16655274Y-24647088D01*
X-16533749Y-24648734D01*
X-16474947Y-24674280D01*
X-16474947Y-24591763D01*
X-16542497Y-24587107D01*
X-16602460Y-24540213D01*
X-16657452Y-24477814D01*
X-16757093Y-24341033D01*
X-16848716Y-24179959D01*
X-16920086Y-24019932D01*
X-16958965Y-23886294D01*
X-16962678Y-23845688D01*
X-16945693Y-23746907D01*
X-16903976Y-23622871D01*
X-16888695Y-23587719D01*
X-16762375Y-23386323D01*
X-16604336Y-23243129D01*
X-16426796Y-23160269D01*
X-16241972Y-23139877D01*
X-16062082Y-23184086D01*
X-15899345Y-23295030D01*
X-15811474Y-23399643D01*
X-15743443Y-23551208D01*
X-15710268Y-23737861D01*
X-15712476Y-23930922D01*
X-15750593Y-24101712D01*
X-15796957Y-24190043D01*
X-15940965Y-24336306D01*
X-16132193Y-24465424D01*
X-16338586Y-24556293D01*
X-16365452Y-24564363D01*
X-16474947Y-24591763D01*
X-16474947Y-24674280D01*
X-16449341Y-24685405D01*
X-16388679Y-24742180D01*
X-16304875Y-24880541D01*
X-16289647Y-25023747D01*
X-16335341Y-25154508D01*
X-16434307Y-25255532D01*
X-16578894Y-25309528D01*
X-16641757Y-25314125D01*
X-16641757Y-25524897D01*
X-16579982Y-25437609D01*
X-16483959Y-25373525D01*
X-16366203Y-25363623D01*
X-16212103Y-25400550D01*
X-16120023Y-25433092D01*
X-15887745Y-25554374D01*
X-15717220Y-25716472D01*
X-15612448Y-25910642D01*
X-15577429Y-26128141D01*
X-15616164Y-26360224D01*
X-15652814Y-26454321D01*
X-15768943Y-26626055D01*
X-15925860Y-26735450D01*
X-16111106Y-26779034D01*
X-16111106Y-27588741D01*
X-16107516Y-27589708D01*
X-15995894Y-27614921D01*
X-15913288Y-27627193D01*
X-15850367Y-27628734D01*
X-15797802Y-27621755D01*
X-15767480Y-27614430D01*
X-15635422Y-27558199D01*
X-15503664Y-27471280D01*
X-15473268Y-27444940D01*
X-15470115Y-27441570D01*
X-15470115Y-25579419D01*
X-15559157Y-25561356D01*
X-15636726Y-25533630D01*
X-15737909Y-25477738D01*
X-15858984Y-25386217D01*
X-15983322Y-25275117D01*
X-16094297Y-25160490D01*
X-16175278Y-25058387D01*
X-16209637Y-24984859D01*
X-16209875Y-24980388D01*
X-16189217Y-24922103D01*
X-16135917Y-24823646D01*
X-16083939Y-24740731D01*
X-15909971Y-24526289D01*
X-15722087Y-24388718D01*
X-15517696Y-24326327D01*
X-15442544Y-24321938D01*
X-15205665Y-24354323D01*
X-14998899Y-24445458D01*
X-14836076Y-24586314D01*
X-14731024Y-24767862D01*
X-14723031Y-24791717D01*
X-14708857Y-24962660D01*
X-14761700Y-25136524D01*
X-14871193Y-25298551D01*
X-15026970Y-25433982D01*
X-15218668Y-25528061D01*
X-15246265Y-25536653D01*
X-15377777Y-25571092D01*
X-15470115Y-25579419D01*
X-15470115Y-27441570D01*
X-15397048Y-27363474D01*
X-15285998Y-27231348D01*
X-15147056Y-27057939D01*
X-14987157Y-26852624D01*
X-14813238Y-26624778D01*
X-14632233Y-26383781D01*
X-14451080Y-26139007D01*
X-14276715Y-25899834D01*
X-14116073Y-25675639D01*
X-13976090Y-25475799D01*
X-13863703Y-25309690D01*
X-13785848Y-25186690D01*
X-13749461Y-25116175D01*
X-13748637Y-25113414D01*
X-13728806Y-24958868D01*
X-13760667Y-24809740D01*
G37*
X-13760667Y-24809740D02*
X-13797443Y-24740853D01*
X-13876009Y-24619009D01*
X-13989257Y-24453774D01*
X-14130077Y-24254716D01*
X-14291361Y-24031400D01*
X-14465999Y-23793394D01*
X-14646884Y-23550265D01*
X-14826906Y-23311580D01*
X-14998958Y-23086905D01*
X-15155929Y-22885808D01*
X-15290711Y-22717855D01*
X-15396197Y-22592613D01*
X-15455523Y-22528811D01*
X-15537772Y-22451571D01*
X-15613489Y-22392836D01*
X-15692082Y-22353234D01*
X-15782960Y-22333394D01*
X-15895531Y-22333944D01*
X-16039204Y-22355513D01*
X-16223388Y-22398730D01*
X-16457489Y-22464223D01*
X-16750919Y-22552621D01*
X-17010289Y-22632688D01*
X-17431782Y-22763197D01*
X-17784196Y-22872602D01*
X-18074146Y-22963689D01*
X-18308248Y-23039244D01*
X-18493116Y-23102051D01*
X-18635367Y-23154897D01*
X-18741617Y-23200567D01*
X-18818479Y-23241847D01*
X-18872570Y-23281521D01*
X-18910505Y-23322377D01*
X-18938901Y-23367200D01*
X-18964371Y-23418774D01*
X-18986051Y-23464631D01*
X-19008022Y-23513667D01*
X-19025642Y-23566292D01*
X-19039390Y-23631409D01*
X-19049742Y-23717919D01*
X-19057178Y-23834723D01*
X-19062173Y-23990724D01*
X-19065207Y-24194821D01*
X-19066757Y-24455918D01*
X-19067300Y-24782916D01*
X-19067343Y-24979390D01*
X-19067132Y-25343294D01*
X-19066194Y-25636721D01*
X-19064039Y-25868566D01*
X-19060181Y-26047728D01*
X-19054131Y-26183103D01*
X-19045402Y-26283588D01*
X-19033506Y-26358080D01*
X-19017955Y-26415476D01*
X-18998261Y-26464672D01*
X-18984301Y-26493858D01*
X-18901503Y-26622922D01*
X-18787225Y-26725075D01*
X-18625732Y-26810954D01*
X-18401292Y-26891198D01*
X-18392687Y-26893855D01*
X-18287154Y-26926406D01*
X-18118374Y-26978568D01*
X-17898913Y-27046451D01*
X-17744997Y-27094087D01*
X-17744997Y-26369618D01*
X-17943944Y-26324027D01*
X-18116549Y-26205756D01*
X-18131044Y-26191085D01*
X-18247473Y-26020557D01*
X-18288067Y-25830075D01*
X-18252983Y-25617822D01*
X-18192480Y-25472875D01*
X-18055285Y-25275324D01*
X-17877724Y-25145501D01*
X-17665053Y-25084980D01*
X-17665053Y-24955439D01*
X-17818503Y-24948608D01*
X-17850306Y-24942297D01*
X-18002932Y-24868180D01*
X-18145468Y-24736861D01*
X-18261583Y-24570268D01*
X-18334951Y-24390328D01*
X-18352128Y-24268405D01*
X-18335246Y-24154344D01*
X-18293001Y-24029173D01*
X-18288575Y-24019576D01*
X-18171788Y-23857835D01*
X-18009649Y-23750957D01*
X-17816279Y-23701235D01*
X-17605798Y-23710962D01*
X-17392324Y-23782431D01*
X-17270916Y-23854326D01*
X-17141419Y-23986145D01*
X-17051305Y-24175796D01*
X-17004711Y-24374793D01*
X-16983751Y-24563181D01*
X-16996823Y-24694306D01*
X-17049175Y-24784877D01*
X-17146056Y-24851602D01*
X-17155997Y-24856463D01*
X-17299672Y-24905148D01*
X-17480733Y-24939546D01*
X-17665053Y-24955439D01*
X-17665053Y-25084980D01*
X-17661915Y-25084086D01*
X-17409974Y-25091760D01*
X-17182218Y-25148635D01*
X-16983781Y-25214907D01*
X-16985809Y-25552250D01*
X-16997653Y-25786597D01*
X-17034874Y-25960327D01*
X-17104881Y-26090138D01*
X-17215083Y-26192728D01*
X-17291580Y-26241347D01*
X-17525583Y-26342175D01*
X-17744997Y-26369618D01*
X-17744997Y-27094087D01*
X-17641341Y-27126168D01*
X-17358226Y-27213829D01*
X-17062136Y-27305546D01*
X-17030747Y-27315271D01*
X-16709768Y-27414338D01*
X-16455123Y-27491626D01*
X-16257482Y-27549347D01*
X-16111106Y-27588741D01*
X-16111106Y-26779034D01*
X-16312220Y-26753333D01*
X-16472354Y-26682799D01*
X-16660351Y-26531315D01*
X-16782492Y-26342149D01*
X-16835078Y-26126982D01*
X-16814409Y-25897496D01*
X-16765278Y-25757727D01*
X-16668884Y-25563226D01*
X-16641757Y-25524897D01*
X-16641757Y-25314125D01*
X-16759303Y-25301387D01*
X-16843941Y-25249860D01*
X-16901089Y-25185141D01*
X-16978521Y-25067875D01*
X-16996124Y-24969569D01*
X-16954800Y-24860700D01*
X-16913032Y-24794135D01*
X-16836437Y-24702043D01*
X-16747722Y-24659451D01*
X-16655274Y-24647088D01*
X-16533749Y-24648734D01*
X-16474947Y-24674280D01*
X-16474947Y-24591763D01*
X-16542497Y-24587107D01*
X-16602460Y-24540213D01*
X-16657452Y-24477814D01*
X-16757093Y-24341033D01*
X-16848716Y-24179959D01*
X-16920086Y-24019932D01*
X-16958965Y-23886294D01*
X-16962678Y-23845688D01*
X-16945693Y-23746907D01*
X-16903976Y-23622871D01*
X-16888695Y-23587719D01*
X-16762375Y-23386323D01*
X-16604336Y-23243129D01*
X-16426796Y-23160269D01*
X-16241972Y-23139877D01*
X-16062082Y-23184086D01*
X-15899345Y-23295030D01*
X-15811474Y-23399643D01*
X-15743443Y-23551208D01*
X-15710268Y-23737861D01*
X-15712476Y-23930922D01*
X-15750593Y-24101712D01*
X-15796957Y-24190043D01*
X-15940965Y-24336306D01*
X-16132193Y-24465424D01*
X-16338586Y-24556293D01*
X-16365452Y-24564363D01*
X-16474947Y-24591763D01*
X-16474947Y-24674280D01*
X-16449341Y-24685405D01*
X-16388679Y-24742180D01*
X-16304875Y-24880541D01*
X-16289647Y-25023747D01*
X-16335341Y-25154508D01*
X-16434307Y-25255532D01*
X-16578894Y-25309528D01*
X-16641757Y-25314125D01*
X-16641757Y-25524897D01*
X-16579982Y-25437609D01*
X-16483959Y-25373525D01*
X-16366203Y-25363623D01*
X-16212103Y-25400550D01*
X-16120023Y-25433092D01*
X-15887745Y-25554374D01*
X-15717220Y-25716472D01*
X-15612448Y-25910642D01*
X-15577429Y-26128141D01*
X-15616164Y-26360224D01*
X-15652814Y-26454321D01*
X-15768943Y-26626055D01*
X-15925860Y-26735450D01*
X-16111106Y-26779034D01*
X-16111106Y-27588741D01*
X-16107516Y-27589708D01*
X-15995894Y-27614921D01*
X-15913288Y-27627193D01*
X-15850367Y-27628734D01*
X-15797802Y-27621755D01*
X-15767480Y-27614430D01*
X-15635422Y-27558199D01*
X-15503664Y-27471280D01*
X-15473268Y-27444940D01*
X-15470115Y-27441570D01*
X-15470115Y-25579419D01*
X-15559157Y-25561356D01*
X-15636726Y-25533630D01*
X-15737909Y-25477738D01*
X-15858984Y-25386217D01*
X-15983322Y-25275117D01*
X-16094297Y-25160490D01*
X-16175278Y-25058387D01*
X-16209637Y-24984859D01*
X-16209875Y-24980388D01*
X-16189217Y-24922103D01*
X-16135917Y-24823646D01*
X-16083939Y-24740731D01*
X-15909971Y-24526289D01*
X-15722087Y-24388718D01*
X-15517696Y-24326327D01*
X-15442544Y-24321938D01*
X-15205665Y-24354323D01*
X-14998899Y-24445458D01*
X-14836076Y-24586314D01*
X-14731024Y-24767862D01*
X-14723031Y-24791717D01*
X-14708857Y-24962660D01*
X-14761700Y-25136524D01*
X-14871193Y-25298551D01*
X-15026970Y-25433982D01*
X-15218668Y-25528061D01*
X-15246265Y-25536653D01*
X-15377777Y-25571092D01*
X-15470115Y-25579419D01*
X-15470115Y-27441570D01*
X-15397048Y-27363474D01*
X-15285998Y-27231348D01*
X-15147056Y-27057939D01*
X-14987157Y-26852624D01*
X-14813238Y-26624778D01*
X-14632233Y-26383781D01*
X-14451080Y-26139007D01*
X-14276715Y-25899834D01*
X-14116073Y-25675639D01*
X-13976090Y-25475799D01*
X-13863703Y-25309690D01*
X-13785848Y-25186690D01*
X-13749461Y-25116175D01*
X-13748637Y-25113414D01*
X-13728806Y-24958868D01*
X-13760667Y-24809740D01*
D11*
X11455400Y1244600D03*
X11455400Y-1295400D03*
X8915400Y1244600D03*
X8915400Y-1295400D03*
X6375400Y1244600D03*
X6375400Y-1295400D03*
X3835400Y1244600D03*
X3835400Y-1295400D03*
X1295400Y1244600D03*
X1295400Y-1295400D03*
X-1244600Y1244600D03*
X-1244600Y-1295400D03*
X-3784600Y1244600D03*
X-3784600Y-1295400D03*
X-6324600Y1244600D03*
X-6324600Y-1295400D03*
X-8864600Y1244600D03*
X-8864600Y-1295400D03*
X-11404600Y1244600D03*
D12*
X-11404600Y-1295400D03*
D13*
X-6387680Y-49430520D03*
X-7287680Y-49430520D03*
X-7287680Y-50330520D03*
X-6387680Y-50330520D03*
X-6837680Y-49880520D03*
D14*
X-2519680Y-48707040D03*
D15*
X8280400Y-30457140D03*
D16*
X4780400Y-30457140D03*
D14*
X-1686560Y-37688520D03*
D15*
X8239760Y-21798280D03*
D16*
X4739760Y-21798280D03*
D14*
X-1828800Y-50774600D03*
X-11770360Y-49997360D03*
X-11379200Y-56098440D03*
X-12255500Y-37754560D03*
X-17454880Y-51069240D03*
X741680Y-17139920D03*
X-10149840Y-51511200D03*
D15*
X12702540Y-25318720D03*
D16*
X16202540Y-25318720D03*
D15*
X12722860Y-33962340D03*
D16*
X16222860Y-33962340D03*
D14*
X-14269720Y-35745420D03*
X5820000Y-10570000D03*
X1590000Y-10570000D03*
X-12130000Y-4900000D03*
X-12110000Y-7790000D03*
X5830000Y-12940000D03*
X12630000Y-15460000D03*
X9600000Y-8870000D03*
D15*
X8315840Y-39116000D03*
D16*
X4815840Y-39116000D03*
D17*
X-17000000Y-57000000D03*
D18*
X12031980Y-57343040D03*
X-12964160Y-58587640D03*
X-17096740Y2212340D03*
D17*
X17000000Y-57000000D03*
D19*
X-1244600Y-3854600D03*
X15313660Y-14988540D03*
X15320000Y-11300000D03*
X11340000Y-14130000D03*
X5050000Y-6760000D03*
X14150340Y-48166020D03*
X16810000Y-6290000D03*
X10150000Y-4440000D03*
X13600000Y-2840000D03*
X12380000Y-4690000D03*
X15470000Y-1900000D03*
X14390000Y1330000D03*
X16790000Y490000D03*
X16430000Y-4500000D03*
X13240000Y-590000D03*
X4540000Y-3660000D03*
X1350000Y-3540000D03*
X3420000Y-5250000D03*
X2820000Y-3900000D03*
D20*
X-9199880Y-49176940D03*
X-4691380Y-48077120D03*
D19*
X7777480Y-5072380D03*
X7962900Y-3787140D03*
X15412720Y-78740D03*
X13078460Y2255520D03*
X-19296380Y-37315140D03*
X-15273020Y-34483040D03*
X-17089120Y-37226240D03*
X-19334480Y-38780720D03*
X-19212560Y-41991280D03*
X-19222720Y-45018960D03*
X-19197320Y-47127160D03*
X-19212560Y-49575720D03*
X-19136360Y-51709320D03*
X-19039840Y-53939440D03*
X-13299440Y-55859680D03*
X-10789920Y-59227720D03*
X-8392160Y-59136280D03*
X-5308600Y-59273440D03*
X-3286760Y-59303920D03*
X-1391920Y-59222640D03*
X574040Y-59156600D03*
X2661920Y-59166760D03*
X5247640Y-59176920D03*
X7945120Y-59197240D03*
X9728200Y-59182000D03*
X12522200Y-59207400D03*
X13619480Y-55316120D03*
X15605760Y-53746400D03*
X17551400Y-53461920D03*
X19070320Y-53944520D03*
X1356360Y-55194200D03*
X4907280Y-56057800D03*
X6995160Y-54665880D03*
X10210800Y-55118000D03*
X7447280Y-56829960D03*
X1051560Y-57150000D03*
X-1071880Y-55661560D03*
X3291840Y-57297320D03*
X3911600Y-54853840D03*
X16570960Y-44323000D03*
X18684240Y-44048680D03*
X8255000Y-24597360D03*
X9987280Y-26598880D03*
X11557000Y-28986480D03*
X10281920Y-31800800D03*
X8117840Y-33233360D03*
X8417560Y-36322000D03*
X10932160Y-35057080D03*
X12034520Y-38338760D03*
X13075920Y-30927040D03*
X14345920Y-36581080D03*
X8950960Y-41879520D03*
X7960360Y-27802840D03*
X11325860Y-23035260D03*
X13507720Y-21092160D03*
X8204200Y-18171160D03*
X8026400Y-11938000D03*
X3002280Y-11988800D03*
X-3103880Y-11704320D03*
X-1188720Y-11866880D03*
X-10271760Y-7086600D03*
X-10601960Y-5090160D03*
X-9403080Y-4490720D03*
X-290580Y-6249420D03*
X1601680Y-6760000D03*
X599440Y-5069840D03*
X11213040Y-6760000D03*
X8942280Y-6760000D03*
X14027360Y-6760000D03*
X15320000Y-9206240D03*
X10048240Y-17602200D03*
X8696960Y-15890240D03*
X13487400Y-23484840D03*
X13700760Y-27249120D03*
X13776960Y-29225240D03*
X17795240Y-14874240D03*
X19273520Y-12771120D03*
X18633440Y-16154400D03*
X17505680Y-16819880D03*
X18780760Y-18552160D03*
X18338800Y-20447000D03*
X18166080Y-22707600D03*
X19166840Y-23845520D03*
X18917920Y-25709880D03*
X19182080Y-27792680D03*
X18872200Y-29570680D03*
X18872200Y-34163000D03*
X18303240Y-37571680D03*
X19253200Y-39557960D03*
X17830800Y-39182040D03*
X-14975840Y2788920D03*
X-17124680Y4104640D03*
X-19364960Y1889760D03*
X-15483840Y711200D03*
X11506200Y-21132800D03*
X-7757160Y-36824920D03*
X-4973320Y-34508440D03*
X-16195040Y-40777160D03*
X-16057880Y-42672000D03*
X-15996920Y-45206920D03*
X-15722600Y-47604680D03*
X-15925800Y-49565560D03*
X-15854680Y-51663600D03*
X-1488440Y-41249600D03*
X-1402080Y-43322240D03*
X-1407160Y-44907200D03*
X-2834640Y-45740320D03*
X-3337560Y-44389040D03*
X-3352800Y-42346880D03*
X-8930640Y-41610280D03*
X-8168640Y-44383960D03*
X-3972560Y-41208960D03*
X-7802880Y-41061640D03*
X-9740900Y-53502560D03*
X-10088880Y-55864760D03*
X-3743960Y-54970680D03*
X-2600960Y-55590440D03*
X-9011920Y-52593240D03*
X-5171440Y-52334160D03*
X-4612640Y-53426360D03*
X-14513560Y4226560D03*
X-12161520Y4211320D03*
X-10210800Y4226560D03*
X-7386320Y4262120D03*
X-4770120Y4297680D03*
X-2346960Y4124960D03*
X7020560Y3048000D03*
X-4521200Y-7945120D03*
X-6934200Y-7772400D03*
X-9743440Y-8270240D03*
X19080480Y-21635720D03*
X19161760Y-31638240D03*
X19395440Y-36291520D03*
X1473200Y-30353000D03*
X1661160Y-27142440D03*
X1442720Y-24871680D03*
X1722120Y-22382480D03*
X1600200Y-20721320D03*
X1691640Y-17708880D03*
X1503680Y-15981680D03*
X584200Y-13954760D03*
X-2204720Y-14025880D03*
X-817880Y-15300960D03*
X-563880Y-17012920D03*
X-45720Y-18877280D03*
X30480Y-21569680D03*
X111760Y-23713440D03*
X35560Y-26436320D03*
X187960Y-28326080D03*
X299720Y-30256480D03*
X-706120Y-31623000D03*
X-518160Y-33604200D03*
X355600Y-35524440D03*
X604520Y-32913320D03*
X1600200Y-31912560D03*
X1630680Y-34081720D03*
X18060000Y-10380000D03*
X10720000Y-10410000D03*
X-220000Y-10410000D03*
X-12030000Y-9160000D03*
X-5278120Y-3230880D03*
X-6477000Y-3967480D03*
X-16197580Y-38701980D03*
X16710000Y-12960000D03*
X9794999Y-12944999D03*
X-12258040Y-34584640D03*
X10609580Y-47807880D03*
X-12237720Y-12137720D03*
X-17205960Y-52697380D03*
X-4427220Y-49626520D03*
X-4442460Y-50998120D03*
X-8244840Y-8305800D03*
X-8232140Y-11054080D03*
X-3784600Y-3914600D03*
X12590000Y-17460000D03*
X-3784600Y-5430520D03*
X8824440Y-8920000D03*
X12590000Y-8920000D03*
D20*
X-7350760Y-46990000D03*
X-11765280Y-54399180D03*
D19*
X-8897900Y-37617120D03*
X-14813280Y-37284660D03*
X-4612640Y-10723880D03*
X-1490980Y-39565580D03*
X-5847080Y-6797040D03*
X-8735060Y-48072040D03*
D20*
X11955780Y-41960800D03*
D19*
X-14235680Y-34487100D03*
X-9242300Y-50133760D03*
D21*
X-7287680Y-49430520D02*
X-6387680Y-50330520D01*
X-7287680Y-50330520D02*
X-6387680Y-49430520D01*
D22*
X-1244600Y-3854600D02*
X-1244600Y-5295400D01*
X-1244600Y-5295400D02*
X-290580Y-6249420D01*
X220000Y-6760000D02*
X1601680Y-6760000D01*
X14080000Y-6760000D02*
X14190000Y-6760000D01*
X14190000Y-6760000D02*
X15140000Y-7710000D01*
X15140000Y-7710000D02*
X15320000Y-7890000D01*
X15320000Y-7890000D02*
X15320000Y-9206240D01*
X5050000Y-6760000D02*
X8942280Y-6760000D01*
D23*
X-9740900Y-53502560D02*
X-9740900Y-53502560D01*
X-10764520Y-55483760D02*
X-11379200Y-56098440D01*
X-10764520Y-54526180D02*
X-10764520Y-55483760D01*
D22*
X15320000Y-14982200D02*
X15313660Y-14988540D01*
X15320000Y-11300000D02*
X15320000Y-14982200D01*
X-290580Y-6249420D02*
X220000Y-6760000D01*
X1601680Y-6760000D02*
X5050000Y-6760000D01*
X11213040Y-6760000D02*
X14027360Y-6760000D01*
X8942280Y-6760000D02*
X11213040Y-6760000D01*
X14027360Y-6760000D02*
X14080000Y-6760000D01*
X15320000Y-9206240D02*
X15320000Y-11300000D01*
D23*
X-9740900Y-53502560D02*
X-10764520Y-54526180D01*
D24*
X18449990Y-9990010D02*
X18060000Y-10380000D01*
X18449990Y2291468D02*
X18449990Y-9990010D01*
X16816478Y3924980D02*
X18449990Y2291468D01*
X4700000Y3924980D02*
X16816478Y3924980D01*
X3835400Y3060380D02*
X4700000Y3924980D01*
X3835400Y1244600D02*
X3835400Y3060380D01*
X1530000Y-10510000D02*
X1590000Y-10570000D01*
X5980000Y-10410000D02*
X5820000Y-10570000D01*
X10720000Y-10410000D02*
X5980000Y-10410000D01*
X5820000Y-10570000D02*
X1590000Y-10570000D01*
X-60000Y-10570000D02*
X-220000Y-10410000D01*
X1590000Y-10570000D02*
X-60000Y-10570000D01*
X-11970000Y-7650000D02*
X-12110000Y-7790000D01*
X-12160000Y-4770000D02*
X-12160000Y-7580000D01*
X-12030000Y-7870000D02*
X-12110000Y-7790000D01*
X-12030000Y-9160000D02*
X-12030000Y-7870000D01*
D23*
X-5278120Y-3230880D02*
X-12161520Y-3230880D01*
X-12161520Y-3230880D02*
X-12893040Y-2499360D01*
X-12893040Y777240D02*
X-12893040Y1544320D01*
X-12893040Y-2499360D02*
X-12893040Y777240D01*
X-12893040Y777240D02*
X-12893040Y980440D01*
X-12893040Y1544320D02*
X-11638280Y2799080D01*
X-11638280Y2799080D02*
X-8757920Y2799080D01*
X-8757920Y1351280D02*
X-8864600Y1244600D01*
X-8757920Y2799080D02*
X-8757920Y1351280D01*
X-6601030Y-3680890D02*
X-12347921Y-3680889D01*
X-6461760Y-3820160D02*
X-6601030Y-3680890D01*
X-6461760Y-3860800D02*
X-6461760Y-3820160D01*
X-13343050Y-2685760D02*
X-13343049Y1730721D01*
X-12347921Y-3680889D02*
X-13343050Y-2685760D01*
X-13343049Y1730721D02*
X-12403525Y2670245D01*
X-12403525Y2670245D02*
X-12328771Y2744999D01*
X-5750560Y2667000D02*
X-5750560Y1818640D01*
X-5750560Y1818640D02*
X-6324600Y1244600D01*
X-6329680Y3246120D02*
X-5750560Y2667000D01*
X-6604000Y3246120D02*
X-6329680Y3246120D01*
X-6606970Y3249090D02*
X-6604000Y3246120D01*
X-11824680Y3249090D02*
X-6606970Y3249090D01*
X-12403525Y2670245D02*
X-11824680Y3249090D01*
D24*
X9820000Y-12970000D02*
X9794999Y-12944999D01*
X8915400Y1244600D02*
X8915400Y2890370D01*
X8915400Y2890370D02*
X9350000Y3324970D01*
X9350000Y3324970D02*
X16567946Y3324970D01*
X16567946Y3324970D02*
X17849980Y2042936D01*
X17849980Y2042936D02*
X17849980Y-8830000D01*
X17849980Y-8830000D02*
X17350000Y-8830000D01*
X17350000Y-8830000D02*
X16970000Y-9210000D01*
X16970000Y-9210000D02*
X16700000Y-9480000D01*
X16700000Y-9480000D02*
X16700000Y-12840000D01*
X-13681468Y-30310010D02*
X-16149990Y-30310010D01*
X-11637711Y-28266253D02*
X-13681468Y-30310010D01*
X-16149990Y-30310010D02*
X-16210000Y-30370020D01*
X-11637710Y-13047710D02*
X-11637711Y-28266253D01*
X-11530000Y-12940000D02*
X-11637710Y-13047710D01*
X5830000Y-12940000D02*
X-11530000Y-12940000D01*
X5834999Y-12944999D02*
X5830000Y-12940000D01*
X-16210000Y-38610820D02*
X-16101060Y-38719760D01*
X9794999Y-12944999D02*
X5834999Y-12944999D01*
X-16210000Y-36604220D02*
X-16210000Y-36662080D01*
X-16210000Y-30370020D02*
X-16210000Y-36604220D01*
X-16210000Y-36604220D02*
X-16210000Y-38610820D01*
D23*
X-12235680Y-35415720D02*
X-12235680Y-35415720D01*
X-12235680Y-34257480D02*
X-12235180Y-34256980D01*
X-12235680Y-37213040D02*
X-12235680Y-34257480D01*
X-12202160Y-37246560D02*
X-12235680Y-37213040D01*
D24*
X17066300Y4523700D02*
X19050000Y2540000D01*
X16995700Y4524990D02*
X17066300Y4523700D01*
X-795010Y4524990D02*
X16995700Y4524990D01*
X-1244600Y4075400D02*
X-795010Y4524990D01*
X-1244600Y1244600D02*
X-1244600Y4075400D01*
X13619480Y-41818560D02*
X12661900Y-42776140D01*
X12661900Y-42776140D02*
X10909300Y-42776140D01*
X10909300Y-42776140D02*
X10609580Y-43075860D01*
X10609580Y-43075860D02*
X10609580Y-47807880D01*
X10609580Y-47807880D02*
X10609580Y-47807880D01*
X19050000Y2540000D02*
X19050000Y-10541000D01*
X18860001Y-10764001D02*
X17873962Y-11750040D01*
X18860001Y-10730999D02*
X18860001Y-10764001D01*
X19050000Y-10541000D02*
X18860001Y-10730999D01*
X17873962Y-12980040D02*
X16565880Y-14288122D01*
X17873962Y-11750040D02*
X17873962Y-12980040D01*
X16532238Y-14288122D02*
X16320010Y-14500350D01*
X16320010Y-14500350D02*
X16320010Y-15445230D01*
X16565880Y-14288122D02*
X16532238Y-14288122D01*
X16320010Y-15445230D02*
X16235680Y-15529560D01*
X16235680Y-15529560D02*
X16235680Y-22636480D01*
X16235680Y-22636480D02*
X18034000Y-24434800D01*
X18034000Y-24434800D02*
X18034000Y-35392360D01*
X18034000Y-35392360D02*
X16327120Y-37099240D01*
X16327120Y-37099240D02*
X16327120Y-41838880D01*
X16306800Y-41818560D02*
X15930880Y-41818560D01*
X16327120Y-41838880D02*
X16306800Y-41818560D01*
X15930880Y-41818560D02*
X13619480Y-41818560D01*
X-18190000Y-50334120D02*
X-17454880Y-51069240D01*
X-18190000Y-36460000D02*
X-18190000Y-50334120D01*
X-17550000Y-35820000D02*
X-18190000Y-36460000D01*
X-13930000Y-29710000D02*
X-17550000Y-29710000D01*
X-12237720Y-28017720D02*
X-13930000Y-29710000D01*
X-17550000Y-29710000D02*
X-17550000Y-35820000D01*
X-12237720Y-12137720D02*
X-12237720Y-28017720D01*
X-17454880Y-52448460D02*
X-17205960Y-52697380D01*
X-17454880Y-51069240D02*
X-17454880Y-52448460D01*
D23*
X-4427220Y-49626520D02*
X-3848100Y-49047400D01*
X-3848100Y-49047400D02*
X-3848100Y-48917860D01*
X-3637280Y-48707040D02*
X-2519680Y-48707040D01*
X-3848100Y-48917860D02*
X-3637280Y-48707040D01*
X-2052320Y-50998120D02*
X-1828800Y-50774600D01*
X-4442460Y-50998120D02*
X-2052320Y-50998120D01*
D24*
X-8244840Y-11041380D02*
X-8232140Y-11054080D01*
X-8244840Y-8305800D02*
X-8244840Y-11041380D01*
D22*
X-3784600Y-3914600D02*
X-3784600Y-5430520D01*
X-3784600Y-6405400D02*
X-1270000Y-8920000D01*
X-1270000Y-8920000D02*
X8824440Y-8920000D01*
X12590000Y-8920000D02*
X12590000Y-15100000D01*
X12590000Y-17460000D02*
X12590000Y-17460000D01*
X12590000Y-15100000D02*
X12590000Y-17460000D01*
X-3784600Y-5430520D02*
X-3784600Y-6405400D01*
X8824440Y-8920000D02*
X12590000Y-8920000D01*
X12590000Y-8920000D02*
X12590000Y-8920000D01*
D23*
X-11765280Y-54399180D02*
X-11765280Y-49928780D01*
X-11765280Y-49928780D02*
X-9121140Y-47284640D01*
X-9121140Y-47284640D02*
X-9121140Y-47282100D01*
X-8666480Y-46827440D02*
X-7477760Y-46827440D01*
X-9121140Y-47282100D02*
X-8666480Y-46827440D01*
D24*
X-14813280Y-37284660D02*
X-14813280Y-37284660D01*
X-8897900Y-38234900D02*
X-8897900Y-37617120D01*
X-9786620Y-39123620D02*
X-8897900Y-38234900D01*
X-14798040Y-39123620D02*
X-9786620Y-39123620D01*
X-14813280Y-39108380D02*
X-14798040Y-39123620D01*
X-14813280Y-37284660D02*
X-14813280Y-39108380D01*
D25*
X-1490980Y-39565580D02*
X-1490980Y-39565580D01*
X-1490980Y-39565580D02*
X-1490980Y-37917120D01*
X-1490980Y-39565580D02*
X-1503680Y-39552880D01*
D23*
X-4612640Y-10723880D02*
X-5603240Y-10723880D01*
X-5847080Y-10480040D02*
X-5847080Y-6797040D01*
X-5603240Y-10723880D02*
X-5847080Y-10480040D01*
D24*
X11955780Y-41960800D02*
X11955780Y-41808400D01*
D23*
X-14235680Y-35711380D02*
X-14269720Y-35745420D01*
X-14235680Y-34487100D02*
X-14235680Y-35711380D01*
X-9242300Y-50603660D02*
X-10149840Y-51511200D01*
X-9242300Y-50133760D02*
X-9242300Y-50603660D01*
D26*
X-1598939Y4466351D02*
X-1619047Y4449848D01*
X-1672302Y4384956D01*
X-1684904Y4369601D01*
X-1733839Y4278049D01*
X-1763974Y4178709D01*
X-1774149Y4075400D01*
X-1771599Y4049509D01*
X-1771600Y2300286D01*
X-1802119Y2287644D01*
X-1994894Y2158836D01*
X-2158836Y1994894D01*
X-2287644Y1802119D01*
X-2376369Y1587918D01*
X-2421600Y1360524D01*
X-2421600Y1128676D01*
X-2376369Y901282D01*
X-2287644Y687081D01*
X-2158836Y494306D01*
X-1994894Y330364D01*
X-1802119Y201556D01*
X-1587918Y112831D01*
X-1360524Y67600D01*
X-1128676Y67600D01*
X-901282Y112831D01*
X-687081Y201556D01*
X-494306Y330364D01*
X-330364Y494306D01*
X-201556Y687081D01*
X-112831Y901282D01*
X-67600Y1128676D01*
X-67600Y1360524D01*
X118400Y1360524D01*
X118400Y1128676D01*
X163631Y901282D01*
X252356Y687081D01*
X381164Y494306D01*
X545106Y330364D01*
X737881Y201556D01*
X952082Y112831D01*
X1179476Y67600D01*
X1411324Y67600D01*
X1638718Y112831D01*
X1852919Y201556D01*
X2045694Y330364D01*
X2209636Y494306D01*
X2338444Y687081D01*
X2427169Y901282D01*
X2472400Y1128676D01*
X2472400Y1360524D01*
X2427169Y1587918D01*
X2338444Y1802119D01*
X2209636Y1994894D01*
X2045694Y2158836D01*
X1852919Y2287644D01*
X1638718Y2376369D01*
X1411324Y2421600D01*
X1179476Y2421600D01*
X952082Y2376369D01*
X737881Y2287644D01*
X545106Y2158836D01*
X381164Y1994894D01*
X252356Y1802119D01*
X163631Y1587918D01*
X118400Y1360524D01*
X-67600Y1360524D01*
X-112831Y1587918D01*
X-201556Y1802119D01*
X-330364Y1994894D01*
X-494306Y2158836D01*
X-687081Y2287644D01*
X-717600Y2300285D01*
X-717600Y3857111D01*
X-576720Y3997990D01*
X4027720Y3997990D01*
X3481062Y3451331D01*
X3460953Y3434828D01*
X3415636Y3379609D01*
X3395096Y3354581D01*
X3346161Y3263029D01*
X3316026Y3163689D01*
X3305851Y3060380D01*
X3308401Y3034490D01*
X3308401Y2300286D01*
X3277881Y2287644D01*
X3085106Y2158836D01*
X2921164Y1994894D01*
X2792356Y1802119D01*
X2703631Y1587918D01*
X2658400Y1360524D01*
X2658400Y1128676D01*
X2703631Y901282D01*
X2792356Y687081D01*
X2921164Y494306D01*
X3085106Y330364D01*
X3277881Y201556D01*
X3492082Y112831D01*
X3719476Y67600D01*
X3951324Y67600D01*
X4178718Y112831D01*
X4392919Y201556D01*
X4585694Y330364D01*
X4749636Y494306D01*
X4878444Y687081D01*
X4967169Y901282D01*
X5012400Y1128676D01*
X5012400Y1360524D01*
X5198400Y1360524D01*
X5198400Y1128676D01*
X5243631Y901282D01*
X5332356Y687081D01*
X5461164Y494306D01*
X5625106Y330364D01*
X5817881Y201556D01*
X6032082Y112831D01*
X6259476Y67600D01*
X6491324Y67600D01*
X6718718Y112831D01*
X6932919Y201556D01*
X7125694Y330364D01*
X7289636Y494306D01*
X7418444Y687081D01*
X7507169Y901282D01*
X7552400Y1128676D01*
X7552400Y1360524D01*
X7507169Y1587918D01*
X7418444Y1802119D01*
X7289636Y1994894D01*
X7125694Y2158836D01*
X6932919Y2287644D01*
X6718718Y2376369D01*
X6491324Y2421600D01*
X6259476Y2421600D01*
X6032082Y2376369D01*
X5817881Y2287644D01*
X5625106Y2158836D01*
X5461164Y1994894D01*
X5332356Y1802119D01*
X5243631Y1587918D01*
X5198400Y1360524D01*
X5012400Y1360524D01*
X4967169Y1587918D01*
X4878444Y1802119D01*
X4749636Y1994894D01*
X4585694Y2158836D01*
X4392919Y2287644D01*
X4362400Y2300285D01*
X4362400Y2842091D01*
X4918290Y3397980D01*
X8677721Y3397980D01*
X8561061Y3281321D01*
X8540953Y3264818D01*
X8487090Y3199186D01*
X8475096Y3184571D01*
X8426161Y3093019D01*
X8396026Y2993679D01*
X8385851Y2890370D01*
X8388401Y2864480D01*
X8388401Y2300286D01*
X8357881Y2287644D01*
X8165106Y2158836D01*
X8001164Y1994894D01*
X7872356Y1802119D01*
X7783631Y1587918D01*
X7738400Y1360524D01*
X7738400Y1128676D01*
X7783631Y901282D01*
X7872356Y687081D01*
X8001164Y494306D01*
X8165106Y330364D01*
X8357881Y201556D01*
X8572082Y112831D01*
X8799476Y67600D01*
X9031324Y67600D01*
X9258718Y112831D01*
X9472919Y201556D01*
X9665694Y330364D01*
X9829636Y494306D01*
X9958444Y687081D01*
X10047169Y901282D01*
X10092400Y1128676D01*
X10092400Y1360524D01*
X10278400Y1360524D01*
X10278400Y1128676D01*
X10323631Y901282D01*
X10412356Y687081D01*
X10541164Y494306D01*
X10705106Y330364D01*
X10897881Y201556D01*
X11112082Y112831D01*
X11339476Y67600D01*
X11571324Y67600D01*
X11798718Y112831D01*
X12012919Y201556D01*
X12205694Y330364D01*
X12369636Y494306D01*
X12498444Y687081D01*
X12587169Y901282D01*
X12632400Y1128676D01*
X12632400Y1360524D01*
X12587169Y1587918D01*
X12498444Y1802119D01*
X12369636Y1994894D01*
X12205694Y2158836D01*
X12012919Y2287644D01*
X11798718Y2376369D01*
X11571324Y2421600D01*
X11339476Y2421600D01*
X11112082Y2376369D01*
X10897881Y2287644D01*
X10705106Y2158836D01*
X10541164Y1994894D01*
X10412356Y1802119D01*
X10323631Y1587918D01*
X10278400Y1360524D01*
X10092400Y1360524D01*
X10047169Y1587918D01*
X9958444Y1802119D01*
X9829636Y1994894D01*
X9665694Y2158836D01*
X9472919Y2287644D01*
X9442400Y2300285D01*
X9442400Y2672081D01*
X9568290Y2797970D01*
X16349657Y2797970D01*
X17322980Y1824646D01*
X17322981Y-8303112D01*
X17294918Y-8305876D01*
X17246690Y-8310626D01*
X17147350Y-8340761D01*
X17055798Y-8389696D01*
X16975552Y-8455552D01*
X16959049Y-8475661D01*
X16615661Y-8819050D01*
X16615656Y-8819054D01*
X16345666Y-9089045D01*
X16325552Y-9105552D01*
X16259696Y-9185798D01*
X16214528Y-9270304D01*
X16210761Y-9277351D01*
X16180626Y-9376691D01*
X16170451Y-9480000D01*
X16173000Y-9505881D01*
X16173001Y-12468865D01*
X16145302Y-12496564D01*
X16065741Y-12615636D01*
X16010938Y-12747942D01*
X15983000Y-12888397D01*
X15983000Y-13031603D01*
X16010938Y-13172058D01*
X16065741Y-13304364D01*
X16145302Y-13423436D01*
X16246564Y-13524698D01*
X16365636Y-13604259D01*
X16463795Y-13644918D01*
X16287143Y-13821570D01*
X16238036Y-13847818D01*
X16157790Y-13913674D01*
X16141286Y-13933784D01*
X15965676Y-14109395D01*
X15945562Y-14125902D01*
X15879706Y-14206148D01*
X15849543Y-14262580D01*
X15830771Y-14297701D01*
X15800636Y-14397041D01*
X15790461Y-14500350D01*
X15793010Y-14526231D01*
X15793011Y-15239783D01*
X15753647Y-15313429D01*
X15746441Y-15326911D01*
X15716306Y-15426251D01*
X15706131Y-15529560D01*
X15708680Y-15555441D01*
X15708681Y-22610589D01*
X15706131Y-22636480D01*
X15716306Y-22739789D01*
X15746441Y-22839129D01*
X15795376Y-22930681D01*
X15795377Y-22930682D01*
X15861233Y-23010928D01*
X15881342Y-23027431D01*
X17048583Y-24194673D01*
X17002540Y-24190138D01*
X15402540Y-24190138D01*
X15338437Y-24196452D01*
X15276797Y-24215150D01*
X15219990Y-24245514D01*
X15170197Y-24286377D01*
X15129334Y-24336170D01*
X15098970Y-24392977D01*
X15080272Y-24454617D01*
X15073958Y-24518720D01*
X15073958Y-26118720D01*
X15080272Y-26182823D01*
X15098970Y-26244463D01*
X15129334Y-26301270D01*
X15170197Y-26351063D01*
X15219990Y-26391926D01*
X15276797Y-26422290D01*
X15338437Y-26440988D01*
X15402540Y-26447302D01*
X17002540Y-26447302D01*
X17066643Y-26440988D01*
X17128283Y-26422290D01*
X17185090Y-26391926D01*
X17234883Y-26351063D01*
X17275746Y-26301270D01*
X17306110Y-26244463D01*
X17324808Y-26182823D01*
X17331122Y-26118720D01*
X17331122Y-24518720D01*
X17326587Y-24472678D01*
X17507000Y-24653091D01*
X17507001Y-35174068D01*
X15972786Y-36708285D01*
X15952672Y-36724792D01*
X15886816Y-36805038D01*
X15871097Y-36834447D01*
X15837881Y-36896591D01*
X15807746Y-36995931D01*
X15797571Y-37099240D01*
X15800120Y-37125121D01*
X15800121Y-41291560D01*
X13645361Y-41291560D01*
X13619480Y-41289011D01*
X13593599Y-41291560D01*
X13516170Y-41299186D01*
X13416830Y-41329321D01*
X13325278Y-41378256D01*
X13245032Y-41444112D01*
X13228533Y-41464216D01*
X12624713Y-42068038D01*
X12632780Y-42027479D01*
X12632780Y-41894121D01*
X12606764Y-41763326D01*
X12555730Y-41640120D01*
X12481640Y-41529237D01*
X12387343Y-41434940D01*
X12276460Y-41360850D01*
X12153254Y-41309816D01*
X12078815Y-41295010D01*
X12059090Y-41289026D01*
X12038574Y-41287005D01*
X12022459Y-41283800D01*
X12006029Y-41283800D01*
X11955780Y-41278851D01*
X11905532Y-41283800D01*
X11889101Y-41283800D01*
X11872985Y-41287006D01*
X11852471Y-41289026D01*
X11832748Y-41295009D01*
X11758306Y-41309816D01*
X11635100Y-41360850D01*
X11524217Y-41434940D01*
X11429920Y-41529237D01*
X11355830Y-41640120D01*
X11304796Y-41763326D01*
X11278780Y-41894121D01*
X11278780Y-42027479D01*
X11304796Y-42158274D01*
X11342434Y-42249140D01*
X10935180Y-42249140D01*
X10909299Y-42246591D01*
X10823900Y-42255002D01*
X10805990Y-42256766D01*
X10706650Y-42286901D01*
X10615098Y-42335836D01*
X10534852Y-42401692D01*
X10518345Y-42421806D01*
X10255246Y-42684905D01*
X10235132Y-42701412D01*
X10169276Y-42781658D01*
X10120342Y-42873210D01*
X10120341Y-42873211D01*
X10090206Y-42972551D01*
X10080031Y-43075860D01*
X10082580Y-43101741D01*
X10082581Y-47306745D01*
X10044882Y-47344444D01*
X9965321Y-47463516D01*
X9910518Y-47595822D01*
X9882580Y-47736277D01*
X9882580Y-47879483D01*
X9910518Y-48019938D01*
X9965321Y-48152244D01*
X10044882Y-48271316D01*
X10146144Y-48372578D01*
X10265216Y-48452139D01*
X10397522Y-48506942D01*
X10537977Y-48534880D01*
X10681183Y-48534880D01*
X10821638Y-48506942D01*
X10953944Y-48452139D01*
X11073016Y-48372578D01*
X11174278Y-48271316D01*
X11253839Y-48152244D01*
X11308642Y-48019938D01*
X11336580Y-47879483D01*
X11336580Y-47736277D01*
X11308642Y-47595822D01*
X11253839Y-47463516D01*
X11174278Y-47344444D01*
X11136580Y-47306746D01*
X11136580Y-43303140D01*
X12636019Y-43303140D01*
X12661900Y-43305689D01*
X12687781Y-43303140D01*
X12765210Y-43295514D01*
X12864550Y-43265379D01*
X12956102Y-43216444D01*
X13036348Y-43150588D01*
X13052855Y-43130474D01*
X13837771Y-42345560D01*
X16181965Y-42345560D01*
X16223811Y-42358254D01*
X16327120Y-42368429D01*
X16430430Y-42358254D01*
X16529770Y-42328119D01*
X16621322Y-42279184D01*
X16701568Y-42213328D01*
X16767424Y-42133082D01*
X16816359Y-42041530D01*
X16846494Y-41942190D01*
X16854120Y-41864761D01*
X16856669Y-41838880D01*
X16854120Y-41812999D01*
X16854120Y-37317529D01*
X18388344Y-35783307D01*
X18408448Y-35766808D01*
X18474304Y-35686562D01*
X18523239Y-35595010D01*
X18553374Y-35495670D01*
X18561000Y-35418241D01*
X18563549Y-35392360D01*
X18561000Y-35366479D01*
X18561000Y-24460681D01*
X18563549Y-24434800D01*
X18553374Y-24331490D01*
X18548429Y-24315188D01*
X18523239Y-24232150D01*
X18474304Y-24140598D01*
X18408448Y-24060352D01*
X18388344Y-24043853D01*
X16762680Y-22418191D01*
X16762680Y-15735005D01*
X16809249Y-15647880D01*
X16839384Y-15548540D01*
X16847010Y-15471111D01*
X16849559Y-15445230D01*
X16847010Y-15419349D01*
X16847010Y-14735413D01*
X16860082Y-14728426D01*
X16940328Y-14662570D01*
X16956835Y-14642456D01*
X18228301Y-13370991D01*
X18248410Y-13354488D01*
X18314266Y-13274242D01*
X18363201Y-13182690D01*
X18393336Y-13083350D01*
X18400962Y-13005921D01*
X18400962Y-13005919D01*
X18403511Y-12980041D01*
X18400962Y-12954163D01*
X18400962Y-11968329D01*
X19214345Y-11154948D01*
X19234449Y-11138449D01*
X19300305Y-11058203D01*
X19325817Y-11010472D01*
X19404334Y-10931955D01*
X19424448Y-10915448D01*
X19490304Y-10835202D01*
X19539239Y-10743650D01*
X19569374Y-10644310D01*
X19577000Y-10566881D01*
X19579549Y-10541001D01*
X19577000Y-10515120D01*
X19577000Y2198982D01*
X19598000Y1999180D01*
X19598000Y1999173D01*
X19598001Y-55349730D01*
X19390062Y-55038527D01*
X18961473Y-54609938D01*
X18457506Y-54273198D01*
X17897528Y-54041248D01*
X17303058Y-53923000D01*
X16696942Y-53923000D01*
X16102472Y-54041248D01*
X15542494Y-54273198D01*
X15038527Y-54609938D01*
X14609938Y-55038527D01*
X14273198Y-55542494D01*
X14041248Y-56102472D01*
X13923000Y-56696942D01*
X13923000Y-57303058D01*
X14041248Y-57897528D01*
X14273198Y-58457506D01*
X14609938Y-58961473D01*
X15038527Y-59390062D01*
X15349728Y-59598000D01*
X-12458393Y-59598000D01*
X-12430325Y-59586374D01*
X-12245739Y-59463038D01*
X-12088762Y-59306061D01*
X-11965426Y-59121475D01*
X-11880470Y-58916374D01*
X-11837160Y-58698640D01*
X-11837160Y-58476640D01*
X-11880470Y-58258906D01*
X-11965426Y-58053805D01*
X-12088762Y-57869219D01*
X-12245739Y-57712242D01*
X-12430325Y-57588906D01*
X-12635426Y-57503950D01*
X-12853160Y-57460640D01*
X-13075160Y-57460640D01*
X-13292894Y-57503950D01*
X-13497995Y-57588906D01*
X-13682581Y-57712242D01*
X-13839558Y-57869219D01*
X-13962894Y-58053805D01*
X-14047850Y-58258906D01*
X-14091160Y-58476640D01*
X-14091160Y-58698640D01*
X-14047850Y-58916374D01*
X-13962894Y-59121475D01*
X-13839558Y-59306061D01*
X-13682581Y-59463038D01*
X-13497995Y-59586374D01*
X-13469927Y-59598000D01*
X-15349728Y-59598000D01*
X-15038527Y-59390062D01*
X-14609938Y-58961473D01*
X-14273198Y-58457506D01*
X-14041248Y-57897528D01*
X-13923000Y-57303058D01*
X-13923000Y-57232040D01*
X10904980Y-57232040D01*
X10904980Y-57454040D01*
X10948290Y-57671774D01*
X11033246Y-57876875D01*
X11156582Y-58061461D01*
X11313559Y-58218438D01*
X11498145Y-58341774D01*
X11703246Y-58426730D01*
X11920980Y-58470040D01*
X12142980Y-58470040D01*
X12360714Y-58426730D01*
X12565815Y-58341774D01*
X12750401Y-58218438D01*
X12907378Y-58061461D01*
X13030714Y-57876875D01*
X13115670Y-57671774D01*
X13158980Y-57454040D01*
X13158980Y-57232040D01*
X13115670Y-57014306D01*
X13030714Y-56809205D01*
X12907378Y-56624619D01*
X12750401Y-56467642D01*
X12565815Y-56344306D01*
X12360714Y-56259350D01*
X12142980Y-56216040D01*
X11920980Y-56216040D01*
X11703246Y-56259350D01*
X11498145Y-56344306D01*
X11313559Y-56467642D01*
X11156582Y-56624619D01*
X11033246Y-56809205D01*
X10948290Y-57014306D01*
X10904980Y-57232040D01*
X-13923000Y-57232040D01*
X-13923000Y-56696942D01*
X-14041248Y-56102472D01*
X-14273198Y-55542494D01*
X-14609938Y-55038527D01*
X-15038527Y-54609938D01*
X-15542494Y-54273198D01*
X-16102472Y-54041248D01*
X-16696942Y-53923000D01*
X-17303058Y-53923000D01*
X-17897528Y-54041248D01*
X-18457506Y-54273198D01*
X-18961473Y-54609938D01*
X-19390062Y-55038527D01*
X-19598000Y-55349728D01*
X-19598000Y-28367000D01*
X-13332290Y-28367000D01*
X-14148289Y-29183000D01*
X-17524119Y-29183000D01*
X-17550000Y-29180451D01*
X-17575881Y-29183000D01*
X-17653310Y-29190626D01*
X-17752650Y-29220761D01*
X-17844202Y-29269696D01*
X-17924448Y-29335552D01*
X-17990304Y-29415798D01*
X-18039239Y-29507350D01*
X-18069374Y-29606690D01*
X-18079549Y-29710000D01*
X-18077000Y-29735881D01*
X-18076999Y-35601709D01*
X-18544334Y-36069045D01*
X-18564448Y-36085552D01*
X-18630304Y-36165798D01*
X-18634872Y-36174345D01*
X-18679239Y-36257351D01*
X-18709374Y-36356691D01*
X-18719549Y-36460000D01*
X-18717000Y-36485881D01*
X-18716999Y-50308229D01*
X-18719549Y-50334120D01*
X-18709374Y-50437429D01*
X-18679239Y-50536769D01*
X-18630304Y-50628321D01*
X-18630303Y-50628322D01*
X-18564447Y-50708568D01*
X-18544339Y-50725070D01*
X-18494444Y-50774965D01*
X-18531880Y-50963165D01*
X-18531880Y-51175315D01*
X-18490491Y-51383389D01*
X-18409305Y-51579391D01*
X-18291440Y-51755787D01*
X-18141427Y-51905800D01*
X-17981879Y-52012407D01*
X-17981879Y-52422570D01*
X-17984429Y-52448460D01*
X-17974254Y-52551769D01*
X-17944119Y-52651109D01*
X-17944118Y-52651110D01*
X-17932960Y-52671985D01*
X-17932960Y-52768983D01*
X-17905022Y-52909438D01*
X-17850219Y-53041744D01*
X-17770658Y-53160816D01*
X-17669396Y-53262078D01*
X-17550324Y-53341639D01*
X-17418018Y-53396442D01*
X-17277563Y-53424380D01*
X-17134357Y-53424380D01*
X-16993902Y-53396442D01*
X-16861596Y-53341639D01*
X-16742524Y-53262078D01*
X-16641262Y-53160816D01*
X-16561701Y-53041744D01*
X-16506898Y-52909438D01*
X-16478960Y-52768983D01*
X-16478960Y-52625777D01*
X-16506898Y-52485322D01*
X-16561701Y-52353016D01*
X-16641262Y-52233944D01*
X-16742524Y-52132682D01*
X-16861596Y-52053121D01*
X-16927880Y-52025665D01*
X-16927880Y-52012407D01*
X-16768333Y-51905800D01*
X-16618320Y-51755787D01*
X-16500455Y-51579391D01*
X-16419269Y-51383389D01*
X-16377880Y-51175315D01*
X-16377880Y-50963165D01*
X-16419269Y-50755091D01*
X-16500455Y-50559089D01*
X-16618320Y-50382693D01*
X-16768333Y-50232680D01*
X-16944729Y-50114815D01*
X-17140731Y-50033629D01*
X-17348805Y-49992240D01*
X-17560955Y-49992240D01*
X-17663000Y-50012538D01*
X-17663000Y-49891285D01*
X-12847360Y-49891285D01*
X-12847360Y-50103435D01*
X-12805971Y-50311509D01*
X-12724785Y-50507511D01*
X-12606920Y-50683907D01*
X-12456907Y-50833920D01*
X-12280511Y-50951785D01*
X-12217279Y-50977976D01*
X-12217280Y-53893757D01*
X-12291140Y-53967617D01*
X-12365230Y-54078500D01*
X-12416264Y-54201706D01*
X-12442280Y-54332501D01*
X-12442280Y-54465859D01*
X-12416264Y-54596654D01*
X-12365230Y-54719860D01*
X-12291140Y-54830743D01*
X-12196843Y-54925040D01*
X-12085960Y-54999130D01*
X-11962754Y-55050164D01*
X-11831959Y-55076180D01*
X-11698601Y-55076180D01*
X-11567806Y-55050164D01*
X-11444600Y-54999130D01*
X-11333717Y-54925040D01*
X-11239420Y-54830743D01*
X-11165330Y-54719860D01*
X-11114296Y-54596654D01*
X-11088280Y-54465859D01*
X-11088280Y-54332501D01*
X-11114296Y-54201706D01*
X-11165330Y-54078500D01*
X-11239420Y-53967617D01*
X-11313280Y-53893757D01*
X-11313280Y-51405125D01*
X-11226840Y-51405125D01*
X-11226840Y-51617275D01*
X-11185451Y-51825349D01*
X-11104265Y-52021351D01*
X-10986400Y-52197747D01*
X-10836387Y-52347760D01*
X-10659991Y-52465625D01*
X-10463989Y-52546811D01*
X-10255915Y-52588200D01*
X-10043765Y-52588200D01*
X-9835691Y-52546811D01*
X-9639689Y-52465625D01*
X-9463293Y-52347760D01*
X-9313280Y-52197747D01*
X-9195415Y-52021351D01*
X-9114229Y-51825349D01*
X-9072840Y-51617275D01*
X-9072840Y-51405125D01*
X-9114229Y-51197051D01*
X-9138316Y-51138900D01*
X-8938390Y-50938975D01*
X-8923211Y-50926517D01*
X-5169460Y-50926517D01*
X-5169460Y-51069723D01*
X-5141522Y-51210178D01*
X-5086719Y-51342484D01*
X-5007158Y-51461556D01*
X-4905896Y-51562818D01*
X-4786824Y-51642379D01*
X-4654518Y-51697182D01*
X-4514063Y-51725120D01*
X-4370857Y-51725120D01*
X-4230402Y-51697182D01*
X-4098096Y-51642379D01*
X-3979024Y-51562818D01*
X-3877762Y-51461556D01*
X-3870121Y-51450120D01*
X-2672728Y-51450120D01*
X-2665360Y-51461147D01*
X-2515347Y-51611160D01*
X-2338951Y-51729025D01*
X-2142949Y-51810211D01*
X-1934875Y-51851600D01*
X-1722725Y-51851600D01*
X-1514651Y-51810211D01*
X-1318649Y-51729025D01*
X-1142253Y-51611160D01*
X-992240Y-51461147D01*
X-874375Y-51284751D01*
X-793189Y-51088749D01*
X-751800Y-50880675D01*
X-751800Y-50668525D01*
X-793189Y-50460451D01*
X-874375Y-50264449D01*
X-992240Y-50088053D01*
X-1142253Y-49938040D01*
X-1318649Y-49820175D01*
X-1514651Y-49738989D01*
X-1722725Y-49697600D01*
X-1934875Y-49697600D01*
X-2142949Y-49738989D01*
X-2338951Y-49820175D01*
X-2515347Y-49938040D01*
X-2665360Y-50088053D01*
X-2783225Y-50264449D01*
X-2864411Y-50460451D01*
X-2881452Y-50546120D01*
X-3870121Y-50546120D01*
X-3877762Y-50534684D01*
X-3979024Y-50433422D01*
X-4098096Y-50353861D01*
X-4190765Y-50315476D01*
X-4082856Y-50270779D01*
X-3963784Y-50191218D01*
X-3862522Y-50089956D01*
X-3782961Y-49970884D01*
X-3728158Y-49838578D01*
X-3700220Y-49698123D01*
X-3700220Y-49554917D01*
X-3702903Y-49541428D01*
X-3544189Y-49382714D01*
X-3526941Y-49368559D01*
X-3470457Y-49299733D01*
X-3447567Y-49256908D01*
X-3356240Y-49393587D01*
X-3206227Y-49543600D01*
X-3029831Y-49661465D01*
X-2833829Y-49742651D01*
X-2625755Y-49784040D01*
X-2413605Y-49784040D01*
X-2205531Y-49742651D01*
X-2009529Y-49661465D01*
X-1833133Y-49543600D01*
X-1683120Y-49393587D01*
X-1565255Y-49217191D01*
X-1484069Y-49021189D01*
X-1442680Y-48813115D01*
X-1442680Y-48600965D01*
X-1484069Y-48392891D01*
X-1565255Y-48196889D01*
X-1683120Y-48020493D01*
X-1833133Y-47870480D01*
X-2009529Y-47752615D01*
X-2205531Y-47671429D01*
X-2413605Y-47630040D01*
X-2625755Y-47630040D01*
X-2833829Y-47671429D01*
X-3029831Y-47752615D01*
X-3206227Y-47870480D01*
X-3356240Y-48020493D01*
X-3474105Y-48196889D01*
X-3498192Y-48255040D01*
X-3615075Y-48255040D01*
X-3637280Y-48252853D01*
X-3725888Y-48261580D01*
X-3800119Y-48284098D01*
X-3811090Y-48287426D01*
X-3889613Y-48329397D01*
X-3958439Y-48385881D01*
X-3972603Y-48403140D01*
X-4152001Y-48582538D01*
X-4169259Y-48596701D01*
X-4225743Y-48665527D01*
X-4267714Y-48744050D01*
X-4267714Y-48744051D01*
X-4293560Y-48829253D01*
X-4296224Y-48856299D01*
X-4342128Y-48902203D01*
X-4355617Y-48899520D01*
X-4498823Y-48899520D01*
X-4639278Y-48927458D01*
X-4771584Y-48982261D01*
X-4890656Y-49061822D01*
X-4991918Y-49163084D01*
X-5071479Y-49282156D01*
X-5126282Y-49414462D01*
X-5154220Y-49554917D01*
X-5154220Y-49698123D01*
X-5126282Y-49838578D01*
X-5071479Y-49970884D01*
X-4991918Y-50089956D01*
X-4890656Y-50191218D01*
X-4771584Y-50270779D01*
X-4678915Y-50309164D01*
X-4786824Y-50353861D01*
X-4905896Y-50433422D01*
X-5007158Y-50534684D01*
X-5086719Y-50653756D01*
X-5141522Y-50786062D01*
X-5169460Y-50926517D01*
X-8923211Y-50926517D01*
X-8921141Y-50924819D01*
X-8864657Y-50855993D01*
X-8822686Y-50777470D01*
X-8803765Y-50715096D01*
X-8778864Y-50698458D01*
X-8677602Y-50597196D01*
X-8598041Y-50478124D01*
X-8543238Y-50345818D01*
X-8515300Y-50205363D01*
X-8515300Y-50062157D01*
X-8543238Y-49921702D01*
X-8598041Y-49789396D01*
X-8677602Y-49670324D01*
X-8778864Y-49569062D01*
X-8897936Y-49489501D01*
X-9030242Y-49434698D01*
X-9051246Y-49430520D01*
X-7867470Y-49430520D01*
X-7856331Y-49543631D01*
X-7823336Y-49652396D01*
X-7769758Y-49752634D01*
X-7715717Y-49818484D01*
X-7653681Y-49880520D01*
X-7715717Y-49942556D01*
X-7769758Y-50008406D01*
X-7823336Y-50108644D01*
X-7856331Y-50217409D01*
X-7867470Y-50330520D01*
X-7856331Y-50443631D01*
X-7823336Y-50552396D01*
X-7769758Y-50652634D01*
X-7697654Y-50740494D01*
X-7609794Y-50812598D01*
X-7509556Y-50866176D01*
X-7400791Y-50899171D01*
X-7287680Y-50910310D01*
X-7174569Y-50899171D01*
X-7065804Y-50866176D01*
X-6965566Y-50812598D01*
X-6899716Y-50758557D01*
X-6837680Y-50696522D01*
X-6775645Y-50758557D01*
X-6709795Y-50812598D01*
X-6609557Y-50866176D01*
X-6500792Y-50899170D01*
X-6387681Y-50910310D01*
X-6274569Y-50899170D01*
X-6165804Y-50866176D01*
X-6065567Y-50812598D01*
X-5977706Y-50740494D01*
X-5905602Y-50652633D01*
X-5852024Y-50552396D01*
X-5819030Y-50443631D01*
X-5807890Y-50330519D01*
X-5819030Y-50217408D01*
X-5852024Y-50108643D01*
X-5905602Y-50008405D01*
X-5959643Y-49942555D01*
X-6021678Y-49880520D01*
X-5959643Y-49818485D01*
X-5905602Y-49752635D01*
X-5852024Y-49652397D01*
X-5819030Y-49543632D01*
X-5807890Y-49430521D01*
X-5819030Y-49317409D01*
X-5852024Y-49208644D01*
X-5905602Y-49108407D01*
X-5977706Y-49020546D01*
X-6065567Y-48948442D01*
X-6165804Y-48894864D01*
X-6274569Y-48861870D01*
X-6387681Y-48850730D01*
X-6500792Y-48861870D01*
X-6609557Y-48894864D01*
X-6709795Y-48948442D01*
X-6775645Y-49002483D01*
X-6837680Y-49064518D01*
X-6899716Y-49002483D01*
X-6965566Y-48948442D01*
X-7065804Y-48894864D01*
X-7174569Y-48861869D01*
X-7287680Y-48850730D01*
X-7400791Y-48861869D01*
X-7509556Y-48894864D01*
X-7609794Y-48948442D01*
X-7697654Y-49020546D01*
X-7769758Y-49108406D01*
X-7823336Y-49208644D01*
X-7856331Y-49317409D01*
X-7867470Y-49430520D01*
X-9051246Y-49430520D01*
X-9170697Y-49406760D01*
X-9313903Y-49406760D01*
X-9454358Y-49434698D01*
X-9586664Y-49489501D01*
X-9705736Y-49569062D01*
X-9806998Y-49670324D01*
X-9886559Y-49789396D01*
X-9941362Y-49921702D01*
X-9969300Y-50062157D01*
X-9969300Y-50205363D01*
X-9941362Y-50345818D01*
X-9892271Y-50464334D01*
X-10043765Y-50434200D01*
X-10255915Y-50434200D01*
X-10463989Y-50475589D01*
X-10659991Y-50556775D01*
X-10836387Y-50674640D01*
X-10986400Y-50824653D01*
X-11104265Y-51001049D01*
X-11185451Y-51197051D01*
X-11226840Y-51405125D01*
X-11313280Y-51405125D01*
X-11313280Y-50973768D01*
X-11260209Y-50951785D01*
X-11083813Y-50833920D01*
X-10933800Y-50683907D01*
X-10815935Y-50507511D01*
X-10734749Y-50311509D01*
X-10693360Y-50103435D01*
X-10693360Y-49891285D01*
X-10734749Y-49683211D01*
X-10777435Y-49580158D01*
X-9441962Y-48244685D01*
X-9434122Y-48284098D01*
X-9379319Y-48416404D01*
X-9299758Y-48535476D01*
X-9198496Y-48636738D01*
X-9079424Y-48716299D01*
X-8947118Y-48771102D01*
X-8806663Y-48799040D01*
X-8663457Y-48799040D01*
X-8523002Y-48771102D01*
X-8390696Y-48716299D01*
X-8271624Y-48636738D01*
X-8170362Y-48535476D01*
X-8090801Y-48416404D01*
X-8035998Y-48284098D01*
X-8008060Y-48143643D01*
X-8008060Y-48000437D01*
X-8035998Y-47859982D01*
X-8090801Y-47727676D01*
X-8170362Y-47608604D01*
X-8271624Y-47507342D01*
X-8390696Y-47427781D01*
X-8523002Y-47372978D01*
X-8564533Y-47364717D01*
X-8479256Y-47279440D01*
X-7963650Y-47279440D01*
X-7950710Y-47310680D01*
X-7876620Y-47421563D01*
X-7782323Y-47515860D01*
X-7671440Y-47589950D01*
X-7548234Y-47640984D01*
X-7417439Y-47667000D01*
X-7284081Y-47667000D01*
X-7153286Y-47640984D01*
X-7030080Y-47589950D01*
X-6919197Y-47515860D01*
X-6824900Y-47421563D01*
X-6750810Y-47310680D01*
X-6699776Y-47187474D01*
X-6673760Y-47056679D01*
X-6673760Y-46923321D01*
X-6699776Y-46792526D01*
X-6750810Y-46669320D01*
X-6824900Y-46558437D01*
X-6919197Y-46464140D01*
X-7030080Y-46390050D01*
X-7153286Y-46339016D01*
X-7284081Y-46313000D01*
X-7417439Y-46313000D01*
X-7548234Y-46339016D01*
X-7636169Y-46375440D01*
X-8644276Y-46375440D01*
X-8666481Y-46373253D01*
X-8755088Y-46381980D01*
X-8774918Y-46387996D01*
X-8840290Y-46407826D01*
X-8918813Y-46449797D01*
X-8987639Y-46506281D01*
X-9001795Y-46523530D01*
X-9425041Y-46946778D01*
X-9442299Y-46960941D01*
X-9468083Y-46992359D01*
X-11442961Y-48967237D01*
X-11456211Y-48961749D01*
X-11664285Y-48920360D01*
X-11876435Y-48920360D01*
X-12084509Y-48961749D01*
X-12280511Y-49042935D01*
X-12456907Y-49160800D01*
X-12606920Y-49310813D01*
X-12724785Y-49487209D01*
X-12805971Y-49683211D01*
X-12847360Y-49891285D01*
X-17663000Y-49891285D01*
X-17663000Y-36678290D01*
X-17195656Y-36210947D01*
X-17175552Y-36194448D01*
X-17109696Y-36114202D01*
X-17060761Y-36022650D01*
X-17030626Y-35923310D01*
X-17023000Y-35845881D01*
X-17020451Y-35820000D01*
X-17023000Y-35794119D01*
X-17023000Y-30237000D01*
X-16720361Y-30237000D01*
X-16729374Y-30266711D01*
X-16739549Y-30370020D01*
X-16737000Y-30395901D01*
X-16736999Y-36578330D01*
X-16737000Y-36578340D01*
X-16736999Y-38213265D01*
X-16762278Y-38238544D01*
X-16841839Y-38357616D01*
X-16896642Y-38489922D01*
X-16924580Y-38630377D01*
X-16924580Y-38773583D01*
X-16896642Y-38914038D01*
X-16841839Y-39046344D01*
X-16762278Y-39165416D01*
X-16661016Y-39266678D01*
X-16541944Y-39346239D01*
X-16409638Y-39401042D01*
X-16269183Y-39428980D01*
X-16125977Y-39428980D01*
X-15985522Y-39401042D01*
X-15853216Y-39346239D01*
X-15734144Y-39266678D01*
X-15632882Y-39165416D01*
X-15553321Y-39046344D01*
X-15498518Y-38914038D01*
X-15470580Y-38773583D01*
X-15470580Y-38630377D01*
X-15498518Y-38489922D01*
X-15553321Y-38357616D01*
X-15632882Y-38238544D01*
X-15683000Y-38188426D01*
X-15683000Y-37213057D01*
X-15540280Y-37213057D01*
X-15540280Y-37356263D01*
X-15512342Y-37496718D01*
X-15457539Y-37629024D01*
X-15377978Y-37748096D01*
X-15340280Y-37785794D01*
X-15340279Y-39082490D01*
X-15342829Y-39108380D01*
X-15332654Y-39211689D01*
X-15302519Y-39311029D01*
X-15253584Y-39402581D01*
X-15253583Y-39402582D01*
X-15187727Y-39482828D01*
X-15179360Y-39489695D01*
X-15172488Y-39498068D01*
X-15092242Y-39563924D01*
X-15000690Y-39612859D01*
X-14901350Y-39642994D01*
X-14823921Y-39650620D01*
X-14798040Y-39653169D01*
X-14772159Y-39650620D01*
X-9812501Y-39650620D01*
X-9786620Y-39653169D01*
X-9760739Y-39650620D01*
X-9683310Y-39642994D01*
X-9583970Y-39612859D01*
X-9492418Y-39563924D01*
X-9412172Y-39498068D01*
X-9395665Y-39477954D01*
X-8543561Y-38625851D01*
X-8523452Y-38609348D01*
X-8457596Y-38529102D01*
X-8408661Y-38437550D01*
X-8378526Y-38338210D01*
X-8370900Y-38260781D01*
X-8370900Y-38260780D01*
X-8368351Y-38234900D01*
X-8370900Y-38209019D01*
X-8370900Y-38118254D01*
X-8333202Y-38080556D01*
X-8253641Y-37961484D01*
X-8198838Y-37829178D01*
X-8170900Y-37688723D01*
X-8170900Y-37582445D01*
X-2763560Y-37582445D01*
X-2763560Y-37794595D01*
X-2722171Y-38002669D01*
X-2640985Y-38198671D01*
X-2523120Y-38375067D01*
X-2373107Y-38525080D01*
X-2196711Y-38642945D01*
X-2117979Y-38675556D01*
X-2117980Y-39195386D01*
X-2135239Y-39221216D01*
X-2190042Y-39353522D01*
X-2217980Y-39493977D01*
X-2217980Y-39637183D01*
X-2190042Y-39777638D01*
X-2135239Y-39909944D01*
X-2055678Y-40029016D01*
X-1954416Y-40130278D01*
X-1835344Y-40209839D01*
X-1703038Y-40264642D01*
X-1562583Y-40292580D01*
X-1419377Y-40292580D01*
X-1278922Y-40264642D01*
X-1146616Y-40209839D01*
X-1027544Y-40130278D01*
X-926282Y-40029016D01*
X-846721Y-39909944D01*
X-791918Y-39777638D01*
X-763980Y-39637183D01*
X-763980Y-39493977D01*
X-791918Y-39353522D01*
X-846721Y-39221216D01*
X-863980Y-39195386D01*
X-863980Y-38389047D01*
X-850000Y-38375067D01*
X-810533Y-38316000D01*
X3687258Y-38316000D01*
X3687258Y-39916000D01*
X3693572Y-39980103D01*
X3712270Y-40041743D01*
X3742634Y-40098550D01*
X3783497Y-40148343D01*
X3833290Y-40189206D01*
X3890097Y-40219570D01*
X3951737Y-40238268D01*
X4015840Y-40244582D01*
X5615840Y-40244582D01*
X5679943Y-40238268D01*
X5741583Y-40219570D01*
X5798390Y-40189206D01*
X5848183Y-40148343D01*
X5889046Y-40098550D01*
X5919410Y-40041743D01*
X5938108Y-39980103D01*
X5944422Y-39916000D01*
X5944422Y-38316000D01*
X5938108Y-38251897D01*
X5919410Y-38190257D01*
X5889046Y-38133450D01*
X5848183Y-38083657D01*
X5798390Y-38042794D01*
X5741583Y-38012430D01*
X5679943Y-37993732D01*
X5615840Y-37987418D01*
X4015840Y-37987418D01*
X3951737Y-37993732D01*
X3890097Y-38012430D01*
X3833290Y-38042794D01*
X3783497Y-38083657D01*
X3742634Y-38133450D01*
X3712270Y-38190257D01*
X3693572Y-38251897D01*
X3687258Y-38316000D01*
X-810533Y-38316000D01*
X-732135Y-38198671D01*
X-650949Y-38002669D01*
X-609560Y-37794595D01*
X-609560Y-37582445D01*
X-650949Y-37374371D01*
X-732135Y-37178369D01*
X-850000Y-37001973D01*
X-1000013Y-36851960D01*
X-1176409Y-36734095D01*
X-1372411Y-36652909D01*
X-1580485Y-36611520D01*
X-1792635Y-36611520D01*
X-2000709Y-36652909D01*
X-2196711Y-36734095D01*
X-2373107Y-36851960D01*
X-2523120Y-37001973D01*
X-2640985Y-37178369D01*
X-2722171Y-37374371D01*
X-2763560Y-37582445D01*
X-8170900Y-37582445D01*
X-8170900Y-37545517D01*
X-8198838Y-37405062D01*
X-8253641Y-37272756D01*
X-8333202Y-37153684D01*
X-8434464Y-37052422D01*
X-8553536Y-36972861D01*
X-8685842Y-36918058D01*
X-8826297Y-36890120D01*
X-8969503Y-36890120D01*
X-9109958Y-36918058D01*
X-9242264Y-36972861D01*
X-9361336Y-37052422D01*
X-9462598Y-37153684D01*
X-9542159Y-37272756D01*
X-9596962Y-37405062D01*
X-9624900Y-37545517D01*
X-9624900Y-37688723D01*
X-9596962Y-37829178D01*
X-9542159Y-37961484D01*
X-9473111Y-38064822D01*
X-10004909Y-38596620D01*
X-11577184Y-38596620D01*
X-11568953Y-38591120D01*
X-11418940Y-38441107D01*
X-11301075Y-38264711D01*
X-11219889Y-38068709D01*
X-11178500Y-37860635D01*
X-11178500Y-37648485D01*
X-11219889Y-37440411D01*
X-11301075Y-37244409D01*
X-11418940Y-37068013D01*
X-11568953Y-36918000D01*
X-11745349Y-36800135D01*
X-11783680Y-36784258D01*
X-11783680Y-35437925D01*
X-11781493Y-35415720D01*
X-11783680Y-35393515D01*
X-11783680Y-35138414D01*
X-11693342Y-35048076D01*
X-11613781Y-34929004D01*
X-11558978Y-34796698D01*
X-11531040Y-34656243D01*
X-11531040Y-34513037D01*
X-11558978Y-34372582D01*
X-11613781Y-34240276D01*
X-11693342Y-34121204D01*
X-11794604Y-34019942D01*
X-11906158Y-33945405D01*
X-11914022Y-33935822D01*
X-11982847Y-33879338D01*
X-12061371Y-33837366D01*
X-12146573Y-33811520D01*
X-12235181Y-33802793D01*
X-12323787Y-33811520D01*
X-12408989Y-33837366D01*
X-12487513Y-33879338D01*
X-12520612Y-33906502D01*
X-12602404Y-33940381D01*
X-12721476Y-34019942D01*
X-12822738Y-34121204D01*
X-12902299Y-34240276D01*
X-12957102Y-34372582D01*
X-12985040Y-34513037D01*
X-12985040Y-34656243D01*
X-12957102Y-34796698D01*
X-12902299Y-34929004D01*
X-12822738Y-35048076D01*
X-12721476Y-35149338D01*
X-12687679Y-35171920D01*
X-12687679Y-35393509D01*
X-12689867Y-35415720D01*
X-12687679Y-35437931D01*
X-12687680Y-36767839D01*
X-12765651Y-36800135D01*
X-12942047Y-36918000D01*
X-13092060Y-37068013D01*
X-13209925Y-37244409D01*
X-13291111Y-37440411D01*
X-13332500Y-37648485D01*
X-13332500Y-37860635D01*
X-13291111Y-38068709D01*
X-13209925Y-38264711D01*
X-13092060Y-38441107D01*
X-12942047Y-38591120D01*
X-12933816Y-38596620D01*
X-14286280Y-38596620D01*
X-14286280Y-37785794D01*
X-14248582Y-37748096D01*
X-14169021Y-37629024D01*
X-14114218Y-37496718D01*
X-14086280Y-37356263D01*
X-14086280Y-37213057D01*
X-14114218Y-37072602D01*
X-14169021Y-36940296D01*
X-14247783Y-36822420D01*
X-14163645Y-36822420D01*
X-13955571Y-36781031D01*
X-13759569Y-36699845D01*
X-13583173Y-36581980D01*
X-13433160Y-36431967D01*
X-13315295Y-36255571D01*
X-13234109Y-36059569D01*
X-13192720Y-35851495D01*
X-13192720Y-35639345D01*
X-13234109Y-35431271D01*
X-13315295Y-35235269D01*
X-13433160Y-35058873D01*
X-13583173Y-34908860D01*
X-13624627Y-34881161D01*
X-13591421Y-34831464D01*
X-13536618Y-34699158D01*
X-13508680Y-34558703D01*
X-13508680Y-34415497D01*
X-13536618Y-34275042D01*
X-13591421Y-34142736D01*
X-13670982Y-34023664D01*
X-13772244Y-33922402D01*
X-13891316Y-33842841D01*
X-14023622Y-33788038D01*
X-14164077Y-33760100D01*
X-14307283Y-33760100D01*
X-14447738Y-33788038D01*
X-14580044Y-33842841D01*
X-14699116Y-33922402D01*
X-14800378Y-34023664D01*
X-14879939Y-34142736D01*
X-14934742Y-34275042D01*
X-14962680Y-34415497D01*
X-14962680Y-34558703D01*
X-14934742Y-34699158D01*
X-14879939Y-34831464D01*
X-14867746Y-34849712D01*
X-14956267Y-34908860D01*
X-15106280Y-35058873D01*
X-15224145Y-35235269D01*
X-15305331Y-35431271D01*
X-15346720Y-35639345D01*
X-15346720Y-35851495D01*
X-15305331Y-36059569D01*
X-15224145Y-36255571D01*
X-15106280Y-36431967D01*
X-14964709Y-36573538D01*
X-15025338Y-36585598D01*
X-15157644Y-36640401D01*
X-15276716Y-36719962D01*
X-15377978Y-36821224D01*
X-15457539Y-36940296D01*
X-15512342Y-37072602D01*
X-15540280Y-37213057D01*
X-15683000Y-37213057D01*
X-15683000Y-33162340D01*
X15094278Y-33162340D01*
X15094278Y-34762340D01*
X15100592Y-34826443D01*
X15119290Y-34888083D01*
X15149654Y-34944890D01*
X15190517Y-34994683D01*
X15240310Y-35035546D01*
X15297117Y-35065910D01*
X15358757Y-35084608D01*
X15422860Y-35090922D01*
X17022860Y-35090922D01*
X17086963Y-35084608D01*
X17148603Y-35065910D01*
X17205410Y-35035546D01*
X17255203Y-34994683D01*
X17296066Y-34944890D01*
X17326430Y-34888083D01*
X17345128Y-34826443D01*
X17351442Y-34762340D01*
X17351442Y-33162340D01*
X17345128Y-33098237D01*
X17326430Y-33036597D01*
X17296066Y-32979790D01*
X17255203Y-32929997D01*
X17205410Y-32889134D01*
X17148603Y-32858770D01*
X17086963Y-32840072D01*
X17022860Y-32833758D01*
X15422860Y-32833758D01*
X15358757Y-32840072D01*
X15297117Y-32858770D01*
X15240310Y-32889134D01*
X15190517Y-32929997D01*
X15149654Y-32979790D01*
X15119290Y-33036597D01*
X15100592Y-33098237D01*
X15094278Y-33162340D01*
X-15683000Y-33162340D01*
X-15683000Y-30837010D01*
X-13707349Y-30837010D01*
X-13681468Y-30839559D01*
X-13655587Y-30837010D01*
X-13578158Y-30829384D01*
X-13478818Y-30799249D01*
X-13387266Y-30750314D01*
X-13307020Y-30684458D01*
X-13290513Y-30664344D01*
X-12283309Y-29657140D01*
X3651818Y-29657140D01*
X3651818Y-31257140D01*
X3658132Y-31321243D01*
X3676830Y-31382883D01*
X3707194Y-31439690D01*
X3748057Y-31489483D01*
X3797850Y-31530346D01*
X3854657Y-31560710D01*
X3916297Y-31579408D01*
X3980400Y-31585722D01*
X5580400Y-31585722D01*
X5644503Y-31579408D01*
X5706143Y-31560710D01*
X5762950Y-31530346D01*
X5812743Y-31489483D01*
X5853606Y-31439690D01*
X5883970Y-31382883D01*
X5902668Y-31321243D01*
X5908982Y-31257140D01*
X5908982Y-29657140D01*
X5902668Y-29593037D01*
X5883970Y-29531397D01*
X5853606Y-29474590D01*
X5812743Y-29424797D01*
X5762950Y-29383934D01*
X5706143Y-29353570D01*
X5644503Y-29334872D01*
X5580400Y-29328558D01*
X3980400Y-29328558D01*
X3916297Y-29334872D01*
X3854657Y-29353570D01*
X3797850Y-29383934D01*
X3748057Y-29424797D01*
X3707194Y-29474590D01*
X3676830Y-29531397D01*
X3658132Y-29593037D01*
X3651818Y-29657140D01*
X-12283309Y-29657140D01*
X-11283367Y-28657199D01*
X-11263264Y-28640701D01*
X-11244057Y-28617297D01*
X-11197407Y-28560455D01*
X-11148472Y-28468902D01*
X-11118337Y-28369563D01*
X-11108162Y-28266253D01*
X-11110712Y-28240362D01*
X-11110712Y-20998280D01*
X3611178Y-20998280D01*
X3611178Y-22598280D01*
X3617492Y-22662383D01*
X3636190Y-22724023D01*
X3666554Y-22780830D01*
X3707417Y-22830623D01*
X3757210Y-22871486D01*
X3814017Y-22901850D01*
X3875657Y-22920548D01*
X3939760Y-22926862D01*
X5539760Y-22926862D01*
X5603863Y-22920548D01*
X5665503Y-22901850D01*
X5722310Y-22871486D01*
X5772103Y-22830623D01*
X5812966Y-22780830D01*
X5843330Y-22724023D01*
X5862028Y-22662383D01*
X5868342Y-22598280D01*
X5868342Y-20998280D01*
X5862028Y-20934177D01*
X5843330Y-20872537D01*
X5812966Y-20815730D01*
X5772103Y-20765937D01*
X5722310Y-20725074D01*
X5665503Y-20694710D01*
X5603863Y-20676012D01*
X5539760Y-20669698D01*
X3939760Y-20669698D01*
X3875657Y-20676012D01*
X3814017Y-20694710D01*
X3757210Y-20725074D01*
X3707417Y-20765937D01*
X3666554Y-20815730D01*
X3636190Y-20872537D01*
X3617492Y-20934177D01*
X3611178Y-20998280D01*
X-11110712Y-20998280D01*
X-11110710Y-13467000D01*
X4886833Y-13467000D01*
X4993440Y-13626547D01*
X5143453Y-13776560D01*
X5319849Y-13894425D01*
X5515851Y-13975611D01*
X5723925Y-14017000D01*
X5936075Y-14017000D01*
X6144149Y-13975611D01*
X6340151Y-13894425D01*
X6516547Y-13776560D01*
X6666560Y-13626547D01*
X6769827Y-13471999D01*
X9293865Y-13471999D01*
X9331563Y-13509697D01*
X9450635Y-13589258D01*
X9582941Y-13644061D01*
X9723396Y-13671999D01*
X9866602Y-13671999D01*
X10007057Y-13644061D01*
X10139363Y-13589258D01*
X10258435Y-13509697D01*
X10359697Y-13408435D01*
X10439258Y-13289363D01*
X10494061Y-13157057D01*
X10521999Y-13016602D01*
X10521999Y-12873396D01*
X10494061Y-12732941D01*
X10439258Y-12600635D01*
X10359697Y-12481563D01*
X10258435Y-12380301D01*
X10139363Y-12300740D01*
X10007057Y-12245937D01*
X9866602Y-12217999D01*
X9723396Y-12217999D01*
X9582941Y-12245937D01*
X9450635Y-12300740D01*
X9331563Y-12380301D01*
X9293865Y-12417999D01*
X6776507Y-12417999D01*
X6666560Y-12253453D01*
X6516547Y-12103440D01*
X6340151Y-11985575D01*
X6144149Y-11904389D01*
X5936075Y-11863000D01*
X5723925Y-11863000D01*
X5515851Y-11904389D01*
X5319849Y-11985575D01*
X5143453Y-12103440D01*
X4993440Y-12253453D01*
X4886833Y-12413000D01*
X-11504119Y-12413000D01*
X-11530000Y-12410451D01*
X-11555881Y-12413000D01*
X-11565227Y-12413920D01*
X-11538658Y-12349778D01*
X-11510720Y-12209323D01*
X-11510720Y-12066117D01*
X-11538658Y-11925662D01*
X-11593461Y-11793356D01*
X-11673022Y-11674284D01*
X-11774284Y-11573022D01*
X-11893356Y-11493461D01*
X-12025662Y-11438658D01*
X-12166117Y-11410720D01*
X-12309323Y-11410720D01*
X-12449778Y-11438658D01*
X-12582084Y-11493461D01*
X-12701156Y-11573022D01*
X-12802418Y-11674284D01*
X-12881979Y-11793356D01*
X-12936782Y-11925662D01*
X-12964720Y-12066117D01*
X-12964720Y-12209323D01*
X-12936782Y-12349778D01*
X-12881979Y-12482084D01*
X-12802418Y-12601156D01*
X-12764720Y-12638854D01*
X-12764719Y-27799429D01*
X-13123000Y-28157710D01*
X-13123000Y-8158737D01*
X-13064425Y-8300151D01*
X-12946560Y-8476547D01*
X-12796547Y-8626560D01*
X-12624663Y-8741410D01*
X-12674259Y-8815636D01*
X-12729062Y-8947942D01*
X-12757000Y-9088397D01*
X-12757000Y-9231603D01*
X-12729062Y-9372058D01*
X-12674259Y-9504364D01*
X-12594698Y-9623436D01*
X-12493436Y-9724698D01*
X-12374364Y-9804259D01*
X-12242058Y-9859062D01*
X-12101603Y-9887000D01*
X-11958397Y-9887000D01*
X-11817942Y-9859062D01*
X-11685636Y-9804259D01*
X-11566564Y-9724698D01*
X-11465302Y-9623436D01*
X-11385741Y-9504364D01*
X-11330938Y-9372058D01*
X-11303000Y-9231603D01*
X-11303000Y-9088397D01*
X-11330938Y-8947942D01*
X-11385741Y-8815636D01*
X-11465302Y-8696564D01*
X-11490504Y-8671362D01*
X-11423453Y-8626560D01*
X-11273440Y-8476547D01*
X-11155575Y-8300151D01*
X-11128257Y-8234197D01*
X-8971840Y-8234197D01*
X-8971840Y-8377403D01*
X-8943902Y-8517858D01*
X-8889099Y-8650164D01*
X-8809538Y-8769236D01*
X-8771840Y-8806934D01*
X-8771839Y-10565645D01*
X-8796838Y-10590644D01*
X-8876399Y-10709716D01*
X-8931202Y-10842022D01*
X-8959140Y-10982477D01*
X-8959140Y-11125683D01*
X-8931202Y-11266138D01*
X-8876399Y-11398444D01*
X-8796838Y-11517516D01*
X-8695576Y-11618778D01*
X-8576504Y-11698339D01*
X-8444198Y-11753142D01*
X-8303743Y-11781080D01*
X-8160537Y-11781080D01*
X-8020082Y-11753142D01*
X-7887776Y-11698339D01*
X-7768704Y-11618778D01*
X-7667442Y-11517516D01*
X-7587881Y-11398444D01*
X-7533078Y-11266138D01*
X-7505140Y-11125683D01*
X-7505140Y-10982477D01*
X-7533078Y-10842022D01*
X-7587881Y-10709716D01*
X-7667442Y-10590644D01*
X-7717840Y-10540246D01*
X-7717840Y-8806934D01*
X-7680142Y-8769236D01*
X-7600581Y-8650164D01*
X-7545778Y-8517858D01*
X-7517840Y-8377403D01*
X-7517840Y-8234197D01*
X-7545778Y-8093742D01*
X-7600581Y-7961436D01*
X-7680142Y-7842364D01*
X-7781404Y-7741102D01*
X-7900476Y-7661541D01*
X-8032782Y-7606738D01*
X-8173237Y-7578800D01*
X-8316443Y-7578800D01*
X-8456898Y-7606738D01*
X-8589204Y-7661541D01*
X-8708276Y-7741102D01*
X-8809538Y-7842364D01*
X-8889099Y-7961436D01*
X-8943902Y-8093742D01*
X-8971840Y-8234197D01*
X-11128257Y-8234197D01*
X-11074389Y-8104149D01*
X-11033000Y-7896075D01*
X-11033000Y-7683925D01*
X-11074389Y-7475851D01*
X-11155575Y-7279849D01*
X-11273440Y-7103453D01*
X-11423453Y-6953440D01*
X-11599849Y-6835575D01*
X-11633000Y-6821844D01*
X-11633000Y-6725437D01*
X-6574080Y-6725437D01*
X-6574080Y-6868643D01*
X-6546142Y-7009098D01*
X-6491339Y-7141404D01*
X-6411778Y-7260476D01*
X-6310516Y-7361738D01*
X-6299079Y-7369380D01*
X-6299080Y-10457835D01*
X-6301267Y-10480040D01*
X-6292540Y-10568647D01*
X-6276338Y-10622058D01*
X-6266694Y-10653849D01*
X-6224723Y-10732372D01*
X-6168239Y-10801199D01*
X-6150980Y-10815363D01*
X-5938563Y-11027780D01*
X-5924399Y-11045039D01*
X-5855573Y-11101523D01*
X-5782661Y-11140495D01*
X-5777050Y-11143494D01*
X-5691848Y-11169340D01*
X-5603240Y-11178067D01*
X-5581035Y-11175880D01*
X-5184979Y-11175880D01*
X-5177338Y-11187316D01*
X-5076076Y-11288578D01*
X-4957004Y-11368139D01*
X-4824698Y-11422942D01*
X-4684243Y-11450880D01*
X-4541037Y-11450880D01*
X-4400582Y-11422942D01*
X-4268276Y-11368139D01*
X-4149204Y-11288578D01*
X-4047942Y-11187316D01*
X-3968381Y-11068244D01*
X-3913578Y-10935938D01*
X-3885640Y-10795483D01*
X-3885640Y-10652277D01*
X-3913578Y-10511822D01*
X-3968381Y-10379516D01*
X-4047942Y-10260444D01*
X-4149204Y-10159182D01*
X-4268276Y-10079621D01*
X-4400582Y-10024818D01*
X-4541037Y-9996880D01*
X-4684243Y-9996880D01*
X-4824698Y-10024818D01*
X-4957004Y-10079621D01*
X-5076076Y-10159182D01*
X-5177338Y-10260444D01*
X-5184979Y-10271880D01*
X-5395080Y-10271880D01*
X-5395080Y-7369379D01*
X-5383644Y-7361738D01*
X-5282382Y-7260476D01*
X-5202821Y-7141404D01*
X-5148018Y-7009098D01*
X-5120080Y-6868643D01*
X-5120080Y-6725437D01*
X-5148018Y-6584982D01*
X-5202821Y-6452676D01*
X-5282382Y-6333604D01*
X-5383644Y-6232342D01*
X-5502716Y-6152781D01*
X-5635022Y-6097978D01*
X-5775477Y-6070040D01*
X-5918683Y-6070040D01*
X-6059138Y-6097978D01*
X-6191444Y-6152781D01*
X-6310516Y-6232342D01*
X-6411778Y-6333604D01*
X-6491339Y-6452676D01*
X-6546142Y-6584982D01*
X-6574080Y-6725437D01*
X-11633000Y-6725437D01*
X-11633000Y-5859872D01*
X-11619849Y-5854425D01*
X-11443453Y-5736560D01*
X-11293440Y-5586547D01*
X-11175575Y-5410151D01*
X-11094389Y-5214149D01*
X-11053000Y-5006075D01*
X-11053000Y-4793925D01*
X-11094389Y-4585851D01*
X-11175575Y-4389849D01*
X-11293440Y-4213453D01*
X-11374005Y-4132888D01*
X-7185341Y-4132890D01*
X-7176062Y-4179538D01*
X-7121259Y-4311844D01*
X-7041698Y-4430916D01*
X-6940436Y-4532178D01*
X-6821364Y-4611739D01*
X-6689058Y-4666542D01*
X-6548603Y-4694480D01*
X-6405397Y-4694480D01*
X-6264942Y-4666542D01*
X-6132636Y-4611739D01*
X-6013564Y-4532178D01*
X-5912302Y-4430916D01*
X-5832741Y-4311844D01*
X-5777938Y-4179538D01*
X-5750000Y-4039083D01*
X-5750000Y-3895877D01*
X-5777001Y-3760133D01*
X-5741556Y-3795578D01*
X-5622484Y-3875139D01*
X-5490178Y-3929942D01*
X-5349723Y-3957880D01*
X-5206517Y-3957880D01*
X-5066062Y-3929942D01*
X-4933756Y-3875139D01*
X-4814684Y-3795578D01*
X-4713422Y-3694316D01*
X-4664096Y-3620494D01*
X-4698187Y-3732877D01*
X-4711600Y-3869063D01*
X-4711599Y-5384973D01*
X-4711600Y-5384983D01*
X-4711599Y-6359864D01*
X-4716084Y-6405400D01*
X-4711599Y-6450937D01*
X-4711599Y-6450938D01*
X-4698186Y-6587124D01*
X-4685413Y-6629232D01*
X-4645180Y-6761863D01*
X-4559101Y-6922905D01*
X-4472288Y-7028687D01*
X-4472283Y-7028692D01*
X-4443258Y-7064059D01*
X-4407892Y-7093083D01*
X-1957684Y-9543292D01*
X-1928659Y-9578659D01*
X-1893292Y-9607684D01*
X-1893289Y-9607687D01*
X-1787506Y-9694501D01*
X-1722263Y-9729374D01*
X-1626464Y-9780580D01*
X-1451724Y-9833587D01*
X-1315538Y-9847000D01*
X-1315526Y-9847000D01*
X-1270001Y-9851484D01*
X-1224476Y-9847000D01*
X-685134Y-9847000D01*
X-784698Y-9946564D01*
X-864259Y-10065636D01*
X-919062Y-10197942D01*
X-947000Y-10338397D01*
X-947000Y-10481603D01*
X-919062Y-10622058D01*
X-864259Y-10754364D01*
X-784698Y-10873436D01*
X-683436Y-10974698D01*
X-564364Y-11054259D01*
X-432058Y-11109062D01*
X-291603Y-11137000D01*
X-148397Y-11137000D01*
X-7942Y-11109062D01*
X21178Y-11097000D01*
X646833Y-11097000D01*
X753440Y-11256547D01*
X903453Y-11406560D01*
X1079849Y-11524425D01*
X1275851Y-11605611D01*
X1483925Y-11647000D01*
X1696075Y-11647000D01*
X1904149Y-11605611D01*
X2100151Y-11524425D01*
X2276547Y-11406560D01*
X2426560Y-11256547D01*
X2533167Y-11097000D01*
X4876833Y-11097000D01*
X4983440Y-11256547D01*
X5133453Y-11406560D01*
X5309849Y-11524425D01*
X5505851Y-11605611D01*
X5713925Y-11647000D01*
X5926075Y-11647000D01*
X6134149Y-11605611D01*
X6330151Y-11524425D01*
X6506547Y-11406560D01*
X6656560Y-11256547D01*
X6774425Y-11080151D01*
X6833720Y-10937000D01*
X10218866Y-10937000D01*
X10256564Y-10974698D01*
X10375636Y-11054259D01*
X10507942Y-11109062D01*
X10648397Y-11137000D01*
X10791603Y-11137000D01*
X10932058Y-11109062D01*
X11064364Y-11054259D01*
X11183436Y-10974698D01*
X11284698Y-10873436D01*
X11364259Y-10754364D01*
X11419062Y-10622058D01*
X11447000Y-10481603D01*
X11447000Y-10338397D01*
X11419062Y-10197942D01*
X11364259Y-10065636D01*
X11284698Y-9946564D01*
X11185134Y-9847000D01*
X11663000Y-9847000D01*
X11663001Y-14980206D01*
X11594389Y-15145851D01*
X11553000Y-15353925D01*
X11553000Y-15566075D01*
X11594389Y-15774149D01*
X11663000Y-15939793D01*
X11663001Y-17414453D01*
X11658515Y-17460000D01*
X11676413Y-17641724D01*
X11729420Y-17816464D01*
X11815499Y-17977505D01*
X11931341Y-18118659D01*
X12072495Y-18234501D01*
X12233536Y-18320580D01*
X12408276Y-18373587D01*
X12544462Y-18387000D01*
X12544463Y-18387000D01*
X12590000Y-18391485D01*
X12641813Y-18386382D01*
X12771724Y-18373587D01*
X12946464Y-18320580D01*
X13107505Y-18234501D01*
X13248659Y-18118659D01*
X13364501Y-17977505D01*
X13450580Y-17816464D01*
X13503587Y-17641724D01*
X13512419Y-17552054D01*
X13517000Y-17505538D01*
X13521485Y-17460000D01*
X13517000Y-17414462D01*
X13517000Y-16071059D01*
X13584425Y-15970151D01*
X13665611Y-15774149D01*
X13707000Y-15566075D01*
X13707000Y-15353925D01*
X13665611Y-15145851D01*
X13584425Y-14949849D01*
X13517000Y-14848941D01*
X13517000Y-8965538D01*
X13521485Y-8920000D01*
X13503587Y-8738276D01*
X13450580Y-8563536D01*
X13364501Y-8402495D01*
X13248659Y-8261341D01*
X13107505Y-8145499D01*
X12946464Y-8059420D01*
X12771724Y-8006413D01*
X12635538Y-7993000D01*
X12635537Y-7993000D01*
X12590000Y-7988515D01*
X12544462Y-7993000D01*
X10226025Y-7993000D01*
X10110151Y-7915575D01*
X9914149Y-7834389D01*
X9706075Y-7793000D01*
X9493925Y-7793000D01*
X9285851Y-7834389D01*
X9089849Y-7915575D01*
X8973975Y-7993000D01*
X-886024Y-7993000D01*
X-2857600Y-6021425D01*
X-2857600Y-3869062D01*
X-2871013Y-3732876D01*
X-2924020Y-3558136D01*
X-3010099Y-3397095D01*
X-3125941Y-3255941D01*
X-3267096Y-3140099D01*
X-3428137Y-3054020D01*
X-3602877Y-3001013D01*
X-3784600Y-2983115D01*
X-3966324Y-3001013D01*
X-4141064Y-3054020D01*
X-4302105Y-3140099D01*
X-4443259Y-3255941D01*
X-4559101Y-3397096D01*
X-4576363Y-3429391D01*
X-4551120Y-3302483D01*
X-4551120Y-3159277D01*
X-4579058Y-3018822D01*
X-4633861Y-2886516D01*
X-4713422Y-2767444D01*
X-4814684Y-2666182D01*
X-4933756Y-2586621D01*
X-5066062Y-2531818D01*
X-5206517Y-2503880D01*
X-5349723Y-2503880D01*
X-5490178Y-2531818D01*
X-5622484Y-2586621D01*
X-5741556Y-2666182D01*
X-5842818Y-2767444D01*
X-5850459Y-2778880D01*
X-11974296Y-2778880D01*
X-12281882Y-2471295D01*
X-12254600Y-2473982D01*
X-10554600Y-2473982D01*
X-10490497Y-2467668D01*
X-10428857Y-2448970D01*
X-10372050Y-2418606D01*
X-10322257Y-2377743D01*
X-10281394Y-2327950D01*
X-10251030Y-2271143D01*
X-10232332Y-2209503D01*
X-10226018Y-2145400D01*
X-10226018Y-1179476D01*
X-10041600Y-1179476D01*
X-10041600Y-1411324D01*
X-9996369Y-1638718D01*
X-9907644Y-1852919D01*
X-9778836Y-2045694D01*
X-9614894Y-2209636D01*
X-9422119Y-2338444D01*
X-9207918Y-2427169D01*
X-8980524Y-2472400D01*
X-8748676Y-2472400D01*
X-8521282Y-2427169D01*
X-8307081Y-2338444D01*
X-8114306Y-2209636D01*
X-7950364Y-2045694D01*
X-7821556Y-1852919D01*
X-7732831Y-1638718D01*
X-7687600Y-1411324D01*
X-7687600Y-1179476D01*
X-4961600Y-1179476D01*
X-4961600Y-1411324D01*
X-4916369Y-1638718D01*
X-4827644Y-1852919D01*
X-4698836Y-2045694D01*
X-4534894Y-2209636D01*
X-4342119Y-2338444D01*
X-4127918Y-2427169D01*
X-3900524Y-2472400D01*
X-3668676Y-2472400D01*
X-3441282Y-2427169D01*
X-3227081Y-2338444D01*
X-3034306Y-2209636D01*
X-2870364Y-2045694D01*
X-2741556Y-1852919D01*
X-2652831Y-1638718D01*
X-2607600Y-1411324D01*
X-2607600Y-1179476D01*
X118400Y-1179476D01*
X118400Y-1411324D01*
X163631Y-1638718D01*
X252356Y-1852919D01*
X381164Y-2045694D01*
X545106Y-2209636D01*
X737881Y-2338444D01*
X952082Y-2427169D01*
X1179476Y-2472400D01*
X1411324Y-2472400D01*
X1638718Y-2427169D01*
X1852919Y-2338444D01*
X2045694Y-2209636D01*
X2209636Y-2045694D01*
X2338444Y-1852919D01*
X2427169Y-1638718D01*
X2472400Y-1411324D01*
X2472400Y-1179476D01*
X2658400Y-1179476D01*
X2658400Y-1411324D01*
X2703631Y-1638718D01*
X2792356Y-1852919D01*
X2921164Y-2045694D01*
X3085106Y-2209636D01*
X3277881Y-2338444D01*
X3492082Y-2427169D01*
X3719476Y-2472400D01*
X3951324Y-2472400D01*
X4178718Y-2427169D01*
X4392919Y-2338444D01*
X4585694Y-2209636D01*
X4749636Y-2045694D01*
X4878444Y-1852919D01*
X4967169Y-1638718D01*
X5012400Y-1411324D01*
X5012400Y-1179476D01*
X5198400Y-1179476D01*
X5198400Y-1411324D01*
X5243631Y-1638718D01*
X5332356Y-1852919D01*
X5461164Y-2045694D01*
X5625106Y-2209636D01*
X5817881Y-2338444D01*
X6032082Y-2427169D01*
X6259476Y-2472400D01*
X6491324Y-2472400D01*
X6718718Y-2427169D01*
X6932919Y-2338444D01*
X7125694Y-2209636D01*
X7289636Y-2045694D01*
X7418444Y-1852919D01*
X7507169Y-1638718D01*
X7552400Y-1411324D01*
X7552400Y-1179476D01*
X7738400Y-1179476D01*
X7738400Y-1411324D01*
X7783631Y-1638718D01*
X7872356Y-1852919D01*
X8001164Y-2045694D01*
X8165106Y-2209636D01*
X8357881Y-2338444D01*
X8572082Y-2427169D01*
X8799476Y-2472400D01*
X9031324Y-2472400D01*
X9258718Y-2427169D01*
X9472919Y-2338444D01*
X9665694Y-2209636D01*
X9829636Y-2045694D01*
X9958444Y-1852919D01*
X10047169Y-1638718D01*
X10092400Y-1411324D01*
X10092400Y-1179476D01*
X10278400Y-1179476D01*
X10278400Y-1411324D01*
X10323631Y-1638718D01*
X10412356Y-1852919D01*
X10541164Y-2045694D01*
X10705106Y-2209636D01*
X10897881Y-2338444D01*
X11112082Y-2427169D01*
X11339476Y-2472400D01*
X11571324Y-2472400D01*
X11798718Y-2427169D01*
X12012919Y-2338444D01*
X12205694Y-2209636D01*
X12369636Y-2045694D01*
X12498444Y-1852919D01*
X12587169Y-1638718D01*
X12632400Y-1411324D01*
X12632400Y-1179476D01*
X12587169Y-952082D01*
X12498444Y-737881D01*
X12369636Y-545106D01*
X12205694Y-381164D01*
X12012919Y-252356D01*
X11798718Y-163631D01*
X11571324Y-118400D01*
X11339476Y-118400D01*
X11112082Y-163631D01*
X10897881Y-252356D01*
X10705106Y-381164D01*
X10541164Y-545106D01*
X10412356Y-737881D01*
X10323631Y-952082D01*
X10278400Y-1179476D01*
X10092400Y-1179476D01*
X10047169Y-952082D01*
X9958444Y-737881D01*
X9829636Y-545106D01*
X9665694Y-381164D01*
X9472919Y-252356D01*
X9258718Y-163631D01*
X9031324Y-118400D01*
X8799476Y-118400D01*
X8572082Y-163631D01*
X8357881Y-252356D01*
X8165106Y-381164D01*
X8001164Y-545106D01*
X7872356Y-737881D01*
X7783631Y-952082D01*
X7738400Y-1179476D01*
X7552400Y-1179476D01*
X7507169Y-952082D01*
X7418444Y-737881D01*
X7289636Y-545106D01*
X7125694Y-381164D01*
X6932919Y-252356D01*
X6718718Y-163631D01*
X6491324Y-118400D01*
X6259476Y-118400D01*
X6032082Y-163631D01*
X5817881Y-252356D01*
X5625106Y-381164D01*
X5461164Y-545106D01*
X5332356Y-737881D01*
X5243631Y-952082D01*
X5198400Y-1179476D01*
X5012400Y-1179476D01*
X4967169Y-952082D01*
X4878444Y-737881D01*
X4749636Y-545106D01*
X4585694Y-381164D01*
X4392919Y-252356D01*
X4178718Y-163631D01*
X3951324Y-118400D01*
X3719476Y-118400D01*
X3492082Y-163631D01*
X3277881Y-252356D01*
X3085106Y-381164D01*
X2921164Y-545106D01*
X2792356Y-737881D01*
X2703631Y-952082D01*
X2658400Y-1179476D01*
X2472400Y-1179476D01*
X2427169Y-952082D01*
X2338444Y-737881D01*
X2209636Y-545106D01*
X2045694Y-381164D01*
X1852919Y-252356D01*
X1638718Y-163631D01*
X1411324Y-118400D01*
X1179476Y-118400D01*
X952082Y-163631D01*
X737881Y-252356D01*
X545106Y-381164D01*
X381164Y-545106D01*
X252356Y-737881D01*
X163631Y-952082D01*
X118400Y-1179476D01*
X-2607600Y-1179476D01*
X-2652831Y-952082D01*
X-2741556Y-737881D01*
X-2870364Y-545106D01*
X-3034306Y-381164D01*
X-3227081Y-252356D01*
X-3441282Y-163631D01*
X-3668676Y-118400D01*
X-3900524Y-118400D01*
X-4127918Y-163631D01*
X-4342119Y-252356D01*
X-4534894Y-381164D01*
X-4698836Y-545106D01*
X-4827644Y-737881D01*
X-4916369Y-952082D01*
X-4961600Y-1179476D01*
X-7687600Y-1179476D01*
X-7732831Y-952082D01*
X-7821556Y-737881D01*
X-7950364Y-545106D01*
X-8114306Y-381164D01*
X-8307081Y-252356D01*
X-8521282Y-163631D01*
X-8748676Y-118400D01*
X-8980524Y-118400D01*
X-9207918Y-163631D01*
X-9422119Y-252356D01*
X-9614894Y-381164D01*
X-9778836Y-545106D01*
X-9907644Y-737881D01*
X-9996369Y-952082D01*
X-10041600Y-1179476D01*
X-10226018Y-1179476D01*
X-10226018Y-445400D01*
X-10232332Y-381297D01*
X-10251030Y-319657D01*
X-10281394Y-262850D01*
X-10322257Y-213057D01*
X-10372050Y-172194D01*
X-10428857Y-141830D01*
X-10490497Y-123132D01*
X-10554600Y-116818D01*
X-12254600Y-116818D01*
X-12318703Y-123132D01*
X-12380343Y-141830D01*
X-12437150Y-172194D01*
X-12441040Y-175386D01*
X-12441040Y677197D01*
X-12318836Y494306D01*
X-12154894Y330364D01*
X-11962119Y201556D01*
X-11747918Y112831D01*
X-11520524Y67600D01*
X-11288676Y67600D01*
X-11061282Y112831D01*
X-10847081Y201556D01*
X-10654306Y330364D01*
X-10490364Y494306D01*
X-10361556Y687081D01*
X-10272831Y901282D01*
X-10227600Y1128676D01*
X-10227600Y1360524D01*
X-10272831Y1587918D01*
X-10361556Y1802119D01*
X-10490364Y1994894D01*
X-10654306Y2158836D01*
X-10847081Y2287644D01*
X-10990572Y2347080D01*
X-9278628Y2347080D01*
X-9422119Y2287644D01*
X-9614894Y2158836D01*
X-9778836Y1994894D01*
X-9907644Y1802119D01*
X-9996369Y1587918D01*
X-10041600Y1360524D01*
X-10041600Y1128676D01*
X-9996369Y901282D01*
X-9907644Y687081D01*
X-9778836Y494306D01*
X-9614894Y330364D01*
X-9422119Y201556D01*
X-9207918Y112831D01*
X-8980524Y67600D01*
X-8748676Y67600D01*
X-8521282Y112831D01*
X-8307081Y201556D01*
X-8114306Y330364D01*
X-7950364Y494306D01*
X-7821556Y687081D01*
X-7732831Y901282D01*
X-7687600Y1128676D01*
X-7687600Y1360524D01*
X-7732831Y1587918D01*
X-7821556Y1802119D01*
X-7950364Y1994894D01*
X-8114306Y2158836D01*
X-8305920Y2286868D01*
X-8305920Y2776875D01*
X-8303929Y2797090D01*
X-6656360Y2797090D01*
X-6604001Y2791933D01*
X-6581796Y2794120D01*
X-6516903Y2794120D01*
X-6202560Y2479775D01*
X-6202560Y2420383D01*
X-6208676Y2421600D01*
X-6440524Y2421600D01*
X-6667918Y2376369D01*
X-6882119Y2287644D01*
X-7074894Y2158836D01*
X-7238836Y1994894D01*
X-7367644Y1802119D01*
X-7456369Y1587918D01*
X-7501600Y1360524D01*
X-7501600Y1128676D01*
X-7456369Y901282D01*
X-7367644Y687081D01*
X-7238836Y494306D01*
X-7074894Y330364D01*
X-6882119Y201556D01*
X-6667918Y112831D01*
X-6440524Y67600D01*
X-6208676Y67600D01*
X-5981282Y112831D01*
X-5767081Y201556D01*
X-5574306Y330364D01*
X-5410364Y494306D01*
X-5281556Y687081D01*
X-5192831Y901282D01*
X-5147600Y1128676D01*
X-5147600Y1360524D01*
X-5192831Y1587918D01*
X-5281556Y1802119D01*
X-5297026Y1825272D01*
X-5298560Y1840844D01*
X-5298560Y2644796D01*
X-5296373Y2667001D01*
X-5305100Y2755608D01*
X-5314610Y2786957D01*
X-5330946Y2840810D01*
X-5372917Y2919333D01*
X-5429401Y2988159D01*
X-5446649Y3002314D01*
X-5994357Y3550020D01*
X-6008521Y3567279D01*
X-6077347Y3623763D01*
X-6155870Y3665734D01*
X-6241073Y3691580D01*
X-6307475Y3698120D01*
X-6329680Y3700307D01*
X-6351885Y3698120D01*
X-6554610Y3698120D01*
X-6584765Y3701090D01*
X-6606970Y3703277D01*
X-6629175Y3701090D01*
X-11802478Y3701090D01*
X-11824681Y3703277D01*
X-11846884Y3701090D01*
X-11846885Y3701090D01*
X-11913287Y3694550D01*
X-11998490Y3668704D01*
X-12077013Y3626733D01*
X-12145839Y3570249D01*
X-12159995Y3553000D01*
X-12632678Y3080315D01*
X-12632682Y3080312D01*
X-12707432Y3005561D01*
X-12707436Y3005558D01*
X-13646953Y2066040D01*
X-13664207Y2051880D01*
X-13710240Y1995788D01*
X-13720691Y1983054D01*
X-13762663Y1904530D01*
X-13788509Y1819328D01*
X-13797236Y1730721D01*
X-13795048Y1708506D01*
X-13795049Y87000D01*
X-19598000Y87000D01*
X-19598000Y1980342D01*
X-19564369Y2323340D01*
X-18223740Y2323340D01*
X-18223740Y2101340D01*
X-18180430Y1883606D01*
X-18095474Y1678505D01*
X-17972138Y1493919D01*
X-17815161Y1336942D01*
X-17630575Y1213606D01*
X-17425474Y1128650D01*
X-17207740Y1085340D01*
X-16985740Y1085340D01*
X-16768006Y1128650D01*
X-16562905Y1213606D01*
X-16378319Y1336942D01*
X-16221342Y1493919D01*
X-16098006Y1678505D01*
X-16013050Y1883606D01*
X-15969740Y2101340D01*
X-15969740Y2323340D01*
X-16013050Y2541074D01*
X-16098006Y2746175D01*
X-16221342Y2930761D01*
X-16378319Y3087738D01*
X-16562905Y3211074D01*
X-16768006Y3296030D01*
X-16985740Y3339340D01*
X-17207740Y3339340D01*
X-17425474Y3296030D01*
X-17630575Y3211074D01*
X-17815161Y3087738D01*
X-17972138Y2930761D01*
X-18095474Y2746175D01*
X-18180430Y2541074D01*
X-18223740Y2323340D01*
X-19564369Y2323340D01*
X-19546631Y2504242D01*
X-19400188Y2989286D01*
X-19162326Y3436642D01*
X-18842096Y3829282D01*
X-18451706Y4152241D01*
X-18006020Y4393222D01*
X-17522013Y4543048D01*
X-16999180Y4598000D01*
X-1467289Y4598000D01*
X-1598939Y4466351D01*
G04 #@! TA.AperFunction,Conductor*
D27*
G36*
X-1598939Y4466351D02*
G01*
X-1619047Y4449848D01*
X-1672302Y4384956D01*
X-1684904Y4369601D01*
X-1733839Y4278049D01*
X-1763974Y4178709D01*
X-1774149Y4075400D01*
X-1771599Y4049509D01*
X-1771600Y2300286D01*
X-1802119Y2287644D01*
X-1994894Y2158836D01*
X-2158836Y1994894D01*
X-2287644Y1802119D01*
X-2376369Y1587918D01*
X-2421600Y1360524D01*
X-2421600Y1128676D01*
X-2376369Y901282D01*
X-2287644Y687081D01*
X-2158836Y494306D01*
X-1994894Y330364D01*
X-1802119Y201556D01*
X-1587918Y112831D01*
X-1360524Y67600D01*
X-1128676Y67600D01*
X-901282Y112831D01*
X-687081Y201556D01*
X-494306Y330364D01*
X-330364Y494306D01*
X-201556Y687081D01*
X-112831Y901282D01*
X-67600Y1128676D01*
X-67600Y1360524D01*
X118400Y1360524D01*
X118400Y1128676D01*
X163631Y901282D01*
X252356Y687081D01*
X381164Y494306D01*
X545106Y330364D01*
X737881Y201556D01*
X952082Y112831D01*
X1179476Y67600D01*
X1411324Y67600D01*
X1638718Y112831D01*
X1852919Y201556D01*
X2045694Y330364D01*
X2209636Y494306D01*
X2338444Y687081D01*
X2427169Y901282D01*
X2472400Y1128676D01*
X2472400Y1360524D01*
X2427169Y1587918D01*
X2338444Y1802119D01*
X2209636Y1994894D01*
X2045694Y2158836D01*
X1852919Y2287644D01*
X1638718Y2376369D01*
X1411324Y2421600D01*
X1179476Y2421600D01*
X952082Y2376369D01*
X737881Y2287644D01*
X545106Y2158836D01*
X381164Y1994894D01*
X252356Y1802119D01*
X163631Y1587918D01*
X118400Y1360524D01*
X-67600Y1360524D01*
X-112831Y1587918D01*
X-201556Y1802119D01*
X-330364Y1994894D01*
X-494306Y2158836D01*
X-687081Y2287644D01*
X-717600Y2300285D01*
X-717600Y3857111D01*
X-576720Y3997990D01*
X4027720Y3997990D01*
X3481062Y3451331D01*
X3460953Y3434828D01*
X3415636Y3379609D01*
X3395096Y3354581D01*
X3346161Y3263029D01*
X3316026Y3163689D01*
X3305851Y3060380D01*
X3308401Y3034490D01*
X3308401Y2300286D01*
X3277881Y2287644D01*
X3085106Y2158836D01*
X2921164Y1994894D01*
X2792356Y1802119D01*
X2703631Y1587918D01*
X2658400Y1360524D01*
X2658400Y1128676D01*
X2703631Y901282D01*
X2792356Y687081D01*
X2921164Y494306D01*
X3085106Y330364D01*
X3277881Y201556D01*
X3492082Y112831D01*
X3719476Y67600D01*
X3951324Y67600D01*
X4178718Y112831D01*
X4392919Y201556D01*
X4585694Y330364D01*
X4749636Y494306D01*
X4878444Y687081D01*
X4967169Y901282D01*
X5012400Y1128676D01*
X5012400Y1360524D01*
X5198400Y1360524D01*
X5198400Y1128676D01*
X5243631Y901282D01*
X5332356Y687081D01*
X5461164Y494306D01*
X5625106Y330364D01*
X5817881Y201556D01*
X6032082Y112831D01*
X6259476Y67600D01*
X6491324Y67600D01*
X6718718Y112831D01*
X6932919Y201556D01*
X7125694Y330364D01*
X7289636Y494306D01*
X7418444Y687081D01*
X7507169Y901282D01*
X7552400Y1128676D01*
X7552400Y1360524D01*
X7507169Y1587918D01*
X7418444Y1802119D01*
X7289636Y1994894D01*
X7125694Y2158836D01*
X6932919Y2287644D01*
X6718718Y2376369D01*
X6491324Y2421600D01*
X6259476Y2421600D01*
X6032082Y2376369D01*
X5817881Y2287644D01*
X5625106Y2158836D01*
X5461164Y1994894D01*
X5332356Y1802119D01*
X5243631Y1587918D01*
X5198400Y1360524D01*
X5012400Y1360524D01*
X4967169Y1587918D01*
X4878444Y1802119D01*
X4749636Y1994894D01*
X4585694Y2158836D01*
X4392919Y2287644D01*
X4362400Y2300285D01*
X4362400Y2842091D01*
X4918290Y3397980D01*
X8677721Y3397980D01*
X8561061Y3281321D01*
X8540953Y3264818D01*
X8487090Y3199186D01*
X8475096Y3184571D01*
X8426161Y3093019D01*
X8396026Y2993679D01*
X8385851Y2890370D01*
X8388401Y2864480D01*
X8388401Y2300286D01*
X8357881Y2287644D01*
X8165106Y2158836D01*
X8001164Y1994894D01*
X7872356Y1802119D01*
X7783631Y1587918D01*
X7738400Y1360524D01*
X7738400Y1128676D01*
X7783631Y901282D01*
X7872356Y687081D01*
X8001164Y494306D01*
X8165106Y330364D01*
X8357881Y201556D01*
X8572082Y112831D01*
X8799476Y67600D01*
X9031324Y67600D01*
X9258718Y112831D01*
X9472919Y201556D01*
X9665694Y330364D01*
X9829636Y494306D01*
X9958444Y687081D01*
X10047169Y901282D01*
X10092400Y1128676D01*
X10092400Y1360524D01*
X10278400Y1360524D01*
X10278400Y1128676D01*
X10323631Y901282D01*
X10412356Y687081D01*
X10541164Y494306D01*
X10705106Y330364D01*
X10897881Y201556D01*
X11112082Y112831D01*
X11339476Y67600D01*
X11571324Y67600D01*
X11798718Y112831D01*
X12012919Y201556D01*
X12205694Y330364D01*
X12369636Y494306D01*
X12498444Y687081D01*
X12587169Y901282D01*
X12632400Y1128676D01*
X12632400Y1360524D01*
X12587169Y1587918D01*
X12498444Y1802119D01*
X12369636Y1994894D01*
X12205694Y2158836D01*
X12012919Y2287644D01*
X11798718Y2376369D01*
X11571324Y2421600D01*
X11339476Y2421600D01*
X11112082Y2376369D01*
X10897881Y2287644D01*
X10705106Y2158836D01*
X10541164Y1994894D01*
X10412356Y1802119D01*
X10323631Y1587918D01*
X10278400Y1360524D01*
X10092400Y1360524D01*
X10047169Y1587918D01*
X9958444Y1802119D01*
X9829636Y1994894D01*
X9665694Y2158836D01*
X9472919Y2287644D01*
X9442400Y2300285D01*
X9442400Y2672081D01*
X9568290Y2797970D01*
X16349657Y2797970D01*
X17322980Y1824646D01*
X17322981Y-8303112D01*
X17294918Y-8305876D01*
X17246690Y-8310626D01*
X17147350Y-8340761D01*
X17055798Y-8389696D01*
X16975552Y-8455552D01*
X16959049Y-8475661D01*
X16615661Y-8819050D01*
X16615656Y-8819054D01*
X16345666Y-9089045D01*
X16325552Y-9105552D01*
X16259696Y-9185798D01*
X16214528Y-9270304D01*
X16210761Y-9277351D01*
X16180626Y-9376691D01*
X16170451Y-9480000D01*
X16173000Y-9505881D01*
X16173001Y-12468865D01*
X16145302Y-12496564D01*
X16065741Y-12615636D01*
X16010938Y-12747942D01*
X15983000Y-12888397D01*
X15983000Y-13031603D01*
X16010938Y-13172058D01*
X16065741Y-13304364D01*
X16145302Y-13423436D01*
X16246564Y-13524698D01*
X16365636Y-13604259D01*
X16463795Y-13644918D01*
X16287143Y-13821570D01*
X16238036Y-13847818D01*
X16157790Y-13913674D01*
X16141286Y-13933784D01*
X15965676Y-14109395D01*
X15945562Y-14125902D01*
X15879706Y-14206148D01*
X15849543Y-14262580D01*
X15830771Y-14297701D01*
X15800636Y-14397041D01*
X15790461Y-14500350D01*
X15793010Y-14526231D01*
X15793011Y-15239783D01*
X15753647Y-15313429D01*
X15746441Y-15326911D01*
X15716306Y-15426251D01*
X15706131Y-15529560D01*
X15708680Y-15555441D01*
X15708681Y-22610589D01*
X15706131Y-22636480D01*
X15716306Y-22739789D01*
X15746441Y-22839129D01*
X15795376Y-22930681D01*
X15795377Y-22930682D01*
X15861233Y-23010928D01*
X15881342Y-23027431D01*
X17048583Y-24194673D01*
X17002540Y-24190138D01*
X15402540Y-24190138D01*
X15338437Y-24196452D01*
X15276797Y-24215150D01*
X15219990Y-24245514D01*
X15170197Y-24286377D01*
X15129334Y-24336170D01*
X15098970Y-24392977D01*
X15080272Y-24454617D01*
X15073958Y-24518720D01*
X15073958Y-26118720D01*
X15080272Y-26182823D01*
X15098970Y-26244463D01*
X15129334Y-26301270D01*
X15170197Y-26351063D01*
X15219990Y-26391926D01*
X15276797Y-26422290D01*
X15338437Y-26440988D01*
X15402540Y-26447302D01*
X17002540Y-26447302D01*
X17066643Y-26440988D01*
X17128283Y-26422290D01*
X17185090Y-26391926D01*
X17234883Y-26351063D01*
X17275746Y-26301270D01*
X17306110Y-26244463D01*
X17324808Y-26182823D01*
X17331122Y-26118720D01*
X17331122Y-24518720D01*
X17326587Y-24472678D01*
X17507000Y-24653091D01*
X17507001Y-35174068D01*
X15972786Y-36708285D01*
X15952672Y-36724792D01*
X15886816Y-36805038D01*
X15871097Y-36834447D01*
X15837881Y-36896591D01*
X15807746Y-36995931D01*
X15797571Y-37099240D01*
X15800120Y-37125121D01*
X15800121Y-41291560D01*
X13645361Y-41291560D01*
X13619480Y-41289011D01*
X13593599Y-41291560D01*
X13516170Y-41299186D01*
X13416830Y-41329321D01*
X13325278Y-41378256D01*
X13245032Y-41444112D01*
X13228533Y-41464216D01*
X12624713Y-42068038D01*
X12632780Y-42027479D01*
X12632780Y-41894121D01*
X12606764Y-41763326D01*
X12555730Y-41640120D01*
X12481640Y-41529237D01*
X12387343Y-41434940D01*
X12276460Y-41360850D01*
X12153254Y-41309816D01*
X12078815Y-41295010D01*
X12059090Y-41289026D01*
X12038574Y-41287005D01*
X12022459Y-41283800D01*
X12006029Y-41283800D01*
X11955780Y-41278851D01*
X11905532Y-41283800D01*
X11889101Y-41283800D01*
X11872985Y-41287006D01*
X11852471Y-41289026D01*
X11832748Y-41295009D01*
X11758306Y-41309816D01*
X11635100Y-41360850D01*
X11524217Y-41434940D01*
X11429920Y-41529237D01*
X11355830Y-41640120D01*
X11304796Y-41763326D01*
X11278780Y-41894121D01*
X11278780Y-42027479D01*
X11304796Y-42158274D01*
X11342434Y-42249140D01*
X10935180Y-42249140D01*
X10909299Y-42246591D01*
X10823900Y-42255002D01*
X10805990Y-42256766D01*
X10706650Y-42286901D01*
X10615098Y-42335836D01*
X10534852Y-42401692D01*
X10518345Y-42421806D01*
X10255246Y-42684905D01*
X10235132Y-42701412D01*
X10169276Y-42781658D01*
X10120342Y-42873210D01*
X10120341Y-42873211D01*
X10090206Y-42972551D01*
X10080031Y-43075860D01*
X10082580Y-43101741D01*
X10082581Y-47306745D01*
X10044882Y-47344444D01*
X9965321Y-47463516D01*
X9910518Y-47595822D01*
X9882580Y-47736277D01*
X9882580Y-47879483D01*
X9910518Y-48019938D01*
X9965321Y-48152244D01*
X10044882Y-48271316D01*
X10146144Y-48372578D01*
X10265216Y-48452139D01*
X10397522Y-48506942D01*
X10537977Y-48534880D01*
X10681183Y-48534880D01*
X10821638Y-48506942D01*
X10953944Y-48452139D01*
X11073016Y-48372578D01*
X11174278Y-48271316D01*
X11253839Y-48152244D01*
X11308642Y-48019938D01*
X11336580Y-47879483D01*
X11336580Y-47736277D01*
X11308642Y-47595822D01*
X11253839Y-47463516D01*
X11174278Y-47344444D01*
X11136580Y-47306746D01*
X11136580Y-43303140D01*
X12636019Y-43303140D01*
X12661900Y-43305689D01*
X12687781Y-43303140D01*
X12765210Y-43295514D01*
X12864550Y-43265379D01*
X12956102Y-43216444D01*
X13036348Y-43150588D01*
X13052855Y-43130474D01*
X13837771Y-42345560D01*
X16181965Y-42345560D01*
X16223811Y-42358254D01*
X16327120Y-42368429D01*
X16430430Y-42358254D01*
X16529770Y-42328119D01*
X16621322Y-42279184D01*
X16701568Y-42213328D01*
X16767424Y-42133082D01*
X16816359Y-42041530D01*
X16846494Y-41942190D01*
X16854120Y-41864761D01*
X16856669Y-41838880D01*
X16854120Y-41812999D01*
X16854120Y-37317529D01*
X18388344Y-35783307D01*
X18408448Y-35766808D01*
X18474304Y-35686562D01*
X18523239Y-35595010D01*
X18553374Y-35495670D01*
X18561000Y-35418241D01*
X18563549Y-35392360D01*
X18561000Y-35366479D01*
X18561000Y-24460681D01*
X18563549Y-24434800D01*
X18553374Y-24331490D01*
X18548429Y-24315188D01*
X18523239Y-24232150D01*
X18474304Y-24140598D01*
X18408448Y-24060352D01*
X18388344Y-24043853D01*
X16762680Y-22418191D01*
X16762680Y-15735005D01*
X16809249Y-15647880D01*
X16839384Y-15548540D01*
X16847010Y-15471111D01*
X16849559Y-15445230D01*
X16847010Y-15419349D01*
X16847010Y-14735413D01*
X16860082Y-14728426D01*
X16940328Y-14662570D01*
X16956835Y-14642456D01*
X18228301Y-13370991D01*
X18248410Y-13354488D01*
X18314266Y-13274242D01*
X18363201Y-13182690D01*
X18393336Y-13083350D01*
X18400962Y-13005921D01*
X18400962Y-13005919D01*
X18403511Y-12980041D01*
X18400962Y-12954163D01*
X18400962Y-11968329D01*
X19214345Y-11154948D01*
X19234449Y-11138449D01*
X19300305Y-11058203D01*
X19325817Y-11010472D01*
X19404334Y-10931955D01*
X19424448Y-10915448D01*
X19490304Y-10835202D01*
X19539239Y-10743650D01*
X19569374Y-10644310D01*
X19577000Y-10566881D01*
X19579549Y-10541001D01*
X19577000Y-10515120D01*
X19577000Y2198982D01*
X19598000Y1999180D01*
X19598000Y1999173D01*
X19598001Y-55349730D01*
X19390062Y-55038527D01*
X18961473Y-54609938D01*
X18457506Y-54273198D01*
X17897528Y-54041248D01*
X17303058Y-53923000D01*
X16696942Y-53923000D01*
X16102472Y-54041248D01*
X15542494Y-54273198D01*
X15038527Y-54609938D01*
X14609938Y-55038527D01*
X14273198Y-55542494D01*
X14041248Y-56102472D01*
X13923000Y-56696942D01*
X13923000Y-57303058D01*
X14041248Y-57897528D01*
X14273198Y-58457506D01*
X14609938Y-58961473D01*
X15038527Y-59390062D01*
X15349728Y-59598000D01*
X-12458393Y-59598000D01*
X-12430325Y-59586374D01*
X-12245739Y-59463038D01*
X-12088762Y-59306061D01*
X-11965426Y-59121475D01*
X-11880470Y-58916374D01*
X-11837160Y-58698640D01*
X-11837160Y-58476640D01*
X-11880470Y-58258906D01*
X-11965426Y-58053805D01*
X-12088762Y-57869219D01*
X-12245739Y-57712242D01*
X-12430325Y-57588906D01*
X-12635426Y-57503950D01*
X-12853160Y-57460640D01*
X-13075160Y-57460640D01*
X-13292894Y-57503950D01*
X-13497995Y-57588906D01*
X-13682581Y-57712242D01*
X-13839558Y-57869219D01*
X-13962894Y-58053805D01*
X-14047850Y-58258906D01*
X-14091160Y-58476640D01*
X-14091160Y-58698640D01*
X-14047850Y-58916374D01*
X-13962894Y-59121475D01*
X-13839558Y-59306061D01*
X-13682581Y-59463038D01*
X-13497995Y-59586374D01*
X-13469927Y-59598000D01*
X-15349728Y-59598000D01*
X-15038527Y-59390062D01*
X-14609938Y-58961473D01*
X-14273198Y-58457506D01*
X-14041248Y-57897528D01*
X-13923000Y-57303058D01*
X-13923000Y-57232040D01*
X10904980Y-57232040D01*
X10904980Y-57454040D01*
X10948290Y-57671774D01*
X11033246Y-57876875D01*
X11156582Y-58061461D01*
X11313559Y-58218438D01*
X11498145Y-58341774D01*
X11703246Y-58426730D01*
X11920980Y-58470040D01*
X12142980Y-58470040D01*
X12360714Y-58426730D01*
X12565815Y-58341774D01*
X12750401Y-58218438D01*
X12907378Y-58061461D01*
X13030714Y-57876875D01*
X13115670Y-57671774D01*
X13158980Y-57454040D01*
X13158980Y-57232040D01*
X13115670Y-57014306D01*
X13030714Y-56809205D01*
X12907378Y-56624619D01*
X12750401Y-56467642D01*
X12565815Y-56344306D01*
X12360714Y-56259350D01*
X12142980Y-56216040D01*
X11920980Y-56216040D01*
X11703246Y-56259350D01*
X11498145Y-56344306D01*
X11313559Y-56467642D01*
X11156582Y-56624619D01*
X11033246Y-56809205D01*
X10948290Y-57014306D01*
X10904980Y-57232040D01*
X-13923000Y-57232040D01*
X-13923000Y-56696942D01*
X-14041248Y-56102472D01*
X-14273198Y-55542494D01*
X-14609938Y-55038527D01*
X-15038527Y-54609938D01*
X-15542494Y-54273198D01*
X-16102472Y-54041248D01*
X-16696942Y-53923000D01*
X-17303058Y-53923000D01*
X-17897528Y-54041248D01*
X-18457506Y-54273198D01*
X-18961473Y-54609938D01*
X-19390062Y-55038527D01*
X-19598000Y-55349728D01*
X-19598000Y-28367000D01*
X-13332290Y-28367000D01*
X-14148289Y-29183000D01*
X-17524119Y-29183000D01*
X-17550000Y-29180451D01*
X-17575881Y-29183000D01*
X-17653310Y-29190626D01*
X-17752650Y-29220761D01*
X-17844202Y-29269696D01*
X-17924448Y-29335552D01*
X-17990304Y-29415798D01*
X-18039239Y-29507350D01*
X-18069374Y-29606690D01*
X-18079549Y-29710000D01*
X-18077000Y-29735881D01*
X-18076999Y-35601709D01*
X-18544334Y-36069045D01*
X-18564448Y-36085552D01*
X-18630304Y-36165798D01*
X-18634872Y-36174345D01*
X-18679239Y-36257351D01*
X-18709374Y-36356691D01*
X-18719549Y-36460000D01*
X-18717000Y-36485881D01*
X-18716999Y-50308229D01*
X-18719549Y-50334120D01*
X-18709374Y-50437429D01*
X-18679239Y-50536769D01*
X-18630304Y-50628321D01*
X-18630303Y-50628322D01*
X-18564447Y-50708568D01*
X-18544339Y-50725070D01*
X-18494444Y-50774965D01*
X-18531880Y-50963165D01*
X-18531880Y-51175315D01*
X-18490491Y-51383389D01*
X-18409305Y-51579391D01*
X-18291440Y-51755787D01*
X-18141427Y-51905800D01*
X-17981879Y-52012407D01*
X-17981879Y-52422570D01*
X-17984429Y-52448460D01*
X-17974254Y-52551769D01*
X-17944119Y-52651109D01*
X-17944118Y-52651110D01*
X-17932960Y-52671985D01*
X-17932960Y-52768983D01*
X-17905022Y-52909438D01*
X-17850219Y-53041744D01*
X-17770658Y-53160816D01*
X-17669396Y-53262078D01*
X-17550324Y-53341639D01*
X-17418018Y-53396442D01*
X-17277563Y-53424380D01*
X-17134357Y-53424380D01*
X-16993902Y-53396442D01*
X-16861596Y-53341639D01*
X-16742524Y-53262078D01*
X-16641262Y-53160816D01*
X-16561701Y-53041744D01*
X-16506898Y-52909438D01*
X-16478960Y-52768983D01*
X-16478960Y-52625777D01*
X-16506898Y-52485322D01*
X-16561701Y-52353016D01*
X-16641262Y-52233944D01*
X-16742524Y-52132682D01*
X-16861596Y-52053121D01*
X-16927880Y-52025665D01*
X-16927880Y-52012407D01*
X-16768333Y-51905800D01*
X-16618320Y-51755787D01*
X-16500455Y-51579391D01*
X-16419269Y-51383389D01*
X-16377880Y-51175315D01*
X-16377880Y-50963165D01*
X-16419269Y-50755091D01*
X-16500455Y-50559089D01*
X-16618320Y-50382693D01*
X-16768333Y-50232680D01*
X-16944729Y-50114815D01*
X-17140731Y-50033629D01*
X-17348805Y-49992240D01*
X-17560955Y-49992240D01*
X-17663000Y-50012538D01*
X-17663000Y-49891285D01*
X-12847360Y-49891285D01*
X-12847360Y-50103435D01*
X-12805971Y-50311509D01*
X-12724785Y-50507511D01*
X-12606920Y-50683907D01*
X-12456907Y-50833920D01*
X-12280511Y-50951785D01*
X-12217279Y-50977976D01*
X-12217280Y-53893757D01*
X-12291140Y-53967617D01*
X-12365230Y-54078500D01*
X-12416264Y-54201706D01*
X-12442280Y-54332501D01*
X-12442280Y-54465859D01*
X-12416264Y-54596654D01*
X-12365230Y-54719860D01*
X-12291140Y-54830743D01*
X-12196843Y-54925040D01*
X-12085960Y-54999130D01*
X-11962754Y-55050164D01*
X-11831959Y-55076180D01*
X-11698601Y-55076180D01*
X-11567806Y-55050164D01*
X-11444600Y-54999130D01*
X-11333717Y-54925040D01*
X-11239420Y-54830743D01*
X-11165330Y-54719860D01*
X-11114296Y-54596654D01*
X-11088280Y-54465859D01*
X-11088280Y-54332501D01*
X-11114296Y-54201706D01*
X-11165330Y-54078500D01*
X-11239420Y-53967617D01*
X-11313280Y-53893757D01*
X-11313280Y-51405125D01*
X-11226840Y-51405125D01*
X-11226840Y-51617275D01*
X-11185451Y-51825349D01*
X-11104265Y-52021351D01*
X-10986400Y-52197747D01*
X-10836387Y-52347760D01*
X-10659991Y-52465625D01*
X-10463989Y-52546811D01*
X-10255915Y-52588200D01*
X-10043765Y-52588200D01*
X-9835691Y-52546811D01*
X-9639689Y-52465625D01*
X-9463293Y-52347760D01*
X-9313280Y-52197747D01*
X-9195415Y-52021351D01*
X-9114229Y-51825349D01*
X-9072840Y-51617275D01*
X-9072840Y-51405125D01*
X-9114229Y-51197051D01*
X-9138316Y-51138900D01*
X-8938390Y-50938975D01*
X-8923211Y-50926517D01*
X-5169460Y-50926517D01*
X-5169460Y-51069723D01*
X-5141522Y-51210178D01*
X-5086719Y-51342484D01*
X-5007158Y-51461556D01*
X-4905896Y-51562818D01*
X-4786824Y-51642379D01*
X-4654518Y-51697182D01*
X-4514063Y-51725120D01*
X-4370857Y-51725120D01*
X-4230402Y-51697182D01*
X-4098096Y-51642379D01*
X-3979024Y-51562818D01*
X-3877762Y-51461556D01*
X-3870121Y-51450120D01*
X-2672728Y-51450120D01*
X-2665360Y-51461147D01*
X-2515347Y-51611160D01*
X-2338951Y-51729025D01*
X-2142949Y-51810211D01*
X-1934875Y-51851600D01*
X-1722725Y-51851600D01*
X-1514651Y-51810211D01*
X-1318649Y-51729025D01*
X-1142253Y-51611160D01*
X-992240Y-51461147D01*
X-874375Y-51284751D01*
X-793189Y-51088749D01*
X-751800Y-50880675D01*
X-751800Y-50668525D01*
X-793189Y-50460451D01*
X-874375Y-50264449D01*
X-992240Y-50088053D01*
X-1142253Y-49938040D01*
X-1318649Y-49820175D01*
X-1514651Y-49738989D01*
X-1722725Y-49697600D01*
X-1934875Y-49697600D01*
X-2142949Y-49738989D01*
X-2338951Y-49820175D01*
X-2515347Y-49938040D01*
X-2665360Y-50088053D01*
X-2783225Y-50264449D01*
X-2864411Y-50460451D01*
X-2881452Y-50546120D01*
X-3870121Y-50546120D01*
X-3877762Y-50534684D01*
X-3979024Y-50433422D01*
X-4098096Y-50353861D01*
X-4190765Y-50315476D01*
X-4082856Y-50270779D01*
X-3963784Y-50191218D01*
X-3862522Y-50089956D01*
X-3782961Y-49970884D01*
X-3728158Y-49838578D01*
X-3700220Y-49698123D01*
X-3700220Y-49554917D01*
X-3702903Y-49541428D01*
X-3544189Y-49382714D01*
X-3526941Y-49368559D01*
X-3470457Y-49299733D01*
X-3447567Y-49256908D01*
X-3356240Y-49393587D01*
X-3206227Y-49543600D01*
X-3029831Y-49661465D01*
X-2833829Y-49742651D01*
X-2625755Y-49784040D01*
X-2413605Y-49784040D01*
X-2205531Y-49742651D01*
X-2009529Y-49661465D01*
X-1833133Y-49543600D01*
X-1683120Y-49393587D01*
X-1565255Y-49217191D01*
X-1484069Y-49021189D01*
X-1442680Y-48813115D01*
X-1442680Y-48600965D01*
X-1484069Y-48392891D01*
X-1565255Y-48196889D01*
X-1683120Y-48020493D01*
X-1833133Y-47870480D01*
X-2009529Y-47752615D01*
X-2205531Y-47671429D01*
X-2413605Y-47630040D01*
X-2625755Y-47630040D01*
X-2833829Y-47671429D01*
X-3029831Y-47752615D01*
X-3206227Y-47870480D01*
X-3356240Y-48020493D01*
X-3474105Y-48196889D01*
X-3498192Y-48255040D01*
X-3615075Y-48255040D01*
X-3637280Y-48252853D01*
X-3725888Y-48261580D01*
X-3800119Y-48284098D01*
X-3811090Y-48287426D01*
X-3889613Y-48329397D01*
X-3958439Y-48385881D01*
X-3972603Y-48403140D01*
X-4152001Y-48582538D01*
X-4169259Y-48596701D01*
X-4225743Y-48665527D01*
X-4267714Y-48744050D01*
X-4267714Y-48744051D01*
X-4293560Y-48829253D01*
X-4296224Y-48856299D01*
X-4342128Y-48902203D01*
X-4355617Y-48899520D01*
X-4498823Y-48899520D01*
X-4639278Y-48927458D01*
X-4771584Y-48982261D01*
X-4890656Y-49061822D01*
X-4991918Y-49163084D01*
X-5071479Y-49282156D01*
X-5126282Y-49414462D01*
X-5154220Y-49554917D01*
X-5154220Y-49698123D01*
X-5126282Y-49838578D01*
X-5071479Y-49970884D01*
X-4991918Y-50089956D01*
X-4890656Y-50191218D01*
X-4771584Y-50270779D01*
X-4678915Y-50309164D01*
X-4786824Y-50353861D01*
X-4905896Y-50433422D01*
X-5007158Y-50534684D01*
X-5086719Y-50653756D01*
X-5141522Y-50786062D01*
X-5169460Y-50926517D01*
X-8923211Y-50926517D01*
X-8921141Y-50924819D01*
X-8864657Y-50855993D01*
X-8822686Y-50777470D01*
X-8803765Y-50715096D01*
X-8778864Y-50698458D01*
X-8677602Y-50597196D01*
X-8598041Y-50478124D01*
X-8543238Y-50345818D01*
X-8515300Y-50205363D01*
X-8515300Y-50062157D01*
X-8543238Y-49921702D01*
X-8598041Y-49789396D01*
X-8677602Y-49670324D01*
X-8778864Y-49569062D01*
X-8897936Y-49489501D01*
X-9030242Y-49434698D01*
X-9051246Y-49430520D01*
X-7867470Y-49430520D01*
X-7856331Y-49543631D01*
X-7823336Y-49652396D01*
X-7769758Y-49752634D01*
X-7715717Y-49818484D01*
X-7653681Y-49880520D01*
X-7715717Y-49942556D01*
X-7769758Y-50008406D01*
X-7823336Y-50108644D01*
X-7856331Y-50217409D01*
X-7867470Y-50330520D01*
X-7856331Y-50443631D01*
X-7823336Y-50552396D01*
X-7769758Y-50652634D01*
X-7697654Y-50740494D01*
X-7609794Y-50812598D01*
X-7509556Y-50866176D01*
X-7400791Y-50899171D01*
X-7287680Y-50910310D01*
X-7174569Y-50899171D01*
X-7065804Y-50866176D01*
X-6965566Y-50812598D01*
X-6899716Y-50758557D01*
X-6837680Y-50696522D01*
X-6775645Y-50758557D01*
X-6709795Y-50812598D01*
X-6609557Y-50866176D01*
X-6500792Y-50899170D01*
X-6387681Y-50910310D01*
X-6274569Y-50899170D01*
X-6165804Y-50866176D01*
X-6065567Y-50812598D01*
X-5977706Y-50740494D01*
X-5905602Y-50652633D01*
X-5852024Y-50552396D01*
X-5819030Y-50443631D01*
X-5807890Y-50330519D01*
X-5819030Y-50217408D01*
X-5852024Y-50108643D01*
X-5905602Y-50008405D01*
X-5959643Y-49942555D01*
X-6021678Y-49880520D01*
X-5959643Y-49818485D01*
X-5905602Y-49752635D01*
X-5852024Y-49652397D01*
X-5819030Y-49543632D01*
X-5807890Y-49430521D01*
X-5819030Y-49317409D01*
X-5852024Y-49208644D01*
X-5905602Y-49108407D01*
X-5977706Y-49020546D01*
X-6065567Y-48948442D01*
X-6165804Y-48894864D01*
X-6274569Y-48861870D01*
X-6387681Y-48850730D01*
X-6500792Y-48861870D01*
X-6609557Y-48894864D01*
X-6709795Y-48948442D01*
X-6775645Y-49002483D01*
X-6837680Y-49064518D01*
X-6899716Y-49002483D01*
X-6965566Y-48948442D01*
X-7065804Y-48894864D01*
X-7174569Y-48861869D01*
X-7287680Y-48850730D01*
X-7400791Y-48861869D01*
X-7509556Y-48894864D01*
X-7609794Y-48948442D01*
X-7697654Y-49020546D01*
X-7769758Y-49108406D01*
X-7823336Y-49208644D01*
X-7856331Y-49317409D01*
X-7867470Y-49430520D01*
X-9051246Y-49430520D01*
X-9170697Y-49406760D01*
X-9313903Y-49406760D01*
X-9454358Y-49434698D01*
X-9586664Y-49489501D01*
X-9705736Y-49569062D01*
X-9806998Y-49670324D01*
X-9886559Y-49789396D01*
X-9941362Y-49921702D01*
X-9969300Y-50062157D01*
X-9969300Y-50205363D01*
X-9941362Y-50345818D01*
X-9892271Y-50464334D01*
X-10043765Y-50434200D01*
X-10255915Y-50434200D01*
X-10463989Y-50475589D01*
X-10659991Y-50556775D01*
X-10836387Y-50674640D01*
X-10986400Y-50824653D01*
X-11104265Y-51001049D01*
X-11185451Y-51197051D01*
X-11226840Y-51405125D01*
X-11313280Y-51405125D01*
X-11313280Y-50973768D01*
X-11260209Y-50951785D01*
X-11083813Y-50833920D01*
X-10933800Y-50683907D01*
X-10815935Y-50507511D01*
X-10734749Y-50311509D01*
X-10693360Y-50103435D01*
X-10693360Y-49891285D01*
X-10734749Y-49683211D01*
X-10777435Y-49580158D01*
X-9441962Y-48244685D01*
X-9434122Y-48284098D01*
X-9379319Y-48416404D01*
X-9299758Y-48535476D01*
X-9198496Y-48636738D01*
X-9079424Y-48716299D01*
X-8947118Y-48771102D01*
X-8806663Y-48799040D01*
X-8663457Y-48799040D01*
X-8523002Y-48771102D01*
X-8390696Y-48716299D01*
X-8271624Y-48636738D01*
X-8170362Y-48535476D01*
X-8090801Y-48416404D01*
X-8035998Y-48284098D01*
X-8008060Y-48143643D01*
X-8008060Y-48000437D01*
X-8035998Y-47859982D01*
X-8090801Y-47727676D01*
X-8170362Y-47608604D01*
X-8271624Y-47507342D01*
X-8390696Y-47427781D01*
X-8523002Y-47372978D01*
X-8564533Y-47364717D01*
X-8479256Y-47279440D01*
X-7963650Y-47279440D01*
X-7950710Y-47310680D01*
X-7876620Y-47421563D01*
X-7782323Y-47515860D01*
X-7671440Y-47589950D01*
X-7548234Y-47640984D01*
X-7417439Y-47667000D01*
X-7284081Y-47667000D01*
X-7153286Y-47640984D01*
X-7030080Y-47589950D01*
X-6919197Y-47515860D01*
X-6824900Y-47421563D01*
X-6750810Y-47310680D01*
X-6699776Y-47187474D01*
X-6673760Y-47056679D01*
X-6673760Y-46923321D01*
X-6699776Y-46792526D01*
X-6750810Y-46669320D01*
X-6824900Y-46558437D01*
X-6919197Y-46464140D01*
X-7030080Y-46390050D01*
X-7153286Y-46339016D01*
X-7284081Y-46313000D01*
X-7417439Y-46313000D01*
X-7548234Y-46339016D01*
X-7636169Y-46375440D01*
X-8644276Y-46375440D01*
X-8666481Y-46373253D01*
X-8755088Y-46381980D01*
X-8774918Y-46387996D01*
X-8840290Y-46407826D01*
X-8918813Y-46449797D01*
X-8987639Y-46506281D01*
X-9001795Y-46523530D01*
X-9425041Y-46946778D01*
X-9442299Y-46960941D01*
X-9468083Y-46992359D01*
X-11442961Y-48967237D01*
X-11456211Y-48961749D01*
X-11664285Y-48920360D01*
X-11876435Y-48920360D01*
X-12084509Y-48961749D01*
X-12280511Y-49042935D01*
X-12456907Y-49160800D01*
X-12606920Y-49310813D01*
X-12724785Y-49487209D01*
X-12805971Y-49683211D01*
X-12847360Y-49891285D01*
X-17663000Y-49891285D01*
X-17663000Y-36678290D01*
X-17195656Y-36210947D01*
X-17175552Y-36194448D01*
X-17109696Y-36114202D01*
X-17060761Y-36022650D01*
X-17030626Y-35923310D01*
X-17023000Y-35845881D01*
X-17020451Y-35820000D01*
X-17023000Y-35794119D01*
X-17023000Y-30237000D01*
X-16720361Y-30237000D01*
X-16729374Y-30266711D01*
X-16739549Y-30370020D01*
X-16737000Y-30395901D01*
X-16736999Y-36578330D01*
X-16737000Y-36578340D01*
X-16736999Y-38213265D01*
X-16762278Y-38238544D01*
X-16841839Y-38357616D01*
X-16896642Y-38489922D01*
X-16924580Y-38630377D01*
X-16924580Y-38773583D01*
X-16896642Y-38914038D01*
X-16841839Y-39046344D01*
X-16762278Y-39165416D01*
X-16661016Y-39266678D01*
X-16541944Y-39346239D01*
X-16409638Y-39401042D01*
X-16269183Y-39428980D01*
X-16125977Y-39428980D01*
X-15985522Y-39401042D01*
X-15853216Y-39346239D01*
X-15734144Y-39266678D01*
X-15632882Y-39165416D01*
X-15553321Y-39046344D01*
X-15498518Y-38914038D01*
X-15470580Y-38773583D01*
X-15470580Y-38630377D01*
X-15498518Y-38489922D01*
X-15553321Y-38357616D01*
X-15632882Y-38238544D01*
X-15683000Y-38188426D01*
X-15683000Y-37213057D01*
X-15540280Y-37213057D01*
X-15540280Y-37356263D01*
X-15512342Y-37496718D01*
X-15457539Y-37629024D01*
X-15377978Y-37748096D01*
X-15340280Y-37785794D01*
X-15340279Y-39082490D01*
X-15342829Y-39108380D01*
X-15332654Y-39211689D01*
X-15302519Y-39311029D01*
X-15253584Y-39402581D01*
X-15253583Y-39402582D01*
X-15187727Y-39482828D01*
X-15179360Y-39489695D01*
X-15172488Y-39498068D01*
X-15092242Y-39563924D01*
X-15000690Y-39612859D01*
X-14901350Y-39642994D01*
X-14823921Y-39650620D01*
X-14798040Y-39653169D01*
X-14772159Y-39650620D01*
X-9812501Y-39650620D01*
X-9786620Y-39653169D01*
X-9760739Y-39650620D01*
X-9683310Y-39642994D01*
X-9583970Y-39612859D01*
X-9492418Y-39563924D01*
X-9412172Y-39498068D01*
X-9395665Y-39477954D01*
X-8543561Y-38625851D01*
X-8523452Y-38609348D01*
X-8457596Y-38529102D01*
X-8408661Y-38437550D01*
X-8378526Y-38338210D01*
X-8370900Y-38260781D01*
X-8370900Y-38260780D01*
X-8368351Y-38234900D01*
X-8370900Y-38209019D01*
X-8370900Y-38118254D01*
X-8333202Y-38080556D01*
X-8253641Y-37961484D01*
X-8198838Y-37829178D01*
X-8170900Y-37688723D01*
X-8170900Y-37582445D01*
X-2763560Y-37582445D01*
X-2763560Y-37794595D01*
X-2722171Y-38002669D01*
X-2640985Y-38198671D01*
X-2523120Y-38375067D01*
X-2373107Y-38525080D01*
X-2196711Y-38642945D01*
X-2117979Y-38675556D01*
X-2117980Y-39195386D01*
X-2135239Y-39221216D01*
X-2190042Y-39353522D01*
X-2217980Y-39493977D01*
X-2217980Y-39637183D01*
X-2190042Y-39777638D01*
X-2135239Y-39909944D01*
X-2055678Y-40029016D01*
X-1954416Y-40130278D01*
X-1835344Y-40209839D01*
X-1703038Y-40264642D01*
X-1562583Y-40292580D01*
X-1419377Y-40292580D01*
X-1278922Y-40264642D01*
X-1146616Y-40209839D01*
X-1027544Y-40130278D01*
X-926282Y-40029016D01*
X-846721Y-39909944D01*
X-791918Y-39777638D01*
X-763980Y-39637183D01*
X-763980Y-39493977D01*
X-791918Y-39353522D01*
X-846721Y-39221216D01*
X-863980Y-39195386D01*
X-863980Y-38389047D01*
X-850000Y-38375067D01*
X-810533Y-38316000D01*
X3687258Y-38316000D01*
X3687258Y-39916000D01*
X3693572Y-39980103D01*
X3712270Y-40041743D01*
X3742634Y-40098550D01*
X3783497Y-40148343D01*
X3833290Y-40189206D01*
X3890097Y-40219570D01*
X3951737Y-40238268D01*
X4015840Y-40244582D01*
X5615840Y-40244582D01*
X5679943Y-40238268D01*
X5741583Y-40219570D01*
X5798390Y-40189206D01*
X5848183Y-40148343D01*
X5889046Y-40098550D01*
X5919410Y-40041743D01*
X5938108Y-39980103D01*
X5944422Y-39916000D01*
X5944422Y-38316000D01*
X5938108Y-38251897D01*
X5919410Y-38190257D01*
X5889046Y-38133450D01*
X5848183Y-38083657D01*
X5798390Y-38042794D01*
X5741583Y-38012430D01*
X5679943Y-37993732D01*
X5615840Y-37987418D01*
X4015840Y-37987418D01*
X3951737Y-37993732D01*
X3890097Y-38012430D01*
X3833290Y-38042794D01*
X3783497Y-38083657D01*
X3742634Y-38133450D01*
X3712270Y-38190257D01*
X3693572Y-38251897D01*
X3687258Y-38316000D01*
X-810533Y-38316000D01*
X-732135Y-38198671D01*
X-650949Y-38002669D01*
X-609560Y-37794595D01*
X-609560Y-37582445D01*
X-650949Y-37374371D01*
X-732135Y-37178369D01*
X-850000Y-37001973D01*
X-1000013Y-36851960D01*
X-1176409Y-36734095D01*
X-1372411Y-36652909D01*
X-1580485Y-36611520D01*
X-1792635Y-36611520D01*
X-2000709Y-36652909D01*
X-2196711Y-36734095D01*
X-2373107Y-36851960D01*
X-2523120Y-37001973D01*
X-2640985Y-37178369D01*
X-2722171Y-37374371D01*
X-2763560Y-37582445D01*
X-8170900Y-37582445D01*
X-8170900Y-37545517D01*
X-8198838Y-37405062D01*
X-8253641Y-37272756D01*
X-8333202Y-37153684D01*
X-8434464Y-37052422D01*
X-8553536Y-36972861D01*
X-8685842Y-36918058D01*
X-8826297Y-36890120D01*
X-8969503Y-36890120D01*
X-9109958Y-36918058D01*
X-9242264Y-36972861D01*
X-9361336Y-37052422D01*
X-9462598Y-37153684D01*
X-9542159Y-37272756D01*
X-9596962Y-37405062D01*
X-9624900Y-37545517D01*
X-9624900Y-37688723D01*
X-9596962Y-37829178D01*
X-9542159Y-37961484D01*
X-9473111Y-38064822D01*
X-10004909Y-38596620D01*
X-11577184Y-38596620D01*
X-11568953Y-38591120D01*
X-11418940Y-38441107D01*
X-11301075Y-38264711D01*
X-11219889Y-38068709D01*
X-11178500Y-37860635D01*
X-11178500Y-37648485D01*
X-11219889Y-37440411D01*
X-11301075Y-37244409D01*
X-11418940Y-37068013D01*
X-11568953Y-36918000D01*
X-11745349Y-36800135D01*
X-11783680Y-36784258D01*
X-11783680Y-35437925D01*
X-11781493Y-35415720D01*
X-11783680Y-35393515D01*
X-11783680Y-35138414D01*
X-11693342Y-35048076D01*
X-11613781Y-34929004D01*
X-11558978Y-34796698D01*
X-11531040Y-34656243D01*
X-11531040Y-34513037D01*
X-11558978Y-34372582D01*
X-11613781Y-34240276D01*
X-11693342Y-34121204D01*
X-11794604Y-34019942D01*
X-11906158Y-33945405D01*
X-11914022Y-33935822D01*
X-11982847Y-33879338D01*
X-12061371Y-33837366D01*
X-12146573Y-33811520D01*
X-12235181Y-33802793D01*
X-12323787Y-33811520D01*
X-12408989Y-33837366D01*
X-12487513Y-33879338D01*
X-12520612Y-33906502D01*
X-12602404Y-33940381D01*
X-12721476Y-34019942D01*
X-12822738Y-34121204D01*
X-12902299Y-34240276D01*
X-12957102Y-34372582D01*
X-12985040Y-34513037D01*
X-12985040Y-34656243D01*
X-12957102Y-34796698D01*
X-12902299Y-34929004D01*
X-12822738Y-35048076D01*
X-12721476Y-35149338D01*
X-12687679Y-35171920D01*
X-12687679Y-35393509D01*
X-12689867Y-35415720D01*
X-12687679Y-35437931D01*
X-12687680Y-36767839D01*
X-12765651Y-36800135D01*
X-12942047Y-36918000D01*
X-13092060Y-37068013D01*
X-13209925Y-37244409D01*
X-13291111Y-37440411D01*
X-13332500Y-37648485D01*
X-13332500Y-37860635D01*
X-13291111Y-38068709D01*
X-13209925Y-38264711D01*
X-13092060Y-38441107D01*
X-12942047Y-38591120D01*
X-12933816Y-38596620D01*
X-14286280Y-38596620D01*
X-14286280Y-37785794D01*
X-14248582Y-37748096D01*
X-14169021Y-37629024D01*
X-14114218Y-37496718D01*
X-14086280Y-37356263D01*
X-14086280Y-37213057D01*
X-14114218Y-37072602D01*
X-14169021Y-36940296D01*
X-14247783Y-36822420D01*
X-14163645Y-36822420D01*
X-13955571Y-36781031D01*
X-13759569Y-36699845D01*
X-13583173Y-36581980D01*
X-13433160Y-36431967D01*
X-13315295Y-36255571D01*
X-13234109Y-36059569D01*
X-13192720Y-35851495D01*
X-13192720Y-35639345D01*
X-13234109Y-35431271D01*
X-13315295Y-35235269D01*
X-13433160Y-35058873D01*
X-13583173Y-34908860D01*
X-13624627Y-34881161D01*
X-13591421Y-34831464D01*
X-13536618Y-34699158D01*
X-13508680Y-34558703D01*
X-13508680Y-34415497D01*
X-13536618Y-34275042D01*
X-13591421Y-34142736D01*
X-13670982Y-34023664D01*
X-13772244Y-33922402D01*
X-13891316Y-33842841D01*
X-14023622Y-33788038D01*
X-14164077Y-33760100D01*
X-14307283Y-33760100D01*
X-14447738Y-33788038D01*
X-14580044Y-33842841D01*
X-14699116Y-33922402D01*
X-14800378Y-34023664D01*
X-14879939Y-34142736D01*
X-14934742Y-34275042D01*
X-14962680Y-34415497D01*
X-14962680Y-34558703D01*
X-14934742Y-34699158D01*
X-14879939Y-34831464D01*
X-14867746Y-34849712D01*
X-14956267Y-34908860D01*
X-15106280Y-35058873D01*
X-15224145Y-35235269D01*
X-15305331Y-35431271D01*
X-15346720Y-35639345D01*
X-15346720Y-35851495D01*
X-15305331Y-36059569D01*
X-15224145Y-36255571D01*
X-15106280Y-36431967D01*
X-14964709Y-36573538D01*
X-15025338Y-36585598D01*
X-15157644Y-36640401D01*
X-15276716Y-36719962D01*
X-15377978Y-36821224D01*
X-15457539Y-36940296D01*
X-15512342Y-37072602D01*
X-15540280Y-37213057D01*
X-15683000Y-37213057D01*
X-15683000Y-33162340D01*
X15094278Y-33162340D01*
X15094278Y-34762340D01*
X15100592Y-34826443D01*
X15119290Y-34888083D01*
X15149654Y-34944890D01*
X15190517Y-34994683D01*
X15240310Y-35035546D01*
X15297117Y-35065910D01*
X15358757Y-35084608D01*
X15422860Y-35090922D01*
X17022860Y-35090922D01*
X17086963Y-35084608D01*
X17148603Y-35065910D01*
X17205410Y-35035546D01*
X17255203Y-34994683D01*
X17296066Y-34944890D01*
X17326430Y-34888083D01*
X17345128Y-34826443D01*
X17351442Y-34762340D01*
X17351442Y-33162340D01*
X17345128Y-33098237D01*
X17326430Y-33036597D01*
X17296066Y-32979790D01*
X17255203Y-32929997D01*
X17205410Y-32889134D01*
X17148603Y-32858770D01*
X17086963Y-32840072D01*
X17022860Y-32833758D01*
X15422860Y-32833758D01*
X15358757Y-32840072D01*
X15297117Y-32858770D01*
X15240310Y-32889134D01*
X15190517Y-32929997D01*
X15149654Y-32979790D01*
X15119290Y-33036597D01*
X15100592Y-33098237D01*
X15094278Y-33162340D01*
X-15683000Y-33162340D01*
X-15683000Y-30837010D01*
X-13707349Y-30837010D01*
X-13681468Y-30839559D01*
X-13655587Y-30837010D01*
X-13578158Y-30829384D01*
X-13478818Y-30799249D01*
X-13387266Y-30750314D01*
X-13307020Y-30684458D01*
X-13290513Y-30664344D01*
X-12283309Y-29657140D01*
X3651818Y-29657140D01*
X3651818Y-31257140D01*
X3658132Y-31321243D01*
X3676830Y-31382883D01*
X3707194Y-31439690D01*
X3748057Y-31489483D01*
X3797850Y-31530346D01*
X3854657Y-31560710D01*
X3916297Y-31579408D01*
X3980400Y-31585722D01*
X5580400Y-31585722D01*
X5644503Y-31579408D01*
X5706143Y-31560710D01*
X5762950Y-31530346D01*
X5812743Y-31489483D01*
X5853606Y-31439690D01*
X5883970Y-31382883D01*
X5902668Y-31321243D01*
X5908982Y-31257140D01*
X5908982Y-29657140D01*
X5902668Y-29593037D01*
X5883970Y-29531397D01*
X5853606Y-29474590D01*
X5812743Y-29424797D01*
X5762950Y-29383934D01*
X5706143Y-29353570D01*
X5644503Y-29334872D01*
X5580400Y-29328558D01*
X3980400Y-29328558D01*
X3916297Y-29334872D01*
X3854657Y-29353570D01*
X3797850Y-29383934D01*
X3748057Y-29424797D01*
X3707194Y-29474590D01*
X3676830Y-29531397D01*
X3658132Y-29593037D01*
X3651818Y-29657140D01*
X-12283309Y-29657140D01*
X-11283367Y-28657199D01*
X-11263264Y-28640701D01*
X-11244057Y-28617297D01*
X-11197407Y-28560455D01*
X-11148472Y-28468902D01*
X-11118337Y-28369563D01*
X-11108162Y-28266253D01*
X-11110712Y-28240362D01*
X-11110712Y-20998280D01*
X3611178Y-20998280D01*
X3611178Y-22598280D01*
X3617492Y-22662383D01*
X3636190Y-22724023D01*
X3666554Y-22780830D01*
X3707417Y-22830623D01*
X3757210Y-22871486D01*
X3814017Y-22901850D01*
X3875657Y-22920548D01*
X3939760Y-22926862D01*
X5539760Y-22926862D01*
X5603863Y-22920548D01*
X5665503Y-22901850D01*
X5722310Y-22871486D01*
X5772103Y-22830623D01*
X5812966Y-22780830D01*
X5843330Y-22724023D01*
X5862028Y-22662383D01*
X5868342Y-22598280D01*
X5868342Y-20998280D01*
X5862028Y-20934177D01*
X5843330Y-20872537D01*
X5812966Y-20815730D01*
X5772103Y-20765937D01*
X5722310Y-20725074D01*
X5665503Y-20694710D01*
X5603863Y-20676012D01*
X5539760Y-20669698D01*
X3939760Y-20669698D01*
X3875657Y-20676012D01*
X3814017Y-20694710D01*
X3757210Y-20725074D01*
X3707417Y-20765937D01*
X3666554Y-20815730D01*
X3636190Y-20872537D01*
X3617492Y-20934177D01*
X3611178Y-20998280D01*
X-11110712Y-20998280D01*
X-11110710Y-13467000D01*
X4886833Y-13467000D01*
X4993440Y-13626547D01*
X5143453Y-13776560D01*
X5319849Y-13894425D01*
X5515851Y-13975611D01*
X5723925Y-14017000D01*
X5936075Y-14017000D01*
X6144149Y-13975611D01*
X6340151Y-13894425D01*
X6516547Y-13776560D01*
X6666560Y-13626547D01*
X6769827Y-13471999D01*
X9293865Y-13471999D01*
X9331563Y-13509697D01*
X9450635Y-13589258D01*
X9582941Y-13644061D01*
X9723396Y-13671999D01*
X9866602Y-13671999D01*
X10007057Y-13644061D01*
X10139363Y-13589258D01*
X10258435Y-13509697D01*
X10359697Y-13408435D01*
X10439258Y-13289363D01*
X10494061Y-13157057D01*
X10521999Y-13016602D01*
X10521999Y-12873396D01*
X10494061Y-12732941D01*
X10439258Y-12600635D01*
X10359697Y-12481563D01*
X10258435Y-12380301D01*
X10139363Y-12300740D01*
X10007057Y-12245937D01*
X9866602Y-12217999D01*
X9723396Y-12217999D01*
X9582941Y-12245937D01*
X9450635Y-12300740D01*
X9331563Y-12380301D01*
X9293865Y-12417999D01*
X6776507Y-12417999D01*
X6666560Y-12253453D01*
X6516547Y-12103440D01*
X6340151Y-11985575D01*
X6144149Y-11904389D01*
X5936075Y-11863000D01*
X5723925Y-11863000D01*
X5515851Y-11904389D01*
X5319849Y-11985575D01*
X5143453Y-12103440D01*
X4993440Y-12253453D01*
X4886833Y-12413000D01*
X-11504119Y-12413000D01*
X-11530000Y-12410451D01*
X-11555881Y-12413000D01*
X-11565227Y-12413920D01*
X-11538658Y-12349778D01*
X-11510720Y-12209323D01*
X-11510720Y-12066117D01*
X-11538658Y-11925662D01*
X-11593461Y-11793356D01*
X-11673022Y-11674284D01*
X-11774284Y-11573022D01*
X-11893356Y-11493461D01*
X-12025662Y-11438658D01*
X-12166117Y-11410720D01*
X-12309323Y-11410720D01*
X-12449778Y-11438658D01*
X-12582084Y-11493461D01*
X-12701156Y-11573022D01*
X-12802418Y-11674284D01*
X-12881979Y-11793356D01*
X-12936782Y-11925662D01*
X-12964720Y-12066117D01*
X-12964720Y-12209323D01*
X-12936782Y-12349778D01*
X-12881979Y-12482084D01*
X-12802418Y-12601156D01*
X-12764720Y-12638854D01*
X-12764719Y-27799429D01*
X-13123000Y-28157710D01*
X-13123000Y-8158737D01*
X-13064425Y-8300151D01*
X-12946560Y-8476547D01*
X-12796547Y-8626560D01*
X-12624663Y-8741410D01*
X-12674259Y-8815636D01*
X-12729062Y-8947942D01*
X-12757000Y-9088397D01*
X-12757000Y-9231603D01*
X-12729062Y-9372058D01*
X-12674259Y-9504364D01*
X-12594698Y-9623436D01*
X-12493436Y-9724698D01*
X-12374364Y-9804259D01*
X-12242058Y-9859062D01*
X-12101603Y-9887000D01*
X-11958397Y-9887000D01*
X-11817942Y-9859062D01*
X-11685636Y-9804259D01*
X-11566564Y-9724698D01*
X-11465302Y-9623436D01*
X-11385741Y-9504364D01*
X-11330938Y-9372058D01*
X-11303000Y-9231603D01*
X-11303000Y-9088397D01*
X-11330938Y-8947942D01*
X-11385741Y-8815636D01*
X-11465302Y-8696564D01*
X-11490504Y-8671362D01*
X-11423453Y-8626560D01*
X-11273440Y-8476547D01*
X-11155575Y-8300151D01*
X-11128257Y-8234197D01*
X-8971840Y-8234197D01*
X-8971840Y-8377403D01*
X-8943902Y-8517858D01*
X-8889099Y-8650164D01*
X-8809538Y-8769236D01*
X-8771840Y-8806934D01*
X-8771839Y-10565645D01*
X-8796838Y-10590644D01*
X-8876399Y-10709716D01*
X-8931202Y-10842022D01*
X-8959140Y-10982477D01*
X-8959140Y-11125683D01*
X-8931202Y-11266138D01*
X-8876399Y-11398444D01*
X-8796838Y-11517516D01*
X-8695576Y-11618778D01*
X-8576504Y-11698339D01*
X-8444198Y-11753142D01*
X-8303743Y-11781080D01*
X-8160537Y-11781080D01*
X-8020082Y-11753142D01*
X-7887776Y-11698339D01*
X-7768704Y-11618778D01*
X-7667442Y-11517516D01*
X-7587881Y-11398444D01*
X-7533078Y-11266138D01*
X-7505140Y-11125683D01*
X-7505140Y-10982477D01*
X-7533078Y-10842022D01*
X-7587881Y-10709716D01*
X-7667442Y-10590644D01*
X-7717840Y-10540246D01*
X-7717840Y-8806934D01*
X-7680142Y-8769236D01*
X-7600581Y-8650164D01*
X-7545778Y-8517858D01*
X-7517840Y-8377403D01*
X-7517840Y-8234197D01*
X-7545778Y-8093742D01*
X-7600581Y-7961436D01*
X-7680142Y-7842364D01*
X-7781404Y-7741102D01*
X-7900476Y-7661541D01*
X-8032782Y-7606738D01*
X-8173237Y-7578800D01*
X-8316443Y-7578800D01*
X-8456898Y-7606738D01*
X-8589204Y-7661541D01*
X-8708276Y-7741102D01*
X-8809538Y-7842364D01*
X-8889099Y-7961436D01*
X-8943902Y-8093742D01*
X-8971840Y-8234197D01*
X-11128257Y-8234197D01*
X-11074389Y-8104149D01*
X-11033000Y-7896075D01*
X-11033000Y-7683925D01*
X-11074389Y-7475851D01*
X-11155575Y-7279849D01*
X-11273440Y-7103453D01*
X-11423453Y-6953440D01*
X-11599849Y-6835575D01*
X-11633000Y-6821844D01*
X-11633000Y-6725437D01*
X-6574080Y-6725437D01*
X-6574080Y-6868643D01*
X-6546142Y-7009098D01*
X-6491339Y-7141404D01*
X-6411778Y-7260476D01*
X-6310516Y-7361738D01*
X-6299079Y-7369380D01*
X-6299080Y-10457835D01*
X-6301267Y-10480040D01*
X-6292540Y-10568647D01*
X-6276338Y-10622058D01*
X-6266694Y-10653849D01*
X-6224723Y-10732372D01*
X-6168239Y-10801199D01*
X-6150980Y-10815363D01*
X-5938563Y-11027780D01*
X-5924399Y-11045039D01*
X-5855573Y-11101523D01*
X-5782661Y-11140495D01*
X-5777050Y-11143494D01*
X-5691848Y-11169340D01*
X-5603240Y-11178067D01*
X-5581035Y-11175880D01*
X-5184979Y-11175880D01*
X-5177338Y-11187316D01*
X-5076076Y-11288578D01*
X-4957004Y-11368139D01*
X-4824698Y-11422942D01*
X-4684243Y-11450880D01*
X-4541037Y-11450880D01*
X-4400582Y-11422942D01*
X-4268276Y-11368139D01*
X-4149204Y-11288578D01*
X-4047942Y-11187316D01*
X-3968381Y-11068244D01*
X-3913578Y-10935938D01*
X-3885640Y-10795483D01*
X-3885640Y-10652277D01*
X-3913578Y-10511822D01*
X-3968381Y-10379516D01*
X-4047942Y-10260444D01*
X-4149204Y-10159182D01*
X-4268276Y-10079621D01*
X-4400582Y-10024818D01*
X-4541037Y-9996880D01*
X-4684243Y-9996880D01*
X-4824698Y-10024818D01*
X-4957004Y-10079621D01*
X-5076076Y-10159182D01*
X-5177338Y-10260444D01*
X-5184979Y-10271880D01*
X-5395080Y-10271880D01*
X-5395080Y-7369379D01*
X-5383644Y-7361738D01*
X-5282382Y-7260476D01*
X-5202821Y-7141404D01*
X-5148018Y-7009098D01*
X-5120080Y-6868643D01*
X-5120080Y-6725437D01*
X-5148018Y-6584982D01*
X-5202821Y-6452676D01*
X-5282382Y-6333604D01*
X-5383644Y-6232342D01*
X-5502716Y-6152781D01*
X-5635022Y-6097978D01*
X-5775477Y-6070040D01*
X-5918683Y-6070040D01*
X-6059138Y-6097978D01*
X-6191444Y-6152781D01*
X-6310516Y-6232342D01*
X-6411778Y-6333604D01*
X-6491339Y-6452676D01*
X-6546142Y-6584982D01*
X-6574080Y-6725437D01*
X-11633000Y-6725437D01*
X-11633000Y-5859872D01*
X-11619849Y-5854425D01*
X-11443453Y-5736560D01*
X-11293440Y-5586547D01*
X-11175575Y-5410151D01*
X-11094389Y-5214149D01*
X-11053000Y-5006075D01*
X-11053000Y-4793925D01*
X-11094389Y-4585851D01*
X-11175575Y-4389849D01*
X-11293440Y-4213453D01*
X-11374005Y-4132888D01*
X-7185341Y-4132890D01*
X-7176062Y-4179538D01*
X-7121259Y-4311844D01*
X-7041698Y-4430916D01*
X-6940436Y-4532178D01*
X-6821364Y-4611739D01*
X-6689058Y-4666542D01*
X-6548603Y-4694480D01*
X-6405397Y-4694480D01*
X-6264942Y-4666542D01*
X-6132636Y-4611739D01*
X-6013564Y-4532178D01*
X-5912302Y-4430916D01*
X-5832741Y-4311844D01*
X-5777938Y-4179538D01*
X-5750000Y-4039083D01*
X-5750000Y-3895877D01*
X-5777001Y-3760133D01*
X-5741556Y-3795578D01*
X-5622484Y-3875139D01*
X-5490178Y-3929942D01*
X-5349723Y-3957880D01*
X-5206517Y-3957880D01*
X-5066062Y-3929942D01*
X-4933756Y-3875139D01*
X-4814684Y-3795578D01*
X-4713422Y-3694316D01*
X-4664096Y-3620494D01*
X-4698187Y-3732877D01*
X-4711600Y-3869063D01*
X-4711599Y-5384973D01*
X-4711600Y-5384983D01*
X-4711599Y-6359864D01*
X-4716084Y-6405400D01*
X-4711599Y-6450937D01*
X-4711599Y-6450938D01*
X-4698186Y-6587124D01*
X-4685413Y-6629232D01*
X-4645180Y-6761863D01*
X-4559101Y-6922905D01*
X-4472288Y-7028687D01*
X-4472283Y-7028692D01*
X-4443258Y-7064059D01*
X-4407892Y-7093083D01*
X-1957684Y-9543292D01*
X-1928659Y-9578659D01*
X-1893292Y-9607684D01*
X-1893289Y-9607687D01*
X-1787506Y-9694501D01*
X-1722263Y-9729374D01*
X-1626464Y-9780580D01*
X-1451724Y-9833587D01*
X-1315538Y-9847000D01*
X-1315526Y-9847000D01*
X-1270001Y-9851484D01*
X-1224476Y-9847000D01*
X-685134Y-9847000D01*
X-784698Y-9946564D01*
X-864259Y-10065636D01*
X-919062Y-10197942D01*
X-947000Y-10338397D01*
X-947000Y-10481603D01*
X-919062Y-10622058D01*
X-864259Y-10754364D01*
X-784698Y-10873436D01*
X-683436Y-10974698D01*
X-564364Y-11054259D01*
X-432058Y-11109062D01*
X-291603Y-11137000D01*
X-148397Y-11137000D01*
X-7942Y-11109062D01*
X21178Y-11097000D01*
X646833Y-11097000D01*
X753440Y-11256547D01*
X903453Y-11406560D01*
X1079849Y-11524425D01*
X1275851Y-11605611D01*
X1483925Y-11647000D01*
X1696075Y-11647000D01*
X1904149Y-11605611D01*
X2100151Y-11524425D01*
X2276547Y-11406560D01*
X2426560Y-11256547D01*
X2533167Y-11097000D01*
X4876833Y-11097000D01*
X4983440Y-11256547D01*
X5133453Y-11406560D01*
X5309849Y-11524425D01*
X5505851Y-11605611D01*
X5713925Y-11647000D01*
X5926075Y-11647000D01*
X6134149Y-11605611D01*
X6330151Y-11524425D01*
X6506547Y-11406560D01*
X6656560Y-11256547D01*
X6774425Y-11080151D01*
X6833720Y-10937000D01*
X10218866Y-10937000D01*
X10256564Y-10974698D01*
X10375636Y-11054259D01*
X10507942Y-11109062D01*
X10648397Y-11137000D01*
X10791603Y-11137000D01*
X10932058Y-11109062D01*
X11064364Y-11054259D01*
X11183436Y-10974698D01*
X11284698Y-10873436D01*
X11364259Y-10754364D01*
X11419062Y-10622058D01*
X11447000Y-10481603D01*
X11447000Y-10338397D01*
X11419062Y-10197942D01*
X11364259Y-10065636D01*
X11284698Y-9946564D01*
X11185134Y-9847000D01*
X11663000Y-9847000D01*
X11663001Y-14980206D01*
X11594389Y-15145851D01*
X11553000Y-15353925D01*
X11553000Y-15566075D01*
X11594389Y-15774149D01*
X11663000Y-15939793D01*
X11663001Y-17414453D01*
X11658515Y-17460000D01*
X11676413Y-17641724D01*
X11729420Y-17816464D01*
X11815499Y-17977505D01*
X11931341Y-18118659D01*
X12072495Y-18234501D01*
X12233536Y-18320580D01*
X12408276Y-18373587D01*
X12544462Y-18387000D01*
X12544463Y-18387000D01*
X12590000Y-18391485D01*
X12641813Y-18386382D01*
X12771724Y-18373587D01*
X12946464Y-18320580D01*
X13107505Y-18234501D01*
X13248659Y-18118659D01*
X13364501Y-17977505D01*
X13450580Y-17816464D01*
X13503587Y-17641724D01*
X13512419Y-17552054D01*
X13517000Y-17505538D01*
X13521485Y-17460000D01*
X13517000Y-17414462D01*
X13517000Y-16071059D01*
X13584425Y-15970151D01*
X13665611Y-15774149D01*
X13707000Y-15566075D01*
X13707000Y-15353925D01*
X13665611Y-15145851D01*
X13584425Y-14949849D01*
X13517000Y-14848941D01*
X13517000Y-8965538D01*
X13521485Y-8920000D01*
X13503587Y-8738276D01*
X13450580Y-8563536D01*
X13364501Y-8402495D01*
X13248659Y-8261341D01*
X13107505Y-8145499D01*
X12946464Y-8059420D01*
X12771724Y-8006413D01*
X12635538Y-7993000D01*
X12635537Y-7993000D01*
X12590000Y-7988515D01*
X12544462Y-7993000D01*
X10226025Y-7993000D01*
X10110151Y-7915575D01*
X9914149Y-7834389D01*
X9706075Y-7793000D01*
X9493925Y-7793000D01*
X9285851Y-7834389D01*
X9089849Y-7915575D01*
X8973975Y-7993000D01*
X-886024Y-7993000D01*
X-2857600Y-6021425D01*
X-2857600Y-3869062D01*
X-2871013Y-3732876D01*
X-2924020Y-3558136D01*
X-3010099Y-3397095D01*
X-3125941Y-3255941D01*
X-3267096Y-3140099D01*
X-3428137Y-3054020D01*
X-3602877Y-3001013D01*
X-3784600Y-2983115D01*
X-3966324Y-3001013D01*
X-4141064Y-3054020D01*
X-4302105Y-3140099D01*
X-4443259Y-3255941D01*
X-4559101Y-3397096D01*
X-4576363Y-3429391D01*
X-4551120Y-3302483D01*
X-4551120Y-3159277D01*
X-4579058Y-3018822D01*
X-4633861Y-2886516D01*
X-4713422Y-2767444D01*
X-4814684Y-2666182D01*
X-4933756Y-2586621D01*
X-5066062Y-2531818D01*
X-5206517Y-2503880D01*
X-5349723Y-2503880D01*
X-5490178Y-2531818D01*
X-5622484Y-2586621D01*
X-5741556Y-2666182D01*
X-5842818Y-2767444D01*
X-5850459Y-2778880D01*
X-11974296Y-2778880D01*
X-12281882Y-2471295D01*
X-12254600Y-2473982D01*
X-10554600Y-2473982D01*
X-10490497Y-2467668D01*
X-10428857Y-2448970D01*
X-10372050Y-2418606D01*
X-10322257Y-2377743D01*
X-10281394Y-2327950D01*
X-10251030Y-2271143D01*
X-10232332Y-2209503D01*
X-10226018Y-2145400D01*
X-10226018Y-1179476D01*
X-10041600Y-1179476D01*
X-10041600Y-1411324D01*
X-9996369Y-1638718D01*
X-9907644Y-1852919D01*
X-9778836Y-2045694D01*
X-9614894Y-2209636D01*
X-9422119Y-2338444D01*
X-9207918Y-2427169D01*
X-8980524Y-2472400D01*
X-8748676Y-2472400D01*
X-8521282Y-2427169D01*
X-8307081Y-2338444D01*
X-8114306Y-2209636D01*
X-7950364Y-2045694D01*
X-7821556Y-1852919D01*
X-7732831Y-1638718D01*
X-7687600Y-1411324D01*
X-7687600Y-1179476D01*
X-4961600Y-1179476D01*
X-4961600Y-1411324D01*
X-4916369Y-1638718D01*
X-4827644Y-1852919D01*
X-4698836Y-2045694D01*
X-4534894Y-2209636D01*
X-4342119Y-2338444D01*
X-4127918Y-2427169D01*
X-3900524Y-2472400D01*
X-3668676Y-2472400D01*
X-3441282Y-2427169D01*
X-3227081Y-2338444D01*
X-3034306Y-2209636D01*
X-2870364Y-2045694D01*
X-2741556Y-1852919D01*
X-2652831Y-1638718D01*
X-2607600Y-1411324D01*
X-2607600Y-1179476D01*
X118400Y-1179476D01*
X118400Y-1411324D01*
X163631Y-1638718D01*
X252356Y-1852919D01*
X381164Y-2045694D01*
X545106Y-2209636D01*
X737881Y-2338444D01*
X952082Y-2427169D01*
X1179476Y-2472400D01*
X1411324Y-2472400D01*
X1638718Y-2427169D01*
X1852919Y-2338444D01*
X2045694Y-2209636D01*
X2209636Y-2045694D01*
X2338444Y-1852919D01*
X2427169Y-1638718D01*
X2472400Y-1411324D01*
X2472400Y-1179476D01*
X2658400Y-1179476D01*
X2658400Y-1411324D01*
X2703631Y-1638718D01*
X2792356Y-1852919D01*
X2921164Y-2045694D01*
X3085106Y-2209636D01*
X3277881Y-2338444D01*
X3492082Y-2427169D01*
X3719476Y-2472400D01*
X3951324Y-2472400D01*
X4178718Y-2427169D01*
X4392919Y-2338444D01*
X4585694Y-2209636D01*
X4749636Y-2045694D01*
X4878444Y-1852919D01*
X4967169Y-1638718D01*
X5012400Y-1411324D01*
X5012400Y-1179476D01*
X5198400Y-1179476D01*
X5198400Y-1411324D01*
X5243631Y-1638718D01*
X5332356Y-1852919D01*
X5461164Y-2045694D01*
X5625106Y-2209636D01*
X5817881Y-2338444D01*
X6032082Y-2427169D01*
X6259476Y-2472400D01*
X6491324Y-2472400D01*
X6718718Y-2427169D01*
X6932919Y-2338444D01*
X7125694Y-2209636D01*
X7289636Y-2045694D01*
X7418444Y-1852919D01*
X7507169Y-1638718D01*
X7552400Y-1411324D01*
X7552400Y-1179476D01*
X7738400Y-1179476D01*
X7738400Y-1411324D01*
X7783631Y-1638718D01*
X7872356Y-1852919D01*
X8001164Y-2045694D01*
X8165106Y-2209636D01*
X8357881Y-2338444D01*
X8572082Y-2427169D01*
X8799476Y-2472400D01*
X9031324Y-2472400D01*
X9258718Y-2427169D01*
X9472919Y-2338444D01*
X9665694Y-2209636D01*
X9829636Y-2045694D01*
X9958444Y-1852919D01*
X10047169Y-1638718D01*
X10092400Y-1411324D01*
X10092400Y-1179476D01*
X10278400Y-1179476D01*
X10278400Y-1411324D01*
X10323631Y-1638718D01*
X10412356Y-1852919D01*
X10541164Y-2045694D01*
X10705106Y-2209636D01*
X10897881Y-2338444D01*
X11112082Y-2427169D01*
X11339476Y-2472400D01*
X11571324Y-2472400D01*
X11798718Y-2427169D01*
X12012919Y-2338444D01*
X12205694Y-2209636D01*
X12369636Y-2045694D01*
X12498444Y-1852919D01*
X12587169Y-1638718D01*
X12632400Y-1411324D01*
X12632400Y-1179476D01*
X12587169Y-952082D01*
X12498444Y-737881D01*
X12369636Y-545106D01*
X12205694Y-381164D01*
X12012919Y-252356D01*
X11798718Y-163631D01*
X11571324Y-118400D01*
X11339476Y-118400D01*
X11112082Y-163631D01*
X10897881Y-252356D01*
X10705106Y-381164D01*
X10541164Y-545106D01*
X10412356Y-737881D01*
X10323631Y-952082D01*
X10278400Y-1179476D01*
X10092400Y-1179476D01*
X10047169Y-952082D01*
X9958444Y-737881D01*
X9829636Y-545106D01*
X9665694Y-381164D01*
X9472919Y-252356D01*
X9258718Y-163631D01*
X9031324Y-118400D01*
X8799476Y-118400D01*
X8572082Y-163631D01*
X8357881Y-252356D01*
X8165106Y-381164D01*
X8001164Y-545106D01*
X7872356Y-737881D01*
X7783631Y-952082D01*
X7738400Y-1179476D01*
X7552400Y-1179476D01*
X7507169Y-952082D01*
X7418444Y-737881D01*
X7289636Y-545106D01*
X7125694Y-381164D01*
X6932919Y-252356D01*
X6718718Y-163631D01*
X6491324Y-118400D01*
X6259476Y-118400D01*
X6032082Y-163631D01*
X5817881Y-252356D01*
X5625106Y-381164D01*
X5461164Y-545106D01*
X5332356Y-737881D01*
X5243631Y-952082D01*
X5198400Y-1179476D01*
X5012400Y-1179476D01*
X4967169Y-952082D01*
X4878444Y-737881D01*
X4749636Y-545106D01*
X4585694Y-381164D01*
X4392919Y-252356D01*
X4178718Y-163631D01*
X3951324Y-118400D01*
X3719476Y-118400D01*
X3492082Y-163631D01*
X3277881Y-252356D01*
X3085106Y-381164D01*
X2921164Y-545106D01*
X2792356Y-737881D01*
X2703631Y-952082D01*
X2658400Y-1179476D01*
X2472400Y-1179476D01*
X2427169Y-952082D01*
X2338444Y-737881D01*
X2209636Y-545106D01*
X2045694Y-381164D01*
X1852919Y-252356D01*
X1638718Y-163631D01*
X1411324Y-118400D01*
X1179476Y-118400D01*
X952082Y-163631D01*
X737881Y-252356D01*
X545106Y-381164D01*
X381164Y-545106D01*
X252356Y-737881D01*
X163631Y-952082D01*
X118400Y-1179476D01*
X-2607600Y-1179476D01*
X-2652831Y-952082D01*
X-2741556Y-737881D01*
X-2870364Y-545106D01*
X-3034306Y-381164D01*
X-3227081Y-252356D01*
X-3441282Y-163631D01*
X-3668676Y-118400D01*
X-3900524Y-118400D01*
X-4127918Y-163631D01*
X-4342119Y-252356D01*
X-4534894Y-381164D01*
X-4698836Y-545106D01*
X-4827644Y-737881D01*
X-4916369Y-952082D01*
X-4961600Y-1179476D01*
X-7687600Y-1179476D01*
X-7732831Y-952082D01*
X-7821556Y-737881D01*
X-7950364Y-545106D01*
X-8114306Y-381164D01*
X-8307081Y-252356D01*
X-8521282Y-163631D01*
X-8748676Y-118400D01*
X-8980524Y-118400D01*
X-9207918Y-163631D01*
X-9422119Y-252356D01*
X-9614894Y-381164D01*
X-9778836Y-545106D01*
X-9907644Y-737881D01*
X-9996369Y-952082D01*
X-10041600Y-1179476D01*
X-10226018Y-1179476D01*
X-10226018Y-445400D01*
X-10232332Y-381297D01*
X-10251030Y-319657D01*
X-10281394Y-262850D01*
X-10322257Y-213057D01*
X-10372050Y-172194D01*
X-10428857Y-141830D01*
X-10490497Y-123132D01*
X-10554600Y-116818D01*
X-12254600Y-116818D01*
X-12318703Y-123132D01*
X-12380343Y-141830D01*
X-12437150Y-172194D01*
X-12441040Y-175386D01*
X-12441040Y677197D01*
X-12318836Y494306D01*
X-12154894Y330364D01*
X-11962119Y201556D01*
X-11747918Y112831D01*
X-11520524Y67600D01*
X-11288676Y67600D01*
X-11061282Y112831D01*
X-10847081Y201556D01*
X-10654306Y330364D01*
X-10490364Y494306D01*
X-10361556Y687081D01*
X-10272831Y901282D01*
X-10227600Y1128676D01*
X-10227600Y1360524D01*
X-10272831Y1587918D01*
X-10361556Y1802119D01*
X-10490364Y1994894D01*
X-10654306Y2158836D01*
X-10847081Y2287644D01*
X-10990572Y2347080D01*
X-9278628Y2347080D01*
X-9422119Y2287644D01*
X-9614894Y2158836D01*
X-9778836Y1994894D01*
X-9907644Y1802119D01*
X-9996369Y1587918D01*
X-10041600Y1360524D01*
X-10041600Y1128676D01*
X-9996369Y901282D01*
X-9907644Y687081D01*
X-9778836Y494306D01*
X-9614894Y330364D01*
X-9422119Y201556D01*
X-9207918Y112831D01*
X-8980524Y67600D01*
X-8748676Y67600D01*
X-8521282Y112831D01*
X-8307081Y201556D01*
X-8114306Y330364D01*
X-7950364Y494306D01*
X-7821556Y687081D01*
X-7732831Y901282D01*
X-7687600Y1128676D01*
X-7687600Y1360524D01*
X-7732831Y1587918D01*
X-7821556Y1802119D01*
X-7950364Y1994894D01*
X-8114306Y2158836D01*
X-8305920Y2286868D01*
X-8305920Y2776875D01*
X-8303929Y2797090D01*
X-6656360Y2797090D01*
X-6604001Y2791933D01*
X-6581796Y2794120D01*
X-6516903Y2794120D01*
X-6202560Y2479775D01*
X-6202560Y2420383D01*
X-6208676Y2421600D01*
X-6440524Y2421600D01*
X-6667918Y2376369D01*
X-6882119Y2287644D01*
X-7074894Y2158836D01*
X-7238836Y1994894D01*
X-7367644Y1802119D01*
X-7456369Y1587918D01*
X-7501600Y1360524D01*
X-7501600Y1128676D01*
X-7456369Y901282D01*
X-7367644Y687081D01*
X-7238836Y494306D01*
X-7074894Y330364D01*
X-6882119Y201556D01*
X-6667918Y112831D01*
X-6440524Y67600D01*
X-6208676Y67600D01*
X-5981282Y112831D01*
X-5767081Y201556D01*
X-5574306Y330364D01*
X-5410364Y494306D01*
X-5281556Y687081D01*
X-5192831Y901282D01*
X-5147600Y1128676D01*
X-5147600Y1360524D01*
X-5192831Y1587918D01*
X-5281556Y1802119D01*
X-5297026Y1825272D01*
X-5298560Y1840844D01*
X-5298560Y2644796D01*
X-5296373Y2667001D01*
X-5305100Y2755608D01*
X-5314610Y2786957D01*
X-5330946Y2840810D01*
X-5372917Y2919333D01*
X-5429401Y2988159D01*
X-5446649Y3002314D01*
X-5994357Y3550020D01*
X-6008521Y3567279D01*
X-6077347Y3623763D01*
X-6155870Y3665734D01*
X-6241073Y3691580D01*
X-6307475Y3698120D01*
X-6329680Y3700307D01*
X-6351885Y3698120D01*
X-6554610Y3698120D01*
X-6584765Y3701090D01*
X-6606970Y3703277D01*
X-6629175Y3701090D01*
X-11802478Y3701090D01*
X-11824681Y3703277D01*
X-11846884Y3701090D01*
X-11846885Y3701090D01*
X-11913287Y3694550D01*
X-11998490Y3668704D01*
X-12077013Y3626733D01*
X-12145839Y3570249D01*
X-12159995Y3553000D01*
X-12632678Y3080315D01*
X-12632682Y3080312D01*
X-12707432Y3005561D01*
X-12707436Y3005558D01*
X-13646953Y2066040D01*
X-13664207Y2051880D01*
X-13710240Y1995788D01*
X-13720691Y1983054D01*
X-13762663Y1904530D01*
X-13788509Y1819328D01*
X-13797236Y1730721D01*
X-13795048Y1708506D01*
X-13795049Y87000D01*
X-19598000Y87000D01*
X-19598000Y1980342D01*
X-19564369Y2323340D01*
X-18223740Y2323340D01*
X-18223740Y2101340D01*
X-18180430Y1883606D01*
X-18095474Y1678505D01*
X-17972138Y1493919D01*
X-17815161Y1336942D01*
X-17630575Y1213606D01*
X-17425474Y1128650D01*
X-17207740Y1085340D01*
X-16985740Y1085340D01*
X-16768006Y1128650D01*
X-16562905Y1213606D01*
X-16378319Y1336942D01*
X-16221342Y1493919D01*
X-16098006Y1678505D01*
X-16013050Y1883606D01*
X-15969740Y2101340D01*
X-15969740Y2323340D01*
X-16013050Y2541074D01*
X-16098006Y2746175D01*
X-16221342Y2930761D01*
X-16378319Y3087738D01*
X-16562905Y3211074D01*
X-16768006Y3296030D01*
X-16985740Y3339340D01*
X-17207740Y3339340D01*
X-17425474Y3296030D01*
X-17630575Y3211074D01*
X-17815161Y3087738D01*
X-17972138Y2930761D01*
X-18095474Y2746175D01*
X-18180430Y2541074D01*
X-18223740Y2323340D01*
X-19564369Y2323340D01*
X-19546631Y2504242D01*
X-19400188Y2989286D01*
X-19162326Y3436642D01*
X-18842096Y3829282D01*
X-18451706Y4152241D01*
X-18006020Y4393222D01*
X-17522013Y4543048D01*
X-16999180Y4598000D01*
X-1467289Y4598000D01*
X-1598939Y4466351D01*
G37*
G04 #@! TD.AperFunction*
M02*
