G04 #@! TF.GenerationSoftware,KiCad,Pcbnew,(5.1.10)-1*
G04 #@! TF.CreationDate,2021-10-05T13:08:05+05:30*
G04 #@! TF.ProjectId,P-1000072_Cicada Wi-Fi,502d3130-3030-4303-9732-5f4369636164,0.1*
G04 #@! TF.SameCoordinates,PX7cee6c0PY3dfd240*
G04 #@! TF.FileFunction,Soldermask,Top*
G04 #@! TF.FilePolarity,Negative*
%FSLAX46Y46*%
G04 Gerber Fmt 4.6, Leading zero omitted, Abs format (unit mm)*
G04 Created by KiCad (PCBNEW (5.1.10)-1) date 2021-10-05 13:08:05*
%MOMM*%
%LPD*%
G01*
G04 APERTURE LIST*
%ADD10O,1.800000X1.800000*%
%ADD11C,0.550000*%
%ADD12C,1.600000*%
%ADD13C,1.700000*%
%ADD14C,5.600000*%
%ADD15C,2.000000*%
G04 APERTURE END LIST*
G36*
G01*
X-2992740Y-52884900D02*
X-3387740Y-52884900D01*
G75*
G02*
X-3560240Y-52712400I0J172500D01*
G01*
X-3560240Y-52367400D01*
G75*
G02*
X-3387740Y-52194900I172500J0D01*
G01*
X-2992740Y-52194900D01*
G75*
G02*
X-2820240Y-52367400I0J-172500D01*
G01*
X-2820240Y-52712400D01*
G75*
G02*
X-2992740Y-52884900I-172500J0D01*
G01*
G37*
G36*
G01*
X-2992740Y-53854900D02*
X-3387740Y-53854900D01*
G75*
G02*
X-3560240Y-53682400I0J172500D01*
G01*
X-3560240Y-53337400D01*
G75*
G02*
X-3387740Y-53164900I172500J0D01*
G01*
X-2992740Y-53164900D01*
G75*
G02*
X-2820240Y-53337400I0J-172500D01*
G01*
X-2820240Y-53682400D01*
G75*
G02*
X-2992740Y-53854900I-172500J0D01*
G01*
G37*
D10*
X11455400Y1244600D03*
X11455400Y-1295400D03*
X8915400Y1244600D03*
X8915400Y-1295400D03*
X6375400Y1244600D03*
X6375400Y-1295400D03*
X3835400Y1244600D03*
X3835400Y-1295400D03*
X1295400Y1244600D03*
X1295400Y-1295400D03*
X-1244600Y1244600D03*
X-1244600Y-1295400D03*
X-3784600Y1244600D03*
X-3784600Y-1295400D03*
X-6324600Y1244600D03*
X-6324600Y-1295400D03*
X-8864600Y1244600D03*
X-8864600Y-1295400D03*
X-11404600Y1244600D03*
G36*
G01*
X-12254600Y-395400D02*
X-10554600Y-395400D01*
G75*
G02*
X-10504600Y-445400I0J-50000D01*
G01*
X-10504600Y-2145400D01*
G75*
G02*
X-10554600Y-2195400I-50000J0D01*
G01*
X-12254600Y-2195400D01*
G75*
G02*
X-12304600Y-2145400I0J50000D01*
G01*
X-12304600Y-445400D01*
G75*
G02*
X-12254600Y-395400I50000J0D01*
G01*
G37*
D11*
X-6387680Y-49430520D03*
X-7287680Y-49430520D03*
X-7287680Y-50330520D03*
X-6387680Y-50330520D03*
X-6837680Y-49880520D03*
G36*
G01*
X-5937680Y-50830520D02*
X-7737680Y-50830520D01*
G75*
G02*
X-7787680Y-50780520I0J50000D01*
G01*
X-7787680Y-48980520D01*
G75*
G02*
X-7737680Y-48930520I50000J0D01*
G01*
X-5937680Y-48930520D01*
G75*
G02*
X-5887680Y-48980520I0J-50000D01*
G01*
X-5887680Y-50780520D01*
G75*
G02*
X-5937680Y-50830520I-50000J0D01*
G01*
G37*
G36*
G01*
X-6262680Y-48780520D02*
X-6262680Y-48280520D01*
G75*
G02*
X-6212680Y-48230520I50000J0D01*
G01*
X-5962680Y-48230520D01*
G75*
G02*
X-5912680Y-48280520I0J-50000D01*
G01*
X-5912680Y-48780520D01*
G75*
G02*
X-5962680Y-48830520I-50000J0D01*
G01*
X-6212680Y-48830520D01*
G75*
G02*
X-6262680Y-48780520I0J50000D01*
G01*
G37*
G36*
G01*
X-6762680Y-48780520D02*
X-6762680Y-48280520D01*
G75*
G02*
X-6712680Y-48230520I50000J0D01*
G01*
X-6462680Y-48230520D01*
G75*
G02*
X-6412680Y-48280520I0J-50000D01*
G01*
X-6412680Y-48780520D01*
G75*
G02*
X-6462680Y-48830520I-50000J0D01*
G01*
X-6712680Y-48830520D01*
G75*
G02*
X-6762680Y-48780520I0J50000D01*
G01*
G37*
G36*
G01*
X-7762680Y-51480520D02*
X-7762680Y-50980520D01*
G75*
G02*
X-7712680Y-50930520I50000J0D01*
G01*
X-7462680Y-50930520D01*
G75*
G02*
X-7412680Y-50980520I0J-50000D01*
G01*
X-7412680Y-51480520D01*
G75*
G02*
X-7462680Y-51530520I-50000J0D01*
G01*
X-7712680Y-51530520D01*
G75*
G02*
X-7762680Y-51480520I0J50000D01*
G01*
G37*
G36*
G01*
X-7937680Y-49805520D02*
X-8437680Y-49805520D01*
G75*
G02*
X-8487680Y-49755520I0J50000D01*
G01*
X-8487680Y-49505520D01*
G75*
G02*
X-8437680Y-49455520I50000J0D01*
G01*
X-7937680Y-49455520D01*
G75*
G02*
X-7887680Y-49505520I0J-50000D01*
G01*
X-7887680Y-49755520D01*
G75*
G02*
X-7937680Y-49805520I-50000J0D01*
G01*
G37*
G36*
G01*
X-7762680Y-48780520D02*
X-7762680Y-48280520D01*
G75*
G02*
X-7712680Y-48230520I50000J0D01*
G01*
X-7462680Y-48230520D01*
G75*
G02*
X-7412680Y-48280520I0J-50000D01*
G01*
X-7412680Y-48780520D01*
G75*
G02*
X-7462680Y-48830520I-50000J0D01*
G01*
X-7712680Y-48830520D01*
G75*
G02*
X-7762680Y-48780520I0J50000D01*
G01*
G37*
G36*
G01*
X-5237680Y-49305520D02*
X-5737680Y-49305520D01*
G75*
G02*
X-5787680Y-49255520I0J50000D01*
G01*
X-5787680Y-49005520D01*
G75*
G02*
X-5737680Y-48955520I50000J0D01*
G01*
X-5237680Y-48955520D01*
G75*
G02*
X-5187680Y-49005520I0J-50000D01*
G01*
X-5187680Y-49255520D01*
G75*
G02*
X-5237680Y-49305520I-50000J0D01*
G01*
G37*
G36*
G01*
X-7937680Y-50805520D02*
X-8437680Y-50805520D01*
G75*
G02*
X-8487680Y-50755520I0J50000D01*
G01*
X-8487680Y-50505520D01*
G75*
G02*
X-8437680Y-50455520I50000J0D01*
G01*
X-7937680Y-50455520D01*
G75*
G02*
X-7887680Y-50505520I0J-50000D01*
G01*
X-7887680Y-50755520D01*
G75*
G02*
X-7937680Y-50805520I-50000J0D01*
G01*
G37*
G36*
G01*
X-7262680Y-48780520D02*
X-7262680Y-48280520D01*
G75*
G02*
X-7212680Y-48230520I50000J0D01*
G01*
X-6962680Y-48230520D01*
G75*
G02*
X-6912680Y-48280520I0J-50000D01*
G01*
X-6912680Y-48780520D01*
G75*
G02*
X-6962680Y-48830520I-50000J0D01*
G01*
X-7212680Y-48830520D01*
G75*
G02*
X-7262680Y-48780520I0J50000D01*
G01*
G37*
G36*
G01*
X-7937680Y-50305520D02*
X-8437680Y-50305520D01*
G75*
G02*
X-8487680Y-50255520I0J50000D01*
G01*
X-8487680Y-50005520D01*
G75*
G02*
X-8437680Y-49955520I50000J0D01*
G01*
X-7937680Y-49955520D01*
G75*
G02*
X-7887680Y-50005520I0J-50000D01*
G01*
X-7887680Y-50255520D01*
G75*
G02*
X-7937680Y-50305520I-50000J0D01*
G01*
G37*
G36*
G01*
X-7937680Y-49305520D02*
X-8437680Y-49305520D01*
G75*
G02*
X-8487680Y-49255520I0J50000D01*
G01*
X-8487680Y-49005520D01*
G75*
G02*
X-8437680Y-48955520I50000J0D01*
G01*
X-7937680Y-48955520D01*
G75*
G02*
X-7887680Y-49005520I0J-50000D01*
G01*
X-7887680Y-49255520D01*
G75*
G02*
X-7937680Y-49305520I-50000J0D01*
G01*
G37*
G36*
G01*
X-6912680Y-50980520D02*
X-6912680Y-51480520D01*
G75*
G02*
X-6962680Y-51530520I-50000J0D01*
G01*
X-7212680Y-51530520D01*
G75*
G02*
X-7262680Y-51480520I0J50000D01*
G01*
X-7262680Y-50980520D01*
G75*
G02*
X-7212680Y-50930520I50000J0D01*
G01*
X-6962680Y-50930520D01*
G75*
G02*
X-6912680Y-50980520I0J-50000D01*
G01*
G37*
G36*
G01*
X-5237680Y-50805520D02*
X-5737680Y-50805520D01*
G75*
G02*
X-5787680Y-50755520I0J50000D01*
G01*
X-5787680Y-50505520D01*
G75*
G02*
X-5737680Y-50455520I50000J0D01*
G01*
X-5237680Y-50455520D01*
G75*
G02*
X-5187680Y-50505520I0J-50000D01*
G01*
X-5187680Y-50755520D01*
G75*
G02*
X-5237680Y-50805520I-50000J0D01*
G01*
G37*
G36*
G01*
X-5237680Y-50305520D02*
X-5737680Y-50305520D01*
G75*
G02*
X-5787680Y-50255520I0J50000D01*
G01*
X-5787680Y-50005520D01*
G75*
G02*
X-5737680Y-49955520I50000J0D01*
G01*
X-5237680Y-49955520D01*
G75*
G02*
X-5187680Y-50005520I0J-50000D01*
G01*
X-5187680Y-50255520D01*
G75*
G02*
X-5237680Y-50305520I-50000J0D01*
G01*
G37*
G36*
G01*
X-5237680Y-49805520D02*
X-5737680Y-49805520D01*
G75*
G02*
X-5787680Y-49755520I0J50000D01*
G01*
X-5787680Y-49505520D01*
G75*
G02*
X-5737680Y-49455520I50000J0D01*
G01*
X-5237680Y-49455520D01*
G75*
G02*
X-5187680Y-49505520I0J-50000D01*
G01*
X-5187680Y-49755520D01*
G75*
G02*
X-5237680Y-49805520I-50000J0D01*
G01*
G37*
G36*
G01*
X-6262680Y-51480520D02*
X-6262680Y-50980520D01*
G75*
G02*
X-6212680Y-50930520I50000J0D01*
G01*
X-5962680Y-50930520D01*
G75*
G02*
X-5912680Y-50980520I0J-50000D01*
G01*
X-5912680Y-51480520D01*
G75*
G02*
X-5962680Y-51530520I-50000J0D01*
G01*
X-6212680Y-51530520D01*
G75*
G02*
X-6262680Y-51480520I0J50000D01*
G01*
G37*
G36*
G01*
X-6762680Y-51480520D02*
X-6762680Y-50980520D01*
G75*
G02*
X-6712680Y-50930520I50000J0D01*
G01*
X-6462680Y-50930520D01*
G75*
G02*
X-6412680Y-50980520I0J-50000D01*
G01*
X-6412680Y-51480520D01*
G75*
G02*
X-6462680Y-51530520I-50000J0D01*
G01*
X-6712680Y-51530520D01*
G75*
G02*
X-6762680Y-51480520I0J50000D01*
G01*
G37*
G36*
G01*
X-10840880Y-49997980D02*
X-10840880Y-50392980D01*
G75*
G02*
X-11013380Y-50565480I-172500J0D01*
G01*
X-11358380Y-50565480D01*
G75*
G02*
X-11530880Y-50392980I0J172500D01*
G01*
X-11530880Y-49997980D01*
G75*
G02*
X-11358380Y-49825480I172500J0D01*
G01*
X-11013380Y-49825480D01*
G75*
G02*
X-10840880Y-49997980I0J-172500D01*
G01*
G37*
G36*
G01*
X-9870880Y-49997980D02*
X-9870880Y-50392980D01*
G75*
G02*
X-10043380Y-50565480I-172500J0D01*
G01*
X-10388380Y-50565480D01*
G75*
G02*
X-10560880Y-50392980I0J172500D01*
G01*
X-10560880Y-49997980D01*
G75*
G02*
X-10388380Y-49825480I172500J0D01*
G01*
X-10043380Y-49825480D01*
G75*
G02*
X-9870880Y-49997980I0J-172500D01*
G01*
G37*
G36*
G01*
X-945500Y-52880100D02*
X-1340500Y-52880100D01*
G75*
G02*
X-1513000Y-52707600I0J172500D01*
G01*
X-1513000Y-52362600D01*
G75*
G02*
X-1340500Y-52190100I172500J0D01*
G01*
X-945500Y-52190100D01*
G75*
G02*
X-773000Y-52362600I0J-172500D01*
G01*
X-773000Y-52707600D01*
G75*
G02*
X-945500Y-52880100I-172500J0D01*
G01*
G37*
G36*
G01*
X-945500Y-53850100D02*
X-1340500Y-53850100D01*
G75*
G02*
X-1513000Y-53677600I0J172500D01*
G01*
X-1513000Y-53332600D01*
G75*
G02*
X-1340500Y-53160100I172500J0D01*
G01*
X-945500Y-53160100D01*
G75*
G02*
X-773000Y-53332600I0J-172500D01*
G01*
X-773000Y-53677600D01*
G75*
G02*
X-945500Y-53850100I-172500J0D01*
G01*
G37*
D12*
X-12893040Y-39702740D03*
D13*
X8280400Y-30457140D03*
G36*
G01*
X3930400Y-31257140D02*
X3930400Y-29657140D01*
G75*
G02*
X3980400Y-29607140I50000J0D01*
G01*
X5580400Y-29607140D01*
G75*
G02*
X5630400Y-29657140I0J-50000D01*
G01*
X5630400Y-31257140D01*
G75*
G02*
X5580400Y-31307140I-50000J0D01*
G01*
X3980400Y-31307140D01*
G75*
G02*
X3930400Y-31257140I0J50000D01*
G01*
G37*
X8239760Y-21798280D03*
G36*
G01*
X3889760Y-22598280D02*
X3889760Y-20998280D01*
G75*
G02*
X3939760Y-20948280I50000J0D01*
G01*
X5539760Y-20948280D01*
G75*
G02*
X5589760Y-20998280I0J-50000D01*
G01*
X5589760Y-22598280D01*
G75*
G02*
X5539760Y-22648280I-50000J0D01*
G01*
X3939760Y-22648280D01*
G75*
G02*
X3889760Y-22598280I0J50000D01*
G01*
G37*
G36*
G01*
X-11402500Y-53132340D02*
X-11402500Y-53527340D01*
G75*
G02*
X-11575000Y-53699840I-172500J0D01*
G01*
X-11920000Y-53699840D01*
G75*
G02*
X-12092500Y-53527340I0J172500D01*
G01*
X-12092500Y-53132340D01*
G75*
G02*
X-11920000Y-52959840I172500J0D01*
G01*
X-11575000Y-52959840D01*
G75*
G02*
X-11402500Y-53132340I0J-172500D01*
G01*
G37*
G36*
G01*
X-10432500Y-53132340D02*
X-10432500Y-53527340D01*
G75*
G02*
X-10605000Y-53699840I-172500J0D01*
G01*
X-10950000Y-53699840D01*
G75*
G02*
X-11122500Y-53527340I0J172500D01*
G01*
X-11122500Y-53132340D01*
G75*
G02*
X-10950000Y-52959840I172500J0D01*
G01*
X-10605000Y-52959840D01*
G75*
G02*
X-10432500Y-53132340I0J-172500D01*
G01*
G37*
G36*
G01*
X-16438260Y-14531500D02*
X-16043260Y-14531500D01*
G75*
G02*
X-15870760Y-14704000I0J-172500D01*
G01*
X-15870760Y-15049000D01*
G75*
G02*
X-16043260Y-15221500I-172500J0D01*
G01*
X-16438260Y-15221500D01*
G75*
G02*
X-16610760Y-15049000I0J172500D01*
G01*
X-16610760Y-14704000D01*
G75*
G02*
X-16438260Y-14531500I172500J0D01*
G01*
G37*
G36*
G01*
X-16438260Y-13561500D02*
X-16043260Y-13561500D01*
G75*
G02*
X-15870760Y-13734000I0J-172500D01*
G01*
X-15870760Y-14079000D01*
G75*
G02*
X-16043260Y-14251500I-172500J0D01*
G01*
X-16438260Y-14251500D01*
G75*
G02*
X-16610760Y-14079000I0J172500D01*
G01*
X-16610760Y-13734000D01*
G75*
G02*
X-16438260Y-13561500I172500J0D01*
G01*
G37*
G36*
G01*
X-14449440Y-14496220D02*
X-14054440Y-14496220D01*
G75*
G02*
X-13881940Y-14668720I0J-172500D01*
G01*
X-13881940Y-15013720D01*
G75*
G02*
X-14054440Y-15186220I-172500J0D01*
G01*
X-14449440Y-15186220D01*
G75*
G02*
X-14621940Y-15013720I0J172500D01*
G01*
X-14621940Y-14668720D01*
G75*
G02*
X-14449440Y-14496220I172500J0D01*
G01*
G37*
G36*
G01*
X-14449440Y-13526220D02*
X-14054440Y-13526220D01*
G75*
G02*
X-13881940Y-13698720I0J-172500D01*
G01*
X-13881940Y-14043720D01*
G75*
G02*
X-14054440Y-14216220I-172500J0D01*
G01*
X-14449440Y-14216220D01*
G75*
G02*
X-14621940Y-14043720I0J172500D01*
G01*
X-14621940Y-13698720D01*
G75*
G02*
X-14449440Y-13526220I172500J0D01*
G01*
G37*
G36*
G01*
X-10415920Y-37272120D02*
X-10020920Y-37272120D01*
G75*
G02*
X-9848420Y-37444620I0J-172500D01*
G01*
X-9848420Y-37789620D01*
G75*
G02*
X-10020920Y-37962120I-172500J0D01*
G01*
X-10415920Y-37962120D01*
G75*
G02*
X-10588420Y-37789620I0J172500D01*
G01*
X-10588420Y-37444620D01*
G75*
G02*
X-10415920Y-37272120I172500J0D01*
G01*
G37*
G36*
G01*
X-10415920Y-36302120D02*
X-10020920Y-36302120D01*
G75*
G02*
X-9848420Y-36474620I0J-172500D01*
G01*
X-9848420Y-36819620D01*
G75*
G02*
X-10020920Y-36992120I-172500J0D01*
G01*
X-10415920Y-36992120D01*
G75*
G02*
X-10588420Y-36819620I0J172500D01*
G01*
X-10588420Y-36474620D01*
G75*
G02*
X-10415920Y-36302120I172500J0D01*
G01*
G37*
G36*
G01*
X-13192320Y-53532420D02*
X-13192320Y-53137420D01*
G75*
G02*
X-13019820Y-52964920I172500J0D01*
G01*
X-12674820Y-52964920D01*
G75*
G02*
X-12502320Y-53137420I0J-172500D01*
G01*
X-12502320Y-53532420D01*
G75*
G02*
X-12674820Y-53704920I-172500J0D01*
G01*
X-13019820Y-53704920D01*
G75*
G02*
X-13192320Y-53532420I0J172500D01*
G01*
G37*
G36*
G01*
X-14162320Y-53532420D02*
X-14162320Y-53137420D01*
G75*
G02*
X-13989820Y-52964920I172500J0D01*
G01*
X-13644820Y-52964920D01*
G75*
G02*
X-13472320Y-53137420I0J-172500D01*
G01*
X-13472320Y-53532420D01*
G75*
G02*
X-13644820Y-53704920I-172500J0D01*
G01*
X-13989820Y-53704920D01*
G75*
G02*
X-14162320Y-53532420I0J172500D01*
G01*
G37*
G36*
G01*
X-5753400Y-45933980D02*
X-5753400Y-46328980D01*
G75*
G02*
X-5925900Y-46501480I-172500J0D01*
G01*
X-6270900Y-46501480D01*
G75*
G02*
X-6443400Y-46328980I0J172500D01*
G01*
X-6443400Y-45933980D01*
G75*
G02*
X-6270900Y-45761480I172500J0D01*
G01*
X-5925900Y-45761480D01*
G75*
G02*
X-5753400Y-45933980I0J-172500D01*
G01*
G37*
G36*
G01*
X-4783400Y-45933980D02*
X-4783400Y-46328980D01*
G75*
G02*
X-4955900Y-46501480I-172500J0D01*
G01*
X-5300900Y-46501480D01*
G75*
G02*
X-5473400Y-46328980I0J172500D01*
G01*
X-5473400Y-45933980D01*
G75*
G02*
X-5300900Y-45761480I172500J0D01*
G01*
X-4955900Y-45761480D01*
G75*
G02*
X-4783400Y-45933980I0J-172500D01*
G01*
G37*
G36*
G01*
X-8422020Y-12601380D02*
X-8027020Y-12601380D01*
G75*
G02*
X-7854520Y-12773880I0J-172500D01*
G01*
X-7854520Y-13118880D01*
G75*
G02*
X-8027020Y-13291380I-172500J0D01*
G01*
X-8422020Y-13291380D01*
G75*
G02*
X-8594520Y-13118880I0J172500D01*
G01*
X-8594520Y-12773880D01*
G75*
G02*
X-8422020Y-12601380I172500J0D01*
G01*
G37*
G36*
G01*
X-8422020Y-11631380D02*
X-8027020Y-11631380D01*
G75*
G02*
X-7854520Y-11803880I0J-172500D01*
G01*
X-7854520Y-12148880D01*
G75*
G02*
X-8027020Y-12321380I-172500J0D01*
G01*
X-8422020Y-12321380D01*
G75*
G02*
X-8594520Y-12148880I0J172500D01*
G01*
X-8594520Y-11803880D01*
G75*
G02*
X-8422020Y-11631380I172500J0D01*
G01*
G37*
G36*
G01*
X-15923880Y-36949220D02*
X-16318880Y-36949220D01*
G75*
G02*
X-16491380Y-36776720I0J172500D01*
G01*
X-16491380Y-36431720D01*
G75*
G02*
X-16318880Y-36259220I172500J0D01*
G01*
X-15923880Y-36259220D01*
G75*
G02*
X-15751380Y-36431720I0J-172500D01*
G01*
X-15751380Y-36776720D01*
G75*
G02*
X-15923880Y-36949220I-172500J0D01*
G01*
G37*
G36*
G01*
X-15923880Y-37919220D02*
X-16318880Y-37919220D01*
G75*
G02*
X-16491380Y-37746720I0J172500D01*
G01*
X-16491380Y-37401720D01*
G75*
G02*
X-16318880Y-37229220I172500J0D01*
G01*
X-15923880Y-37229220D01*
G75*
G02*
X-15751380Y-37401720I0J-172500D01*
G01*
X-15751380Y-37746720D01*
G75*
G02*
X-15923880Y-37919220I-172500J0D01*
G01*
G37*
G36*
G01*
X-12422520Y-37493380D02*
X-12027520Y-37493380D01*
G75*
G02*
X-11855020Y-37665880I0J-172500D01*
G01*
X-11855020Y-38010880D01*
G75*
G02*
X-12027520Y-38183380I-172500J0D01*
G01*
X-12422520Y-38183380D01*
G75*
G02*
X-12595020Y-38010880I0J172500D01*
G01*
X-12595020Y-37665880D01*
G75*
G02*
X-12422520Y-37493380I172500J0D01*
G01*
G37*
G36*
G01*
X-12422520Y-36523380D02*
X-12027520Y-36523380D01*
G75*
G02*
X-11855020Y-36695880I0J-172500D01*
G01*
X-11855020Y-37040880D01*
G75*
G02*
X-12027520Y-37213380I-172500J0D01*
G01*
X-12422520Y-37213380D01*
G75*
G02*
X-12595020Y-37040880I0J172500D01*
G01*
X-12595020Y-36695880D01*
G75*
G02*
X-12422520Y-36523380I172500J0D01*
G01*
G37*
G36*
G01*
X-8592660Y-14540880D02*
X-8592660Y-14145880D01*
G75*
G02*
X-8420160Y-13973380I172500J0D01*
G01*
X-8075160Y-13973380D01*
G75*
G02*
X-7902660Y-14145880I0J-172500D01*
G01*
X-7902660Y-14540880D01*
G75*
G02*
X-8075160Y-14713380I-172500J0D01*
G01*
X-8420160Y-14713380D01*
G75*
G02*
X-8592660Y-14540880I0J172500D01*
G01*
G37*
G36*
G01*
X-9562660Y-14540880D02*
X-9562660Y-14145880D01*
G75*
G02*
X-9390160Y-13973380I172500J0D01*
G01*
X-9045160Y-13973380D01*
G75*
G02*
X-8872660Y-14145880I0J-172500D01*
G01*
X-8872660Y-14540880D01*
G75*
G02*
X-9045160Y-14713380I-172500J0D01*
G01*
X-9390160Y-14713380D01*
G75*
G02*
X-9562660Y-14540880I0J172500D01*
G01*
G37*
G36*
G01*
X-1885120Y-35771440D02*
X-1885120Y-36166440D01*
G75*
G02*
X-2057620Y-36338940I-172500J0D01*
G01*
X-2402620Y-36338940D01*
G75*
G02*
X-2575120Y-36166440I0J172500D01*
G01*
X-2575120Y-35771440D01*
G75*
G02*
X-2402620Y-35598940I172500J0D01*
G01*
X-2057620Y-35598940D01*
G75*
G02*
X-1885120Y-35771440I0J-172500D01*
G01*
G37*
G36*
G01*
X-915120Y-35771440D02*
X-915120Y-36166440D01*
G75*
G02*
X-1087620Y-36338940I-172500J0D01*
G01*
X-1432620Y-36338940D01*
G75*
G02*
X-1605120Y-36166440I0J172500D01*
G01*
X-1605120Y-35771440D01*
G75*
G02*
X-1432620Y-35598940I172500J0D01*
G01*
X-1087620Y-35598940D01*
G75*
G02*
X-915120Y-35771440I0J-172500D01*
G01*
G37*
G36*
G01*
X-1885120Y-34699560D02*
X-1885120Y-35094560D01*
G75*
G02*
X-2057620Y-35267060I-172500J0D01*
G01*
X-2402620Y-35267060D01*
G75*
G02*
X-2575120Y-35094560I0J172500D01*
G01*
X-2575120Y-34699560D01*
G75*
G02*
X-2402620Y-34527060I172500J0D01*
G01*
X-2057620Y-34527060D01*
G75*
G02*
X-1885120Y-34699560I0J-172500D01*
G01*
G37*
G36*
G01*
X-915120Y-34699560D02*
X-915120Y-35094560D01*
G75*
G02*
X-1087620Y-35267060I-172500J0D01*
G01*
X-1432620Y-35267060D01*
G75*
G02*
X-1605120Y-35094560I0J172500D01*
G01*
X-1605120Y-34699560D01*
G75*
G02*
X-1432620Y-34527060I172500J0D01*
G01*
X-1087620Y-34527060D01*
G75*
G02*
X-915120Y-34699560I0J-172500D01*
G01*
G37*
G36*
G01*
X-16461300Y-35704160D02*
X-16461300Y-35309160D01*
G75*
G02*
X-16288800Y-35136660I172500J0D01*
G01*
X-15943800Y-35136660D01*
G75*
G02*
X-15771300Y-35309160I0J-172500D01*
G01*
X-15771300Y-35704160D01*
G75*
G02*
X-15943800Y-35876660I-172500J0D01*
G01*
X-16288800Y-35876660D01*
G75*
G02*
X-16461300Y-35704160I0J172500D01*
G01*
G37*
G36*
G01*
X-17431300Y-35704160D02*
X-17431300Y-35309160D01*
G75*
G02*
X-17258800Y-35136660I172500J0D01*
G01*
X-16913800Y-35136660D01*
G75*
G02*
X-16741300Y-35309160I0J-172500D01*
G01*
X-16741300Y-35704160D01*
G75*
G02*
X-16913800Y-35876660I-172500J0D01*
G01*
X-17258800Y-35876660D01*
G75*
G02*
X-17431300Y-35704160I0J172500D01*
G01*
G37*
G36*
G01*
X-12529380Y-35945460D02*
X-12529380Y-35550460D01*
G75*
G02*
X-12356880Y-35377960I172500J0D01*
G01*
X-12011880Y-35377960D01*
G75*
G02*
X-11839380Y-35550460I0J-172500D01*
G01*
X-11839380Y-35945460D01*
G75*
G02*
X-12011880Y-36117960I-172500J0D01*
G01*
X-12356880Y-36117960D01*
G75*
G02*
X-12529380Y-35945460I0J172500D01*
G01*
G37*
G36*
G01*
X-13499380Y-35945460D02*
X-13499380Y-35550460D01*
G75*
G02*
X-13326880Y-35377960I172500J0D01*
G01*
X-12981880Y-35377960D01*
G75*
G02*
X-12809380Y-35550460I0J-172500D01*
G01*
X-12809380Y-35945460D01*
G75*
G02*
X-12981880Y-36117960I-172500J0D01*
G01*
X-13326880Y-36117960D01*
G75*
G02*
X-13499380Y-35945460I0J172500D01*
G01*
G37*
D12*
X-3004820Y-56794400D03*
X-11493500Y-45394880D03*
X-9814560Y-43967400D03*
G36*
G01*
X-4802920Y-55479900D02*
X-4802920Y-57679900D01*
G75*
G02*
X-4852920Y-57729900I-50000J0D01*
G01*
X-5902920Y-57729900D01*
G75*
G02*
X-5952920Y-57679900I0J50000D01*
G01*
X-5952920Y-55479900D01*
G75*
G02*
X-5902920Y-55429900I50000J0D01*
G01*
X-4852920Y-55429900D01*
G75*
G02*
X-4802920Y-55479900I0J-50000D01*
G01*
G37*
G36*
G01*
X-7752920Y-55479900D02*
X-7752920Y-57679900D01*
G75*
G02*
X-7802920Y-57729900I-50000J0D01*
G01*
X-8852920Y-57729900D01*
G75*
G02*
X-8902920Y-57679900I0J50000D01*
G01*
X-8902920Y-55479900D01*
G75*
G02*
X-8852920Y-55429900I50000J0D01*
G01*
X-7802920Y-55429900D01*
G75*
G02*
X-7752920Y-55479900I0J-50000D01*
G01*
G37*
G36*
G01*
X-6302920Y-57579900D02*
X-6302920Y-58579900D01*
G75*
G02*
X-6352920Y-58629900I-50000J0D01*
G01*
X-7352920Y-58629900D01*
G75*
G02*
X-7402920Y-58579900I0J50000D01*
G01*
X-7402920Y-57579900D01*
G75*
G02*
X-7352920Y-57529900I50000J0D01*
G01*
X-6352920Y-57529900D01*
G75*
G02*
X-6302920Y-57579900I0J-50000D01*
G01*
G37*
G36*
G01*
X-6302920Y-54579900D02*
X-6302920Y-55579900D01*
G75*
G02*
X-6352920Y-55629900I-50000J0D01*
G01*
X-7352920Y-55629900D01*
G75*
G02*
X-7402920Y-55579900I0J50000D01*
G01*
X-7402920Y-54579900D01*
G75*
G02*
X-7352920Y-54529900I50000J0D01*
G01*
X-6352920Y-54529900D01*
G75*
G02*
X-6302920Y-54579900I0J-50000D01*
G01*
G37*
X-17454880Y-51069240D03*
G36*
G01*
X-2054680Y-51253970D02*
X-2054680Y-50691470D01*
G75*
G02*
X-1810930Y-50447720I243750J0D01*
G01*
X-1323430Y-50447720D01*
G75*
G02*
X-1079680Y-50691470I0J-243750D01*
G01*
X-1079680Y-51253970D01*
G75*
G02*
X-1323430Y-51497720I-243750J0D01*
G01*
X-1810930Y-51497720D01*
G75*
G02*
X-2054680Y-51253970I0J243750D01*
G01*
G37*
G36*
G01*
X-3629680Y-51253970D02*
X-3629680Y-50691470D01*
G75*
G02*
X-3385930Y-50447720I243750J0D01*
G01*
X-2898430Y-50447720D01*
G75*
G02*
X-2654680Y-50691470I0J-243750D01*
G01*
X-2654680Y-51253970D01*
G75*
G02*
X-2898430Y-51497720I-243750J0D01*
G01*
X-3385930Y-51497720D01*
G75*
G02*
X-3629680Y-51253970I0J243750D01*
G01*
G37*
G36*
G01*
X-3030380Y-49418860D02*
X-3030380Y-49813860D01*
G75*
G02*
X-3202880Y-49986360I-172500J0D01*
G01*
X-3547880Y-49986360D01*
G75*
G02*
X-3720380Y-49813860I0J172500D01*
G01*
X-3720380Y-49418860D01*
G75*
G02*
X-3547880Y-49246360I172500J0D01*
G01*
X-3202880Y-49246360D01*
G75*
G02*
X-3030380Y-49418860I0J-172500D01*
G01*
G37*
G36*
G01*
X-2060380Y-49418860D02*
X-2060380Y-49813860D01*
G75*
G02*
X-2232880Y-49986360I-172500J0D01*
G01*
X-2577880Y-49986360D01*
G75*
G02*
X-2750380Y-49813860I0J172500D01*
G01*
X-2750380Y-49418860D01*
G75*
G02*
X-2577880Y-49246360I172500J0D01*
G01*
X-2232880Y-49246360D01*
G75*
G02*
X-2060380Y-49418860I0J-172500D01*
G01*
G37*
G36*
G01*
X-10525320Y-47154480D02*
X-10525320Y-46759480D01*
G75*
G02*
X-10352820Y-46586980I172500J0D01*
G01*
X-10007820Y-46586980D01*
G75*
G02*
X-9835320Y-46759480I0J-172500D01*
G01*
X-9835320Y-47154480D01*
G75*
G02*
X-10007820Y-47326980I-172500J0D01*
G01*
X-10352820Y-47326980D01*
G75*
G02*
X-10525320Y-47154480I0J172500D01*
G01*
G37*
G36*
G01*
X-11495320Y-47154480D02*
X-11495320Y-46759480D01*
G75*
G02*
X-11322820Y-46586980I172500J0D01*
G01*
X-10977820Y-46586980D01*
G75*
G02*
X-10805320Y-46759480I0J-172500D01*
G01*
X-10805320Y-47154480D01*
G75*
G02*
X-10977820Y-47326980I-172500J0D01*
G01*
X-11322820Y-47326980D01*
G75*
G02*
X-11495320Y-47154480I0J172500D01*
G01*
G37*
G36*
G01*
X116220Y-52880100D02*
X-278780Y-52880100D01*
G75*
G02*
X-451280Y-52707600I0J172500D01*
G01*
X-451280Y-52362600D01*
G75*
G02*
X-278780Y-52190100I172500J0D01*
G01*
X116220Y-52190100D01*
G75*
G02*
X288720Y-52362600I0J-172500D01*
G01*
X288720Y-52707600D01*
G75*
G02*
X116220Y-52880100I-172500J0D01*
G01*
G37*
G36*
G01*
X116220Y-53850100D02*
X-278780Y-53850100D01*
G75*
G02*
X-451280Y-53677600I0J172500D01*
G01*
X-451280Y-53332600D01*
G75*
G02*
X-278780Y-53160100I172500J0D01*
G01*
X116220Y-53160100D01*
G75*
G02*
X288720Y-53332600I0J-172500D01*
G01*
X288720Y-53677600D01*
G75*
G02*
X116220Y-53850100I-172500J0D01*
G01*
G37*
G36*
G01*
X-1956420Y-52885180D02*
X-2351420Y-52885180D01*
G75*
G02*
X-2523920Y-52712680I0J172500D01*
G01*
X-2523920Y-52367680D01*
G75*
G02*
X-2351420Y-52195180I172500J0D01*
G01*
X-1956420Y-52195180D01*
G75*
G02*
X-1783920Y-52367680I0J-172500D01*
G01*
X-1783920Y-52712680D01*
G75*
G02*
X-1956420Y-52885180I-172500J0D01*
G01*
G37*
G36*
G01*
X-1956420Y-53855180D02*
X-2351420Y-53855180D01*
G75*
G02*
X-2523920Y-53682680I0J172500D01*
G01*
X-2523920Y-53337680D01*
G75*
G02*
X-2351420Y-53165180I172500J0D01*
G01*
X-1956420Y-53165180D01*
G75*
G02*
X-1783920Y-53337680I0J-172500D01*
G01*
X-1783920Y-53682680D01*
G75*
G02*
X-1956420Y-53855180I-172500J0D01*
G01*
G37*
G36*
G01*
X-3684920Y-48135980D02*
X-3289920Y-48135980D01*
G75*
G02*
X-3117420Y-48308480I0J-172500D01*
G01*
X-3117420Y-48653480D01*
G75*
G02*
X-3289920Y-48825980I-172500J0D01*
G01*
X-3684920Y-48825980D01*
G75*
G02*
X-3857420Y-48653480I0J172500D01*
G01*
X-3857420Y-48308480D01*
G75*
G02*
X-3684920Y-48135980I172500J0D01*
G01*
G37*
G36*
G01*
X-3684920Y-47165980D02*
X-3289920Y-47165980D01*
G75*
G02*
X-3117420Y-47338480I0J-172500D01*
G01*
X-3117420Y-47683480D01*
G75*
G02*
X-3289920Y-47855980I-172500J0D01*
G01*
X-3684920Y-47855980D01*
G75*
G02*
X-3857420Y-47683480I0J172500D01*
G01*
X-3857420Y-47338480D01*
G75*
G02*
X-3684920Y-47165980I172500J0D01*
G01*
G37*
G36*
G01*
X-2574940Y-48130620D02*
X-2179940Y-48130620D01*
G75*
G02*
X-2007440Y-48303120I0J-172500D01*
G01*
X-2007440Y-48648120D01*
G75*
G02*
X-2179940Y-48820620I-172500J0D01*
G01*
X-2574940Y-48820620D01*
G75*
G02*
X-2747440Y-48648120I0J172500D01*
G01*
X-2747440Y-48303120D01*
G75*
G02*
X-2574940Y-48130620I172500J0D01*
G01*
G37*
G36*
G01*
X-2574940Y-47160620D02*
X-2179940Y-47160620D01*
G75*
G02*
X-2007440Y-47333120I0J-172500D01*
G01*
X-2007440Y-47678120D01*
G75*
G02*
X-2179940Y-47850620I-172500J0D01*
G01*
X-2574940Y-47850620D01*
G75*
G02*
X-2747440Y-47678120I0J172500D01*
G01*
X-2747440Y-47333120D01*
G75*
G02*
X-2574940Y-47160620I172500J0D01*
G01*
G37*
G36*
G01*
X-1487820Y-48133440D02*
X-1092820Y-48133440D01*
G75*
G02*
X-920320Y-48305940I0J-172500D01*
G01*
X-920320Y-48650940D01*
G75*
G02*
X-1092820Y-48823440I-172500J0D01*
G01*
X-1487820Y-48823440D01*
G75*
G02*
X-1660320Y-48650940I0J172500D01*
G01*
X-1660320Y-48305940D01*
G75*
G02*
X-1487820Y-48133440I172500J0D01*
G01*
G37*
G36*
G01*
X-1487820Y-47163440D02*
X-1092820Y-47163440D01*
G75*
G02*
X-920320Y-47335940I0J-172500D01*
G01*
X-920320Y-47680940D01*
G75*
G02*
X-1092820Y-47853440I-172500J0D01*
G01*
X-1487820Y-47853440D01*
G75*
G02*
X-1660320Y-47680940I0J172500D01*
G01*
X-1660320Y-47335940D01*
G75*
G02*
X-1487820Y-47163440I172500J0D01*
G01*
G37*
G36*
G01*
X-10831000Y-48979440D02*
X-10831000Y-49374440D01*
G75*
G02*
X-11003500Y-49546940I-172500J0D01*
G01*
X-11348500Y-49546940D01*
G75*
G02*
X-11521000Y-49374440I0J172500D01*
G01*
X-11521000Y-48979440D01*
G75*
G02*
X-11348500Y-48806940I172500J0D01*
G01*
X-11003500Y-48806940D01*
G75*
G02*
X-10831000Y-48979440I0J-172500D01*
G01*
G37*
G36*
G01*
X-9861000Y-48979440D02*
X-9861000Y-49374440D01*
G75*
G02*
X-10033500Y-49546940I-172500J0D01*
G01*
X-10378500Y-49546940D01*
G75*
G02*
X-10551000Y-49374440I0J172500D01*
G01*
X-10551000Y-48979440D01*
G75*
G02*
X-10378500Y-48806940I172500J0D01*
G01*
X-10033500Y-48806940D01*
G75*
G02*
X-9861000Y-48979440I0J-172500D01*
G01*
G37*
G36*
G01*
X-10815760Y-47866920D02*
X-10815760Y-48261920D01*
G75*
G02*
X-10988260Y-48434420I-172500J0D01*
G01*
X-11333260Y-48434420D01*
G75*
G02*
X-11505760Y-48261920I0J172500D01*
G01*
X-11505760Y-47866920D01*
G75*
G02*
X-11333260Y-47694420I172500J0D01*
G01*
X-10988260Y-47694420D01*
G75*
G02*
X-10815760Y-47866920I0J-172500D01*
G01*
G37*
G36*
G01*
X-9845760Y-47866920D02*
X-9845760Y-48261920D01*
G75*
G02*
X-10018260Y-48434420I-172500J0D01*
G01*
X-10363260Y-48434420D01*
G75*
G02*
X-10535760Y-48261920I0J172500D01*
G01*
X-10535760Y-47866920D01*
G75*
G02*
X-10363260Y-47694420I172500J0D01*
G01*
X-10018260Y-47694420D01*
G75*
G02*
X-9845760Y-47866920I0J-172500D01*
G01*
G37*
G36*
G01*
X-8881760Y-46700600D02*
X-8486760Y-46700600D01*
G75*
G02*
X-8314260Y-46873100I0J-172500D01*
G01*
X-8314260Y-47218100D01*
G75*
G02*
X-8486760Y-47390600I-172500J0D01*
G01*
X-8881760Y-47390600D01*
G75*
G02*
X-9054260Y-47218100I0J172500D01*
G01*
X-9054260Y-46873100D01*
G75*
G02*
X-8881760Y-46700600I172500J0D01*
G01*
G37*
G36*
G01*
X-8881760Y-45730600D02*
X-8486760Y-45730600D01*
G75*
G02*
X-8314260Y-45903100I0J-172500D01*
G01*
X-8314260Y-46248100D01*
G75*
G02*
X-8486760Y-46420600I-172500J0D01*
G01*
X-8881760Y-46420600D01*
G75*
G02*
X-9054260Y-46248100I0J172500D01*
G01*
X-9054260Y-45903100D01*
G75*
G02*
X-8881760Y-45730600I172500J0D01*
G01*
G37*
G36*
G01*
X-13670000Y-18460000D02*
X-14770000Y-18460000D01*
G75*
G02*
X-14820000Y-18410000I0J50000D01*
G01*
X-14820000Y-15810000D01*
G75*
G02*
X-14770000Y-15760000I50000J0D01*
G01*
X-13670000Y-15760000D01*
G75*
G02*
X-13620000Y-15810000I0J-50000D01*
G01*
X-13620000Y-18410000D01*
G75*
G02*
X-13670000Y-18460000I-50000J0D01*
G01*
G37*
G36*
G01*
X-11670000Y-18460000D02*
X-12770000Y-18460000D01*
G75*
G02*
X-12820000Y-18410000I0J50000D01*
G01*
X-12820000Y-15810000D01*
G75*
G02*
X-12770000Y-15760000I50000J0D01*
G01*
X-11670000Y-15760000D01*
G75*
G02*
X-11620000Y-15810000I0J-50000D01*
G01*
X-11620000Y-18410000D01*
G75*
G02*
X-11670000Y-18460000I-50000J0D01*
G01*
G37*
G36*
G01*
X-5670000Y-18460000D02*
X-6770000Y-18460000D01*
G75*
G02*
X-6820000Y-18410000I0J50000D01*
G01*
X-6820000Y-15810000D01*
G75*
G02*
X-6770000Y-15760000I50000J0D01*
G01*
X-5670000Y-15760000D01*
G75*
G02*
X-5620000Y-15810000I0J-50000D01*
G01*
X-5620000Y-18410000D01*
G75*
G02*
X-5670000Y-18460000I-50000J0D01*
G01*
G37*
G36*
G01*
X-3670000Y-33660000D02*
X-4770000Y-33660000D01*
G75*
G02*
X-4820000Y-33610000I0J50000D01*
G01*
X-4820000Y-31010000D01*
G75*
G02*
X-4770000Y-30960000I50000J0D01*
G01*
X-3670000Y-30960000D01*
G75*
G02*
X-3620000Y-31010000I0J-50000D01*
G01*
X-3620000Y-33610000D01*
G75*
G02*
X-3670000Y-33660000I-50000J0D01*
G01*
G37*
G36*
G01*
X-3670000Y-18460000D02*
X-4770000Y-18460000D01*
G75*
G02*
X-4820000Y-18410000I0J50000D01*
G01*
X-4820000Y-15810000D01*
G75*
G02*
X-4770000Y-15760000I50000J0D01*
G01*
X-3670000Y-15760000D01*
G75*
G02*
X-3620000Y-15810000I0J-50000D01*
G01*
X-3620000Y-18410000D01*
G75*
G02*
X-3670000Y-18460000I-50000J0D01*
G01*
G37*
G36*
G01*
X-1670000Y-33660000D02*
X-2770000Y-33660000D01*
G75*
G02*
X-2820000Y-33610000I0J50000D01*
G01*
X-2820000Y-31010000D01*
G75*
G02*
X-2770000Y-30960000I50000J0D01*
G01*
X-1670000Y-30960000D01*
G75*
G02*
X-1620000Y-31010000I0J-50000D01*
G01*
X-1620000Y-33610000D01*
G75*
G02*
X-1670000Y-33660000I-50000J0D01*
G01*
G37*
G36*
G01*
X-11670000Y-33660000D02*
X-12770000Y-33660000D01*
G75*
G02*
X-12820000Y-33610000I0J50000D01*
G01*
X-12820000Y-31010000D01*
G75*
G02*
X-12770000Y-30960000I50000J0D01*
G01*
X-11670000Y-30960000D01*
G75*
G02*
X-11620000Y-31010000I0J-50000D01*
G01*
X-11620000Y-33610000D01*
G75*
G02*
X-11670000Y-33660000I-50000J0D01*
G01*
G37*
G36*
G01*
X-15670000Y-18460000D02*
X-16770000Y-18460000D01*
G75*
G02*
X-16820000Y-18410000I0J50000D01*
G01*
X-16820000Y-15810000D01*
G75*
G02*
X-16770000Y-15760000I50000J0D01*
G01*
X-15670000Y-15760000D01*
G75*
G02*
X-15620000Y-15810000I0J-50000D01*
G01*
X-15620000Y-18410000D01*
G75*
G02*
X-15670000Y-18460000I-50000J0D01*
G01*
G37*
G36*
G01*
X-7670000Y-33660000D02*
X-8770000Y-33660000D01*
G75*
G02*
X-8820000Y-33610000I0J50000D01*
G01*
X-8820000Y-31010000D01*
G75*
G02*
X-8770000Y-30960000I50000J0D01*
G01*
X-7670000Y-30960000D01*
G75*
G02*
X-7620000Y-31010000I0J-50000D01*
G01*
X-7620000Y-33610000D01*
G75*
G02*
X-7670000Y-33660000I-50000J0D01*
G01*
G37*
G36*
G01*
X-9670000Y-18460000D02*
X-10770000Y-18460000D01*
G75*
G02*
X-10820000Y-18410000I0J50000D01*
G01*
X-10820000Y-15810000D01*
G75*
G02*
X-10770000Y-15760000I50000J0D01*
G01*
X-9670000Y-15760000D01*
G75*
G02*
X-9620000Y-15810000I0J-50000D01*
G01*
X-9620000Y-18410000D01*
G75*
G02*
X-9670000Y-18460000I-50000J0D01*
G01*
G37*
G36*
G01*
X-7670000Y-18460000D02*
X-8770000Y-18460000D01*
G75*
G02*
X-8820000Y-18410000I0J50000D01*
G01*
X-8820000Y-15810000D01*
G75*
G02*
X-8770000Y-15760000I50000J0D01*
G01*
X-7670000Y-15760000D01*
G75*
G02*
X-7620000Y-15810000I0J-50000D01*
G01*
X-7620000Y-18410000D01*
G75*
G02*
X-7670000Y-18460000I-50000J0D01*
G01*
G37*
G36*
G01*
X-5670000Y-33660000D02*
X-6770000Y-33660000D01*
G75*
G02*
X-6820000Y-33610000I0J50000D01*
G01*
X-6820000Y-31010000D01*
G75*
G02*
X-6770000Y-30960000I50000J0D01*
G01*
X-5670000Y-30960000D01*
G75*
G02*
X-5620000Y-31010000I0J-50000D01*
G01*
X-5620000Y-33610000D01*
G75*
G02*
X-5670000Y-33660000I-50000J0D01*
G01*
G37*
G36*
G01*
X-9670000Y-33660000D02*
X-10770000Y-33660000D01*
G75*
G02*
X-10820000Y-33610000I0J50000D01*
G01*
X-10820000Y-31010000D01*
G75*
G02*
X-10770000Y-30960000I50000J0D01*
G01*
X-9670000Y-30960000D01*
G75*
G02*
X-9620000Y-31010000I0J-50000D01*
G01*
X-9620000Y-33610000D01*
G75*
G02*
X-9670000Y-33660000I-50000J0D01*
G01*
G37*
G36*
G01*
X-1670000Y-18460000D02*
X-2770000Y-18460000D01*
G75*
G02*
X-2820000Y-18410000I0J50000D01*
G01*
X-2820000Y-15810000D01*
G75*
G02*
X-2770000Y-15760000I50000J0D01*
G01*
X-1670000Y-15760000D01*
G75*
G02*
X-1620000Y-15810000I0J-50000D01*
G01*
X-1620000Y-18410000D01*
G75*
G02*
X-1670000Y-18460000I-50000J0D01*
G01*
G37*
G36*
G01*
X-13670000Y-33660000D02*
X-14770000Y-33660000D01*
G75*
G02*
X-14820000Y-33610000I0J50000D01*
G01*
X-14820000Y-31010000D01*
G75*
G02*
X-14770000Y-30960000I50000J0D01*
G01*
X-13670000Y-30960000D01*
G75*
G02*
X-13620000Y-31010000I0J-50000D01*
G01*
X-13620000Y-33610000D01*
G75*
G02*
X-13670000Y-33660000I-50000J0D01*
G01*
G37*
G36*
G01*
X-15670000Y-33660000D02*
X-16770000Y-33660000D01*
G75*
G02*
X-16820000Y-33610000I0J50000D01*
G01*
X-16820000Y-31010000D01*
G75*
G02*
X-16770000Y-30960000I50000J0D01*
G01*
X-15670000Y-30960000D01*
G75*
G02*
X-15620000Y-31010000I0J-50000D01*
G01*
X-15620000Y-33610000D01*
G75*
G02*
X-15670000Y-33660000I-50000J0D01*
G01*
G37*
X11333480Y-19273520D03*
D13*
X12702540Y-25318720D03*
G36*
G01*
X17052540Y-24518720D02*
X17052540Y-26118720D01*
G75*
G02*
X17002540Y-26168720I-50000J0D01*
G01*
X15402540Y-26168720D01*
G75*
G02*
X15352540Y-26118720I0J50000D01*
G01*
X15352540Y-24518720D01*
G75*
G02*
X15402540Y-24468720I50000J0D01*
G01*
X17002540Y-24468720D01*
G75*
G02*
X17052540Y-24518720I0J-50000D01*
G01*
G37*
X12722860Y-33962340D03*
G36*
G01*
X17072860Y-33162340D02*
X17072860Y-34762340D01*
G75*
G02*
X17022860Y-34812340I-50000J0D01*
G01*
X15422860Y-34812340D01*
G75*
G02*
X15372860Y-34762340I0J50000D01*
G01*
X15372860Y-33162340D01*
G75*
G02*
X15422860Y-33112340I50000J0D01*
G01*
X17022860Y-33112340D01*
G75*
G02*
X17072860Y-33162340I0J-50000D01*
G01*
G37*
G36*
G01*
X15151820Y-49251380D02*
X19051820Y-49251380D01*
G75*
G02*
X19101820Y-49301380I0J-50000D01*
G01*
X19101820Y-51501380D01*
G75*
G02*
X19051820Y-51551380I-50000J0D01*
G01*
X15151820Y-51551380D01*
G75*
G02*
X15101820Y-51501380I0J50000D01*
G01*
X15101820Y-49301380D01*
G75*
G02*
X15151820Y-49251380I50000J0D01*
G01*
G37*
G36*
G01*
X15151820Y-45451380D02*
X19051820Y-45451380D01*
G75*
G02*
X19101820Y-45501380I0J-50000D01*
G01*
X19101820Y-47701380D01*
G75*
G02*
X19051820Y-47751380I-50000J0D01*
G01*
X15151820Y-47751380D01*
G75*
G02*
X15101820Y-47701380I0J50000D01*
G01*
X15101820Y-45501380D01*
G75*
G02*
X15151820Y-45451380I50000J0D01*
G01*
G37*
G36*
G01*
X-8158700Y-44042380D02*
X-8158700Y-41842380D01*
G75*
G02*
X-8108700Y-41792380I50000J0D01*
G01*
X-7058700Y-41792380D01*
G75*
G02*
X-7008700Y-41842380I0J-50000D01*
G01*
X-7008700Y-44042380D01*
G75*
G02*
X-7058700Y-44092380I-50000J0D01*
G01*
X-8108700Y-44092380D01*
G75*
G02*
X-8158700Y-44042380I0J50000D01*
G01*
G37*
G36*
G01*
X-5208700Y-44042380D02*
X-5208700Y-41842380D01*
G75*
G02*
X-5158700Y-41792380I50000J0D01*
G01*
X-4108700Y-41792380D01*
G75*
G02*
X-4058700Y-41842380I0J-50000D01*
G01*
X-4058700Y-44042380D01*
G75*
G02*
X-4108700Y-44092380I-50000J0D01*
G01*
X-5158700Y-44092380D01*
G75*
G02*
X-5208700Y-44042380I0J50000D01*
G01*
G37*
G36*
G01*
X-6658700Y-41942380D02*
X-6658700Y-40942380D01*
G75*
G02*
X-6608700Y-40892380I50000J0D01*
G01*
X-5608700Y-40892380D01*
G75*
G02*
X-5558700Y-40942380I0J-50000D01*
G01*
X-5558700Y-41942380D01*
G75*
G02*
X-5608700Y-41992380I-50000J0D01*
G01*
X-6608700Y-41992380D01*
G75*
G02*
X-6658700Y-41942380I0J50000D01*
G01*
G37*
G36*
G01*
X-6658700Y-44942380D02*
X-6658700Y-43942380D01*
G75*
G02*
X-6608700Y-43892380I50000J0D01*
G01*
X-5608700Y-43892380D01*
G75*
G02*
X-5558700Y-43942380I0J-50000D01*
G01*
X-5558700Y-44942380D01*
G75*
G02*
X-5608700Y-44992380I-50000J0D01*
G01*
X-6608700Y-44992380D01*
G75*
G02*
X-6658700Y-44942380I0J50000D01*
G01*
G37*
D12*
X-12237720Y-13873480D03*
X-14196060Y-12082780D03*
X-4239260Y-13906500D03*
X-6205220Y-12065000D03*
X-8326120Y-6253480D03*
X-10210800Y-12054840D03*
X-15499080Y-9888220D03*
X-4185920Y-37266880D03*
X5830000Y-12940000D03*
X-6223000Y-35727640D03*
X-8199120Y-35179000D03*
X-10251440Y-35100260D03*
X-18783300Y-35095180D03*
X-1694180Y-37703760D03*
X16299180Y-19817080D03*
G36*
G01*
X12301020Y-44276880D02*
X11651020Y-44276880D01*
G75*
G02*
X11601020Y-44226880I0J50000D01*
G01*
X11601020Y-43006880D01*
G75*
G02*
X11651020Y-42956880I50000J0D01*
G01*
X12301020Y-42956880D01*
G75*
G02*
X12351020Y-43006880I0J-50000D01*
G01*
X12351020Y-44226880D01*
G75*
G02*
X12301020Y-44276880I-50000J0D01*
G01*
G37*
G36*
G01*
X14201020Y-44276880D02*
X13551020Y-44276880D01*
G75*
G02*
X13501020Y-44226880I0J50000D01*
G01*
X13501020Y-43006880D01*
G75*
G02*
X13551020Y-42956880I50000J0D01*
G01*
X14201020Y-42956880D01*
G75*
G02*
X14251020Y-43006880I0J-50000D01*
G01*
X14251020Y-44226880D01*
G75*
G02*
X14201020Y-44276880I-50000J0D01*
G01*
G37*
G36*
G01*
X14201020Y-46896880D02*
X13551020Y-46896880D01*
G75*
G02*
X13501020Y-46846880I0J50000D01*
G01*
X13501020Y-45626880D01*
G75*
G02*
X13551020Y-45576880I50000J0D01*
G01*
X14201020Y-45576880D01*
G75*
G02*
X14251020Y-45626880I0J-50000D01*
G01*
X14251020Y-46846880D01*
G75*
G02*
X14201020Y-46896880I-50000J0D01*
G01*
G37*
G36*
G01*
X13251020Y-46896880D02*
X12601020Y-46896880D01*
G75*
G02*
X12551020Y-46846880I0J50000D01*
G01*
X12551020Y-45626880D01*
G75*
G02*
X12601020Y-45576880I50000J0D01*
G01*
X13251020Y-45576880D01*
G75*
G02*
X13301020Y-45626880I0J-50000D01*
G01*
X13301020Y-46846880D01*
G75*
G02*
X13251020Y-46896880I-50000J0D01*
G01*
G37*
G36*
G01*
X12301020Y-46896880D02*
X11651020Y-46896880D01*
G75*
G02*
X11601020Y-46846880I0J50000D01*
G01*
X11601020Y-45626880D01*
G75*
G02*
X11651020Y-45576880I50000J0D01*
G01*
X12301020Y-45576880D01*
G75*
G02*
X12351020Y-45626880I0J-50000D01*
G01*
X12351020Y-46846880D01*
G75*
G02*
X12301020Y-46896880I-50000J0D01*
G01*
G37*
G36*
G01*
X10852800Y-42973820D02*
X10457800Y-42973820D01*
G75*
G02*
X10285300Y-42801320I0J172500D01*
G01*
X10285300Y-42456320D01*
G75*
G02*
X10457800Y-42283820I172500J0D01*
G01*
X10852800Y-42283820D01*
G75*
G02*
X11025300Y-42456320I0J-172500D01*
G01*
X11025300Y-42801320D01*
G75*
G02*
X10852800Y-42973820I-172500J0D01*
G01*
G37*
G36*
G01*
X10852800Y-43943820D02*
X10457800Y-43943820D01*
G75*
G02*
X10285300Y-43771320I0J172500D01*
G01*
X10285300Y-43426320D01*
G75*
G02*
X10457800Y-43253820I172500J0D01*
G01*
X10852800Y-43253820D01*
G75*
G02*
X11025300Y-43426320I0J-172500D01*
G01*
X11025300Y-43771320D01*
G75*
G02*
X10852800Y-43943820I-172500J0D01*
G01*
G37*
G36*
G01*
X10322860Y-44822760D02*
X10322860Y-44427760D01*
G75*
G02*
X10495360Y-44255260I172500J0D01*
G01*
X10840360Y-44255260D01*
G75*
G02*
X11012860Y-44427760I0J-172500D01*
G01*
X11012860Y-44822760D01*
G75*
G02*
X10840360Y-44995260I-172500J0D01*
G01*
X10495360Y-44995260D01*
G75*
G02*
X10322860Y-44822760I0J172500D01*
G01*
G37*
G36*
G01*
X9352860Y-44822760D02*
X9352860Y-44427760D01*
G75*
G02*
X9525360Y-44255260I172500J0D01*
G01*
X9870360Y-44255260D01*
G75*
G02*
X10042860Y-44427760I0J-172500D01*
G01*
X10042860Y-44822760D01*
G75*
G02*
X9870360Y-44995260I-172500J0D01*
G01*
X9525360Y-44995260D01*
G75*
G02*
X9352860Y-44822760I0J172500D01*
G01*
G37*
G36*
G01*
X-13495180Y-54232160D02*
X-13495180Y-54627160D01*
G75*
G02*
X-13667680Y-54799660I-172500J0D01*
G01*
X-14012680Y-54799660D01*
G75*
G02*
X-14185180Y-54627160I0J172500D01*
G01*
X-14185180Y-54232160D01*
G75*
G02*
X-14012680Y-54059660I172500J0D01*
G01*
X-13667680Y-54059660D01*
G75*
G02*
X-13495180Y-54232160I0J-172500D01*
G01*
G37*
G36*
G01*
X-12525180Y-54232160D02*
X-12525180Y-54627160D01*
G75*
G02*
X-12697680Y-54799660I-172500J0D01*
G01*
X-13042680Y-54799660D01*
G75*
G02*
X-13215180Y-54627160I0J172500D01*
G01*
X-13215180Y-54232160D01*
G75*
G02*
X-13042680Y-54059660I172500J0D01*
G01*
X-12697680Y-54059660D01*
G75*
G02*
X-12525180Y-54232160I0J-172500D01*
G01*
G37*
G36*
G01*
X12606460Y-47990140D02*
X12606460Y-47595140D01*
G75*
G02*
X12778960Y-47422640I172500J0D01*
G01*
X13123960Y-47422640D01*
G75*
G02*
X13296460Y-47595140I0J-172500D01*
G01*
X13296460Y-47990140D01*
G75*
G02*
X13123960Y-48162640I-172500J0D01*
G01*
X12778960Y-48162640D01*
G75*
G02*
X12606460Y-47990140I0J172500D01*
G01*
G37*
G36*
G01*
X11636460Y-47990140D02*
X11636460Y-47595140D01*
G75*
G02*
X11808960Y-47422640I172500J0D01*
G01*
X12153960Y-47422640D01*
G75*
G02*
X12326460Y-47595140I0J-172500D01*
G01*
X12326460Y-47990140D01*
G75*
G02*
X12153960Y-48162640I-172500J0D01*
G01*
X11808960Y-48162640D01*
G75*
G02*
X11636460Y-47990140I0J172500D01*
G01*
G37*
G36*
G01*
X-7208080Y-52549440D02*
X-7208080Y-52154440D01*
G75*
G02*
X-7035580Y-51981940I172500J0D01*
G01*
X-6690580Y-51981940D01*
G75*
G02*
X-6518080Y-52154440I0J-172500D01*
G01*
X-6518080Y-52549440D01*
G75*
G02*
X-6690580Y-52721940I-172500J0D01*
G01*
X-7035580Y-52721940D01*
G75*
G02*
X-7208080Y-52549440I0J172500D01*
G01*
G37*
G36*
G01*
X-8178080Y-52549440D02*
X-8178080Y-52154440D01*
G75*
G02*
X-8005580Y-51981940I172500J0D01*
G01*
X-7660580Y-51981940D01*
G75*
G02*
X-7488080Y-52154440I0J-172500D01*
G01*
X-7488080Y-52549440D01*
G75*
G02*
X-7660580Y-52721940I-172500J0D01*
G01*
X-8005580Y-52721940D01*
G75*
G02*
X-8178080Y-52549440I0J172500D01*
G01*
G37*
D13*
X8315840Y-39116000D03*
G36*
G01*
X3965840Y-39916000D02*
X3965840Y-38316000D01*
G75*
G02*
X4015840Y-38266000I50000J0D01*
G01*
X5615840Y-38266000D01*
G75*
G02*
X5665840Y-38316000I0J-50000D01*
G01*
X5665840Y-39916000D01*
G75*
G02*
X5615840Y-39966000I-50000J0D01*
G01*
X4015840Y-39966000D01*
G75*
G02*
X3965840Y-39916000I0J50000D01*
G01*
G37*
G36*
G01*
X-6242880Y-53631480D02*
X-6242880Y-53236480D01*
G75*
G02*
X-6070380Y-53063980I172500J0D01*
G01*
X-5725380Y-53063980D01*
G75*
G02*
X-5552880Y-53236480I0J-172500D01*
G01*
X-5552880Y-53631480D01*
G75*
G02*
X-5725380Y-53803980I-172500J0D01*
G01*
X-6070380Y-53803980D01*
G75*
G02*
X-6242880Y-53631480I0J172500D01*
G01*
G37*
G36*
G01*
X-7212880Y-53631480D02*
X-7212880Y-53236480D01*
G75*
G02*
X-7040380Y-53063980I172500J0D01*
G01*
X-6695380Y-53063980D01*
G75*
G02*
X-6522880Y-53236480I0J-172500D01*
G01*
X-6522880Y-53631480D01*
G75*
G02*
X-6695380Y-53803980I-172500J0D01*
G01*
X-7040380Y-53803980D01*
G75*
G02*
X-7212880Y-53631480I0J172500D01*
G01*
G37*
G36*
G01*
X14263290Y-50410400D02*
X13300790Y-50410400D01*
G75*
G02*
X13032040Y-50141650I0J268750D01*
G01*
X13032040Y-49604150D01*
G75*
G02*
X13300790Y-49335400I268750J0D01*
G01*
X14263290Y-49335400D01*
G75*
G02*
X14532040Y-49604150I0J-268750D01*
G01*
X14532040Y-50141650D01*
G75*
G02*
X14263290Y-50410400I-268750J0D01*
G01*
G37*
G36*
G01*
X14263290Y-52285400D02*
X13300790Y-52285400D01*
G75*
G02*
X13032040Y-52016650I0J268750D01*
G01*
X13032040Y-51479150D01*
G75*
G02*
X13300790Y-51210400I268750J0D01*
G01*
X14263290Y-51210400D01*
G75*
G02*
X14532040Y-51479150I0J-268750D01*
G01*
X14532040Y-52016650D01*
G75*
G02*
X14263290Y-52285400I-268750J0D01*
G01*
G37*
G36*
G01*
X12292910Y-50324640D02*
X11730410Y-50324640D01*
G75*
G02*
X11486660Y-50080890I0J243750D01*
G01*
X11486660Y-49593390D01*
G75*
G02*
X11730410Y-49349640I243750J0D01*
G01*
X12292910Y-49349640D01*
G75*
G02*
X12536660Y-49593390I0J-243750D01*
G01*
X12536660Y-50080890D01*
G75*
G02*
X12292910Y-50324640I-243750J0D01*
G01*
G37*
G36*
G01*
X12292910Y-51899640D02*
X11730410Y-51899640D01*
G75*
G02*
X11486660Y-51655890I0J243750D01*
G01*
X11486660Y-51168390D01*
G75*
G02*
X11730410Y-50924640I243750J0D01*
G01*
X12292910Y-50924640D01*
G75*
G02*
X12536660Y-51168390I0J-243750D01*
G01*
X12536660Y-51655890D01*
G75*
G02*
X12292910Y-51899640I-243750J0D01*
G01*
G37*
G36*
G01*
X10333160Y-45876860D02*
X10333160Y-45481860D01*
G75*
G02*
X10505660Y-45309360I172500J0D01*
G01*
X10850660Y-45309360D01*
G75*
G02*
X11023160Y-45481860I0J-172500D01*
G01*
X11023160Y-45876860D01*
G75*
G02*
X10850660Y-46049360I-172500J0D01*
G01*
X10505660Y-46049360D01*
G75*
G02*
X10333160Y-45876860I0J172500D01*
G01*
G37*
G36*
G01*
X9363160Y-45876860D02*
X9363160Y-45481860D01*
G75*
G02*
X9535660Y-45309360I172500J0D01*
G01*
X9880660Y-45309360D01*
G75*
G02*
X10053160Y-45481860I0J-172500D01*
G01*
X10053160Y-45876860D01*
G75*
G02*
X9880660Y-46049360I-172500J0D01*
G01*
X9535660Y-46049360D01*
G75*
G02*
X9363160Y-45876860I0J172500D01*
G01*
G37*
G36*
G01*
X-5483420Y-47360220D02*
X-5483420Y-46965220D01*
G75*
G02*
X-5310920Y-46792720I172500J0D01*
G01*
X-4965920Y-46792720D01*
G75*
G02*
X-4793420Y-46965220I0J-172500D01*
G01*
X-4793420Y-47360220D01*
G75*
G02*
X-4965920Y-47532720I-172500J0D01*
G01*
X-5310920Y-47532720D01*
G75*
G02*
X-5483420Y-47360220I0J172500D01*
G01*
G37*
G36*
G01*
X-6453420Y-47360220D02*
X-6453420Y-46965220D01*
G75*
G02*
X-6280920Y-46792720I172500J0D01*
G01*
X-5935920Y-46792720D01*
G75*
G02*
X-5763420Y-46965220I0J-172500D01*
G01*
X-5763420Y-47360220D01*
G75*
G02*
X-5935920Y-47532720I-172500J0D01*
G01*
X-6280920Y-47532720D01*
G75*
G02*
X-6453420Y-47360220I0J172500D01*
G01*
G37*
G36*
G01*
X15414070Y-42434700D02*
X16376570Y-42434700D01*
G75*
G02*
X16645320Y-42703450I0J-268750D01*
G01*
X16645320Y-43240950D01*
G75*
G02*
X16376570Y-43509700I-268750J0D01*
G01*
X15414070Y-43509700D01*
G75*
G02*
X15145320Y-43240950I0J268750D01*
G01*
X15145320Y-42703450D01*
G75*
G02*
X15414070Y-42434700I268750J0D01*
G01*
G37*
G36*
G01*
X15414070Y-40559700D02*
X16376570Y-40559700D01*
G75*
G02*
X16645320Y-40828450I0J-268750D01*
G01*
X16645320Y-41365950D01*
G75*
G02*
X16376570Y-41634700I-268750J0D01*
G01*
X15414070Y-41634700D01*
G75*
G02*
X15145320Y-41365950I0J268750D01*
G01*
X15145320Y-40828450D01*
G75*
G02*
X15414070Y-40559700I268750J0D01*
G01*
G37*
G36*
G01*
X17539390Y-42138880D02*
X18101890Y-42138880D01*
G75*
G02*
X18345640Y-42382630I0J-243750D01*
G01*
X18345640Y-42870130D01*
G75*
G02*
X18101890Y-43113880I-243750J0D01*
G01*
X17539390Y-43113880D01*
G75*
G02*
X17295640Y-42870130I0J243750D01*
G01*
X17295640Y-42382630D01*
G75*
G02*
X17539390Y-42138880I243750J0D01*
G01*
G37*
G36*
G01*
X17539390Y-40563880D02*
X18101890Y-40563880D01*
G75*
G02*
X18345640Y-40807630I0J-243750D01*
G01*
X18345640Y-41295130D01*
G75*
G02*
X18101890Y-41538880I-243750J0D01*
G01*
X17539390Y-41538880D01*
G75*
G02*
X17295640Y-41295130I0J243750D01*
G01*
X17295640Y-40807630D01*
G75*
G02*
X17539390Y-40563880I243750J0D01*
G01*
G37*
D14*
X-17000000Y-57000000D03*
D15*
X12040000Y-57390000D03*
X-12948920Y-58592720D03*
X-17090000Y2220000D03*
D14*
X17000000Y-57000000D03*
G36*
G01*
X-6279500Y-5133040D02*
X-6674500Y-5133040D01*
G75*
G02*
X-6847000Y-4960540I0J172500D01*
G01*
X-6847000Y-4615540D01*
G75*
G02*
X-6674500Y-4443040I172500J0D01*
G01*
X-6279500Y-4443040D01*
G75*
G02*
X-6107000Y-4615540I0J-172500D01*
G01*
X-6107000Y-4960540D01*
G75*
G02*
X-6279500Y-5133040I-172500J0D01*
G01*
G37*
G36*
G01*
X-6279500Y-6103040D02*
X-6674500Y-6103040D01*
G75*
G02*
X-6847000Y-5930540I0J172500D01*
G01*
X-6847000Y-5585540D01*
G75*
G02*
X-6674500Y-5413040I172500J0D01*
G01*
X-6279500Y-5413040D01*
G75*
G02*
X-6107000Y-5585540I0J-172500D01*
G01*
X-6107000Y-5930540D01*
G75*
G02*
X-6279500Y-6103040I-172500J0D01*
G01*
G37*
G36*
G01*
X-5080620Y-5120480D02*
X-5475620Y-5120480D01*
G75*
G02*
X-5648120Y-4947980I0J172500D01*
G01*
X-5648120Y-4602980D01*
G75*
G02*
X-5475620Y-4430480I172500J0D01*
G01*
X-5080620Y-4430480D01*
G75*
G02*
X-4908120Y-4602980I0J-172500D01*
G01*
X-4908120Y-4947980D01*
G75*
G02*
X-5080620Y-5120480I-172500J0D01*
G01*
G37*
G36*
G01*
X-5080620Y-6090480D02*
X-5475620Y-6090480D01*
G75*
G02*
X-5648120Y-5917980I0J172500D01*
G01*
X-5648120Y-5572980D01*
G75*
G02*
X-5475620Y-5400480I172500J0D01*
G01*
X-5080620Y-5400480D01*
G75*
G02*
X-4908120Y-5572980I0J-172500D01*
G01*
X-4908120Y-5917980D01*
G75*
G02*
X-5080620Y-6090480I-172500J0D01*
G01*
G37*
M02*
