G04 #@! TF.GenerationSoftware,KiCad,Pcbnew,(5.1.10)-1*
G04 #@! TF.CreationDate,2022-01-19T13:45:55+05:30*
G04 #@! TF.ProjectId,P-1000072_Cicada Wi-Fi,502d3130-3030-4303-9732-5f4369636164,0.1*
G04 #@! TF.SameCoordinates,PX7cee6c0PY3dfd240*
G04 #@! TF.FileFunction,Soldermask,Bot*
G04 #@! TF.FilePolarity,Negative*
%FSLAX46Y46*%
G04 Gerber Fmt 4.6, Leading zero omitted, Abs format (unit mm)*
G04 Created by KiCad (PCBNEW (5.1.10)-1) date 2022-01-19 13:45:55*
%MOMM*%
%LPD*%
G01*
G04 APERTURE LIST*
%ADD10C,1.600000*%
%ADD11O,1.800000X1.800000*%
%ADD12C,1.700000*%
%ADD13C,5.600000*%
%ADD14C,2.000000*%
%ADD15C,0.254000*%
%ADD16C,0.100000*%
G04 APERTURE END LIST*
D10*
X8204200Y-16454120D03*
D11*
X11455400Y1244600D03*
X11455400Y-1295400D03*
X8915400Y1244600D03*
X8915400Y-1295400D03*
X6375400Y1244600D03*
X6375400Y-1295400D03*
X3835400Y1244600D03*
X3835400Y-1295400D03*
X1295400Y1244600D03*
X1295400Y-1295400D03*
X-1244600Y1244600D03*
X-1244600Y-1295400D03*
X-3784600Y1244600D03*
X-3784600Y-1295400D03*
X-6324600Y1244600D03*
X-6324600Y-1295400D03*
X-8864600Y1244600D03*
X-8864600Y-1295400D03*
X-11404600Y1244600D03*
G36*
G01*
X-12254600Y-395400D02*
X-10554600Y-395400D01*
G75*
G02*
X-10504600Y-445400I0J-50000D01*
G01*
X-10504600Y-2145400D01*
G75*
G02*
X-10554600Y-2195400I-50000J0D01*
G01*
X-12254600Y-2195400D01*
G75*
G02*
X-12304600Y-2145400I0J50000D01*
G01*
X-12304600Y-445400D01*
G75*
G02*
X-12254600Y-395400I50000J0D01*
G01*
G37*
D10*
X5008880Y-16687800D03*
D12*
X8280400Y-30457140D03*
G36*
G01*
X3930400Y-31257140D02*
X3930400Y-29657140D01*
G75*
G02*
X3980400Y-29607140I50000J0D01*
G01*
X5580400Y-29607140D01*
G75*
G02*
X5630400Y-29657140I0J-50000D01*
G01*
X5630400Y-31257140D01*
G75*
G02*
X5580400Y-31307140I-50000J0D01*
G01*
X3980400Y-31307140D01*
G75*
G02*
X3930400Y-31257140I0J50000D01*
G01*
G37*
D10*
X3622040Y-15138400D03*
D12*
X8239760Y-21798280D03*
G36*
G01*
X3889760Y-22598280D02*
X3889760Y-20998280D01*
G75*
G02*
X3939760Y-20948280I50000J0D01*
G01*
X5539760Y-20948280D01*
G75*
G02*
X5589760Y-20998280I0J-50000D01*
G01*
X5589760Y-22598280D01*
G75*
G02*
X5539760Y-22648280I-50000J0D01*
G01*
X3939760Y-22648280D01*
G75*
G02*
X3889760Y-22598280I0J50000D01*
G01*
G37*
D10*
X-12255500Y-37754560D03*
X797560Y-16347440D03*
D12*
X12702540Y-25318720D03*
G36*
G01*
X17052540Y-24518720D02*
X17052540Y-26118720D01*
G75*
G02*
X17002540Y-26168720I-50000J0D01*
G01*
X15402540Y-26168720D01*
G75*
G02*
X15352540Y-26118720I0J50000D01*
G01*
X15352540Y-24518720D01*
G75*
G02*
X15402540Y-24468720I50000J0D01*
G01*
X17002540Y-24468720D01*
G75*
G02*
X17052540Y-24518720I0J-50000D01*
G01*
G37*
X12722860Y-33962340D03*
G36*
G01*
X17072860Y-33162340D02*
X17072860Y-34762340D01*
G75*
G02*
X17022860Y-34812340I-50000J0D01*
G01*
X15422860Y-34812340D01*
G75*
G02*
X15372860Y-34762340I0J50000D01*
G01*
X15372860Y-33162340D01*
G75*
G02*
X15422860Y-33112340I50000J0D01*
G01*
X17022860Y-33112340D01*
G75*
G02*
X17072860Y-33162340I0J-50000D01*
G01*
G37*
D10*
X-14269720Y-35745420D03*
X5820000Y-10570000D03*
X1590000Y-10570000D03*
X-12130000Y-4900000D03*
X-12110000Y-7790000D03*
X12630000Y-15460000D03*
X9600000Y-8870000D03*
D12*
X8315840Y-39116000D03*
G36*
G01*
X3965840Y-39916000D02*
X3965840Y-38316000D01*
G75*
G02*
X4015840Y-38266000I50000J0D01*
G01*
X5615840Y-38266000D01*
G75*
G02*
X5665840Y-38316000I0J-50000D01*
G01*
X5665840Y-39916000D01*
G75*
G02*
X5615840Y-39966000I-50000J0D01*
G01*
X4015840Y-39966000D01*
G75*
G02*
X3965840Y-39916000I0J50000D01*
G01*
G37*
D13*
X-17000000Y-57000000D03*
D14*
X12031980Y-57343040D03*
X-12964160Y-58587640D03*
X-17096740Y2212340D03*
D13*
X17000000Y-57000000D03*
D15*
X-13377000Y-28113000D02*
X-19623000Y-28113000D01*
X-19623000Y-167000D01*
X-13377000Y-167000D01*
X-13377000Y-28113000D01*
D16*
G36*
X-13377000Y-28113000D02*
G01*
X-19623000Y-28113000D01*
X-19623000Y-167000D01*
X-13377000Y-167000D01*
X-13377000Y-28113000D01*
G37*
M02*
