G04 #@! TF.GenerationSoftware,KiCad,Pcbnew,(5.1.10)-1*
G04 #@! TF.CreationDate,2022-01-19T13:45:55+05:30*
G04 #@! TF.ProjectId,P-1000072_Cicada Wi-Fi,502d3130-3030-4303-9732-5f4369636164,0.1*
G04 #@! TF.SameCoordinates,PX7cee6c0PY3dfd240*
G04 #@! TF.FileFunction,Other,Fab,Top*
%FSLAX46Y46*%
G04 Gerber Fmt 4.6, Leading zero omitted, Abs format (unit mm)*
G04 Created by KiCad (PCBNEW (5.1.10)-1) date 2022-01-19 13:45:55*
%MOMM*%
%LPD*%
G01*
G04 APERTURE LIST*
%ADD10C,0.100000*%
%ADD11C,0.150000*%
%ADD12C,0.040000*%
%ADD13C,0.075000*%
%ADD14C,0.080000*%
%ADD15C,0.060000*%
G04 APERTURE END LIST*
D10*
X-720000Y-16710000D02*
X-720000Y-32710000D01*
X-720000Y-32710000D02*
X-17720000Y-32710000D01*
X-17720000Y-16710000D02*
X-720000Y-16710000D01*
X-17720000Y-32710000D02*
X-17720000Y-16710000D01*
X3503641Y-28309640D02*
X3503641Y-29109640D01*
X3103641Y-28709640D02*
X3903641Y-28709640D01*
X10530400Y-30457140D02*
G75*
G03*
X10530400Y-30457140I-4000000J0D01*
G01*
X3463001Y-19650780D02*
X3463001Y-20450780D01*
X3063001Y-20050780D02*
X3863001Y-20050780D01*
X10489760Y-21798280D02*
G75*
G03*
X10489760Y-21798280I-4000000J0D01*
G01*
X-16490760Y-13891500D02*
X-15990760Y-13891500D01*
X-15990760Y-13891500D02*
X-15990760Y-14891500D01*
X-15990760Y-14891500D02*
X-16490760Y-14891500D01*
X-16490760Y-14891500D02*
X-16490760Y-13891500D01*
X-14501940Y-13856220D02*
X-14001940Y-13856220D01*
X-14001940Y-13856220D02*
X-14001940Y-14856220D01*
X-14001940Y-14856220D02*
X-14501940Y-14856220D01*
X-14501940Y-14856220D02*
X-14501940Y-13856220D01*
X-10468420Y-36632120D02*
X-9968420Y-36632120D01*
X-9968420Y-36632120D02*
X-9968420Y-37632120D01*
X-9968420Y-37632120D02*
X-10468420Y-37632120D01*
X-10468420Y-37632120D02*
X-10468420Y-36632120D01*
X-8254480Y-12297600D02*
X-7254480Y-12297600D01*
X-8254480Y-12797600D02*
X-8254480Y-12297600D01*
X-7254480Y-12797600D02*
X-8254480Y-12797600D01*
X-7254480Y-12297600D02*
X-7254480Y-12797600D01*
X-15871380Y-36589220D02*
X-15871380Y-37589220D01*
X-16371380Y-36589220D02*
X-15871380Y-36589220D01*
X-16371380Y-37589220D02*
X-16371380Y-36589220D01*
X-15871380Y-37589220D02*
X-16371380Y-37589220D01*
X-12475020Y-37853380D02*
X-12475020Y-36853380D01*
X-11975020Y-37853380D02*
X-12475020Y-37853380D01*
X-11975020Y-36853380D02*
X-11975020Y-37853380D01*
X-12475020Y-36853380D02*
X-11975020Y-36853380D01*
X-8224760Y-13960920D02*
X-9224760Y-13960920D01*
X-8224760Y-13460920D02*
X-8224760Y-13960920D01*
X-9224760Y-13460920D02*
X-8224760Y-13460920D01*
X-9224760Y-13960920D02*
X-9224760Y-13460920D01*
X-2245120Y-35718940D02*
X-1245120Y-35718940D01*
X-2245120Y-36218940D02*
X-2245120Y-35718940D01*
X-1245120Y-36218940D02*
X-2245120Y-36218940D01*
X-1245120Y-35718940D02*
X-1245120Y-36218940D01*
X-2245120Y-34647060D02*
X-1245120Y-34647060D01*
X-2245120Y-35147060D02*
X-2245120Y-34647060D01*
X-1245120Y-35147060D02*
X-2245120Y-35147060D01*
X-1245120Y-34647060D02*
X-1245120Y-35147060D01*
X-16101300Y-35756660D02*
X-17101300Y-35756660D01*
X-16101300Y-35256660D02*
X-16101300Y-35756660D01*
X-17101300Y-35256660D02*
X-16101300Y-35256660D01*
X-17101300Y-35756660D02*
X-17101300Y-35256660D01*
X-12169380Y-35997960D02*
X-13169380Y-35997960D01*
X-12169380Y-35497960D02*
X-12169380Y-35997960D01*
X-13169380Y-35497960D02*
X-12169380Y-35497960D01*
X-13169380Y-35997960D02*
X-13169380Y-35497960D01*
X18452540Y-25318720D02*
G75*
G03*
X18452540Y-25318720I-4000000J0D01*
G01*
X17879299Y-27066220D02*
X17079299Y-27066220D01*
X17479299Y-27466220D02*
X17479299Y-26666220D01*
X17499619Y-36109840D02*
X17499619Y-35309840D01*
X17899619Y-35709840D02*
X17099619Y-35709840D01*
X18472860Y-33962340D02*
G75*
G03*
X18472860Y-33962340I-4000000J0D01*
G01*
X15101820Y-47251380D02*
X15101820Y-48501380D01*
X15851820Y-46501380D02*
X15101820Y-47251380D01*
X17101820Y-46501380D02*
X15851820Y-46501380D01*
X15101820Y-49751380D02*
X15101820Y-48501380D01*
X15851820Y-50501380D02*
X15101820Y-49751380D01*
X17101820Y-50501380D02*
X15851820Y-50501380D01*
X19101820Y-49751380D02*
X19101820Y-48501380D01*
X18351820Y-50501380D02*
X19101820Y-49751380D01*
X17101820Y-50501380D02*
X18351820Y-50501380D01*
X19101820Y-47251380D02*
X19101820Y-48501380D01*
X18351820Y-46501380D02*
X19101820Y-47251380D01*
X17101820Y-46501380D02*
X18351820Y-46501380D01*
X11476020Y-44046880D02*
X14376020Y-44046880D01*
X14376020Y-44046880D02*
X14376020Y-45806880D01*
X11926020Y-45806880D02*
X14376020Y-45806880D01*
X11476020Y-44046880D02*
X11476020Y-45356880D01*
X11926020Y-45806880D02*
X11476020Y-45356880D01*
X10905300Y-42613820D02*
X10905300Y-43613820D01*
X10405300Y-42613820D02*
X10905300Y-42613820D01*
X10405300Y-43613820D02*
X10405300Y-42613820D01*
X10905300Y-43613820D02*
X10405300Y-43613820D01*
X10682860Y-44875260D02*
X9682860Y-44875260D01*
X10682860Y-44375260D02*
X10682860Y-44875260D01*
X9682860Y-44375260D02*
X10682860Y-44375260D01*
X9682860Y-44875260D02*
X9682860Y-44375260D01*
X12966460Y-48042640D02*
X11966460Y-48042640D01*
X12966460Y-47542640D02*
X12966460Y-48042640D01*
X11966460Y-47542640D02*
X12966460Y-47542640D01*
X11966460Y-48042640D02*
X11966460Y-47542640D01*
X3539081Y-36968500D02*
X3539081Y-37768500D01*
X3139081Y-37368500D02*
X3939081Y-37368500D01*
X10565840Y-39116000D02*
G75*
G03*
X10565840Y-39116000I-4000000J0D01*
G01*
X14382040Y-49810400D02*
X14382040Y-51810400D01*
X13182040Y-49810400D02*
X14382040Y-49810400D01*
X13182040Y-51810400D02*
X13182040Y-49810400D01*
X14382040Y-51810400D02*
X13182040Y-51810400D01*
X12411660Y-49824640D02*
X12411660Y-51424640D01*
X11611660Y-49824640D02*
X12411660Y-49824640D01*
X11611660Y-51424640D02*
X11611660Y-49824640D01*
X12411660Y-51424640D02*
X11611660Y-51424640D01*
X10693160Y-45929360D02*
X9693160Y-45929360D01*
X10693160Y-45429360D02*
X10693160Y-45929360D01*
X9693160Y-45429360D02*
X10693160Y-45429360D01*
X9693160Y-45929360D02*
X9693160Y-45429360D01*
X15295320Y-43034700D02*
X15295320Y-41034700D01*
X16495320Y-43034700D02*
X15295320Y-43034700D01*
X16495320Y-41034700D02*
X16495320Y-43034700D01*
X15295320Y-41034700D02*
X16495320Y-41034700D01*
X17420640Y-42638880D02*
X17420640Y-41038880D01*
X18220640Y-42638880D02*
X17420640Y-42638880D01*
X18220640Y-41038880D02*
X18220640Y-42638880D01*
X17420640Y-41038880D02*
X18220640Y-41038880D01*
X13040000Y-57390000D02*
G75*
G03*
X13040000Y-57390000I-1000000J0D01*
G01*
X-11948920Y-58592720D02*
G75*
G03*
X-11948920Y-58592720I-1000000J0D01*
G01*
X-16090000Y2220000D02*
G75*
G03*
X-16090000Y2220000I-1000000J0D01*
G01*
X-6227000Y-5773040D02*
X-6727000Y-5773040D01*
X-6727000Y-5773040D02*
X-6727000Y-4773040D01*
X-6727000Y-4773040D02*
X-6227000Y-4773040D01*
X-6227000Y-4773040D02*
X-6227000Y-5773040D01*
X-5028120Y-5760480D02*
X-5528120Y-5760480D01*
X-5528120Y-5760480D02*
X-5528120Y-4760480D01*
X-5528120Y-4760480D02*
X-5028120Y-4760480D01*
X-5028120Y-4760480D02*
X-5028120Y-5760480D01*
D11*
X3279611Y-28039535D02*
X3279611Y-27706201D01*
X3803420Y-27563344D02*
X3803420Y-28039535D01*
X2803420Y-28039535D01*
X2803420Y-27563344D01*
X3755801Y-27182392D02*
X3803420Y-27039535D01*
X3803420Y-26801440D01*
X3755801Y-26706201D01*
X3708182Y-26658582D01*
X3612944Y-26610963D01*
X3517706Y-26610963D01*
X3422468Y-26658582D01*
X3374849Y-26706201D01*
X3327230Y-26801440D01*
X3279611Y-26991916D01*
X3231992Y-27087154D01*
X3184373Y-27134773D01*
X3089135Y-27182392D01*
X2993897Y-27182392D01*
X2898659Y-27134773D01*
X2851040Y-27087154D01*
X2803420Y-26991916D01*
X2803420Y-26753820D01*
X2851040Y-26610963D01*
X3803420Y-26182392D02*
X2803420Y-26182392D01*
X2803420Y-25801440D01*
X2851040Y-25706201D01*
X2898659Y-25658582D01*
X2993897Y-25610963D01*
X3136754Y-25610963D01*
X3231992Y-25658582D01*
X3279611Y-25706201D01*
X3327230Y-25801440D01*
X3327230Y-26182392D01*
X3422468Y-25182392D02*
X3422468Y-24420487D01*
X2803420Y-23753820D02*
X2803420Y-23658582D01*
X2851040Y-23563344D01*
X2898659Y-23515725D01*
X2993897Y-23468106D01*
X3184373Y-23420487D01*
X3422468Y-23420487D01*
X3612944Y-23468106D01*
X3708182Y-23515725D01*
X3755801Y-23563344D01*
X3803420Y-23658582D01*
X3803420Y-23753820D01*
X3755801Y-23849059D01*
X3708182Y-23896678D01*
X3612944Y-23944297D01*
X3422468Y-23991916D01*
X3184373Y-23991916D01*
X2993897Y-23944297D01*
X2898659Y-23896678D01*
X2851040Y-23849059D01*
X2803420Y-23753820D01*
X2803420Y-23087154D02*
X2803420Y-22420487D01*
X3803420Y-22849059D01*
X3755801Y-22087154D02*
X3803420Y-21944297D01*
X3803420Y-21706201D01*
X3755801Y-21610963D01*
X3708182Y-21563344D01*
X3612944Y-21515725D01*
X3517706Y-21515725D01*
X3422468Y-21563344D01*
X3374849Y-21610963D01*
X3327230Y-21706201D01*
X3279611Y-21896678D01*
X3231992Y-21991916D01*
X3184373Y-22039535D01*
X3089135Y-22087154D01*
X2993897Y-22087154D01*
X2898659Y-22039535D01*
X2851040Y-21991916D01*
X2803420Y-21896678D01*
X2803420Y-21658582D01*
X2851040Y-21515725D01*
X2792304Y-36159520D02*
X2220876Y-36159520D01*
X2506590Y-36159520D02*
X2506590Y-35159520D01*
X2411352Y-35302378D01*
X2316114Y-35397616D01*
X2220876Y-35445235D01*
X3411352Y-35159520D02*
X3506590Y-35159520D01*
X3601828Y-35207140D01*
X3649447Y-35254759D01*
X3697066Y-35349997D01*
X3744685Y-35540473D01*
X3744685Y-35778568D01*
X3697066Y-35969044D01*
X3649447Y-36064282D01*
X3601828Y-36111901D01*
X3506590Y-36159520D01*
X3411352Y-36159520D01*
X3316114Y-36111901D01*
X3268495Y-36064282D01*
X3220876Y-35969044D01*
X3173257Y-35778568D01*
X3173257Y-35540473D01*
X3220876Y-35349997D01*
X3268495Y-35254759D01*
X3316114Y-35207140D01*
X3411352Y-35159520D01*
X4363733Y-35159520D02*
X4458971Y-35159520D01*
X4554209Y-35207140D01*
X4601828Y-35254759D01*
X4649447Y-35349997D01*
X4697066Y-35540473D01*
X4697066Y-35778568D01*
X4649447Y-35969044D01*
X4601828Y-36064282D01*
X4554209Y-36111901D01*
X4458971Y-36159520D01*
X4363733Y-36159520D01*
X4268495Y-36111901D01*
X4220876Y-36064282D01*
X4173257Y-35969044D01*
X4125638Y-35778568D01*
X4125638Y-35540473D01*
X4173257Y-35349997D01*
X4220876Y-35254759D01*
X4268495Y-35207140D01*
X4363733Y-35159520D01*
X5316114Y-35159520D02*
X5411352Y-35159520D01*
X5506590Y-35207140D01*
X5554209Y-35254759D01*
X5601828Y-35349997D01*
X5649447Y-35540473D01*
X5649447Y-35778568D01*
X5601828Y-35969044D01*
X5554209Y-36064282D01*
X5506590Y-36111901D01*
X5411352Y-36159520D01*
X5316114Y-36159520D01*
X5220876Y-36111901D01*
X5173257Y-36064282D01*
X5125638Y-35969044D01*
X5078019Y-35778568D01*
X5078019Y-35540473D01*
X5125638Y-35349997D01*
X5173257Y-35254759D01*
X5220876Y-35207140D01*
X5316114Y-35159520D01*
X6506590Y-35492854D02*
X6506590Y-36159520D01*
X6078019Y-35492854D02*
X6078019Y-36016663D01*
X6125638Y-36111901D01*
X6220876Y-36159520D01*
X6363733Y-36159520D01*
X6458971Y-36111901D01*
X6506590Y-36064282D01*
X7316114Y-35635711D02*
X6982780Y-35635711D01*
X6982780Y-36159520D02*
X6982780Y-35159520D01*
X7458971Y-35159520D01*
X9125638Y-36159520D02*
X8554209Y-36159520D01*
X8839923Y-36159520D02*
X8839923Y-35159520D01*
X8744685Y-35302378D01*
X8649447Y-35397616D01*
X8554209Y-35445235D01*
X9744685Y-35159520D02*
X9839923Y-35159520D01*
X9935161Y-35207140D01*
X9982780Y-35254759D01*
X10030400Y-35349997D01*
X10078019Y-35540473D01*
X10078019Y-35778568D01*
X10030400Y-35969044D01*
X9982780Y-36064282D01*
X9935161Y-36111901D01*
X9839923Y-36159520D01*
X9744685Y-36159520D01*
X9649447Y-36111901D01*
X9601828Y-36064282D01*
X9554209Y-35969044D01*
X9506590Y-35778568D01*
X9506590Y-35540473D01*
X9554209Y-35349997D01*
X9601828Y-35254759D01*
X9649447Y-35207140D01*
X9744685Y-35159520D01*
X10411352Y-35492854D02*
X10649447Y-36159520D01*
X10887542Y-35492854D01*
X5887542Y-30814282D02*
X5839923Y-30861901D01*
X5697066Y-30909520D01*
X5601828Y-30909520D01*
X5458971Y-30861901D01*
X5363733Y-30766663D01*
X5316114Y-30671425D01*
X5268495Y-30480949D01*
X5268495Y-30338092D01*
X5316114Y-30147616D01*
X5363733Y-30052378D01*
X5458971Y-29957140D01*
X5601828Y-29909520D01*
X5697066Y-29909520D01*
X5839923Y-29957140D01*
X5887542Y-30004759D01*
X6268495Y-30004759D02*
X6316114Y-29957140D01*
X6411352Y-29909520D01*
X6649447Y-29909520D01*
X6744685Y-29957140D01*
X6792304Y-30004759D01*
X6839923Y-30099997D01*
X6839923Y-30195235D01*
X6792304Y-30338092D01*
X6220876Y-30909520D01*
X6839923Y-30909520D01*
X7220876Y-30004759D02*
X7268495Y-29957140D01*
X7363733Y-29909520D01*
X7601828Y-29909520D01*
X7697066Y-29957140D01*
X7744685Y-30004759D01*
X7792304Y-30099997D01*
X7792304Y-30195235D01*
X7744685Y-30338092D01*
X7173257Y-30909520D01*
X7792304Y-30909520D01*
X2751664Y-27500660D02*
X2180236Y-27500660D01*
X2465950Y-27500660D02*
X2465950Y-26500660D01*
X2370712Y-26643518D01*
X2275474Y-26738756D01*
X2180236Y-26786375D01*
X3370712Y-26500660D02*
X3465950Y-26500660D01*
X3561188Y-26548280D01*
X3608807Y-26595899D01*
X3656426Y-26691137D01*
X3704045Y-26881613D01*
X3704045Y-27119708D01*
X3656426Y-27310184D01*
X3608807Y-27405422D01*
X3561188Y-27453041D01*
X3465950Y-27500660D01*
X3370712Y-27500660D01*
X3275474Y-27453041D01*
X3227855Y-27405422D01*
X3180236Y-27310184D01*
X3132617Y-27119708D01*
X3132617Y-26881613D01*
X3180236Y-26691137D01*
X3227855Y-26595899D01*
X3275474Y-26548280D01*
X3370712Y-26500660D01*
X4323093Y-26500660D02*
X4418331Y-26500660D01*
X4513569Y-26548280D01*
X4561188Y-26595899D01*
X4608807Y-26691137D01*
X4656426Y-26881613D01*
X4656426Y-27119708D01*
X4608807Y-27310184D01*
X4561188Y-27405422D01*
X4513569Y-27453041D01*
X4418331Y-27500660D01*
X4323093Y-27500660D01*
X4227855Y-27453041D01*
X4180236Y-27405422D01*
X4132617Y-27310184D01*
X4084998Y-27119708D01*
X4084998Y-26881613D01*
X4132617Y-26691137D01*
X4180236Y-26595899D01*
X4227855Y-26548280D01*
X4323093Y-26500660D01*
X5275474Y-26500660D02*
X5370712Y-26500660D01*
X5465950Y-26548280D01*
X5513569Y-26595899D01*
X5561188Y-26691137D01*
X5608807Y-26881613D01*
X5608807Y-27119708D01*
X5561188Y-27310184D01*
X5513569Y-27405422D01*
X5465950Y-27453041D01*
X5370712Y-27500660D01*
X5275474Y-27500660D01*
X5180236Y-27453041D01*
X5132617Y-27405422D01*
X5084998Y-27310184D01*
X5037379Y-27119708D01*
X5037379Y-26881613D01*
X5084998Y-26691137D01*
X5132617Y-26595899D01*
X5180236Y-26548280D01*
X5275474Y-26500660D01*
X6465950Y-26833994D02*
X6465950Y-27500660D01*
X6037379Y-26833994D02*
X6037379Y-27357803D01*
X6084998Y-27453041D01*
X6180236Y-27500660D01*
X6323093Y-27500660D01*
X6418331Y-27453041D01*
X6465950Y-27405422D01*
X7275474Y-26976851D02*
X6942140Y-26976851D01*
X6942140Y-27500660D02*
X6942140Y-26500660D01*
X7418331Y-26500660D01*
X9084998Y-27500660D02*
X8513569Y-27500660D01*
X8799283Y-27500660D02*
X8799283Y-26500660D01*
X8704045Y-26643518D01*
X8608807Y-26738756D01*
X8513569Y-26786375D01*
X9704045Y-26500660D02*
X9799283Y-26500660D01*
X9894521Y-26548280D01*
X9942140Y-26595899D01*
X9989760Y-26691137D01*
X10037379Y-26881613D01*
X10037379Y-27119708D01*
X9989760Y-27310184D01*
X9942140Y-27405422D01*
X9894521Y-27453041D01*
X9799283Y-27500660D01*
X9704045Y-27500660D01*
X9608807Y-27453041D01*
X9561188Y-27405422D01*
X9513569Y-27310184D01*
X9465950Y-27119708D01*
X9465950Y-26881613D01*
X9513569Y-26691137D01*
X9561188Y-26595899D01*
X9608807Y-26548280D01*
X9704045Y-26500660D01*
X10370712Y-26833994D02*
X10608807Y-27500660D01*
X10846902Y-26833994D01*
X5846902Y-22155422D02*
X5799283Y-22203041D01*
X5656426Y-22250660D01*
X5561188Y-22250660D01*
X5418331Y-22203041D01*
X5323093Y-22107803D01*
X5275474Y-22012565D01*
X5227855Y-21822089D01*
X5227855Y-21679232D01*
X5275474Y-21488756D01*
X5323093Y-21393518D01*
X5418331Y-21298280D01*
X5561188Y-21250660D01*
X5656426Y-21250660D01*
X5799283Y-21298280D01*
X5846902Y-21345899D01*
X6227855Y-21345899D02*
X6275474Y-21298280D01*
X6370712Y-21250660D01*
X6608807Y-21250660D01*
X6704045Y-21298280D01*
X6751664Y-21345899D01*
X6799283Y-21441137D01*
X6799283Y-21536375D01*
X6751664Y-21679232D01*
X6180236Y-22250660D01*
X6799283Y-22250660D01*
X7656426Y-21583994D02*
X7656426Y-22250660D01*
X7418331Y-21203041D02*
X7180236Y-21917327D01*
X7799283Y-21917327D01*
X-17863141Y-15653404D02*
X-17910760Y-15605785D01*
X-17958380Y-15510547D01*
X-17958380Y-15272452D01*
X-17910760Y-15177214D01*
X-17863141Y-15129595D01*
X-17767903Y-15081976D01*
X-17672665Y-15081976D01*
X-17529808Y-15129595D01*
X-16958380Y-15701023D01*
X-16958380Y-15081976D01*
X-17863141Y-14701023D02*
X-17910760Y-14653404D01*
X-17958380Y-14558166D01*
X-17958380Y-14320071D01*
X-17910760Y-14224833D01*
X-17863141Y-14177214D01*
X-17767903Y-14129595D01*
X-17672665Y-14129595D01*
X-17529808Y-14177214D01*
X-16958380Y-14748642D01*
X-16958380Y-14129595D01*
X-16958380Y-13129595D02*
X-17434570Y-13462928D01*
X-16958380Y-13701023D02*
X-17958380Y-13701023D01*
X-17958380Y-13320071D01*
X-17910760Y-13224833D01*
X-17863141Y-13177214D01*
X-17767903Y-13129595D01*
X-17625046Y-13129595D01*
X-17529808Y-13177214D01*
X-17482189Y-13224833D01*
X-17434570Y-13320071D01*
X-17434570Y-13701023D01*
D12*
X-16127665Y-14552214D02*
X-16246713Y-14635547D01*
X-16127665Y-14695071D02*
X-16377665Y-14695071D01*
X-16377665Y-14599833D01*
X-16365760Y-14576023D01*
X-16353856Y-14564119D01*
X-16330046Y-14552214D01*
X-16294332Y-14552214D01*
X-16270522Y-14564119D01*
X-16258618Y-14576023D01*
X-16246713Y-14599833D01*
X-16246713Y-14695071D01*
X-16127665Y-14314119D02*
X-16127665Y-14456976D01*
X-16127665Y-14385547D02*
X-16377665Y-14385547D01*
X-16341951Y-14409357D01*
X-16318141Y-14433166D01*
X-16306237Y-14456976D01*
X-16377665Y-14159357D02*
X-16377665Y-14135547D01*
X-16365760Y-14111738D01*
X-16353856Y-14099833D01*
X-16330046Y-14087928D01*
X-16282427Y-14076023D01*
X-16222903Y-14076023D01*
X-16175284Y-14087928D01*
X-16151475Y-14099833D01*
X-16139570Y-14111738D01*
X-16127665Y-14135547D01*
X-16127665Y-14159357D01*
X-16139570Y-14183166D01*
X-16151475Y-14195071D01*
X-16175284Y-14206976D01*
X-16222903Y-14218880D01*
X-16282427Y-14218880D01*
X-16330046Y-14206976D01*
X-16353856Y-14195071D01*
X-16365760Y-14183166D01*
X-16377665Y-14159357D01*
D11*
X-15874321Y-15618124D02*
X-15921940Y-15570505D01*
X-15969560Y-15475267D01*
X-15969560Y-15237172D01*
X-15921940Y-15141934D01*
X-15874321Y-15094315D01*
X-15779083Y-15046696D01*
X-15683845Y-15046696D01*
X-15540988Y-15094315D01*
X-14969560Y-15665743D01*
X-14969560Y-15046696D01*
X-15874321Y-14665743D02*
X-15921940Y-14618124D01*
X-15969560Y-14522886D01*
X-15969560Y-14284791D01*
X-15921940Y-14189553D01*
X-15874321Y-14141934D01*
X-15779083Y-14094315D01*
X-15683845Y-14094315D01*
X-15540988Y-14141934D01*
X-14969560Y-14713362D01*
X-14969560Y-14094315D01*
X-14969560Y-13094315D02*
X-15445750Y-13427648D01*
X-14969560Y-13665743D02*
X-15969560Y-13665743D01*
X-15969560Y-13284791D01*
X-15921940Y-13189553D01*
X-15874321Y-13141934D01*
X-15779083Y-13094315D01*
X-15636226Y-13094315D01*
X-15540988Y-13141934D01*
X-15493369Y-13189553D01*
X-15445750Y-13284791D01*
X-15445750Y-13665743D01*
D12*
X-14138845Y-14397886D02*
X-14257893Y-14481220D01*
X-14138845Y-14540743D02*
X-14388845Y-14540743D01*
X-14388845Y-14445505D01*
X-14376940Y-14421696D01*
X-14365036Y-14409791D01*
X-14341226Y-14397886D01*
X-14305512Y-14397886D01*
X-14281702Y-14409791D01*
X-14269798Y-14421696D01*
X-14257893Y-14445505D01*
X-14257893Y-14540743D01*
X-14138845Y-14278839D02*
X-14138845Y-14231220D01*
X-14150750Y-14207410D01*
X-14162655Y-14195505D01*
X-14198369Y-14171696D01*
X-14245988Y-14159791D01*
X-14341226Y-14159791D01*
X-14365036Y-14171696D01*
X-14376940Y-14183600D01*
X-14388845Y-14207410D01*
X-14388845Y-14255029D01*
X-14376940Y-14278839D01*
X-14365036Y-14290743D01*
X-14341226Y-14302648D01*
X-14281702Y-14302648D01*
X-14257893Y-14290743D01*
X-14245988Y-14278839D01*
X-14234083Y-14255029D01*
X-14234083Y-14207410D01*
X-14245988Y-14183600D01*
X-14257893Y-14171696D01*
X-14281702Y-14159791D01*
D11*
X-11936040Y-37679739D02*
X-11936040Y-37584500D01*
X-11888420Y-37489262D01*
X-11840801Y-37441643D01*
X-11745563Y-37394024D01*
X-11555087Y-37346405D01*
X-11316992Y-37346405D01*
X-11126516Y-37394024D01*
X-11031278Y-37441643D01*
X-10983659Y-37489262D01*
X-10936040Y-37584500D01*
X-10936040Y-37679739D01*
X-10983659Y-37774977D01*
X-11031278Y-37822596D01*
X-11126516Y-37870215D01*
X-11316992Y-37917834D01*
X-11555087Y-37917834D01*
X-11745563Y-37870215D01*
X-11840801Y-37822596D01*
X-11888420Y-37774977D01*
X-11936040Y-37679739D01*
X-10936040Y-36346405D02*
X-11412230Y-36679739D01*
X-10936040Y-36917834D02*
X-11936040Y-36917834D01*
X-11936040Y-36536881D01*
X-11888420Y-36441643D01*
X-11840801Y-36394024D01*
X-11745563Y-36346405D01*
X-11602706Y-36346405D01*
X-11507468Y-36394024D01*
X-11459849Y-36441643D01*
X-11412230Y-36536881D01*
X-11412230Y-36917834D01*
D12*
X-10105325Y-37173786D02*
X-10224373Y-37257120D01*
X-10105325Y-37316643D02*
X-10355325Y-37316643D01*
X-10355325Y-37221405D01*
X-10343420Y-37197596D01*
X-10331516Y-37185691D01*
X-10307706Y-37173786D01*
X-10271992Y-37173786D01*
X-10248182Y-37185691D01*
X-10236278Y-37197596D01*
X-10224373Y-37221405D01*
X-10224373Y-37316643D01*
X-10355325Y-36959500D02*
X-10355325Y-37007120D01*
X-10343420Y-37030929D01*
X-10331516Y-37042834D01*
X-10295801Y-37066643D01*
X-10248182Y-37078548D01*
X-10152944Y-37078548D01*
X-10129135Y-37066643D01*
X-10117230Y-37054739D01*
X-10105325Y-37030929D01*
X-10105325Y-36983310D01*
X-10117230Y-36959500D01*
X-10129135Y-36947596D01*
X-10152944Y-36935691D01*
X-10212468Y-36935691D01*
X-10236278Y-36947596D01*
X-10248182Y-36959500D01*
X-10260087Y-36983310D01*
X-10260087Y-37030929D01*
X-10248182Y-37054739D01*
X-10236278Y-37066643D01*
X-10212468Y-37078548D01*
D11*
X-8444957Y-11829980D02*
X-9016385Y-11829980D01*
X-8730671Y-11829980D02*
X-8730671Y-10829980D01*
X-8825909Y-10972838D01*
X-8921147Y-11068076D01*
X-9016385Y-11115695D01*
X-7825909Y-10829980D02*
X-7730671Y-10829980D01*
X-7635433Y-10877600D01*
X-7587814Y-10925219D01*
X-7540195Y-11020457D01*
X-7492576Y-11210933D01*
X-7492576Y-11449028D01*
X-7540195Y-11639504D01*
X-7587814Y-11734742D01*
X-7635433Y-11782361D01*
X-7730671Y-11829980D01*
X-7825909Y-11829980D01*
X-7921147Y-11782361D01*
X-7968766Y-11734742D01*
X-8016385Y-11639504D01*
X-8064004Y-11449028D01*
X-8064004Y-11210933D01*
X-8016385Y-11020457D01*
X-7968766Y-10925219D01*
X-7921147Y-10877600D01*
X-7825909Y-10829980D01*
X-7064004Y-11829980D02*
X-7064004Y-10829980D01*
X-6492576Y-11829980D02*
X-6921147Y-11258552D01*
X-6492576Y-10829980D02*
X-7064004Y-11401409D01*
D12*
X-7915195Y-12660695D02*
X-7998528Y-12541647D01*
X-8058052Y-12660695D02*
X-8058052Y-12410695D01*
X-7962814Y-12410695D01*
X-7939004Y-12422600D01*
X-7927100Y-12434504D01*
X-7915195Y-12458314D01*
X-7915195Y-12494028D01*
X-7927100Y-12517838D01*
X-7939004Y-12529742D01*
X-7962814Y-12541647D01*
X-8058052Y-12541647D01*
X-7677100Y-12660695D02*
X-7819957Y-12660695D01*
X-7748528Y-12660695D02*
X-7748528Y-12410695D01*
X-7772338Y-12446409D01*
X-7796147Y-12470219D01*
X-7819957Y-12482123D01*
X-7439004Y-12660695D02*
X-7581861Y-12660695D01*
X-7510433Y-12660695D02*
X-7510433Y-12410695D01*
X-7534242Y-12446409D01*
X-7558052Y-12470219D01*
X-7581861Y-12482123D01*
D11*
X-14499000Y-37779696D02*
X-14499000Y-38351124D01*
X-14499000Y-38065410D02*
X-15499000Y-38065410D01*
X-15356142Y-38160648D01*
X-15260904Y-38255886D01*
X-15213285Y-38351124D01*
X-15499000Y-37160648D02*
X-15499000Y-37065410D01*
X-15451380Y-36970172D01*
X-15403761Y-36922553D01*
X-15308523Y-36874934D01*
X-15118047Y-36827315D01*
X-14879952Y-36827315D01*
X-14689476Y-36874934D01*
X-14594238Y-36922553D01*
X-14546619Y-36970172D01*
X-14499000Y-37065410D01*
X-14499000Y-37160648D01*
X-14546619Y-37255886D01*
X-14594238Y-37303505D01*
X-14689476Y-37351124D01*
X-14879952Y-37398743D01*
X-15118047Y-37398743D01*
X-15308523Y-37351124D01*
X-15403761Y-37303505D01*
X-15451380Y-37255886D01*
X-15499000Y-37160648D01*
X-14499000Y-36398743D02*
X-15499000Y-36398743D01*
X-14499000Y-35827315D02*
X-15070428Y-36255886D01*
X-15499000Y-35827315D02*
X-14927571Y-36398743D01*
D12*
X-16008285Y-37130886D02*
X-16127333Y-37214220D01*
X-16008285Y-37273743D02*
X-16258285Y-37273743D01*
X-16258285Y-37178505D01*
X-16246380Y-37154696D01*
X-16234476Y-37142791D01*
X-16210666Y-37130886D01*
X-16174952Y-37130886D01*
X-16151142Y-37142791D01*
X-16139238Y-37154696D01*
X-16127333Y-37178505D01*
X-16127333Y-37273743D01*
X-16258285Y-36904696D02*
X-16258285Y-37023743D01*
X-16139238Y-37035648D01*
X-16151142Y-37023743D01*
X-16163047Y-36999934D01*
X-16163047Y-36940410D01*
X-16151142Y-36916600D01*
X-16139238Y-36904696D01*
X-16115428Y-36892791D01*
X-16055904Y-36892791D01*
X-16032095Y-36904696D01*
X-16020190Y-36916600D01*
X-16008285Y-36940410D01*
X-16008285Y-36999934D01*
X-16020190Y-37023743D01*
X-16032095Y-37035648D01*
D11*
X-12942640Y-38043856D02*
X-12942640Y-38615284D01*
X-12942640Y-38329570D02*
X-13942640Y-38329570D01*
X-13799782Y-38424808D01*
X-13704544Y-38520046D01*
X-13656925Y-38615284D01*
X-13942640Y-37424808D02*
X-13942640Y-37329570D01*
X-13895020Y-37234332D01*
X-13847401Y-37186713D01*
X-13752163Y-37139094D01*
X-13561687Y-37091475D01*
X-13323592Y-37091475D01*
X-13133116Y-37139094D01*
X-13037878Y-37186713D01*
X-12990259Y-37234332D01*
X-12942640Y-37329570D01*
X-12942640Y-37424808D01*
X-12990259Y-37520046D01*
X-13037878Y-37567665D01*
X-13133116Y-37615284D01*
X-13323592Y-37662903D01*
X-13561687Y-37662903D01*
X-13752163Y-37615284D01*
X-13847401Y-37567665D01*
X-13895020Y-37520046D01*
X-13942640Y-37424808D01*
X-12942640Y-36662903D02*
X-13942640Y-36662903D01*
X-12942640Y-36091475D02*
X-13514068Y-36520046D01*
X-13942640Y-36091475D02*
X-13371211Y-36662903D01*
D12*
X-12111925Y-37395046D02*
X-12230973Y-37478380D01*
X-12111925Y-37537903D02*
X-12361925Y-37537903D01*
X-12361925Y-37442665D01*
X-12350020Y-37418856D01*
X-12338116Y-37406951D01*
X-12314306Y-37395046D01*
X-12278592Y-37395046D01*
X-12254782Y-37406951D01*
X-12242878Y-37418856D01*
X-12230973Y-37442665D01*
X-12230973Y-37537903D01*
X-12278592Y-37180760D02*
X-12111925Y-37180760D01*
X-12373830Y-37240284D02*
X-12195259Y-37299808D01*
X-12195259Y-37145046D01*
D11*
X-13819999Y-15333300D02*
X-14391427Y-15333300D01*
X-14105713Y-15333300D02*
X-14105713Y-14333300D01*
X-14200951Y-14476158D01*
X-14296189Y-14571396D01*
X-14391427Y-14619015D01*
X-13200951Y-14333300D02*
X-13105713Y-14333300D01*
X-13010475Y-14380920D01*
X-12962856Y-14428539D01*
X-12915237Y-14523777D01*
X-12867618Y-14714253D01*
X-12867618Y-14952348D01*
X-12915237Y-15142824D01*
X-12962856Y-15238062D01*
X-13010475Y-15285681D01*
X-13105713Y-15333300D01*
X-13200951Y-15333300D01*
X-13296189Y-15285681D01*
X-13343808Y-15238062D01*
X-13391427Y-15142824D01*
X-13439046Y-14952348D01*
X-13439046Y-14714253D01*
X-13391427Y-14523777D01*
X-13343808Y-14428539D01*
X-13296189Y-14380920D01*
X-13200951Y-14333300D01*
X-12248570Y-14333300D02*
X-12153332Y-14333300D01*
X-12058094Y-14380920D01*
X-12010475Y-14428539D01*
X-11962856Y-14523777D01*
X-11915237Y-14714253D01*
X-11915237Y-14952348D01*
X-11962856Y-15142824D01*
X-12010475Y-15238062D01*
X-12058094Y-15285681D01*
X-12153332Y-15333300D01*
X-12248570Y-15333300D01*
X-12343808Y-15285681D01*
X-12391427Y-15238062D01*
X-12439046Y-15142824D01*
X-12486665Y-14952348D01*
X-12486665Y-14714253D01*
X-12439046Y-14523777D01*
X-12391427Y-14428539D01*
X-12343808Y-14380920D01*
X-12248570Y-14333300D01*
X-11486665Y-14666634D02*
X-11486665Y-15333300D01*
X-11486665Y-14761872D02*
X-11439046Y-14714253D01*
X-11343808Y-14666634D01*
X-11200951Y-14666634D01*
X-11105713Y-14714253D01*
X-11058094Y-14809491D01*
X-11058094Y-15333300D01*
X-10248570Y-14809491D02*
X-10581903Y-14809491D01*
X-10581903Y-15333300D02*
X-10581903Y-14333300D01*
X-10105713Y-14333300D01*
X-8439046Y-15333300D02*
X-9010475Y-15333300D01*
X-8724760Y-15333300D02*
X-8724760Y-14333300D01*
X-8819999Y-14476158D01*
X-8915237Y-14571396D01*
X-9010475Y-14619015D01*
X-7819999Y-14333300D02*
X-7724760Y-14333300D01*
X-7629522Y-14380920D01*
X-7581903Y-14428539D01*
X-7534284Y-14523777D01*
X-7486665Y-14714253D01*
X-7486665Y-14952348D01*
X-7534284Y-15142824D01*
X-7581903Y-15238062D01*
X-7629522Y-15285681D01*
X-7724760Y-15333300D01*
X-7819999Y-15333300D01*
X-7915237Y-15285681D01*
X-7962856Y-15238062D01*
X-8010475Y-15142824D01*
X-8058094Y-14952348D01*
X-8058094Y-14714253D01*
X-8010475Y-14523777D01*
X-7962856Y-14428539D01*
X-7915237Y-14380920D01*
X-7819999Y-14333300D01*
X-7153332Y-14666634D02*
X-6915237Y-15333300D01*
X-6677141Y-14666634D01*
X-5629522Y-14333300D02*
X-4962856Y-15333300D01*
X-4962856Y-14333300D02*
X-5629522Y-15333300D01*
X-4105713Y-14333300D02*
X-4581903Y-14333300D01*
X-4629522Y-14809491D01*
X-4581903Y-14761872D01*
X-4486665Y-14714253D01*
X-4248570Y-14714253D01*
X-4153332Y-14761872D01*
X-4105713Y-14809491D01*
X-4058094Y-14904729D01*
X-4058094Y-15142824D01*
X-4105713Y-15238062D01*
X-4153332Y-15285681D01*
X-4248570Y-15333300D01*
X-4486665Y-15333300D01*
X-4581903Y-15285681D01*
X-4629522Y-15238062D01*
X-3058094Y-15333300D02*
X-3391427Y-14857110D01*
X-3629522Y-15333300D02*
X-3629522Y-14333300D01*
X-3248570Y-14333300D01*
X-3153332Y-14380920D01*
X-3105713Y-14428539D01*
X-3058094Y-14523777D01*
X-3058094Y-14666634D01*
X-3105713Y-14761872D01*
X-3153332Y-14809491D01*
X-3248570Y-14857110D01*
X-3629522Y-14857110D01*
D12*
X-8885475Y-13800205D02*
X-8897380Y-13812110D01*
X-8933094Y-13824015D01*
X-8956903Y-13824015D01*
X-8992618Y-13812110D01*
X-9016427Y-13788300D01*
X-9028332Y-13764491D01*
X-9040237Y-13716872D01*
X-9040237Y-13681158D01*
X-9028332Y-13633539D01*
X-9016427Y-13609729D01*
X-8992618Y-13585920D01*
X-8956903Y-13574015D01*
X-8933094Y-13574015D01*
X-8897380Y-13585920D01*
X-8885475Y-13597824D01*
X-8790237Y-13597824D02*
X-8778332Y-13585920D01*
X-8754522Y-13574015D01*
X-8694999Y-13574015D01*
X-8671189Y-13585920D01*
X-8659284Y-13597824D01*
X-8647380Y-13621634D01*
X-8647380Y-13645443D01*
X-8659284Y-13681158D01*
X-8802141Y-13824015D01*
X-8647380Y-13824015D01*
X-8528332Y-13824015D02*
X-8480713Y-13824015D01*
X-8456903Y-13812110D01*
X-8444999Y-13800205D01*
X-8421189Y-13764491D01*
X-8409284Y-13716872D01*
X-8409284Y-13621634D01*
X-8421189Y-13597824D01*
X-8433094Y-13585920D01*
X-8456903Y-13574015D01*
X-8504522Y-13574015D01*
X-8528332Y-13585920D01*
X-8540237Y-13597824D01*
X-8552141Y-13621634D01*
X-8552141Y-13681158D01*
X-8540237Y-13704967D01*
X-8528332Y-13716872D01*
X-8504522Y-13728777D01*
X-8456903Y-13728777D01*
X-8433094Y-13716872D01*
X-8421189Y-13704967D01*
X-8409284Y-13681158D01*
D11*
X-6364168Y-35251320D02*
X-6935597Y-35251320D01*
X-6649882Y-35251320D02*
X-6649882Y-34251320D01*
X-6745120Y-34394178D01*
X-6840359Y-34489416D01*
X-6935597Y-34537035D01*
X-5745120Y-34251320D02*
X-5649882Y-34251320D01*
X-5554644Y-34298940D01*
X-5507025Y-34346559D01*
X-5459406Y-34441797D01*
X-5411787Y-34632273D01*
X-5411787Y-34870368D01*
X-5459406Y-35060844D01*
X-5507025Y-35156082D01*
X-5554644Y-35203701D01*
X-5649882Y-35251320D01*
X-5745120Y-35251320D01*
X-5840359Y-35203701D01*
X-5887978Y-35156082D01*
X-5935597Y-35060844D01*
X-5983216Y-34870368D01*
X-5983216Y-34632273D01*
X-5935597Y-34441797D01*
X-5887978Y-34346559D01*
X-5840359Y-34298940D01*
X-5745120Y-34251320D01*
X-4554644Y-34584654D02*
X-4554644Y-35251320D01*
X-4983216Y-34584654D02*
X-4983216Y-35108463D01*
X-4935597Y-35203701D01*
X-4840359Y-35251320D01*
X-4697501Y-35251320D01*
X-4602263Y-35203701D01*
X-4554644Y-35156082D01*
X-3745120Y-34727511D02*
X-4078454Y-34727511D01*
X-4078454Y-35251320D02*
X-4078454Y-34251320D01*
X-3602263Y-34251320D01*
X-1935597Y-35251320D02*
X-2507025Y-35251320D01*
X-2221311Y-35251320D02*
X-2221311Y-34251320D01*
X-2316549Y-34394178D01*
X-2411787Y-34489416D01*
X-2507025Y-34537035D01*
X-1316549Y-34251320D02*
X-1221311Y-34251320D01*
X-1126073Y-34298940D01*
X-1078454Y-34346559D01*
X-1030835Y-34441797D01*
X-983216Y-34632273D01*
X-983216Y-34870368D01*
X-1030835Y-35060844D01*
X-1078454Y-35156082D01*
X-1126073Y-35203701D01*
X-1221311Y-35251320D01*
X-1316549Y-35251320D01*
X-1411787Y-35203701D01*
X-1459406Y-35156082D01*
X-1507025Y-35060844D01*
X-1554644Y-34870368D01*
X-1554644Y-34632273D01*
X-1507025Y-34441797D01*
X-1459406Y-34346559D01*
X-1411787Y-34298940D01*
X-1316549Y-34251320D01*
X-649882Y-34584654D02*
X-411787Y-35251320D01*
X-173692Y-34584654D01*
X873927Y-34251320D02*
X1540594Y-35251320D01*
X1540594Y-34251320D02*
X873927Y-35251320D01*
X2397737Y-34251320D02*
X1921546Y-34251320D01*
X1873927Y-34727511D01*
X1921546Y-34679892D01*
X2016784Y-34632273D01*
X2254880Y-34632273D01*
X2350118Y-34679892D01*
X2397737Y-34727511D01*
X2445356Y-34822749D01*
X2445356Y-35060844D01*
X2397737Y-35156082D01*
X2350118Y-35203701D01*
X2254880Y-35251320D01*
X2016784Y-35251320D01*
X1921546Y-35203701D01*
X1873927Y-35156082D01*
X3445356Y-35251320D02*
X3112022Y-34775130D01*
X2873927Y-35251320D02*
X2873927Y-34251320D01*
X3254880Y-34251320D01*
X3350118Y-34298940D01*
X3397737Y-34346559D01*
X3445356Y-34441797D01*
X3445356Y-34584654D01*
X3397737Y-34679892D01*
X3350118Y-34727511D01*
X3254880Y-34775130D01*
X2873927Y-34775130D01*
D12*
X-1786787Y-36058225D02*
X-1798692Y-36070130D01*
X-1834406Y-36082035D01*
X-1858216Y-36082035D01*
X-1893930Y-36070130D01*
X-1917740Y-36046320D01*
X-1929644Y-36022511D01*
X-1941549Y-35974892D01*
X-1941549Y-35939178D01*
X-1929644Y-35891559D01*
X-1917740Y-35867749D01*
X-1893930Y-35843940D01*
X-1858216Y-35832035D01*
X-1834406Y-35832035D01*
X-1798692Y-35843940D01*
X-1786787Y-35855844D01*
X-1667740Y-36082035D02*
X-1620120Y-36082035D01*
X-1596311Y-36070130D01*
X-1584406Y-36058225D01*
X-1560597Y-36022511D01*
X-1548692Y-35974892D01*
X-1548692Y-35879654D01*
X-1560597Y-35855844D01*
X-1572501Y-35843940D01*
X-1596311Y-35832035D01*
X-1643930Y-35832035D01*
X-1667740Y-35843940D01*
X-1679644Y-35855844D01*
X-1691549Y-35879654D01*
X-1691549Y-35939178D01*
X-1679644Y-35962987D01*
X-1667740Y-35974892D01*
X-1643930Y-35986797D01*
X-1596311Y-35986797D01*
X-1572501Y-35974892D01*
X-1560597Y-35962987D01*
X-1548692Y-35939178D01*
D11*
X-6840359Y-34179440D02*
X-7411787Y-34179440D01*
X-7126073Y-34179440D02*
X-7126073Y-33179440D01*
X-7221311Y-33322298D01*
X-7316549Y-33417536D01*
X-7411787Y-33465155D01*
X-6221311Y-33179440D02*
X-6126073Y-33179440D01*
X-6030835Y-33227060D01*
X-5983216Y-33274679D01*
X-5935597Y-33369917D01*
X-5887978Y-33560393D01*
X-5887978Y-33798488D01*
X-5935597Y-33988964D01*
X-5983216Y-34084202D01*
X-6030835Y-34131821D01*
X-6126073Y-34179440D01*
X-6221311Y-34179440D01*
X-6316549Y-34131821D01*
X-6364168Y-34084202D01*
X-6411787Y-33988964D01*
X-6459406Y-33798488D01*
X-6459406Y-33560393D01*
X-6411787Y-33369917D01*
X-6364168Y-33274679D01*
X-6316549Y-33227060D01*
X-6221311Y-33179440D01*
X-5268930Y-33179440D02*
X-5173692Y-33179440D01*
X-5078454Y-33227060D01*
X-5030835Y-33274679D01*
X-4983216Y-33369917D01*
X-4935597Y-33560393D01*
X-4935597Y-33798488D01*
X-4983216Y-33988964D01*
X-5030835Y-34084202D01*
X-5078454Y-34131821D01*
X-5173692Y-34179440D01*
X-5268930Y-34179440D01*
X-5364168Y-34131821D01*
X-5411787Y-34084202D01*
X-5459406Y-33988964D01*
X-5507025Y-33798488D01*
X-5507025Y-33560393D01*
X-5459406Y-33369917D01*
X-5411787Y-33274679D01*
X-5364168Y-33227060D01*
X-5268930Y-33179440D01*
X-4507025Y-33512774D02*
X-4507025Y-34179440D01*
X-4507025Y-33608012D02*
X-4459406Y-33560393D01*
X-4364168Y-33512774D01*
X-4221311Y-33512774D01*
X-4126073Y-33560393D01*
X-4078454Y-33655631D01*
X-4078454Y-34179440D01*
X-3268930Y-33655631D02*
X-3602263Y-33655631D01*
X-3602263Y-34179440D02*
X-3602263Y-33179440D01*
X-3126073Y-33179440D01*
X-1459406Y-34179440D02*
X-2030835Y-34179440D01*
X-1745120Y-34179440D02*
X-1745120Y-33179440D01*
X-1840359Y-33322298D01*
X-1935597Y-33417536D01*
X-2030835Y-33465155D01*
X-840359Y-33179440D02*
X-745120Y-33179440D01*
X-649882Y-33227060D01*
X-602263Y-33274679D01*
X-554644Y-33369917D01*
X-507025Y-33560393D01*
X-507025Y-33798488D01*
X-554644Y-33988964D01*
X-602263Y-34084202D01*
X-649882Y-34131821D01*
X-745120Y-34179440D01*
X-840359Y-34179440D01*
X-935597Y-34131821D01*
X-983216Y-34084202D01*
X-1030835Y-33988964D01*
X-1078454Y-33798488D01*
X-1078454Y-33560393D01*
X-1030835Y-33369917D01*
X-983216Y-33274679D01*
X-935597Y-33227060D01*
X-840359Y-33179440D01*
X-173692Y-33512774D02*
X64403Y-34179440D01*
X302499Y-33512774D01*
X1350118Y-33179440D02*
X2016784Y-34179440D01*
X2016784Y-33179440D02*
X1350118Y-34179440D01*
X2873927Y-33179440D02*
X2397737Y-33179440D01*
X2350118Y-33655631D01*
X2397737Y-33608012D01*
X2492975Y-33560393D01*
X2731070Y-33560393D01*
X2826308Y-33608012D01*
X2873927Y-33655631D01*
X2921546Y-33750869D01*
X2921546Y-33988964D01*
X2873927Y-34084202D01*
X2826308Y-34131821D01*
X2731070Y-34179440D01*
X2492975Y-34179440D01*
X2397737Y-34131821D01*
X2350118Y-34084202D01*
X3921546Y-34179440D02*
X3588213Y-33703250D01*
X3350118Y-34179440D02*
X3350118Y-33179440D01*
X3731070Y-33179440D01*
X3826308Y-33227060D01*
X3873927Y-33274679D01*
X3921546Y-33369917D01*
X3921546Y-33512774D01*
X3873927Y-33608012D01*
X3826308Y-33655631D01*
X3731070Y-33703250D01*
X3350118Y-33703250D01*
D12*
X-1905835Y-34986345D02*
X-1917740Y-34998250D01*
X-1953454Y-35010155D01*
X-1977263Y-35010155D01*
X-2012978Y-34998250D01*
X-2036787Y-34974440D01*
X-2048692Y-34950631D01*
X-2060597Y-34903012D01*
X-2060597Y-34867298D01*
X-2048692Y-34819679D01*
X-2036787Y-34795869D01*
X-2012978Y-34772060D01*
X-1977263Y-34760155D01*
X-1953454Y-34760155D01*
X-1917740Y-34772060D01*
X-1905835Y-34783964D01*
X-1667740Y-35010155D02*
X-1810597Y-35010155D01*
X-1739168Y-35010155D02*
X-1739168Y-34760155D01*
X-1762978Y-34795869D01*
X-1786787Y-34819679D01*
X-1810597Y-34831583D01*
X-1453454Y-34843488D02*
X-1453454Y-35010155D01*
X-1512978Y-34748250D02*
X-1572501Y-34926821D01*
X-1417740Y-34926821D01*
D11*
X-21696539Y-37129040D02*
X-22267967Y-37129040D01*
X-21982253Y-37129040D02*
X-21982253Y-36129040D01*
X-22077491Y-36271898D01*
X-22172729Y-36367136D01*
X-22267967Y-36414755D01*
X-21077491Y-36129040D02*
X-20982253Y-36129040D01*
X-20887015Y-36176660D01*
X-20839396Y-36224279D01*
X-20791777Y-36319517D01*
X-20744158Y-36509993D01*
X-20744158Y-36748088D01*
X-20791777Y-36938564D01*
X-20839396Y-37033802D01*
X-20887015Y-37081421D01*
X-20982253Y-37129040D01*
X-21077491Y-37129040D01*
X-21172729Y-37081421D01*
X-21220348Y-37033802D01*
X-21267967Y-36938564D01*
X-21315586Y-36748088D01*
X-21315586Y-36509993D01*
X-21267967Y-36319517D01*
X-21220348Y-36224279D01*
X-21172729Y-36176660D01*
X-21077491Y-36129040D01*
X-20125110Y-36129040D02*
X-20029872Y-36129040D01*
X-19934634Y-36176660D01*
X-19887015Y-36224279D01*
X-19839396Y-36319517D01*
X-19791777Y-36509993D01*
X-19791777Y-36748088D01*
X-19839396Y-36938564D01*
X-19887015Y-37033802D01*
X-19934634Y-37081421D01*
X-20029872Y-37129040D01*
X-20125110Y-37129040D01*
X-20220348Y-37081421D01*
X-20267967Y-37033802D01*
X-20315586Y-36938564D01*
X-20363205Y-36748088D01*
X-20363205Y-36509993D01*
X-20315586Y-36319517D01*
X-20267967Y-36224279D01*
X-20220348Y-36176660D01*
X-20125110Y-36129040D01*
X-19363205Y-36462374D02*
X-19363205Y-37129040D01*
X-19363205Y-36557612D02*
X-19315586Y-36509993D01*
X-19220348Y-36462374D01*
X-19077491Y-36462374D01*
X-18982253Y-36509993D01*
X-18934634Y-36605231D01*
X-18934634Y-37129040D01*
X-18125110Y-36605231D02*
X-18458443Y-36605231D01*
X-18458443Y-37129040D02*
X-18458443Y-36129040D01*
X-17982253Y-36129040D01*
X-16315586Y-37129040D02*
X-16887015Y-37129040D01*
X-16601300Y-37129040D02*
X-16601300Y-36129040D01*
X-16696539Y-36271898D01*
X-16791777Y-36367136D01*
X-16887015Y-36414755D01*
X-15696539Y-36129040D02*
X-15601300Y-36129040D01*
X-15506062Y-36176660D01*
X-15458443Y-36224279D01*
X-15410824Y-36319517D01*
X-15363205Y-36509993D01*
X-15363205Y-36748088D01*
X-15410824Y-36938564D01*
X-15458443Y-37033802D01*
X-15506062Y-37081421D01*
X-15601300Y-37129040D01*
X-15696539Y-37129040D01*
X-15791777Y-37081421D01*
X-15839396Y-37033802D01*
X-15887015Y-36938564D01*
X-15934634Y-36748088D01*
X-15934634Y-36509993D01*
X-15887015Y-36319517D01*
X-15839396Y-36224279D01*
X-15791777Y-36176660D01*
X-15696539Y-36129040D01*
X-15029872Y-36462374D02*
X-14791777Y-37129040D01*
X-14553681Y-36462374D01*
X-13506062Y-36129040D02*
X-12839396Y-37129040D01*
X-12839396Y-36129040D02*
X-13506062Y-37129040D01*
X-11982253Y-36129040D02*
X-12458443Y-36129040D01*
X-12506062Y-36605231D01*
X-12458443Y-36557612D01*
X-12363205Y-36509993D01*
X-12125110Y-36509993D01*
X-12029872Y-36557612D01*
X-11982253Y-36605231D01*
X-11934634Y-36700469D01*
X-11934634Y-36938564D01*
X-11982253Y-37033802D01*
X-12029872Y-37081421D01*
X-12125110Y-37129040D01*
X-12363205Y-37129040D01*
X-12458443Y-37081421D01*
X-12506062Y-37033802D01*
X-10934634Y-37129040D02*
X-11267967Y-36652850D01*
X-11506062Y-37129040D02*
X-11506062Y-36129040D01*
X-11125110Y-36129040D01*
X-11029872Y-36176660D01*
X-10982253Y-36224279D01*
X-10934634Y-36319517D01*
X-10934634Y-36462374D01*
X-10982253Y-36557612D01*
X-11029872Y-36605231D01*
X-11125110Y-36652850D01*
X-11506062Y-36652850D01*
D12*
X-16642967Y-35595945D02*
X-16654872Y-35607850D01*
X-16690586Y-35619755D01*
X-16714396Y-35619755D01*
X-16750110Y-35607850D01*
X-16773920Y-35584040D01*
X-16785824Y-35560231D01*
X-16797729Y-35512612D01*
X-16797729Y-35476898D01*
X-16785824Y-35429279D01*
X-16773920Y-35405469D01*
X-16750110Y-35381660D01*
X-16714396Y-35369755D01*
X-16690586Y-35369755D01*
X-16654872Y-35381660D01*
X-16642967Y-35393564D01*
X-16500110Y-35476898D02*
X-16523920Y-35464993D01*
X-16535824Y-35453088D01*
X-16547729Y-35429279D01*
X-16547729Y-35417374D01*
X-16535824Y-35393564D01*
X-16523920Y-35381660D01*
X-16500110Y-35369755D01*
X-16452491Y-35369755D01*
X-16428681Y-35381660D01*
X-16416777Y-35393564D01*
X-16404872Y-35417374D01*
X-16404872Y-35429279D01*
X-16416777Y-35453088D01*
X-16428681Y-35464993D01*
X-16452491Y-35476898D01*
X-16500110Y-35476898D01*
X-16523920Y-35488802D01*
X-16535824Y-35500707D01*
X-16547729Y-35524517D01*
X-16547729Y-35572136D01*
X-16535824Y-35595945D01*
X-16523920Y-35607850D01*
X-16500110Y-35619755D01*
X-16452491Y-35619755D01*
X-16428681Y-35607850D01*
X-16416777Y-35595945D01*
X-16404872Y-35572136D01*
X-16404872Y-35524517D01*
X-16416777Y-35500707D01*
X-16428681Y-35488802D01*
X-16452491Y-35476898D01*
D11*
X-17764619Y-37370340D02*
X-18336047Y-37370340D01*
X-18050333Y-37370340D02*
X-18050333Y-36370340D01*
X-18145571Y-36513198D01*
X-18240809Y-36608436D01*
X-18336047Y-36656055D01*
X-17145571Y-36370340D02*
X-17050333Y-36370340D01*
X-16955095Y-36417960D01*
X-16907476Y-36465579D01*
X-16859857Y-36560817D01*
X-16812238Y-36751293D01*
X-16812238Y-36989388D01*
X-16859857Y-37179864D01*
X-16907476Y-37275102D01*
X-16955095Y-37322721D01*
X-17050333Y-37370340D01*
X-17145571Y-37370340D01*
X-17240809Y-37322721D01*
X-17288428Y-37275102D01*
X-17336047Y-37179864D01*
X-17383666Y-36989388D01*
X-17383666Y-36751293D01*
X-17336047Y-36560817D01*
X-17288428Y-36465579D01*
X-17240809Y-36417960D01*
X-17145571Y-36370340D01*
X-16193190Y-36370340D02*
X-16097952Y-36370340D01*
X-16002714Y-36417960D01*
X-15955095Y-36465579D01*
X-15907476Y-36560817D01*
X-15859857Y-36751293D01*
X-15859857Y-36989388D01*
X-15907476Y-37179864D01*
X-15955095Y-37275102D01*
X-16002714Y-37322721D01*
X-16097952Y-37370340D01*
X-16193190Y-37370340D01*
X-16288428Y-37322721D01*
X-16336047Y-37275102D01*
X-16383666Y-37179864D01*
X-16431285Y-36989388D01*
X-16431285Y-36751293D01*
X-16383666Y-36560817D01*
X-16336047Y-36465579D01*
X-16288428Y-36417960D01*
X-16193190Y-36370340D01*
X-15431285Y-36703674D02*
X-15431285Y-37370340D01*
X-15431285Y-36798912D02*
X-15383666Y-36751293D01*
X-15288428Y-36703674D01*
X-15145571Y-36703674D01*
X-15050333Y-36751293D01*
X-15002714Y-36846531D01*
X-15002714Y-37370340D01*
X-14193190Y-36846531D02*
X-14526523Y-36846531D01*
X-14526523Y-37370340D02*
X-14526523Y-36370340D01*
X-14050333Y-36370340D01*
X-12383666Y-37370340D02*
X-12955095Y-37370340D01*
X-12669380Y-37370340D02*
X-12669380Y-36370340D01*
X-12764619Y-36513198D01*
X-12859857Y-36608436D01*
X-12955095Y-36656055D01*
X-11764619Y-36370340D02*
X-11669380Y-36370340D01*
X-11574142Y-36417960D01*
X-11526523Y-36465579D01*
X-11478904Y-36560817D01*
X-11431285Y-36751293D01*
X-11431285Y-36989388D01*
X-11478904Y-37179864D01*
X-11526523Y-37275102D01*
X-11574142Y-37322721D01*
X-11669380Y-37370340D01*
X-11764619Y-37370340D01*
X-11859857Y-37322721D01*
X-11907476Y-37275102D01*
X-11955095Y-37179864D01*
X-12002714Y-36989388D01*
X-12002714Y-36751293D01*
X-11955095Y-36560817D01*
X-11907476Y-36465579D01*
X-11859857Y-36417960D01*
X-11764619Y-36370340D01*
X-11097952Y-36703674D02*
X-10859857Y-37370340D01*
X-10621761Y-36703674D01*
X-9574142Y-36370340D02*
X-8907476Y-37370340D01*
X-8907476Y-36370340D02*
X-9574142Y-37370340D01*
X-8050333Y-36370340D02*
X-8526523Y-36370340D01*
X-8574142Y-36846531D01*
X-8526523Y-36798912D01*
X-8431285Y-36751293D01*
X-8193190Y-36751293D01*
X-8097952Y-36798912D01*
X-8050333Y-36846531D01*
X-8002714Y-36941769D01*
X-8002714Y-37179864D01*
X-8050333Y-37275102D01*
X-8097952Y-37322721D01*
X-8193190Y-37370340D01*
X-8431285Y-37370340D01*
X-8526523Y-37322721D01*
X-8574142Y-37275102D01*
X-7002714Y-37370340D02*
X-7336047Y-36894150D01*
X-7574142Y-37370340D02*
X-7574142Y-36370340D01*
X-7193190Y-36370340D01*
X-7097952Y-36417960D01*
X-7050333Y-36465579D01*
X-7002714Y-36560817D01*
X-7002714Y-36703674D01*
X-7050333Y-36798912D01*
X-7097952Y-36846531D01*
X-7193190Y-36894150D01*
X-7574142Y-36894150D01*
D12*
X-12711047Y-35837245D02*
X-12722952Y-35849150D01*
X-12758666Y-35861055D01*
X-12782476Y-35861055D01*
X-12818190Y-35849150D01*
X-12842000Y-35825340D01*
X-12853904Y-35801531D01*
X-12865809Y-35753912D01*
X-12865809Y-35718198D01*
X-12853904Y-35670579D01*
X-12842000Y-35646769D01*
X-12818190Y-35622960D01*
X-12782476Y-35611055D01*
X-12758666Y-35611055D01*
X-12722952Y-35622960D01*
X-12711047Y-35634864D01*
X-12496761Y-35611055D02*
X-12544380Y-35611055D01*
X-12568190Y-35622960D01*
X-12580095Y-35634864D01*
X-12603904Y-35670579D01*
X-12615809Y-35718198D01*
X-12615809Y-35813436D01*
X-12603904Y-35837245D01*
X-12592000Y-35849150D01*
X-12568190Y-35861055D01*
X-12520571Y-35861055D01*
X-12496761Y-35849150D01*
X-12484857Y-35837245D01*
X-12472952Y-35813436D01*
X-12472952Y-35753912D01*
X-12484857Y-35730102D01*
X-12496761Y-35718198D01*
X-12520571Y-35706293D01*
X-12568190Y-35706293D01*
X-12592000Y-35718198D01*
X-12603904Y-35730102D01*
X-12615809Y-35753912D01*
D11*
X9595384Y-17075900D02*
X10166813Y-17075900D01*
X9881099Y-18075900D02*
X9881099Y-17075900D01*
X10500146Y-18075900D02*
X10500146Y-17075900D01*
X10881099Y-17075900D01*
X10976337Y-17123520D01*
X11023956Y-17171139D01*
X11071575Y-17266377D01*
X11071575Y-17409234D01*
X11023956Y-17504472D01*
X10976337Y-17552091D01*
X10881099Y-17599710D01*
X10500146Y-17599710D01*
X11404908Y-17075900D02*
X12023956Y-17075900D01*
X11690622Y-17456853D01*
X11833480Y-17456853D01*
X11928718Y-17504472D01*
X11976337Y-17552091D01*
X12023956Y-17647329D01*
X12023956Y-17885424D01*
X11976337Y-17980662D01*
X11928718Y-18028281D01*
X11833480Y-18075900D01*
X11547765Y-18075900D01*
X11452527Y-18028281D01*
X11404908Y-17980662D01*
X12500146Y-18075900D02*
X12690622Y-18075900D01*
X12785860Y-18028281D01*
X12833480Y-17980662D01*
X12928718Y-17837805D01*
X12976337Y-17647329D01*
X12976337Y-17266377D01*
X12928718Y-17171139D01*
X12881099Y-17123520D01*
X12785860Y-17075900D01*
X12595384Y-17075900D01*
X12500146Y-17123520D01*
X12452527Y-17171139D01*
X12404908Y-17266377D01*
X12404908Y-17504472D01*
X12452527Y-17599710D01*
X12500146Y-17647329D01*
X12595384Y-17694948D01*
X12785860Y-17694948D01*
X12881099Y-17647329D01*
X12928718Y-17599710D01*
X12976337Y-17504472D01*
X10714444Y-20521100D02*
X10143016Y-20521100D01*
X10428730Y-20521100D02*
X10428730Y-19521100D01*
X10333492Y-19663958D01*
X10238254Y-19759196D01*
X10143016Y-19806815D01*
X11333492Y-19521100D02*
X11428730Y-19521100D01*
X11523968Y-19568720D01*
X11571587Y-19616339D01*
X11619206Y-19711577D01*
X11666825Y-19902053D01*
X11666825Y-20140148D01*
X11619206Y-20330624D01*
X11571587Y-20425862D01*
X11523968Y-20473481D01*
X11428730Y-20521100D01*
X11333492Y-20521100D01*
X11238254Y-20473481D01*
X11190635Y-20425862D01*
X11143016Y-20330624D01*
X11095397Y-20140148D01*
X11095397Y-19902053D01*
X11143016Y-19711577D01*
X11190635Y-19616339D01*
X11238254Y-19568720D01*
X11333492Y-19521100D01*
X12285873Y-19521100D02*
X12381111Y-19521100D01*
X12476349Y-19568720D01*
X12523968Y-19616339D01*
X12571587Y-19711577D01*
X12619206Y-19902053D01*
X12619206Y-20140148D01*
X12571587Y-20330624D01*
X12523968Y-20425862D01*
X12476349Y-20473481D01*
X12381111Y-20521100D01*
X12285873Y-20521100D01*
X12190635Y-20473481D01*
X12143016Y-20425862D01*
X12095397Y-20330624D01*
X12047778Y-20140148D01*
X12047778Y-19902053D01*
X12095397Y-19711577D01*
X12143016Y-19616339D01*
X12190635Y-19568720D01*
X12285873Y-19521100D01*
X13238254Y-19521100D02*
X13333492Y-19521100D01*
X13428730Y-19568720D01*
X13476349Y-19616339D01*
X13523968Y-19711577D01*
X13571587Y-19902053D01*
X13571587Y-20140148D01*
X13523968Y-20330624D01*
X13476349Y-20425862D01*
X13428730Y-20473481D01*
X13333492Y-20521100D01*
X13238254Y-20521100D01*
X13143016Y-20473481D01*
X13095397Y-20425862D01*
X13047778Y-20330624D01*
X13000159Y-20140148D01*
X13000159Y-19902053D01*
X13047778Y-19711577D01*
X13095397Y-19616339D01*
X13143016Y-19568720D01*
X13238254Y-19521100D01*
X14428730Y-19854434D02*
X14428730Y-20521100D01*
X14000159Y-19854434D02*
X14000159Y-20378243D01*
X14047778Y-20473481D01*
X14143016Y-20521100D01*
X14285873Y-20521100D01*
X14381111Y-20473481D01*
X14428730Y-20425862D01*
X15238254Y-19997291D02*
X14904920Y-19997291D01*
X14904920Y-20521100D02*
X14904920Y-19521100D01*
X15381111Y-19521100D01*
X17047778Y-20521100D02*
X16476349Y-20521100D01*
X16762063Y-20521100D02*
X16762063Y-19521100D01*
X16666825Y-19663958D01*
X16571587Y-19759196D01*
X16476349Y-19806815D01*
X17666825Y-19521100D02*
X17762063Y-19521100D01*
X17857301Y-19568720D01*
X17904920Y-19616339D01*
X17952540Y-19711577D01*
X18000159Y-19902053D01*
X18000159Y-20140148D01*
X17952540Y-20330624D01*
X17904920Y-20425862D01*
X17857301Y-20473481D01*
X17762063Y-20521100D01*
X17666825Y-20521100D01*
X17571587Y-20473481D01*
X17523968Y-20425862D01*
X17476349Y-20330624D01*
X17428730Y-20140148D01*
X17428730Y-19902053D01*
X17476349Y-19711577D01*
X17523968Y-19616339D01*
X17571587Y-19568720D01*
X17666825Y-19521100D01*
X18333492Y-19854434D02*
X18571587Y-20521100D01*
X18809682Y-19854434D01*
X14285873Y-25675862D02*
X14238254Y-25723481D01*
X14095397Y-25771100D01*
X14000159Y-25771100D01*
X13857301Y-25723481D01*
X13762063Y-25628243D01*
X13714444Y-25533005D01*
X13666825Y-25342529D01*
X13666825Y-25199672D01*
X13714444Y-25009196D01*
X13762063Y-24913958D01*
X13857301Y-24818720D01*
X14000159Y-24771100D01*
X14095397Y-24771100D01*
X14238254Y-24818720D01*
X14285873Y-24866339D01*
X15238254Y-25771100D02*
X14666825Y-25771100D01*
X14952540Y-25771100D02*
X14952540Y-24771100D01*
X14857301Y-24913958D01*
X14762063Y-25009196D01*
X14666825Y-25056815D01*
X10734764Y-29164720D02*
X10163336Y-29164720D01*
X10449050Y-29164720D02*
X10449050Y-28164720D01*
X10353812Y-28307578D01*
X10258574Y-28402816D01*
X10163336Y-28450435D01*
X11353812Y-28164720D02*
X11449050Y-28164720D01*
X11544288Y-28212340D01*
X11591907Y-28259959D01*
X11639526Y-28355197D01*
X11687145Y-28545673D01*
X11687145Y-28783768D01*
X11639526Y-28974244D01*
X11591907Y-29069482D01*
X11544288Y-29117101D01*
X11449050Y-29164720D01*
X11353812Y-29164720D01*
X11258574Y-29117101D01*
X11210955Y-29069482D01*
X11163336Y-28974244D01*
X11115717Y-28783768D01*
X11115717Y-28545673D01*
X11163336Y-28355197D01*
X11210955Y-28259959D01*
X11258574Y-28212340D01*
X11353812Y-28164720D01*
X12306193Y-28164720D02*
X12401431Y-28164720D01*
X12496669Y-28212340D01*
X12544288Y-28259959D01*
X12591907Y-28355197D01*
X12639526Y-28545673D01*
X12639526Y-28783768D01*
X12591907Y-28974244D01*
X12544288Y-29069482D01*
X12496669Y-29117101D01*
X12401431Y-29164720D01*
X12306193Y-29164720D01*
X12210955Y-29117101D01*
X12163336Y-29069482D01*
X12115717Y-28974244D01*
X12068098Y-28783768D01*
X12068098Y-28545673D01*
X12115717Y-28355197D01*
X12163336Y-28259959D01*
X12210955Y-28212340D01*
X12306193Y-28164720D01*
X13258574Y-28164720D02*
X13353812Y-28164720D01*
X13449050Y-28212340D01*
X13496669Y-28259959D01*
X13544288Y-28355197D01*
X13591907Y-28545673D01*
X13591907Y-28783768D01*
X13544288Y-28974244D01*
X13496669Y-29069482D01*
X13449050Y-29117101D01*
X13353812Y-29164720D01*
X13258574Y-29164720D01*
X13163336Y-29117101D01*
X13115717Y-29069482D01*
X13068098Y-28974244D01*
X13020479Y-28783768D01*
X13020479Y-28545673D01*
X13068098Y-28355197D01*
X13115717Y-28259959D01*
X13163336Y-28212340D01*
X13258574Y-28164720D01*
X14449050Y-28498054D02*
X14449050Y-29164720D01*
X14020479Y-28498054D02*
X14020479Y-29021863D01*
X14068098Y-29117101D01*
X14163336Y-29164720D01*
X14306193Y-29164720D01*
X14401431Y-29117101D01*
X14449050Y-29069482D01*
X15258574Y-28640911D02*
X14925240Y-28640911D01*
X14925240Y-29164720D02*
X14925240Y-28164720D01*
X15401431Y-28164720D01*
X17068098Y-29164720D02*
X16496669Y-29164720D01*
X16782383Y-29164720D02*
X16782383Y-28164720D01*
X16687145Y-28307578D01*
X16591907Y-28402816D01*
X16496669Y-28450435D01*
X17687145Y-28164720D02*
X17782383Y-28164720D01*
X17877621Y-28212340D01*
X17925240Y-28259959D01*
X17972860Y-28355197D01*
X18020479Y-28545673D01*
X18020479Y-28783768D01*
X17972860Y-28974244D01*
X17925240Y-29069482D01*
X17877621Y-29117101D01*
X17782383Y-29164720D01*
X17687145Y-29164720D01*
X17591907Y-29117101D01*
X17544288Y-29069482D01*
X17496669Y-28974244D01*
X17449050Y-28783768D01*
X17449050Y-28545673D01*
X17496669Y-28355197D01*
X17544288Y-28259959D01*
X17591907Y-28212340D01*
X17687145Y-28164720D01*
X18353812Y-28498054D02*
X18591907Y-29164720D01*
X18830002Y-28498054D01*
X14306193Y-34319482D02*
X14258574Y-34367101D01*
X14115717Y-34414720D01*
X14020479Y-34414720D01*
X13877621Y-34367101D01*
X13782383Y-34271863D01*
X13734764Y-34176625D01*
X13687145Y-33986149D01*
X13687145Y-33843292D01*
X13734764Y-33652816D01*
X13782383Y-33557578D01*
X13877621Y-33462340D01*
X14020479Y-33414720D01*
X14115717Y-33414720D01*
X14258574Y-33462340D01*
X14306193Y-33509959D01*
X14687145Y-33509959D02*
X14734764Y-33462340D01*
X14830002Y-33414720D01*
X15068098Y-33414720D01*
X15163336Y-33462340D01*
X15210955Y-33509959D01*
X15258574Y-33605197D01*
X15258574Y-33700435D01*
X15210955Y-33843292D01*
X14639526Y-34414720D01*
X15258574Y-34414720D01*
X13054200Y-51810903D02*
X13054200Y-51191856D01*
X13435153Y-51525189D01*
X13435153Y-51382332D01*
X13482772Y-51287094D01*
X13530391Y-51239475D01*
X13625629Y-51191856D01*
X13863724Y-51191856D01*
X13958962Y-51239475D01*
X14006581Y-51287094D01*
X14054200Y-51382332D01*
X14054200Y-51668046D01*
X14006581Y-51763284D01*
X13958962Y-51810903D01*
X13958962Y-50763284D02*
X14006581Y-50715665D01*
X14054200Y-50763284D01*
X14006581Y-50810903D01*
X13958962Y-50763284D01*
X14054200Y-50763284D01*
X13054200Y-50382332D02*
X13054200Y-49763284D01*
X13435153Y-50096618D01*
X13435153Y-49953760D01*
X13482772Y-49858522D01*
X13530391Y-49810903D01*
X13625629Y-49763284D01*
X13863724Y-49763284D01*
X13958962Y-49810903D01*
X14006581Y-49858522D01*
X14054200Y-49953760D01*
X14054200Y-50239475D01*
X14006581Y-50334713D01*
X13958962Y-50382332D01*
X13387534Y-48906141D02*
X14054200Y-48906141D01*
X13387534Y-49334713D02*
X13911343Y-49334713D01*
X14006581Y-49287094D01*
X14054200Y-49191856D01*
X14054200Y-49048999D01*
X14006581Y-48953760D01*
X13958962Y-48906141D01*
X14054200Y-48429951D02*
X13054200Y-48429951D01*
X13530391Y-48429951D02*
X13530391Y-47858522D01*
X14054200Y-47858522D02*
X13054200Y-47858522D01*
X13149439Y-46668046D02*
X13101820Y-46620427D01*
X13054200Y-46525189D01*
X13054200Y-46287094D01*
X13101820Y-46191856D01*
X13149439Y-46144237D01*
X13244677Y-46096618D01*
X13339915Y-46096618D01*
X13482772Y-46144237D01*
X14054200Y-46715665D01*
X14054200Y-46096618D01*
X13768486Y-45715665D02*
X13768486Y-45239475D01*
X14054200Y-45810903D02*
X13054200Y-45477570D01*
X14054200Y-45144237D01*
X17554200Y-48668046D02*
X17554200Y-49144237D01*
X16554200Y-49144237D01*
X16649439Y-48382332D02*
X16601820Y-48334713D01*
X16554200Y-48239475D01*
X16554200Y-48001380D01*
X16601820Y-47906141D01*
X16649439Y-47858522D01*
X16744677Y-47810903D01*
X16839915Y-47810903D01*
X16982772Y-47858522D01*
X17554200Y-48429951D01*
X17554200Y-47810903D01*
X-13975816Y-11675860D02*
X-13404387Y-11675860D01*
X-13690101Y-12675860D02*
X-13690101Y-11675860D01*
X-13071054Y-12675860D02*
X-13071054Y-11675860D01*
X-12690101Y-11675860D01*
X-12594863Y-11723480D01*
X-12547244Y-11771099D01*
X-12499625Y-11866337D01*
X-12499625Y-12009194D01*
X-12547244Y-12104432D01*
X-12594863Y-12152051D01*
X-12690101Y-12199670D01*
X-13071054Y-12199670D01*
X-12118673Y-11771099D02*
X-12071054Y-11723480D01*
X-11975816Y-11675860D01*
X-11737720Y-11675860D01*
X-11642482Y-11723480D01*
X-11594863Y-11771099D01*
X-11547244Y-11866337D01*
X-11547244Y-11961575D01*
X-11594863Y-12104432D01*
X-12166292Y-12675860D01*
X-11547244Y-12675860D01*
X-11213911Y-11675860D02*
X-10547244Y-11675860D01*
X-10975816Y-12675860D01*
X-15934156Y-9885160D02*
X-15362727Y-9885160D01*
X-15648441Y-10885160D02*
X-15648441Y-9885160D01*
X-15029394Y-10885160D02*
X-15029394Y-9885160D01*
X-14648441Y-9885160D01*
X-14553203Y-9932780D01*
X-14505584Y-9980399D01*
X-14457965Y-10075637D01*
X-14457965Y-10218494D01*
X-14505584Y-10313732D01*
X-14553203Y-10361351D01*
X-14648441Y-10408970D01*
X-15029394Y-10408970D01*
X-14077013Y-9980399D02*
X-14029394Y-9932780D01*
X-13934156Y-9885160D01*
X-13696060Y-9885160D01*
X-13600822Y-9932780D01*
X-13553203Y-9980399D01*
X-13505584Y-10075637D01*
X-13505584Y-10170875D01*
X-13553203Y-10313732D01*
X-14124632Y-10885160D01*
X-13505584Y-10885160D01*
X-12648441Y-9885160D02*
X-12838918Y-9885160D01*
X-12934156Y-9932780D01*
X-12981775Y-9980399D01*
X-13077013Y-10123256D01*
X-13124632Y-10313732D01*
X-13124632Y-10694684D01*
X-13077013Y-10789922D01*
X-13029394Y-10837541D01*
X-12934156Y-10885160D01*
X-12743680Y-10885160D01*
X-12648441Y-10837541D01*
X-12600822Y-10789922D01*
X-12553203Y-10694684D01*
X-12553203Y-10456589D01*
X-12600822Y-10361351D01*
X-12648441Y-10313732D01*
X-12743680Y-10266113D01*
X-12934156Y-10266113D01*
X-13029394Y-10313732D01*
X-13077013Y-10361351D01*
X-13124632Y-10456589D01*
X-5977356Y-11708880D02*
X-5405927Y-11708880D01*
X-5691641Y-12708880D02*
X-5691641Y-11708880D01*
X-5072594Y-12708880D02*
X-5072594Y-11708880D01*
X-4691641Y-11708880D01*
X-4596403Y-11756500D01*
X-4548784Y-11804119D01*
X-4501165Y-11899357D01*
X-4501165Y-12042214D01*
X-4548784Y-12137452D01*
X-4596403Y-12185071D01*
X-4691641Y-12232690D01*
X-5072594Y-12232690D01*
X-4120213Y-11804119D02*
X-4072594Y-11756500D01*
X-3977356Y-11708880D01*
X-3739260Y-11708880D01*
X-3644022Y-11756500D01*
X-3596403Y-11804119D01*
X-3548784Y-11899357D01*
X-3548784Y-11994595D01*
X-3596403Y-12137452D01*
X-4167832Y-12708880D01*
X-3548784Y-12708880D01*
X-2644022Y-11708880D02*
X-3120213Y-11708880D01*
X-3167832Y-12185071D01*
X-3120213Y-12137452D01*
X-3024975Y-12089833D01*
X-2786880Y-12089833D01*
X-2691641Y-12137452D01*
X-2644022Y-12185071D01*
X-2596403Y-12280309D01*
X-2596403Y-12518404D01*
X-2644022Y-12613642D01*
X-2691641Y-12661261D01*
X-2786880Y-12708880D01*
X-3024975Y-12708880D01*
X-3120213Y-12661261D01*
X-3167832Y-12613642D01*
X-7229576Y-9826740D02*
X-6658147Y-9826740D01*
X-6943861Y-10826740D02*
X-6943861Y-9826740D01*
X-6324814Y-10826740D02*
X-6324814Y-9826740D01*
X-5943861Y-9826740D01*
X-5848623Y-9874360D01*
X-5801004Y-9921979D01*
X-5753385Y-10017217D01*
X-5753385Y-10160074D01*
X-5801004Y-10255312D01*
X-5848623Y-10302931D01*
X-5943861Y-10350550D01*
X-6324814Y-10350550D01*
X-5372433Y-9921979D02*
X-5324814Y-9874360D01*
X-5229576Y-9826740D01*
X-4991480Y-9826740D01*
X-4896242Y-9874360D01*
X-4848623Y-9921979D01*
X-4801004Y-10017217D01*
X-4801004Y-10112455D01*
X-4848623Y-10255312D01*
X-5420052Y-10826740D01*
X-4801004Y-10826740D01*
X-3943861Y-10160074D02*
X-3943861Y-10826740D01*
X-4181957Y-9779121D02*
X-4420052Y-10493407D01*
X-3801004Y-10493407D01*
X-10523740Y-7991575D02*
X-10523740Y-7420146D01*
X-9523740Y-7705860D02*
X-10523740Y-7705860D01*
X-9523740Y-7086813D02*
X-10523740Y-7086813D01*
X-10523740Y-6705860D01*
X-10476120Y-6610622D01*
X-10428501Y-6563003D01*
X-10333263Y-6515384D01*
X-10190406Y-6515384D01*
X-10095168Y-6563003D01*
X-10047549Y-6610622D01*
X-9999930Y-6705860D01*
X-9999930Y-7086813D01*
X-10523740Y-6182051D02*
X-10523740Y-5563003D01*
X-10142787Y-5896337D01*
X-10142787Y-5753480D01*
X-10095168Y-5658241D01*
X-10047549Y-5610622D01*
X-9952311Y-5563003D01*
X-9714216Y-5563003D01*
X-9618978Y-5610622D01*
X-9571359Y-5658241D01*
X-9523740Y-5753480D01*
X-9523740Y-6039194D01*
X-9571359Y-6134432D01*
X-9618978Y-6182051D01*
X-10523740Y-5229670D02*
X-10523740Y-4610622D01*
X-10142787Y-4943956D01*
X-10142787Y-4801099D01*
X-10095168Y-4705860D01*
X-10047549Y-4658241D01*
X-9952311Y-4610622D01*
X-9714216Y-4610622D01*
X-9618978Y-4658241D01*
X-9571359Y-4705860D01*
X-9523740Y-4801099D01*
X-9523740Y-5086813D01*
X-9571359Y-5182051D01*
X-9618978Y-5229670D01*
X-11445976Y-10024860D02*
X-10874547Y-10024860D01*
X-11160261Y-11024860D02*
X-11160261Y-10024860D01*
X-10541214Y-11024860D02*
X-10541214Y-10024860D01*
X-10160261Y-10024860D01*
X-10065023Y-10072480D01*
X-10017404Y-10120099D01*
X-9969785Y-10215337D01*
X-9969785Y-10358194D01*
X-10017404Y-10453432D01*
X-10065023Y-10501051D01*
X-10160261Y-10548670D01*
X-10541214Y-10548670D01*
X-9588833Y-10120099D02*
X-9541214Y-10072480D01*
X-9445976Y-10024860D01*
X-9207880Y-10024860D01*
X-9112642Y-10072480D01*
X-9065023Y-10120099D01*
X-9017404Y-10215337D01*
X-9017404Y-10310575D01*
X-9065023Y-10453432D01*
X-9636452Y-11024860D01*
X-9017404Y-11024860D01*
X-8445976Y-10453432D02*
X-8541214Y-10405813D01*
X-8588833Y-10358194D01*
X-8636452Y-10262956D01*
X-8636452Y-10215337D01*
X-8588833Y-10120099D01*
X-8541214Y-10072480D01*
X-8445976Y-10024860D01*
X-8255500Y-10024860D01*
X-8160261Y-10072480D01*
X-8112642Y-10120099D01*
X-8065023Y-10215337D01*
X-8065023Y-10262956D01*
X-8112642Y-10358194D01*
X-8160261Y-10405813D01*
X-8255500Y-10453432D01*
X-8445976Y-10453432D01*
X-8541214Y-10501051D01*
X-8588833Y-10548670D01*
X-8636452Y-10643908D01*
X-8636452Y-10834384D01*
X-8588833Y-10929622D01*
X-8541214Y-10977241D01*
X-8445976Y-11024860D01*
X-8255500Y-11024860D01*
X-8160261Y-10977241D01*
X-8112642Y-10929622D01*
X-8065023Y-10834384D01*
X-8065023Y-10643908D01*
X-8112642Y-10548670D01*
X-8160261Y-10501051D01*
X-8255500Y-10453432D01*
X-17237176Y-7690600D02*
X-16665747Y-7690600D01*
X-16951461Y-8690600D02*
X-16951461Y-7690600D01*
X-16332414Y-8690600D02*
X-16332414Y-7690600D01*
X-15951461Y-7690600D01*
X-15856223Y-7738220D01*
X-15808604Y-7785839D01*
X-15760985Y-7881077D01*
X-15760985Y-8023934D01*
X-15808604Y-8119172D01*
X-15856223Y-8166791D01*
X-15951461Y-8214410D01*
X-16332414Y-8214410D01*
X-15380033Y-7785839D02*
X-15332414Y-7738220D01*
X-15237176Y-7690600D01*
X-14999080Y-7690600D01*
X-14903842Y-7738220D01*
X-14856223Y-7785839D01*
X-14808604Y-7881077D01*
X-14808604Y-7976315D01*
X-14856223Y-8119172D01*
X-15427652Y-8690600D01*
X-14808604Y-8690600D01*
X-14332414Y-8690600D02*
X-14141938Y-8690600D01*
X-14046700Y-8642981D01*
X-13999080Y-8595362D01*
X-13903842Y-8452505D01*
X-13856223Y-8262029D01*
X-13856223Y-7881077D01*
X-13903842Y-7785839D01*
X-13951461Y-7738220D01*
X-14046700Y-7690600D01*
X-14237176Y-7690600D01*
X-14332414Y-7738220D01*
X-14380033Y-7785839D01*
X-14427652Y-7881077D01*
X-14427652Y-8119172D01*
X-14380033Y-8214410D01*
X-14332414Y-8262029D01*
X-14237176Y-8309648D01*
X-14046700Y-8309648D01*
X-13951461Y-8262029D01*
X-13903842Y-8214410D01*
X-13856223Y-8119172D01*
X-5924016Y-35069260D02*
X-5352587Y-35069260D01*
X-5638301Y-36069260D02*
X-5638301Y-35069260D01*
X-5019254Y-36069260D02*
X-5019254Y-35069260D01*
X-4638301Y-35069260D01*
X-4543063Y-35116880D01*
X-4495444Y-35164499D01*
X-4447825Y-35259737D01*
X-4447825Y-35402594D01*
X-4495444Y-35497832D01*
X-4543063Y-35545451D01*
X-4638301Y-35593070D01*
X-5019254Y-35593070D01*
X-3495444Y-36069260D02*
X-4066873Y-36069260D01*
X-3781159Y-36069260D02*
X-3781159Y-35069260D01*
X-3876397Y-35212118D01*
X-3971635Y-35307356D01*
X-4066873Y-35354975D01*
X-2638301Y-35069260D02*
X-2828778Y-35069260D01*
X-2924016Y-35116880D01*
X-2971635Y-35164499D01*
X-3066873Y-35307356D01*
X-3114492Y-35497832D01*
X-3114492Y-35878784D01*
X-3066873Y-35974022D01*
X-3019254Y-36021641D01*
X-2924016Y-36069260D01*
X-2733540Y-36069260D01*
X-2638301Y-36021641D01*
X-2590682Y-35974022D01*
X-2543063Y-35878784D01*
X-2543063Y-35640689D01*
X-2590682Y-35545451D01*
X-2638301Y-35497832D01*
X-2733540Y-35450213D01*
X-2924016Y-35450213D01*
X-3019254Y-35497832D01*
X-3066873Y-35545451D01*
X-3114492Y-35640689D01*
X-10959625Y-36953940D02*
X-10388197Y-36953940D01*
X-10673911Y-37953940D02*
X-10673911Y-36953940D01*
X-10054863Y-37953940D02*
X-10054863Y-36953940D01*
X-9673911Y-36953940D01*
X-9578673Y-37001560D01*
X-9531054Y-37049179D01*
X-9483435Y-37144417D01*
X-9483435Y-37287274D01*
X-9531054Y-37382512D01*
X-9578673Y-37430131D01*
X-9673911Y-37477750D01*
X-10054863Y-37477750D01*
X-8626292Y-36953940D02*
X-8816768Y-36953940D01*
X-8912006Y-37001560D01*
X-8959625Y-37049179D01*
X-9054863Y-37192036D01*
X-9102482Y-37382512D01*
X-9102482Y-37763464D01*
X-9054863Y-37858702D01*
X-9007244Y-37906321D01*
X-8912006Y-37953940D01*
X-8721530Y-37953940D01*
X-8626292Y-37906321D01*
X-8578673Y-37858702D01*
X-8531054Y-37763464D01*
X-8531054Y-37525369D01*
X-8578673Y-37430131D01*
X-8626292Y-37382512D01*
X-8721530Y-37334893D01*
X-8912006Y-37334893D01*
X-9007244Y-37382512D01*
X-9054863Y-37430131D01*
X-9102482Y-37525369D01*
X-7961096Y-33530020D02*
X-7389667Y-33530020D01*
X-7675381Y-34530020D02*
X-7675381Y-33530020D01*
X-7056334Y-34530020D02*
X-7056334Y-33530020D01*
X-6675381Y-33530020D01*
X-6580143Y-33577640D01*
X-6532524Y-33625259D01*
X-6484905Y-33720497D01*
X-6484905Y-33863354D01*
X-6532524Y-33958592D01*
X-6580143Y-34006211D01*
X-6675381Y-34053830D01*
X-7056334Y-34053830D01*
X-5532524Y-34530020D02*
X-6103953Y-34530020D01*
X-5818239Y-34530020D02*
X-5818239Y-33530020D01*
X-5913477Y-33672878D01*
X-6008715Y-33768116D01*
X-6103953Y-33815735D01*
X-4627762Y-33530020D02*
X-5103953Y-33530020D01*
X-5151572Y-34006211D01*
X-5103953Y-33958592D01*
X-5008715Y-33910973D01*
X-4770620Y-33910973D01*
X-4675381Y-33958592D01*
X-4627762Y-34006211D01*
X-4580143Y-34101449D01*
X-4580143Y-34339544D01*
X-4627762Y-34434782D01*
X-4675381Y-34482401D01*
X-4770620Y-34530020D01*
X-5008715Y-34530020D01*
X-5103953Y-34482401D01*
X-5151572Y-34434782D01*
X-9937216Y-32981380D02*
X-9365787Y-32981380D01*
X-9651501Y-33981380D02*
X-9651501Y-32981380D01*
X-9032454Y-33981380D02*
X-9032454Y-32981380D01*
X-8651501Y-32981380D01*
X-8556263Y-33029000D01*
X-8508644Y-33076619D01*
X-8461025Y-33171857D01*
X-8461025Y-33314714D01*
X-8508644Y-33409952D01*
X-8556263Y-33457571D01*
X-8651501Y-33505190D01*
X-9032454Y-33505190D01*
X-7508644Y-33981380D02*
X-8080073Y-33981380D01*
X-7794359Y-33981380D02*
X-7794359Y-32981380D01*
X-7889597Y-33124238D01*
X-7984835Y-33219476D01*
X-8080073Y-33267095D01*
X-6651501Y-33314714D02*
X-6651501Y-33981380D01*
X-6889597Y-32933761D02*
X-7127692Y-33648047D01*
X-6508644Y-33648047D01*
X-11989536Y-32902640D02*
X-11418107Y-32902640D01*
X-11703821Y-33902640D02*
X-11703821Y-32902640D01*
X-11084774Y-33902640D02*
X-11084774Y-32902640D01*
X-10703821Y-32902640D01*
X-10608583Y-32950260D01*
X-10560964Y-32997879D01*
X-10513345Y-33093117D01*
X-10513345Y-33235974D01*
X-10560964Y-33331212D01*
X-10608583Y-33378831D01*
X-10703821Y-33426450D01*
X-11084774Y-33426450D01*
X-9560964Y-33902640D02*
X-10132393Y-33902640D01*
X-9846679Y-33902640D02*
X-9846679Y-32902640D01*
X-9941917Y-33045498D01*
X-10037155Y-33140736D01*
X-10132393Y-33188355D01*
X-9227631Y-32902640D02*
X-8608583Y-32902640D01*
X-8941917Y-33283593D01*
X-8799060Y-33283593D01*
X-8703821Y-33331212D01*
X-8656202Y-33378831D01*
X-8608583Y-33474069D01*
X-8608583Y-33712164D01*
X-8656202Y-33807402D01*
X-8703821Y-33855021D01*
X-8799060Y-33902640D01*
X-9084774Y-33902640D01*
X-9180012Y-33855021D01*
X-9227631Y-33807402D01*
X-20045205Y-36197560D02*
X-19473777Y-36197560D01*
X-19759491Y-37197560D02*
X-19759491Y-36197560D01*
X-19140443Y-37197560D02*
X-19140443Y-36197560D01*
X-18759491Y-36197560D01*
X-18664253Y-36245180D01*
X-18616634Y-36292799D01*
X-18569015Y-36388037D01*
X-18569015Y-36530894D01*
X-18616634Y-36626132D01*
X-18664253Y-36673751D01*
X-18759491Y-36721370D01*
X-19140443Y-36721370D01*
X-18092824Y-37197560D02*
X-17902348Y-37197560D01*
X-17807110Y-37149941D01*
X-17759491Y-37102322D01*
X-17664253Y-36959465D01*
X-17616634Y-36768989D01*
X-17616634Y-36388037D01*
X-17664253Y-36292799D01*
X-17711872Y-36245180D01*
X-17807110Y-36197560D01*
X-17997586Y-36197560D01*
X-18092824Y-36245180D01*
X-18140443Y-36292799D01*
X-18188062Y-36388037D01*
X-18188062Y-36626132D01*
X-18140443Y-36721370D01*
X-18092824Y-36768989D01*
X-17997586Y-36816608D01*
X-17807110Y-36816608D01*
X-17711872Y-36768989D01*
X-17664253Y-36721370D01*
X-17616634Y-36626132D01*
X2389620Y-16948944D02*
X2389620Y-16377516D01*
X3389620Y-16663230D02*
X2389620Y-16663230D01*
X3389620Y-16044182D02*
X2389620Y-16044182D01*
X2389620Y-15663230D01*
X2437240Y-15567992D01*
X2484859Y-15520373D01*
X2580097Y-15472754D01*
X2722954Y-15472754D01*
X2818192Y-15520373D01*
X2865811Y-15567992D01*
X2913430Y-15663230D01*
X2913430Y-16044182D01*
X2389620Y-15139420D02*
X2389620Y-14472754D01*
X3389620Y-14901325D01*
X15037275Y-17619460D02*
X15608703Y-17619460D01*
X15322989Y-18619460D02*
X15322989Y-17619460D01*
X15942037Y-18619460D02*
X15942037Y-17619460D01*
X16322989Y-17619460D01*
X16418227Y-17667080D01*
X16465846Y-17714699D01*
X16513465Y-17809937D01*
X16513465Y-17952794D01*
X16465846Y-18048032D01*
X16418227Y-18095651D01*
X16322989Y-18143270D01*
X15942037Y-18143270D01*
X16846799Y-17619460D02*
X17465846Y-17619460D01*
X17132513Y-18000413D01*
X17275370Y-18000413D01*
X17370608Y-18048032D01*
X17418227Y-18095651D01*
X17465846Y-18190889D01*
X17465846Y-18428984D01*
X17418227Y-18524222D01*
X17370608Y-18571841D01*
X17275370Y-18619460D01*
X16989656Y-18619460D01*
X16894418Y-18571841D01*
X16846799Y-18524222D01*
X15878400Y-47593546D02*
X14878400Y-47593546D01*
X15354591Y-47593546D02*
X15354591Y-47022118D01*
X15878400Y-47022118D02*
X14878400Y-47022118D01*
X14878400Y-46641165D02*
X15878400Y-45974499D01*
X14878400Y-45974499D02*
X15878400Y-46641165D01*
X14878400Y-45688784D02*
X14878400Y-45069737D01*
X15259353Y-45403070D01*
X15259353Y-45260213D01*
X15306972Y-45164975D01*
X15354591Y-45117356D01*
X15449829Y-45069737D01*
X15687924Y-45069737D01*
X15783162Y-45117356D01*
X15830781Y-45164975D01*
X15878400Y-45260213D01*
X15878400Y-45545927D01*
X15830781Y-45641165D01*
X15783162Y-45688784D01*
X15211734Y-44212594D02*
X15878400Y-44212594D01*
X14830781Y-44450689D02*
X15545067Y-44688784D01*
X15545067Y-44069737D01*
X14878400Y-43498308D02*
X14878400Y-43403070D01*
X14926020Y-43307832D01*
X14973639Y-43260213D01*
X15068877Y-43212594D01*
X15259353Y-43164975D01*
X15497448Y-43164975D01*
X15687924Y-43212594D01*
X15783162Y-43260213D01*
X15830781Y-43307832D01*
X15878400Y-43403070D01*
X15878400Y-43498308D01*
X15830781Y-43593546D01*
X15783162Y-43641165D01*
X15687924Y-43688784D01*
X15497448Y-43736403D01*
X15259353Y-43736403D01*
X15068877Y-43688784D01*
X14973639Y-43641165D01*
X14926020Y-43593546D01*
X14878400Y-43498308D01*
X14878400Y-42307832D02*
X14878400Y-42498308D01*
X14926020Y-42593546D01*
X14973639Y-42641165D01*
X15116496Y-42736403D01*
X15306972Y-42784022D01*
X15687924Y-42784022D01*
X15783162Y-42736403D01*
X15830781Y-42688784D01*
X15878400Y-42593546D01*
X15878400Y-42403070D01*
X15830781Y-42307832D01*
X15783162Y-42260213D01*
X15687924Y-42212594D01*
X15449829Y-42212594D01*
X15354591Y-42260213D01*
X15306972Y-42307832D01*
X15259353Y-42403070D01*
X15259353Y-42593546D01*
X15306972Y-42688784D01*
X15354591Y-42736403D01*
X15449829Y-42784022D01*
D13*
X12545067Y-44653070D02*
X12545067Y-45057832D01*
X12568877Y-45105451D01*
X12592686Y-45129260D01*
X12640305Y-45153070D01*
X12735543Y-45153070D01*
X12783162Y-45129260D01*
X12806972Y-45105451D01*
X12830781Y-45057832D01*
X12830781Y-44653070D01*
X13330781Y-45153070D02*
X13045067Y-45153070D01*
X13187924Y-45153070D02*
X13187924Y-44653070D01*
X13140305Y-44724499D01*
X13092686Y-44772118D01*
X13045067Y-44795927D01*
D11*
X11706252Y-44804296D02*
X11658633Y-44899534D01*
X11611014Y-44947153D01*
X11515776Y-44994772D01*
X11468157Y-44994772D01*
X11372919Y-44947153D01*
X11325300Y-44899534D01*
X11277680Y-44804296D01*
X11277680Y-44613820D01*
X11325300Y-44518581D01*
X11372919Y-44470962D01*
X11468157Y-44423343D01*
X11515776Y-44423343D01*
X11611014Y-44470962D01*
X11658633Y-44518581D01*
X11706252Y-44613820D01*
X11706252Y-44804296D01*
X11753871Y-44899534D01*
X11801490Y-44947153D01*
X11896728Y-44994772D01*
X12087204Y-44994772D01*
X12182442Y-44947153D01*
X12230061Y-44899534D01*
X12277680Y-44804296D01*
X12277680Y-44613820D01*
X12230061Y-44518581D01*
X12182442Y-44470962D01*
X12087204Y-44423343D01*
X11896728Y-44423343D01*
X11801490Y-44470962D01*
X11753871Y-44518581D01*
X11706252Y-44613820D01*
X12182442Y-43994772D02*
X12230061Y-43947153D01*
X12277680Y-43994772D01*
X12230061Y-44042391D01*
X12182442Y-43994772D01*
X12277680Y-43994772D01*
X11706252Y-43375724D02*
X11658633Y-43470962D01*
X11611014Y-43518581D01*
X11515776Y-43566200D01*
X11468157Y-43566200D01*
X11372919Y-43518581D01*
X11325300Y-43470962D01*
X11277680Y-43375724D01*
X11277680Y-43185248D01*
X11325300Y-43090010D01*
X11372919Y-43042391D01*
X11468157Y-42994772D01*
X11515776Y-42994772D01*
X11611014Y-43042391D01*
X11658633Y-43090010D01*
X11706252Y-43185248D01*
X11706252Y-43375724D01*
X11753871Y-43470962D01*
X11801490Y-43518581D01*
X11896728Y-43566200D01*
X12087204Y-43566200D01*
X12182442Y-43518581D01*
X12230061Y-43470962D01*
X12277680Y-43375724D01*
X12277680Y-43185248D01*
X12230061Y-43090010D01*
X12182442Y-43042391D01*
X12087204Y-42994772D01*
X11896728Y-42994772D01*
X11801490Y-43042391D01*
X11753871Y-43090010D01*
X11706252Y-43185248D01*
X11277680Y-42661439D02*
X11277680Y-41994772D01*
X12277680Y-42423343D01*
X12277680Y-41613820D02*
X11277680Y-41613820D01*
X11896728Y-41518581D02*
X12277680Y-41232867D01*
X11611014Y-41232867D02*
X11991966Y-41613820D01*
D12*
X10768395Y-43155486D02*
X10649347Y-43238820D01*
X10768395Y-43298343D02*
X10518395Y-43298343D01*
X10518395Y-43203105D01*
X10530300Y-43179296D01*
X10542204Y-43167391D01*
X10566014Y-43155486D01*
X10601728Y-43155486D01*
X10625538Y-43167391D01*
X10637442Y-43179296D01*
X10649347Y-43203105D01*
X10649347Y-43298343D01*
X10625538Y-43012629D02*
X10613633Y-43036439D01*
X10601728Y-43048343D01*
X10577919Y-43060248D01*
X10566014Y-43060248D01*
X10542204Y-43048343D01*
X10530300Y-43036439D01*
X10518395Y-43012629D01*
X10518395Y-42965010D01*
X10530300Y-42941200D01*
X10542204Y-42929296D01*
X10566014Y-42917391D01*
X10577919Y-42917391D01*
X10601728Y-42929296D01*
X10613633Y-42941200D01*
X10625538Y-42965010D01*
X10625538Y-43012629D01*
X10637442Y-43036439D01*
X10649347Y-43048343D01*
X10673157Y-43060248D01*
X10720776Y-43060248D01*
X10744585Y-43048343D01*
X10756490Y-43036439D01*
X10768395Y-43012629D01*
X10768395Y-42965010D01*
X10756490Y-42941200D01*
X10744585Y-42929296D01*
X10720776Y-42917391D01*
X10673157Y-42917391D01*
X10649347Y-42929296D01*
X10637442Y-42941200D01*
X10625538Y-42965010D01*
D11*
X8778098Y-45580974D02*
X8778098Y-46247640D01*
X8540002Y-45200021D02*
X8301907Y-45914307D01*
X8920955Y-45914307D01*
X9492383Y-45247640D02*
X9587621Y-45247640D01*
X9682860Y-45295260D01*
X9730479Y-45342879D01*
X9778098Y-45438117D01*
X9825717Y-45628593D01*
X9825717Y-45866688D01*
X9778098Y-46057164D01*
X9730479Y-46152402D01*
X9682860Y-46200021D01*
X9587621Y-46247640D01*
X9492383Y-46247640D01*
X9397145Y-46200021D01*
X9349526Y-46152402D01*
X9301907Y-46057164D01*
X9254288Y-45866688D01*
X9254288Y-45628593D01*
X9301907Y-45438117D01*
X9349526Y-45342879D01*
X9397145Y-45295260D01*
X9492383Y-45247640D01*
X10254288Y-46152402D02*
X10301907Y-46200021D01*
X10254288Y-46247640D01*
X10206669Y-46200021D01*
X10254288Y-46152402D01*
X10254288Y-46247640D01*
X10682860Y-45342879D02*
X10730479Y-45295260D01*
X10825717Y-45247640D01*
X11063812Y-45247640D01*
X11159050Y-45295260D01*
X11206669Y-45342879D01*
X11254288Y-45438117D01*
X11254288Y-45533355D01*
X11206669Y-45676212D01*
X10635240Y-46247640D01*
X11254288Y-46247640D01*
X11682860Y-46247640D02*
X11682860Y-45247640D01*
X11778098Y-45866688D02*
X12063812Y-46247640D01*
X12063812Y-45580974D02*
X11682860Y-45961926D01*
D12*
X10141193Y-44738355D02*
X10057860Y-44619307D01*
X9998336Y-44738355D02*
X9998336Y-44488355D01*
X10093574Y-44488355D01*
X10117383Y-44500260D01*
X10129288Y-44512164D01*
X10141193Y-44535974D01*
X10141193Y-44571688D01*
X10129288Y-44595498D01*
X10117383Y-44607402D01*
X10093574Y-44619307D01*
X9998336Y-44619307D01*
X10224526Y-44488355D02*
X10391193Y-44488355D01*
X10284050Y-44738355D01*
D11*
X11061698Y-48748354D02*
X11061698Y-49415020D01*
X10823602Y-48367401D02*
X10585507Y-49081687D01*
X11204555Y-49081687D01*
X11775983Y-48415020D02*
X11871221Y-48415020D01*
X11966460Y-48462640D01*
X12014079Y-48510259D01*
X12061698Y-48605497D01*
X12109317Y-48795973D01*
X12109317Y-49034068D01*
X12061698Y-49224544D01*
X12014079Y-49319782D01*
X11966460Y-49367401D01*
X11871221Y-49415020D01*
X11775983Y-49415020D01*
X11680745Y-49367401D01*
X11633126Y-49319782D01*
X11585507Y-49224544D01*
X11537888Y-49034068D01*
X11537888Y-48795973D01*
X11585507Y-48605497D01*
X11633126Y-48510259D01*
X11680745Y-48462640D01*
X11775983Y-48415020D01*
X12537888Y-49319782D02*
X12585507Y-49367401D01*
X12537888Y-49415020D01*
X12490269Y-49367401D01*
X12537888Y-49319782D01*
X12537888Y-49415020D01*
X12966460Y-48510259D02*
X13014079Y-48462640D01*
X13109317Y-48415020D01*
X13347412Y-48415020D01*
X13442650Y-48462640D01*
X13490269Y-48510259D01*
X13537888Y-48605497D01*
X13537888Y-48700735D01*
X13490269Y-48843592D01*
X12918840Y-49415020D01*
X13537888Y-49415020D01*
X13966460Y-49415020D02*
X13966460Y-48415020D01*
X14061698Y-49034068D02*
X14347412Y-49415020D01*
X14347412Y-48748354D02*
X13966460Y-49129306D01*
D12*
X12424793Y-47905735D02*
X12341460Y-47786687D01*
X12281936Y-47905735D02*
X12281936Y-47655735D01*
X12377174Y-47655735D01*
X12400983Y-47667640D01*
X12412888Y-47679544D01*
X12424793Y-47703354D01*
X12424793Y-47739068D01*
X12412888Y-47762878D01*
X12400983Y-47774782D01*
X12377174Y-47786687D01*
X12281936Y-47786687D01*
X12662888Y-47905735D02*
X12520031Y-47905735D01*
X12591460Y-47905735D02*
X12591460Y-47655735D01*
X12567650Y-47691449D01*
X12543840Y-47715259D01*
X12520031Y-47727163D01*
D11*
X2827744Y-44818380D02*
X2256316Y-44818380D01*
X2542030Y-44818380D02*
X2542030Y-43818380D01*
X2446792Y-43961238D01*
X2351554Y-44056476D01*
X2256316Y-44104095D01*
X3446792Y-43818380D02*
X3542030Y-43818380D01*
X3637268Y-43866000D01*
X3684887Y-43913619D01*
X3732506Y-44008857D01*
X3780125Y-44199333D01*
X3780125Y-44437428D01*
X3732506Y-44627904D01*
X3684887Y-44723142D01*
X3637268Y-44770761D01*
X3542030Y-44818380D01*
X3446792Y-44818380D01*
X3351554Y-44770761D01*
X3303935Y-44723142D01*
X3256316Y-44627904D01*
X3208697Y-44437428D01*
X3208697Y-44199333D01*
X3256316Y-44008857D01*
X3303935Y-43913619D01*
X3351554Y-43866000D01*
X3446792Y-43818380D01*
X4399173Y-43818380D02*
X4494411Y-43818380D01*
X4589649Y-43866000D01*
X4637268Y-43913619D01*
X4684887Y-44008857D01*
X4732506Y-44199333D01*
X4732506Y-44437428D01*
X4684887Y-44627904D01*
X4637268Y-44723142D01*
X4589649Y-44770761D01*
X4494411Y-44818380D01*
X4399173Y-44818380D01*
X4303935Y-44770761D01*
X4256316Y-44723142D01*
X4208697Y-44627904D01*
X4161078Y-44437428D01*
X4161078Y-44199333D01*
X4208697Y-44008857D01*
X4256316Y-43913619D01*
X4303935Y-43866000D01*
X4399173Y-43818380D01*
X5351554Y-43818380D02*
X5446792Y-43818380D01*
X5542030Y-43866000D01*
X5589649Y-43913619D01*
X5637268Y-44008857D01*
X5684887Y-44199333D01*
X5684887Y-44437428D01*
X5637268Y-44627904D01*
X5589649Y-44723142D01*
X5542030Y-44770761D01*
X5446792Y-44818380D01*
X5351554Y-44818380D01*
X5256316Y-44770761D01*
X5208697Y-44723142D01*
X5161078Y-44627904D01*
X5113459Y-44437428D01*
X5113459Y-44199333D01*
X5161078Y-44008857D01*
X5208697Y-43913619D01*
X5256316Y-43866000D01*
X5351554Y-43818380D01*
X6542030Y-44151714D02*
X6542030Y-44818380D01*
X6113459Y-44151714D02*
X6113459Y-44675523D01*
X6161078Y-44770761D01*
X6256316Y-44818380D01*
X6399173Y-44818380D01*
X6494411Y-44770761D01*
X6542030Y-44723142D01*
X7351554Y-44294571D02*
X7018220Y-44294571D01*
X7018220Y-44818380D02*
X7018220Y-43818380D01*
X7494411Y-43818380D01*
X9161078Y-44818380D02*
X8589649Y-44818380D01*
X8875363Y-44818380D02*
X8875363Y-43818380D01*
X8780125Y-43961238D01*
X8684887Y-44056476D01*
X8589649Y-44104095D01*
X9780125Y-43818380D02*
X9875363Y-43818380D01*
X9970601Y-43866000D01*
X10018220Y-43913619D01*
X10065840Y-44008857D01*
X10113459Y-44199333D01*
X10113459Y-44437428D01*
X10065840Y-44627904D01*
X10018220Y-44723142D01*
X9970601Y-44770761D01*
X9875363Y-44818380D01*
X9780125Y-44818380D01*
X9684887Y-44770761D01*
X9637268Y-44723142D01*
X9589649Y-44627904D01*
X9542030Y-44437428D01*
X9542030Y-44199333D01*
X9589649Y-44008857D01*
X9637268Y-43913619D01*
X9684887Y-43866000D01*
X9780125Y-43818380D01*
X10446792Y-44151714D02*
X10684887Y-44818380D01*
X10922982Y-44151714D01*
X3576422Y-47183662D02*
X3528803Y-47231281D01*
X3385946Y-47278900D01*
X3290708Y-47278900D01*
X3147851Y-47231281D01*
X3052613Y-47136043D01*
X3004994Y-47040805D01*
X2957375Y-46850329D01*
X2957375Y-46707472D01*
X3004994Y-46516996D01*
X3052613Y-46421758D01*
X3147851Y-46326520D01*
X3290708Y-46278900D01*
X3385946Y-46278900D01*
X3528803Y-46326520D01*
X3576422Y-46374139D01*
X3957375Y-46374139D02*
X4004994Y-46326520D01*
X4100232Y-46278900D01*
X4338327Y-46278900D01*
X4433565Y-46326520D01*
X4481184Y-46374139D01*
X4528803Y-46469377D01*
X4528803Y-46564615D01*
X4481184Y-46707472D01*
X3909756Y-47278900D01*
X4528803Y-47278900D01*
X5481184Y-47278900D02*
X4909756Y-47278900D01*
X5195470Y-47278900D02*
X5195470Y-46278900D01*
X5100232Y-46421758D01*
X5004994Y-46516996D01*
X4909756Y-46564615D01*
X15884420Y-55429447D02*
X15884420Y-56000876D01*
X15884420Y-55715161D02*
X14884420Y-55715161D01*
X15027278Y-55810400D01*
X15122516Y-55905638D01*
X15170135Y-56000876D01*
X14884420Y-54810400D02*
X14884420Y-54715161D01*
X14932040Y-54619923D01*
X14979659Y-54572304D01*
X15074897Y-54524685D01*
X15265373Y-54477066D01*
X15503468Y-54477066D01*
X15693944Y-54524685D01*
X15789182Y-54572304D01*
X15836801Y-54619923D01*
X15884420Y-54715161D01*
X15884420Y-54810400D01*
X15836801Y-54905638D01*
X15789182Y-54953257D01*
X15693944Y-55000876D01*
X15503468Y-55048495D01*
X15265373Y-55048495D01*
X15074897Y-55000876D01*
X14979659Y-54953257D01*
X14932040Y-54905638D01*
X14884420Y-54810400D01*
X15217754Y-53619923D02*
X15884420Y-53619923D01*
X15217754Y-54048495D02*
X15741563Y-54048495D01*
X15836801Y-54000876D01*
X15884420Y-53905638D01*
X15884420Y-53762780D01*
X15836801Y-53667542D01*
X15789182Y-53619923D01*
X15360611Y-52810400D02*
X15360611Y-53143733D01*
X15884420Y-53143733D02*
X14884420Y-53143733D01*
X14884420Y-52667542D01*
X15884420Y-51000876D02*
X15884420Y-51572304D01*
X15884420Y-51286590D02*
X14884420Y-51286590D01*
X15027278Y-51381828D01*
X15122516Y-51477066D01*
X15170135Y-51572304D01*
X14884420Y-50143733D02*
X14884420Y-50334209D01*
X14932040Y-50429447D01*
X14979659Y-50477066D01*
X15122516Y-50572304D01*
X15312992Y-50619923D01*
X15693944Y-50619923D01*
X15789182Y-50572304D01*
X15836801Y-50524685D01*
X15884420Y-50429447D01*
X15884420Y-50238971D01*
X15836801Y-50143733D01*
X15789182Y-50096114D01*
X15693944Y-50048495D01*
X15455849Y-50048495D01*
X15360611Y-50096114D01*
X15312992Y-50143733D01*
X15265373Y-50238971D01*
X15265373Y-50429447D01*
X15312992Y-50524685D01*
X15360611Y-50572304D01*
X15455849Y-50619923D01*
X15217754Y-49715161D02*
X15884420Y-49477066D01*
X15217754Y-49238971D01*
X14884420Y-48191352D02*
X15884420Y-47524685D01*
X14884420Y-47524685D02*
X15884420Y-48191352D01*
X14884420Y-47238971D02*
X14884420Y-46572304D01*
X15884420Y-47000876D01*
X15884420Y-45619923D02*
X15408230Y-45953257D01*
X15884420Y-46191352D02*
X14884420Y-46191352D01*
X14884420Y-45810400D01*
X14932040Y-45715161D01*
X14979659Y-45667542D01*
X15074897Y-45619923D01*
X15217754Y-45619923D01*
X15312992Y-45667542D01*
X15360611Y-45715161D01*
X15408230Y-45810400D01*
X15408230Y-46191352D01*
D14*
X13960611Y-51131828D02*
X13984420Y-51155638D01*
X14008230Y-51227066D01*
X14008230Y-51274685D01*
X13984420Y-51346114D01*
X13936801Y-51393733D01*
X13889182Y-51417542D01*
X13793944Y-51441352D01*
X13722516Y-51441352D01*
X13627278Y-51417542D01*
X13579659Y-51393733D01*
X13532040Y-51346114D01*
X13508230Y-51274685D01*
X13508230Y-51227066D01*
X13532040Y-51155638D01*
X13555849Y-51131828D01*
X13555849Y-50941352D02*
X13532040Y-50917542D01*
X13508230Y-50869923D01*
X13508230Y-50750876D01*
X13532040Y-50703257D01*
X13555849Y-50679447D01*
X13603468Y-50655638D01*
X13651087Y-50655638D01*
X13722516Y-50679447D01*
X14008230Y-50965161D01*
X14008230Y-50655638D01*
X13508230Y-50346114D02*
X13508230Y-50298495D01*
X13532040Y-50250876D01*
X13555849Y-50227066D01*
X13603468Y-50203257D01*
X13698706Y-50179447D01*
X13817754Y-50179447D01*
X13912992Y-50203257D01*
X13960611Y-50227066D01*
X13984420Y-50250876D01*
X14008230Y-50298495D01*
X14008230Y-50346114D01*
X13984420Y-50393733D01*
X13960611Y-50417542D01*
X13912992Y-50441352D01*
X13817754Y-50465161D01*
X13698706Y-50465161D01*
X13603468Y-50441352D01*
X13555849Y-50417542D01*
X13532040Y-50393733D01*
X13508230Y-50346114D01*
D11*
X13894040Y-55719878D02*
X13894040Y-56291306D01*
X13894040Y-56005592D02*
X12894040Y-56005592D01*
X13036898Y-56100830D01*
X13132136Y-56196068D01*
X13179755Y-56291306D01*
X12894040Y-55100830D02*
X12894040Y-55005592D01*
X12941660Y-54910354D01*
X12989279Y-54862735D01*
X13084517Y-54815116D01*
X13274993Y-54767497D01*
X13513088Y-54767497D01*
X13703564Y-54815116D01*
X13798802Y-54862735D01*
X13846421Y-54910354D01*
X13894040Y-55005592D01*
X13894040Y-55100830D01*
X13846421Y-55196068D01*
X13798802Y-55243687D01*
X13703564Y-55291306D01*
X13513088Y-55338925D01*
X13274993Y-55338925D01*
X13084517Y-55291306D01*
X12989279Y-55243687D01*
X12941660Y-55196068D01*
X12894040Y-55100830D01*
X12894040Y-54148449D02*
X12894040Y-54053211D01*
X12941660Y-53957973D01*
X12989279Y-53910354D01*
X13084517Y-53862735D01*
X13274993Y-53815116D01*
X13513088Y-53815116D01*
X13703564Y-53862735D01*
X13798802Y-53910354D01*
X13846421Y-53957973D01*
X13894040Y-54053211D01*
X13894040Y-54148449D01*
X13846421Y-54243687D01*
X13798802Y-54291306D01*
X13703564Y-54338925D01*
X13513088Y-54386544D01*
X13274993Y-54386544D01*
X13084517Y-54338925D01*
X12989279Y-54291306D01*
X12941660Y-54243687D01*
X12894040Y-54148449D01*
X13227374Y-53386544D02*
X13894040Y-53386544D01*
X13322612Y-53386544D02*
X13274993Y-53338925D01*
X13227374Y-53243687D01*
X13227374Y-53100830D01*
X13274993Y-53005592D01*
X13370231Y-52957973D01*
X13894040Y-52957973D01*
X13370231Y-52148449D02*
X13370231Y-52481782D01*
X13894040Y-52481782D02*
X12894040Y-52481782D01*
X12894040Y-52005592D01*
X13894040Y-50338925D02*
X13894040Y-50910354D01*
X13894040Y-50624640D02*
X12894040Y-50624640D01*
X13036898Y-50719878D01*
X13132136Y-50815116D01*
X13179755Y-50910354D01*
X12894040Y-49481782D02*
X12894040Y-49672259D01*
X12941660Y-49767497D01*
X12989279Y-49815116D01*
X13132136Y-49910354D01*
X13322612Y-49957973D01*
X13703564Y-49957973D01*
X13798802Y-49910354D01*
X13846421Y-49862735D01*
X13894040Y-49767497D01*
X13894040Y-49577020D01*
X13846421Y-49481782D01*
X13798802Y-49434163D01*
X13703564Y-49386544D01*
X13465469Y-49386544D01*
X13370231Y-49434163D01*
X13322612Y-49481782D01*
X13274993Y-49577020D01*
X13274993Y-49767497D01*
X13322612Y-49862735D01*
X13370231Y-49910354D01*
X13465469Y-49957973D01*
X13227374Y-49053211D02*
X13894040Y-48815116D01*
X13227374Y-48577020D01*
X12894040Y-47529401D02*
X13894040Y-46862735D01*
X12894040Y-46862735D02*
X13894040Y-47529401D01*
X12894040Y-46577020D02*
X12894040Y-45910354D01*
X13894040Y-46338925D01*
X13894040Y-44957973D02*
X13417850Y-45291306D01*
X13894040Y-45529401D02*
X12894040Y-45529401D01*
X12894040Y-45148449D01*
X12941660Y-45053211D01*
X12989279Y-45005592D01*
X13084517Y-44957973D01*
X13227374Y-44957973D01*
X13322612Y-45005592D01*
X13370231Y-45053211D01*
X13417850Y-45148449D01*
X13417850Y-45529401D01*
D15*
X12154517Y-50881782D02*
X12173564Y-50900830D01*
X12192612Y-50957973D01*
X12192612Y-50996068D01*
X12173564Y-51053211D01*
X12135469Y-51091306D01*
X12097374Y-51110354D01*
X12021183Y-51129401D01*
X11964040Y-51129401D01*
X11887850Y-51110354D01*
X11849755Y-51091306D01*
X11811660Y-51053211D01*
X11792612Y-50996068D01*
X11792612Y-50957973D01*
X11811660Y-50900830D01*
X11830707Y-50881782D01*
X12192612Y-50500830D02*
X12192612Y-50729401D01*
X12192612Y-50615116D02*
X11792612Y-50615116D01*
X11849755Y-50653211D01*
X11887850Y-50691306D01*
X11906898Y-50729401D01*
X12192612Y-50310354D02*
X12192612Y-50234163D01*
X12173564Y-50196068D01*
X12154517Y-50177020D01*
X12097374Y-50138925D01*
X12021183Y-50119878D01*
X11868802Y-50119878D01*
X11830707Y-50138925D01*
X11811660Y-50157973D01*
X11792612Y-50196068D01*
X11792612Y-50272259D01*
X11811660Y-50310354D01*
X11830707Y-50329401D01*
X11868802Y-50348449D01*
X11964040Y-50348449D01*
X12002136Y-50329401D01*
X12021183Y-50310354D01*
X12040231Y-50272259D01*
X12040231Y-50196068D01*
X12021183Y-50157973D01*
X12002136Y-50138925D01*
X11964040Y-50119878D01*
D11*
X6788398Y-47301740D02*
X6216969Y-47301740D01*
X6502683Y-47301740D02*
X6502683Y-46301740D01*
X6407445Y-46444598D01*
X6312207Y-46539836D01*
X6216969Y-46587455D01*
X7407445Y-46301740D02*
X7502683Y-46301740D01*
X7597921Y-46349360D01*
X7645540Y-46396979D01*
X7693160Y-46492217D01*
X7740779Y-46682693D01*
X7740779Y-46920788D01*
X7693160Y-47111264D01*
X7645540Y-47206502D01*
X7597921Y-47254121D01*
X7502683Y-47301740D01*
X7407445Y-47301740D01*
X7312207Y-47254121D01*
X7264588Y-47206502D01*
X7216969Y-47111264D01*
X7169350Y-46920788D01*
X7169350Y-46682693D01*
X7216969Y-46492217D01*
X7264588Y-46396979D01*
X7312207Y-46349360D01*
X7407445Y-46301740D01*
X8359826Y-46301740D02*
X8455064Y-46301740D01*
X8550302Y-46349360D01*
X8597921Y-46396979D01*
X8645540Y-46492217D01*
X8693160Y-46682693D01*
X8693160Y-46920788D01*
X8645540Y-47111264D01*
X8597921Y-47206502D01*
X8550302Y-47254121D01*
X8455064Y-47301740D01*
X8359826Y-47301740D01*
X8264588Y-47254121D01*
X8216969Y-47206502D01*
X8169350Y-47111264D01*
X8121731Y-46920788D01*
X8121731Y-46682693D01*
X8169350Y-46492217D01*
X8216969Y-46396979D01*
X8264588Y-46349360D01*
X8359826Y-46301740D01*
X9121731Y-46635074D02*
X9121731Y-47635074D01*
X9121731Y-46682693D02*
X9216969Y-46635074D01*
X9407445Y-46635074D01*
X9502683Y-46682693D01*
X9550302Y-46730312D01*
X9597921Y-46825550D01*
X9597921Y-47111264D01*
X9550302Y-47206502D01*
X9502683Y-47254121D01*
X9407445Y-47301740D01*
X9216969Y-47301740D01*
X9121731Y-47254121D01*
X10359826Y-46777931D02*
X10026493Y-46777931D01*
X10026493Y-47301740D02*
X10026493Y-46301740D01*
X10502683Y-46301740D01*
X12216969Y-47206502D02*
X12169350Y-47254121D01*
X12026493Y-47301740D01*
X11931255Y-47301740D01*
X11788398Y-47254121D01*
X11693160Y-47158883D01*
X11645540Y-47063645D01*
X11597921Y-46873169D01*
X11597921Y-46730312D01*
X11645540Y-46539836D01*
X11693160Y-46444598D01*
X11788398Y-46349360D01*
X11931255Y-46301740D01*
X12026493Y-46301740D01*
X12169350Y-46349360D01*
X12216969Y-46396979D01*
X12836017Y-46301740D02*
X12931255Y-46301740D01*
X13026493Y-46349360D01*
X13074112Y-46396979D01*
X13121731Y-46492217D01*
X13169350Y-46682693D01*
X13169350Y-46920788D01*
X13121731Y-47111264D01*
X13074112Y-47206502D01*
X13026493Y-47254121D01*
X12931255Y-47301740D01*
X12836017Y-47301740D01*
X12740779Y-47254121D01*
X12693160Y-47206502D01*
X12645540Y-47111264D01*
X12597921Y-46920788D01*
X12597921Y-46682693D01*
X12645540Y-46492217D01*
X12693160Y-46396979D01*
X12740779Y-46349360D01*
X12836017Y-46301740D01*
X14121731Y-46349360D02*
X14026493Y-46301740D01*
X13883636Y-46301740D01*
X13740779Y-46349360D01*
X13645540Y-46444598D01*
X13597921Y-46539836D01*
X13550302Y-46730312D01*
X13550302Y-46873169D01*
X13597921Y-47063645D01*
X13645540Y-47158883D01*
X13740779Y-47254121D01*
X13883636Y-47301740D01*
X13978874Y-47301740D01*
X14121731Y-47254121D01*
X14169350Y-47206502D01*
X14169350Y-46873169D01*
X13978874Y-46873169D01*
D12*
X10032445Y-45768645D02*
X10020540Y-45780550D01*
X9984826Y-45792455D01*
X9961017Y-45792455D01*
X9925302Y-45780550D01*
X9901493Y-45756740D01*
X9889588Y-45732931D01*
X9877683Y-45685312D01*
X9877683Y-45649598D01*
X9889588Y-45601979D01*
X9901493Y-45578169D01*
X9925302Y-45554360D01*
X9961017Y-45542455D01*
X9984826Y-45542455D01*
X10020540Y-45554360D01*
X10032445Y-45566264D01*
X10270540Y-45792455D02*
X10127683Y-45792455D01*
X10199112Y-45792455D02*
X10199112Y-45542455D01*
X10175302Y-45578169D01*
X10151493Y-45601979D01*
X10127683Y-45613883D01*
X10484826Y-45542455D02*
X10437207Y-45542455D01*
X10413398Y-45554360D01*
X10401493Y-45566264D01*
X10377683Y-45601979D01*
X10365779Y-45649598D01*
X10365779Y-45744836D01*
X10377683Y-45768645D01*
X10389588Y-45780550D01*
X10413398Y-45792455D01*
X10461017Y-45792455D01*
X10484826Y-45780550D01*
X10496731Y-45768645D01*
X10508636Y-45744836D01*
X10508636Y-45685312D01*
X10496731Y-45661502D01*
X10484826Y-45649598D01*
X10461017Y-45637693D01*
X10413398Y-45637693D01*
X10389588Y-45649598D01*
X10377683Y-45661502D01*
X10365779Y-45685312D01*
D11*
X14697700Y-46653747D02*
X14697700Y-47225176D01*
X14697700Y-46939461D02*
X13697700Y-46939461D01*
X13840558Y-47034700D01*
X13935796Y-47129938D01*
X13983415Y-47225176D01*
X13697700Y-46034700D02*
X13697700Y-45939461D01*
X13745320Y-45844223D01*
X13792939Y-45796604D01*
X13888177Y-45748985D01*
X14078653Y-45701366D01*
X14316748Y-45701366D01*
X14507224Y-45748985D01*
X14602462Y-45796604D01*
X14650081Y-45844223D01*
X14697700Y-45939461D01*
X14697700Y-46034700D01*
X14650081Y-46129938D01*
X14602462Y-46177557D01*
X14507224Y-46225176D01*
X14316748Y-46272795D01*
X14078653Y-46272795D01*
X13888177Y-46225176D01*
X13792939Y-46177557D01*
X13745320Y-46129938D01*
X13697700Y-46034700D01*
X14031034Y-44844223D02*
X14697700Y-44844223D01*
X14031034Y-45272795D02*
X14554843Y-45272795D01*
X14650081Y-45225176D01*
X14697700Y-45129938D01*
X14697700Y-44987080D01*
X14650081Y-44891842D01*
X14602462Y-44844223D01*
X14173891Y-44034700D02*
X14173891Y-44368033D01*
X14697700Y-44368033D02*
X13697700Y-44368033D01*
X13697700Y-43891842D01*
X14697700Y-42225176D02*
X14697700Y-42796604D01*
X14697700Y-42510890D02*
X13697700Y-42510890D01*
X13840558Y-42606128D01*
X13935796Y-42701366D01*
X13983415Y-42796604D01*
X13697700Y-41368033D02*
X13697700Y-41558509D01*
X13745320Y-41653747D01*
X13792939Y-41701366D01*
X13935796Y-41796604D01*
X14126272Y-41844223D01*
X14507224Y-41844223D01*
X14602462Y-41796604D01*
X14650081Y-41748985D01*
X14697700Y-41653747D01*
X14697700Y-41463271D01*
X14650081Y-41368033D01*
X14602462Y-41320414D01*
X14507224Y-41272795D01*
X14269129Y-41272795D01*
X14173891Y-41320414D01*
X14126272Y-41368033D01*
X14078653Y-41463271D01*
X14078653Y-41653747D01*
X14126272Y-41748985D01*
X14173891Y-41796604D01*
X14269129Y-41844223D01*
X14031034Y-40939461D02*
X14697700Y-40701366D01*
X14031034Y-40463271D01*
X13697700Y-39415652D02*
X14697700Y-38748985D01*
X13697700Y-38748985D02*
X14697700Y-39415652D01*
X13697700Y-38463271D02*
X13697700Y-37796604D01*
X14697700Y-38225176D01*
X14697700Y-36844223D02*
X14221510Y-37177557D01*
X14697700Y-37415652D02*
X13697700Y-37415652D01*
X13697700Y-37034700D01*
X13745320Y-36939461D01*
X13792939Y-36891842D01*
X13888177Y-36844223D01*
X14031034Y-36844223D01*
X14126272Y-36891842D01*
X14173891Y-36939461D01*
X14221510Y-37034700D01*
X14221510Y-37415652D01*
D14*
X16073891Y-42118033D02*
X16097700Y-42141842D01*
X16121510Y-42213271D01*
X16121510Y-42260890D01*
X16097700Y-42332319D01*
X16050081Y-42379938D01*
X16002462Y-42403747D01*
X15907224Y-42427557D01*
X15835796Y-42427557D01*
X15740558Y-42403747D01*
X15692939Y-42379938D01*
X15645320Y-42332319D01*
X15621510Y-42260890D01*
X15621510Y-42213271D01*
X15645320Y-42141842D01*
X15669129Y-42118033D01*
X15788177Y-41689461D02*
X16121510Y-41689461D01*
X15597700Y-41808509D02*
X15954843Y-41927557D01*
X15954843Y-41618033D01*
D11*
X16843020Y-46934118D02*
X16843020Y-47505546D01*
X16843020Y-47219832D02*
X15843020Y-47219832D01*
X15985878Y-47315070D01*
X16081116Y-47410308D01*
X16128735Y-47505546D01*
X15843020Y-46315070D02*
X15843020Y-46219832D01*
X15890640Y-46124594D01*
X15938259Y-46076975D01*
X16033497Y-46029356D01*
X16223973Y-45981737D01*
X16462068Y-45981737D01*
X16652544Y-46029356D01*
X16747782Y-46076975D01*
X16795401Y-46124594D01*
X16843020Y-46219832D01*
X16843020Y-46315070D01*
X16795401Y-46410308D01*
X16747782Y-46457927D01*
X16652544Y-46505546D01*
X16462068Y-46553165D01*
X16223973Y-46553165D01*
X16033497Y-46505546D01*
X15938259Y-46457927D01*
X15890640Y-46410308D01*
X15843020Y-46315070D01*
X15843020Y-45362689D02*
X15843020Y-45267451D01*
X15890640Y-45172213D01*
X15938259Y-45124594D01*
X16033497Y-45076975D01*
X16223973Y-45029356D01*
X16462068Y-45029356D01*
X16652544Y-45076975D01*
X16747782Y-45124594D01*
X16795401Y-45172213D01*
X16843020Y-45267451D01*
X16843020Y-45362689D01*
X16795401Y-45457927D01*
X16747782Y-45505546D01*
X16652544Y-45553165D01*
X16462068Y-45600784D01*
X16223973Y-45600784D01*
X16033497Y-45553165D01*
X15938259Y-45505546D01*
X15890640Y-45457927D01*
X15843020Y-45362689D01*
X16176354Y-44600784D02*
X16843020Y-44600784D01*
X16271592Y-44600784D02*
X16223973Y-44553165D01*
X16176354Y-44457927D01*
X16176354Y-44315070D01*
X16223973Y-44219832D01*
X16319211Y-44172213D01*
X16843020Y-44172213D01*
X16319211Y-43362689D02*
X16319211Y-43696022D01*
X16843020Y-43696022D02*
X15843020Y-43696022D01*
X15843020Y-43219832D01*
X16843020Y-41553165D02*
X16843020Y-42124594D01*
X16843020Y-41838880D02*
X15843020Y-41838880D01*
X15985878Y-41934118D01*
X16081116Y-42029356D01*
X16128735Y-42124594D01*
X15843020Y-40696022D02*
X15843020Y-40886499D01*
X15890640Y-40981737D01*
X15938259Y-41029356D01*
X16081116Y-41124594D01*
X16271592Y-41172213D01*
X16652544Y-41172213D01*
X16747782Y-41124594D01*
X16795401Y-41076975D01*
X16843020Y-40981737D01*
X16843020Y-40791260D01*
X16795401Y-40696022D01*
X16747782Y-40648403D01*
X16652544Y-40600784D01*
X16414449Y-40600784D01*
X16319211Y-40648403D01*
X16271592Y-40696022D01*
X16223973Y-40791260D01*
X16223973Y-40981737D01*
X16271592Y-41076975D01*
X16319211Y-41124594D01*
X16414449Y-41172213D01*
X16176354Y-40267451D02*
X16843020Y-40029356D01*
X16176354Y-39791260D01*
X15843020Y-38743641D02*
X16843020Y-38076975D01*
X15843020Y-38076975D02*
X16843020Y-38743641D01*
X15843020Y-37791260D02*
X15843020Y-37124594D01*
X16843020Y-37553165D01*
X16843020Y-36172213D02*
X16366830Y-36505546D01*
X16843020Y-36743641D02*
X15843020Y-36743641D01*
X15843020Y-36362689D01*
X15890640Y-36267451D01*
X15938259Y-36219832D01*
X16033497Y-36172213D01*
X16176354Y-36172213D01*
X16271592Y-36219832D01*
X16319211Y-36267451D01*
X16366830Y-36362689D01*
X16366830Y-36743641D01*
D15*
X17963497Y-41905546D02*
X17982544Y-41924594D01*
X18001592Y-41981737D01*
X18001592Y-42019832D01*
X17982544Y-42076975D01*
X17944449Y-42115070D01*
X17906354Y-42134118D01*
X17830163Y-42153165D01*
X17773020Y-42153165D01*
X17696830Y-42134118D01*
X17658735Y-42115070D01*
X17620640Y-42076975D01*
X17601592Y-42019832D01*
X17601592Y-41981737D01*
X17620640Y-41924594D01*
X17639687Y-41905546D01*
X17601592Y-41772213D02*
X17601592Y-41524594D01*
X17753973Y-41657927D01*
X17753973Y-41600784D01*
X17773020Y-41562689D01*
X17792068Y-41543641D01*
X17830163Y-41524594D01*
X17925401Y-41524594D01*
X17963497Y-41543641D01*
X17982544Y-41562689D01*
X18001592Y-41600784D01*
X18001592Y-41715070D01*
X17982544Y-41753165D01*
X17963497Y-41772213D01*
D11*
X-23571429Y-61202380D02*
X-23571429Y-60202380D01*
X-23238096Y-60916666D01*
X-22904762Y-60202380D01*
X-22904762Y-61202380D01*
X-22285715Y-61202380D02*
X-22380953Y-61154761D01*
X-22428572Y-61107142D01*
X-22476191Y-61011904D01*
X-22476191Y-60726190D01*
X-22428572Y-60630952D01*
X-22380953Y-60583333D01*
X-22285715Y-60535714D01*
X-22142858Y-60535714D01*
X-22047620Y-60583333D01*
X-22000000Y-60630952D01*
X-21952381Y-60726190D01*
X-21952381Y-61011904D01*
X-22000000Y-61107142D01*
X-22047620Y-61154761D01*
X-22142858Y-61202380D01*
X-22285715Y-61202380D01*
X-21095239Y-60535714D02*
X-21095239Y-61202380D01*
X-21523810Y-60535714D02*
X-21523810Y-61059523D01*
X-21476191Y-61154761D01*
X-21380953Y-61202380D01*
X-21238096Y-61202380D01*
X-21142858Y-61154761D01*
X-21095239Y-61107142D01*
X-20619048Y-60535714D02*
X-20619048Y-61202380D01*
X-20619048Y-60630952D02*
X-20571429Y-60583333D01*
X-20476191Y-60535714D01*
X-20333334Y-60535714D01*
X-20238096Y-60583333D01*
X-20190477Y-60678571D01*
X-20190477Y-61202380D01*
X-19857143Y-60535714D02*
X-19476191Y-60535714D01*
X-19714286Y-60202380D02*
X-19714286Y-61059523D01*
X-19666667Y-61154761D01*
X-19571429Y-61202380D01*
X-19476191Y-61202380D01*
X-19142858Y-61202380D02*
X-19142858Y-60535714D01*
X-19142858Y-60202380D02*
X-19190477Y-60250000D01*
X-19142858Y-60297619D01*
X-19095239Y-60250000D01*
X-19142858Y-60202380D01*
X-19142858Y-60297619D01*
X-18666667Y-60535714D02*
X-18666667Y-61202380D01*
X-18666667Y-60630952D02*
X-18619048Y-60583333D01*
X-18523810Y-60535714D01*
X-18380953Y-60535714D01*
X-18285715Y-60583333D01*
X-18238096Y-60678571D01*
X-18238096Y-61202380D01*
X-17333334Y-60535714D02*
X-17333334Y-61345238D01*
X-17380953Y-61440476D01*
X-17428572Y-61488095D01*
X-17523810Y-61535714D01*
X-17666667Y-61535714D01*
X-17761905Y-61488095D01*
X-17333334Y-61154761D02*
X-17428572Y-61202380D01*
X-17619048Y-61202380D01*
X-17714286Y-61154761D01*
X-17761905Y-61107142D01*
X-17809524Y-61011904D01*
X-17809524Y-60726190D01*
X-17761905Y-60630952D01*
X-17714286Y-60583333D01*
X-17619048Y-60535714D01*
X-17428572Y-60535714D01*
X-17333334Y-60583333D01*
X-16857143Y-61202380D02*
X-16857143Y-60202380D01*
X-16857143Y-60678571D02*
X-16285715Y-60678571D01*
X-16285715Y-61202380D02*
X-16285715Y-60202380D01*
X-15666667Y-61202380D02*
X-15761905Y-61154761D01*
X-15809524Y-61107142D01*
X-15857143Y-61011904D01*
X-15857143Y-60726190D01*
X-15809524Y-60630952D01*
X-15761905Y-60583333D01*
X-15666667Y-60535714D01*
X-15523810Y-60535714D01*
X-15428572Y-60583333D01*
X-15380953Y-60630952D01*
X-15333334Y-60726190D01*
X-15333334Y-61011904D01*
X-15380953Y-61107142D01*
X-15428572Y-61154761D01*
X-15523810Y-61202380D01*
X-15666667Y-61202380D01*
X-14761905Y-61202380D02*
X-14857143Y-61154761D01*
X-14904762Y-61059523D01*
X-14904762Y-60202380D01*
X-14000000Y-61154761D02*
X-14095239Y-61202380D01*
X-14285715Y-61202380D01*
X-14380953Y-61154761D01*
X-14428572Y-61059523D01*
X-14428572Y-60678571D01*
X-14380953Y-60583333D01*
X-14285715Y-60535714D01*
X-14095239Y-60535714D01*
X-14000000Y-60583333D01*
X-13952381Y-60678571D01*
X-13952381Y-60773809D01*
X-14428572Y-60869047D01*
X-13761905Y-61297619D02*
X-13000000Y-61297619D01*
X-12761905Y-61202380D02*
X-12761905Y-60202380D01*
X-12380953Y-60202380D01*
X-12285715Y-60250000D01*
X-12238096Y-60297619D01*
X-12190477Y-60392857D01*
X-12190477Y-60535714D01*
X-12238096Y-60630952D01*
X-12285715Y-60678571D01*
X-12380953Y-60726190D01*
X-12761905Y-60726190D01*
X-11333334Y-61202380D02*
X-11333334Y-60678571D01*
X-11380953Y-60583333D01*
X-11476191Y-60535714D01*
X-11666667Y-60535714D01*
X-11761905Y-60583333D01*
X-11333334Y-61154761D02*
X-11428572Y-61202380D01*
X-11666667Y-61202380D01*
X-11761905Y-61154761D01*
X-11809524Y-61059523D01*
X-11809524Y-60964285D01*
X-11761905Y-60869047D01*
X-11666667Y-60821428D01*
X-11428572Y-60821428D01*
X-11333334Y-60773809D01*
X-10428572Y-61202380D02*
X-10428572Y-60202380D01*
X-10428572Y-61154761D02*
X-10523810Y-61202380D01*
X-10714286Y-61202380D01*
X-10809524Y-61154761D01*
X-10857143Y-61107142D01*
X-10904762Y-61011904D01*
X-10904762Y-60726190D01*
X-10857143Y-60630952D01*
X-10809524Y-60583333D01*
X-10714286Y-60535714D01*
X-10523810Y-60535714D01*
X-10428572Y-60583333D01*
X-17461905Y-57452380D02*
X-17461905Y-56452380D01*
X-17461905Y-56928571D02*
X-16890477Y-56928571D01*
X-16890477Y-57452380D02*
X-16890477Y-56452380D01*
X-15890477Y-57452380D02*
X-16461905Y-57452380D01*
X-16176191Y-57452380D02*
X-16176191Y-56452380D01*
X-16271429Y-56595238D01*
X-16366667Y-56690476D01*
X-16461905Y-56738095D01*
X9659047Y-59318571D02*
X9325714Y-59318571D01*
X9325714Y-59842380D02*
X9325714Y-58842380D01*
X9801904Y-58842380D01*
X10182857Y-59842380D02*
X10182857Y-59175714D01*
X10182857Y-58842380D02*
X10135238Y-58890000D01*
X10182857Y-58937619D01*
X10230476Y-58890000D01*
X10182857Y-58842380D01*
X10182857Y-58937619D01*
X11087619Y-59842380D02*
X11087619Y-58842380D01*
X11087619Y-59794761D02*
X10992380Y-59842380D01*
X10801904Y-59842380D01*
X10706666Y-59794761D01*
X10659047Y-59747142D01*
X10611428Y-59651904D01*
X10611428Y-59366190D01*
X10659047Y-59270952D01*
X10706666Y-59223333D01*
X10801904Y-59175714D01*
X10992380Y-59175714D01*
X11087619Y-59223333D01*
X11992380Y-59175714D02*
X11992380Y-59842380D01*
X11563809Y-59175714D02*
X11563809Y-59699523D01*
X11611428Y-59794761D01*
X11706666Y-59842380D01*
X11849523Y-59842380D01*
X11944761Y-59794761D01*
X11992380Y-59747142D01*
X12897142Y-59794761D02*
X12801904Y-59842380D01*
X12611428Y-59842380D01*
X12516190Y-59794761D01*
X12468571Y-59747142D01*
X12420952Y-59651904D01*
X12420952Y-59366190D01*
X12468571Y-59270952D01*
X12516190Y-59223333D01*
X12611428Y-59175714D01*
X12801904Y-59175714D01*
X12897142Y-59223333D01*
X13325714Y-59842380D02*
X13325714Y-59175714D01*
X13325714Y-58842380D02*
X13278095Y-58890000D01*
X13325714Y-58937619D01*
X13373333Y-58890000D01*
X13325714Y-58842380D01*
X13325714Y-58937619D01*
X14230476Y-59842380D02*
X14230476Y-59318571D01*
X14182857Y-59223333D01*
X14087619Y-59175714D01*
X13897142Y-59175714D01*
X13801904Y-59223333D01*
X14230476Y-59794761D02*
X14135238Y-59842380D01*
X13897142Y-59842380D01*
X13801904Y-59794761D01*
X13754285Y-59699523D01*
X13754285Y-59604285D01*
X13801904Y-59509047D01*
X13897142Y-59461428D01*
X14135238Y-59461428D01*
X14230476Y-59413809D01*
X14849523Y-59842380D02*
X14754285Y-59794761D01*
X14706666Y-59699523D01*
X14706666Y-58842380D01*
D15*
X11611428Y-57361428D02*
X11478095Y-57361428D01*
X11478095Y-57570952D02*
X11478095Y-57170952D01*
X11668571Y-57170952D01*
X11820952Y-57570952D02*
X11820952Y-57170952D01*
X12011428Y-57570952D02*
X12011428Y-57170952D01*
X12106666Y-57170952D01*
X12163809Y-57190000D01*
X12201904Y-57228095D01*
X12220952Y-57266190D01*
X12240000Y-57342380D01*
X12240000Y-57399523D01*
X12220952Y-57475714D01*
X12201904Y-57513809D01*
X12163809Y-57551904D01*
X12106666Y-57570952D01*
X12011428Y-57570952D01*
X12601904Y-57170952D02*
X12411428Y-57170952D01*
X12392380Y-57361428D01*
X12411428Y-57342380D01*
X12449523Y-57323333D01*
X12544761Y-57323333D01*
X12582857Y-57342380D01*
X12601904Y-57361428D01*
X12620952Y-57399523D01*
X12620952Y-57494761D01*
X12601904Y-57532857D01*
X12582857Y-57551904D01*
X12544761Y-57570952D01*
X12449523Y-57570952D01*
X12411428Y-57551904D01*
X12392380Y-57532857D01*
D11*
X-15329873Y-60521291D02*
X-15663206Y-60521291D01*
X-15663206Y-61045100D02*
X-15663206Y-60045100D01*
X-15187016Y-60045100D01*
X-14806063Y-61045100D02*
X-14806063Y-60378434D01*
X-14806063Y-60045100D02*
X-14853682Y-60092720D01*
X-14806063Y-60140339D01*
X-14758444Y-60092720D01*
X-14806063Y-60045100D01*
X-14806063Y-60140339D01*
X-13901301Y-61045100D02*
X-13901301Y-60045100D01*
X-13901301Y-60997481D02*
X-13996540Y-61045100D01*
X-14187016Y-61045100D01*
X-14282254Y-60997481D01*
X-14329873Y-60949862D01*
X-14377492Y-60854624D01*
X-14377492Y-60568910D01*
X-14329873Y-60473672D01*
X-14282254Y-60426053D01*
X-14187016Y-60378434D01*
X-13996540Y-60378434D01*
X-13901301Y-60426053D01*
X-12996540Y-60378434D02*
X-12996540Y-61045100D01*
X-13425111Y-60378434D02*
X-13425111Y-60902243D01*
X-13377492Y-60997481D01*
X-13282254Y-61045100D01*
X-13139397Y-61045100D01*
X-13044159Y-60997481D01*
X-12996540Y-60949862D01*
X-12091778Y-60997481D02*
X-12187016Y-61045100D01*
X-12377492Y-61045100D01*
X-12472730Y-60997481D01*
X-12520349Y-60949862D01*
X-12567968Y-60854624D01*
X-12567968Y-60568910D01*
X-12520349Y-60473672D01*
X-12472730Y-60426053D01*
X-12377492Y-60378434D01*
X-12187016Y-60378434D01*
X-12091778Y-60426053D01*
X-11663206Y-61045100D02*
X-11663206Y-60378434D01*
X-11663206Y-60045100D02*
X-11710825Y-60092720D01*
X-11663206Y-60140339D01*
X-11615587Y-60092720D01*
X-11663206Y-60045100D01*
X-11663206Y-60140339D01*
X-10758444Y-61045100D02*
X-10758444Y-60521291D01*
X-10806063Y-60426053D01*
X-10901301Y-60378434D01*
X-11091778Y-60378434D01*
X-11187016Y-60426053D01*
X-10758444Y-60997481D02*
X-10853682Y-61045100D01*
X-11091778Y-61045100D01*
X-11187016Y-60997481D01*
X-11234635Y-60902243D01*
X-11234635Y-60807005D01*
X-11187016Y-60711767D01*
X-11091778Y-60664148D01*
X-10853682Y-60664148D01*
X-10758444Y-60616529D01*
X-10139397Y-61045100D02*
X-10234635Y-60997481D01*
X-10282254Y-60902243D01*
X-10282254Y-60045100D01*
D15*
X-13377492Y-58564148D02*
X-13510825Y-58564148D01*
X-13510825Y-58773672D02*
X-13510825Y-58373672D01*
X-13320349Y-58373672D01*
X-13167968Y-58773672D02*
X-13167968Y-58373672D01*
X-12977492Y-58773672D02*
X-12977492Y-58373672D01*
X-12882254Y-58373672D01*
X-12825111Y-58392720D01*
X-12787016Y-58430815D01*
X-12767968Y-58468910D01*
X-12748920Y-58545100D01*
X-12748920Y-58602243D01*
X-12767968Y-58678434D01*
X-12787016Y-58716529D01*
X-12825111Y-58754624D01*
X-12882254Y-58773672D01*
X-12977492Y-58773672D01*
X-12615587Y-58373672D02*
X-12367968Y-58373672D01*
X-12501301Y-58526053D01*
X-12444159Y-58526053D01*
X-12406063Y-58545100D01*
X-12387016Y-58564148D01*
X-12367968Y-58602243D01*
X-12367968Y-58697481D01*
X-12387016Y-58735577D01*
X-12406063Y-58754624D01*
X-12444159Y-58773672D01*
X-12558444Y-58773672D01*
X-12596540Y-58754624D01*
X-12615587Y-58735577D01*
D11*
X-19470953Y291429D02*
X-19804286Y291429D01*
X-19804286Y-232380D02*
X-19804286Y767620D01*
X-19328096Y767620D01*
X-18947143Y-232380D02*
X-18947143Y434286D01*
X-18947143Y767620D02*
X-18994762Y720000D01*
X-18947143Y672381D01*
X-18899524Y720000D01*
X-18947143Y767620D01*
X-18947143Y672381D01*
X-18042381Y-232380D02*
X-18042381Y767620D01*
X-18042381Y-184761D02*
X-18137620Y-232380D01*
X-18328096Y-232380D01*
X-18423334Y-184761D01*
X-18470953Y-137142D01*
X-18518572Y-41904D01*
X-18518572Y243810D01*
X-18470953Y339048D01*
X-18423334Y386667D01*
X-18328096Y434286D01*
X-18137620Y434286D01*
X-18042381Y386667D01*
X-17137620Y434286D02*
X-17137620Y-232380D01*
X-17566191Y434286D02*
X-17566191Y-89523D01*
X-17518572Y-184761D01*
X-17423334Y-232380D01*
X-17280477Y-232380D01*
X-17185239Y-184761D01*
X-17137620Y-137142D01*
X-16232858Y-184761D02*
X-16328096Y-232380D01*
X-16518572Y-232380D01*
X-16613810Y-184761D01*
X-16661429Y-137142D01*
X-16709048Y-41904D01*
X-16709048Y243810D01*
X-16661429Y339048D01*
X-16613810Y386667D01*
X-16518572Y434286D01*
X-16328096Y434286D01*
X-16232858Y386667D01*
X-15804286Y-232380D02*
X-15804286Y434286D01*
X-15804286Y767620D02*
X-15851905Y720000D01*
X-15804286Y672381D01*
X-15756667Y720000D01*
X-15804286Y767620D01*
X-15804286Y672381D01*
X-14899524Y-232380D02*
X-14899524Y291429D01*
X-14947143Y386667D01*
X-15042381Y434286D01*
X-15232858Y434286D01*
X-15328096Y386667D01*
X-14899524Y-184761D02*
X-14994762Y-232380D01*
X-15232858Y-232380D01*
X-15328096Y-184761D01*
X-15375715Y-89523D01*
X-15375715Y5715D01*
X-15328096Y100953D01*
X-15232858Y148572D01*
X-14994762Y148572D01*
X-14899524Y196191D01*
X-14280477Y-232380D02*
X-14375715Y-184761D01*
X-14423334Y-89523D01*
X-14423334Y767620D01*
D15*
X-17518572Y2248572D02*
X-17651905Y2248572D01*
X-17651905Y2039048D02*
X-17651905Y2439048D01*
X-17461429Y2439048D01*
X-17309048Y2039048D02*
X-17309048Y2439048D01*
X-17118572Y2039048D02*
X-17118572Y2439048D01*
X-17023334Y2439048D01*
X-16966191Y2420000D01*
X-16928096Y2381905D01*
X-16909048Y2343810D01*
X-16890000Y2267620D01*
X-16890000Y2210477D01*
X-16909048Y2134286D01*
X-16928096Y2096191D01*
X-16966191Y2058096D01*
X-17023334Y2039048D01*
X-17118572Y2039048D01*
X-16509048Y2039048D02*
X-16737620Y2039048D01*
X-16623334Y2039048D02*
X-16623334Y2439048D01*
X-16661429Y2381905D01*
X-16699524Y2343810D01*
X-16737620Y2324762D01*
D11*
X10428571Y-61202380D02*
X10428571Y-60202380D01*
X10761904Y-60916666D01*
X11095238Y-60202380D01*
X11095238Y-61202380D01*
X11714285Y-61202380D02*
X11619047Y-61154761D01*
X11571428Y-61107142D01*
X11523809Y-61011904D01*
X11523809Y-60726190D01*
X11571428Y-60630952D01*
X11619047Y-60583333D01*
X11714285Y-60535714D01*
X11857142Y-60535714D01*
X11952380Y-60583333D01*
X12000000Y-60630952D01*
X12047619Y-60726190D01*
X12047619Y-61011904D01*
X12000000Y-61107142D01*
X11952380Y-61154761D01*
X11857142Y-61202380D01*
X11714285Y-61202380D01*
X12904761Y-60535714D02*
X12904761Y-61202380D01*
X12476190Y-60535714D02*
X12476190Y-61059523D01*
X12523809Y-61154761D01*
X12619047Y-61202380D01*
X12761904Y-61202380D01*
X12857142Y-61154761D01*
X12904761Y-61107142D01*
X13380952Y-60535714D02*
X13380952Y-61202380D01*
X13380952Y-60630952D02*
X13428571Y-60583333D01*
X13523809Y-60535714D01*
X13666666Y-60535714D01*
X13761904Y-60583333D01*
X13809523Y-60678571D01*
X13809523Y-61202380D01*
X14142857Y-60535714D02*
X14523809Y-60535714D01*
X14285714Y-60202380D02*
X14285714Y-61059523D01*
X14333333Y-61154761D01*
X14428571Y-61202380D01*
X14523809Y-61202380D01*
X14857142Y-61202380D02*
X14857142Y-60535714D01*
X14857142Y-60202380D02*
X14809523Y-60250000D01*
X14857142Y-60297619D01*
X14904761Y-60250000D01*
X14857142Y-60202380D01*
X14857142Y-60297619D01*
X15333333Y-60535714D02*
X15333333Y-61202380D01*
X15333333Y-60630952D02*
X15380952Y-60583333D01*
X15476190Y-60535714D01*
X15619047Y-60535714D01*
X15714285Y-60583333D01*
X15761904Y-60678571D01*
X15761904Y-61202380D01*
X16666666Y-60535714D02*
X16666666Y-61345238D01*
X16619047Y-61440476D01*
X16571428Y-61488095D01*
X16476190Y-61535714D01*
X16333333Y-61535714D01*
X16238095Y-61488095D01*
X16666666Y-61154761D02*
X16571428Y-61202380D01*
X16380952Y-61202380D01*
X16285714Y-61154761D01*
X16238095Y-61107142D01*
X16190476Y-61011904D01*
X16190476Y-60726190D01*
X16238095Y-60630952D01*
X16285714Y-60583333D01*
X16380952Y-60535714D01*
X16571428Y-60535714D01*
X16666666Y-60583333D01*
X17142857Y-61202380D02*
X17142857Y-60202380D01*
X17142857Y-60678571D02*
X17714285Y-60678571D01*
X17714285Y-61202380D02*
X17714285Y-60202380D01*
X18333333Y-61202380D02*
X18238095Y-61154761D01*
X18190476Y-61107142D01*
X18142857Y-61011904D01*
X18142857Y-60726190D01*
X18190476Y-60630952D01*
X18238095Y-60583333D01*
X18333333Y-60535714D01*
X18476190Y-60535714D01*
X18571428Y-60583333D01*
X18619047Y-60630952D01*
X18666666Y-60726190D01*
X18666666Y-61011904D01*
X18619047Y-61107142D01*
X18571428Y-61154761D01*
X18476190Y-61202380D01*
X18333333Y-61202380D01*
X19238095Y-61202380D02*
X19142857Y-61154761D01*
X19095238Y-61059523D01*
X19095238Y-60202380D01*
X20000000Y-61154761D02*
X19904761Y-61202380D01*
X19714285Y-61202380D01*
X19619047Y-61154761D01*
X19571428Y-61059523D01*
X19571428Y-60678571D01*
X19619047Y-60583333D01*
X19714285Y-60535714D01*
X19904761Y-60535714D01*
X20000000Y-60583333D01*
X20047619Y-60678571D01*
X20047619Y-60773809D01*
X19571428Y-60869047D01*
X20238095Y-61297619D02*
X21000000Y-61297619D01*
X21238095Y-61202380D02*
X21238095Y-60202380D01*
X21619047Y-60202380D01*
X21714285Y-60250000D01*
X21761904Y-60297619D01*
X21809523Y-60392857D01*
X21809523Y-60535714D01*
X21761904Y-60630952D01*
X21714285Y-60678571D01*
X21619047Y-60726190D01*
X21238095Y-60726190D01*
X22666666Y-61202380D02*
X22666666Y-60678571D01*
X22619047Y-60583333D01*
X22523809Y-60535714D01*
X22333333Y-60535714D01*
X22238095Y-60583333D01*
X22666666Y-61154761D02*
X22571428Y-61202380D01*
X22333333Y-61202380D01*
X22238095Y-61154761D01*
X22190476Y-61059523D01*
X22190476Y-60964285D01*
X22238095Y-60869047D01*
X22333333Y-60821428D01*
X22571428Y-60821428D01*
X22666666Y-60773809D01*
X23571428Y-61202380D02*
X23571428Y-60202380D01*
X23571428Y-61154761D02*
X23476190Y-61202380D01*
X23285714Y-61202380D01*
X23190476Y-61154761D01*
X23142857Y-61107142D01*
X23095238Y-61011904D01*
X23095238Y-60726190D01*
X23142857Y-60630952D01*
X23190476Y-60583333D01*
X23285714Y-60535714D01*
X23476190Y-60535714D01*
X23571428Y-60583333D01*
X16538095Y-57452380D02*
X16538095Y-56452380D01*
X16538095Y-56928571D02*
X17109523Y-56928571D01*
X17109523Y-57452380D02*
X17109523Y-56452380D01*
X17538095Y-56547619D02*
X17585714Y-56500000D01*
X17680952Y-56452380D01*
X17919047Y-56452380D01*
X18014285Y-56500000D01*
X18061904Y-56547619D01*
X18109523Y-56642857D01*
X18109523Y-56738095D01*
X18061904Y-56880952D01*
X17490476Y-57452380D01*
X18109523Y-57452380D01*
X-5426048Y-6963516D02*
X-5473667Y-7058754D01*
X-5521286Y-7106373D01*
X-5616524Y-7153992D01*
X-5664143Y-7153992D01*
X-5759381Y-7106373D01*
X-5807000Y-7058754D01*
X-5854620Y-6963516D01*
X-5854620Y-6773040D01*
X-5807000Y-6677801D01*
X-5759381Y-6630182D01*
X-5664143Y-6582563D01*
X-5616524Y-6582563D01*
X-5521286Y-6630182D01*
X-5473667Y-6677801D01*
X-5426048Y-6773040D01*
X-5426048Y-6963516D01*
X-5378429Y-7058754D01*
X-5330810Y-7106373D01*
X-5235572Y-7153992D01*
X-5045096Y-7153992D01*
X-4949858Y-7106373D01*
X-4902239Y-7058754D01*
X-4854620Y-6963516D01*
X-4854620Y-6773040D01*
X-4902239Y-6677801D01*
X-4949858Y-6630182D01*
X-5045096Y-6582563D01*
X-5235572Y-6582563D01*
X-5330810Y-6630182D01*
X-5378429Y-6677801D01*
X-5426048Y-6773040D01*
X-5854620Y-5725420D02*
X-5854620Y-5915897D01*
X-5807000Y-6011135D01*
X-5759381Y-6058754D01*
X-5616524Y-6153992D01*
X-5426048Y-6201611D01*
X-5045096Y-6201611D01*
X-4949858Y-6153992D01*
X-4902239Y-6106373D01*
X-4854620Y-6011135D01*
X-4854620Y-5820659D01*
X-4902239Y-5725420D01*
X-4949858Y-5677801D01*
X-5045096Y-5630182D01*
X-5283191Y-5630182D01*
X-5378429Y-5677801D01*
X-5426048Y-5725420D01*
X-5473667Y-5820659D01*
X-5473667Y-6011135D01*
X-5426048Y-6106373D01*
X-5378429Y-6153992D01*
X-5283191Y-6201611D01*
X-4949858Y-5201611D02*
X-4902239Y-5153992D01*
X-4854620Y-5201611D01*
X-4902239Y-5249230D01*
X-4949858Y-5201611D01*
X-4854620Y-5201611D01*
X-5854620Y-4296849D02*
X-5854620Y-4487325D01*
X-5807000Y-4582563D01*
X-5759381Y-4630182D01*
X-5616524Y-4725420D01*
X-5426048Y-4773040D01*
X-5045096Y-4773040D01*
X-4949858Y-4725420D01*
X-4902239Y-4677801D01*
X-4854620Y-4582563D01*
X-4854620Y-4392087D01*
X-4902239Y-4296849D01*
X-4949858Y-4249230D01*
X-5045096Y-4201611D01*
X-5283191Y-4201611D01*
X-5378429Y-4249230D01*
X-5426048Y-4296849D01*
X-5473667Y-4392087D01*
X-5473667Y-4582563D01*
X-5426048Y-4677801D01*
X-5378429Y-4725420D01*
X-5283191Y-4773040D01*
X-4854620Y-3773040D02*
X-5854620Y-3773040D01*
X-5235572Y-3677801D02*
X-4854620Y-3392087D01*
X-5521286Y-3392087D02*
X-5140334Y-3773040D01*
X-6024620Y-5915897D02*
X-6500810Y-6249230D01*
X-6024620Y-6487325D02*
X-7024620Y-6487325D01*
X-7024620Y-6106373D01*
X-6977000Y-6011135D01*
X-6929381Y-5963516D01*
X-6834143Y-5915897D01*
X-6691286Y-5915897D01*
X-6596048Y-5963516D01*
X-6548429Y-6011135D01*
X-6500810Y-6106373D01*
X-6500810Y-6487325D01*
X-6024620Y-4963516D02*
X-6024620Y-5534944D01*
X-6024620Y-5249230D02*
X-7024620Y-5249230D01*
X-6881762Y-5344468D01*
X-6786524Y-5439706D01*
X-6738905Y-5534944D01*
X-7024620Y-4630182D02*
X-7024620Y-4011135D01*
X-6643667Y-4344468D01*
X-6643667Y-4201611D01*
X-6596048Y-4106373D01*
X-6548429Y-4058754D01*
X-6453191Y-4011135D01*
X-6215096Y-4011135D01*
X-6119858Y-4058754D01*
X-6072239Y-4106373D01*
X-6024620Y-4201611D01*
X-6024620Y-4487325D01*
X-6072239Y-4582563D01*
X-6119858Y-4630182D01*
X-4560501Y-7236670D02*
X-4608120Y-7189051D01*
X-4655740Y-7093813D01*
X-4655740Y-6855718D01*
X-4608120Y-6760480D01*
X-4560501Y-6712860D01*
X-4465263Y-6665241D01*
X-4370025Y-6665241D01*
X-4227168Y-6712860D01*
X-3655740Y-7284289D01*
X-3655740Y-6665241D01*
X-4560501Y-6284289D02*
X-4608120Y-6236670D01*
X-4655740Y-6141432D01*
X-4655740Y-5903337D01*
X-4608120Y-5808099D01*
X-4560501Y-5760480D01*
X-4465263Y-5712860D01*
X-4370025Y-5712860D01*
X-4227168Y-5760480D01*
X-3655740Y-6331908D01*
X-3655740Y-5712860D01*
X-3750978Y-5284289D02*
X-3703359Y-5236670D01*
X-3655740Y-5284289D01*
X-3703359Y-5331908D01*
X-3750978Y-5284289D01*
X-3655740Y-5284289D01*
X-4655740Y-4379527D02*
X-4655740Y-4570003D01*
X-4608120Y-4665241D01*
X-4560501Y-4712860D01*
X-4417644Y-4808099D01*
X-4227168Y-4855718D01*
X-3846216Y-4855718D01*
X-3750978Y-4808099D01*
X-3703359Y-4760480D01*
X-3655740Y-4665241D01*
X-3655740Y-4474765D01*
X-3703359Y-4379527D01*
X-3750978Y-4331908D01*
X-3846216Y-4284289D01*
X-4084311Y-4284289D01*
X-4179549Y-4331908D01*
X-4227168Y-4379527D01*
X-4274787Y-4474765D01*
X-4274787Y-4665241D01*
X-4227168Y-4760480D01*
X-4179549Y-4808099D01*
X-4084311Y-4855718D01*
X-3655740Y-3855718D02*
X-4655740Y-3855718D01*
X-3655740Y-3284289D02*
X-4227168Y-3712860D01*
X-4655740Y-3284289D02*
X-4084311Y-3855718D01*
X-4825740Y-5903337D02*
X-5301930Y-6236670D01*
X-4825740Y-6474765D02*
X-5825740Y-6474765D01*
X-5825740Y-6093813D01*
X-5778120Y-5998575D01*
X-5730501Y-5950956D01*
X-5635263Y-5903337D01*
X-5492406Y-5903337D01*
X-5397168Y-5950956D01*
X-5349549Y-5998575D01*
X-5301930Y-6093813D01*
X-5301930Y-6474765D01*
X-4825740Y-4950956D02*
X-4825740Y-5522384D01*
X-4825740Y-5236670D02*
X-5825740Y-5236670D01*
X-5682882Y-5331908D01*
X-5587644Y-5427146D01*
X-5540025Y-5522384D01*
X-5730501Y-4570003D02*
X-5778120Y-4522384D01*
X-5825740Y-4427146D01*
X-5825740Y-4189051D01*
X-5778120Y-4093813D01*
X-5730501Y-4046194D01*
X-5635263Y-3998575D01*
X-5540025Y-3998575D01*
X-5397168Y-4046194D01*
X-4825740Y-4617622D01*
X-4825740Y-3998575D01*
M02*
