G04 #@! TF.GenerationSoftware,KiCad,Pcbnew,(5.1.10)-1*
G04 #@! TF.CreationDate,2021-11-03T08:24:22+05:30*
G04 #@! TF.ProjectId,P-1000072_Cicada Wi-Fi,502d3130-3030-4303-9732-5f4369636164,0.1*
G04 #@! TF.SameCoordinates,PX7cee6c0PY3dfd240*
G04 #@! TF.FileFunction,Other,User*
%FSLAX46Y46*%
G04 Gerber Fmt 4.6, Leading zero omitted, Abs format (unit mm)*
G04 Created by KiCad (PCBNEW (5.1.10)-1) date 2021-11-03 08:24:22*
%MOMM*%
%LPD*%
G01*
G04 APERTURE LIST*
%ADD10C,0.050000*%
G04 APERTURE END LIST*
D10*
X-470000Y-33810000D02*
X-17820000Y-33810000D01*
X-470000Y-15610000D02*
X-470000Y-33810000D01*
X-17820000Y-15610000D02*
X-470000Y-15610000D01*
X-17820000Y-33810000D02*
X-17820000Y-15610000D01*
X-11893040Y-39702740D02*
G75*
G03*
X-11893040Y-39702740I-1000000J0D01*
G01*
X10780400Y-30457140D02*
G75*
G03*
X10780400Y-30457140I-4250000J0D01*
G01*
X10739760Y-21798280D02*
G75*
G03*
X10739760Y-21798280I-4250000J0D01*
G01*
X-16710760Y-13461500D02*
X-15770760Y-13461500D01*
X-15770760Y-13461500D02*
X-15770760Y-15321500D01*
X-15770760Y-15321500D02*
X-16710760Y-15321500D01*
X-16710760Y-15321500D02*
X-16710760Y-13461500D01*
X-14721940Y-13426220D02*
X-13781940Y-13426220D01*
X-13781940Y-13426220D02*
X-13781940Y-15286220D01*
X-13781940Y-15286220D02*
X-14721940Y-15286220D01*
X-14721940Y-15286220D02*
X-14721940Y-13426220D01*
X-10688420Y-36202120D02*
X-9748420Y-36202120D01*
X-9748420Y-36202120D02*
X-9748420Y-38062120D01*
X-9748420Y-38062120D02*
X-10688420Y-38062120D01*
X-10688420Y-38062120D02*
X-10688420Y-36202120D01*
X-8679400Y-12763400D02*
X-6819400Y-12763400D01*
X-8679400Y-13703400D02*
X-8679400Y-12763400D01*
X-6819400Y-13703400D02*
X-8679400Y-13703400D01*
X-6819400Y-12763400D02*
X-6819400Y-13703400D01*
X-15651380Y-36159220D02*
X-15651380Y-38019220D01*
X-16591380Y-36159220D02*
X-15651380Y-36159220D01*
X-16591380Y-38019220D02*
X-16591380Y-36159220D01*
X-15651380Y-38019220D02*
X-16591380Y-38019220D01*
X-12695020Y-38283380D02*
X-12695020Y-36423380D01*
X-11755020Y-38283380D02*
X-12695020Y-38283380D01*
X-11755020Y-36423380D02*
X-11755020Y-38283380D01*
X-12695020Y-36423380D02*
X-11755020Y-36423380D01*
X-7802660Y-14813380D02*
X-9662660Y-14813380D01*
X-7802660Y-13873380D02*
X-7802660Y-14813380D01*
X-9662660Y-13873380D02*
X-7802660Y-13873380D01*
X-9662660Y-14813380D02*
X-9662660Y-13873380D01*
X-2675120Y-35498940D02*
X-815120Y-35498940D01*
X-2675120Y-36438940D02*
X-2675120Y-35498940D01*
X-815120Y-36438940D02*
X-2675120Y-36438940D01*
X-815120Y-35498940D02*
X-815120Y-36438940D01*
X-2675120Y-34427060D02*
X-815120Y-34427060D01*
X-2675120Y-35367060D02*
X-2675120Y-34427060D01*
X-815120Y-35367060D02*
X-2675120Y-35367060D01*
X-815120Y-34427060D02*
X-815120Y-35367060D01*
X-15671300Y-35976660D02*
X-17531300Y-35976660D01*
X-15671300Y-35036660D02*
X-15671300Y-35976660D01*
X-17531300Y-35036660D02*
X-15671300Y-35036660D01*
X-17531300Y-35976660D02*
X-17531300Y-35036660D01*
X-11739380Y-36217960D02*
X-13599380Y-36217960D01*
X-11739380Y-35277960D02*
X-11739380Y-36217960D01*
X-13599380Y-35277960D02*
X-11739380Y-35277960D01*
X-13599380Y-36217960D02*
X-13599380Y-35277960D01*
X12333480Y-19273520D02*
G75*
G03*
X12333480Y-19273520I-1000000J0D01*
G01*
X18702540Y-25318720D02*
G75*
G03*
X18702540Y-25318720I-4250000J0D01*
G01*
X18722860Y-33962340D02*
G75*
G03*
X18722860Y-33962340I-4250000J0D01*
G01*
X19351820Y-51751380D02*
X19351820Y-45251380D01*
X14851820Y-51751380D02*
X19351820Y-51751380D01*
X14851820Y-45251380D02*
X14851820Y-51751380D01*
X19351820Y-45251380D02*
X14851820Y-45251380D01*
X-11237720Y-13873480D02*
G75*
G03*
X-11237720Y-13873480I-1000000J0D01*
G01*
X-13196060Y-12082780D02*
G75*
G03*
X-13196060Y-12082780I-1000000J0D01*
G01*
X-3239260Y-13906500D02*
G75*
G03*
X-3239260Y-13906500I-1000000J0D01*
G01*
X-4491480Y-12024360D02*
G75*
G03*
X-4491480Y-12024360I-1000000J0D01*
G01*
X-7326120Y-6253480D02*
G75*
G03*
X-7326120Y-6253480I-1000000J0D01*
G01*
X-9210800Y-12054840D02*
G75*
G03*
X-9210800Y-12054840I-1000000J0D01*
G01*
X-14499080Y-9888220D02*
G75*
G03*
X-14499080Y-9888220I-1000000J0D01*
G01*
X-3185920Y-37266880D02*
G75*
G03*
X-3185920Y-37266880I-1000000J0D01*
G01*
X-8697720Y-39151560D02*
G75*
G03*
X-8697720Y-39151560I-1000000J0D01*
G01*
X-5223000Y-35727640D02*
G75*
G03*
X-5223000Y-35727640I-1000000J0D01*
G01*
X-7199120Y-35179000D02*
G75*
G03*
X-7199120Y-35179000I-1000000J0D01*
G01*
X-9251440Y-35100260D02*
G75*
G03*
X-9251440Y-35100260I-1000000J0D01*
G01*
X-17783300Y-35095180D02*
G75*
G03*
X-17783300Y-35095180I-1000000J0D01*
G01*
X-694180Y-37703760D02*
G75*
G03*
X-694180Y-37703760I-1000000J0D01*
G01*
X17299180Y-19817080D02*
G75*
G03*
X17299180Y-19817080I-1000000J0D01*
G01*
X14626020Y-42756880D02*
X14626020Y-47096880D01*
X14626020Y-42756880D02*
X11226020Y-42756880D01*
X11226020Y-47096880D02*
X14626020Y-47096880D01*
X11226020Y-47096880D02*
X11226020Y-42756880D01*
X11125300Y-42183820D02*
X11125300Y-44043820D01*
X10185300Y-42183820D02*
X11125300Y-42183820D01*
X10185300Y-44043820D02*
X10185300Y-42183820D01*
X11125300Y-44043820D02*
X10185300Y-44043820D01*
X11112860Y-45095260D02*
X9252860Y-45095260D01*
X11112860Y-44155260D02*
X11112860Y-45095260D01*
X9252860Y-44155260D02*
X11112860Y-44155260D01*
X9252860Y-45095260D02*
X9252860Y-44155260D01*
X13396460Y-48262640D02*
X11536460Y-48262640D01*
X13396460Y-47322640D02*
X13396460Y-48262640D01*
X11536460Y-47322640D02*
X13396460Y-47322640D01*
X11536460Y-48262640D02*
X11536460Y-47322640D01*
X10815840Y-39116000D02*
G75*
G03*
X10815840Y-39116000I-4250000J0D01*
G01*
X14732040Y-49130400D02*
X14732040Y-52490400D01*
X12832040Y-49130400D02*
X14732040Y-49130400D01*
X12832040Y-52490400D02*
X12832040Y-49130400D01*
X14732040Y-52490400D02*
X12832040Y-52490400D01*
X12741660Y-49144640D02*
X12741660Y-52104640D01*
X11281660Y-49144640D02*
X12741660Y-49144640D01*
X11281660Y-52104640D02*
X11281660Y-49144640D01*
X12741660Y-52104640D02*
X11281660Y-52104640D01*
X11123160Y-46149360D02*
X9263160Y-46149360D01*
X11123160Y-45209360D02*
X11123160Y-46149360D01*
X9263160Y-45209360D02*
X11123160Y-45209360D01*
X9263160Y-46149360D02*
X9263160Y-45209360D01*
X14945320Y-43714700D02*
X14945320Y-40354700D01*
X16845320Y-43714700D02*
X14945320Y-43714700D01*
X16845320Y-40354700D02*
X16845320Y-43714700D01*
X14945320Y-40354700D02*
X16845320Y-40354700D01*
X17090640Y-43318880D02*
X17090640Y-40358880D01*
X18550640Y-43318880D02*
X17090640Y-43318880D01*
X18550640Y-40358880D02*
X18550640Y-43318880D01*
X17090640Y-40358880D02*
X18550640Y-40358880D01*
X-14000000Y-57000000D02*
G75*
G03*
X-14000000Y-57000000I-3000000J0D01*
G01*
X13290000Y-57390000D02*
G75*
G03*
X13290000Y-57390000I-1250000J0D01*
G01*
X-11698920Y-58592720D02*
G75*
G03*
X-11698920Y-58592720I-1250000J0D01*
G01*
X-15840000Y2220000D02*
G75*
G03*
X-15840000Y2220000I-1250000J0D01*
G01*
X20000000Y-57000000D02*
G75*
G03*
X20000000Y-57000000I-3000000J0D01*
G01*
X-6007000Y-6203040D02*
X-6947000Y-6203040D01*
X-6947000Y-6203040D02*
X-6947000Y-4343040D01*
X-6947000Y-4343040D02*
X-6007000Y-4343040D01*
X-6007000Y-4343040D02*
X-6007000Y-6203040D01*
X-4808120Y-6190480D02*
X-5748120Y-6190480D01*
X-5748120Y-6190480D02*
X-5748120Y-4330480D01*
X-5748120Y-4330480D02*
X-4808120Y-4330480D01*
X-4808120Y-4330480D02*
X-4808120Y-6190480D01*
M02*
